<svg width="4389" height="2906" viewBox="0 0 4389 2906" fill="none" xmlns="http://www.w3.org/2000/svg">
<rect width="4389" height="2906" fill="url(#paint0_radial)"/>
<g clip-path="url(#clip0)">
<path d="M1917.64 997.916C1918.74 1016.92 1917.2 1035.99 1913.07 1054.57C1909.54 1070.63 1906.13 1087.13 1898.47 1101.95C1890.02 1118.4 1883.86 1136.02 1873.01 1151.23C1857.27 1173.13 1841.06 1194.55 1821.1 1212.73C1801.62 1230.04 1780.33 1245.22 1757.61 1257.99C1739.94 1268.21 1720.96 1275.03 1702.37 1283.04C1688.62 1288.89 1674.83 1294.65 1661 1300.31C1656.47 1302.14 1651.55 1303.06 1647.05 1304.94C1644.11 1306.18 1639.39 1305.67 1639.75 1311.46C1639.9 1313.41 1636.37 1314.28 1635.03 1313.26C1626.8 1306.88 1619.16 1313.11 1611.54 1314.36C1592.51 1317.49 1573.39 1320.51 1554.18 1318.98C1527.42 1316.81 1500.65 1314.87 1474.44 1308.17C1458.25 1303.77 1442.34 1298.45 1426.76 1292.23C1410.52 1285.84 1394.72 1278.37 1379.48 1269.87C1361.02 1259.71 1344.24 1246.75 1329.76 1231.44C1321.9 1223.24 1313.09 1216.09 1305.42 1207.59C1296.78 1197.86 1291.21 1186.57 1284.1 1176.1C1278.12 1166.88 1272.67 1157.32 1267.8 1147.46C1260.29 1132.76 1254.49 1117.24 1250.52 1101.22C1246.85 1086.79 1241.44 1072.77 1237.6 1058.37C1234.53 1046.9 1230.93 1035.59 1228.89 1023.83C1227.35 1015.1 1224.02 1006.8 1222.95 997.867C1220.98 981.295 1216.79 965.087 1215.65 948.271C1214.79 934.862 1214.99 921.501 1214.48 908.141C1213.75 889.889 1219.35 872.732 1224.21 855.624C1228.71 838.501 1235.24 821.98 1243.68 806.417C1251.71 792.331 1260.84 778.904 1270.99 766.263C1280.72 754.338 1291.82 743.679 1300.63 731.243C1306.86 722.434 1315.55 716.642 1322.82 709.341C1330.9 701.164 1339.27 693.304 1348.16 685.906C1356.11 679.286 1363.46 672.01 1372.49 666.851C1384 660.28 1396.37 655.632 1408.51 650.497C1422.49 644.738 1437.02 640.409 1451.88 637.575C1468.4 634.241 1484.73 630.03 1501.69 628.692C1515.69 627.573 1529.82 625.626 1543.65 626.453C1563.85 627.694 1584.14 627.427 1604.2 632.78C1630.09 639.74 1656.06 646.043 1680.73 656.8C1697.99 664.295 1716.17 669.966 1732.54 678.994C1746.2 686.49 1760.21 693.377 1773.91 700.897C1790.95 710.242 1804.46 723.651 1818.74 736.086C1830.03 745.821 1838.99 758.354 1847.29 771.008C1860.26 790.842 1873.67 810.457 1883.04 832.31C1889.17 846.595 1894.09 861.513 1898.98 876.115C1902.51 886.725 1905.47 897.53 1908.05 908.409C1911.55 923.302 1913.95 938.43 1915.23 953.673C1916.38 968.445 1918.45 983.071 1917.64 997.916Z" fill="#3A4453"/>
<path d="M373.524 1216.11C376.493 1199.88 405.161 1158.82 414.335 1147.82C427.793 1131.96 444.609 1120.06 461.523 1108.69C476.983 1098.6 493.332 1089.94 510.365 1082.82C523.288 1077.2 536.405 1072.94 549.692 1068.64C555.581 1066.74 561.179 1069.02 566.946 1067.83C585.709 1063.99 604.813 1065.69 623.552 1066.81C642.197 1068.23 660.561 1072.18 678.138 1078.56C688.991 1082.34 699.48 1086.69 709.945 1091.22C723.183 1096.96 734.281 1106.19 746.132 1114.09C759.256 1123.29 771.113 1134.17 781.395 1146.46C782.369 1147.58 783.293 1149.5 785.484 1148.04C791.13 1144.27 797.652 1142.3 803.711 1139.16C810.452 1135.66 816.658 1127.67 826.83 1133.25C829.459 1134.71 835.372 1130.55 839.631 1128.65C858.933 1120.41 879.168 1114.56 899.887 1111.22C925.51 1106.63 951.608 1105.28 977.568 1107.21C1002.17 1109.02 1026.01 1116.52 1047.22 1129.11C1063.79 1139.01 1079.56 1149.8 1092.24 1164.4C1101.8 1175.4 1110.27 1187.08 1110.78 1202.87C1111.1 1212.02 1105.31 1217.25 1100.37 1222.88C1082.29 1242.94 1060.22 1259.01 1035.58 1270.06C1023 1275.9 1010.25 1281.67 997.84 1287.83C986.596 1293.43 974.988 1298.51 964.061 1304.86C949.046 1313.53 932.862 1319.59 917.117 1326.64C890.493 1338.54 862.969 1348.28 836.808 1361.15C835.292 1361.78 833.938 1362.75 832.847 1363.97C831.755 1365.2 830.955 1366.66 830.505 1368.23C821.793 1400.31 804.782 1428.05 786.262 1455.26C773.438 1473.62 759.534 1491.19 744.623 1507.9C739.99 1513.03 734.863 1517.69 729.316 1521.82C721.261 1528.05 715.98 1537.05 707.268 1542.7C687.753 1555.53 666.514 1565.53 644.189 1572.39C612.941 1581.81 580.647 1581.81 548.646 1580.03C525.971 1578.37 503.907 1571.92 483.912 1561.1C464.443 1551.02 445.972 1540.02 429.862 1524.74C420.846 1516.38 412.49 1507.33 404.869 1497.68C403.338 1495.54 401.217 1493.9 398.765 1492.95C396.314 1492 393.639 1491.79 391.07 1492.35C371.601 1495.19 352.132 1498.8 332.372 1500.69C318.257 1502.06 304.288 1504.49 290.1 1505.71C273.386 1506.94 256.616 1507.22 239.87 1506.56C217.311 1505.9 194.338 1505.17 173.53 1495.02C155.473 1486.19 142.648 1472.29 138.779 1451.68C135.274 1433.11 138.779 1415.18 143.476 1397.27C147.296 1382.67 156.447 1371.62 164.867 1359.81C171.034 1351.35 178.029 1343.51 185.747 1336.43C194.968 1327.58 204.844 1319.45 215.291 1312.09C225.634 1304.94 234.76 1295.93 244.348 1287.76C258.038 1276.18 273.481 1266.86 290.1 1260.13C297.103 1256.94 303.834 1253.18 310.226 1248.89C321.347 1242.15 333.418 1238.09 345.489 1233.95C349.391 1232.47 353.196 1230.73 356.878 1228.77C358.247 1227.93 359.81 1227.46 361.415 1227.41C363.019 1227.36 364.609 1227.72 366.028 1228.47C369.825 1226.75 372.307 1226.04 372.356 1224.75L373.524 1216.11Z" fill="#3A4453"/>
<path d="M366.88 1237.4C365.128 1237.19 362.013 1237.74 360.942 1236.72C359.384 1235.09 359.044 1236.84 358.362 1237.33C352.692 1241.22 346.194 1242.76 339.672 1244.63C329.623 1247.72 320.104 1252.32 311.443 1258.28C300.637 1265.46 288.518 1269.94 277.105 1275.78C265.277 1281.84 255.445 1290.5 245.078 1298.51C232.74 1308 221.545 1318.93 208.574 1327.71C199.809 1334.02 191.755 1341.26 184.555 1349.3C172.606 1361.78 161.654 1375.34 154.354 1391.06C149.713 1401.78 146.75 1413.15 145.568 1424.77C144.101 1433.86 144.382 1443.15 146.396 1452.14C151.531 1472.39 164.794 1484.51 183.995 1491.08C197.94 1495.95 212.322 1497.26 226.948 1498.58C242.213 1499.84 257.542 1500.15 272.846 1499.5C288.185 1498.86 303.463 1497.18 318.573 1494.46C330.133 1492.44 341.936 1491.35 353.592 1489.6C366.442 1487.77 379.364 1486.41 393.455 1484.73C386.154 1475 379.413 1465.99 374.935 1455.53C374.083 1453.56 372.502 1452.05 368.803 1452.9C350.745 1456.94 332.591 1460.76 314.29 1463.31C291.744 1466.74 268.722 1465.2 246.83 1458.81C234.906 1455.23 223.565 1451.51 213.49 1444.02C202.515 1435.96 197.72 1424.79 196.333 1411.8C195.051 1402.36 196.163 1392.76 199.565 1383.87C202.967 1374.99 208.551 1367.1 215.802 1360.93C222.032 1355.31 227.192 1348.5 233.081 1342.44C244.792 1330.76 257.733 1320.38 271.678 1311.48C282 1305 291.767 1297.67 300.881 1289.58C314.923 1276.56 331.398 1266.85 351.524 1265.68C357.121 1265.34 364.3 1251.4 365.809 1243.63L366.88 1237.4Z" fill="#D9A672"/>
<path d="M821.379 561.574C823.545 580.556 820.308 600.341 815.417 619.59C812.545 630.858 811.426 643.318 803.127 652.833C802.455 653.482 802.026 654.341 801.91 655.267C802.397 670.087 789.523 677.364 783.61 688.485C777.696 699.607 769.008 707.808 761.245 716.91C751.857 727.576 740.63 736.469 728.099 743.168C712.445 752.239 696.182 760.216 679.427 767.042C659.666 774.61 639.613 781.327 619.536 788.043C601.603 794.038 583.231 798.627 564.586 801.769C546.938 804.339 528.996 804.134 511.411 801.16C495.466 799.008 479.746 795.425 464.443 790.453C454.003 786.924 443.417 784.077 433.39 778.285C423.364 772.493 413.094 766.896 402.654 761.736C393.062 756.545 384.172 750.15 376.201 742.706C358.224 727.382 341.448 710.704 326.02 692.817C310.591 674.565 299.737 653.539 290.611 631.831C286.109 621.075 280.244 610.927 276.958 599.538C272.091 582.722 266.81 566.149 264.06 548.749C260.532 526.384 260.872 503.922 261.627 481.509C262.065 467.783 265.253 454.179 268.368 440.649C273.065 420.401 277.372 400.032 286.133 381.123C291 370.61 295.478 359.902 301.416 349.779C307.67 339.119 313.073 327.876 320.471 317.996C327.566 308.287 336.454 300.026 346.657 293.66C358.411 286.481 370.019 279.058 381.676 271.758C390.997 265.941 402.41 263.557 412.705 259.249C421.782 255.428 431.735 256.815 440.91 253.676C443.089 252.96 445.45 253.036 447.579 253.891C449.707 254.745 451.465 256.324 452.543 258.349C454.587 262.972 456.947 261.22 458.943 260.076C466.784 255.988 475.204 253.124 483.912 251.583C491.918 249.831 499.973 250.172 507.883 249.49C521.876 248.274 535.991 246.424 550.13 247.665C570.645 249.466 591.501 250.099 611.53 253.92C625.797 256.417 639.595 261.096 652.439 267.791C664.923 274.508 678.916 277.793 690.816 286.067C699.504 292.103 708.022 298.235 716.296 304.879C730.898 316.463 740.462 332.451 752.046 346.664C761.574 358.697 769.486 371.927 775.579 386.015C781.687 399.521 788.404 412.784 791.689 427.653C793.707 434.825 796.337 441.811 799.55 448.534C805.174 463.319 809.768 478.476 813.299 493.896C816.685 506.782 819.31 519.857 821.16 533.052C822.353 542.032 821.379 551.28 821.379 561.574Z" fill="#3A4453"/>
<path d="M1268.67 1606.56C1254.07 1607.26 1240.76 1602.44 1227.3 1597.33C1219.16 1594.11 1210.44 1592.61 1201.68 1592.94C1192.93 1593.27 1184.34 1595.42 1176.47 1599.25C1159.09 1607.58 1141.35 1615.63 1121.86 1614.98C1090.51 1613.93 1067 1594 1062.96 1561.85C1059.19 1532.09 1077.22 1506.78 1106.77 1497.9C1127.72 1491.64 1141.54 1476.43 1152.86 1458.42C1157.12 1451.66 1160.04 1443.82 1167.46 1439.12C1169.57 1437.67 1171.99 1436.73 1174.52 1436.37C1195.3 1434.72 1216.23 1433.16 1236.94 1435.13C1252.89 1436.68 1268.01 1442.95 1280.38 1453.14C1290.12 1461.03 1301.7 1466.67 1312.21 1473.68C1319.59 1478.42 1325.92 1484.63 1330.78 1491.93C1335.64 1499.23 1338.94 1507.46 1340.47 1516.1C1342.2 1524.92 1343.13 1533.88 1343.26 1542.87C1343.77 1549.74 1341.62 1556.55 1337.28 1561.9C1322.92 1578.67 1305.91 1592.97 1286.93 1604.24C1281.16 1607.67 1274.83 1606.48 1268.67 1606.56Z" fill="#3A4453"/>
<path d="M2424.71 677.605C2424.71 693.034 2424.71 706.248 2419.43 718.83C2414 731.776 2404.03 742.292 2391.39 748.398C2387.33 750.442 2385.02 753.874 2381.41 756.088C2361.6 768.256 2340.58 770.69 2317.41 769.692C2293.27 768.67 2274.87 756.38 2256.57 744.869C2233.93 731.009 2217.4 709.061 2210.33 683.47C2204.59 665.137 2202.5 645.856 2204.17 626.719C2206.61 603.94 2217.15 584.52 2236.74 571.184C2248.51 563.153 2261.68 557.897 2274.7 552.3C2296.6 542.906 2318.51 546.07 2340.85 549.866C2358.39 552.835 2370.58 563.932 2383.63 574.202C2387.16 576.976 2390.47 580.018 2393.87 582.963C2408.31 595.423 2414.44 612.482 2418.6 630.077C2422.44 646.26 2426.09 662.76 2424.71 677.605Z" fill="#3A4453"/>
<path d="M199.959 722.798C217.773 721.022 231.961 731.583 245.808 742.753C250.676 746.599 255.08 750.906 259.655 755.067C276.009 769.937 277.737 788.7 273.844 808.923C271.41 820.969 267.492 832.821 259.631 842.02C251.43 851.754 242.206 860.174 229.211 864.847C214.06 870.417 197.377 870.148 182.413 864.092C169.491 859.225 155.643 855.039 145.106 845.451C134.009 835.424 131.429 821.431 128.363 807.633C123.204 784.514 133.23 767.26 149 751.977C149.681 751.32 150.849 750.468 150.776 749.86C149.243 737.692 158.661 735.55 166.57 730.659C176.694 724.429 187.134 722.603 199.959 722.798Z" fill="#3A4453"/>
<path d="M929.553 751.734C917.093 752.245 907.164 745.82 895.993 747.207C895.51 747.27 895.018 747.219 894.557 747.059C894.097 746.898 893.68 746.633 893.34 746.283C893 745.934 892.746 745.51 892.598 745.045C892.45 744.58 892.413 744.087 892.489 743.606C892.456 743.121 892.531 742.635 892.709 742.183C892.886 741.731 893.162 741.324 893.516 740.991C893.869 740.658 894.293 740.408 894.755 740.258C895.217 740.109 895.706 740.063 896.188 740.126C903.489 740.393 911.057 739.176 918.358 740.856C920.281 741.294 922.13 742.048 923.785 740.856C927.216 738.617 932.741 742.243 934.469 738.617C936.772 733.211 938.123 727.448 938.46 721.582C938.922 716.398 940.893 711.409 940.163 706.055C940.082 705.576 940.113 705.084 940.253 704.618C940.393 704.152 940.638 703.725 940.97 703.37C941.302 703.014 941.712 702.74 942.167 702.569C942.622 702.397 943.111 702.333 943.595 702.381C945.858 702.381 946.856 703.695 947.318 705.909C949.054 712.452 950.403 719.091 951.358 725.792C951.625 729.32 955.568 730.513 954.911 734.431C954.594 736.232 956.931 734.869 958.123 734.431C964.037 731.803 969.975 729.247 975.864 726.595C978.955 725.183 982.776 723.991 984.503 727.228C986.231 730.464 985.087 733.555 980.95 735.721C975.158 738.714 970.145 743.143 964.499 746.453C960.386 748.886 960.216 751.685 962.066 755.311C964.503 760.627 967.351 765.745 970.583 770.618C971.628 772.029 972.381 773.633 972.799 775.338C973.217 777.043 973.291 778.814 973.017 780.547C972.822 782.397 974.574 785.22 971.484 786.023C968.393 786.826 965.01 786.51 964.037 783.395C961.919 776.629 955.592 773.344 952.137 767.649C948.048 760.957 943.716 760.981 939.36 767.333C935.612 772.833 931.28 777.773 927.07 782.884C925.123 785.317 923.98 788.968 920.208 787.118C916.436 785.269 917.92 781.448 918.431 778.625C920.371 769.028 924.147 759.897 929.553 751.734V751.734Z" fill="#3A4453"/>
<path d="M1123.75 555.172C1119.5 555.756 1118.11 554.004 1117.52 549.623C1116.5 542.006 1116.26 534.267 1113.46 526.869C1108.96 514.92 1101.73 510.832 1089.12 513.801C1084.3 514.871 1079.43 515.683 1074.52 516.235C1071.89 516.575 1069 516.575 1068.56 512.852C1068.19 509.786 1069.63 508.69 1072.65 507.376C1080.45 503.693 1087.8 499.12 1094.55 493.748C1103.51 487.08 1104.77 476.713 1107.42 466.979C1108.91 461.6 1108.18 456.052 1109.27 450.795C1109.78 448.362 1109.27 443.762 1114.14 444.054C1117.74 444.273 1118.45 447.656 1119.01 450.26C1121.05 460.846 1127.57 470.191 1128.09 481.045C1128.5 490.268 1135.05 492.166 1141.57 492.75C1147.17 493.237 1153.42 495.184 1158.82 490.682C1159.99 489.708 1162.55 490.049 1164.42 490.244C1166.29 490.438 1169.65 488.638 1169.68 492.896C1169.68 495.598 1169.68 497.764 1166.22 498.956C1155.61 502.777 1146.14 508.958 1136.48 514.677C1134.87 515.641 1133.51 516.964 1132.49 518.543C1131.48 520.122 1130.85 521.914 1130.64 523.779C1129.01 532.856 1127.04 541.909 1127.82 551.23C1128.11 554.491 1126.87 555.756 1123.75 555.172Z" fill="#3A4453"/>
<path d="M2109.99 384.993C2107.34 385.431 2106.59 381.805 2105.76 379.469C2102.45 371.255 2098.37 363.369 2093.59 355.912C2090.84 351.264 2087.29 350.412 2082.54 350.071C2073.88 349.414 2065.51 352.164 2056.87 351.653C2053.9 351.483 2051.17 351.653 2050.69 347.54C2050.23 343.768 2052.34 342.673 2055.12 341.529C2066.53 336.662 2078.14 332.16 2090.4 330.505C2097.02 329.605 2098.7 325.297 2099.65 320.771C2101.67 311.037 2103.89 301.302 2102.79 291.252C2102.52 288.818 2102.38 286.19 2105.4 285.338C2108.41 284.486 2109.99 286.798 2111.11 288.769C2116.78 298.723 2123.28 308.238 2127.27 319.067C2130 326.222 2135.35 328.047 2141.87 328.485C2144.31 328.631 2146.74 328.266 2149.18 328.485C2151.95 328.85 2155.65 329.556 2155.79 332.525C2155.78 333.957 2155.3 335.346 2154.42 336.476C2153.54 337.607 2152.31 338.416 2150.93 338.78C2139.71 341.481 2132.65 351.532 2121.87 355.085C2120.74 355.528 2119.79 356.341 2119.17 357.392C2118.56 358.443 2118.32 359.671 2118.49 360.877C2118.9 366.595 2116.61 372.047 2116.91 377.912C2117.05 380.905 2115.84 384.555 2109.99 384.993Z" fill="#3A4453"/>
<path d="M2283.58 1116.58C2277.6 1115.67 2272.36 1114.8 2267.11 1114.14C2263.77 1113.73 2260.44 1112 2260.83 1109.03C2261.19 1107.5 2262.08 1106.14 2263.35 1105.21C2264.61 1104.27 2266.17 1103.82 2267.74 1103.92C2273 1104.09 2278.3 1103.75 2283.58 1103.92C2288.45 1104.19 2291.76 1102.85 2292.93 1097.74C2293.33 1096.4 2293.94 1095.12 2294.73 1093.97C2298.21 1087.86 2304.03 1087.3 2307.53 1093.19C2311.03 1099.08 2314.1 1103.14 2321.74 1099.73C2323.93 1098.74 2328.02 1098.4 2329.17 1101.97C2330.53 1106.26 2326.32 1107.52 2323.74 1107.94C2317.85 1108.88 2318.09 1111.51 2320.21 1115.8C2321.72 1118.69 2322.81 1121.77 2323.45 1124.97C2323.86 1127.4 2324.96 1130.88 2322.64 1132.39C2320.33 1133.9 2316.92 1132.2 2314.88 1130.32C2310.79 1126.63 2305.75 1124.75 2301.01 1122.37C2294.24 1119.01 2290.45 1120.96 2289.03 1128.5C2288.09 1133.59 2284.17 1131.69 2282.56 1130.74C2276.19 1127.14 2276.43 1122.32 2283.58 1116.58Z" fill="#3A4453"/>
<path d="M1955.36 534.926C1956 547.629 1948.28 561.89 1937.57 564.397C1928.84 566.465 1923.7 563.667 1918.28 557.972C1906.11 545.196 1904.16 527.796 1913.77 514.167C1919.47 506.039 1925.65 504.822 1934.8 509.495C1940.88 512.696 1946.59 516.548 1951.84 520.982C1956.48 524.729 1955.22 530.01 1955.36 534.926Z" fill="#3A4453"/>
<path d="M1002.59 188.456C994.919 186.022 984.99 182.858 977.324 176.58C972.749 172.832 972.043 164.996 973.796 158.62C975.292 154.421 977.303 150.424 979.782 146.72C980.585 145.308 981.997 143.41 983.311 143.264C992.559 142.266 1002.15 139.443 1011.08 142.144C1020.01 144.846 1024.58 152.39 1026.36 161.613C1028.55 172.735 1016.09 188.261 1002.59 188.456Z" fill="#3A4453"/>
<path d="M2052.25 1073.77C2055.92 1073.5 2059.01 1073.45 2061.61 1076.52C2064.22 1079.59 2065.58 1074.28 2068.92 1075.08C2078.31 1077.52 2084.08 1086.13 2082.52 1097.3C2081.83 1103.13 2079.33 1108.6 2075.37 1112.93C2071.41 1117.26 2066.19 1120.24 2060.45 1121.44C2056.79 1122.32 2052.97 1122.25 2049.34 1121.24C2045.72 1120.23 2042.41 1118.32 2039.73 1115.68C2037.05 1113.03 2035.09 1109.75 2034.03 1106.14C2032.97 1102.53 2032.85 1098.71 2033.68 1095.04C2034.94 1090.57 2036.65 1086.23 2038.76 1082.09C2041.42 1076.4 2045.31 1072.29 2052.25 1073.77Z" fill="#3A4453"/>
<path d="M1666.64 1483.56C1666.49 1478.09 1668.34 1472.75 1671.84 1468.54C1675.34 1464.33 1680.26 1461.55 1685.67 1460.71C1686.84 1460.49 1687.86 1460.71 1688.3 1459.03C1690.44 1451.1 1695.16 1455.43 1697.55 1458.01C1708.28 1469.59 1708.23 1488.4 1698.25 1500.69C1696.56 1502.75 1694.31 1504.27 1691.77 1505.08C1689.23 1505.89 1686.52 1505.96 1683.94 1505.27C1672.97 1503.18 1666.5 1494.61 1666.64 1483.56Z" fill="#3A4453"/>
<path d="M1043.96 235.253C1042.64 227.952 1056.42 214.665 1064.11 214.421C1066.54 214.421 1069.27 214.129 1069.9 217.22C1070.53 220.311 1068.63 221.235 1065.79 221.747C1059.46 222.939 1056.27 227.49 1053.35 232.965C1050.43 238.441 1052.6 241.678 1056.73 244.671C1057.71 245.301 1058.77 245.8 1059.87 246.155C1064.33 247.786 1068.46 253.018 1073.55 247.664C1077.56 243.454 1078.61 233.379 1075.59 228.317C1074.06 225.884 1070.73 222.963 1074.16 220.53C1077.15 218.437 1079.63 221.917 1081.9 224.034C1088.81 230.507 1085.64 244.014 1079.92 252.556C1075.86 258.591 1068 258.956 1059.41 255.281C1050.82 251.607 1043.98 246.326 1043.96 235.253Z" fill="#3A4453"/>
<path d="M1758.85 238.126C1756.25 238.564 1753.98 242.701 1751.31 239.124C1749.07 236.058 1752.01 234.038 1753.74 231.969C1764.89 218.268 1780.97 218.779 1793.43 228.027C1794.34 228.792 1794.94 229.852 1795.14 231.02C1797.57 239.465 1795.82 247.86 1793.55 255.77C1791.29 263.679 1782.85 262.486 1776.69 263.289C1770.53 264.092 1762.87 258.082 1760.53 252.265C1758.68 247.739 1758.95 242.993 1758.85 238.126Z" fill="#3A4453"/>
<path d="M994.968 217.295C1010.3 217.295 1015.87 222.771 1016.87 235.863C1017.72 247.812 1008.6 251.949 997.256 250.343C993.655 249.992 990.174 248.864 987.052 247.036C983.93 245.209 981.242 242.725 979.174 239.757C977.724 237.147 976.976 234.206 977.001 231.22C977.027 228.235 977.826 225.307 979.32 222.722C981.753 217.855 986.353 216.784 991.488 217.222C992.534 217.392 993.775 217.295 994.968 217.295Z" fill="#3A4453"/>
<path d="M334.732 937.661C335.949 943.94 333.734 948.953 328.94 951.533C323.489 954.477 318.013 951.654 313.122 948.564C311.783 947.712 310.688 946.13 309.252 945.741C304.872 944.84 304.385 944.743 306.381 941.457C307.671 939.316 305.894 938.537 305.724 937.126C305.261 932.867 306.697 929.679 311.151 931.236C314.655 932.502 314.412 931.236 314.898 928.803C316.067 922.767 320.398 921.648 325.874 921.964C331.35 922.281 333.661 925.639 334.635 930.239C334.935 932.702 334.967 935.191 334.732 937.661V937.661Z" fill="#3A4453"/>
<path d="M2070.89 1504.1C2071.91 1509.38 2069.72 1511.77 2063.44 1511.4C2055.19 1510.89 2050.66 1507.17 2050.66 1499.67C2050.66 1492.18 2051.64 1491.06 2061.03 1491.08C2068.84 1491.06 2070.91 1493.66 2070.89 1504.1Z" fill="#3A4453"/>
<path d="M2022.48 1254.22C2025.24 1254.4 2027.85 1255.55 2029.83 1257.48C2031.81 1259.41 2033.04 1261.98 2033.29 1264.74C2033.29 1265.71 2033.29 1266.88 2032.24 1267.02C2031.11 1267.21 2029.95 1266.96 2029 1266.32C2028.28 1265.34 2027.27 1264.6 2026.11 1264.21C2024.95 1263.82 2023.7 1263.79 2022.53 1264.13C2018.66 1265.08 2016.28 1262.45 2016.06 1258.53C2015.81 1253.83 2019.32 1254.17 2022.48 1254.22Z" fill="#3A4453"/>
<path d="M1455.72 381.146C1455.19 386.379 1448.15 384.48 1446.86 389.104C1445.88 389.446 1444.83 389.546 1443.8 389.398C1442.77 389.25 1441.79 388.857 1440.95 388.252C1438.52 385.989 1440.22 383.799 1441.31 381.901C1443.38 378.25 1446.18 375.281 1451.05 376.328C1452.2 376.609 1453.25 377.211 1454.08 378.063C1454.91 378.916 1455.48 379.985 1455.72 381.146V381.146Z" fill="#3A4453"/>
<path d="M1641.16 1198.83C1646.95 1201 1652.62 1202.77 1658 1205.21C1676.47 1213.56 1693.56 1223.24 1704.24 1241.93C1709.35 1250.84 1716.58 1259.11 1726.44 1263.42C1714.9 1268.43 1703.34 1273.28 1691.9 1278.44C1674.42 1286.27 1656.55 1293.21 1638.36 1299.22C1631.91 1301.38 1628.8 1298.1 1626.75 1294.35C1619.45 1281.06 1607.87 1272.16 1596.7 1262.45C1582.42 1250.45 1569.03 1237.43 1556.62 1223.51C1543.84 1208.66 1535.08 1191.99 1527.42 1174.25C1519.58 1155.98 1514.1 1136.82 1508.6 1117.94C1502.96 1098.47 1490.86 1083.14 1482.73 1065.45C1476.32 1051.01 1467.24 1037.91 1455.96 1026.85C1449.86 1020.99 1442.56 1016.7 1436.5 1010.79C1426.64 1001.05 1418.2 989.739 1408.27 980.102C1393.3 965.327 1380.07 948.901 1368.82 931.138C1358.57 915.344 1346.26 900.961 1334.26 886.384C1327.86 878.597 1322.7 869.836 1315.98 862.17C1311.53 857.06 1306.96 852.071 1302.16 847.325C1289.8 835.157 1275.83 824.79 1262.1 814.18C1258.89 811.746 1252.64 811.746 1252.66 807.366C1252.66 804.032 1257.02 800.917 1258.92 797.412C1265.83 785.406 1273.99 774.158 1283.25 763.853C1291.84 753.705 1300.29 743.314 1310.02 733.944C1311.82 732.168 1313.75 732.898 1315.81 733.677C1332.05 739.712 1347.86 746.818 1360.59 758.694C1369.77 767.26 1378.41 776.508 1387.09 785.658C1395.39 794.37 1402.72 803.837 1410.48 812.914C1419.46 823.379 1426.66 835.328 1435.33 846.06C1445.94 859.569 1458.57 871.357 1472.78 881.006C1478.96 885.119 1484.24 890.74 1490.28 895.413C1500.75 903.268 1511.69 910.461 1523.06 916.95C1536.18 924.567 1546.59 935.81 1556.59 947.248C1570.13 962.677 1583.36 978.155 1601.1 989.495C1612.27 996.577 1623.13 1004.51 1634.45 1011.4C1642.69 1016.48 1652.53 1018.87 1661.21 1023.15C1672 1028.41 1683.94 1028.31 1695.29 1031.3C1702 1033.35 1708.22 1036.73 1713.59 1041.26C1722.91 1048.41 1733.49 1053.06 1743.37 1059.02C1760.41 1069.24 1777.15 1078.83 1790.34 1094.72C1802.51 1109.33 1811.12 1125.85 1822.37 1140.79C1827.02 1146.97 1831.27 1153.45 1835.9 1159.63C1837.53 1161.77 1839.43 1164.91 1842.86 1162.26C1846.29 1159.6 1843.49 1156.71 1842.13 1154.74C1836.34 1146.49 1830.16 1138.53 1824.53 1130.11C1817.77 1120.03 1811.73 1109.52 1804.14 1099.86C1791.02 1083.21 1776.74 1068.42 1757.9 1058.49C1746.97 1052.79 1736.32 1046.59 1725.44 1040.8C1723.4 1039.91 1721.69 1038.41 1720.57 1036.49C1724.78 1034.88 1727.87 1038.26 1730.89 1039.36C1739.89 1042.89 1749.48 1044.66 1759.14 1044.59C1761.71 1044.89 1764.23 1045.48 1766.66 1046.37C1769.1 1046.86 1772.09 1049.41 1773.33 1046.15C1774.57 1042.89 1770.65 1042.4 1768.34 1041.84C1757.23 1039.22 1746.32 1035.79 1735.71 1031.6C1725.62 1027.78 1715.06 1025.39 1704.31 1024.49C1700.49 1024.1 1698.59 1021.42 1697.01 1018.41C1696.55 1017.44 1695.76 1016.66 1694.78 1016.22C1693.8 1015.77 1692.7 1015.68 1691.66 1015.97C1688.98 1016.34 1690.1 1018.16 1690.13 1019.77C1690.13 1023.42 1687.45 1021.64 1686.09 1021.35C1667.38 1017.14 1649.48 1009.9 1633.11 999.911C1620.55 992.318 1608.31 984.19 1595.97 976.257C1583.63 968.323 1573.85 956.788 1564.55 945.496C1552.55 930.346 1537.92 917.485 1521.36 907.532C1506.92 899.161 1494 888.526 1480.64 878.548C1472.18 872.065 1464.06 865.153 1456.31 857.838C1448.97 851.62 1442.59 844.355 1437.37 836.277C1432.36 827.856 1425.2 821.091 1419.05 813.474C1403.52 794.954 1387.06 777.231 1369.74 760.373C1354.12 744.53 1334.94 735.502 1314.45 727.641C1324.32 718.215 1334.2 708.789 1344.09 699.363C1344.58 698.901 1345.31 698.244 1345.84 698.317C1354.31 699.801 1357.16 692.087 1362.27 688.193C1371.2 681.354 1380.06 674.516 1390.84 670.574C1393.28 669.673 1393.71 670.33 1395.71 671.644C1408.12 679.87 1420.82 687.609 1433.16 695.98C1447.23 705.544 1457.18 718.321 1467.09 731.389C1482.56 751.831 1493.34 774.902 1504.34 797.923C1513.74 817.611 1520.48 838.686 1532.5 856.962C1537.85 864.711 1544.6 871.403 1552.38 876.699C1570.93 889.816 1589.52 902.835 1609.65 913.373C1618.18 918.059 1627.1 922.024 1636.29 925.224C1649.41 929.571 1661.12 937.363 1670.19 947.784C1684.8 964.04 1701.59 977.911 1718.23 991.929C1724.24 996.991 1727.34 1004.56 1733.22 1009.94C1739.4 1015.72 1746.5 1020.44 1754.23 1023.88C1766.98 1029.55 1779.05 1036.76 1791.39 1043.35C1799.39 1047.63 1807.67 1051.21 1814.65 1057.42C1820.18 1062.28 1824.1 1068.44 1828.84 1073.87C1837.46 1083.77 1846.9 1092.92 1854.88 1103.46C1860.6 1111 1862.18 1119.47 1864.35 1128.04C1865.17 1131.3 1864.96 1135 1868.44 1137.24C1870.87 1138.82 1868.61 1140.43 1867.83 1141.57C1861.74 1150.21 1855.98 1159.12 1849.23 1167.22C1838.6 1180 1828.72 1193.43 1816.41 1204.79C1812.12 1208.76 1810.61 1209.66 1806.84 1203.58C1792.7 1181.09 1775.62 1161.18 1753.5 1145.78C1740.16 1136.53 1727.97 1125.68 1715.02 1115.85C1706.31 1109.61 1696.76 1104.63 1686.67 1101.03C1671.07 1094.94 1655.28 1089.37 1639.8 1082.82C1627.24 1077.54 1617.01 1067.91 1610.99 1055.69C1606.12 1045.95 1599.23 1038.19 1592.83 1029.92C1580.66 1014.24 1566.06 1000.86 1551.73 987.354C1538.93 975.186 1523.52 966.23 1511.79 952.919C1498.84 938.317 1487.87 922.547 1488.84 901.594C1488.99 898.26 1488.16 895.851 1484.15 896.07C1480.13 896.289 1481.71 899.55 1481.71 901.497C1480.2 922.791 1489.96 939.436 1503.42 954.768C1509.69 962.309 1516.72 969.183 1524.4 975.283C1532.04 980.683 1539.35 986.534 1546.3 992.805C1557.45 1003.49 1568.59 1014.15 1579.35 1025.22C1584.75 1030.77 1589.08 1037.39 1594.24 1043.2C1599.94 1049.58 1603.1 1057.49 1607.26 1064.69C1616.02 1079.83 1629.97 1087.64 1645.18 1093.9C1662.67 1101 1680.66 1106.96 1697.99 1114.48C1707.64 1118.78 1716.43 1124.78 1723.95 1132.2C1735.71 1143.61 1749.48 1152.47 1762.23 1162.6C1771.8 1170.23 1780.28 1179.13 1787.45 1189.05C1792.78 1196.35 1798.74 1203.31 1802.83 1211.68C1804.43 1215.02 1804.02 1216.14 1801.83 1217.69C1790.32 1225.94 1778.73 1234.07 1767.17 1242.27C1764.18 1244.41 1761.6 1243.59 1760.6 1240.47C1754.64 1221.56 1741.47 1208.71 1725.95 1197.37C1711.93 1187.13 1698.81 1175.47 1682.92 1168.17C1668.87 1161.86 1654.27 1156.84 1639.31 1153.18C1619.33 1148.14 1608.31 1133.71 1599.86 1116.14C1594.05 1103.97 1587.7 1092.29 1573.09 1087.86C1566.28 1085.77 1560.05 1087.37 1553.63 1088.37C1553.2 1088.42 1552.79 1088.56 1552.42 1088.77C1552.05 1088.98 1551.72 1089.26 1551.46 1089.6C1551.2 1089.93 1551 1090.32 1550.89 1090.73C1550.78 1091.14 1550.75 1091.57 1550.8 1092C1551.14 1097.84 1550.29 1103.48 1553.24 1109.33C1561.92 1126.72 1567.68 1145.42 1570.27 1164.69C1574.09 1189.41 1584.63 1210.32 1599.11 1229.96C1606.02 1239.38 1611.62 1249.89 1619.43 1258.46C1628.7 1268.6 1639.65 1277.22 1649.95 1286.39C1652.26 1288.46 1655.54 1288.41 1656.71 1285.74C1657.45 1284 1657.82 1282.12 1657.77 1280.23C1657.73 1278.35 1657.29 1276.49 1656.47 1274.78C1656.17 1274.6 1655.83 1274.49 1655.47 1274.47C1655.12 1274.45 1654.77 1274.52 1654.45 1274.66C1648.95 1280.24 1648.58 1275.1 1647.15 1271.38C1645.71 1267.65 1641.43 1266.63 1638.73 1264.08C1626.21 1251.49 1615.16 1237.53 1605.78 1222.46C1597.02 1208.81 1588.52 1194.79 1584.75 1179.19C1580.47 1161.5 1576.38 1143.69 1571.9 1126.04C1569.76 1117.58 1565.36 1109.67 1562.17 1101.49C1561.34 1099.42 1559.34 1097.21 1562 1095.09C1563 1094.42 1564.15 1094.02 1565.34 1093.92C1566.54 1093.82 1567.74 1094.02 1568.84 1094.5C1576.34 1096.62 1582.72 1101.59 1586.6 1108.35C1592.03 1117.31 1596.51 1126.87 1601.88 1135.85C1608.91 1147.03 1619.85 1155.18 1632.57 1158.73C1648.32 1163.76 1664.21 1168.46 1679.3 1175.01C1695.58 1181.97 1708.99 1193.72 1722.93 1204.48C1730.57 1210.39 1739.09 1215.43 1744.01 1224.19C1748.09 1231.49 1751.87 1238.79 1755.69 1246.24C1756 1246.75 1756.14 1247.36 1756.08 1247.96C1756.01 1248.56 1755.74 1249.12 1755.32 1249.55C1745.59 1259.65 1733.3 1259.53 1722.98 1249.35C1715.14 1241.59 1709.42 1232.2 1702.66 1223.61C1692.8 1211.05 1678.32 1204.55 1664.16 1198.18C1655.96 1194.5 1647.46 1191.46 1638.97 1188.44C1635.44 1187.22 1630.65 1185.89 1628.41 1189.46C1627.46 1191.25 1627.04 1193.27 1627.22 1195.28C1627.4 1197.3 1628.16 1199.21 1629.41 1200.8C1632.52 1206 1634.98 1211.57 1636.71 1217.38C1640.97 1230.13 1649.29 1240.71 1657.08 1251.59C1662.72 1259.45 1671.17 1263.76 1677.67 1270.23C1678.18 1270.75 1678.78 1271.16 1679.45 1271.44C1680.12 1271.72 1680.84 1271.86 1681.56 1271.86C1682.28 1271.86 1683 1271.72 1683.67 1271.44C1684.34 1271.16 1684.94 1270.75 1685.45 1270.23C1689.18 1266.66 1684.58 1265.8 1683.02 1264.05C1665.23 1245.07 1649.61 1224.87 1641.16 1198.83Z" fill="#F0C390"/>
<path d="M1875.27 1128.65C1871.75 1125.07 1872.55 1121.1 1871.89 1117.87C1870.05 1107.88 1865.25 1098.69 1858.12 1091.46C1847.57 1080.86 1837.68 1069.63 1828.5 1057.83C1819.5 1046.42 1806.94 1040.21 1794.11 1034.83C1779.22 1028.6 1765.3 1020.52 1750.7 1013.76C1743.06 1010.18 1736.67 1004.41 1732.32 997.184C1724.39 984.018 1711.69 976.036 1700.05 966.91C1694.87 962.432 1690.04 957.549 1685.62 952.309C1671.36 936.977 1656.25 922.789 1635.32 916.243C1617.48 910.67 1601.74 900.619 1586.16 890.301C1574.01 882.705 1562.32 874.401 1551.14 865.43C1542.58 857.834 1535.68 848.545 1530.9 838.149C1527.07 830.556 1524.06 822.55 1520.63 814.641C1530.65 815.468 1538.97 820.189 1547.66 823.84C1558.32 828.293 1569.57 830.629 1580.25 835.837C1594.51 842.846 1607.92 851.12 1621.62 858.981C1634.27 866.281 1646.66 873.825 1656.79 884.363C1663.82 891.692 1670.24 899.596 1675.96 907.993C1682.61 917.727 1693 922.789 1701.25 930.577C1704.92 934.081 1709.89 936.198 1713.93 939.362C1724.24 947.49 1736.1 953.014 1747.68 958.831C1757.59 963.698 1765.88 970.999 1775.25 976.547C1789.68 985.235 1804.46 993.582 1816.09 1006.07C1822.61 1013.05 1827.72 1021.28 1833.71 1028.75C1842.42 1039.6 1854.39 1043.88 1866.34 1048.8C1866.7 1049.02 1867.11 1049.17 1867.53 1049.23C1867.95 1049.3 1868.37 1049.27 1868.79 1049.16C1869.2 1049.05 1869.58 1048.86 1869.91 1048.6C1870.25 1048.33 1870.52 1048.01 1870.72 1047.63C1871.75 1045.52 1869.48 1044.59 1868.29 1043.96C1858.64 1038.79 1849.86 1032.12 1842.3 1024.2C1835.87 1017.12 1829.06 1010.35 1822.83 1002.98C1809.64 987.255 1791.44 977.861 1774.6 966.788C1762.74 958.717 1750.38 951.402 1737.61 944.886C1718.94 935.76 1702.85 922.692 1686.94 909.697C1679.42 903.54 1674.14 894.633 1668.08 886.772C1658.85 874.823 1647.12 866.233 1634.4 858.177C1623.03 850.877 1611.62 843.746 1599.91 837.176C1581.75 826.657 1562.04 819.092 1541.51 814.762C1536.51 813.685 1531.62 812.154 1526.9 810.187C1523.52 808.873 1518 813.91 1516.42 806.439C1515.44 801.791 1512.18 797.678 1510.36 793.176C1503.29 776.139 1494.16 760.03 1483.17 745.21C1474.34 733.042 1464.94 721.239 1455.89 709.218C1449.3 700.457 1440.22 694.932 1431.7 688.848C1423.18 682.764 1415.23 674.904 1404.45 672.105C1403.67 671.886 1403.13 670.816 1402.47 670.158C1406.56 669.088 1403.42 663.685 1407.76 662.128C1428.12 654.798 1448.97 648.903 1470.15 644.484C1483.51 641.758 1497.09 640.785 1510.36 637.792C1513.42 637.086 1516.05 637.013 1516.27 642.075C1516.61 650.398 1525.18 653.342 1529.29 659.329C1540.31 675.366 1555.74 687.753 1566.26 704.277C1572.53 714.012 1575.72 725.085 1579.57 735.914C1583.29 746.232 1584.95 757.208 1592.39 766.237C1597.48 772.418 1604.1 776.579 1609.57 782.201C1619.79 792.714 1632.47 800.209 1645.03 807.559C1651.86 811.792 1658.19 816.788 1663.89 822.452C1671.83 829.923 1680.25 836.738 1688.91 843.406C1696.71 849.366 1703.22 856.861 1708.01 865.43C1719.11 885.726 1736.02 896.336 1758.27 900.765C1770.43 903.199 1783.26 905.632 1793.7 913.128C1806.81 922.575 1818.04 934.395 1826.8 947.977C1832.04 956.411 1838.9 963.722 1846.99 969.486C1855.08 975.251 1864.23 979.355 1873.91 981.56C1878.07 982.558 1881.8 985.503 1885.67 987.669C1886.6 988.437 1887.79 988.829 1889 988.766C1890.22 988.703 1891.36 988.19 1892.21 987.328C1894.65 984.894 1892.46 983.167 1891 981.195C1885.96 974.333 1877.68 974.089 1870.75 971.461C1857.37 966.815 1845.86 957.961 1837.94 946.225C1827.92 930.541 1814.98 916.926 1799.83 906.119C1788.74 898.551 1775.5 896.969 1763.13 893.197C1754.01 890.447 1744.05 890.374 1735.68 885.215C1726.8 879.715 1721.08 871.295 1715.48 862.777C1707.29 850.268 1696.8 839.419 1684.58 830.8C1677.58 825.662 1671.13 819.805 1665.35 813.326C1655.84 803.008 1642.6 798.336 1631.87 789.988C1612.03 774.535 1592.27 759.86 1584.85 732.896C1579.65 712.732 1568.92 694.423 1553.87 680.039C1542.94 669.891 1535.13 656.749 1524.35 646.285C1523.32 645.443 1522.57 644.309 1522.19 643.032C1521.82 641.755 1521.84 640.395 1522.26 639.13C1523.52 636.161 1526.47 637.913 1528.61 637.767C1536.08 637.208 1543.5 634.701 1551.09 637.597C1553.65 638.57 1558.59 635.772 1556.89 642.172C1556.59 643.219 1558.13 643.705 1558.98 643.389C1571.32 638.692 1573.9 649.716 1578.03 656.238C1583.16 664.779 1587.64 673.695 1591.42 682.91C1598.72 699.751 1610.23 713.549 1626.61 721.994C1638.24 728.029 1647.27 737.642 1658.98 743.361C1668.63 747.768 1677.53 753.646 1685.38 760.785C1689.9 765.087 1693.8 770.002 1696.96 775.387C1703.24 786.095 1711.57 795.391 1718.11 805.928C1724.1 815.419 1735.46 820.262 1746.88 822.136C1767.88 825.616 1786.76 834.985 1806.38 842.359C1814.26 845.328 1818.72 851.144 1822.51 858.202C1832.47 877.366 1846.82 893.902 1864.4 906.46C1874.13 913.323 1884.74 920.064 1897.54 920.404C1900.41 920.404 1899.98 922.205 1900.61 924.055C1902.89 932.227 1904.19 940.641 1904.48 949.121C1905.43 962.846 1907.54 976.474 1907.86 990.321C1908.59 1020.67 1902.99 1049.94 1895.69 1079.15C1891.34 1096.74 1881.92 1111.81 1875.27 1128.65Z" fill="#FFDA74"/>
<path d="M1221.97 904.637C1230.73 906.608 1235.6 913.203 1241.44 917.876C1256.04 929.484 1271.5 940.216 1284.18 953.893C1294.81 965.14 1306.41 975.44 1318.83 984.678C1333.19 995.604 1348.86 1004.8 1363.39 1015.54C1380.67 1028.29 1399.14 1039.48 1414.11 1055.37C1420.85 1062.53 1424.13 1071.26 1427.81 1079.54C1434.84 1095.45 1439.42 1112.44 1445.79 1128.67C1448.66 1135.73 1452.51 1142.34 1457.21 1148.34C1462.24 1154.88 1464.12 1162.94 1468.72 1169.48C1477.79 1182.53 1485.14 1196.69 1495.71 1208.76C1509.84 1224.95 1526.49 1238.67 1540.05 1255.41C1546.02 1263.22 1550.6 1272 1553.6 1281.36C1556.45 1289.39 1561.53 1296.81 1561.19 1305.89C1561.29 1306.98 1561.74 1308.01 1562.47 1308.82C1563.21 1309.64 1564.18 1310.2 1565.26 1310.41C1567.69 1311.12 1569.01 1309.49 1569.98 1307.18C1570.71 1305.52 1572.73 1304.45 1573.6 1302.82C1574.48 1301.19 1574.51 1298.29 1571.56 1299.22C1566.86 1300.65 1567.37 1297.34 1566.89 1294.94C1562.59 1272.04 1551.87 1250.84 1535.98 1233.8C1524.52 1221.49 1510.96 1211.22 1500.72 1197.86C1492.46 1186.87 1484.88 1175.38 1478.01 1163.47C1471.95 1153.18 1467.04 1142.28 1459.66 1132.64C1455.23 1126.6 1452.15 1119.68 1450.63 1112.34C1448.8 1103.66 1446.09 1095.19 1442.53 1087.06C1437.23 1074.7 1432.92 1061.24 1424.74 1050.99C1417.34 1041.26 1408.28 1032.9 1397.97 1026.32C1384.87 1018.09 1372.22 1009.15 1360.08 999.547C1353.9 994.893 1347.44 990.626 1340.73 986.77C1333.74 982.913 1327.2 978.267 1321.26 972.923C1311.34 963.384 1299.73 955.888 1290.89 944.864C1282.96 935.008 1271.89 928.024 1261.69 920.528C1252.81 913.982 1244.66 906.584 1235.99 899.551C1235.29 898.906 1234.54 898.312 1233.75 897.774C1222.8 891.276 1222.92 890.473 1226.26 878.305C1231.72 858.345 1238.43 838.749 1246.36 819.632C1248.26 815.032 1250.62 813.621 1255.05 816.079C1258.67 818.463 1262.13 821.08 1265.41 823.915C1278.04 832.777 1289.87 842.737 1300.75 853.677C1307.97 860.837 1314.58 868.586 1320.51 876.845C1327.59 887.358 1335.72 897.166 1343.46 907.241C1354.73 921.842 1365.02 937.247 1375.1 952.798C1382.71 964.673 1393.54 973.872 1402.67 984.434C1410.77 993.901 1419.7 1002.54 1427.69 1012.06C1433.28 1018.8 1440.71 1023.08 1447.03 1028.77C1457.73 1037.96 1466.4 1049.28 1472.49 1061.99C1478.06 1074.01 1485.78 1085.04 1491.96 1096.67C1500.82 1113.1 1504.98 1131.5 1510.74 1149.21C1515.55 1165.25 1521.6 1180.88 1528.85 1195.96C1538.12 1214.26 1551.43 1228.91 1565.35 1243.49C1577.52 1256.22 1591.37 1266.83 1604.29 1278.56C1611.76 1285.32 1619.48 1292.75 1623.76 1303.14C1612.3 1307.05 1599.67 1308.44 1587.26 1310.61C1571.41 1313.38 1555.38 1311.58 1539.56 1310.44C1520.31 1309.14 1501.2 1306.22 1482.44 1301.73C1455.53 1295.11 1430.39 1284.15 1405.32 1272.52C1386.2 1263.76 1368.23 1252.7 1351.78 1239.6C1346.91 1235.65 1342.61 1230.66 1337.89 1226.28C1329.2 1218.28 1321.12 1209.61 1312.67 1201.32C1303.3 1192.09 1297.71 1180.27 1291.04 1169.31C1280.77 1152.83 1272.09 1135.4 1265.1 1117.28C1261.03 1106.5 1257.09 1095.67 1252.61 1083.58C1274.15 1099.64 1295.37 1113.51 1313.6 1131.37C1322.02 1139.65 1331.95 1146.34 1340.56 1154.44C1352.73 1165.91 1364.49 1177.93 1371.96 1193.38C1379.26 1208.35 1390.01 1221.44 1395 1237.67C1397.08 1243.95 1398.07 1250.53 1397.95 1257.14C1397.83 1260.35 1397.05 1264.78 1402.35 1264.18C1407.07 1263.62 1406.83 1259.31 1406.49 1255.9C1405 1242.87 1401.38 1230.16 1395.78 1218.3C1387.82 1200.46 1376.97 1184.45 1365.43 1168.66C1353.27 1152.16 1337.28 1140.33 1322.68 1126.68C1314.28 1118.82 1305.47 1111.44 1296.9 1103.8C1288.92 1096.72 1279.29 1091.49 1270.35 1085.45C1263.78 1081.02 1258.62 1074.48 1250.67 1072.17C1248.6 1071.56 1249.42 1069.93 1248.99 1068.71C1240.98 1045.78 1236.31 1021.96 1230.44 998.476C1229.54 994.85 1233.75 991.443 1229.74 986.43C1249.69 994.753 1268.02 1001.71 1283.98 1014.76C1302.94 1030.26 1321.44 1046.27 1338.88 1063.43C1352.32 1076.59 1361.22 1093.07 1367.62 1110.83C1375.12 1132.67 1385.87 1153.24 1399.5 1171.87C1410.6 1186.47 1423.99 1199.39 1434.23 1214.75C1447.37 1234.41 1459.81 1254.39 1462.83 1278.53C1463.12 1280.97 1463.61 1282.94 1466.33 1283.01C1469.57 1283.01 1470.2 1280.82 1470.1 1278.14C1469.54 1266.22 1465.58 1255.15 1460.81 1244.49C1451.58 1224.45 1439.26 1205.98 1424.3 1189.76C1411.39 1175.23 1399.85 1159.53 1389.84 1142.86C1383.08 1131.81 1379.87 1119.3 1375.07 1107.43C1367.91 1088.64 1357.03 1071.49 1343.09 1057C1324.46 1038.44 1304.59 1021.15 1283.64 1005.24C1271.47 995.848 1256.38 990.396 1241.76 986.04C1229.59 982.439 1225.58 975.673 1224.53 964.479C1222.68 944.864 1220.83 925.152 1221.97 904.637Z" fill="#FFDA74"/>
<path d="M1576.06 638.791C1589.89 639.132 1602.49 643.123 1615 646.554C1635.9 652.132 1656.47 658.901 1676.59 666.826C1711 680.712 1744.35 697.085 1776.37 715.814C1785.35 720.973 1792.92 728.615 1800.95 735.283C1814.59 746.991 1826.73 760.329 1837.12 774.999C1847.04 788.603 1855.12 803.594 1863.59 818.22C1877.59 842.434 1886.15 868.741 1893.28 895.632C1894.6 900.499 1896.67 905.366 1897.69 910.379C1898.22 913.129 1897.69 914.273 1895.5 913.081C1878.12 903.906 1860.04 895.656 1848.36 878.67C1840.79 867.67 1831.32 858.009 1825.75 845.573C1822.27 837.907 1813.58 836.058 1806.28 833.016C1792.53 827.297 1778.88 821.091 1764.45 817.416C1756.59 815.421 1748.31 814.983 1740.45 812.549C1727.24 808.096 1721.3 796.609 1714.02 786.339C1707.55 777.165 1701.2 767.942 1694.55 758.962C1689.73 752.733 1683.56 747.682 1676.5 744.19C1660.22 736.037 1646.59 723.918 1630.75 715.4C1616.11 707.462 1604.6 694.788 1598.11 679.456C1594.15 669.981 1589.69 660.721 1584.75 651.713C1582.29 647.333 1577.72 644.656 1576.06 638.791Z" fill="#F0C390"/>
<path d="M362.426 1345.16C361.857 1307.57 367.321 1270.13 378.61 1234.27C385.438 1212.17 395.195 1191.08 407.618 1171.58C417.007 1157.12 428.822 1144.39 442.541 1133.95C462.279 1118.04 483.759 1104.43 506.569 1093.36C522.095 1086.06 537.694 1078.39 554.754 1075.86C569.647 1073.67 584.273 1068.71 599.702 1070.75C616.227 1072.92 632.629 1075.62 649.007 1078.91C672.858 1083.58 695.811 1092.02 717.002 1103.92C728.493 1110.1 739.088 1117.81 748.493 1126.85C756.158 1134.39 763.751 1142.06 771.369 1149.67C773.194 1151.5 775.603 1152.76 771.515 1155.37C769.519 1156.66 769.47 1161.01 773.705 1160.07C783.074 1158 785.873 1165.47 789.791 1170.65C800.961 1185.5 809.089 1202.14 817.753 1218.52C826.417 1234.9 828.047 1253.71 833.085 1271.3C833.669 1273.32 832.403 1273.74 830.505 1274.49C821.403 1278.14 812.326 1281.79 803.103 1285.15C786.944 1291.04 771.32 1298.46 755.015 1303.87C733.761 1310.88 712.443 1317.66 691.06 1324.21C663.901 1332.53 636.839 1341.25 609.242 1348.23C590.284 1353.1 571.984 1360.4 553.026 1365.12C530.613 1370.77 507.664 1374.42 485.202 1379.92C467.436 1384.25 449.525 1387.87 431.662 1390.89C416.926 1393.35 402.348 1396.67 388.004 1400.84C382.674 1402.4 376.785 1401.28 371.455 1404.06C369.021 1405.3 367.075 1403.35 366.783 1400.31C364.811 1381.04 360.772 1361.88 362.426 1345.16Z" fill="#FFDA74"/>
<path d="M821.915 1366.92C813.129 1399.36 796.337 1425.08 779.156 1450.71C766.493 1469.17 752.589 1486.75 737.542 1503.32C734.013 1507.29 729.267 1510.43 725.374 1514.32C713.206 1526.76 700.867 1539.53 684.976 1546.84C664.728 1556.13 644.529 1565.65 621.946 1569.39C600.548 1572.82 578.86 1574.06 557.212 1573.12C546.09 1572.7 535.09 1569.83 524.091 1567.33C509.489 1563.99 496.348 1557.37 483.206 1551.12C473.303 1546.37 463.889 1540.67 455.098 1534.08C438.209 1521.68 423.18 1506.93 410.466 1490.28C427.501 1486.92 444.293 1483.71 461.133 1480.54C477.974 1477.38 494.547 1472.03 511.071 1467.09C533.63 1460.37 556.044 1453.26 578.895 1447.45C588.995 1444.87 598.68 1440.63 608.634 1437.3C629.782 1430.22 650.686 1422.21 672.199 1416.44C698.531 1409.39 724.206 1400.26 750.707 1393.79C770.163 1388.74 789.182 1382.14 807.581 1374.05C811.937 1372.15 817.315 1372.44 821.915 1366.92Z" fill="#FFDA74"/>
<path d="M803.054 1171.7C799.831 1167.48 796.352 1163.47 792.638 1159.68C788.355 1155.76 790.399 1153.52 794.074 1151.77C799.136 1149.33 804.806 1148.24 808.676 1143.74C809.576 1142.69 810.793 1142.91 811.742 1144C814.346 1147.02 817.047 1145.71 820.114 1144.59C836.93 1138.38 853.624 1131.76 870.757 1126.58C885.792 1122.16 901.144 1118.91 916.679 1116.84C927.07 1115.36 937.486 1115.41 947.878 1114.41C973.017 1111.98 997.255 1117.28 1020.16 1127.55C1043.06 1137.82 1064.59 1149.46 1081.9 1167.51C1089.75 1175.28 1095.71 1184.74 1099.32 1195.18C1101.75 1202.9 1099.13 1208.52 1095.28 1213.41C1088.11 1222.54 1079.81 1230.71 1070.58 1237.75C1057.17 1247.87 1043.35 1257.46 1028.14 1263.81C1015.46 1269.09 1003.19 1275.27 990.977 1281.23C976.764 1288.17 962.796 1295.84 948.632 1303.14C924.852 1314.96 900.411 1325.4 875.429 1334.41C862.361 1339.13 849.949 1345.68 836.735 1351.61C837.246 1345.92 839.169 1341.37 839.169 1336.43C839.169 1324.41 849.365 1321.83 857.688 1319.68C873.896 1315.74 888.449 1308.17 902.637 1300.22C924.223 1288.17 945.712 1276.05 967.736 1264.81C983.189 1256.9 998.01 1247.77 1010.45 1235.31C1013.44 1232.69 1016.65 1230.31 1020.03 1228.21C1030.57 1220.76 1036.56 1211.02 1037.07 1197.69C1037.33 1192.73 1036.19 1187.8 1033.79 1183.46C1031.39 1179.12 1027.82 1175.53 1023.49 1173.11C1016.7 1169.17 1010.49 1163.81 1002.71 1161.33C989.589 1157.15 976.18 1154.03 963.063 1150.04C939.165 1142.74 914.854 1142.62 890.42 1143.23C875.6 1143.59 861.217 1147.26 846.615 1150.11C832.963 1152.76 821.598 1161.16 808.238 1164.4C804.344 1165.35 801.959 1167.46 803.005 1171.92L803.054 1171.7Z" fill="#D9A672"/>
<path d="M834.642 1297.83C835.956 1303.43 833.182 1309.88 833.085 1316.55C833.085 1321.9 827.658 1322.39 824.299 1323.29C805.366 1328.42 787.649 1336.92 768.911 1342.59C753.092 1347.45 737.274 1352.32 721.528 1357.19C709.093 1360.96 696.17 1362.66 683.881 1367.55C672.078 1372.28 658.961 1373.52 646.647 1377.14C627.64 1382.72 608.05 1385.78 589.092 1391.74C575.974 1395.92 562.602 1399.27 549.059 1401.75C535.821 1404.18 522.947 1408.66 509.927 1412.21C488.803 1417.95 467.923 1424.99 446.483 1428.98C427.355 1432.53 408.495 1437.23 389.342 1440.49C389.109 1440.54 388.869 1440.54 388.636 1440.49C385.059 1439.81 381.944 1445.36 378.269 1441.51C375.325 1438.52 375.836 1434.02 374.059 1430.41C373.475 1429.2 373.791 1427.57 373.329 1426.25C368.316 1412.5 368.827 1410.29 382.917 1409.22C393.479 1408.37 402.824 1404.06 412.924 1402.26C432.539 1398.73 452.08 1394.96 471.719 1391.55C482.817 1389.65 493.403 1385.88 504.549 1383.98C523.19 1380.84 541.783 1376.85 560.059 1371.81C584.395 1365.27 608.293 1357.43 632.41 1350.25C653.388 1344.02 674.706 1338.72 695.367 1331.56C714.982 1324.75 734.84 1318.74 754.577 1312.36C778.11 1304.77 800.815 1295.06 823.74 1286.08C834.74 1281.77 834.642 1281.21 834.642 1293.04V1297.83Z" fill="#967057"/>
<path d="M406.767 1482.59C404.82 1482.93 402.824 1481.49 400.512 1478.25C394.882 1471.03 389.868 1463.34 385.521 1455.28C383.842 1451.9 383.672 1449.93 388.393 1449C401.437 1446.45 414.311 1442.82 427.331 1440.63C445.315 1437.61 463.007 1433.33 480.626 1428.85C501.142 1423.6 521.462 1417.49 541.929 1412.09C551.42 1409.65 561.154 1408.07 570.67 1405.69C580.793 1403.11 590.893 1400.28 600.846 1397.09C613.988 1392.91 627.616 1391.11 640.855 1387.07C659.326 1381.4 678.381 1378.23 696.827 1372C712.135 1366.82 728.464 1364.56 744.112 1359.57C769.811 1351.34 795.705 1343.6 820.552 1332.8C823.156 1331.68 827.317 1329 829.556 1331.61C831.406 1333.77 830.919 1337.98 829.313 1341.17C829.056 1341.56 828.905 1342.02 828.875 1342.49C829.118 1358.84 816.415 1361.37 804.831 1365.46C794.926 1368.94 785.362 1373.2 775.627 1376.92C758.398 1383.49 740.535 1387.94 722.794 1392.88C706.659 1397.36 690.889 1403.11 674.73 1407.49C666.407 1409.75 658.45 1412.94 649.956 1414.79C641.463 1416.64 633.262 1420.53 624.842 1423.11C599.435 1430.82 574.563 1440.14 548.743 1446.62C525.526 1452.51 503.04 1461.22 479.945 1467.77C465.357 1472.09 450.412 1475.1 435.289 1476.77C428.336 1477.74 421.491 1479.37 414.846 1481.64C412.183 1482.17 409.481 1482.49 406.767 1482.59V1482.59Z" fill="#D9A672"/>
<path d="M802.908 1171.84C805.731 1173.86 808.335 1173.25 811.474 1172.01C831.771 1164.03 853.016 1159.85 874.359 1155.83C889.157 1153.29 904.193 1152.42 919.186 1153.23C939.457 1153.93 958.951 1159.16 978.322 1164.83C981.68 1165.81 985.063 1166.61 988.422 1167.58C1002.51 1171.65 1015.19 1178.24 1024.07 1190.24C1027.97 1195.4 1026.51 1211.19 1021.42 1214.97C1006.82 1225.82 993.776 1238.77 978.249 1248.38C965.911 1256 952.891 1262.37 939.871 1268.72C919.551 1278.63 900.934 1291.75 880.54 1301.43C868.114 1307.19 855.258 1311.96 842.089 1315.72C845.545 1304.35 845.228 1292.65 844.377 1281.01C844.158 1277.78 846.299 1277.87 847.297 1277.61C865.208 1272.4 882.569 1265.45 899.133 1256.87C918.258 1247.55 936.753 1236.98 954.497 1225.24C960.006 1221.86 964.412 1216.96 967.176 1211.12C973.212 1196.52 965.935 1187.54 951.163 1183.5C929.601 1177.61 907.358 1178.32 885.456 1179.31C869.936 1179.9 854.542 1182.35 839.607 1186.61C832.501 1188.71 824.592 1187.9 818.094 1192.33C817.461 1192.77 816.731 1193.72 815.977 1192.33C812.253 1185.03 805.926 1179.53 803.103 1171.75L802.908 1171.84Z" fill="#967057"/>
<path d="M265.423 1428.95C281.095 1428.95 296.33 1425.28 311.661 1423.55C324.097 1422.16 336.216 1419.46 348.482 1417.37C352.351 1416.71 357.292 1413.74 359.701 1415.2C362.11 1416.66 361.477 1422.5 362.645 1426.28C364.13 1430.92 365.079 1435.77 366.88 1440.29C368.413 1444.36 366.636 1445.65 363.862 1446.11C338.382 1450.34 313.389 1457.72 287.277 1457.84C276.182 1457.68 265.159 1456.04 254.496 1452.97C243.399 1449.98 232.253 1447.42 222.129 1440.8C217.934 1438.32 214.27 1435.03 211.347 1431.12C208.424 1427.22 206.299 1422.78 205.094 1418.05C200.057 1398.19 206.335 1381.55 220.791 1367.5C227.289 1361.18 233.397 1354.48 239.481 1347.72C250.073 1336.58 262.152 1326.96 275.377 1319.12C289.297 1310.39 301.781 1299.66 314.752 1289.63C326.129 1280.53 339.797 1274.76 354.249 1272.94C357.802 1272.5 358.338 1274.35 358.022 1277.15C357.048 1286.08 356.05 1294.98 355.15 1303.91C354.955 1305.93 353.738 1306.23 352.23 1306.13C337.093 1304.94 325.46 1313.82 314.071 1321.14C291.479 1335.7 270.894 1353.15 252.841 1373.05C245.176 1381.45 238.897 1390.45 236.439 1402.01C233.689 1414.98 243.74 1428.78 256.735 1428.9L265.423 1428.95Z" fill="#967057"/>
<path d="M353.714 1347.01C353.059 1364.51 354.489 1382.03 357.973 1399.19C358.849 1403.5 357.973 1406.49 352.57 1408.02C338.762 1411.65 324.719 1414.31 310.542 1415.98C298.885 1417.49 287.277 1419.27 275.669 1421.09C268.82 1422.26 261.83 1422.33 254.959 1421.31C246.125 1419.88 242.791 1410.68 246.368 1401.11C249.994 1391.11 256.321 1383.18 263.403 1375.51C277.37 1360.28 293.058 1346.73 310.153 1335.11C321.931 1327.16 333.661 1318.61 347.654 1314.23C352.838 1312.6 353.909 1313.87 353.787 1318.76C353.544 1327.11 353.714 1335.53 353.714 1347.01ZM819.603 1200.44C835.932 1193.14 852.724 1194.4 868.907 1191.85C889.642 1188.59 910.278 1189.56 931.086 1189.22C937.215 1189.21 943.305 1190.2 949.119 1192.14C961.798 1196.16 963.939 1204.67 954.716 1214.24C948.584 1220.12 941.603 1225.04 934.006 1228.84C907.869 1243.25 881.903 1258.19 853.235 1267.36C843.014 1270.65 842.138 1270.87 840.872 1260.6C838.227 1239.24 830.969 1218.71 819.603 1200.44Z" fill="#B7B7B7"/>
<path d="M751.827 371.411C763.833 390.19 772.862 410.713 778.597 432.251C780.525 437.988 782.833 443.59 785.508 449.019C792.228 465.889 797.758 483.21 802.056 500.854C806.267 516.648 809.868 533.05 808.7 549.842C808.783 550.798 808.701 551.761 808.457 552.689C805.877 557.727 786.725 565.198 780.811 564.419C771.505 563.564 762.142 563.498 752.825 564.225C742.458 564.663 734.159 569.433 725.836 574.908C720.604 578.339 717.586 582.209 717.611 588.609C717.611 596.762 717.611 604.476 714.009 612.726C707 628.715 715.25 642.27 725.374 654.511C727.442 656.944 730.63 657.431 733.502 658.356C740.803 660.668 743.869 658.015 742.044 650.739C741.557 648.792 741.849 645.872 739.245 644.849C735.96 643.657 736.812 648.451 733.843 648.597C730.363 643.365 726.031 638.546 723.573 632.292C722.527 629.438 722.137 626.386 722.432 623.361C722.727 620.336 723.699 617.417 725.276 614.819C728.732 608.54 727.71 602.359 727.71 596.105C727.953 585.081 737.201 576.247 748.493 575.249C760.518 573.764 772.68 573.764 784.705 575.249C788.352 575.809 792.083 575.379 795.507 574.005C798.932 572.631 801.925 570.363 804.174 567.437C805.001 566.464 805.804 565.003 808.53 565.831C809.114 594.572 802.957 622.071 791.495 649.984C779.984 635.383 763.8 637.816 749.466 634.628C746.351 633.971 742.531 634.409 742.166 639.106C741.801 643.803 744.356 646.553 749.053 645.993C757.084 645.02 764.482 648.11 772.172 649.133C777.988 649.887 781.614 655.022 786.262 658.137C788.234 659.451 785.824 661.276 785.24 662.469C778.378 676.243 768.546 687.973 758.471 699.483C753.384 705.348 748.736 711.651 742.141 716.202C741.228 717.027 740.079 717.543 738.856 717.679C737.633 717.814 736.399 717.562 735.327 716.957C722.843 711.846 710.529 705.811 696.39 706.638C689.802 706.828 683.411 708.925 677.992 712.674C671.268 717.624 663.557 721.069 655.383 722.773C652.664 723.444 650.155 724.783 648.083 726.667C647.093 727.516 645.909 728.109 644.636 728.393C643.363 728.678 642.039 728.645 640.782 728.297C624.282 725.158 607.515 724.525 590.869 722.7C584.614 722.019 579.577 726.594 573.493 727.835C557.942 730.998 545.409 740.222 534.044 751.027C532.978 752.24 531.583 753.118 530.028 753.555C528.473 753.991 526.825 753.967 525.283 753.485C522.991 752.769 520.574 752.541 518.189 752.818C515.804 753.095 513.503 753.869 511.436 755.091C508.589 756.989 505.352 755.991 502.31 755.991C485.275 755.991 471.136 762.976 459.333 774.73C457.361 776.701 456.899 775.533 455.463 775.071C445.364 771.712 436.919 765.142 427.282 760.883C423.437 759.204 419.981 756.356 416.234 754.726C399.369 747.693 385.911 736.133 372.648 723.965C357.9 710.435 346.511 693.959 332.518 680.039C322.733 670.255 314.678 658.883 308.693 646.407C303.826 636.454 300.808 625.502 296.865 615.087C293.604 606.472 290.514 597.735 287.131 589.072C282.583 576.075 279.266 562.68 277.226 549.063C274.111 531.396 274.087 513.484 274.257 495.524C274.706 478.088 277.032 460.75 281.193 443.811C285.257 425.802 289.272 407.891 295.795 390.588C301.781 374.77 310.396 360.387 318.549 345.713C322.898 337.142 328.17 329.072 334.27 321.645C342.72 312.219 352.761 304.352 363.935 298.404C376.103 291.833 386.714 282.732 399.636 277.402C412.685 272.435 426.021 268.258 439.572 264.893C441.64 264.309 443.368 263.823 444.244 266.646C445.12 269.468 443.271 269.712 441.665 270.783C438.598 272.778 432.539 273.581 435.386 279.032C438.598 285.238 443.587 281.685 447.554 279.3C464.518 269.224 483.8 263.708 503.527 263.287C516.79 262.776 530.053 259.88 543.34 260.732C564.61 262.095 585.807 264.407 607.028 266.427C610.508 266.743 613.282 269.395 617.03 269.615C619.463 269.761 619.975 272.778 619.293 274.895C617.955 279.032 616.032 283.583 611.822 285.019C601.041 288.67 594.276 297.187 586.44 304.488C571.838 317.97 555.192 325.733 534.798 324.249C520.44 323.202 506.106 324.711 491.797 325.782C483.377 326.414 476.489 331.452 470.381 336.928C464.347 341.905 459.182 347.851 455.098 354.522C447.286 368.272 430.762 373.31 413.727 368.686C401.827 365.449 390.048 363.259 377.491 365.571C373.548 366.277 369.07 364.159 364.592 366.228C356.874 369.862 350.901 376.395 347.971 384.407C343.591 395.577 336.411 404.63 329.573 414.048C325.217 420.01 325.971 425.388 328.794 432.349C333.491 443.932 342.301 452.085 349.626 461.43C351.201 463.645 353.292 465.445 355.716 466.674C358.141 467.903 360.828 468.526 363.546 468.487C383.015 467.003 398.03 475.958 412.218 487.421C418.01 492.093 423.534 497.155 429.424 501.608C437.364 507.939 447.138 511.533 457.288 511.854C472.206 512.195 487.149 512.122 502.091 511.854C513.577 511.659 523.068 506.476 531.294 498.883C534.628 495.817 537.573 493.48 542.927 495.792C552.15 499.759 561.714 502.655 569.818 509.055C576.997 514.725 592.353 511.489 598.413 504.918C610.459 491.971 616.787 476.056 623.406 460.359C624.296 457.841 625.909 455.642 628.043 454.036C630.177 452.43 632.737 451.489 635.404 451.331C654.361 448.751 671.08 441.742 684.295 427.506C685.843 426.065 687.085 424.327 687.945 422.395C693.056 407.623 705.394 401.272 718.56 396.088C731.725 390.905 742.166 382.363 751.827 371.411Z" fill="#B0D9E8"/>
<path d="M387.931 368.734C400.099 369.635 410.587 373.383 421.417 375.159C433.877 377.228 446.824 377.203 456.899 368.491C463.786 362.504 468.556 354.109 474.567 347.027C477.438 343.685 480.951 340.953 484.897 338.993C488.843 337.032 493.142 335.883 497.54 335.613C514.745 333.983 532.121 335.613 549.181 333.958C570.105 331.73 589.324 321.396 602.72 305.169C607.269 300.249 612.89 296.444 619.147 294.048C625.912 291.054 630.342 286.966 631.315 279.3C631.656 276.623 632.872 274.749 637.058 276.161C641.244 277.572 644.359 279.178 648.009 280.736C661.37 286.552 675.485 291.273 687.239 299.84C701.938 310.693 717.537 321.109 727.807 337.025C731.785 343.392 736.235 349.453 741.119 355.155C744.623 359.049 743.139 361.628 741.119 365.084C734.548 375.987 724.084 381.632 712.816 386.159C698.215 392.097 685.73 399.836 678.6 414.875C671.469 429.915 657.914 436.315 642.583 439.552C638.664 440.404 634.576 440.355 630.682 441.255C621.118 443.519 615.351 450.187 612.333 459.069C608.103 471.026 602.484 482.445 595.59 493.091C589.287 503.093 579.358 503.628 566.727 496.206C559.56 492.311 551.909 489.381 543.973 487.494C531.44 484.111 523.385 492.726 515.086 499.199C511.248 502.4 506.494 504.3 501.507 504.626C486.54 505.186 471.622 505.453 456.655 507.06C449.209 507.814 441.007 503.166 434.753 497.788C422.999 487.859 411.196 478.027 397.762 470.385C389.973 465.819 380.964 463.77 371.966 464.521C368.171 464.974 364.323 464.426 360.806 462.932C357.288 461.438 354.222 459.049 351.913 456.003C345.148 447.656 336.947 440.379 333.418 429.623C332.719 428.187 332.451 426.58 332.645 424.995C332.84 423.411 333.488 421.916 334.513 420.692C342.155 410.203 351.743 401.004 354.396 387.205C355.783 379.905 362.256 376.327 369.508 374.113C375.523 371.914 381.678 370.118 387.931 368.734V368.734Z" fill="#9CE084"/>
<path d="M470.016 779.354C481.325 772.272 494.418 768.558 507.761 768.646C515.257 768.646 522.484 766.212 530.515 767.04C540.396 767.989 546.382 758.425 553.634 752.973C573.371 738.129 595.2 734.527 618.952 739.053C626.545 740.513 634.357 740.562 641.853 742.874C646.233 744.237 650.151 741.633 653.801 739.491C659.195 736.256 665.132 734.03 671.323 732.921C674.284 732.213 677.02 730.774 679.281 728.735C689.794 720.874 700.843 716.567 713.765 723.6C717.754 725.239 721.895 726.478 726.128 727.299C722.015 734.064 714.812 736.109 708.825 739.126C702.157 742.46 695.197 745.381 688.602 748.861C671.372 757.987 652.877 763.462 634.43 769.351C620.948 773.708 607.66 778.818 593.862 782.25C574.429 787.148 554.551 790.075 534.531 790.986C524.011 791.455 513.472 790.736 503.113 788.845C491.717 787.125 480.592 783.935 470.016 779.354V779.354Z" fill="#FEFEFE"/>
<path d="M1269.96 1599.55C1256.33 1599.19 1242.92 1596.05 1230.54 1590.32C1226.57 1588.35 1222.29 1587.07 1217.89 1586.55C1203.45 1585.85 1188.93 1584.63 1174.96 1590.57C1167.12 1593.93 1159.6 1597.87 1151.52 1600.84C1136.75 1606.17 1122 1609.82 1106.45 1605.05C1100.17 1603.1 1095.5 1598.35 1090.41 1594.44C1084.28 1589.75 1079.31 1583.72 1075.88 1576.81C1072.45 1569.9 1070.66 1562.29 1070.63 1554.57C1070.36 1541.75 1076.79 1529.87 1086.18 1520.28C1093.35 1512.8 1102.48 1507.48 1112.54 1504.95C1127.33 1501.08 1138.36 1491.03 1148.02 1479.42C1155.05 1470.34 1161.51 1460.83 1167.34 1450.93C1168.7 1448.66 1170.64 1446.79 1172.96 1445.53C1174.23 1444.92 1177.83 1441.29 1178.68 1446.99C1179 1449.13 1181.45 1449.64 1183.99 1448.57C1192.16 1445.09 1200.53 1443.26 1209.37 1446.13C1212.53 1447.2 1215.26 1444.8 1218.4 1444.65C1234.77 1443.94 1250.74 1446.89 1264.22 1455.67C1272.93 1461.37 1281.77 1467.21 1290.29 1473.39C1298.41 1479.25 1307.1 1484.24 1315.01 1490.6C1323.75 1497.75 1329.57 1507.86 1331.36 1519.02C1332.39 1524.06 1333.51 1529.12 1334.24 1534.2C1336.11 1547.35 1330.37 1558.01 1321.34 1566.35C1311.07 1575.87 1300.85 1585.58 1288.95 1593.12C1282.47 1597.5 1275.76 1600.5 1269.96 1599.55Z" fill="#FFDA74"/>
<path d="M2416.19 679.917C2415.17 691.598 2416.41 703.547 2411.96 714.912C2408.09 723.835 2401.78 731.48 2393.75 736.96C2386.45 742.412 2379.49 748.861 2370.97 752.681C2355.01 759.836 2338.97 766.042 2320.79 761.978C2315.1 760.688 2309.04 761.978 2303.15 760.323C2291.59 756.867 2281.76 750.053 2271.17 744.724C2255.73 736.93 2242.37 725.547 2232.23 711.529C2220.87 696.003 2216.29 677.995 2212.47 659.597C2208.55 640.485 2210.86 620.619 2219.07 602.918C2226.37 586.93 2239.27 576.344 2255.57 569.724C2262.7 566.828 2271.1 566.171 2277.33 563.105C2289.5 557.118 2301.66 556.096 2314.37 556.826C2334.76 558.043 2354.18 562.57 2369.71 577.414C2379.1 586.394 2390.88 592.989 2397.87 604.33C2406.36 618.153 2410.03 633.776 2413.12 649.522C2415.31 659.501 2416.34 669.701 2416.19 679.917V679.917Z" fill="#967057"/>
<path d="M197.745 735.769C213.709 734.187 226.485 744.237 238.58 754.653C243.971 758.841 248.973 763.509 253.523 768.598C263.501 780.766 262.892 794.004 260.653 807.851C256.76 831.774 240.795 846.205 220.548 856.256C211.008 861.123 200.032 859.298 190.152 855.842C179.444 851.993 168.963 847.54 158.759 842.506C146.858 836.738 143.427 825.081 139.971 813.497C132.232 787.58 143.816 770.691 161.07 757.208C163.918 754.97 169.466 753.096 163.504 747.961C161.922 746.622 164.721 746.063 165.694 745.333C174.674 738.494 184.895 735.598 197.745 735.769Z" fill="#FFDA74"/>
<path d="M1121.64 519.375C1115.97 510.127 1110.78 501.512 1096.18 505.723C1102.46 499.201 1107.84 494.99 1109.64 487.884C1111.32 481.168 1114.94 474.962 1115.04 467.369C1118.53 471.68 1120.45 477.055 1120.47 482.603C1120.93 492.484 1125.34 498.3 1135.29 499.809C1136.92 500.077 1138.55 500.393 1140.28 500.709C1133.93 506.453 1123.24 507.694 1121.64 519.375Z" fill="#B0D9E8"/>
<path d="M2077.73 342.94C2084.59 341.699 2089.75 335.858 2096.95 335.493C2097.87 335.26 2098.72 334.806 2099.42 334.17C2100.13 333.533 2100.67 332.735 2100.99 331.843C2103.42 321.695 2112.16 313.493 2110.55 301.715C2113.33 306.582 2116.98 311.255 2118.68 316.511C2122.72 329.093 2131.48 333.546 2145.26 332.792C2137.69 335.858 2132.82 340.604 2127.01 343.767C2117.61 348.878 2107.54 353.112 2109.26 366.984C2106.67 363.015 2104.33 358.886 2102.26 354.621C2098.56 345.811 2092.52 341.504 2082.79 342.916C2081.1 343.046 2079.41 343.055 2077.73 342.94V342.94Z" fill="#FFDA74"/>
<path d="M1948.11 536.896C1945.68 541.909 1945.36 548.797 1940.35 553.615C1935.34 558.434 1929.3 558.093 1923.73 553.177C1921.27 551.011 1919.3 548.352 1917.94 545.374C1916.58 542.396 1915.87 539.164 1915.84 535.891C1915.81 532.617 1916.47 529.374 1917.78 526.373C1919.09 523.372 1921.02 520.681 1923.43 518.474C1924.24 517.473 1925.39 516.812 1926.65 516.622C1927.92 516.433 1929.21 516.729 1930.27 517.452C1935.77 520.139 1940.72 523.819 1944.87 528.306C1946.01 529.417 1946.88 530.761 1947.44 532.245C1948 533.728 1948.23 535.315 1948.11 536.896V536.896Z" fill="#FFDA74"/>
<path d="M1001.59 147.012C1008.38 147.182 1017.55 155.967 1018.06 162.781C1018.57 169.595 1010.52 180.741 1003.61 180.011C996.696 179.281 988.081 177.383 983.189 171.202C979.125 166.042 981.34 160.031 984.552 154.458C988.519 147.523 995.819 149.226 1001.59 147.012Z" fill="#B0D9E8"/>
<path d="M2075.19 1094.92C2074.03 1104.65 2061.27 1116.68 2053.46 1115.51C2047.89 1114.68 2040.05 1104.17 2040.61 1098.28C2041.49 1089.2 2048.94 1080.12 2054.83 1080.95C2068.84 1082.9 2076.05 1087.84 2075.19 1094.92Z" fill="#B0D9E8"/>
<path d="M1696.84 1483.76C1696.84 1488.45 1690.42 1498.04 1687.3 1497.94C1681.46 1497.77 1673.72 1490.16 1673.72 1484.53C1673.72 1475.82 1680.42 1468.01 1687.96 1467.94C1692.9 1467.89 1696.79 1474.82 1696.84 1483.76Z" fill="#FFDA74"/>
<path d="M1790.75 244.429C1792.46 253.288 1786.03 258.252 1777.32 258.568C1771.58 258.788 1762.16 250.562 1763.21 238.759C1763.22 237.163 1763.56 235.586 1764.21 234.13C1764.87 232.673 1765.82 231.37 1767 230.302C1768.19 229.235 1769.59 228.427 1771.1 227.93C1772.62 227.433 1774.22 227.259 1775.81 227.419C1783.97 227.589 1790.75 235.279 1790.75 244.429Z" fill="#B0D9E8"/>
<path d="M1000.27 246.154C995.017 244.597 988.762 243.136 984.576 237.856C983.246 236.519 982.394 234.781 982.152 232.911C981.91 231.041 982.292 229.144 983.238 227.513C985.38 223.522 987.789 224.008 991.658 224.252C998.959 224.714 1005.92 224.081 1008.69 233.086C1010.49 238.853 1006.48 246.3 1000.27 246.154Z" fill="#B0D9E8"/>
<path d="M324.073 930.213C324.754 933.766 327.164 936.419 326.093 939.509C325.509 941.188 325.314 943.768 322.224 943.768C320.907 943.805 319.614 943.405 318.549 942.63C317.483 941.855 316.705 940.749 316.334 939.485C315.336 936.735 317.624 936.638 319.571 936.273C322.491 935.761 321.128 932.062 324.073 930.213Z" fill="#B0D9E8"/>
<path d="M488.39 1312.04C486.832 1311.82 485.396 1312.16 485.25 1310.44C485.124 1309.87 485.19 1309.29 485.437 1308.77C485.684 1308.25 486.098 1307.82 486.613 1307.57C488.828 1306.2 491.359 1306.81 493.452 1306.03C507.508 1301.27 521.315 1295.8 534.823 1289.65C558.185 1278.29 581.499 1266.85 605.032 1255.83C619.147 1249.18 632.734 1241.47 645.673 1232.76C664.534 1220.13 684.611 1209.59 702.912 1195.91C704.201 1194.96 705.759 1194.43 706.781 1195.47C708.485 1197.28 707.146 1198.93 705.71 1200.34C700.137 1205.89 693.055 1209.3 686.509 1213.36C670.204 1223.44 654.337 1234.22 638.056 1244.29C623.629 1252.82 608.728 1260.53 593.424 1267.36C575.634 1275.71 557.747 1283.94 540.225 1292.77C524.487 1300.84 507.88 1307.08 490.726 1311.39C489.777 1311.61 488.901 1311.9 488.39 1312.04Z" fill="#3A4453"/>
<path d="M485.883 1252.95C483.985 1252.2 481.381 1254.05 481.016 1250.98C480.651 1247.92 483.279 1248.94 484.837 1248.33C491.334 1245.9 497.759 1243.12 504.159 1240.37C520.373 1233.71 536.193 1226.13 551.541 1217.67C561.276 1212.17 572.178 1209.2 581.669 1203.19C597.293 1193.31 613.306 1183.86 628.541 1173.57C645.576 1162.2 662.611 1151.23 678.478 1138.23C679.963 1137.02 681.812 1136.46 682.81 1138.23C683.808 1140.01 682.494 1141.93 680.912 1143.1C672.443 1149.4 664.023 1155.83 655.359 1161.84C644.967 1169.14 634.454 1176.08 623.722 1182.82C607.904 1192.84 592.596 1203.96 575.829 1212.02C557.747 1220.71 540.25 1230.59 521.852 1238.57C511.193 1243.17 500.412 1247.5 489.679 1251.91C488.436 1252.33 487.168 1252.68 485.883 1252.95V1252.95Z" fill="#3A4453"/>
<path d="M632.532 1107.09C632.264 1108.45 632.264 1109.2 631.145 1109.79C615.399 1118.18 602.233 1130.47 586.658 1139.14C571.833 1147.02 556.365 1153.62 540.42 1158.87C523.993 1164.64 507.469 1170.12 491.602 1177.37C484.522 1180.96 476.967 1183.52 469.164 1184.99C467.266 1185.25 464.857 1188.1 463.737 1185.11C462.618 1182.11 465.246 1180.99 468.239 1180.36C475.916 1178.36 483.369 1175.58 490.483 1172.06C511.168 1163.11 532.924 1156.95 553.756 1148.56C567.708 1143.26 581.075 1136.53 593.643 1128.48C603.937 1121.59 613.112 1112.9 624.233 1107.38C626.788 1106.14 629.928 1103.24 632.532 1107.09Z" fill="#3A4453"/>
<path d="M752.508 1222.02C750.289 1225.42 747.851 1228.68 745.207 1231.76C730.289 1246.82 717.099 1264.2 697.46 1273.47C685.73 1278.99 675.314 1286.95 662.927 1291.11C661.321 1291.65 659.569 1292.7 658.766 1290.53C657.963 1288.36 659.301 1287 661.321 1286.08C680.449 1277.14 699.967 1268.24 715.931 1254.44C725.684 1246.08 734.549 1236.73 742.385 1226.55C744.097 1224.26 746.047 1222.15 748.201 1220.27C749.539 1219.1 751.608 1218.54 752.508 1222.02Z" fill="#3A4453"/>
<path d="M677.261 1455.43C677.075 1456.76 676.543 1458.02 675.719 1459.09C674.895 1460.15 673.808 1460.98 672.565 1461.49C663.098 1466.36 656.551 1474.8 648.764 1481.64C637.18 1491.76 624.16 1499.38 611.019 1507C608.39 1508.51 606.152 1510.6 603.45 1512.01C601.674 1512.94 599.167 1513.93 597.95 1511.28C596.733 1508.63 599.605 1508.31 601.017 1507.41C612.406 1500.23 624.209 1493.61 635.087 1485.85C643.201 1479.89 650.804 1473.26 657.817 1466.04C662.441 1461.47 668.354 1458.74 672.905 1454.26C674.317 1452.97 676.556 1452.49 677.261 1455.43Z" fill="#3A4453"/>
<path d="M412.875 520.298C425.043 519.422 435.313 525.822 446.459 530.3C462.082 536.554 477.511 538.428 493.695 532.369C499.222 530.325 505.081 529.326 510.973 529.424C522.299 530.082 533.589 527.616 543.608 522.294C545.687 521.168 547.997 520.534 550.36 520.441C552.723 520.348 555.075 520.799 557.236 521.758C565.34 524.752 574.271 524.192 582.521 527.331C594.957 532.052 600.116 542.833 596.636 555.95C593.667 567.12 586.05 575.954 582.862 587.173C580.112 596.907 577.995 604.451 584.273 614.259C592.742 627.498 591.039 642.659 587.194 657.82C585.98 663.54 583.576 668.94 580.138 673.669C576.7 678.399 572.304 682.352 567.238 685.271C564.593 687.314 562.096 689.542 559.767 691.939C543.827 704.788 519.637 697.439 511.095 676.899C506.111 664.471 503.629 651.181 503.794 637.792C503.794 623.385 502.358 622.338 488.56 616.644C480.517 613.557 472.241 611.115 463.81 609.343C455.974 607.518 447.043 606.544 439.012 611.777C433.717 615.196 427.988 617.889 421.977 619.783C403.846 625.77 381.603 615.646 378.05 593.695C377.101 587.781 375.008 581.989 373.524 576.125C371.09 566.731 374.205 559.26 378.196 551.521C378.513 550.913 379.243 550.109 379.048 549.671C375.251 540.083 380.557 534.121 386.981 528.159C394.185 521.661 402.532 521.052 412.875 520.298Z" fill="#3A4453"/>
<path d="M1207.59 1511.21C1201.75 1510.48 1195.93 1511.21 1189.92 1510.19C1174.15 1507.24 1169.29 1488.41 1178.34 1476.24C1188.39 1462.76 1207.01 1455.58 1219.15 1460.93C1225.38 1463.68 1231.61 1464.14 1237.99 1465.39C1245.65 1466.58 1252.56 1470.65 1257.33 1476.76C1262.09 1482.87 1264.35 1490.57 1263.64 1498.29C1263.59 1499.49 1263.2 1500.65 1262.51 1501.64C1261.82 1502.62 1260.86 1503.39 1259.74 1503.84C1255.75 1505.69 1251.42 1508.24 1247.33 1508.09C1233.9 1507.61 1221.05 1513.18 1207.59 1511.21Z" fill="#3A4453"/>
<path d="M1143.73 1537.25C1153.15 1537.25 1162.62 1546.54 1163.98 1554.16C1165.15 1560.63 1159.97 1566.74 1150.79 1569.52C1137.19 1573.6 1124.87 1574.55 1112.75 1566.23C1111.83 1565.62 1110.83 1565.65 1110.47 1564.19C1108.98 1558.37 1116.77 1547.71 1122.88 1547.35C1124.8 1547.35 1126.58 1547.88 1128.26 1545.28C1132.3 1539.02 1139.16 1537.73 1143.73 1537.25Z" fill="#3A4453"/>
<path d="M1239.2 1543.99C1237.77 1538.17 1240.66 1533.45 1243.37 1528.75C1246.07 1524.06 1262.83 1522.48 1266.31 1526.83C1266.46 1527 1266.61 1527.32 1266.53 1527.49C1263.93 1534.42 1271.13 1536.86 1273.06 1541.7C1275.12 1547.03 1272.01 1561 1267.68 1564.09C1260.77 1568.96 1254.37 1565.18 1248.82 1561.53C1242.85 1557.62 1237.35 1552.6 1239.2 1543.99Z" fill="#3A4453"/>
<path d="M2351.09 681.45C2351.55 694.543 2344.11 703.742 2337.68 713.087C2334.59 717.541 2321.38 715.983 2314.05 710.897C2308.59 707.43 2303.58 703.302 2299.13 698.607C2294.82 693.427 2288.95 689.775 2282.39 688.192C2264.65 683.714 2258.05 669.502 2253.19 654.389C2252.2 651.275 2252.29 647.918 2253.45 644.864C2254.61 641.81 2256.78 639.24 2259.59 637.573C2265.84 633.85 2272.78 630.686 2280.18 634.677C2292.34 641.175 2303.39 649.497 2317.24 652.369C2321.11 653.172 2324.76 654.803 2328.85 654.803C2340.51 654.949 2346.13 658.915 2349.24 670.207C2350.26 674.052 2352.16 678.043 2351.09 681.45Z" fill="#3A4453"/>
<path d="M2306.68 612.994C2300.28 614.771 2294.51 610.415 2288.94 607.567C2280.71 603.382 2279.2 591.944 2284.63 582.526C2289.13 574.592 2298.65 572.207 2307.31 575.712C2315.39 578.997 2320.21 585.616 2325.73 591.506C2327.27 593.369 2328.24 595.634 2328.53 598.032C2328.82 600.431 2328.41 602.861 2327.36 605.036C2324.93 610.415 2318.97 612.167 2313.22 612.946C2311.05 613.1 2308.86 613.116 2306.68 612.994V612.994Z" fill="#3A4453"/>
<path d="M2385.72 639.108C2387.23 644.924 2384.16 650.449 2380 655.51C2378.62 657.202 2376.89 658.572 2374.93 659.524C2372.97 660.476 2370.82 660.988 2368.64 661.022C2366.46 661.057 2364.29 660.615 2362.3 659.725C2360.31 658.836 2358.53 657.522 2357.1 655.876C2353.92 651.966 2351.95 647.215 2351.42 642.202C2350.89 637.19 2351.84 632.132 2354.13 627.646C2357.71 620.102 2361.75 614.237 2370.66 616.427C2381.88 619.177 2385.72 625.431 2385.72 639.108Z" fill="#3A4453"/>
<path d="M2375.38 711.139C2364.84 712.502 2362.51 704.617 2364.53 695.881C2365.62 691.014 2368.03 686.804 2368.54 681.766C2368.95 677.848 2379.22 674.782 2382.85 677.459C2385.87 679.697 2389.13 682.326 2389.76 686.268C2390.53 693.304 2388.92 700.394 2385.21 706.418C2384.45 708.284 2383.02 709.8 2381.2 710.673C2379.39 711.545 2377.31 711.711 2375.38 711.139Z" fill="#3A4453"/>
<path d="M186.015 750.372C187.28 744.751 192.099 742.341 198.523 744.799C206.992 748.036 211.641 755.653 216.021 762.759C219.014 767.626 214.537 773.199 208.72 773.297C201.201 773.443 195.165 779.721 186.818 777.823C180.904 776.46 177.619 772.956 177.278 764.609C176.937 756.262 179.712 751.248 185.893 750.226C189.787 752.66 188.619 755.288 186.331 757.941C184.915 759.282 184.069 761.117 183.969 763.066C183.869 765.014 184.524 766.926 185.796 768.405C188.692 772.275 192.415 771.447 196.163 769.792C198.327 768.747 200.594 767.931 202.928 767.359C209.207 766.045 208.599 766.239 205.362 761.08C201.079 753.487 193.924 751.443 186.015 750.372Z" fill="#3A4453"/>
<path d="M188.984 821.433C190.931 821.117 192.829 819.973 193.316 822.601C193.446 823.07 193.467 823.563 193.377 824.042C193.287 824.52 193.089 824.972 192.798 825.362C192.506 825.752 192.13 826.07 191.696 826.291C191.263 826.513 190.785 826.633 190.298 826.641C186.451 827.054 182.561 826.561 178.939 825.2C175.318 823.839 172.065 821.649 169.442 818.805C165.135 813.938 164.964 806.832 167.617 800.383C168.266 799.117 169.199 798.017 170.343 797.17C170.586 796.907 170.882 796.697 171.211 796.554C171.539 796.41 171.894 796.336 172.253 796.336C172.612 796.336 172.966 796.41 173.295 796.554C173.624 796.697 173.919 796.907 174.163 797.17C174.966 798.095 174.65 799.288 174.163 800.48C169.028 812.624 175.891 822.042 188.984 821.433Z" fill="#3A4453"/>
<path d="M220.84 842.165C220.475 844.599 222.154 848.152 218.552 849.466C214.95 850.78 211.981 850.464 211.251 845.718C211.251 845.548 209.815 845.718 209.231 845.426C207.574 844.723 206.235 843.432 205.471 841.802C204.707 840.171 204.573 838.316 205.094 836.592C206.603 831.604 211.373 832.674 215.388 832.455C219.793 832.212 220.255 835.205 220.693 838.296C220.829 839.581 220.878 840.874 220.84 842.165V842.165Z" fill="#3A4453"/>
<path d="M187.645 812.258C182.218 812.647 178.738 811.114 178.982 805.249C179.128 801.696 178.69 797.729 184.141 797.948C188.497 797.948 193.072 803.302 193.51 807.682C194.094 813.109 190.663 812.452 187.645 812.258Z" fill="#3A4453"/>
<path d="M229.479 818.071C226.169 818.363 223.784 817.633 223.638 813.204C223.638 809.213 226.705 807.436 228.724 808.337C231.377 809.481 236.853 806.998 236.634 812.693C236.488 816.757 233.616 818.266 229.479 818.071Z" fill="#3A4453"/>
<path d="M204.826 819.581C203.269 819.118 201.103 820.481 200.714 817.804C200.446 816.052 201.152 815.225 203.026 815.127C206.433 814.933 206.554 811.623 207.747 809.53C207.954 808.99 208.348 808.541 208.856 808.264C209.365 807.988 209.955 807.902 210.521 808.021C212.225 808.021 212.127 809.408 212.176 810.576C212.468 815.906 210.107 818.972 204.826 819.581Z" fill="#3A4453"/>
<path d="M222.689 786.363C224.49 786.947 227.824 786.363 228.067 790.5C228.189 792.422 226.34 794.588 225.634 793.323C223.2 789.113 216.946 798.044 216.581 790.256C216.411 786.63 219.063 786.144 222.689 786.363Z" fill="#3A4453"/>
<path d="M412.413 530.69C421.977 528.524 430.251 535.241 439.182 538.989C458.87 547.214 478.582 548.991 498.951 542.031C505.203 539.872 511.819 538.971 518.42 539.378C529.128 540.084 538.814 536.799 548.037 531.883C549.376 531.153 550.763 530.179 551.955 530.861C560.351 535.728 570.378 533.586 579.041 537.699C585.734 540.863 588.776 545.754 586.342 552.982C581.694 566.634 573.541 578.754 569.307 592.674C567.214 599.61 566.313 605.645 571.01 611.875C574.575 617.046 577.18 622.816 578.701 628.91C581.353 637.744 578.701 646.505 577.192 655.193C575.342 666.314 569.404 674.272 558.38 678.02C555.654 678.945 554.267 681.767 551.493 683.252C541.758 688.46 528.52 682.303 523.92 671.327C518.865 659.12 516.428 645.988 516.765 632.779C517.057 618.64 512.288 608.979 497.613 604.89C491.832 603.402 486.143 601.574 480.578 599.415C467.534 593.964 454.27 596.3 441.105 595.545C440.165 595.525 439.231 595.693 438.357 596.04C437.483 596.387 436.688 596.906 436.019 597.565C429.293 603.108 421.149 606.657 412.51 607.811C405.696 608.589 400.099 603.795 397.032 597.882C391.459 587.077 387.614 575.979 389.391 563.106C390.267 556.876 390.096 550.938 392.189 544.489C395.888 533.513 398.03 530.69 412.413 530.69Z" fill="#9CE084"/>
<path d="M1208.03 1505.46C1203.02 1504.81 1198.3 1505.78 1192.99 1503.03C1179.92 1496.07 1177.8 1490.45 1186.71 1479.2C1192.92 1471.39 1201.8 1468.35 1211.22 1466.55C1211.92 1466.34 1212.67 1466.35 1213.36 1466.6C1214.06 1466.84 1214.65 1467.3 1215.06 1467.91C1218.69 1474.07 1224.24 1473.61 1230.08 1472.41C1241.03 1470.13 1257.41 1482.88 1255.9 1493.59C1255.02 1499.6 1247.92 1502.32 1242.76 1502.25C1231.03 1502.08 1219.78 1506.56 1208.03 1505.46Z" fill="#967057"/>
<path d="M1128.6 1553.16C1130.72 1552.99 1132.85 1553.42 1134.75 1554.38C1136.38 1555.18 1138.45 1554.38 1137.84 1551.94C1136.09 1545.15 1141.74 1545.96 1144.93 1545.57C1150.91 1544.84 1153.27 1549.83 1155 1554.28C1156.51 1558.17 1154.49 1560.61 1150.3 1561.95C1141.79 1564.67 1133.59 1568.71 1124.36 1564.65C1122.1 1563.62 1117.74 1562.77 1118.52 1561.02C1119.88 1557.98 1121.1 1553.6 1125.82 1553.09C1126.75 1553.05 1127.67 1553.08 1128.6 1553.16V1553.16Z" fill="#967057"/>
<path d="M1260.55 1532.01C1253.49 1534.11 1256.21 1537.46 1259.57 1539.56C1266.58 1543.91 1267.39 1548.15 1262.83 1555.42C1260.4 1559.37 1259.38 1558.95 1256.29 1557.52C1246.12 1552.65 1243.66 1545.88 1248.99 1536.59C1251.08 1532.74 1253.54 1531.75 1260.55 1532.01Z" fill="#967057"/>
<path d="M2261.36 652.371C2260.37 647.504 2262.73 645.07 2266.77 643.415C2268.5 642.506 2270.44 642.087 2272.4 642.202C2274.35 642.318 2276.23 642.965 2277.84 644.072C2289.98 651.404 2303.08 656.991 2316.78 660.669C2319.93 661.627 2323.21 662.127 2326.51 662.154C2336.93 662.154 2345.81 673.081 2343.84 683.618C2342.31 691.868 2337.68 698.731 2332.94 705.277C2328.6 711.215 2323.2 705.812 2318.34 704.839C2316.09 704.101 2314.12 702.701 2312.69 700.824C2303.4 690.125 2291.48 682.038 2278.11 677.364C2267.18 673.421 2264.16 662.47 2261.36 652.371Z" fill="#FFDA74"/>
<path d="M2309.11 606.012C2304.88 606.547 2301.37 604.771 2297.72 602.994C2286.63 597.567 2286.8 594.087 2294.92 583.793C2295.62 583.099 2296.47 582.583 2297.41 582.286C2298.34 581.99 2299.33 581.922 2300.3 582.09C2308.46 584.903 2315.44 590.38 2320.11 597.64C2322.3 600.828 2319.26 603.87 2316.12 605.136C2313.84 605.755 2311.48 606.05 2309.11 606.012V606.012Z" fill="#FFDA74"/>
<path d="M2378.45 637.498C2379.13 640.248 2377.45 642.365 2376.38 644.799C2374.43 649.058 2371.02 653.608 2366.81 653C2361.75 652.246 2360 646.308 2358.85 641.538C2357.71 636.768 2360.14 632.631 2362.7 628.713C2368.18 633.385 2367.93 625.963 2370.49 625.257C2371.8 625.231 2373.08 625.616 2374.16 626.358C2375.24 627.1 2376.06 628.162 2376.5 629.394C2377.25 631.925 2379.15 634.432 2378.45 637.498Z" fill="#FFDA74"/>
<path d="M2381.39 690.213C2381.29 694.072 2380.46 697.877 2378.96 701.432C2378.18 703.865 2376.72 705.155 2373.97 704.352C2370.51 703.354 2371.22 701.505 2372.41 698.974C2373.67 695.973 2374.75 692.901 2375.65 689.775C2376.23 688.071 2374.45 684.907 2378.3 685.248C2381.34 685.637 2381.56 688.144 2381.39 690.213Z" fill="#FFDA74"/>
<path d="M186.015 750.371C199.229 745.845 203.902 757.064 210.618 764.097C212.395 765.946 211.519 769.256 207.82 768.964C202.953 768.453 199.156 770.497 195.116 772.42C193.427 773.488 191.383 773.844 189.432 773.411C187.481 772.978 185.78 771.79 184.701 770.108C181.488 765.679 180.101 760.592 184.944 756.991C188.278 754.557 187.816 752.902 186.137 750.298L186.015 750.371Z" fill="#FEFEFE"/>
<path d="M215.193 845.428C214.926 842.459 210.643 841.096 212.2 837.737C212.525 837.445 212.922 837.246 213.35 837.161C213.779 837.075 214.222 837.106 214.634 837.251C217.578 839.49 216.581 842.434 215.193 845.428Z" fill="#FEFEFE"/>
</g>
<defs>
<radialGradient id="paint0_radial" cx="0" cy="0" r="1" gradientUnits="userSpaceOnUse" gradientTransform="translate(925.924 253.43) rotate(84.9566) scale(1570.65 2443.03)">
<stop offset="0.248856" stop-color="#7571A5"/>
<stop offset="1" stop-color="#D2D2D4"/>
</radialGradient>
<clipPath id="clip0">
<rect width="2298" height="1474" fill="white" transform="translate(127 141)"/>
</clipPath>
</defs>
</svg>
