<svg width="4389" height="2906" viewBox="0 0 4389 2906" fill="none" xmlns="http://www.w3.org/2000/svg">
<rect width="4389" height="2906" fill="url(#paint0_radial)"/>
<g clip-path="url(#clip0)">
<path d="M2195.64 1247.92C2196.74 1266.92 2195.2 1285.99 2191.07 1304.57C2187.54 1320.63 2184.13 1337.13 2176.47 1351.95C2168.02 1368.4 2161.86 1386.02 2151.01 1401.23C2135.27 1423.13 2119.06 1444.55 2099.1 1462.73C2079.62 1480.04 2058.33 1495.22 2035.61 1507.99C2017.94 1518.21 1998.96 1525.03 1980.37 1533.04C1966.62 1538.89 1952.83 1544.65 1939 1550.31C1934.47 1552.14 1929.55 1553.06 1925.05 1554.94C1922.11 1556.18 1917.39 1555.67 1917.75 1561.46C1917.9 1563.41 1914.37 1564.28 1913.03 1563.26C1904.8 1556.88 1897.16 1563.11 1889.54 1564.36C1870.51 1567.49 1851.39 1570.51 1832.18 1568.98C1805.42 1566.81 1778.65 1564.87 1752.44 1558.17C1736.25 1553.77 1720.34 1548.45 1704.76 1542.23C1688.52 1535.84 1672.72 1528.37 1657.48 1519.87C1639.02 1509.71 1622.24 1496.75 1607.76 1481.44C1599.9 1473.24 1591.09 1466.09 1583.42 1457.59C1574.78 1447.86 1569.21 1436.57 1562.1 1426.1C1556.12 1416.88 1550.67 1407.32 1545.8 1397.46C1538.29 1382.76 1532.49 1367.24 1528.52 1351.22C1524.85 1336.79 1519.44 1322.77 1515.6 1308.37C1512.53 1296.9 1508.93 1285.59 1506.89 1273.83C1505.35 1265.1 1502.02 1256.8 1500.95 1247.87C1498.98 1231.29 1494.79 1215.09 1493.65 1198.27C1492.79 1184.86 1492.99 1171.5 1492.48 1158.14C1491.75 1139.89 1497.35 1122.73 1502.21 1105.62C1506.71 1088.5 1513.24 1071.98 1521.68 1056.42C1529.71 1042.33 1538.84 1028.9 1548.99 1016.26C1558.72 1004.34 1569.82 993.679 1578.63 981.243C1584.86 972.434 1593.55 966.642 1600.82 959.341C1608.9 951.164 1617.27 943.304 1626.16 935.906C1634.11 929.286 1641.46 922.01 1650.49 916.851C1662 910.28 1674.37 905.632 1686.51 900.497C1700.49 894.738 1715.02 890.409 1729.88 887.575C1746.4 884.241 1762.73 880.03 1779.69 878.692C1793.69 877.573 1807.82 875.626 1821.65 876.453C1841.85 877.694 1862.14 877.427 1882.2 882.78C1908.09 889.74 1934.06 896.043 1958.73 906.8C1975.99 914.295 1994.17 919.966 2010.54 928.994C2024.2 936.49 2038.21 943.377 2051.91 950.897C2068.95 960.242 2082.46 973.651 2096.74 986.086C2108.03 995.821 2116.99 1008.35 2125.29 1021.01C2138.26 1040.84 2151.67 1060.46 2161.04 1082.31C2167.17 1096.6 2172.09 1111.51 2176.98 1126.11C2180.51 1136.73 2183.47 1147.53 2186.05 1158.41C2189.55 1173.3 2191.95 1188.43 2193.23 1203.67C2194.38 1218.45 2196.45 1233.07 2195.64 1247.92Z" fill="#3A4453"/>
<path d="M651.524 1466.11C654.493 1449.88 683.16 1408.82 692.335 1397.82C705.793 1381.96 722.609 1370.06 739.523 1358.69C754.983 1348.6 771.332 1339.94 788.365 1332.82C801.287 1327.2 814.405 1322.94 827.692 1318.64C833.581 1316.74 839.179 1319.02 844.946 1317.83C863.709 1313.99 882.813 1315.69 901.552 1316.81C920.197 1318.23 938.561 1322.18 956.137 1328.56C966.991 1332.34 977.48 1336.69 987.945 1341.22C1001.18 1346.96 1012.28 1356.19 1024.13 1364.09C1037.26 1373.29 1049.11 1384.17 1059.4 1396.46C1060.37 1397.58 1061.29 1399.5 1063.48 1398.04C1069.13 1394.27 1075.65 1392.3 1081.71 1389.16C1088.45 1385.66 1094.66 1377.67 1104.83 1383.25C1107.46 1384.71 1113.37 1380.55 1117.63 1378.65C1136.93 1370.41 1157.17 1364.56 1177.89 1361.22C1203.51 1356.63 1229.61 1355.28 1255.57 1357.21C1280.17 1359.02 1304.01 1366.52 1325.22 1379.11C1341.79 1389.01 1357.56 1399.8 1370.24 1414.4C1379.8 1425.4 1388.27 1437.08 1388.78 1452.87C1389.1 1462.02 1383.31 1467.25 1378.37 1472.88C1360.29 1492.94 1338.22 1509.01 1313.58 1520.06C1301 1525.9 1288.25 1531.67 1275.84 1537.83C1264.6 1543.43 1252.99 1548.51 1242.06 1554.86C1227.05 1563.53 1210.86 1569.59 1195.12 1576.64C1168.49 1588.54 1140.97 1598.28 1114.81 1611.15C1113.29 1611.78 1111.94 1612.75 1110.85 1613.97C1109.76 1615.2 1108.95 1616.66 1108.51 1618.23C1099.79 1650.31 1082.78 1678.05 1064.26 1705.26C1051.44 1723.62 1037.53 1741.19 1022.62 1757.9C1017.99 1763.03 1012.86 1767.69 1007.32 1771.82C999.261 1778.05 993.98 1787.05 985.268 1792.7C965.753 1805.53 944.514 1815.53 922.189 1822.39C890.941 1831.81 858.647 1831.81 826.646 1830.03C803.971 1828.37 781.907 1821.92 761.912 1811.1C742.443 1801.02 723.972 1790.02 707.862 1774.74C698.846 1766.38 690.49 1757.33 682.869 1747.68C681.338 1745.54 679.217 1743.9 676.765 1742.95C674.314 1742 671.639 1741.79 669.07 1742.35C649.601 1745.19 630.132 1748.8 610.372 1750.69C596.257 1752.06 582.288 1754.49 568.1 1755.71C551.386 1756.94 534.616 1757.22 517.87 1756.56C495.311 1755.9 472.338 1755.17 451.53 1745.02C433.473 1736.19 420.648 1722.29 416.779 1701.68C413.274 1683.11 416.779 1665.18 421.476 1647.27C425.296 1632.67 434.447 1621.62 442.867 1609.81C449.034 1601.35 456.028 1593.51 463.747 1586.43C472.968 1577.58 482.844 1569.45 493.291 1562.09C503.634 1554.94 512.76 1545.93 522.348 1537.76C536.038 1526.18 551.481 1516.86 568.1 1510.13C575.103 1506.94 581.834 1503.18 588.226 1498.89C599.347 1492.15 611.418 1488.09 623.489 1483.95C627.391 1482.47 631.196 1480.73 634.878 1478.77C636.247 1477.93 637.81 1477.46 639.414 1477.41C641.019 1477.36 642.609 1477.72 644.028 1478.47C647.825 1476.75 650.307 1476.04 650.356 1474.75L651.524 1466.11Z" fill="#3A4453"/>
<path d="M644.88 1487.4C643.128 1487.19 640.013 1487.74 638.942 1486.72C637.384 1485.09 637.044 1486.84 636.362 1487.33C630.692 1491.22 624.194 1492.76 617.672 1494.63C607.623 1497.72 598.104 1502.32 589.443 1508.28C578.637 1515.46 566.518 1519.94 555.105 1525.78C543.277 1531.84 533.445 1540.5 523.078 1548.51C510.74 1558 499.545 1568.93 486.574 1577.71C477.809 1584.02 469.755 1591.26 462.555 1599.3C450.606 1611.78 439.654 1625.34 432.354 1641.06C427.713 1651.78 424.75 1663.15 423.568 1674.77C422.101 1683.86 422.382 1693.15 424.396 1702.14C429.531 1722.39 442.794 1734.51 461.995 1741.08C475.939 1745.95 490.322 1747.26 504.948 1748.58C520.213 1749.84 535.542 1750.15 550.846 1749.5C566.185 1748.86 581.463 1747.18 596.573 1744.46C608.133 1742.44 619.935 1741.35 631.592 1739.6C644.442 1737.77 657.364 1736.41 671.455 1734.73C664.154 1725 657.413 1715.99 652.935 1705.53C652.083 1703.56 650.502 1702.05 646.803 1702.9C628.745 1706.94 610.591 1710.76 592.29 1713.31C569.744 1716.74 546.722 1715.2 524.83 1708.81C512.906 1705.23 501.565 1701.51 491.49 1694.02C480.515 1685.96 475.72 1674.79 474.333 1661.8C473.051 1652.36 474.162 1642.76 477.565 1633.87C480.967 1624.99 486.551 1617.1 493.802 1610.93C500.032 1605.31 505.191 1598.5 511.081 1592.44C522.792 1580.76 535.733 1570.38 549.678 1561.48C560 1555 569.767 1547.67 578.881 1539.58C592.923 1526.56 609.398 1516.85 629.524 1515.68C635.121 1515.34 642.3 1501.4 643.809 1493.63L644.88 1487.4Z" fill="#D9A672"/>
<path d="M1099.38 811.574C1101.54 830.556 1098.31 850.341 1093.42 869.59C1090.55 880.858 1089.43 893.318 1081.13 902.833C1080.46 903.482 1080.03 904.341 1079.91 905.267C1080.4 920.087 1067.52 927.364 1061.61 938.485C1055.7 949.607 1047.01 957.808 1039.24 966.91C1029.86 977.576 1018.63 986.469 1006.1 993.168C990.445 1002.24 974.182 1010.22 957.427 1017.04C937.666 1024.61 917.613 1031.33 897.536 1038.04C879.603 1044.04 861.231 1048.63 842.586 1051.77C824.938 1054.34 806.996 1054.13 789.411 1051.16C773.466 1049.01 757.746 1045.42 742.443 1040.45C732.003 1036.92 721.417 1034.08 711.39 1028.28C701.364 1022.49 691.094 1016.9 680.654 1011.74C671.062 1006.54 662.172 1000.15 654.201 992.706C636.224 977.382 619.448 960.704 604.02 942.817C588.591 924.565 577.737 903.539 568.611 881.831C564.109 871.075 558.244 860.927 554.958 849.538C550.091 832.722 544.81 816.149 542.06 798.749C538.532 776.384 538.872 753.922 539.627 731.509C540.065 717.783 543.253 704.179 546.368 690.649C551.065 670.401 555.372 650.032 564.133 631.123C569 620.61 573.478 609.902 579.416 599.779C585.67 589.119 591.073 577.876 598.471 567.996C605.566 558.287 614.454 550.026 624.657 543.66C636.411 536.481 648.019 529.058 659.676 521.758C668.997 515.941 680.41 513.557 690.705 509.249C699.782 505.428 709.735 506.815 718.91 503.676C721.089 502.96 723.45 503.036 725.579 503.891C727.707 504.745 729.465 506.324 730.543 508.349C732.587 512.972 734.947 511.22 736.943 510.076C744.784 505.988 753.204 503.124 761.912 501.583C769.918 499.831 777.973 500.172 785.883 499.49C799.876 498.274 813.991 496.424 828.13 497.665C848.645 499.466 869.501 500.099 889.53 503.92C903.797 506.417 917.595 511.096 930.439 517.791C942.923 524.508 956.916 527.793 968.816 536.067C977.504 542.103 986.022 548.235 994.296 554.879C1008.9 566.463 1018.46 582.451 1030.05 596.664C1039.57 608.697 1047.49 621.927 1053.58 636.015C1059.69 649.521 1066.4 662.784 1069.69 677.653C1071.71 684.825 1074.34 691.811 1077.55 698.534C1083.17 713.319 1087.77 728.476 1091.3 743.896C1094.68 756.782 1097.31 769.857 1099.16 783.052C1100.35 792.032 1099.38 801.28 1099.38 811.574Z" fill="#3A4453"/>
<path d="M1546.67 1856.56C1532.07 1857.26 1518.76 1852.44 1505.3 1847.33C1497.16 1844.11 1488.44 1842.61 1479.68 1842.94C1470.93 1843.27 1462.34 1845.42 1454.47 1849.25C1437.09 1857.58 1419.35 1865.63 1399.86 1864.98C1368.51 1863.93 1345 1844 1340.96 1811.85C1337.19 1782.09 1355.22 1756.78 1384.77 1747.9C1405.72 1741.64 1419.54 1726.43 1430.86 1708.42C1435.12 1701.66 1438.04 1693.82 1445.46 1689.12C1447.57 1687.67 1449.99 1686.73 1452.52 1686.37C1473.3 1684.72 1494.23 1683.16 1514.94 1685.13C1530.89 1686.68 1546.01 1692.95 1558.38 1703.14C1568.12 1711.03 1579.7 1716.67 1590.21 1723.68C1597.59 1728.42 1603.92 1734.63 1608.78 1741.93C1613.64 1749.23 1616.94 1757.46 1618.47 1766.1C1620.2 1774.92 1621.13 1783.88 1621.26 1792.87C1621.77 1799.74 1619.62 1806.55 1615.28 1811.9C1600.92 1828.67 1583.91 1842.97 1564.93 1854.24C1559.16 1857.67 1552.83 1856.48 1546.67 1856.56Z" fill="#3A4453"/>
<path d="M2702.71 927.605C2702.71 943.034 2702.71 956.248 2697.43 968.83C2692 981.776 2682.03 992.292 2669.39 998.398C2665.33 1000.44 2663.02 1003.87 2659.41 1006.09C2639.6 1018.26 2618.58 1020.69 2595.41 1019.69C2571.27 1018.67 2552.87 1006.38 2534.57 994.869C2511.93 981.009 2495.4 959.061 2488.33 933.47C2482.59 915.137 2480.5 895.856 2482.17 876.719C2484.61 853.94 2495.15 834.52 2514.74 821.184C2526.51 813.153 2539.68 807.897 2552.7 802.3C2574.6 792.906 2596.51 796.07 2618.85 799.866C2636.39 802.835 2648.58 813.932 2661.63 824.202C2665.16 826.976 2668.47 830.018 2671.87 832.963C2686.31 845.423 2692.44 862.482 2696.6 880.077C2700.44 896.26 2704.09 912.76 2702.71 927.605Z" fill="#3A4453"/>
<path d="M477.959 972.798C495.773 971.022 509.961 981.583 523.808 992.753C528.676 996.599 533.08 1000.91 537.655 1005.07C554.009 1019.94 555.737 1038.7 551.844 1058.92C549.41 1070.97 545.492 1082.82 537.631 1092.02C529.43 1101.75 520.206 1110.17 507.211 1114.85C492.06 1120.42 475.377 1120.15 460.413 1114.09C447.491 1109.22 433.643 1105.04 423.106 1095.45C412.009 1085.42 409.429 1071.43 406.363 1057.63C401.204 1034.51 411.23 1017.26 427 1001.98C427.681 1001.32 428.849 1000.47 428.776 999.86C427.243 987.692 436.661 985.55 444.57 980.659C454.694 974.429 465.134 972.603 477.959 972.798Z" fill="#3A4453"/>
<path d="M1207.55 1001.73C1195.09 1002.24 1185.16 995.82 1173.99 997.207C1173.51 997.27 1173.02 997.219 1172.56 997.059C1172.1 996.898 1171.68 996.633 1171.34 996.283C1171 995.934 1170.75 995.51 1170.6 995.045C1170.45 994.58 1170.41 994.087 1170.49 993.606C1170.46 993.121 1170.53 992.635 1170.71 992.183C1170.89 991.731 1171.16 991.324 1171.52 990.991C1171.87 990.658 1172.29 990.408 1172.75 990.258C1173.22 990.109 1173.71 990.063 1174.19 990.126C1181.49 990.393 1189.06 989.176 1196.36 990.856C1198.28 991.294 1200.13 992.048 1201.79 990.856C1205.22 988.617 1210.74 992.243 1212.47 988.617C1214.77 983.211 1216.12 977.448 1216.46 971.582C1216.92 966.398 1218.89 961.409 1218.16 956.055C1218.08 955.576 1218.11 955.084 1218.25 954.618C1218.39 954.152 1218.64 953.725 1218.97 953.37C1219.3 953.014 1219.71 952.74 1220.17 952.569C1220.62 952.397 1221.11 952.333 1221.59 952.381C1223.86 952.381 1224.86 953.695 1225.32 955.909C1227.05 962.452 1228.4 969.091 1229.36 975.792C1229.63 979.32 1233.57 980.513 1232.91 984.431C1232.59 986.232 1234.93 984.869 1236.12 984.431C1242.04 981.803 1247.97 979.247 1253.86 976.595C1256.95 975.183 1260.78 973.991 1262.5 977.228C1264.23 980.464 1263.09 983.555 1258.95 985.721C1253.16 988.714 1248.15 993.143 1242.5 996.453C1238.39 998.886 1238.22 1001.69 1240.07 1005.31C1242.5 1010.63 1245.35 1015.74 1248.58 1020.62C1249.63 1022.03 1250.38 1023.63 1250.8 1025.34C1251.22 1027.04 1251.29 1028.81 1251.02 1030.55C1250.82 1032.4 1252.57 1035.22 1249.48 1036.02C1246.39 1036.83 1243.01 1036.51 1242.04 1033.39C1239.92 1026.63 1233.59 1023.34 1230.14 1017.65C1226.05 1010.96 1221.72 1010.98 1217.36 1017.33C1213.61 1022.83 1209.28 1027.77 1205.07 1032.88C1203.12 1035.32 1201.98 1038.97 1198.21 1037.12C1194.44 1035.27 1195.92 1031.45 1196.43 1028.62C1198.37 1019.03 1202.15 1009.9 1207.55 1001.73V1001.73Z" fill="#3A4453"/>
<path d="M1401.75 805.172C1397.5 805.756 1396.11 804.004 1395.52 799.623C1394.5 792.006 1394.26 784.267 1391.46 776.869C1386.96 764.92 1379.73 760.832 1367.12 763.801C1362.3 764.871 1357.43 765.683 1352.52 766.235C1349.89 766.575 1347 766.575 1346.56 762.852C1346.19 759.786 1347.63 758.69 1350.65 757.376C1358.45 753.693 1365.8 749.12 1372.55 743.748C1381.51 737.08 1382.77 726.713 1385.42 716.979C1386.91 711.6 1386.18 706.052 1387.27 700.795C1387.78 698.362 1387.27 693.762 1392.14 694.054C1395.74 694.273 1396.45 697.656 1397.01 700.26C1399.05 710.846 1405.57 720.191 1406.09 731.045C1406.5 740.268 1413.05 742.166 1419.57 742.75C1425.17 743.237 1431.42 745.184 1436.82 740.682C1437.99 739.708 1440.55 740.049 1442.42 740.244C1444.29 740.438 1447.65 738.638 1447.68 742.896C1447.68 745.598 1447.68 747.764 1444.22 748.956C1433.61 752.777 1424.14 758.958 1414.48 764.677C1412.87 765.641 1411.51 766.964 1410.49 768.543C1409.48 770.122 1408.85 771.914 1408.64 773.779C1407.01 782.856 1405.04 791.909 1405.82 801.23C1406.11 804.491 1404.87 805.756 1401.75 805.172Z" fill="#3A4453"/>
<path d="M2387.99 634.993C2385.34 635.431 2384.59 631.805 2383.76 629.469C2380.45 621.255 2376.37 613.369 2371.59 605.912C2368.84 601.264 2365.29 600.412 2360.54 600.071C2351.88 599.414 2343.51 602.164 2334.87 601.653C2331.9 601.483 2329.17 601.653 2328.69 597.54C2328.23 593.768 2330.34 592.673 2333.12 591.529C2344.53 586.662 2356.14 582.16 2368.4 580.505C2375.02 579.605 2376.7 575.297 2377.65 570.771C2379.67 561.037 2381.89 551.302 2380.79 541.252C2380.52 538.818 2380.38 536.19 2383.4 535.338C2386.41 534.486 2387.99 536.798 2389.11 538.769C2394.78 548.723 2401.28 558.238 2405.27 569.067C2408 576.222 2413.35 578.047 2419.87 578.485C2422.31 578.631 2424.74 578.266 2427.18 578.485C2429.95 578.85 2433.65 579.556 2433.79 582.525C2433.78 583.957 2433.3 585.346 2432.42 586.476C2431.54 587.607 2430.31 588.416 2428.93 588.78C2417.71 591.481 2410.65 601.532 2399.87 605.085C2398.74 605.528 2397.79 606.341 2397.17 607.392C2396.56 608.443 2396.32 609.671 2396.49 610.877C2396.9 616.595 2394.61 622.047 2394.91 627.912C2395.05 630.905 2393.84 634.555 2387.99 634.993Z" fill="#3A4453"/>
<path d="M2561.58 1366.58C2555.6 1365.67 2550.36 1364.8 2545.11 1364.14C2541.77 1363.73 2538.44 1362 2538.83 1359.03C2539.19 1357.5 2540.08 1356.14 2541.35 1355.21C2542.61 1354.27 2544.17 1353.82 2545.74 1353.92C2551 1354.09 2556.3 1353.75 2561.58 1353.92C2566.45 1354.19 2569.76 1352.85 2570.93 1347.74C2571.33 1346.4 2571.94 1345.12 2572.73 1343.97C2576.21 1337.86 2582.03 1337.3 2585.53 1343.19C2589.03 1349.08 2592.1 1353.14 2599.74 1349.73C2601.93 1348.74 2606.02 1348.4 2607.17 1351.97C2608.53 1356.26 2604.32 1357.52 2601.74 1357.94C2595.85 1358.88 2596.09 1361.51 2598.21 1365.8C2599.72 1368.69 2600.81 1371.77 2601.45 1374.97C2601.86 1377.4 2602.96 1380.88 2600.64 1382.39C2598.33 1383.9 2594.92 1382.2 2592.88 1380.32C2588.79 1376.63 2583.75 1374.75 2579.01 1372.37C2572.24 1369.01 2568.45 1370.96 2567.03 1378.5C2566.09 1383.59 2562.17 1381.69 2560.56 1380.74C2554.19 1377.14 2554.43 1372.32 2561.58 1366.58Z" fill="#3A4453"/>
<path d="M2233.36 784.926C2234 797.629 2226.28 811.89 2215.57 814.397C2206.84 816.465 2201.7 813.667 2196.28 807.972C2184.11 795.196 2182.16 777.796 2191.77 764.167C2197.47 756.039 2203.65 754.822 2212.8 759.495C2218.88 762.696 2224.59 766.548 2229.84 770.982C2234.48 774.729 2233.22 780.01 2233.36 784.926Z" fill="#3A4453"/>
<path d="M1280.59 438.456C1272.92 436.022 1262.99 432.858 1255.32 426.58C1250.75 422.832 1250.04 414.996 1251.8 408.62C1253.29 404.421 1255.3 400.424 1257.78 396.72C1258.59 395.308 1260 393.41 1261.31 393.264C1270.56 392.266 1280.15 389.443 1289.08 392.144C1298.01 394.846 1302.58 402.39 1304.36 411.613C1306.55 422.735 1294.09 438.261 1280.59 438.456Z" fill="#3A4453"/>
<path d="M2330.25 1323.77C2333.92 1323.5 2337.01 1323.45 2339.61 1326.52C2342.22 1329.59 2343.58 1324.28 2346.92 1325.08C2356.31 1327.52 2362.08 1336.13 2360.52 1347.3C2359.83 1353.13 2357.33 1358.6 2353.37 1362.93C2349.41 1367.26 2344.19 1370.24 2338.45 1371.44C2334.79 1372.32 2330.97 1372.25 2327.34 1371.24C2323.72 1370.23 2320.41 1368.32 2317.73 1365.68C2315.05 1363.03 2313.09 1359.75 2312.03 1356.14C2310.97 1352.53 2310.85 1348.71 2311.68 1345.04C2312.94 1340.57 2314.65 1336.23 2316.76 1332.09C2319.42 1326.4 2323.31 1322.29 2330.25 1323.77Z" fill="#3A4453"/>
<path d="M1944.64 1733.56C1944.49 1728.09 1946.34 1722.75 1949.84 1718.54C1953.34 1714.33 1958.26 1711.55 1963.67 1710.71C1964.84 1710.49 1965.86 1710.71 1966.3 1709.03C1968.44 1701.1 1973.16 1705.43 1975.55 1708.01C1986.28 1719.59 1986.23 1738.4 1976.25 1750.69C1974.56 1752.75 1972.31 1754.27 1969.77 1755.08C1967.23 1755.89 1964.52 1755.96 1961.94 1755.27C1950.97 1753.18 1944.5 1744.61 1944.64 1733.56Z" fill="#3A4453"/>
<path d="M1321.96 485.253C1320.64 477.952 1334.42 464.665 1342.11 464.421C1344.54 464.421 1347.27 464.129 1347.9 467.22C1348.53 470.311 1346.63 471.235 1343.79 471.747C1337.46 472.939 1334.27 477.49 1331.35 482.965C1328.43 488.441 1330.6 491.678 1334.73 494.671C1335.71 495.301 1336.77 495.8 1337.87 496.155C1342.33 497.786 1346.46 503.018 1351.55 497.664C1355.56 493.454 1356.61 483.379 1353.59 478.317C1352.06 475.884 1348.73 472.963 1352.16 470.53C1355.15 468.437 1357.63 471.917 1359.9 474.034C1366.81 480.507 1363.64 494.014 1357.92 502.556C1353.86 508.591 1346 508.956 1337.41 505.281C1328.82 501.607 1321.98 496.326 1321.96 485.253Z" fill="#3A4453"/>
<path d="M2036.85 488.126C2034.25 488.564 2031.98 492.701 2029.31 489.124C2027.07 486.058 2030.01 484.038 2031.74 481.969C2042.89 468.268 2058.97 468.779 2071.43 478.027C2072.34 478.792 2072.94 479.852 2073.14 481.02C2075.57 489.465 2073.82 497.86 2071.55 505.77C2069.29 513.679 2060.85 512.486 2054.69 513.289C2048.53 514.092 2040.87 508.082 2038.53 502.265C2036.68 497.739 2036.95 492.993 2036.85 488.126Z" fill="#3A4453"/>
<path d="M1272.97 467.295C1288.3 467.295 1293.87 472.771 1294.87 485.863C1295.72 497.812 1286.6 501.949 1275.26 500.343C1271.66 499.992 1268.17 498.864 1265.05 497.036C1261.93 495.209 1259.24 492.725 1257.17 489.757C1255.72 487.147 1254.98 484.206 1255 481.22C1255.03 478.235 1255.83 475.307 1257.32 472.722C1259.75 467.855 1264.35 466.784 1269.49 467.222C1270.53 467.392 1271.78 467.295 1272.97 467.295Z" fill="#3A4453"/>
<path d="M612.732 1187.66C613.949 1193.94 611.734 1198.95 606.94 1201.53C601.489 1204.48 596.013 1201.65 591.122 1198.56C589.783 1197.71 588.688 1196.13 587.252 1195.74C582.872 1194.84 582.385 1194.74 584.381 1191.46C585.671 1189.32 583.894 1188.54 583.724 1187.13C583.261 1182.87 584.697 1179.68 589.151 1181.24C592.655 1182.5 592.412 1181.24 592.898 1178.8C594.067 1172.77 598.398 1171.65 603.874 1171.96C609.35 1172.28 611.661 1175.64 612.635 1180.24C612.935 1182.7 612.967 1185.19 612.732 1187.66V1187.66Z" fill="#3A4453"/>
<path d="M2348.89 1754.1C2349.91 1759.38 2347.72 1761.77 2341.44 1761.4C2333.19 1760.89 2328.66 1757.17 2328.66 1749.67C2328.66 1742.18 2329.64 1741.06 2339.03 1741.08C2346.84 1741.06 2348.91 1743.66 2348.89 1754.1Z" fill="#3A4453"/>
<path d="M2300.48 1504.22C2303.24 1504.4 2305.85 1505.55 2307.83 1507.48C2309.81 1509.41 2311.04 1511.98 2311.29 1514.74C2311.29 1515.71 2311.29 1516.88 2310.24 1517.02C2309.11 1517.21 2307.95 1516.96 2307 1516.32C2306.28 1515.34 2305.27 1514.6 2304.11 1514.21C2302.95 1513.82 2301.7 1513.79 2300.53 1514.13C2296.66 1515.08 2294.28 1512.45 2294.06 1508.53C2293.81 1503.83 2297.32 1504.17 2300.48 1504.22Z" fill="#3A4453"/>
<path d="M1733.72 631.146C1733.19 636.379 1726.15 634.48 1724.86 639.104C1723.88 639.446 1722.83 639.546 1721.8 639.398C1720.77 639.25 1719.79 638.857 1718.95 638.252C1716.52 635.989 1718.22 633.799 1719.31 631.901C1721.38 628.25 1724.18 625.281 1729.05 626.328C1730.2 626.609 1731.25 627.211 1732.08 628.063C1732.91 628.916 1733.48 629.985 1733.72 631.146V631.146Z" fill="#3A4453"/>
<path d="M1919.16 1448.83C1924.95 1451 1930.62 1452.77 1936 1455.21C1954.47 1463.56 1971.56 1473.24 1982.24 1491.93C1987.35 1500.84 1994.58 1509.11 2004.44 1513.42C1992.9 1518.43 1981.34 1523.28 1969.9 1528.44C1952.42 1536.27 1934.55 1543.21 1916.36 1549.22C1909.91 1551.38 1906.8 1548.1 1904.75 1544.35C1897.45 1531.06 1885.87 1522.16 1874.7 1512.45C1860.42 1500.45 1847.03 1487.43 1834.62 1473.51C1821.84 1458.66 1813.08 1441.99 1805.42 1424.25C1797.58 1405.98 1792.1 1386.82 1786.6 1367.94C1780.96 1348.47 1768.86 1333.14 1760.73 1315.45C1754.32 1301.01 1745.24 1287.91 1733.96 1276.85C1727.86 1270.99 1720.56 1266.7 1714.5 1260.79C1704.64 1251.05 1696.2 1239.74 1686.27 1230.1C1671.3 1215.33 1658.07 1198.9 1646.82 1181.14C1636.57 1165.34 1624.26 1150.96 1612.26 1136.38C1605.86 1128.6 1600.7 1119.84 1593.98 1112.17C1589.53 1107.06 1584.96 1102.07 1580.16 1097.33C1567.8 1085.16 1553.83 1074.79 1540.1 1064.18C1536.89 1061.75 1530.64 1061.75 1530.66 1057.37C1530.66 1054.03 1535.02 1050.92 1536.92 1047.41C1543.83 1035.41 1551.99 1024.16 1561.25 1013.85C1569.84 1003.71 1578.29 993.314 1588.02 983.944C1589.82 982.168 1591.75 982.898 1593.81 983.677C1610.05 989.712 1625.86 996.818 1638.59 1008.69C1647.77 1017.26 1656.41 1026.51 1665.09 1035.66C1673.39 1044.37 1680.72 1053.84 1688.48 1062.91C1697.46 1073.38 1704.66 1085.33 1713.33 1096.06C1723.94 1109.57 1736.57 1121.36 1750.78 1131.01C1756.96 1135.12 1762.24 1140.74 1768.28 1145.41C1778.75 1153.27 1789.69 1160.46 1801.06 1166.95C1814.18 1174.57 1824.59 1185.81 1834.59 1197.25C1848.13 1212.68 1861.36 1228.15 1879.1 1239.5C1890.27 1246.58 1901.13 1254.51 1912.45 1261.4C1920.69 1266.48 1930.53 1268.87 1939.21 1273.15C1950 1278.41 1961.94 1278.31 1973.29 1281.3C1980 1283.35 1986.22 1286.73 1991.59 1291.26C2000.91 1298.41 2011.49 1303.06 2021.37 1309.02C2038.41 1319.24 2055.15 1328.83 2068.34 1344.72C2080.51 1359.33 2089.12 1375.85 2100.37 1390.79C2105.02 1396.97 2109.27 1403.45 2113.9 1409.63C2115.53 1411.77 2117.43 1414.91 2120.86 1412.26C2124.29 1409.6 2121.49 1406.71 2120.13 1404.74C2114.34 1396.49 2108.16 1388.53 2102.53 1380.11C2095.77 1370.03 2089.73 1359.52 2082.14 1349.86C2069.02 1333.21 2054.74 1318.42 2035.9 1308.49C2024.97 1302.79 2014.32 1296.59 2003.44 1290.8C2001.4 1289.91 1999.69 1288.41 1998.57 1286.49C2002.78 1284.88 2005.87 1288.26 2008.89 1289.36C2017.89 1292.89 2027.48 1294.66 2037.14 1294.59C2039.71 1294.89 2042.23 1295.48 2044.66 1296.37C2047.1 1296.86 2050.09 1299.41 2051.33 1296.15C2052.57 1292.89 2048.65 1292.4 2046.34 1291.84C2035.23 1289.22 2024.32 1285.79 2013.71 1281.6C2003.62 1277.78 1993.06 1275.39 1982.31 1274.49C1978.49 1274.1 1976.59 1271.42 1975.01 1268.41C1974.55 1267.44 1973.76 1266.66 1972.78 1266.22C1971.8 1265.77 1970.7 1265.68 1969.66 1265.97C1966.98 1266.34 1968.1 1268.16 1968.13 1269.77C1968.13 1273.42 1965.45 1271.64 1964.09 1271.35C1945.38 1267.14 1927.48 1259.9 1911.11 1249.91C1898.55 1242.32 1886.31 1234.19 1873.97 1226.26C1861.63 1218.32 1851.85 1206.79 1842.55 1195.5C1830.55 1180.35 1815.92 1167.49 1799.36 1157.53C1784.92 1149.16 1772 1138.53 1758.64 1128.55C1750.18 1122.07 1742.06 1115.15 1734.31 1107.84C1726.97 1101.62 1720.59 1094.35 1715.37 1086.28C1710.36 1077.86 1703.2 1071.09 1697.05 1063.47C1681.52 1044.95 1665.06 1027.23 1647.74 1010.37C1632.12 994.53 1612.94 985.502 1592.45 977.641C1602.32 968.215 1612.2 958.789 1622.09 949.363C1622.58 948.901 1623.31 948.244 1623.84 948.317C1632.31 949.801 1635.16 942.087 1640.27 938.193C1649.2 931.354 1658.06 924.516 1668.84 920.574C1671.28 919.673 1671.71 920.33 1673.71 921.644C1686.12 929.87 1698.82 937.609 1711.16 945.98C1725.23 955.544 1735.18 968.321 1745.09 981.389C1760.56 1001.83 1771.34 1024.9 1782.34 1047.92C1791.74 1067.61 1798.48 1088.69 1810.5 1106.96C1815.85 1114.71 1822.6 1121.4 1830.38 1126.7C1848.93 1139.82 1867.52 1152.84 1887.65 1163.37C1896.18 1168.06 1905.1 1172.02 1914.29 1175.22C1927.41 1179.57 1939.12 1187.36 1948.19 1197.78C1962.8 1214.04 1979.59 1227.91 1996.23 1241.93C2002.24 1246.99 2005.34 1254.56 2011.22 1259.94C2017.4 1265.72 2024.5 1270.44 2032.23 1273.88C2044.98 1279.55 2057.05 1286.76 2069.39 1293.35C2077.39 1297.63 2085.67 1301.21 2092.65 1307.42C2098.18 1312.28 2102.1 1318.44 2106.84 1323.87C2115.46 1333.77 2124.9 1342.92 2132.88 1353.46C2138.6 1361 2140.18 1369.47 2142.35 1378.04C2143.17 1381.3 2142.96 1385 2146.44 1387.24C2148.87 1388.82 2146.61 1390.43 2145.83 1391.57C2139.74 1400.21 2133.98 1409.12 2127.23 1417.22C2116.6 1430 2106.72 1443.43 2094.41 1454.79C2090.12 1458.76 2088.61 1459.66 2084.84 1453.58C2070.7 1431.09 2053.62 1411.18 2031.5 1395.78C2018.16 1386.53 2005.97 1375.68 1993.02 1365.85C1984.31 1359.61 1974.76 1354.63 1964.67 1351.03C1949.07 1344.94 1933.28 1339.37 1917.8 1332.82C1905.24 1327.54 1895.01 1317.91 1888.99 1305.69C1884.12 1295.95 1877.23 1288.19 1870.83 1279.92C1858.66 1264.24 1844.06 1250.86 1829.73 1237.35C1816.93 1225.19 1801.52 1216.23 1789.79 1202.92C1776.84 1188.32 1765.87 1172.55 1766.84 1151.59C1766.99 1148.26 1766.16 1145.85 1762.15 1146.07C1758.13 1146.29 1759.71 1149.55 1759.71 1151.5C1758.2 1172.79 1767.96 1189.44 1781.42 1204.77C1787.69 1212.31 1794.72 1219.18 1802.4 1225.28C1810.04 1230.68 1817.35 1236.53 1824.3 1242.81C1835.45 1253.49 1846.59 1264.15 1857.35 1275.22C1862.75 1280.77 1867.08 1287.39 1872.24 1293.2C1877.94 1299.58 1881.1 1307.49 1885.26 1314.69C1894.02 1329.83 1907.97 1337.64 1923.18 1343.9C1940.67 1351 1958.66 1356.96 1975.99 1364.48C1985.64 1368.78 1994.43 1374.78 2001.95 1382.2C2013.71 1393.61 2027.48 1402.47 2040.23 1412.6C2049.8 1420.23 2058.28 1429.13 2065.45 1439.05C2070.78 1446.35 2076.74 1453.31 2080.83 1461.68C2082.43 1465.02 2082.02 1466.14 2079.83 1467.69C2068.32 1475.94 2056.73 1484.07 2045.17 1492.27C2042.18 1494.41 2039.6 1493.59 2038.6 1490.47C2032.64 1471.56 2019.47 1458.71 2003.95 1447.37C1989.93 1437.13 1976.81 1425.47 1960.92 1418.17C1946.87 1411.86 1932.27 1406.84 1917.31 1403.18C1897.33 1398.14 1886.31 1383.71 1877.86 1366.14C1872.05 1353.97 1865.7 1342.29 1851.09 1337.86C1844.28 1335.77 1838.05 1337.37 1831.63 1338.37C1831.2 1338.42 1830.79 1338.56 1830.42 1338.77C1830.05 1338.98 1829.72 1339.26 1829.46 1339.6C1829.2 1339.93 1829 1340.32 1828.89 1340.73C1828.78 1341.14 1828.75 1341.57 1828.8 1342C1829.14 1347.84 1828.29 1353.48 1831.24 1359.33C1839.92 1376.72 1845.68 1395.42 1848.27 1414.69C1852.09 1439.41 1862.63 1460.32 1877.11 1479.96C1884.02 1489.38 1889.62 1499.89 1897.43 1508.46C1906.7 1518.6 1917.65 1527.22 1927.95 1536.39C1930.26 1538.46 1933.54 1538.41 1934.71 1535.74C1935.45 1534 1935.82 1532.12 1935.77 1530.23C1935.73 1528.35 1935.29 1526.49 1934.47 1524.78C1934.17 1524.6 1933.83 1524.49 1933.47 1524.47C1933.12 1524.45 1932.77 1524.52 1932.45 1524.66C1926.95 1530.24 1926.58 1525.1 1925.15 1521.38C1923.71 1517.65 1919.43 1516.63 1916.73 1514.08C1904.21 1501.49 1893.16 1487.53 1883.78 1472.46C1875.02 1458.81 1866.52 1444.79 1862.75 1429.19C1858.47 1411.5 1854.38 1393.69 1849.9 1376.04C1847.76 1367.58 1843.36 1359.67 1840.17 1351.49C1839.34 1349.42 1837.34 1347.21 1840 1345.09C1841 1344.42 1842.15 1344.02 1843.34 1343.92C1844.54 1343.82 1845.74 1344.02 1846.84 1344.5C1854.34 1346.62 1860.72 1351.59 1864.6 1358.35C1870.03 1367.31 1874.51 1376.87 1879.88 1385.85C1886.91 1397.03 1897.85 1405.18 1910.57 1408.73C1926.32 1413.76 1942.21 1418.46 1957.3 1425.01C1973.58 1431.97 1986.99 1443.72 2000.93 1454.48C2008.57 1460.39 2017.09 1465.43 2022.01 1474.19C2026.09 1481.49 2029.87 1488.79 2033.69 1496.24C2034 1496.75 2034.14 1497.36 2034.08 1497.96C2034.01 1498.56 2033.74 1499.12 2033.32 1499.55C2023.59 1509.65 2011.3 1509.53 2000.98 1499.35C1993.14 1491.59 1987.42 1482.2 1980.66 1473.61C1970.8 1461.05 1956.32 1454.55 1942.16 1448.18C1933.96 1444.5 1925.46 1441.46 1916.97 1438.44C1913.44 1437.22 1908.65 1435.89 1906.41 1439.46C1905.46 1441.25 1905.04 1443.27 1905.22 1445.28C1905.4 1447.3 1906.16 1449.21 1907.41 1450.8C1910.52 1456 1912.98 1461.57 1914.71 1467.38C1918.97 1480.13 1927.29 1490.71 1935.08 1501.59C1940.72 1509.45 1949.17 1513.76 1955.67 1520.23C1956.18 1520.75 1956.78 1521.16 1957.45 1521.44C1958.12 1521.72 1958.84 1521.86 1959.56 1521.86C1960.28 1521.86 1961 1521.72 1961.67 1521.44C1962.34 1521.16 1962.94 1520.75 1963.45 1520.23C1967.18 1516.66 1962.58 1515.8 1961.02 1514.05C1943.23 1495.07 1927.61 1474.87 1919.16 1448.83Z" fill="#F0C390"/>
<path d="M2153.27 1378.65C2149.75 1375.07 2150.55 1371.1 2149.89 1367.87C2148.05 1357.88 2143.25 1348.69 2136.12 1341.46C2125.57 1330.86 2115.68 1319.63 2106.5 1307.83C2097.5 1296.42 2084.94 1290.21 2072.11 1284.83C2057.22 1278.6 2043.3 1270.52 2028.7 1263.76C2021.06 1260.18 2014.67 1254.41 2010.32 1247.18C2002.39 1234.02 1989.69 1226.04 1978.05 1216.91C1972.87 1212.43 1968.04 1207.55 1963.62 1202.31C1949.36 1186.98 1934.25 1172.79 1913.32 1166.24C1895.48 1160.67 1879.74 1150.62 1864.16 1140.3C1852.01 1132.71 1840.32 1124.4 1829.14 1115.43C1820.58 1107.83 1813.68 1098.55 1808.9 1088.15C1805.07 1080.56 1802.06 1072.55 1798.63 1064.64C1808.65 1065.47 1816.97 1070.19 1825.66 1073.84C1836.32 1078.29 1847.57 1080.63 1858.25 1085.84C1872.51 1092.85 1885.92 1101.12 1899.62 1108.98C1912.27 1116.28 1924.66 1123.83 1934.79 1134.36C1941.82 1141.69 1948.24 1149.6 1953.96 1157.99C1960.61 1167.73 1971 1172.79 1979.25 1180.58C1982.92 1184.08 1987.89 1186.2 1991.93 1189.36C2002.24 1197.49 2014.1 1203.01 2025.68 1208.83C2035.59 1213.7 2043.88 1221 2053.25 1226.55C2067.68 1235.24 2082.46 1243.58 2094.09 1256.07C2100.61 1263.05 2105.72 1271.28 2111.71 1278.75C2120.42 1289.6 2132.39 1293.88 2144.34 1298.8C2144.7 1299.02 2145.11 1299.17 2145.53 1299.23C2145.95 1299.3 2146.37 1299.27 2146.79 1299.16C2147.2 1299.05 2147.58 1298.86 2147.91 1298.6C2148.25 1298.33 2148.52 1298.01 2148.72 1297.63C2149.75 1295.52 2147.48 1294.59 2146.29 1293.96C2136.64 1288.79 2127.86 1282.12 2120.3 1274.2C2113.87 1267.12 2107.06 1260.35 2100.83 1252.98C2087.64 1237.25 2069.44 1227.86 2052.6 1216.79C2040.74 1208.72 2028.38 1201.4 2015.61 1194.89C1996.94 1185.76 1980.85 1172.69 1964.94 1159.7C1957.42 1153.54 1952.14 1144.63 1946.08 1136.77C1936.85 1124.82 1925.12 1116.23 1912.4 1108.18C1901.03 1100.88 1889.62 1093.75 1877.91 1087.18C1859.75 1076.66 1840.04 1069.09 1819.51 1064.76C1814.51 1063.69 1809.62 1062.15 1804.9 1060.19C1801.52 1058.87 1796 1063.91 1794.42 1056.44C1793.44 1051.79 1790.18 1047.68 1788.36 1043.18C1781.29 1026.14 1772.16 1010.03 1761.17 995.21C1752.34 983.042 1742.94 971.239 1733.89 959.218C1727.3 950.457 1718.22 944.932 1709.7 938.848C1701.18 932.764 1693.23 924.904 1682.45 922.105C1681.67 921.886 1681.13 920.816 1680.47 920.158C1684.56 919.088 1681.42 913.685 1685.75 912.128C1706.12 904.798 1726.97 898.903 1748.15 894.484C1761.51 891.758 1775.09 890.785 1788.36 887.792C1791.42 887.086 1794.05 887.013 1794.27 892.075C1794.61 900.398 1803.18 903.342 1807.29 909.329C1818.31 925.366 1833.74 937.753 1844.26 954.277C1850.53 964.012 1853.72 975.085 1857.57 985.914C1861.29 996.232 1862.95 1007.21 1870.39 1016.24C1875.48 1022.42 1882.1 1026.58 1887.57 1032.2C1897.79 1042.71 1910.47 1050.21 1923.03 1057.56C1929.86 1061.79 1936.19 1066.79 1941.89 1072.45C1949.82 1079.92 1958.25 1086.74 1966.91 1093.41C1974.71 1099.37 1981.22 1106.86 1986.01 1115.43C1997.11 1135.73 2014.02 1146.34 2036.27 1150.77C2048.43 1153.2 2061.26 1155.63 2071.7 1163.13C2084.81 1172.58 2096.04 1184.4 2104.8 1197.98C2110.04 1206.41 2116.9 1213.72 2124.99 1219.49C2133.08 1225.25 2142.23 1229.35 2151.91 1231.56C2156.07 1232.56 2159.8 1235.5 2163.67 1237.67C2164.6 1238.44 2165.79 1238.83 2167 1238.77C2168.22 1238.7 2169.36 1238.19 2170.21 1237.33C2172.65 1234.89 2170.46 1233.17 2169 1231.2C2163.96 1224.33 2155.68 1224.09 2148.75 1221.46C2135.37 1216.81 2123.86 1207.96 2115.94 1196.22C2105.92 1180.54 2092.98 1166.93 2077.83 1156.12C2066.74 1148.55 2053.5 1146.97 2041.13 1143.2C2032.01 1140.45 2022.05 1140.37 2013.68 1135.21C2004.8 1129.71 1999.08 1121.29 1993.48 1112.78C1985.29 1100.27 1974.8 1089.42 1962.58 1080.8C1955.58 1075.66 1949.13 1069.81 1943.35 1063.33C1933.84 1053.01 1920.6 1048.34 1909.87 1039.99C1890.03 1024.54 1870.27 1009.86 1862.85 982.896C1857.65 962.732 1846.92 944.423 1831.87 930.039C1820.94 919.891 1813.13 906.749 1802.35 896.285C1801.32 895.443 1800.57 894.309 1800.19 893.032C1799.82 891.755 1799.84 890.395 1800.26 889.13C1801.52 886.161 1804.47 887.913 1806.61 887.767C1814.08 887.208 1821.5 884.701 1829.09 887.597C1831.65 888.57 1836.59 885.772 1834.89 892.172C1834.59 893.219 1836.13 893.705 1836.98 893.389C1849.32 888.692 1851.9 899.716 1856.03 906.238C1861.16 914.779 1865.64 923.695 1869.42 932.91C1876.72 949.751 1888.23 963.549 1904.61 971.994C1916.24 978.029 1925.27 987.642 1936.98 993.361C1946.63 997.768 1955.53 1003.65 1963.38 1010.79C1967.9 1015.09 1971.8 1020 1974.96 1025.39C1981.24 1036.09 1989.57 1045.39 1996.11 1055.93C2002.1 1065.42 2013.46 1070.26 2024.88 1072.14C2045.88 1075.62 2064.76 1084.99 2084.38 1092.36C2092.26 1095.33 2096.72 1101.14 2100.51 1108.2C2110.47 1127.37 2124.82 1143.9 2142.4 1156.46C2152.13 1163.32 2162.74 1170.06 2175.54 1170.4C2178.41 1170.4 2177.98 1172.21 2178.61 1174.05C2180.89 1182.23 2182.19 1190.64 2182.48 1199.12C2183.43 1212.85 2185.54 1226.47 2185.86 1240.32C2186.59 1270.67 2180.99 1299.94 2173.69 1329.15C2169.34 1346.74 2159.92 1361.81 2153.27 1378.65Z" fill="#FFDA74"/>
<path d="M1499.97 1154.64C1508.73 1156.61 1513.6 1163.2 1519.44 1167.88C1534.04 1179.48 1549.5 1190.22 1562.18 1203.89C1572.81 1215.14 1584.41 1225.44 1596.83 1234.68C1611.19 1245.6 1626.86 1254.8 1641.39 1265.54C1658.67 1278.29 1677.14 1289.48 1692.11 1305.37C1698.85 1312.53 1702.13 1321.26 1705.81 1329.54C1712.84 1345.45 1717.42 1362.44 1723.79 1378.67C1726.66 1385.73 1730.51 1392.34 1735.21 1398.34C1740.24 1404.88 1742.12 1412.94 1746.72 1419.48C1755.79 1432.53 1763.14 1446.69 1773.71 1458.76C1787.84 1474.95 1804.49 1488.67 1818.05 1505.41C1824.02 1513.22 1828.6 1522 1831.6 1531.36C1834.45 1539.39 1839.53 1546.81 1839.19 1555.89C1839.29 1556.98 1839.74 1558.01 1840.47 1558.82C1841.21 1559.64 1842.18 1560.2 1843.26 1560.41C1845.69 1561.12 1847.01 1559.49 1847.98 1557.18C1848.71 1555.52 1850.73 1554.45 1851.6 1552.82C1852.48 1551.19 1852.51 1548.29 1849.56 1549.22C1844.86 1550.65 1845.37 1547.34 1844.89 1544.94C1840.59 1522.04 1829.87 1500.84 1813.98 1483.8C1802.52 1471.49 1788.96 1461.22 1778.72 1447.86C1770.46 1436.87 1762.88 1425.38 1756.01 1413.47C1749.95 1403.18 1745.04 1392.28 1737.66 1382.64C1733.23 1376.6 1730.15 1369.68 1728.63 1362.34C1726.8 1353.66 1724.09 1345.19 1720.53 1337.06C1715.23 1324.7 1710.92 1311.24 1702.74 1300.99C1695.34 1291.26 1686.28 1282.9 1675.97 1276.32C1662.87 1268.09 1650.22 1259.15 1638.08 1249.55C1631.9 1244.89 1625.44 1240.63 1618.73 1236.77C1611.74 1232.91 1605.2 1228.27 1599.26 1222.92C1589.34 1213.38 1577.73 1205.89 1568.89 1194.86C1560.96 1185.01 1549.89 1178.02 1539.69 1170.53C1530.81 1163.98 1522.66 1156.58 1513.99 1149.55C1513.29 1148.91 1512.54 1148.31 1511.75 1147.77C1500.8 1141.28 1500.92 1140.47 1504.26 1128.31C1509.72 1108.35 1516.43 1088.75 1524.36 1069.63C1526.26 1065.03 1528.62 1063.62 1533.05 1066.08C1536.67 1068.46 1540.13 1071.08 1543.41 1073.91C1556.04 1082.78 1567.87 1092.74 1578.75 1103.68C1585.97 1110.84 1592.58 1118.59 1598.51 1126.85C1605.59 1137.36 1613.72 1147.17 1621.46 1157.24C1632.73 1171.84 1643.02 1187.25 1653.1 1202.8C1660.71 1214.67 1671.54 1223.87 1680.67 1234.43C1688.77 1243.9 1697.7 1252.54 1705.69 1262.06C1711.28 1268.8 1718.71 1273.08 1725.03 1278.77C1735.73 1287.96 1744.4 1299.28 1750.49 1311.99C1756.06 1324.01 1763.78 1335.04 1769.96 1346.67C1778.82 1363.1 1782.98 1381.5 1788.74 1399.21C1793.55 1415.25 1799.6 1430.88 1806.85 1445.96C1816.12 1464.26 1829.43 1478.91 1843.35 1493.49C1855.52 1506.22 1869.37 1516.83 1882.29 1528.56C1889.76 1535.32 1897.48 1542.75 1901.76 1553.14C1890.3 1557.05 1877.67 1558.44 1865.26 1560.61C1849.41 1563.38 1833.38 1561.58 1817.56 1560.44C1798.31 1559.14 1779.2 1556.22 1760.44 1551.73C1733.53 1545.11 1708.39 1534.15 1683.32 1522.52C1664.2 1513.76 1646.23 1502.7 1629.78 1489.6C1624.91 1485.65 1620.61 1480.66 1615.89 1476.28C1607.2 1468.28 1599.12 1459.61 1590.67 1451.32C1581.3 1442.09 1575.71 1430.27 1569.04 1419.31C1558.77 1402.83 1550.09 1385.4 1543.1 1367.28C1539.03 1356.5 1535.09 1345.67 1530.61 1333.58C1552.15 1349.64 1573.37 1363.51 1591.6 1381.37C1600.02 1389.65 1609.95 1396.34 1618.56 1404.44C1630.73 1415.91 1642.49 1427.93 1649.96 1443.38C1657.26 1458.35 1668.01 1471.44 1673 1487.67C1675.08 1493.95 1676.07 1500.53 1675.95 1507.14C1675.83 1510.35 1675.05 1514.78 1680.35 1514.18C1685.07 1513.62 1684.83 1509.31 1684.49 1505.9C1683 1492.87 1679.38 1480.16 1673.78 1468.3C1665.82 1450.46 1654.97 1434.45 1643.43 1418.66C1631.27 1402.16 1615.28 1390.33 1600.68 1376.68C1592.28 1368.82 1583.47 1361.44 1574.9 1353.8C1566.92 1346.72 1557.29 1341.49 1548.35 1335.45C1541.78 1331.02 1536.62 1324.48 1528.67 1322.17C1526.6 1321.56 1527.42 1319.93 1526.99 1318.71C1518.98 1295.78 1514.31 1271.96 1508.44 1248.48C1507.54 1244.85 1511.75 1241.44 1507.74 1236.43C1527.69 1244.75 1546.02 1251.71 1561.98 1264.76C1580.94 1280.26 1599.44 1296.27 1616.88 1313.43C1630.32 1326.59 1639.22 1343.07 1645.62 1360.83C1653.12 1382.67 1663.87 1403.24 1677.5 1421.87C1688.6 1436.47 1701.99 1449.39 1712.23 1464.75C1725.37 1484.41 1737.81 1504.39 1740.83 1528.53C1741.12 1530.97 1741.61 1532.94 1744.33 1533.01C1747.57 1533.01 1748.2 1530.82 1748.1 1528.14C1747.54 1516.22 1743.58 1505.15 1738.81 1494.49C1729.58 1474.45 1717.26 1455.98 1702.3 1439.76C1689.39 1425.23 1677.85 1409.53 1667.84 1392.86C1661.08 1381.81 1657.87 1369.3 1653.07 1357.43C1645.91 1338.64 1635.03 1321.49 1621.09 1307C1602.46 1288.44 1582.59 1271.15 1561.64 1255.24C1549.47 1245.85 1534.38 1240.4 1519.76 1236.04C1507.59 1232.44 1503.58 1225.67 1502.53 1214.48C1500.68 1194.86 1498.83 1175.15 1499.97 1154.64Z" fill="#FFDA74"/>
<path d="M1854.06 888.791C1867.89 889.132 1880.49 893.123 1893 896.554C1913.9 902.132 1934.47 908.901 1954.59 916.826C1989 930.712 2022.35 947.085 2054.37 965.814C2063.35 970.973 2070.92 978.615 2078.95 985.283C2092.59 996.991 2104.73 1010.33 2115.12 1025C2125.04 1038.6 2133.12 1053.59 2141.59 1068.22C2155.59 1092.43 2164.15 1118.74 2171.28 1145.63C2172.6 1150.5 2174.67 1155.37 2175.69 1160.38C2176.22 1163.13 2175.69 1164.27 2173.5 1163.08C2156.12 1153.91 2138.04 1145.66 2126.36 1128.67C2118.79 1117.67 2109.32 1108.01 2103.75 1095.57C2100.27 1087.91 2091.58 1086.06 2084.28 1083.02C2070.53 1077.3 2056.88 1071.09 2042.45 1067.42C2034.59 1065.42 2026.31 1064.98 2018.45 1062.55C2005.24 1058.1 1999.3 1046.61 1992.02 1036.34C1985.55 1027.16 1979.2 1017.94 1972.55 1008.96C1967.73 1002.73 1961.56 997.682 1954.5 994.19C1938.22 986.037 1924.59 973.918 1908.75 965.4C1894.11 957.462 1882.6 944.788 1876.11 929.456C1872.15 919.981 1867.69 910.721 1862.75 901.713C1860.29 897.333 1855.72 894.656 1854.06 888.791Z" fill="#F0C390"/>
<path d="M640.426 1595.16C639.857 1557.57 645.321 1520.13 656.61 1484.27C663.438 1462.17 673.195 1441.08 685.618 1421.58C695.007 1407.12 706.822 1394.39 720.541 1383.95C740.279 1368.04 761.759 1354.43 784.569 1343.36C800.095 1336.06 815.694 1328.39 832.754 1325.86C847.647 1323.67 862.273 1318.71 877.702 1320.75C894.227 1322.92 910.629 1325.62 927.007 1328.91C950.858 1333.58 973.811 1342.02 995.002 1353.92C1006.49 1360.1 1017.09 1367.81 1026.49 1376.85C1034.16 1384.39 1041.75 1392.06 1049.37 1399.67C1051.19 1401.5 1053.6 1402.76 1049.51 1405.37C1047.52 1406.66 1047.47 1411.01 1051.7 1410.07C1061.07 1408 1063.87 1415.47 1067.79 1420.65C1078.96 1435.5 1087.09 1452.14 1095.75 1468.52C1104.42 1484.9 1106.05 1503.71 1111.08 1521.3C1111.67 1523.32 1110.4 1523.74 1108.5 1524.49C1099.4 1528.14 1090.33 1531.79 1081.1 1535.15C1064.94 1541.04 1049.32 1548.46 1033.01 1553.87C1011.76 1560.88 990.443 1567.66 969.06 1574.21C941.901 1582.53 914.839 1591.25 887.242 1598.23C868.284 1603.1 849.984 1610.4 831.026 1615.12C808.613 1620.77 785.664 1624.42 763.202 1629.92C745.436 1634.25 727.525 1637.87 709.662 1640.89C694.926 1643.35 680.348 1646.67 666.004 1650.84C660.674 1652.4 654.785 1651.28 649.455 1654.06C647.021 1655.3 645.075 1653.35 644.783 1650.31C642.811 1631.04 638.772 1611.88 640.426 1595.16Z" fill="#FFDA74"/>
<path d="M1099.91 1616.92C1091.13 1649.36 1074.34 1675.08 1057.16 1700.71C1044.49 1719.17 1030.59 1736.75 1015.54 1753.32C1012.01 1757.29 1007.27 1760.43 1003.37 1764.32C991.206 1776.76 978.867 1789.53 962.976 1796.84C942.728 1806.13 922.529 1815.65 899.946 1819.39C878.548 1822.82 856.86 1824.06 835.212 1823.12C824.09 1822.7 813.09 1819.83 802.091 1817.33C787.489 1813.99 774.348 1807.37 761.206 1801.12C751.303 1796.37 741.889 1790.67 733.098 1784.08C716.209 1771.68 701.18 1756.93 688.466 1740.28C705.501 1736.92 722.293 1733.71 739.133 1730.54C755.974 1727.38 772.547 1722.03 789.071 1717.09C811.63 1710.37 834.044 1703.26 856.895 1697.45C866.995 1694.87 876.68 1690.63 886.634 1687.3C907.782 1680.22 928.686 1672.21 950.199 1666.44C976.531 1659.39 1002.21 1650.26 1028.71 1643.79C1048.16 1638.74 1067.18 1632.14 1085.58 1624.05C1089.94 1622.15 1095.32 1622.44 1099.91 1616.92Z" fill="#FFDA74"/>
<path d="M1081.05 1421.7C1077.83 1417.48 1074.35 1413.47 1070.64 1409.68C1066.36 1405.76 1068.4 1403.52 1072.07 1401.77C1077.14 1399.33 1082.81 1398.24 1086.68 1393.74C1087.58 1392.69 1088.79 1392.91 1089.74 1394C1092.35 1397.02 1095.05 1395.71 1098.11 1394.59C1114.93 1388.38 1131.62 1381.76 1148.76 1376.58C1163.79 1372.16 1179.14 1368.91 1194.68 1366.84C1205.07 1365.36 1215.49 1365.41 1225.88 1364.41C1251.02 1361.98 1275.26 1367.28 1298.16 1377.55C1321.06 1387.82 1342.59 1399.46 1359.9 1417.51C1367.75 1425.28 1373.71 1434.74 1377.32 1445.18C1379.75 1452.9 1377.13 1458.52 1373.28 1463.41C1366.11 1472.54 1357.81 1480.71 1348.58 1487.75C1335.17 1497.87 1321.35 1507.46 1306.14 1513.81C1293.46 1519.09 1281.19 1525.27 1268.98 1531.23C1254.76 1538.17 1240.8 1545.84 1226.63 1553.14C1202.85 1564.96 1178.41 1575.4 1153.43 1584.41C1140.36 1589.13 1127.95 1595.68 1114.74 1601.61C1115.25 1595.92 1117.17 1591.37 1117.17 1586.43C1117.17 1574.41 1127.37 1571.83 1135.69 1569.68C1151.9 1565.74 1166.45 1558.17 1180.64 1550.22C1202.22 1538.17 1223.71 1526.05 1245.74 1514.81C1261.19 1506.9 1276.01 1497.77 1288.45 1485.31C1291.44 1482.69 1294.65 1480.31 1298.03 1478.21C1308.57 1470.76 1314.56 1461.02 1315.07 1447.69C1315.33 1442.73 1314.19 1437.8 1311.79 1433.46C1309.39 1429.12 1305.82 1425.53 1301.49 1423.11C1294.7 1419.17 1288.49 1413.81 1280.71 1411.33C1267.59 1407.15 1254.18 1404.03 1241.06 1400.04C1217.17 1392.74 1192.85 1392.62 1168.42 1393.23C1153.6 1393.59 1139.22 1397.26 1124.62 1400.11C1110.96 1402.76 1099.6 1411.16 1086.24 1414.4C1082.34 1415.35 1079.96 1417.46 1081.01 1421.92L1081.05 1421.7Z" fill="#D9A672"/>
<path d="M1112.64 1547.83C1113.96 1553.43 1111.18 1559.88 1111.08 1566.55C1111.08 1571.9 1105.66 1572.39 1102.3 1573.29C1083.37 1578.42 1065.65 1586.92 1046.91 1592.59C1031.09 1597.45 1015.27 1602.32 999.528 1607.19C987.093 1610.96 974.17 1612.66 961.881 1617.55C950.078 1622.28 936.961 1623.52 924.647 1627.14C905.64 1632.72 886.05 1635.78 867.092 1641.74C853.974 1645.92 840.602 1649.27 827.059 1651.75C813.821 1654.18 800.947 1658.66 787.927 1662.21C766.803 1667.95 745.923 1674.99 724.483 1678.98C705.355 1682.53 686.495 1687.23 667.342 1690.49C667.109 1690.54 666.869 1690.54 666.636 1690.49C663.059 1689.81 659.944 1695.36 656.269 1691.51C653.325 1688.52 653.836 1684.02 652.059 1680.41C651.475 1679.2 651.791 1677.57 651.329 1676.25C646.316 1662.5 646.827 1660.29 660.917 1659.22C671.479 1658.37 680.824 1654.06 690.924 1652.26C710.539 1648.73 730.08 1644.96 749.719 1641.55C760.817 1639.65 771.403 1635.88 782.549 1633.98C801.19 1630.84 819.783 1626.85 838.059 1621.81C862.395 1615.27 886.293 1607.43 910.41 1600.25C931.388 1594.02 952.706 1588.72 973.367 1581.56C992.982 1574.75 1012.84 1568.74 1032.58 1562.36C1056.11 1554.77 1078.82 1545.06 1101.74 1536.08C1112.74 1531.77 1112.64 1531.21 1112.64 1543.04V1547.83Z" fill="#967057"/>
<path d="M684.767 1732.59C682.82 1732.93 680.824 1731.49 678.512 1728.25C672.882 1721.03 667.868 1713.34 663.521 1705.28C661.842 1701.9 661.672 1699.93 666.393 1699C679.437 1696.45 692.311 1692.82 705.331 1690.63C723.315 1687.61 741.007 1683.33 758.626 1678.85C779.142 1673.6 799.462 1667.49 819.929 1662.09C829.42 1659.65 839.154 1658.07 848.67 1655.69C858.793 1653.11 868.893 1650.28 878.846 1647.09C891.988 1642.91 905.616 1641.11 918.855 1637.07C937.326 1631.4 956.381 1628.23 974.827 1622C990.135 1616.82 1006.46 1614.56 1022.11 1609.57C1047.81 1601.34 1073.7 1593.6 1098.55 1582.8C1101.16 1581.68 1105.32 1579 1107.56 1581.61C1109.41 1583.77 1108.92 1587.98 1107.31 1591.17C1107.06 1591.56 1106.91 1592.02 1106.87 1592.49C1107.12 1608.84 1094.41 1611.37 1082.83 1615.46C1072.93 1618.94 1063.36 1623.2 1053.63 1626.92C1036.4 1633.49 1018.53 1637.94 1000.79 1642.88C984.659 1647.36 968.889 1653.11 952.73 1657.49C944.407 1659.75 936.45 1662.94 927.956 1664.79C919.463 1666.64 911.262 1670.53 902.842 1673.11C877.435 1680.82 852.563 1690.14 826.743 1696.62C803.526 1702.51 781.04 1711.22 757.945 1717.77C743.357 1722.09 728.412 1725.1 713.289 1726.77C706.336 1727.74 699.491 1729.37 692.846 1731.64C690.183 1732.17 687.481 1732.49 684.767 1732.59V1732.59Z" fill="#D9A672"/>
<path d="M1080.91 1421.84C1083.73 1423.86 1086.34 1423.25 1089.47 1422.01C1109.77 1414.03 1131.02 1409.85 1152.36 1405.83C1167.16 1403.29 1182.19 1402.42 1197.19 1403.23C1217.46 1403.93 1236.95 1409.16 1256.32 1414.83C1259.68 1415.81 1263.06 1416.61 1266.42 1417.58C1280.51 1421.65 1293.19 1428.24 1302.07 1440.24C1305.97 1445.4 1304.51 1461.19 1299.42 1464.97C1284.82 1475.82 1271.78 1488.77 1256.25 1498.38C1243.91 1506 1230.89 1512.37 1217.87 1518.72C1197.55 1528.63 1178.93 1541.75 1158.54 1551.43C1146.11 1557.19 1133.26 1561.96 1120.09 1565.72C1123.54 1554.35 1123.23 1542.65 1122.38 1531.01C1122.16 1527.78 1124.3 1527.87 1125.3 1527.61C1143.21 1522.4 1160.57 1515.45 1177.13 1506.87C1196.26 1497.55 1214.75 1486.98 1232.5 1475.24C1238.01 1471.86 1242.41 1466.96 1245.18 1461.12C1251.21 1446.52 1243.94 1437.54 1229.16 1433.5C1207.6 1427.61 1185.36 1428.32 1163.46 1429.31C1147.94 1429.9 1132.54 1432.35 1117.61 1436.61C1110.5 1438.71 1102.59 1437.9 1096.09 1442.33C1095.46 1442.77 1094.73 1443.72 1093.98 1442.33C1090.25 1435.03 1083.93 1429.53 1081.1 1421.75L1080.91 1421.84Z" fill="#967057"/>
<path d="M543.423 1678.95C559.095 1678.95 574.33 1675.28 589.661 1673.55C602.097 1672.16 614.217 1669.46 626.482 1667.37C630.351 1666.71 635.292 1663.74 637.701 1665.2C640.11 1666.66 639.477 1672.5 640.645 1676.28C642.13 1680.92 643.079 1685.77 644.88 1690.29C646.413 1694.36 644.637 1695.65 641.862 1696.11C616.382 1700.34 591.389 1707.72 565.277 1707.84C554.182 1707.68 543.159 1706.04 532.496 1702.97C521.399 1699.98 510.253 1697.42 500.13 1690.8C495.934 1688.32 492.27 1685.03 489.347 1681.12C486.424 1677.22 484.299 1672.78 483.094 1668.05C478.057 1648.19 484.335 1631.55 498.791 1617.5C505.289 1611.18 511.397 1604.48 517.481 1597.72C528.073 1586.58 540.152 1576.96 553.377 1569.12C567.297 1560.39 579.781 1549.66 592.752 1539.63C604.129 1530.53 617.797 1524.76 632.249 1522.94C635.803 1522.5 636.338 1524.35 636.022 1527.15C635.048 1536.08 634.05 1544.98 633.15 1553.91C632.955 1555.93 631.739 1556.23 630.23 1556.13C615.093 1554.94 603.46 1563.82 592.071 1571.14C569.479 1585.7 548.894 1603.15 530.842 1623.05C523.176 1631.45 516.897 1640.45 514.439 1652.01C511.689 1664.98 521.74 1678.78 534.735 1678.9L543.423 1678.95Z" fill="#967057"/>
<path d="M631.714 1597.01C631.059 1614.51 632.489 1632.03 635.973 1649.19C636.849 1653.5 635.973 1656.49 630.57 1658.02C616.762 1661.65 602.719 1664.31 588.542 1665.98C576.885 1667.49 565.277 1669.27 553.669 1671.09C546.82 1672.26 539.83 1672.33 532.959 1671.31C524.125 1669.88 520.791 1660.68 524.368 1651.11C527.994 1641.11 534.322 1633.18 541.403 1625.51C555.37 1610.28 571.059 1596.73 588.153 1585.11C599.931 1577.16 611.661 1568.61 625.655 1564.23C630.838 1562.6 631.909 1563.87 631.787 1568.76C631.544 1577.11 631.714 1585.53 631.714 1597.01ZM1097.6 1450.44C1113.93 1443.14 1130.72 1444.4 1146.91 1441.85C1167.64 1438.59 1188.28 1439.56 1209.09 1439.22C1215.22 1439.21 1221.31 1440.2 1227.12 1442.14C1239.8 1446.16 1241.94 1454.67 1232.72 1464.24C1226.58 1470.12 1219.6 1475.04 1212.01 1478.84C1185.87 1493.25 1159.9 1508.19 1131.24 1517.36C1121.01 1520.65 1120.14 1520.87 1118.87 1510.6C1116.23 1489.24 1108.97 1468.71 1097.6 1450.44Z" fill="#B7B7B7"/>
<path d="M1029.83 621.411C1041.83 640.19 1050.86 660.713 1056.6 682.251C1058.52 687.988 1060.83 693.59 1063.51 699.019C1070.23 715.889 1075.76 733.21 1080.06 750.854C1084.27 766.648 1087.87 783.05 1086.7 799.842C1086.78 800.798 1086.7 801.761 1086.46 802.689C1083.88 807.727 1064.72 815.198 1058.81 814.419C1049.5 813.564 1040.14 813.498 1030.82 814.225C1020.46 814.663 1012.16 819.433 1003.84 824.908C998.604 828.339 995.586 832.209 995.611 838.609C995.611 846.762 995.61 854.476 992.009 862.726C985 878.715 993.25 892.27 1003.37 904.511C1005.44 906.944 1008.63 907.431 1011.5 908.356C1018.8 910.668 1021.87 908.015 1020.04 900.739C1019.56 898.792 1019.85 895.872 1017.25 894.849C1013.96 893.657 1014.81 898.451 1011.84 898.597C1008.36 893.365 1004.03 888.546 1001.57 882.292C1000.53 879.438 1000.14 876.386 1000.43 873.361C1000.73 870.336 1001.7 867.417 1003.28 864.819C1006.73 858.54 1005.71 852.359 1005.71 846.105C1005.95 835.081 1015.2 826.247 1026.49 825.249C1038.52 823.764 1050.68 823.764 1062.7 825.249C1066.35 825.809 1070.08 825.379 1073.51 824.005C1076.93 822.631 1079.92 820.363 1082.17 817.437C1083 816.464 1083.8 815.003 1086.53 815.831C1087.11 844.572 1080.96 872.071 1069.49 899.984C1057.98 885.383 1041.8 887.816 1027.47 884.628C1024.35 883.971 1020.53 884.409 1020.17 889.106C1019.8 893.803 1022.36 896.553 1027.05 895.993C1035.08 895.02 1042.48 898.11 1050.17 899.133C1055.99 899.887 1059.61 905.022 1064.26 908.137C1066.23 909.451 1063.82 911.276 1063.24 912.469C1056.38 926.243 1046.55 937.973 1036.47 949.483C1031.38 955.348 1026.74 961.651 1020.14 966.202C1019.23 967.027 1018.08 967.543 1016.86 967.679C1015.63 967.814 1014.4 967.562 1013.33 966.957C1000.84 961.846 988.529 955.811 974.389 956.638C967.802 956.828 961.411 958.925 955.991 962.674C949.268 967.624 941.557 971.069 933.383 972.773C930.664 973.444 928.155 974.783 926.083 976.667C925.093 977.516 923.909 978.109 922.636 978.393C921.363 978.678 920.039 978.645 918.782 978.297C902.282 975.158 885.514 974.525 868.869 972.7C862.614 972.019 857.577 976.594 851.493 977.835C835.942 980.998 823.409 990.222 812.044 1001.03C810.978 1002.24 809.583 1003.12 808.028 1003.55C806.473 1003.99 804.825 1003.97 803.283 1003.48C800.991 1002.77 798.574 1002.54 796.189 1002.82C793.804 1003.09 791.503 1003.87 789.436 1005.09C786.589 1006.99 783.352 1005.99 780.31 1005.99C763.275 1005.99 749.136 1012.98 737.333 1024.73C735.361 1026.7 734.899 1025.53 733.463 1025.07C723.364 1021.71 714.919 1015.14 705.282 1010.88C701.437 1009.2 697.981 1006.36 694.233 1004.73C677.369 997.693 663.911 986.133 650.648 973.965C635.9 960.435 624.511 943.959 610.518 930.039C600.733 920.255 592.678 908.883 586.693 896.407C581.825 886.454 578.808 875.502 574.865 865.087C571.604 856.472 568.514 847.735 565.131 839.072C560.583 826.075 557.266 812.68 555.226 799.063C552.111 781.396 552.087 763.484 552.257 745.524C552.706 728.088 555.032 710.75 559.193 693.811C563.257 675.802 567.272 657.891 573.794 640.588C579.781 624.77 588.396 610.387 596.549 595.713C600.898 587.142 606.17 579.072 612.27 571.645C620.72 562.219 630.761 554.352 641.935 548.404C654.103 541.833 664.714 532.732 677.636 527.402C690.685 522.435 704.021 518.258 717.572 514.893C719.64 514.309 721.368 513.823 722.244 516.646C723.12 519.468 721.271 519.712 719.665 520.783C716.598 522.778 710.539 523.581 713.386 529.032C716.598 535.238 721.587 531.685 725.554 529.3C742.518 519.224 761.8 513.708 781.527 513.287C794.79 512.776 808.053 509.88 821.34 510.732C842.61 512.095 863.807 514.407 885.028 516.427C888.508 516.743 891.282 519.395 895.03 519.615C897.463 519.761 897.974 522.778 897.293 524.895C895.955 529.032 894.032 533.583 889.822 535.019C879.041 538.67 872.276 547.187 864.439 554.488C849.838 567.97 833.192 575.733 812.798 574.249C798.44 573.202 784.106 574.711 769.797 575.782C761.376 576.414 754.489 581.452 748.381 586.928C742.347 591.905 737.182 597.851 733.098 604.522C725.286 618.272 708.762 623.31 691.727 618.686C679.826 615.449 668.048 613.259 655.491 615.571C651.548 616.277 647.07 614.159 642.592 616.228C634.874 619.862 628.901 626.395 625.971 634.407C621.591 645.577 614.411 654.63 607.573 664.048C603.217 670.01 603.971 675.388 606.794 682.349C611.491 693.932 620.301 702.085 627.626 711.43C629.201 713.645 631.292 715.445 633.716 716.674C636.141 717.903 638.828 718.526 641.546 718.487C661.015 717.003 676.03 725.958 690.218 737.421C696.01 742.093 701.534 747.155 707.424 751.608C715.364 757.939 725.138 761.533 735.288 761.854C750.206 762.195 765.148 762.122 780.091 761.854C791.577 761.659 801.068 756.476 809.294 748.883C812.628 745.817 815.573 743.48 820.927 745.792C830.15 749.759 839.714 752.655 847.818 759.055C854.997 764.725 870.353 761.489 876.413 754.918C888.459 741.971 894.786 726.056 901.406 710.359C902.296 707.841 903.909 705.642 906.043 704.036C908.177 702.43 910.737 701.489 913.403 701.331C932.361 698.751 949.08 691.742 962.295 677.506C963.843 676.065 965.085 674.327 965.945 672.395C971.056 657.623 983.394 651.272 996.56 646.088C1009.73 640.905 1020.17 632.363 1029.83 621.411Z" fill="#B0D9E8"/>
<path d="M665.931 618.734C678.099 619.635 688.587 623.383 699.417 625.159C711.877 627.228 724.824 627.203 734.899 618.491C741.786 612.504 746.556 604.109 752.567 597.027C755.438 593.685 758.951 590.953 762.897 588.993C766.843 587.032 771.142 585.883 775.54 585.613C792.745 583.983 810.121 585.613 827.181 583.958C848.105 581.73 867.324 571.396 880.72 555.169C885.269 550.249 890.89 546.444 897.147 544.048C903.912 541.054 908.342 536.966 909.315 529.3C909.656 526.623 910.872 524.749 915.058 526.161C919.244 527.572 922.359 529.178 926.009 530.736C939.37 536.552 953.485 541.273 965.239 549.84C979.938 560.693 995.537 571.109 1005.81 587.025C1009.79 593.392 1014.23 599.453 1019.12 605.155C1022.62 609.049 1021.14 611.628 1019.12 615.084C1012.55 625.987 1002.08 631.632 990.816 636.159C976.215 642.097 963.73 649.836 956.6 664.875C949.469 679.915 935.914 686.315 920.583 689.552C916.664 690.404 912.576 690.355 908.682 691.255C899.118 693.519 893.351 700.187 890.333 709.069C886.103 721.026 880.484 732.445 873.59 743.091C867.287 753.093 857.358 753.628 844.727 746.206C837.56 742.311 829.909 739.381 821.973 737.494C809.44 734.111 801.385 742.726 793.086 749.199C789.248 752.4 784.494 754.3 779.507 754.626C764.54 755.186 749.622 755.453 734.655 757.06C727.209 757.814 719.007 753.166 712.753 747.788C700.999 737.859 689.196 728.027 675.762 720.385C667.973 715.819 658.964 713.77 649.966 714.521C646.171 714.974 642.323 714.426 638.806 712.932C635.288 711.438 632.222 709.049 629.913 706.003C623.148 697.656 614.947 690.379 611.418 679.623C610.719 678.187 610.451 676.58 610.645 674.995C610.84 673.411 611.488 671.916 612.513 670.692C620.155 660.203 629.743 651.004 632.396 637.205C633.783 629.905 640.256 626.327 647.508 624.113C653.523 621.914 659.678 620.118 665.931 618.734V618.734Z" fill="#9CE084"/>
<path d="M748.016 1029.35C759.325 1022.27 772.418 1018.56 785.761 1018.65C793.257 1018.65 800.484 1016.21 808.515 1017.04C818.396 1017.99 824.382 1008.42 831.634 1002.97C851.371 988.129 873.2 984.527 896.952 989.053C904.545 990.513 912.357 990.562 919.853 992.874C924.233 994.237 928.151 991.633 931.801 989.491C937.195 986.256 943.132 984.03 949.323 982.921C952.284 982.213 955.02 980.774 957.281 978.735C967.794 970.874 978.843 966.567 991.765 973.6C995.754 975.239 999.895 976.478 1004.13 977.299C1000.02 984.064 992.812 986.109 986.825 989.126C980.157 992.46 973.197 995.381 966.602 998.861C949.372 1007.99 930.877 1013.46 912.43 1019.35C898.948 1023.71 885.66 1028.82 871.862 1032.25C852.429 1037.15 832.551 1040.08 812.531 1040.99C802.011 1041.45 791.472 1040.74 781.113 1038.84C769.717 1037.12 758.592 1033.93 748.016 1029.35V1029.35Z" fill="#FEFEFE"/>
<path d="M1547.96 1849.55C1534.33 1849.19 1520.92 1846.05 1508.54 1840.32C1504.57 1838.35 1500.29 1837.07 1495.89 1836.55C1481.45 1835.85 1466.93 1834.63 1452.96 1840.57C1445.12 1843.93 1437.6 1847.87 1429.52 1850.84C1414.75 1856.17 1400 1859.82 1384.45 1855.05C1378.17 1853.1 1373.5 1848.35 1368.41 1844.44C1362.28 1839.75 1357.31 1833.72 1353.88 1826.81C1350.45 1819.9 1348.66 1812.29 1348.63 1804.57C1348.36 1791.75 1354.79 1779.87 1364.18 1770.28C1371.35 1762.8 1380.48 1757.48 1390.54 1754.95C1405.33 1751.08 1416.36 1741.03 1426.02 1729.42C1433.05 1720.34 1439.51 1710.83 1445.34 1700.93C1446.7 1698.66 1448.64 1696.79 1450.96 1695.53C1452.23 1694.92 1455.83 1691.29 1456.68 1696.99C1457 1699.13 1459.45 1699.64 1461.99 1698.57C1470.16 1695.09 1478.53 1693.26 1487.37 1696.13C1490.53 1697.2 1493.26 1694.8 1496.4 1694.65C1512.77 1693.94 1528.74 1696.89 1542.22 1705.67C1550.93 1711.37 1559.77 1717.21 1568.29 1723.39C1576.41 1729.25 1585.1 1734.24 1593.01 1740.6C1601.75 1747.75 1607.57 1757.86 1609.36 1769.02C1610.39 1774.06 1611.51 1779.12 1612.24 1784.2C1614.11 1797.35 1608.37 1808.01 1599.34 1816.35C1589.07 1825.87 1578.85 1835.58 1566.95 1843.12C1560.47 1847.5 1553.76 1850.5 1547.96 1849.55Z" fill="#FFDA74"/>
<path d="M2694.19 929.917C2693.17 941.598 2694.41 953.547 2689.96 964.912C2686.09 973.835 2679.78 981.48 2671.75 986.96C2664.45 992.412 2657.49 998.861 2648.97 1002.68C2633.01 1009.84 2616.97 1016.04 2598.79 1011.98C2593.1 1010.69 2587.04 1011.98 2581.15 1010.32C2569.59 1006.87 2559.76 1000.05 2549.17 994.724C2533.73 986.93 2520.37 975.547 2510.23 961.529C2498.87 946.003 2494.29 927.995 2490.47 909.597C2486.55 890.485 2488.86 870.619 2497.07 852.918C2504.37 836.93 2517.27 826.344 2533.57 819.724C2540.7 816.828 2549.1 816.171 2555.33 813.105C2567.5 807.118 2579.66 806.096 2592.37 806.826C2612.76 808.043 2632.18 812.57 2647.71 827.414C2657.1 836.394 2668.88 842.989 2675.87 854.33C2684.36 868.153 2688.03 883.776 2691.12 899.522C2693.31 909.501 2694.34 919.701 2694.19 929.917V929.917Z" fill="#967057"/>
<path d="M475.745 985.769C491.709 984.187 504.485 994.237 516.58 1004.65C521.971 1008.84 526.973 1013.51 531.523 1018.6C541.5 1030.77 540.892 1044 538.653 1057.85C534.76 1081.77 518.795 1096.2 498.548 1106.26C489.008 1111.12 478.032 1109.3 468.152 1105.84C457.444 1101.99 446.963 1097.54 436.758 1092.51C424.858 1086.74 421.427 1075.08 417.971 1063.5C410.232 1037.58 421.816 1020.69 439.07 1007.21C441.918 1004.97 447.466 1003.1 441.504 997.961C439.922 996.622 442.721 996.063 443.694 995.333C452.674 988.494 462.895 985.598 475.745 985.769Z" fill="#FFDA74"/>
<path d="M1399.64 769.375C1393.97 760.127 1388.78 751.512 1374.18 755.723C1380.46 749.201 1385.84 744.99 1387.64 737.884C1389.32 731.168 1392.94 724.962 1393.04 717.369C1396.53 721.68 1398.45 727.055 1398.47 732.603C1398.93 742.484 1403.34 748.3 1413.29 749.809C1414.92 750.077 1416.55 750.393 1418.28 750.709C1411.93 756.453 1401.24 757.694 1399.64 769.375Z" fill="#B0D9E8"/>
<path d="M2355.73 592.94C2362.59 591.699 2367.75 585.858 2374.95 585.493C2375.87 585.26 2376.72 584.806 2377.42 584.17C2378.13 583.533 2378.67 582.735 2378.99 581.843C2381.42 571.695 2390.16 563.493 2388.55 551.715C2391.33 556.582 2394.98 561.255 2396.68 566.511C2400.72 579.093 2409.48 583.546 2423.26 582.792C2415.69 585.858 2410.82 590.604 2405.01 593.767C2395.61 598.878 2385.54 603.112 2387.26 616.984C2384.67 613.015 2382.33 608.886 2380.26 604.621C2376.56 595.811 2370.52 591.504 2360.79 592.916C2359.1 593.046 2357.41 593.055 2355.73 592.94V592.94Z" fill="#FFDA74"/>
<path d="M2226.11 786.896C2223.68 791.909 2223.36 798.797 2218.35 803.615C2213.34 808.434 2207.3 808.093 2201.73 803.177C2199.27 801.011 2197.3 798.352 2195.94 795.374C2194.58 792.396 2193.87 789.164 2193.84 785.891C2193.81 782.617 2194.47 779.374 2195.78 776.373C2197.09 773.372 2199.02 770.681 2201.43 768.474C2202.24 767.473 2203.39 766.812 2204.65 766.622C2205.92 766.433 2207.21 766.729 2208.27 767.452C2213.77 770.139 2218.72 773.819 2222.87 778.306C2224.01 779.417 2224.88 780.761 2225.44 782.245C2226 783.728 2226.23 785.315 2226.11 786.896V786.896Z" fill="#FFDA74"/>
<path d="M1279.59 397.012C1286.38 397.182 1295.55 405.967 1296.06 412.781C1296.57 419.595 1288.52 430.741 1281.61 430.011C1274.7 429.281 1266.08 427.383 1261.19 421.202C1257.12 416.042 1259.34 410.031 1262.55 404.458C1266.52 397.523 1273.82 399.226 1279.59 397.012Z" fill="#B0D9E8"/>
<path d="M2353.19 1344.92C2352.03 1354.65 2339.27 1366.68 2331.46 1365.51C2325.89 1364.68 2318.05 1354.17 2318.61 1348.28C2319.49 1339.2 2326.94 1330.12 2332.83 1330.95C2346.84 1332.9 2354.05 1337.84 2353.19 1344.92Z" fill="#B0D9E8"/>
<path d="M1974.84 1733.76C1974.84 1738.45 1968.42 1748.04 1965.3 1747.94C1959.46 1747.77 1951.72 1740.16 1951.72 1734.53C1951.72 1725.82 1958.42 1718.01 1965.96 1717.94C1970.9 1717.89 1974.79 1724.82 1974.84 1733.76Z" fill="#FFDA74"/>
<path d="M2068.75 494.429C2070.46 503.288 2064.03 508.252 2055.32 508.568C2049.58 508.788 2040.16 500.562 2041.21 488.759C2041.22 487.163 2041.56 485.586 2042.21 484.13C2042.87 482.673 2043.82 481.37 2045 480.302C2046.19 479.235 2047.59 478.427 2049.1 477.93C2050.62 477.433 2052.22 477.259 2053.81 477.419C2061.97 477.589 2068.75 485.279 2068.75 494.429Z" fill="#B0D9E8"/>
<path d="M1278.27 496.154C1273.02 494.597 1266.76 493.136 1262.58 487.856C1261.25 486.519 1260.39 484.781 1260.15 482.911C1259.91 481.041 1260.29 479.144 1261.24 477.513C1263.38 473.522 1265.79 474.008 1269.66 474.252C1276.96 474.714 1283.92 474.081 1286.69 483.086C1288.49 488.853 1284.48 496.3 1278.27 496.154Z" fill="#B0D9E8"/>
<path d="M602.073 1180.21C602.754 1183.77 605.164 1186.42 604.093 1189.51C603.509 1191.19 603.314 1193.77 600.224 1193.77C598.907 1193.81 597.614 1193.4 596.549 1192.63C595.483 1191.86 594.705 1190.75 594.334 1189.48C593.336 1186.73 595.624 1186.64 597.571 1186.27C600.491 1185.76 599.128 1182.06 602.073 1180.21Z" fill="#B0D9E8"/>
<path d="M766.39 1562.04C764.832 1561.82 763.396 1562.16 763.25 1560.44C763.124 1559.87 763.19 1559.29 763.437 1558.77C763.684 1558.25 764.098 1557.82 764.613 1557.57C766.828 1556.2 769.359 1556.81 771.452 1556.03C785.508 1551.27 799.315 1545.8 812.823 1539.65C836.185 1528.29 859.499 1516.85 883.032 1505.83C897.147 1499.18 910.734 1491.47 923.673 1482.76C942.534 1470.13 962.611 1459.59 980.912 1445.91C982.201 1444.96 983.759 1444.43 984.781 1445.47C986.485 1447.28 985.146 1448.93 983.71 1450.34C978.137 1455.89 971.055 1459.3 964.509 1463.36C948.204 1473.44 932.337 1484.22 916.056 1494.29C901.629 1502.82 886.728 1510.53 871.424 1517.36C853.634 1525.71 835.747 1533.94 818.225 1542.77C802.487 1550.84 785.88 1557.08 768.726 1561.39C767.777 1561.61 766.901 1561.9 766.39 1562.04Z" fill="#3A4453"/>
<path d="M763.883 1502.95C761.985 1502.2 759.381 1504.05 759.016 1500.98C758.651 1497.92 761.279 1498.94 762.837 1498.33C769.334 1495.9 775.759 1493.12 782.159 1490.37C798.373 1483.71 814.193 1476.13 829.541 1467.67C839.276 1462.17 850.178 1459.2 859.669 1453.19C875.293 1443.31 891.306 1433.86 906.541 1423.57C923.576 1412.2 940.611 1401.23 956.478 1388.23C957.963 1387.02 959.812 1386.46 960.81 1388.23C961.808 1390.01 960.494 1391.93 958.912 1393.1C950.443 1399.4 942.023 1405.83 933.359 1411.84C922.967 1419.14 912.454 1426.08 901.722 1432.82C885.904 1442.84 870.596 1453.96 853.829 1462.02C835.747 1470.71 818.25 1480.59 799.852 1488.57C789.193 1493.17 778.412 1497.5 767.679 1501.91C766.436 1502.33 765.168 1502.68 763.883 1502.95V1502.95Z" fill="#3A4453"/>
<path d="M910.532 1357.09C910.264 1358.45 910.264 1359.2 909.145 1359.79C893.399 1368.18 880.233 1380.47 864.658 1389.14C849.833 1397.02 834.365 1403.62 818.42 1408.87C801.993 1414.64 785.469 1420.12 769.602 1427.37C762.522 1430.96 754.967 1433.52 747.164 1434.99C745.266 1435.25 742.857 1438.1 741.737 1435.11C740.618 1432.11 743.246 1430.99 746.239 1430.36C753.916 1428.36 761.369 1425.58 768.483 1422.06C789.168 1413.11 810.924 1406.95 831.756 1398.56C845.708 1393.26 859.075 1386.53 871.643 1378.48C881.937 1371.59 891.112 1362.9 902.233 1357.38C904.788 1356.14 907.928 1353.24 910.532 1357.09Z" fill="#3A4453"/>
<path d="M1030.51 1472.02C1028.29 1475.42 1025.85 1478.68 1023.21 1481.76C1008.29 1496.82 995.099 1514.2 975.46 1523.47C963.73 1528.99 953.314 1536.95 940.927 1541.11C939.321 1541.65 937.569 1542.7 936.766 1540.53C935.963 1538.36 937.301 1537 939.321 1536.08C958.449 1527.14 977.967 1518.24 993.931 1504.44C1003.68 1496.08 1012.55 1486.73 1020.38 1476.55C1022.1 1474.26 1024.05 1472.15 1026.2 1470.27C1027.54 1469.1 1029.61 1468.54 1030.51 1472.02Z" fill="#3A4453"/>
<path d="M955.261 1705.43C955.075 1706.76 954.543 1708.02 953.719 1709.09C952.895 1710.15 951.808 1710.98 950.565 1711.49C941.098 1716.36 934.551 1724.8 926.764 1731.64C915.18 1741.76 902.16 1749.38 889.019 1757C886.39 1758.51 884.152 1760.6 881.45 1762.01C879.674 1762.94 877.167 1763.93 875.95 1761.28C874.733 1758.63 877.605 1758.31 879.017 1757.41C890.406 1750.23 902.209 1743.61 913.087 1735.85C921.201 1729.89 928.804 1723.26 935.817 1716.04C940.441 1711.47 946.354 1708.74 950.905 1704.26C952.317 1702.97 954.556 1702.49 955.261 1705.43Z" fill="#3A4453"/>
<path d="M690.875 770.298C703.043 769.422 713.313 775.822 724.459 780.3C740.082 786.554 755.512 788.428 771.695 782.369C777.222 780.325 783.081 779.326 788.973 779.424C800.299 780.082 811.589 777.616 821.608 772.294C823.687 771.168 825.997 770.534 828.36 770.441C830.723 770.348 833.075 770.799 835.236 771.758C843.34 774.752 852.271 774.192 860.521 777.331C872.957 782.052 878.116 792.833 874.636 805.95C871.667 817.12 864.05 825.954 860.862 837.173C858.112 846.907 855.995 854.451 862.273 864.259C870.742 877.498 869.039 892.659 865.194 907.82C863.98 913.54 861.576 918.94 858.138 923.669C854.7 928.399 850.305 932.352 845.238 935.271C842.593 937.314 840.096 939.542 837.767 941.939C821.827 954.788 797.637 947.439 789.095 926.899C784.111 914.471 781.63 901.181 781.794 887.792C781.794 873.385 780.358 872.338 766.56 866.644C758.517 863.557 750.241 861.115 741.81 859.343C733.974 857.518 725.043 856.544 717.012 861.777C711.717 865.196 705.988 867.889 699.977 869.783C681.846 875.77 659.603 865.646 656.05 843.695C655.101 837.781 653.008 831.989 651.524 826.125C649.09 816.731 652.205 809.26 656.196 801.521C656.513 800.913 657.243 800.109 657.048 799.671C653.252 790.083 658.557 784.121 664.982 778.159C672.185 771.661 680.532 771.052 690.875 770.298Z" fill="#3A4453"/>
<path d="M1485.59 1761.21C1479.75 1760.48 1473.93 1761.21 1467.92 1760.19C1452.15 1757.24 1447.29 1738.41 1456.34 1726.24C1466.39 1712.76 1485.01 1705.58 1497.15 1710.93C1503.38 1713.68 1509.61 1714.14 1515.99 1715.39C1523.65 1716.58 1530.56 1720.65 1535.33 1726.76C1540.09 1732.87 1542.35 1740.57 1541.64 1748.29C1541.59 1749.49 1541.2 1750.65 1540.51 1751.64C1539.82 1752.62 1538.86 1753.39 1537.74 1753.84C1533.75 1755.69 1529.42 1758.24 1525.33 1758.09C1511.9 1757.61 1499.05 1763.18 1485.59 1761.21Z" fill="#3A4453"/>
<path d="M1421.73 1787.25C1431.15 1787.25 1440.62 1796.54 1441.98 1804.16C1443.15 1810.63 1437.97 1816.74 1428.79 1819.52C1415.19 1823.6 1402.87 1824.55 1390.75 1816.23C1389.83 1815.62 1388.83 1815.65 1388.47 1814.19C1386.98 1808.37 1394.77 1797.71 1400.88 1797.35C1402.8 1797.35 1404.58 1797.88 1406.26 1795.28C1410.3 1789.02 1417.16 1787.73 1421.73 1787.25Z" fill="#3A4453"/>
<path d="M1517.2 1793.99C1515.77 1788.17 1518.66 1783.45 1521.37 1778.75C1524.07 1774.06 1540.83 1772.48 1544.31 1776.83C1544.46 1777 1544.61 1777.32 1544.53 1777.49C1541.93 1784.42 1549.13 1786.86 1551.06 1791.7C1553.12 1797.03 1550.01 1811 1545.68 1814.09C1538.77 1818.96 1532.36 1815.18 1526.82 1811.53C1520.85 1807.62 1515.35 1802.6 1517.2 1793.99Z" fill="#3A4453"/>
<path d="M2629.09 931.45C2629.55 944.543 2622.11 953.742 2615.68 963.087C2612.59 967.541 2599.38 965.983 2592.05 960.897C2586.59 957.43 2581.58 953.302 2577.13 948.607C2572.82 943.427 2566.95 939.775 2560.39 938.192C2542.65 933.714 2536.05 919.502 2531.19 904.389C2530.2 901.275 2530.29 897.918 2531.45 894.864C2532.61 891.81 2534.78 889.24 2537.59 887.573C2543.84 883.85 2550.78 880.686 2558.18 884.677C2570.34 891.175 2581.39 899.497 2595.24 902.369C2599.11 903.172 2602.76 904.803 2606.85 904.803C2618.51 904.949 2624.13 908.915 2627.24 920.207C2628.26 924.052 2630.16 928.043 2629.09 931.45Z" fill="#3A4453"/>
<path d="M2584.68 862.994C2578.28 864.771 2572.51 860.415 2566.94 857.567C2558.71 853.382 2557.2 841.944 2562.63 832.526C2567.13 824.592 2576.65 822.207 2585.31 825.712C2593.39 828.997 2598.21 835.616 2603.73 841.506C2605.27 843.369 2606.24 845.634 2606.53 848.032C2606.82 850.431 2606.41 852.861 2605.36 855.036C2602.93 860.415 2596.97 862.167 2591.22 862.946C2589.05 863.1 2586.86 863.116 2584.68 862.994V862.994Z" fill="#3A4453"/>
<path d="M2663.72 889.108C2665.23 894.924 2662.16 900.449 2658 905.51C2656.62 907.202 2654.89 908.572 2652.93 909.524C2650.97 910.476 2648.82 910.988 2646.64 911.022C2644.46 911.057 2642.29 910.615 2640.3 909.725C2638.31 908.836 2636.53 907.522 2635.1 905.876C2631.92 901.966 2629.95 897.215 2629.42 892.202C2628.89 887.19 2629.84 882.132 2632.13 877.646C2635.71 870.102 2639.75 864.237 2648.66 866.427C2659.88 869.177 2663.72 875.431 2663.72 889.108Z" fill="#3A4453"/>
<path d="M2653.38 961.139C2642.84 962.502 2640.51 954.617 2642.53 945.881C2643.62 941.014 2646.03 936.804 2646.54 931.766C2646.95 927.848 2657.22 924.782 2660.85 927.459C2663.87 929.697 2667.13 932.326 2667.76 936.268C2668.53 943.304 2666.92 950.394 2663.21 956.418C2662.45 958.284 2661.02 959.8 2659.2 960.673C2657.39 961.545 2655.31 961.711 2653.38 961.139Z" fill="#3A4453"/>
<path d="M464.015 1000.37C465.28 994.751 470.099 992.341 476.523 994.799C484.992 998.036 489.641 1005.65 494.021 1012.76C497.014 1017.63 492.537 1023.2 486.72 1023.3C479.201 1023.44 473.165 1029.72 464.818 1027.82C458.904 1026.46 455.619 1022.96 455.278 1014.61C454.937 1006.26 457.712 1001.25 463.893 1000.23C467.787 1002.66 466.619 1005.29 464.331 1007.94C462.915 1009.28 462.069 1011.12 461.969 1013.07C461.869 1015.01 462.524 1016.93 463.796 1018.41C466.692 1022.27 470.415 1021.45 474.163 1019.79C476.327 1018.75 478.594 1017.93 480.928 1017.36C487.207 1016.04 486.599 1016.24 483.362 1011.08C479.079 1003.49 471.924 1001.44 464.015 1000.37Z" fill="#3A4453"/>
<path d="M466.984 1071.43C468.931 1071.12 470.829 1069.97 471.316 1072.6C471.446 1073.07 471.467 1073.56 471.377 1074.04C471.287 1074.52 471.089 1074.97 470.798 1075.36C470.506 1075.75 470.13 1076.07 469.696 1076.29C469.263 1076.51 468.785 1076.63 468.298 1076.64C464.451 1077.05 460.561 1076.56 456.939 1075.2C453.318 1073.84 450.065 1071.65 447.442 1068.81C443.135 1063.94 442.964 1056.83 445.617 1050.38C446.266 1049.12 447.199 1048.02 448.343 1047.17C448.586 1046.91 448.882 1046.7 449.211 1046.55C449.539 1046.41 449.894 1046.34 450.253 1046.34C450.612 1046.34 450.966 1046.41 451.295 1046.55C451.624 1046.7 451.919 1046.91 452.163 1047.17C452.966 1048.1 452.65 1049.29 452.163 1050.48C447.028 1062.62 453.891 1072.04 466.984 1071.43Z" fill="#3A4453"/>
<path d="M498.84 1092.17C498.475 1094.6 500.154 1098.15 496.552 1099.47C492.95 1100.78 489.981 1100.46 489.251 1095.72C489.251 1095.55 487.815 1095.72 487.231 1095.43C485.574 1094.72 484.235 1093.43 483.471 1091.8C482.707 1090.17 482.573 1088.32 483.094 1086.59C484.603 1081.6 489.373 1082.67 493.388 1082.46C497.793 1082.21 498.255 1085.21 498.693 1088.3C498.829 1089.58 498.878 1090.87 498.84 1092.17V1092.17Z" fill="#3A4453"/>
<path d="M465.645 1062.26C460.218 1062.65 456.738 1061.11 456.982 1055.25C457.128 1051.7 456.69 1047.73 462.141 1047.95C466.497 1047.95 471.072 1053.3 471.51 1057.68C472.094 1063.11 468.663 1062.45 465.645 1062.26Z" fill="#3A4453"/>
<path d="M507.479 1068.07C504.169 1068.36 501.784 1067.63 501.638 1063.2C501.638 1059.21 504.705 1057.44 506.724 1058.34C509.377 1059.48 514.853 1057 514.634 1062.69C514.488 1066.76 511.616 1068.27 507.479 1068.07Z" fill="#3A4453"/>
<path d="M482.826 1069.58C481.269 1069.12 479.103 1070.48 478.714 1067.8C478.446 1066.05 479.152 1065.22 481.026 1065.13C484.433 1064.93 484.554 1061.62 485.747 1059.53C485.954 1058.99 486.348 1058.54 486.856 1058.26C487.365 1057.99 487.955 1057.9 488.521 1058.02C490.225 1058.02 490.127 1059.41 490.176 1060.58C490.468 1065.91 488.107 1068.97 482.826 1069.58Z" fill="#3A4453"/>
<path d="M500.689 1036.36C502.49 1036.95 505.824 1036.36 506.067 1040.5C506.189 1042.42 504.34 1044.59 503.634 1043.32C501.2 1039.11 494.946 1048.04 494.581 1040.26C494.411 1036.63 497.063 1036.14 500.689 1036.36Z" fill="#3A4453"/>
<path d="M690.413 780.69C699.977 778.524 708.251 785.241 717.182 788.989C736.87 797.214 756.582 798.991 776.951 792.031C783.203 789.872 789.819 788.971 796.42 789.378C807.128 790.084 816.814 786.799 826.037 781.883C827.376 781.153 828.763 780.179 829.955 780.861C838.351 785.728 848.378 783.586 857.041 787.699C863.734 790.863 866.776 795.754 864.342 802.982C859.694 816.634 851.541 828.754 847.307 842.674C845.214 849.61 844.313 855.645 849.01 861.875C852.575 867.046 855.18 872.816 856.701 878.91C859.353 887.744 856.701 896.505 855.192 905.193C853.342 916.314 847.404 924.272 836.38 928.02C833.654 928.945 832.267 931.767 829.493 933.252C819.759 938.46 806.52 932.303 801.92 921.327C796.865 909.12 794.428 895.988 794.765 882.779C795.057 868.64 790.288 858.979 775.613 854.89C769.832 853.402 764.143 851.574 758.578 849.415C745.534 843.964 732.271 846.3 719.105 845.545C718.165 845.525 717.231 845.693 716.357 846.04C715.484 846.387 714.688 846.906 714.019 847.565C707.293 853.108 699.149 856.657 690.51 857.811C683.696 858.589 678.099 853.795 675.032 847.882C669.459 837.077 665.614 825.979 667.391 813.106C668.267 806.876 668.097 800.938 670.189 794.489C673.888 783.513 676.03 780.69 690.413 780.69Z" fill="#9CE084"/>
<path d="M1486.03 1755.46C1481.02 1754.81 1476.3 1755.78 1470.99 1753.03C1457.92 1746.07 1455.8 1740.45 1464.71 1729.2C1470.92 1721.39 1479.8 1718.35 1489.22 1716.55C1489.92 1716.34 1490.67 1716.35 1491.36 1716.6C1492.06 1716.84 1492.65 1717.3 1493.06 1717.91C1496.69 1724.07 1502.24 1723.61 1508.08 1722.41C1519.03 1720.13 1535.41 1732.88 1533.9 1743.59C1533.02 1749.6 1525.92 1752.32 1520.76 1752.25C1509.03 1752.08 1497.78 1756.56 1486.03 1755.46Z" fill="#967057"/>
<path d="M1406.6 1803.16C1408.72 1802.99 1410.85 1803.42 1412.75 1804.38C1414.38 1805.18 1416.45 1804.38 1415.84 1801.94C1414.09 1795.15 1419.74 1795.96 1422.93 1795.57C1428.91 1794.84 1431.27 1799.83 1433 1804.28C1434.51 1808.17 1432.49 1810.61 1428.3 1811.95C1419.79 1814.67 1411.59 1818.71 1402.36 1814.65C1400.1 1813.62 1395.74 1812.77 1396.52 1811.02C1397.88 1807.98 1399.1 1803.6 1403.82 1803.09C1404.75 1803.05 1405.67 1803.08 1406.6 1803.16V1803.16Z" fill="#967057"/>
<path d="M1538.55 1782.01C1531.49 1784.11 1534.21 1787.46 1537.57 1789.56C1544.58 1793.91 1545.39 1798.15 1540.83 1805.42C1538.4 1809.37 1537.38 1808.95 1534.29 1807.52C1524.12 1802.65 1521.66 1795.88 1526.99 1786.59C1529.08 1782.74 1531.54 1781.75 1538.55 1782.01Z" fill="#967057"/>
<path d="M2539.36 902.371C2538.37 897.504 2540.73 895.07 2544.77 893.415C2546.5 892.506 2548.44 892.087 2550.4 892.202C2552.35 892.318 2554.23 892.965 2555.84 894.072C2567.98 901.404 2581.08 906.991 2594.78 910.669C2597.93 911.627 2601.21 912.127 2604.51 912.154C2614.93 912.154 2623.81 923.081 2621.84 933.618C2620.31 941.868 2615.68 948.731 2610.94 955.277C2606.6 961.215 2601.2 955.812 2596.34 954.839C2594.09 954.101 2592.12 952.701 2590.69 950.824C2581.4 940.125 2569.48 932.038 2556.11 927.364C2545.18 923.421 2542.16 912.47 2539.36 902.371Z" fill="#FFDA74"/>
<path d="M2587.11 856.012C2582.88 856.547 2579.37 854.771 2575.72 852.994C2564.63 847.567 2564.8 844.087 2572.92 833.793C2573.62 833.099 2574.47 832.583 2575.41 832.286C2576.34 831.99 2577.33 831.922 2578.3 832.09C2586.46 834.903 2593.44 840.38 2598.11 847.64C2600.3 850.828 2597.26 853.87 2594.12 855.136C2591.84 855.755 2589.48 856.05 2587.11 856.012V856.012Z" fill="#FFDA74"/>
<path d="M2656.45 887.498C2657.13 890.248 2655.45 892.365 2654.38 894.799C2652.43 899.058 2649.02 903.608 2644.81 903C2639.75 902.246 2638 896.308 2636.85 891.538C2635.71 886.768 2638.14 882.631 2640.7 878.713C2646.18 883.385 2645.93 875.963 2648.49 875.257C2649.8 875.231 2651.08 875.616 2652.16 876.358C2653.24 877.1 2654.06 878.162 2654.5 879.394C2655.25 881.925 2657.15 884.432 2656.45 887.498Z" fill="#FFDA74"/>
<path d="M2659.39 940.213C2659.29 944.072 2658.46 947.877 2656.96 951.432C2656.18 953.865 2654.72 955.155 2651.97 954.352C2648.51 953.354 2649.22 951.505 2650.41 948.974C2651.67 945.973 2652.75 942.901 2653.65 939.775C2654.23 938.071 2652.45 934.907 2656.3 935.248C2659.34 935.637 2659.56 938.144 2659.39 940.213Z" fill="#FFDA74"/>
<path d="M464.015 1000.37C477.229 995.845 481.902 1007.06 488.618 1014.1C490.395 1015.95 489.519 1019.26 485.82 1018.96C480.953 1018.45 477.156 1020.5 473.116 1022.42C471.427 1023.49 469.383 1023.84 467.432 1023.41C465.481 1022.98 463.78 1021.79 462.701 1020.11C459.488 1015.68 458.101 1010.59 462.944 1006.99C466.278 1004.56 465.816 1002.9 464.137 1000.3L464.015 1000.37Z" fill="#FEFEFE"/>
<path d="M493.194 1095.43C492.926 1092.46 488.643 1091.1 490.2 1087.74C490.525 1087.45 490.922 1087.25 491.351 1087.16C491.779 1087.07 492.222 1087.11 492.634 1087.25C495.579 1089.49 494.581 1092.43 493.194 1095.43Z" fill="#FEFEFE"/>
</g>
<defs>
<radialGradient id="paint0_radial" cx="0" cy="0" r="1" gradientUnits="userSpaceOnUse" gradientTransform="translate(925.923 253.43) rotate(97.1979) scale(1835.03 2854.25)">
<stop offset="0.248856" stop-color="#7571A5"/>
<stop offset="1" stop-color="#D2D2D4"/>
</radialGradient>
<clipPath id="clip0">
<rect width="2298" height="1474" fill="white" transform="translate(405 391)"/>
</clipPath>
</defs>
</svg>
