<svg width="1439" height="954" viewBox="0 0 1439 954" fill="none" xmlns="http://www.w3.org/2000/svg">
<rect width="1441" height="954" fill="url(#paint0_radial)"/>
<g clip-path="url(#clip0)">
<path d="M757.387 517.723C757.772 524.415 757.23 531.127 755.777 537.671C754.534 543.326 753.335 549.136 750.636 554.354C747.663 560.147 745.496 566.35 741.675 571.706C736.132 579.418 730.426 586.958 723.401 593.359C716.54 599.455 709.047 604.798 701.048 609.297C694.828 612.896 688.146 615.295 681.6 618.114C676.763 620.176 671.908 622.204 667.036 624.198C665.442 624.841 663.712 625.166 662.127 625.826C661.09 626.263 659.428 626.083 659.557 628.122C659.608 628.808 658.366 629.116 657.894 628.756C654.999 626.511 652.309 628.705 649.627 629.142C642.927 630.247 636.193 631.31 629.434 630.77C620.01 630.008 610.585 629.322 601.358 626.966C595.661 625.416 590.058 623.542 584.575 621.353C578.857 619.101 573.296 616.47 567.928 613.478C561.429 609.901 555.525 605.337 550.425 599.948C547.658 597.061 544.557 594.541 541.858 591.551C538.817 588.124 536.855 584.148 534.353 580.463C532.246 577.215 530.329 573.848 528.613 570.378C525.97 565.201 523.929 559.738 522.53 554.097C521.236 549.016 519.334 544.08 517.981 539.007C516.901 534.972 515.633 530.987 514.914 526.848C514.374 523.772 513.2 520.85 512.823 517.706C512.129 511.87 510.656 506.164 510.253 500.243C509.953 495.521 510.022 490.817 509.842 486.113C509.585 479.686 511.555 473.645 513.269 467.621C514.851 461.592 517.152 455.775 520.123 450.295C522.948 445.336 526.162 440.608 529.735 436.157C533.162 431.958 537.069 428.205 540.17 423.826C542.363 420.725 545.422 418.685 547.984 416.115C550.828 413.236 553.775 410.468 556.902 407.863C559.704 405.532 562.291 402.97 565.47 401.154C569.522 398.84 573.874 397.203 578.149 395.395C583.072 393.368 588.187 391.843 593.416 390.845C599.234 389.672 604.982 388.189 610.954 387.718C615.88 387.324 620.858 386.638 625.724 386.93C632.835 387.367 639.98 387.272 647.04 389.157C656.155 391.608 665.297 393.827 673.984 397.615C680.058 400.254 686.458 402.25 692.224 405.429C697.03 408.069 701.965 410.494 706.788 413.141C712.786 416.432 717.541 421.153 722.57 425.532C726.545 428.959 729.698 433.372 732.619 437.828C737.186 444.811 741.906 451.718 745.205 459.412C747.364 464.442 749.094 469.695 750.816 474.836C752.058 478.572 753.104 482.377 754.012 486.207C755.242 491.451 756.087 496.778 756.539 502.145C756.942 507.346 757.67 512.496 757.387 517.723Z" fill="#3A4453"/>
<path d="M213.788 594.55C214.833 588.834 224.925 574.379 228.155 570.506C232.893 564.919 238.813 560.729 244.767 556.727C250.21 553.175 255.965 550.126 261.962 547.619C266.511 545.639 271.129 544.14 275.807 542.623C277.88 541.955 279.851 542.76 281.881 542.34C288.487 540.987 295.212 541.586 301.809 541.981C308.373 542.48 314.838 543.872 321.025 546.119C324.846 547.447 328.539 548.981 332.223 550.575C336.884 552.597 340.79 555.845 344.963 558.63C349.583 561.867 353.757 565.699 357.377 570.026C357.719 570.42 358.045 571.097 358.816 570.583C360.804 569.255 363.1 568.561 365.233 567.455C367.606 566.221 369.791 563.411 373.372 565.373C374.297 565.887 376.379 564.422 377.878 563.754C384.674 560.853 391.797 558.793 399.091 557.618C408.112 556.002 417.299 555.527 426.438 556.205C435.098 556.843 443.492 559.483 450.958 563.916C456.793 567.404 462.344 571.2 466.808 576.341C470.175 580.214 473.156 584.327 473.336 589.888C473.448 593.11 471.409 594.952 469.669 596.932C463.304 603.995 455.537 609.654 446.863 613.547C442.434 615.603 437.944 617.634 433.575 619.802C429.617 621.773 425.53 623.563 421.683 625.8C416.397 628.85 410.7 630.984 405.157 633.469C395.784 637.659 386.095 641.087 376.885 645.619C376.351 645.841 375.874 646.181 375.49 646.612C375.106 647.044 374.824 647.557 374.666 648.113C371.599 659.407 365.61 669.175 359.09 678.755C354.576 685.218 349.681 691.407 344.431 697.289C342.8 699.096 340.995 700.737 339.043 702.19C336.207 704.384 334.348 707.554 331.281 709.542C324.41 714.06 316.934 717.58 309.074 719.996C298.073 723.312 286.704 723.312 275.438 722.687C267.456 722.103 259.688 719.83 252.649 716.02C245.795 712.473 239.293 708.6 233.621 703.219C230.447 700.274 227.505 697.088 224.822 693.69C224.284 692.938 223.537 692.359 222.674 692.026C221.811 691.693 220.869 691.619 219.965 691.813C213.111 692.816 206.257 694.084 199.3 694.753C194.331 695.232 189.413 696.089 184.419 696.518C178.535 696.951 172.631 697.052 166.736 696.818C158.794 696.586 150.706 696.329 143.381 692.756C137.024 689.646 132.509 684.753 131.147 677.495C129.913 670.957 131.147 664.642 132.8 658.335C134.145 653.194 137.367 649.304 140.331 645.148C142.502 642.166 144.964 639.408 147.682 636.914C150.928 633.799 154.405 630.935 158.083 628.345C161.724 625.826 164.936 622.655 168.312 619.776C173.131 615.701 178.568 612.418 184.419 610.051C186.884 608.926 189.254 607.602 191.504 606.092C195.419 603.718 199.669 602.287 203.918 600.831C205.292 600.308 206.631 599.698 207.928 599.005C208.409 598.71 208.96 598.545 209.525 598.527C210.089 598.509 210.649 598.639 211.149 598.903C212.485 598.294 213.359 598.046 213.376 597.592L213.788 594.55Z" fill="#3A4453"/>
<path d="M211.449 602.048C210.832 601.971 209.735 602.168 209.358 601.808C208.81 601.234 208.69 601.851 208.45 602.022C206.454 603.393 204.166 603.933 201.87 604.593C198.333 605.68 194.981 607.301 191.932 609.4C188.128 611.927 183.862 613.504 179.844 615.561C175.68 617.694 172.219 620.745 168.569 623.564C164.225 626.906 160.284 630.753 155.718 633.846C152.632 636.066 149.797 638.614 147.262 641.447C143.055 645.842 139.2 650.615 136.63 656.151C134.996 659.924 133.953 663.927 133.537 668.018C133.02 671.221 133.119 674.493 133.828 677.658C135.636 684.787 140.305 689.055 147.065 691.368C151.974 693.082 157.037 693.545 162.186 694.007C167.56 694.454 172.957 694.563 178.344 694.333C183.744 694.109 189.123 693.516 194.442 692.559C198.512 691.848 202.667 691.462 206.771 690.845C211.294 690.203 215.844 689.723 220.804 689.132C218.234 685.704 215.861 682.534 214.284 678.849C213.985 678.155 213.428 677.624 212.125 677.924C205.768 679.346 199.377 680.691 192.935 681.591C184.997 682.796 176.893 682.255 169.186 680.006C164.988 678.746 160.995 677.435 157.448 674.796C153.585 671.96 151.897 668.027 151.408 663.451C150.957 660.131 151.348 656.75 152.546 653.62C153.744 650.491 155.71 647.713 158.262 645.543C160.456 643.563 162.272 641.164 164.345 639.03C168.468 634.918 173.024 631.263 177.933 628.131C181.567 625.848 185.006 623.269 188.214 620.419C193.157 615.835 198.957 612.416 206.043 612.005C208.013 611.885 210.54 606.975 211.072 604.241L211.449 602.048Z" fill="#D9A672"/>
<path d="M371.453 364.085C372.215 370.769 371.076 377.735 369.354 384.513C368.343 388.48 367.949 392.867 365.027 396.218C364.791 396.446 364.64 396.749 364.599 397.075C364.77 402.293 360.238 404.855 358.156 408.771C356.074 412.687 353.016 415.575 350.283 418.779C346.978 422.535 343.026 425.666 338.614 428.025C333.103 431.219 327.378 434.028 321.479 436.431C314.523 439.096 307.463 441.461 300.395 443.826C294.082 445.936 287.614 447.552 281.05 448.659C274.837 449.564 268.521 449.491 262.33 448.444C256.716 447.687 251.182 446.425 245.795 444.674C242.12 443.432 238.393 442.429 234.863 440.39C231.333 438.35 227.718 436.38 224.043 434.563C220.666 432.735 217.536 430.483 214.73 427.862C208.401 422.467 202.495 416.594 197.064 410.296C191.632 403.87 187.811 396.466 184.598 388.823C183.013 385.036 180.949 381.463 179.792 377.452C178.079 371.531 176.22 365.696 175.251 359.569C174.009 351.695 174.129 343.786 174.395 335.894C174.549 331.061 175.671 326.271 176.768 321.507C178.421 314.378 179.938 307.206 183.022 300.548C184.735 296.846 186.312 293.076 188.402 289.511C190.604 285.758 192.506 281.799 195.111 278.321C197.608 274.902 200.737 271.993 204.329 269.752C208.467 267.224 212.554 264.611 216.657 262.04C219.939 259.992 223.957 259.152 227.581 257.636C230.777 256.29 234.281 256.779 237.51 255.673C238.277 255.421 239.109 255.448 239.858 255.749C240.607 256.05 241.226 256.606 241.606 257.319C242.325 258.947 243.156 258.33 243.859 257.927C246.619 256.487 249.584 255.479 252.649 254.936C255.468 254.32 258.303 254.44 261.088 254.2C266.014 253.771 270.983 253.12 275.961 253.557C283.183 254.191 290.525 254.414 297.576 255.759C302.599 256.638 307.456 258.286 311.978 260.643C316.373 263.008 321.299 264.165 325.489 267.078C328.547 269.203 331.546 271.363 334.459 273.702C339.599 277.781 342.966 283.41 347.044 288.415C350.399 292.652 353.184 297.31 355.329 302.27C357.479 307.026 359.844 311.696 361.001 316.931C361.711 319.457 362.637 321.916 363.768 324.283C365.748 329.489 367.365 334.826 368.608 340.255C369.8 344.793 370.724 349.397 371.376 354.043C371.796 357.204 371.453 360.461 371.453 364.085Z" fill="#3A4453"/>
<path d="M528.921 732.027C523.781 732.275 519.094 730.579 514.357 728.779C511.49 727.643 508.418 727.116 505.337 727.233C502.256 727.35 499.232 728.107 496.459 729.456C490.342 732.387 484.097 735.223 477.234 734.991C466.2 734.623 457.923 727.605 456.501 716.286C455.173 705.806 461.522 696.895 471.923 693.767C479.299 691.565 484.165 686.21 488.149 679.869C489.648 677.487 490.677 674.727 493.29 673.074C494.032 672.563 494.882 672.231 495.774 672.105C503.091 671.523 510.459 670.974 517.749 671.668C523.364 672.214 528.688 674.422 533.042 678.009C536.469 680.786 540.547 682.774 544.248 685.241C546.847 686.909 549.073 689.097 550.784 691.668C552.496 694.238 553.658 697.135 554.195 700.177C554.804 703.283 555.134 706.437 555.18 709.602C555.357 712.023 554.603 714.419 553.073 716.303C548.017 722.207 542.029 727.244 535.347 731.213C533.316 732.421 531.089 732.001 528.921 732.027Z" fill="#3A4453"/>
<path d="M935.897 404.94C935.897 410.373 935.897 415.026 934.038 419.456C932.128 424.014 928.618 427.717 924.168 429.867C922.738 430.586 921.924 431.795 920.656 432.574C913.682 436.859 906.28 437.716 898.124 437.364C889.625 437.004 883.148 432.677 876.705 428.624C868.734 423.744 862.915 416.016 860.427 407.005C858.406 400.55 857.67 393.761 858.26 387.023C859.116 379.003 862.826 372.165 869.723 367.469C873.869 364.641 878.504 362.791 883.088 360.82C890.798 357.512 898.509 358.626 906.374 359.963C912.551 361.008 916.843 364.916 921.435 368.532C922.678 369.508 923.843 370.58 925.042 371.616C930.123 376.004 932.282 382.01 933.747 388.205C935.1 393.904 936.385 399.713 935.897 404.94Z" fill="#3A4453"/>
<path d="M152.685 420.852C158.956 420.227 163.951 423.946 168.826 427.879C170.539 429.233 172.09 430.749 173.701 432.215C179.458 437.45 180.066 444.057 178.696 451.177C177.839 455.419 176.459 459.592 173.692 462.831C170.805 466.258 167.558 469.223 162.983 470.868C157.649 472.83 151.776 472.735 146.508 470.602C141.959 468.889 137.084 467.415 133.374 464.039C129.467 460.508 128.559 455.581 127.48 450.723C125.664 442.583 129.193 436.507 134.745 431.126C134.985 430.895 135.396 430.595 135.37 430.381C134.831 426.096 138.146 425.342 140.931 423.62C144.495 421.426 148.17 420.784 152.685 420.852Z" fill="#3A4453"/>
<path d="M409.535 431.041C405.148 431.221 401.653 428.959 397.72 429.447C397.55 429.469 397.377 429.451 397.215 429.395C397.053 429.338 396.906 429.245 396.786 429.122C396.667 428.999 396.577 428.85 396.525 428.686C396.473 428.522 396.46 428.349 396.487 428.179C396.475 428.008 396.502 427.837 396.564 427.678C396.627 427.519 396.724 427.376 396.848 427.258C396.973 427.141 397.122 427.053 397.284 427C397.447 426.948 397.619 426.932 397.789 426.954C400.359 427.048 403.024 426.62 405.594 427.211C406.271 427.365 406.922 427.631 407.504 427.211C408.712 426.422 410.657 427.699 411.265 426.422C412.077 424.519 412.552 422.49 412.671 420.424C412.833 418.599 413.527 416.843 413.27 414.958C413.242 414.789 413.253 414.615 413.302 414.451C413.351 414.287 413.438 414.137 413.554 414.012C413.671 413.887 413.815 413.79 413.976 413.73C414.136 413.669 414.308 413.647 414.478 413.664C415.275 413.664 415.626 414.126 415.789 414.906C416.4 417.21 416.875 419.547 417.211 421.907C417.305 423.149 418.693 423.569 418.462 424.949C418.351 425.583 419.173 425.103 419.593 424.949C421.675 424.023 423.765 423.124 425.839 422.19C426.927 421.693 428.272 421.273 428.88 422.412C429.488 423.552 429.086 424.64 427.629 425.403C425.59 426.457 423.825 428.016 421.838 429.182C420.39 430.038 420.33 431.024 420.981 432.301C421.839 434.172 422.841 435.974 423.979 437.69C424.347 438.187 424.612 438.752 424.759 439.352C424.907 439.952 424.933 440.576 424.836 441.186C424.768 441.838 425.384 442.832 424.296 443.114C423.208 443.397 422.017 443.286 421.675 442.189C420.929 439.807 418.702 438.65 417.485 436.645C416.046 434.289 414.521 434.297 412.988 436.534C411.668 438.47 410.143 440.21 408.661 442.009C407.976 442.866 407.573 444.151 406.245 443.5C404.917 442.849 405.44 441.503 405.62 440.51C406.302 437.131 407.632 433.915 409.535 431.041Z" fill="#3A4453"/>
<path d="M477.902 361.831C476.403 362.036 475.915 361.419 475.709 359.877C475.349 357.195 475.264 354.47 474.278 351.865C472.694 347.658 470.149 346.218 465.711 347.264C464.014 347.641 462.298 347.927 460.571 348.121C459.645 348.241 458.626 348.241 458.472 346.93C458.343 345.85 458.849 345.464 459.911 345.002C462.657 343.705 465.245 342.095 467.622 340.203C470.774 337.855 471.22 334.205 472.154 330.778C472.676 328.884 472.419 326.93 472.805 325.079C472.985 324.223 472.805 322.603 474.518 322.706C475.786 322.783 476.035 323.974 476.232 324.891C476.951 328.618 479.248 331.909 479.427 335.73C479.573 338.978 481.878 339.646 484.174 339.852C486.144 340.023 488.346 340.709 490.248 339.124C490.659 338.781 491.559 338.901 492.219 338.969C492.878 339.038 494.061 338.404 494.069 339.903C494.069 340.854 494.069 341.617 492.853 342.037C489.117 343.382 485.784 345.559 482.383 347.572C481.817 347.912 481.336 348.378 480.98 348.934C480.623 349.49 480.4 350.12 480.327 350.777C479.753 353.973 479.059 357.161 479.333 360.443C479.436 361.591 478.999 362.036 477.902 361.831Z" fill="#3A4453"/>
<path d="M825.104 301.911C824.17 302.065 823.904 300.788 823.613 299.966C822.446 297.074 821.012 294.297 819.329 291.671C818.361 290.034 817.11 289.735 815.44 289.615C812.39 289.383 809.443 290.352 806.401 290.172C805.356 290.112 804.396 290.172 804.225 288.723C804.062 287.395 804.808 287.01 805.784 286.607C809.802 284.893 813.889 283.308 818.207 282.725C820.537 282.408 821.128 280.892 821.463 279.298C822.174 275.87 822.953 272.443 822.568 268.904C822.474 268.047 822.422 267.122 823.485 266.822C824.547 266.522 825.104 267.336 825.498 268.03C827.494 271.535 829.782 274.885 831.187 278.698C832.146 281.217 834.031 281.86 836.327 282.014C837.184 282.066 838.04 281.937 838.897 282.014C839.874 282.143 841.176 282.391 841.228 283.437C841.223 283.941 841.053 284.43 840.744 284.828C840.434 285.226 840.002 285.511 839.514 285.639C835.565 286.59 833.08 290.129 829.285 291.38C828.885 291.536 828.551 291.822 828.334 292.192C828.118 292.562 828.033 292.995 828.094 293.419C828.239 295.433 827.434 297.352 827.537 299.417C827.588 300.471 827.16 301.757 825.104 301.911Z" fill="#3A4453"/>
<path d="M886.215 559.503C884.107 559.186 882.265 558.877 880.415 558.646C879.241 558.5 878.067 557.892 878.205 556.847C878.331 556.307 878.645 555.83 879.091 555.5C879.537 555.171 880.085 555.01 880.638 555.047C882.488 555.107 884.356 554.987 886.215 555.047C887.929 555.141 889.094 554.67 889.505 552.871C889.646 552.398 889.86 551.95 890.139 551.543C891.364 549.392 893.412 549.195 894.645 551.268C895.879 553.342 896.959 554.773 899.649 553.573C900.42 553.222 901.859 553.102 902.262 554.362C902.742 555.87 901.259 556.315 900.351 556.461C898.278 556.795 898.364 557.721 899.109 559.229C899.64 560.246 900.024 561.334 900.248 562.459C900.394 563.316 900.78 564.541 899.966 565.073C899.152 565.604 897.952 565.004 897.233 564.344C895.793 563.042 894.02 562.382 892.349 561.542C889.968 560.36 888.631 561.045 888.134 563.702C887.8 565.493 886.421 564.824 885.855 564.49C883.611 563.222 883.696 561.525 886.215 559.503Z" fill="#3A4453"/>
<path d="M770.667 354.703C770.89 359.176 768.174 364.197 764.404 365.08C761.328 365.808 759.521 364.823 757.61 362.818C753.326 358.319 752.641 352.192 756.025 347.394C758.03 344.532 760.206 344.103 763.427 345.749C765.567 346.876 767.578 348.232 769.425 349.793C771.061 351.113 770.615 352.972 770.667 354.703Z" fill="#3A4453"/>
<path d="M435.246 232.709C432.547 231.852 429.051 230.738 426.353 228.528C424.742 227.208 424.493 224.449 425.11 222.204C425.637 220.726 426.345 219.318 427.218 218.014C427.501 217.517 427.998 216.848 428.46 216.797C431.716 216.446 435.091 215.452 438.236 216.403C441.38 217.354 442.991 220.01 443.616 223.258C444.387 227.174 440 232.641 435.246 232.709Z" fill="#3A4453"/>
<path d="M804.774 544.432C806.067 544.337 807.155 544.32 808.072 545.4C808.989 546.48 809.469 544.612 810.642 544.894C813.949 545.751 815.98 548.785 815.431 552.718C815.19 554.77 814.31 556.695 812.916 558.22C811.521 559.745 809.683 560.794 807.661 561.218C806.373 561.527 805.027 561.503 803.751 561.147C802.475 560.792 801.31 560.117 800.367 559.187C799.424 558.257 798.734 557.101 798.361 555.83C797.988 554.559 797.945 553.213 798.237 551.921C798.683 550.346 799.282 548.819 800.027 547.362C800.961 545.357 802.332 543.909 804.774 544.432Z" fill="#3A4453"/>
<path d="M669.024 688.72C668.97 686.793 669.62 684.913 670.854 683.431C672.087 681.95 673.819 680.97 675.723 680.674C676.135 680.597 676.494 680.674 676.649 680.083C677.403 677.289 679.065 678.815 679.904 679.723C683.682 683.802 683.665 690.425 680.153 694.752C679.555 695.475 678.763 696.01 677.87 696.296C676.977 696.581 676.021 696.605 675.115 696.363C671.251 695.626 668.972 692.61 669.024 688.72Z" fill="#3A4453"/>
<path d="M449.81 249.187C449.348 246.616 454.197 241.938 456.904 241.852C457.761 241.852 458.72 241.749 458.943 242.838C459.166 243.926 458.497 244.251 457.495 244.431C455.268 244.851 454.145 246.454 453.117 248.382C452.089 250.31 452.852 251.449 454.308 252.503C454.652 252.725 455.023 252.901 455.413 253.026C456.981 253.6 458.437 255.442 460.228 253.557C461.642 252.075 462.01 248.527 460.948 246.745C460.408 245.888 459.234 244.86 460.442 244.003C461.496 243.266 462.37 244.491 463.167 245.237C465.6 247.516 464.486 252.272 462.473 255.279C461.042 257.404 458.275 257.533 455.25 256.239C452.226 254.945 449.819 253.086 449.81 249.187Z" fill="#3A4453"/>
<path d="M701.485 250.198C700.568 250.352 699.772 251.809 698.829 250.549C698.041 249.47 699.078 248.759 699.686 248.03C703.61 243.206 709.273 243.386 713.659 246.642C713.977 246.912 714.19 247.285 714.259 247.696C715.116 250.669 714.499 253.626 713.702 256.411C712.905 259.195 709.933 258.775 707.765 259.058C705.597 259.341 702.899 257.225 702.076 255.177C701.425 253.583 701.519 251.912 701.485 250.198Z" fill="#3A4453"/>
<path d="M432.564 242.864C437.961 242.864 439.923 244.792 440.275 249.402C440.575 253.609 437.362 255.066 433.369 254.5C432.102 254.377 430.876 253.979 429.777 253.336C428.678 252.692 427.732 251.818 427.004 250.773C426.494 249.854 426.23 248.818 426.239 247.767C426.248 246.716 426.529 245.685 427.055 244.775C427.912 243.061 429.531 242.684 431.339 242.838C431.707 242.898 432.144 242.864 432.564 242.864Z" fill="#3A4453"/>
<path d="M200.131 496.507C200.559 498.717 199.78 500.483 198.092 501.391C196.173 502.428 194.245 501.434 192.523 500.346C192.052 500.046 191.666 499.489 191.161 499.352C189.619 499.035 189.448 499 190.15 497.843C190.604 497.089 189.979 496.815 189.919 496.318C189.756 494.819 190.261 493.696 191.829 494.245C193.063 494.69 192.977 494.245 193.149 493.388C193.56 491.263 195.085 490.869 197.013 490.98C198.94 491.091 199.754 492.274 200.097 493.893C200.202 494.761 200.214 495.637 200.131 496.507Z" fill="#3A4453"/>
<path d="M811.336 695.952C811.696 697.811 810.925 698.651 808.714 698.522C805.81 698.342 804.217 697.031 804.217 694.392C804.217 691.753 804.559 691.359 807.866 691.367C810.616 691.359 811.345 692.276 811.336 695.952Z" fill="#3A4453"/>
<path d="M794.296 607.969C795.267 608.031 796.184 608.438 796.882 609.117C797.58 609.796 798.011 610.702 798.099 611.671C798.099 612.014 798.099 612.425 797.731 612.477C797.333 612.542 796.926 612.454 796.592 612.228C796.336 611.882 795.98 611.623 795.573 611.485C795.166 611.347 794.726 611.337 794.313 611.457C792.95 611.791 792.111 610.866 792.034 609.486C791.948 607.832 793.182 607.952 794.296 607.969Z" fill="#3A4453"/>
<path d="M594.77 300.557C594.581 302.399 592.105 301.731 591.651 303.359C591.306 303.479 590.936 303.514 590.574 303.462C590.212 303.41 589.867 303.272 589.57 303.059C588.713 302.262 589.313 301.491 589.698 300.822C590.426 299.537 591.412 298.492 593.125 298.86C593.531 298.959 593.901 299.171 594.192 299.471C594.483 299.771 594.683 300.148 594.77 300.557Z" fill="#3A4453"/>
<path d="M660.054 588.466C662.093 589.229 664.089 589.854 665.982 590.711C672.485 593.65 678.499 597.061 682.26 603.641C684.059 606.778 686.604 609.691 690.074 611.208C686.013 612.973 681.943 614.678 677.917 616.495C671.763 619.254 665.472 621.697 659.068 623.812C656.798 624.575 655.701 623.418 654.982 622.099C652.411 617.42 648.333 614.284 644.401 610.865C639.374 606.64 634.658 602.058 630.29 597.155C625.793 591.928 622.708 586.058 620.01 579.812C617.251 573.377 615.323 566.633 613.387 559.984C611.399 553.129 607.141 547.73 604.28 541.501C602.023 536.417 598.826 531.806 594.856 527.911C592.705 525.846 590.135 524.338 588.002 522.256C584.532 518.828 581.559 514.844 578.064 511.45C572.797 506.248 568.137 500.464 564.176 494.21C560.569 488.649 556.234 483.585 552.01 478.452C549.757 475.71 547.941 472.625 545.576 469.926C544.008 468.127 542.398 466.37 540.71 464.699C536.358 460.415 531.44 456.765 526.608 453.029C525.477 452.172 523.275 452.172 523.284 450.63C523.284 449.456 524.818 448.359 525.486 447.125C527.921 442.897 530.792 438.937 534.053 435.309C537.077 431.735 540.05 428.077 543.477 424.778C544.111 424.152 544.788 424.409 545.516 424.683C551.231 426.808 556.8 429.311 561.28 433.492C564.51 436.508 567.552 439.764 570.61 442.986C573.532 446.054 576.11 449.387 578.843 452.583C582.005 456.268 584.541 460.475 587.591 464.254C591.325 469.011 595.773 473.161 600.776 476.559C602.952 478.007 604.811 479.986 606.936 481.631C610.621 484.397 614.475 486.93 618.476 489.215C623.094 491.897 626.761 495.855 630.282 499.883C635.045 505.315 639.706 510.765 645.952 514.758C649.884 517.251 653.705 520.045 657.689 522.47C660.593 524.261 664.054 525.1 667.113 526.609C670.908 528.459 675.115 528.425 679.107 529.479C681.47 530.198 683.662 531.391 685.55 532.984C688.831 535.503 692.558 537.139 696.037 539.239C702.034 542.838 707.928 546.214 712.572 551.809C716.855 556.95 719.888 562.769 723.846 568.03C725.483 570.206 726.982 572.486 728.61 574.662C729.184 575.416 729.852 576.521 731.06 575.587C732.268 574.653 731.283 573.634 730.803 572.94C728.764 570.035 726.588 567.233 724.609 564.268C722.227 560.721 720.102 557.019 717.429 553.617C712.811 547.756 707.782 542.546 701.151 539.05C697.304 537.045 693.552 534.86 689.722 532.821C689.004 532.511 688.404 531.979 688.009 531.304C689.491 530.739 690.579 531.93 691.641 532.315C694.809 533.558 698.186 534.183 701.588 534.158C702.492 534.261 703.381 534.471 704.235 534.783C705.092 534.954 706.146 535.854 706.583 534.706C707.02 533.558 705.641 533.386 704.827 533.189C700.915 532.265 697.076 531.059 693.338 529.582C689.788 528.238 686.068 527.395 682.286 527.08C680.941 526.943 680.273 526 679.716 524.938C679.552 524.596 679.274 524.323 678.929 524.166C678.584 524.009 678.196 523.979 677.831 524.081C676.888 524.209 677.283 524.852 677.291 525.417C677.291 526.703 676.349 526.077 675.869 525.974C669.282 524.492 662.982 521.942 657.218 518.425C652.797 515.752 648.488 512.89 644.144 510.097C639.8 507.303 636.356 503.242 633.083 499.266C628.86 493.931 623.708 489.403 617.876 485.898C612.796 482.951 608.247 479.206 603.543 475.693C600.565 473.41 597.705 470.977 594.976 468.401C592.393 466.212 590.147 463.654 588.31 460.809C586.545 457.844 584.027 455.462 581.859 452.78C576.392 446.259 570.599 440.019 564.502 434.083C559.001 428.505 552.25 425.326 545.037 422.558C548.509 419.239 551.988 415.92 555.472 412.601C555.643 412.439 555.9 412.207 556.088 412.233C559.07 412.756 560.072 410.039 561.871 408.668C565.016 406.261 568.134 403.853 571.929 402.465C572.786 402.148 572.94 402.379 573.643 402.842C578.012 405.738 582.485 408.463 586.828 411.41C591.78 414.778 595.284 419.277 598.771 423.878C604.22 431.076 608.015 439.199 611.888 447.305C615.195 454.237 617.568 461.658 621.8 468.093C623.685 470.821 626.058 473.177 628.8 475.042C635.328 479.66 641.874 484.245 648.959 487.955C651.964 489.605 655.102 491.001 658.34 492.128C662.958 493.658 667.08 496.402 670.274 500.071C675.415 505.795 681.326 510.679 687.186 515.615C689.303 517.397 690.391 520.062 692.464 521.956C694.638 523.993 697.137 525.652 699.858 526.866C704.347 528.862 708.596 531.398 712.94 533.721C715.759 535.229 718.672 536.488 721.13 538.673C723.075 540.387 724.454 542.555 726.125 544.466C729.158 547.953 732.482 551.175 735.292 554.885C737.306 557.542 737.862 560.524 738.625 563.54C738.916 564.688 738.839 565.99 740.064 566.779C740.921 567.336 740.124 567.901 739.85 568.304C737.708 571.346 735.678 574.482 733.305 577.335C729.561 581.834 726.082 586.564 721.747 590.566C720.239 591.962 719.708 592.279 718.38 590.137C713.403 582.22 707.388 575.21 699.601 569.786C694.906 566.53 690.613 562.709 686.056 559.247C682.987 557.052 679.628 555.296 676.075 554.028C670.583 551.886 665.023 549.924 659.574 547.619C655.153 545.76 651.551 542.367 649.43 538.065C647.717 534.637 645.292 531.904 643.039 528.991C638.755 523.472 633.615 518.76 628.568 514.004C624.062 509.72 618.639 506.566 614.509 501.879C609.952 496.738 606.088 491.185 606.43 483.808C606.482 482.634 606.19 481.785 604.777 481.863C603.363 481.94 603.92 483.088 603.92 483.773C603.389 491.271 606.824 497.132 611.562 502.53C613.769 505.185 616.244 507.606 618.947 509.754C621.638 511.655 624.213 513.715 626.658 515.923C630.582 519.685 634.506 523.438 638.292 527.337C640.194 529.291 641.719 531.621 643.536 533.669C645.54 535.914 646.654 538.699 648.119 541.235C651.203 546.565 656.113 549.316 661.467 551.518C667.627 554.02 673.958 556.119 680.058 558.767C683.456 560.28 686.552 562.393 689.2 565.005C693.338 569.024 698.187 572.143 702.676 575.707C706.043 578.396 709.029 581.529 711.552 585.022C713.428 587.592 715.527 590.043 716.967 592.991C717.532 594.164 717.386 594.559 716.615 595.107C712.563 598.012 708.485 600.874 704.415 603.761C703.362 604.516 702.453 604.224 702.102 603.127C700.003 596.469 695.368 591.945 689.902 587.952C684.967 584.345 680.35 580.24 674.755 577.67C669.808 575.449 664.669 573.682 659.402 572.391C652.369 570.618 648.488 565.536 645.515 559.35C643.467 555.065 641.231 550.952 636.091 549.393C633.692 548.656 631.498 549.221 629.237 549.573C629.087 549.591 628.943 549.638 628.812 549.712C628.681 549.786 628.566 549.885 628.474 550.004C628.382 550.123 628.314 550.259 628.274 550.404C628.234 550.549 628.224 550.7 628.243 550.85C628.363 552.906 628.063 554.894 629.1 556.95C632.157 563.074 634.183 569.661 635.097 576.444C636.442 585.15 640.152 592.511 645.249 599.426C647.682 602.742 649.653 606.443 652.403 609.46C655.667 613.033 659.522 616.066 663.146 619.297C663.96 620.025 665.117 620.008 665.528 619.065C665.789 618.453 665.917 617.793 665.902 617.128C665.887 616.463 665.73 615.809 665.442 615.209C665.336 615.145 665.216 615.107 665.092 615.1C664.968 615.092 664.844 615.115 664.731 615.166C662.795 617.129 662.667 615.321 662.161 614.01C661.656 612.699 660.148 612.339 659.197 611.439C654.79 607.008 650.899 602.092 647.597 596.786C644.512 591.979 641.522 587.044 640.194 581.551C638.686 575.322 637.247 569.049 635.671 562.837C634.917 559.855 633.366 557.07 632.244 554.191C631.953 553.463 631.25 552.683 632.184 551.938C632.535 551.704 632.94 551.562 633.361 551.526C633.782 551.49 634.205 551.561 634.591 551.732C637.233 552.477 639.478 554.227 640.845 556.608C642.756 559.761 644.332 563.128 646.226 566.29C648.7 570.226 652.552 573.097 657.029 574.345C662.572 576.119 668.167 577.772 673.479 580.077C679.21 582.528 683.931 586.667 688.84 590.454C691.53 592.536 694.529 594.31 696.259 597.395C697.699 599.966 699.027 602.536 700.372 605.158C700.483 605.339 700.531 605.552 700.508 605.763C700.485 605.974 700.392 606.172 700.243 606.324C696.816 609.88 692.49 609.837 688.857 606.255C686.098 603.522 684.085 600.214 681.703 597.189C678.233 592.768 673.136 590.48 668.15 588.235C665.263 586.941 662.272 585.87 659.282 584.807C658.04 584.379 656.352 583.908 655.564 585.167C655.229 585.795 655.084 586.507 655.146 587.216C655.209 587.925 655.476 588.601 655.915 589.16C657.012 590.991 657.876 592.951 658.486 594.996C659.985 599.486 662.915 603.213 665.657 607.043C667.644 609.811 670.617 611.328 672.905 613.607C673.084 613.788 673.297 613.932 673.533 614.031C673.768 614.129 674.02 614.179 674.275 614.179C674.53 614.179 674.783 614.129 675.018 614.031C675.253 613.932 675.467 613.788 675.646 613.607C676.957 612.347 675.338 612.047 674.789 611.43C668.527 604.747 663.026 597.635 660.054 588.466Z" fill="#F0C390"/>
<path d="M742.472 563.754C741.229 562.494 741.512 561.097 741.281 559.958C740.631 556.443 738.942 553.204 736.432 550.661C732.72 546.928 729.238 542.973 726.005 538.819C722.835 534.8 718.414 532.615 713.899 530.721C708.656 528.528 703.756 525.683 698.615 523.301C695.928 522.041 693.676 520.01 692.147 517.465C689.354 512.83 684.882 510.019 680.786 506.806C678.96 505.229 677.261 503.51 675.706 501.665C670.686 496.266 665.365 491.271 657.997 488.966C651.717 487.003 646.174 483.465 640.691 479.831C636.413 477.157 632.297 474.233 628.363 471.074C625.348 468.4 622.921 465.129 621.235 461.469C619.89 458.795 618.827 455.976 617.619 453.191C621.149 453.483 624.079 455.145 627.138 456.43C630.89 457.998 634.848 458.821 638.609 460.655C643.63 463.122 648.35 466.036 653.174 468.803C657.629 471.374 661.99 474.03 665.554 477.741C668.032 480.321 670.29 483.104 672.305 486.061C674.644 489.488 678.302 491.271 681.206 494.013C682.5 495.247 684.248 495.992 685.67 497.106C689.302 499.968 693.475 501.913 697.553 503.961C701.04 505.675 703.961 508.245 707.26 510.199C712.34 513.258 717.541 516.197 721.636 520.593C723.932 523.052 725.731 525.948 727.839 528.579C730.906 532.401 735.121 533.909 739.327 535.64C739.454 535.718 739.596 535.77 739.744 535.792C739.892 535.814 740.043 535.805 740.187 535.767C740.332 535.728 740.467 535.661 740.584 535.568C740.701 535.475 740.798 535.36 740.869 535.228C741.229 534.483 740.433 534.157 740.013 533.934C736.614 532.114 733.526 529.765 730.863 526.977C728.601 524.483 726.202 522.101 724.009 519.505C719.365 513.969 712.957 510.662 707.028 506.763C702.854 503.921 698.505 501.345 694.006 499.051C687.435 495.838 681.772 491.236 676.169 486.661C673.521 484.493 671.662 481.357 669.529 478.589C666.282 474.382 662.152 471.357 657.672 468.521C653.671 465.95 649.653 463.439 645.532 461.126C639.139 457.422 632.199 454.759 624.97 453.234C623.211 452.855 621.49 452.316 619.83 451.623C618.639 451.16 616.694 452.934 616.137 450.304C615.794 448.667 614.646 447.219 614.004 445.634C611.515 439.635 608.301 433.963 604.434 428.745C601.324 424.46 598.017 420.304 594.83 416.071C592.508 412.987 589.313 411.042 586.314 408.899C583.316 406.757 580.514 403.99 576.719 403.004C576.444 402.927 576.256 402.55 576.025 402.319C577.464 401.942 576.359 400.039 577.884 399.491C585.052 396.91 592.392 394.834 599.851 393.279C604.554 392.319 609.335 391.976 614.004 390.922C615.083 390.674 616.009 390.648 616.086 392.43C616.206 395.361 619.221 396.398 620.669 398.506C624.55 404.152 629.982 408.514 633.683 414.332C635.893 417.759 637.016 421.658 638.369 425.471C639.68 429.104 640.263 432.969 642.884 436.148C644.675 438.324 647.005 439.79 648.933 441.769C652.531 445.471 656.995 448.11 661.416 450.698C663.821 452.188 666.048 453.947 668.055 455.942C670.848 458.572 673.813 460.972 676.863 463.319C679.61 465.418 681.899 468.057 683.588 471.074C687.495 478.221 693.449 481.956 701.28 483.516C705.563 484.373 710.078 485.23 713.754 487.869C718.37 491.195 722.322 495.357 725.405 500.139C727.251 503.109 729.668 505.683 732.515 507.713C735.362 509.743 738.583 511.188 741.992 511.964C743.457 512.316 744.768 513.352 746.13 514.115C746.46 514.386 746.879 514.523 747.305 514.501C747.732 514.479 748.134 514.299 748.434 513.995C749.291 513.138 748.52 512.53 748.006 511.836C746.233 509.419 743.32 509.334 740.878 508.408C736.17 506.772 732.118 503.655 729.329 499.522C725.802 494 721.247 489.206 715.913 485.401C712.006 482.736 707.345 482.179 702.993 480.851C699.78 479.883 696.276 479.857 693.329 478.041C690.202 476.104 688.189 473.139 686.218 470.14C683.332 465.736 679.64 461.916 675.338 458.881C672.873 457.072 670.605 455.01 668.569 452.729C665.22 449.095 660.559 447.45 656.781 444.511C649.798 439.07 642.842 433.903 640.229 424.409C638.4 417.309 634.622 410.862 629.322 405.798C625.476 402.224 622.725 397.597 618.93 393.913C618.568 393.616 618.303 393.217 618.172 392.767C618.04 392.318 618.048 391.839 618.193 391.393C618.639 390.348 619.675 390.965 620.429 390.914C623.06 390.717 625.673 389.834 628.346 390.854C629.245 391.196 630.984 390.211 630.385 392.465C630.282 392.833 630.822 393.004 631.121 392.893C635.465 391.239 636.373 395.121 637.83 397.417C639.635 400.425 641.21 403.564 642.542 406.809C645.112 412.738 649.164 417.597 654.93 420.57C659.025 422.695 662.204 426.08 666.325 428.093C669.722 429.645 672.858 431.715 675.62 434.229C677.213 435.743 678.586 437.474 679.698 439.37C681.909 443.14 684.839 446.413 687.143 450.124C689.251 453.465 693.252 455.171 697.27 455.83C704.664 457.056 711.312 460.355 718.217 462.951C720.993 463.996 722.561 466.044 723.897 468.529C727.404 475.277 732.456 481.1 738.642 485.521C742.069 487.937 745.804 490.311 750.311 490.431C751.322 490.431 751.167 491.065 751.39 491.716C752.193 494.594 752.65 497.556 752.752 500.542C753.087 505.375 753.832 510.173 753.943 515.049C754.2 525.734 752.23 536.042 749.66 546.325C748.126 552.52 744.81 557.824 742.472 563.754Z" fill="#FFDA74"/>
<path d="M512.48 484.879C515.565 485.573 517.278 487.896 519.334 489.541C524.475 493.628 529.915 497.407 534.379 502.222C538.123 506.183 542.205 509.809 546.579 513.062C551.633 516.909 557.151 520.148 562.265 523.927C568.348 528.417 574.851 532.359 580.12 537.954C582.493 540.473 583.65 543.55 584.943 546.463C587.419 552.067 589.03 558.048 591.274 563.763C592.286 566.247 593.638 568.577 595.293 570.687C597.066 572.992 597.726 575.828 599.345 578.133C602.541 582.726 605.128 587.713 608.846 591.963C613.824 597.661 619.684 602.494 624.456 608.389C626.559 611.137 628.173 614.227 629.228 617.523C630.23 620.351 632.021 622.965 631.901 626.161C631.936 626.545 632.094 626.908 632.352 627.195C632.61 627.482 632.953 627.679 633.332 627.755C634.188 628.003 634.651 627.429 634.994 626.615C635.251 626.032 635.962 625.655 636.27 625.081C636.579 624.507 636.587 623.487 635.551 623.813C633.897 624.318 634.077 623.153 633.906 622.305C632.394 614.243 628.62 606.778 623.025 600.78C618.99 596.444 614.218 592.828 610.611 588.124C607.704 584.254 605.035 580.21 602.618 576.016C600.484 572.392 598.754 568.553 596.158 565.16C594.596 563.035 593.512 560.597 592.979 558.014C592.335 554.956 591.379 551.973 590.126 549.111C588.259 544.758 586.742 540.019 583.864 536.412C581.258 532.983 578.068 530.042 574.44 527.723C569.826 524.825 565.373 521.679 561.1 518.297C558.925 516.659 556.65 515.156 554.289 513.799C551.826 512.441 549.526 510.805 547.435 508.923C543.94 505.564 539.853 502.925 536.743 499.043C533.95 495.573 530.052 493.114 526.462 490.475C523.335 488.17 520.465 485.565 517.415 483.088C517.168 482.861 516.904 482.652 516.627 482.463C512.772 480.175 512.814 479.892 513.988 475.608C515.912 468.58 518.275 461.68 521.065 454.949C521.733 453.329 522.564 452.832 524.123 453.698C525.399 454.537 526.618 455.459 527.773 456.457C532.22 459.577 536.383 463.084 540.213 466.936C542.755 469.457 545.082 472.186 547.17 475.094C549.663 478.796 552.524 482.249 555.249 485.796C559.215 490.937 562.839 496.361 566.386 501.837C569.068 506.018 572.88 509.257 576.093 512.976C578.946 516.309 582.09 519.351 584.9 522.702C586.871 525.075 589.484 526.583 591.711 528.588C595.476 531.824 598.528 535.807 600.673 540.285C602.635 544.518 605.351 548.399 607.527 552.495C610.645 558.279 612.11 564.757 614.141 570.995C615.831 576.641 617.962 582.144 620.515 587.456C623.779 593.899 628.465 599.058 633.366 604.19C637.65 608.672 642.525 612.408 647.074 616.538C649.704 618.92 652.42 621.534 653.928 625.192C649.892 626.572 645.446 627.06 641.077 627.823C635.499 628.8 629.853 628.166 624.285 627.763C617.508 627.305 610.782 626.279 604.177 624.695C594.701 622.365 585.851 618.509 577.027 614.413C570.297 611.328 563.968 607.435 558.179 602.819C556.465 601.431 554.949 599.675 553.287 598.132C550.228 595.313 547.384 592.263 544.411 589.341C541.113 586.093 539.142 581.929 536.795 578.073C533.181 572.267 530.123 566.133 527.662 559.753C526.231 555.957 524.843 552.144 523.267 547.885C530.849 553.541 538.32 558.425 544.737 564.714C547.701 567.628 551.196 569.984 554.229 572.837C558.513 576.873 562.651 581.106 565.281 586.547C567.851 591.817 571.638 596.427 573.394 602.143C574.125 604.352 574.476 606.67 574.431 608.998C574.388 610.129 574.114 611.688 575.982 611.474C577.644 611.277 577.558 609.76 577.438 608.561C576.914 603.971 575.641 599.499 573.669 595.322C570.867 589.041 567.046 583.403 562.985 577.842C558.701 572.032 553.073 567.868 547.932 563.061C544.976 560.293 541.875 557.697 538.859 555.006C536.049 552.512 532.657 550.67 529.512 548.545C527.199 546.986 525.383 544.681 522.581 543.867C521.853 543.652 522.144 543.078 521.99 542.65C519.171 534.578 517.527 526.189 515.462 517.92C515.145 516.644 516.627 515.444 515.213 513.679C522.239 516.609 528.69 519.06 534.31 523.653C540.984 529.111 547.495 534.749 553.638 540.79C558.367 545.426 561.503 551.227 563.756 557.482C566.395 565.17 570.178 572.415 574.979 578.973C578.886 584.114 583.598 588.664 587.205 594.071C591.831 600.994 596.209 608.029 597.272 616.529C597.374 617.386 597.546 618.08 598.505 618.106C599.645 618.106 599.868 617.335 599.833 616.392C599.636 612.194 598.24 608.295 596.561 604.542C593.311 597.485 588.975 590.982 583.709 585.271C579.163 580.154 575.102 574.627 571.578 568.759C569.196 564.869 568.065 560.464 566.378 556.283C563.856 549.668 560.027 543.63 555.12 538.528C548.559 531.992 541.566 525.903 534.19 520.303C529.906 516.995 524.595 515.076 519.446 513.542C515.162 512.274 513.748 509.891 513.38 505.95C512.729 499.043 512.078 492.103 512.48 484.879Z" fill="#FFDA74"/>
<path d="M637.136 391.273C642.002 391.393 646.44 392.799 650.844 394.007C658.202 395.971 665.441 398.354 672.528 401.145C684.639 406.034 696.379 411.799 707.654 418.394C710.815 420.21 713.48 422.901 716.307 425.248C721.107 429.371 725.383 434.067 729.038 439.233C732.533 444.023 735.378 449.301 738.359 454.451C743.286 462.977 746.301 472.239 748.812 481.708C749.274 483.422 750.002 485.135 750.362 486.901C750.551 487.869 750.362 488.272 749.591 487.852C743.474 484.621 737.108 481.716 732.996 475.736C730.332 471.862 726.999 468.461 725.037 464.082C723.812 461.383 720.753 460.732 718.183 459.661C713.343 457.647 708.536 455.462 703.456 454.168C700.689 453.465 697.776 453.311 695.008 452.454C690.356 450.886 688.266 446.842 685.704 443.226C683.425 439.995 681.189 436.748 678.85 433.586C677.153 431.393 674.979 429.614 672.493 428.385C666.762 425.514 661.964 421.247 656.387 418.248C651.234 415.453 647.183 410.99 644.898 405.592C643.502 402.256 641.932 398.995 640.194 395.823C639.329 394.281 637.718 393.339 637.136 391.273Z" fill="#F0C390"/>
<path d="M209.881 639.991C209.68 626.754 211.604 613.57 215.578 600.943C217.982 593.162 221.417 585.739 225.79 578.87C229.096 573.779 233.255 569.298 238.085 565.622C245.034 560.021 252.596 555.226 260.625 551.33C266.091 548.759 271.583 546.06 277.589 545.169C282.832 544.398 287.981 542.65 293.413 543.369C299.23 544.132 305.004 545.083 310.77 546.24C319.167 547.885 327.247 550.858 334.707 555.049C338.753 557.222 342.483 559.938 345.794 563.12C348.492 565.777 351.165 568.476 353.847 571.158C354.49 571.8 355.338 572.246 353.898 573.163C353.196 573.617 353.179 575.151 354.669 574.817C357.968 574.088 358.953 576.719 360.332 578.544C364.265 583.771 367.126 589.632 370.176 595.399C373.226 601.166 373.8 607.789 375.574 613.984C375.779 614.696 375.334 614.841 374.666 615.107C371.461 616.392 368.266 617.678 365.019 618.86C359.33 620.934 353.83 623.547 348.09 625.449C340.608 627.917 333.102 630.305 325.575 632.613C316.013 635.543 306.487 638.611 296.771 641.07C290.097 642.784 283.654 645.355 276.98 647.017C269.09 649.005 261.011 650.29 253.103 652.227C246.849 653.752 240.543 655.029 234.255 656.091C229.067 656.956 223.935 658.126 218.885 659.596C217.009 660.144 214.936 659.75 213.059 660.727C212.203 661.164 211.517 660.478 211.414 659.407C210.72 652.621 209.298 645.877 209.881 639.991Z" fill="#FFDA74"/>
<path d="M371.641 647.65C368.549 659.073 362.637 668.13 356.588 677.153C352.13 683.653 347.236 689.842 341.938 695.678C340.696 697.075 339.025 698.18 337.655 699.551C333.371 703.93 329.027 708.428 323.433 710.999C316.305 714.272 309.194 717.623 301.243 718.942C293.71 720.147 286.075 720.586 278.454 720.253C274.539 720.108 270.666 719.097 266.794 718.214C261.653 717.04 257.027 714.709 252.401 712.507C248.914 710.836 245.6 708.827 242.505 706.509C236.56 702.143 231.269 696.949 226.793 691.085C232.79 689.903 238.701 688.772 244.63 687.658C250.559 686.544 256.393 684.659 262.21 682.919C270.152 680.554 278.043 678.052 286.088 676.004C289.643 675.096 293.053 673.605 296.557 672.431C304.002 669.938 311.361 667.119 318.935 665.088C328.205 662.603 337.243 659.39 346.573 657.11C353.423 655.334 360.118 653.01 366.595 650.161C368.129 649.493 370.022 649.595 371.641 647.65Z" fill="#FFDA74"/>
<path d="M365.002 578.912C363.867 577.427 362.642 576.014 361.335 574.679C359.827 573.3 360.547 572.511 361.84 571.894C363.622 571.037 365.619 570.652 366.981 569.067C367.298 568.698 367.726 568.775 368.06 569.161C368.977 570.223 369.928 569.761 371.007 569.366C376.928 567.181 382.805 564.851 388.836 563.026C394.129 561.47 399.534 560.324 405.003 559.598C408.661 559.075 412.328 559.093 415.986 558.741C424.836 557.884 433.369 559.752 441.431 563.368C449.493 566.984 457.075 571.08 463.167 577.438C465.932 580.172 468.03 583.506 469.301 587.181C470.158 589.897 469.232 591.877 467.879 593.599C465.355 596.812 462.433 599.692 459.183 602.168C454.462 605.732 449.596 609.108 444.241 611.345C439.778 613.204 435.46 615.381 431.159 617.48C426.156 619.922 421.238 622.621 416.252 625.192C407.88 629.354 399.276 633.03 390.481 636.203C385.88 637.865 381.511 640.17 376.859 642.261C377.039 640.256 377.716 638.653 377.716 636.914C377.716 632.681 381.305 631.773 384.235 631.019C389.941 629.63 395.065 626.966 400.059 624.164C407.659 619.922 415.224 615.655 422.977 611.696C428.417 608.911 433.635 605.698 438.013 601.311C439.068 600.387 440.197 599.55 441.388 598.809C445.098 596.187 447.206 592.759 447.386 588.063C447.476 586.318 447.076 584.583 446.232 583.053C445.387 581.524 444.13 580.261 442.605 579.409C440.215 578.021 438.03 576.136 435.288 575.262C430.671 573.788 425.95 572.691 421.332 571.286C412.919 568.715 404.36 568.672 395.759 568.887C390.541 569.015 385.478 570.309 380.337 571.312C375.531 572.246 371.53 575.202 366.827 576.341C365.456 576.676 364.616 577.421 364.985 578.989L365.002 578.912Z" fill="#D9A672"/>
<path d="M376.122 623.324C376.585 625.295 375.608 627.566 375.574 629.914C375.574 631.799 373.663 631.97 372.481 632.287C365.816 634.095 359.578 637.086 352.982 639.082C347.413 640.796 341.844 642.51 336.301 644.223C331.923 645.551 327.374 646.151 323.047 647.874C318.892 649.536 314.274 649.973 309.939 651.25C303.248 653.212 296.351 654.292 289.677 656.391C285.059 657.863 280.352 659.039 275.584 659.913C270.923 660.77 266.391 662.346 261.808 663.597C254.371 665.619 247.02 668.096 239.472 669.501C232.738 670.752 226.099 672.406 219.356 673.554C219.274 673.571 219.19 673.571 219.108 673.554C217.848 673.314 216.752 675.268 215.458 673.914C214.421 672.86 214.601 671.275 213.976 670.007C213.77 669.578 213.882 669.004 213.719 668.541C211.954 663.7 212.134 662.92 217.094 662.543C220.813 662.243 224.103 660.727 227.658 660.093C234.563 658.85 241.443 657.522 248.357 656.322C252.264 655.654 255.99 654.326 259.914 653.657C266.477 652.552 273.022 651.147 279.456 649.373C288.024 647.068 296.437 644.309 304.927 641.781C312.312 639.588 319.817 637.72 327.091 635.2C333.996 632.801 340.987 630.685 347.935 628.44C356.22 625.766 364.213 622.347 372.284 619.185C376.156 617.669 376.122 617.472 376.122 621.636V623.324Z" fill="#967057"/>
<path d="M225.491 688.377C224.805 688.497 224.103 687.991 223.289 686.852C221.307 684.308 219.541 681.602 218.011 678.763C217.42 677.572 217.36 676.878 219.022 676.552C223.614 675.652 228.146 674.376 232.73 673.604C239.061 672.542 245.29 671.034 251.493 669.457C258.715 667.606 265.869 665.456 273.074 663.553C276.415 662.696 279.842 662.139 283.192 661.3C286.756 660.391 290.311 659.397 293.815 658.275C298.442 656.801 303.239 656.167 307.9 654.745C314.403 652.748 321.111 651.634 327.605 649.441C332.994 647.615 338.743 646.819 344.251 645.062C353.299 642.166 362.414 639.441 371.162 635.636C372.078 635.242 373.543 634.3 374.332 635.216C374.983 635.979 374.811 637.461 374.246 638.584C374.155 638.722 374.102 638.882 374.092 639.047C374.177 644.805 369.705 645.696 365.627 647.136C362.14 648.361 358.773 649.86 355.346 651.171C349.281 653.485 342.992 655.053 336.746 656.793C331.066 658.369 325.515 660.391 319.826 661.934C316.896 662.731 314.094 663.853 311.104 664.504C308.114 665.156 305.227 666.527 302.263 667.435C293.318 670.151 284.563 673.433 275.473 675.712C267.299 677.786 259.383 680.854 251.253 683.159C246.117 684.68 240.856 685.741 235.532 686.329C233.084 686.672 230.674 687.246 228.335 688.043C227.397 688.231 226.446 688.343 225.491 688.377Z" fill="#D9A672"/>
<path d="M364.95 578.963C365.944 579.674 366.861 579.46 367.966 579.023C375.111 576.212 382.59 574.738 390.104 573.324C395.314 572.43 400.607 572.123 405.885 572.408C413.022 572.656 419.884 574.498 426.704 576.495C427.886 576.838 429.077 577.12 430.259 577.463C435.22 578.894 439.683 581.216 442.811 585.441C444.181 587.257 443.667 592.818 441.877 594.147C436.736 597.968 432.144 602.527 426.678 605.911C422.334 608.593 417.751 610.838 413.167 613.075C406.014 616.562 399.46 621.181 392.28 624.591C387.906 626.618 383.38 628.299 378.744 629.621C379.96 625.619 379.849 621.498 379.549 617.402C379.472 616.262 380.226 616.297 380.577 616.202C386.883 614.368 392.994 611.923 398.826 608.902C405.559 605.618 412.069 601.897 418.316 597.763C420.256 596.575 421.807 594.848 422.78 592.793C424.905 587.651 422.343 584.49 417.143 583.067C409.552 580.994 401.721 581.242 394.011 581.593C388.547 581.8 383.128 582.663 377.87 584.164C375.368 584.901 372.584 584.618 370.296 586.178C370.073 586.332 369.816 586.666 369.551 586.178C368.24 583.607 366.013 581.67 365.019 578.928L364.95 578.963Z" fill="#967057"/>
<path d="M175.731 669.492C181.249 669.492 186.612 668.198 192.009 667.59C196.387 667.101 200.654 666.15 204.972 665.413C206.334 665.182 208.073 664.136 208.921 664.651C209.769 665.165 209.547 667.221 209.958 668.549C210.48 670.186 210.815 671.891 211.449 673.485C211.988 674.916 211.363 675.37 210.386 675.533C201.416 677.024 192.617 679.62 183.425 679.663C179.519 679.606 175.638 679.03 171.884 677.949C167.978 676.895 164.054 675.996 160.49 673.665C159.013 672.789 157.723 671.631 156.694 670.256C155.665 668.881 154.917 667.317 154.493 665.653C152.719 658.661 154.93 652.8 160.019 647.856C162.306 645.628 164.457 643.272 166.598 640.889C170.327 636.967 174.58 633.579 179.235 630.821C184.136 627.745 188.531 623.966 193.097 620.436C197.102 617.233 201.914 615.199 207.002 614.558C208.253 614.404 208.441 615.055 208.33 616.04C207.987 619.185 207.636 622.321 207.319 625.466C207.251 626.177 206.822 626.28 206.291 626.245C200.962 625.826 196.867 628.953 192.857 631.532C184.904 636.656 177.657 642.801 171.302 649.809C168.603 652.766 166.393 655.936 165.527 660.006C164.559 664.573 168.098 669.432 172.673 669.475L175.731 669.492Z" fill="#967057"/>
<path d="M206.814 640.642C206.583 646.803 207.086 652.97 208.313 659.013C208.621 660.53 208.313 661.584 206.411 662.124C201.55 663.399 196.606 664.335 191.615 664.926C187.511 665.457 183.425 666.082 179.338 666.725C176.927 667.136 174.466 667.162 172.047 666.802C168.937 666.297 167.763 663.058 169.023 659.69C170.299 656.168 172.527 653.375 175.02 650.676C179.937 645.313 185.46 640.54 191.478 636.452C195.625 633.65 199.754 630.642 204.68 629.1C206.505 628.526 206.882 628.971 206.839 630.693C206.754 633.633 206.814 636.597 206.814 640.642ZM370.827 589.032C376.576 586.462 382.488 586.907 388.185 586.007C395.484 584.859 402.749 585.202 410.075 585.082C412.232 585.079 414.376 585.426 416.423 586.11C420.887 587.524 421.64 590.523 418.393 593.891C416.235 595.961 413.777 597.694 411.103 599.032C401.901 604.105 392.76 609.366 382.667 612.596C379.069 613.753 378.761 613.83 378.315 610.214C377.384 602.694 374.829 595.467 370.827 589.032Z" fill="#B7B7B7"/>
<path d="M346.967 297.129C351.194 303.741 354.373 310.967 356.392 318.551C357.07 320.571 357.883 322.543 358.825 324.455C361.19 330.395 363.137 336.494 364.65 342.706C366.133 348.267 367.401 354.043 366.989 359.955C367.018 360.292 366.989 360.631 366.904 360.958C365.995 362.731 359.253 365.362 357.171 365.088C353.895 364.786 350.599 364.763 347.319 365.019C343.669 365.173 340.747 366.853 337.817 368.781C335.975 369.989 334.913 371.351 334.922 373.605C334.922 376.476 334.922 379.192 333.654 382.097C331.186 387.726 334.091 392.499 337.655 396.809C338.383 397.666 339.505 397.837 340.516 398.163C343.086 398.977 344.166 398.043 343.523 395.481C343.352 394.795 343.455 393.767 342.538 393.407C341.381 392.987 341.681 394.675 340.636 394.727C339.411 392.885 337.886 391.188 337.021 388.986C336.653 387.981 336.515 386.906 336.619 385.841C336.723 384.776 337.065 383.748 337.62 382.834C338.837 380.623 338.477 378.446 338.477 376.244C338.563 372.363 341.818 369.252 345.794 368.901C350.027 368.378 354.309 368.378 358.542 368.901C359.826 369.098 361.139 368.947 362.345 368.463C363.55 367.979 364.604 367.18 365.396 366.15C365.687 365.807 365.97 365.293 366.929 365.585C367.135 375.704 364.967 385.387 360.932 395.215C356.88 390.074 351.183 390.931 346.136 389.808C345.04 389.577 343.695 389.731 343.566 391.385C343.438 393.039 344.337 394.007 345.991 393.81C348.818 393.467 351.422 394.556 354.13 394.915C356.177 395.181 357.454 396.989 359.09 398.086C359.784 398.549 358.936 399.191 358.73 399.611C356.314 404.461 352.853 408.591 349.306 412.644C347.516 414.709 345.879 416.929 343.558 418.531C343.236 418.821 342.831 419.003 342.401 419.051C341.97 419.098 341.536 419.009 341.159 418.797C336.764 416.997 332.429 414.872 327.451 415.163C325.132 415.23 322.882 415.968 320.974 417.288C318.607 419.032 315.892 420.244 313.015 420.844C312.058 421.081 311.174 421.552 310.445 422.215C310.096 422.514 309.679 422.723 309.231 422.823C308.783 422.923 308.317 422.912 307.874 422.79C302.066 421.684 296.163 421.461 290.303 420.819C288.101 420.579 286.327 422.19 284.186 422.627C278.711 423.741 274.299 426.988 270.298 430.793C269.923 431.22 269.432 431.529 268.884 431.683C268.337 431.836 267.756 431.828 267.214 431.658C266.407 431.406 265.556 431.326 264.716 431.423C263.877 431.521 263.067 431.794 262.339 432.224C261.336 432.892 260.197 432.541 259.126 432.541C253.129 432.541 248.151 435 243.996 439.139C243.302 439.833 243.139 439.421 242.634 439.259C239.078 438.076 236.106 435.763 232.713 434.263C231.359 433.672 230.143 432.669 228.823 432.095C222.886 429.619 218.148 425.549 213.479 421.264C208.287 416.5 204.278 410.699 199.352 405.798C195.907 402.353 193.071 398.349 190.964 393.956C189.251 390.451 188.188 386.595 186.8 382.928C185.652 379.894 184.564 376.818 183.373 373.768C181.772 369.192 180.605 364.475 179.886 359.681C178.79 353.46 178.781 347.153 178.841 340.83C178.999 334.69 179.818 328.585 181.283 322.621C182.714 316.28 184.127 309.974 186.423 303.881C188.531 298.311 191.564 293.247 194.434 288.08C195.965 285.063 197.821 282.221 199.968 279.606C202.943 276.287 206.478 273.517 210.412 271.423C214.696 269.109 218.431 265.904 222.98 264.028C227.574 262.279 232.269 260.808 237.039 259.624C237.768 259.418 238.376 259.247 238.684 260.241C238.993 261.235 238.342 261.32 237.776 261.697C236.697 262.4 234.563 262.683 235.566 264.602C236.697 266.787 238.453 265.536 239.849 264.696C245.822 261.148 252.61 259.206 259.554 259.058C264.224 258.878 268.893 257.858 273.571 258.158C281.059 258.638 288.521 259.452 295.992 260.163C297.217 260.275 298.193 261.209 299.513 261.286C300.369 261.337 300.549 262.4 300.309 263.145C299.838 264.602 299.161 266.204 297.679 266.71C293.884 267.995 291.502 270.994 288.744 273.565C283.603 278.312 277.743 281.045 270.564 280.523C265.509 280.154 260.463 280.686 255.425 281.063C252.461 281.285 250.036 283.059 247.886 284.987C245.761 286.74 243.943 288.833 242.505 291.182C239.755 296.024 233.938 297.797 227.941 296.169C223.751 295.03 219.605 294.258 215.184 295.072C213.796 295.321 212.22 294.575 210.643 295.304C207.926 296.583 205.823 298.884 204.792 301.705C203.25 305.638 200.722 308.825 198.315 312.141C196.781 314.241 197.047 316.134 198.041 318.585C199.694 322.664 202.796 325.534 205.374 328.825C205.929 329.605 206.665 330.238 207.518 330.671C208.372 331.104 209.318 331.323 210.275 331.31C217.129 330.787 222.415 333.94 227.41 337.976C229.449 339.621 231.393 341.404 233.467 342.972C236.262 345.201 239.703 346.466 243.276 346.579C248.528 346.699 253.789 346.673 259.049 346.579C263.093 346.511 266.434 344.685 269.33 342.012C270.504 340.932 271.54 340.11 273.425 340.924C276.672 342.321 280.039 343.34 282.892 345.594C285.419 347.59 290.825 346.451 292.959 344.137C297.199 339.579 299.427 333.975 301.757 328.448C302.071 327.561 302.639 326.787 303.39 326.221C304.141 325.656 305.042 325.324 305.981 325.269C312.655 324.36 318.541 321.893 323.193 316.88C323.738 316.373 324.175 315.761 324.478 315.08C326.277 309.879 330.621 307.643 335.256 305.818C339.891 303.993 343.566 300.985 346.967 297.129Z" fill="#B0D9E8"/>
<path d="M218.859 296.185C223.143 296.503 226.836 297.822 230.648 298.448C235.035 299.176 239.593 299.167 243.139 296.1C245.564 293.992 247.243 291.036 249.359 288.542C250.37 287.366 251.607 286.404 252.996 285.713C254.385 285.023 255.899 284.618 257.447 284.523C263.504 283.949 269.621 284.523 275.627 283.941C282.993 283.156 289.759 279.517 294.475 273.804C296.076 272.072 298.055 270.732 300.258 269.888C302.64 268.834 304.199 267.395 304.542 264.695C304.662 263.753 305.09 263.093 306.564 263.59C308.037 264.087 309.134 264.653 310.419 265.201C315.122 267.249 320.092 268.911 324.23 271.927C329.404 275.749 334.896 279.416 338.511 285.02C339.912 287.262 341.478 289.396 343.198 291.404C344.431 292.775 343.909 293.683 343.198 294.9C340.885 298.739 337.201 300.727 333.234 302.321C328.093 304.411 323.698 307.136 321.188 312.432C318.678 317.727 313.906 319.981 308.508 321.121C307.129 321.42 305.69 321.403 304.319 321.72C300.952 322.517 298.922 324.865 297.859 327.993C296.37 332.203 294.392 336.223 291.965 339.972C289.746 343.493 286.25 343.682 281.804 341.069C279.281 339.697 276.587 338.666 273.793 338.001C269.381 336.81 266.545 339.843 263.624 342.122C262.273 343.249 260.599 343.919 258.843 344.033C253.574 344.23 248.323 344.325 243.054 344.89C240.432 345.156 237.545 343.519 235.343 341.626C231.205 338.129 227.05 334.668 222.321 331.977C219.579 330.369 216.407 329.648 213.239 329.912C211.903 330.072 210.549 329.879 209.31 329.353C208.072 328.827 206.993 327.985 206.18 326.913C203.798 323.974 200.911 321.412 199.669 317.624C199.423 317.119 199.328 316.553 199.397 315.995C199.465 315.437 199.693 314.911 200.054 314.48C202.744 310.787 206.12 307.548 207.054 302.689C207.542 300.119 209.821 298.859 212.374 298.079C214.491 297.305 216.658 296.673 218.859 296.185Z" fill="#9CE084"/>
<path d="M247.757 440.766C251.739 438.273 256.348 436.965 261.045 436.996C263.684 436.996 266.228 436.139 269.056 436.43C272.534 436.765 274.642 433.397 277.195 431.478C284.143 426.251 291.828 424.983 300.189 426.576C302.862 427.09 305.613 427.108 308.251 427.922C309.793 428.401 311.173 427.485 312.458 426.731C314.357 425.591 316.447 424.807 318.626 424.417C319.669 424.168 320.632 423.661 321.428 422.943C325.129 420.175 329.019 418.659 333.568 421.135C334.972 421.712 336.43 422.148 337.92 422.438C336.472 424.82 333.936 425.539 331.829 426.602C329.481 427.776 327.031 428.804 324.709 430.03C318.644 433.243 312.132 435.171 305.638 437.244C300.892 438.778 296.214 440.578 291.356 441.786C284.515 443.511 277.517 444.541 270.469 444.862C266.766 445.027 263.056 444.774 259.409 444.108C255.397 443.502 251.48 442.379 247.757 440.766Z" fill="#FEFEFE"/>
<path d="M529.375 729.559C524.576 729.433 519.853 728.328 515.496 726.312C514.098 725.617 512.591 725.167 511.041 724.984C505.961 724.735 500.846 724.307 495.928 726.398C493.17 727.58 490.522 728.968 487.678 730.014C482.478 731.89 477.286 733.175 471.811 731.496C469.601 730.811 467.956 729.14 466.165 727.76C464.007 726.11 462.257 723.986 461.05 721.553C459.842 719.119 459.209 716.441 459.2 713.724C459.106 709.209 461.367 705.027 464.674 701.651C467.198 699.014 470.414 697.143 473.953 696.253C479.162 694.89 483.043 691.352 486.444 687.264C488.922 684.067 491.194 680.716 493.247 677.23C493.724 676.43 494.408 675.773 495.226 675.328C495.671 675.114 496.939 673.837 497.239 675.842C497.35 676.596 498.216 676.776 499.107 676.399C501.985 675.174 504.933 674.531 508.043 675.542C509.156 675.919 510.116 675.071 511.221 675.02C516.987 674.771 522.607 675.808 527.353 678.901C530.421 680.906 533.53 682.963 536.529 685.139C539.391 687.204 542.449 688.961 545.234 691.197C548.311 693.718 550.359 697.278 550.991 701.206C551.351 702.979 551.745 704.762 552.002 706.552C552.661 711.18 550.64 714.933 547.461 717.872C543.846 721.222 540.247 724.641 536.058 727.297C533.779 728.84 531.414 729.894 529.375 729.559Z" fill="#FFDA74"/>
<path d="M932.899 405.755C932.539 409.868 932.976 414.075 931.408 418.077C930.048 421.218 927.826 423.91 924.999 425.84C922.429 427.759 919.979 430.03 916.98 431.375C911.36 433.894 905.714 436.079 899.314 434.649C897.31 434.194 895.176 434.649 893.103 434.066C889.034 432.849 885.572 430.45 881.846 428.573C876.408 425.829 871.707 421.821 868.138 416.886C864.137 411.419 862.526 405.078 861.181 398.6C859.801 391.871 860.614 384.876 863.503 378.643C866.073 373.014 870.614 369.286 876.354 366.955C878.864 365.936 881.82 365.704 884.013 364.625C888.297 362.517 892.581 362.157 897.053 362.414C904.232 362.842 911.069 364.436 916.535 369.663C919.842 372.825 923.988 375.147 926.447 379.14C929.437 384.007 930.731 389.508 931.819 395.052C932.59 398.566 932.952 402.158 932.899 405.755Z" fill="#967057"/>
<path d="M151.905 425.419C157.526 424.862 162.023 428.401 166.281 432.069C168.179 433.543 169.94 435.187 171.542 436.979C175.054 441.263 174.84 445.924 174.052 450.8C172.681 459.223 167.061 464.304 159.933 467.843C156.575 469.557 152.711 468.914 149.232 467.698C145.463 466.342 141.773 464.775 138.18 463.002C133.991 460.971 132.783 456.867 131.566 452.788C128.842 443.662 132.92 437.716 138.994 432.969C139.997 432.18 141.95 431.52 139.851 429.712C139.294 429.241 140.279 429.044 140.622 428.787C143.783 426.379 147.382 425.359 151.905 425.419Z" fill="#FFDA74"/>
<path d="M477.157 349.227C475.161 345.971 473.336 342.938 468.196 344.42C470.406 342.124 472.299 340.642 472.933 338.139C473.525 335.774 474.801 333.589 474.835 330.916C476.065 332.434 476.739 334.326 476.746 336.28C476.909 339.759 478.459 341.807 481.963 342.338C482.537 342.432 483.111 342.544 483.72 342.655C481.484 344.677 477.723 345.114 477.157 349.227Z" fill="#B0D9E8"/>
<path d="M813.744 287.103C816.16 286.666 817.976 284.61 820.512 284.481C820.836 284.399 821.135 284.239 821.383 284.015C821.631 283.791 821.82 283.51 821.934 283.196C822.791 279.623 825.866 276.735 825.301 272.588C826.278 274.302 827.563 275.947 828.163 277.798C829.585 282.228 832.669 283.796 837.518 283.53C834.854 284.61 833.14 286.281 831.093 287.395C827.786 289.194 824.239 290.685 824.847 295.569C823.933 294.172 823.109 292.718 822.38 291.216C821.077 288.114 818.953 286.598 815.526 287.095C814.933 287.141 814.337 287.144 813.744 287.103Z" fill="#FFDA74"/>
<path d="M768.114 355.397C767.257 357.162 767.146 359.587 765.381 361.283C763.616 362.98 761.491 362.86 759.529 361.129C758.665 360.366 757.971 359.43 757.492 358.382C757.014 357.333 756.761 356.195 756.752 355.042C756.742 353.89 756.975 352.748 757.436 351.691C757.897 350.635 758.575 349.687 759.426 348.91C759.708 348.558 760.113 348.325 760.559 348.258C761.006 348.191 761.461 348.296 761.834 348.55C763.768 349.496 765.511 350.792 766.974 352.372C767.372 352.763 767.68 353.236 767.877 353.759C768.074 354.281 768.154 354.84 768.114 355.397Z" fill="#FFDA74"/>
<path d="M434.894 218.117C437.285 218.177 440.514 221.27 440.694 223.67C440.874 226.069 438.039 229.993 435.605 229.736C433.172 229.479 430.139 228.811 428.417 226.635C426.987 224.818 427.766 222.701 428.897 220.739C430.294 218.297 432.864 218.897 434.894 218.117Z" fill="#B0D9E8"/>
<path d="M812.853 551.878C812.442 555.306 807.952 559.539 805.202 559.128C803.24 558.836 800.481 555.135 800.678 553.061C800.987 549.865 803.609 546.669 805.682 546.96C810.617 547.645 813.153 549.385 812.853 551.878Z" fill="#B0D9E8"/>
<path d="M679.656 688.789C679.656 690.442 677.394 693.818 676.297 693.784C674.241 693.724 671.517 691.042 671.517 689.063C671.517 685.995 673.873 683.245 676.529 683.219C678.268 683.202 679.639 685.644 679.656 688.789Z" fill="#FFDA74"/>
<path d="M712.717 252.418C713.317 255.537 711.055 257.285 707.988 257.396C705.966 257.473 702.65 254.577 703.019 250.421C703.022 249.859 703.142 249.304 703.373 248.791C703.603 248.279 703.937 247.82 704.355 247.444C704.773 247.068 705.265 246.783 705.799 246.608C706.333 246.434 706.897 246.372 707.457 246.428C710.327 246.488 712.717 249.196 712.717 252.418Z" fill="#B0D9E8"/>
<path d="M434.432 253.025C432.581 252.477 430.379 251.963 428.906 250.103C428.437 249.633 428.137 249.021 428.052 248.363C427.967 247.704 428.101 247.036 428.435 246.462C429.188 245.056 430.037 245.228 431.399 245.313C433.969 245.476 436.419 245.253 437.396 248.424C438.03 250.455 436.616 253.077 434.432 253.025Z" fill="#B0D9E8"/>
<path d="M196.379 493.885C196.619 495.136 197.467 496.07 197.09 497.158C196.884 497.749 196.816 498.658 195.728 498.658C195.264 498.671 194.809 498.53 194.434 498.257C194.059 497.984 193.785 497.595 193.654 497.149C193.303 496.181 194.108 496.147 194.794 496.018C195.822 495.838 195.342 494.536 196.379 493.885Z" fill="#B0D9E8"/>
<path d="M254.226 628.328C253.677 628.251 253.172 628.371 253.12 627.762C253.076 627.564 253.099 627.357 253.186 627.174C253.273 626.991 253.419 626.842 253.6 626.751C254.38 626.271 255.271 626.485 256.007 626.211C260.956 624.534 265.817 622.609 270.572 620.444C278.797 616.443 287.004 612.416 295.289 608.534C300.258 606.195 305.041 603.479 309.596 600.411C316.236 595.964 323.304 592.253 329.747 587.438C330.201 587.103 330.749 586.915 331.109 587.283C331.709 587.917 331.238 588.5 330.732 588.997C328.77 590.951 326.277 592.15 323.973 593.581C318.232 597.129 312.646 600.925 306.915 604.472C301.836 607.477 296.59 610.189 291.202 612.595C284.94 615.535 278.643 618.431 272.474 621.541C266.933 624.382 261.087 626.581 255.048 628.096C254.714 628.173 254.405 628.276 254.226 628.328Z" fill="#3A4453"/>
<path d="M253.343 607.522C252.675 607.256 251.758 607.908 251.63 606.828C251.501 605.748 252.426 606.108 252.975 605.894C255.262 605.037 257.524 604.06 259.777 603.092C265.485 600.747 271.055 598.078 276.458 595.097C279.885 593.161 283.723 592.116 287.064 589.999C292.565 586.52 298.202 583.195 303.565 579.571C309.562 575.569 315.559 571.705 321.145 567.129C321.668 566.701 322.319 566.504 322.67 567.129C323.022 567.755 322.559 568.432 322.002 568.843C319.021 571.062 316.056 573.324 313.006 575.441C309.348 578.011 305.647 580.453 301.869 582.827C296.3 586.357 290.911 590.273 285.008 593.11C278.643 596.169 272.483 599.647 266.006 602.458C262.253 604.077 258.458 605.603 254.68 607.154C254.242 607.303 253.796 607.426 253.343 607.522Z" fill="#3A4453"/>
<path d="M304.97 556.162C304.876 556.642 304.876 556.908 304.482 557.113C298.939 560.069 294.304 564.397 288.821 567.447C283.601 570.221 278.156 572.546 272.543 574.396C266.76 576.427 260.942 578.355 255.356 580.909C252.864 582.173 250.204 583.076 247.457 583.591C246.789 583.685 245.941 584.687 245.547 583.633C245.153 582.579 246.078 582.185 247.132 581.963C249.834 581.257 252.458 580.278 254.962 579.041C262.245 575.887 269.904 573.719 277.238 570.763C282.149 568.897 286.855 566.528 291.279 563.694C294.903 561.269 298.133 558.21 302.049 556.265C302.948 555.828 304.053 554.808 304.97 556.162Z" fill="#3A4453"/>
<path d="M347.207 596.632C346.426 597.829 345.567 598.974 344.637 600.059C339.385 605.363 334.742 611.481 327.828 614.746C323.698 616.691 320.031 619.493 315.671 620.959C315.105 621.147 314.488 621.515 314.206 620.753C313.923 619.99 314.394 619.51 315.105 619.185C321.839 616.04 328.71 612.904 334.33 608.045C337.764 605.101 340.885 601.81 343.643 598.226C344.246 597.419 344.932 596.678 345.691 596.015C346.162 595.604 346.89 595.407 347.207 596.632Z" fill="#3A4453"/>
<path d="M320.717 678.815C320.651 679.284 320.464 679.728 320.174 680.102C319.884 680.476 319.501 680.768 319.063 680.949C315.731 682.663 313.426 685.636 310.684 688.044C306.606 691.608 302.023 694.29 297.396 696.972C296.471 697.504 295.683 698.241 294.732 698.738C294.107 699.063 293.224 699.415 292.796 698.481C292.367 697.547 293.378 697.435 293.875 697.118C297.885 694.59 302.04 692.26 305.87 689.526C308.726 687.428 311.403 685.095 313.872 682.551C315.499 680.94 317.581 679.981 319.183 678.404C319.68 677.95 320.468 677.779 320.717 678.815Z" fill="#3A4453"/>
<path d="M227.641 349.552C231.925 349.244 235.54 351.497 239.464 353.074C244.964 355.276 250.396 355.936 256.093 353.802C258.039 353.083 260.102 352.731 262.176 352.765C266.163 352.997 270.138 352.129 273.665 350.255C274.397 349.858 275.21 349.635 276.042 349.602C276.874 349.57 277.702 349.728 278.463 350.066C281.316 351.12 284.46 350.923 287.364 352.028C291.742 353.691 293.558 357.487 292.333 362.105C291.288 366.038 288.606 369.149 287.484 373.099C286.516 376.526 285.771 379.183 287.981 382.636C290.962 387.297 290.363 392.636 289.009 397.974C288.582 399.988 287.735 401.889 286.525 403.555C285.315 405.22 283.767 406.612 281.984 407.64C281.053 408.359 280.174 409.143 279.354 409.987C273.742 414.512 265.226 411.924 262.219 404.692C260.464 400.316 259.591 395.636 259.649 390.922C259.649 385.849 259.143 385.481 254.285 383.476C251.454 382.389 248.54 381.529 245.572 380.905C242.814 380.262 239.67 379.92 236.842 381.762C234.978 382.966 232.961 383.914 230.845 384.581C224.462 386.689 216.632 383.124 215.381 375.395C215.047 373.313 214.31 371.274 213.787 369.209C212.931 365.901 214.027 363.271 215.432 360.546C215.544 360.332 215.801 360.049 215.732 359.895C214.396 356.518 216.263 354.419 218.525 352.32C221.061 350.032 224 349.818 227.641 349.552Z" fill="#3A4453"/>
<path d="M507.417 698.455C505.361 698.198 503.313 698.455 501.197 698.095C495.646 697.059 493.932 690.426 497.119 686.142C500.657 681.395 507.212 678.867 511.487 680.752C513.68 681.721 515.873 681.883 518.118 682.32C520.814 682.74 523.249 684.172 524.926 686.325C526.604 688.477 527.398 691.188 527.148 693.905C527.132 694.328 526.995 694.738 526.751 695.085C526.508 695.432 526.17 695.7 525.777 695.859C524.372 696.51 522.847 697.41 521.408 697.358C516.678 697.187 512.155 699.149 507.417 698.455Z" fill="#3A4453"/>
<path d="M484.936 707.623C488.252 707.623 491.585 710.896 492.064 713.578C492.476 715.858 490.651 718.008 487.421 718.985C482.632 720.425 478.297 720.759 474.03 717.828C473.705 717.614 473.353 717.623 473.225 717.109C472.702 715.061 475.444 711.308 477.594 711.179C478.271 711.179 478.896 711.368 479.488 710.451C480.91 708.249 483.326 707.794 484.936 707.623Z" fill="#3A4453"/>
<path d="M518.546 709.996C518.041 707.948 519.06 706.286 520.011 704.632C520.962 702.979 526.865 702.422 528.09 703.955C528.142 704.015 528.193 704.127 528.167 704.187C527.251 706.629 529.786 707.486 530.463 709.191C531.192 711.068 530.095 715.986 528.57 717.074C526.137 718.788 523.884 717.46 521.93 716.174C519.831 714.795 517.895 713.03 518.546 709.996Z" fill="#3A4453"/>
<path d="M909.981 406.295C910.144 410.905 907.522 414.144 905.26 417.434C904.172 419.002 899.52 418.454 896.941 416.663C895.019 415.442 893.255 413.989 891.689 412.336C890.169 410.512 888.103 409.226 885.795 408.668C879.549 407.091 877.228 402.087 875.514 396.766C875.165 395.67 875.198 394.488 875.608 393.412C876.017 392.337 876.778 391.432 877.767 390.845C879.969 389.534 882.411 388.42 885.015 389.825C889.299 392.113 893.189 395.044 898.064 396.055C899.426 396.338 900.711 396.912 902.15 396.912C906.254 396.963 908.233 398.36 909.33 402.336C909.689 403.69 910.358 405.095 909.981 406.295Z" fill="#3A4453"/>
<path d="M894.345 382.191C892.092 382.816 890.062 381.283 888.1 380.28C885.204 378.806 884.673 374.779 886.583 371.463C888.168 368.669 891.518 367.83 894.568 369.064C897.412 370.22 899.109 372.551 901.054 374.625C901.595 375.281 901.937 376.078 902.038 376.923C902.14 377.767 901.997 378.623 901.628 379.389C900.771 381.283 898.672 381.9 896.65 382.174C895.883 382.228 895.113 382.234 894.345 382.191Z" fill="#3A4453"/>
<path d="M922.172 391.386C922.704 393.434 921.624 395.379 920.159 397.161C919.674 397.757 919.064 398.239 918.373 398.574C917.682 398.91 916.926 399.09 916.158 399.102C915.39 399.114 914.628 398.958 913.927 398.645C913.226 398.332 912.601 397.87 912.097 397.29C910.977 395.913 910.282 394.24 910.096 392.475C909.911 390.71 910.243 388.929 911.052 387.35C912.311 384.694 913.733 382.629 916.869 383.4C920.819 384.368 922.172 386.57 922.172 391.386Z" fill="#3A4453"/>
<path d="M918.531 416.748C914.821 417.228 913.999 414.451 914.71 411.375C915.096 409.661 915.944 408.179 916.124 406.405C916.269 405.026 919.885 403.946 921.161 404.889C922.224 405.677 923.372 406.602 923.595 407.99C923.863 410.468 923.3 412.964 921.992 415.085C921.724 415.742 921.222 416.276 920.582 416.583C919.942 416.891 919.211 416.949 918.531 416.748Z" fill="#3A4453"/>
<path d="M147.776 430.562C148.221 428.582 149.918 427.734 152.179 428.6C155.161 429.739 156.797 432.421 158.339 434.923C159.393 436.637 157.817 438.599 155.769 438.634C153.122 438.685 150.997 440.896 148.059 440.227C145.977 439.747 144.82 438.514 144.7 435.575C144.58 432.635 145.557 430.87 147.733 430.51C149.104 431.367 148.693 432.293 147.887 433.227C147.388 433.699 147.091 434.345 147.056 435.031C147.021 435.717 147.251 436.39 147.699 436.911C148.718 438.274 150.029 437.982 151.348 437.4C152.11 437.031 152.908 436.744 153.73 436.543C155.941 436.08 155.726 436.149 154.587 434.332C153.079 431.659 150.56 430.939 147.776 430.562Z" fill="#3A4453"/>
<path d="M148.821 455.583C149.507 455.472 150.175 455.069 150.346 455.994C150.392 456.159 150.399 456.333 150.368 456.501C150.336 456.67 150.266 456.829 150.164 456.966C150.061 457.103 149.929 457.215 149.776 457.293C149.623 457.372 149.455 457.414 149.284 457.417C147.93 457.562 146.56 457.388 145.285 456.909C144.01 456.43 142.865 455.659 141.942 454.658C140.425 452.944 140.365 450.442 141.299 448.171C141.528 447.725 141.856 447.338 142.259 447.04C142.344 446.947 142.448 446.873 142.564 446.823C142.68 446.772 142.805 446.746 142.931 446.746C143.057 446.746 143.182 446.772 143.298 446.823C143.414 446.873 143.518 446.947 143.604 447.04C143.886 447.366 143.775 447.785 143.604 448.205C141.796 452.481 144.212 455.797 148.821 455.583Z" fill="#3A4453"/>
<path d="M160.036 462.883C159.907 463.74 160.498 464.991 159.23 465.453C157.962 465.916 156.917 465.805 156.66 464.134C156.66 464.074 156.155 464.134 155.949 464.031C155.366 463.783 154.894 463.329 154.625 462.755C154.356 462.181 154.309 461.527 154.493 460.921C155.024 459.164 156.703 459.541 158.117 459.464C159.667 459.378 159.83 460.432 159.984 461.52C160.032 461.973 160.049 462.428 160.036 462.883Z" fill="#3A4453"/>
<path d="M148.35 452.352C146.439 452.489 145.214 451.949 145.3 449.884C145.351 448.633 145.197 447.236 147.116 447.314C148.65 447.314 150.26 449.199 150.415 450.741C150.62 452.652 149.412 452.421 148.35 452.352Z" fill="#3A4453"/>
<path d="M163.077 454.399C161.912 454.502 161.073 454.245 161.021 452.685C161.021 451.28 162.101 450.654 162.812 450.971C163.746 451.374 165.673 450.5 165.596 452.505C165.545 453.936 164.534 454.467 163.077 454.399Z" fill="#3A4453"/>
<path d="M154.398 454.93C153.85 454.768 153.088 455.247 152.951 454.305C152.856 453.688 153.105 453.397 153.764 453.362C154.964 453.294 155.007 452.128 155.427 451.392C155.5 451.201 155.638 451.043 155.817 450.946C155.996 450.849 156.204 450.818 156.403 450.86C157.003 450.86 156.969 451.349 156.986 451.76C157.089 453.637 156.257 454.716 154.398 454.93Z" fill="#3A4453"/>
<path d="M160.687 443.234C161.321 443.44 162.495 443.234 162.58 444.691C162.623 445.368 161.972 446.131 161.724 445.685C160.867 444.203 158.665 447.347 158.537 444.605C158.477 443.329 159.41 443.157 160.687 443.234Z" fill="#3A4453"/>
<path d="M227.478 353.211C230.845 352.448 233.758 354.813 236.902 356.133C243.833 359.029 250.773 359.654 257.944 357.204C260.144 356.444 262.474 356.126 264.798 356.27C268.567 356.518 271.977 355.361 275.224 353.631C275.695 353.373 276.184 353.031 276.603 353.271C279.559 354.984 283.089 354.23 286.139 355.678C288.495 356.792 289.566 358.515 288.709 361.06C287.073 365.867 284.203 370.134 282.712 375.035C281.975 377.477 281.658 379.602 283.312 381.796C284.567 383.617 285.484 385.648 286.019 387.794C286.953 390.905 286.019 393.989 285.488 397.048C284.837 400.964 282.746 403.766 278.865 405.086C277.906 405.411 277.417 406.405 276.441 406.928C273.014 408.762 268.353 406.594 266.734 402.729C264.954 398.431 264.096 393.807 264.215 389.156C264.318 384.178 262.639 380.776 257.473 379.337C255.437 378.813 253.435 378.169 251.475 377.409C246.883 375.489 242.214 376.312 237.579 376.046C237.248 376.039 236.919 376.098 236.612 376.221C236.304 376.343 236.024 376.525 235.788 376.758C233.421 378.709 230.554 379.959 227.512 380.365C225.114 380.639 223.143 378.951 222.064 376.869C220.102 373.064 218.748 369.157 219.373 364.624C219.682 362.431 219.622 360.34 220.359 358.069C221.661 354.205 222.415 353.211 227.478 353.211Z" fill="#9CE084"/>
<path d="M507.571 696.432C505.806 696.2 504.144 696.543 502.277 695.575C497.676 693.124 496.931 691.145 500.066 687.186C502.251 684.435 505.378 683.364 508.694 682.73C508.941 682.655 509.206 682.661 509.45 682.747C509.693 682.834 509.903 682.996 510.047 683.21C511.324 685.378 513.277 685.215 515.333 684.795C519.189 683.99 524.955 688.48 524.423 692.25C524.115 694.367 521.613 695.326 519.797 695.301C515.668 695.241 511.709 696.817 507.571 696.432Z" fill="#967057"/>
<path d="M479.607 713.226C480.355 713.168 481.105 713.316 481.775 713.654C482.349 713.937 483.077 713.654 482.863 712.798C482.246 710.407 484.234 710.69 485.356 710.553C487.464 710.295 488.295 712.052 488.903 713.62C489.434 714.991 488.723 715.848 487.249 716.319C484.251 717.279 481.364 718.701 478.117 717.27C477.32 716.911 475.786 716.611 476.06 715.994C476.54 714.923 476.969 713.38 478.631 713.2C478.956 713.189 479.283 713.197 479.607 713.226Z" fill="#967057"/>
<path d="M526.06 705.78C523.575 706.517 524.535 707.699 525.717 708.436C528.184 709.97 528.467 711.461 526.865 714.023C526.008 715.411 525.648 715.266 524.56 714.76C520.979 713.046 520.114 710.664 521.99 707.391C522.727 706.037 523.592 705.686 526.06 705.78Z" fill="#967057"/>
<path d="M878.393 396.056C878.042 394.342 878.873 393.485 880.295 392.902C880.904 392.582 881.589 392.435 882.276 392.475C882.963 392.516 883.626 392.744 884.193 393.134C888.466 395.715 893.08 397.682 897.901 398.978C899.012 399.315 900.166 399.491 901.328 399.5C904.995 399.5 908.122 403.348 907.428 407.058C906.888 409.963 905.26 412.379 903.589 414.684C902.064 416.775 900.163 414.873 898.449 414.53C897.659 414.27 896.966 413.777 896.461 413.116C893.192 409.349 888.995 406.502 884.287 404.856C880.44 403.468 879.378 399.612 878.393 396.056Z" fill="#FFDA74"/>
<path d="M895.202 379.732C893.711 379.921 892.478 379.295 891.193 378.669C887.286 376.759 887.346 375.533 890.207 371.909C890.452 371.664 890.751 371.483 891.081 371.378C891.41 371.274 891.76 371.25 892.101 371.309C894.974 372.299 897.43 374.228 899.074 376.784C899.846 377.907 898.775 378.978 897.669 379.424C896.865 379.641 896.035 379.745 895.202 379.732Z" fill="#FFDA74"/>
<path d="M919.611 390.818C919.85 391.787 919.259 392.532 918.882 393.389C918.197 394.888 916.997 396.491 915.515 396.277C913.733 396.011 913.116 393.92 912.714 392.241C912.311 390.561 913.168 389.105 914.067 387.725C915.995 389.37 915.909 386.757 916.809 386.508C917.27 386.499 917.722 386.635 918.101 386.896C918.481 387.157 918.769 387.531 918.925 387.965C919.191 388.856 919.859 389.739 919.611 390.818Z" fill="#FFDA74"/>
<path d="M920.647 409.38C920.612 410.739 920.321 412.079 919.791 413.33C919.516 414.187 919.002 414.641 918.034 414.358C916.818 414.007 917.066 413.356 917.486 412.465C917.928 411.408 918.309 410.327 918.625 409.226C918.831 408.626 918.206 407.512 919.559 407.632C920.63 407.769 920.707 408.652 920.647 409.38Z" fill="#FFDA74"/>
<path d="M147.776 430.561C152.428 428.968 154.073 432.918 156.438 435.394C157.063 436.045 156.755 437.211 155.452 437.108C153.739 436.928 152.402 437.648 150.98 438.325C150.385 438.701 149.666 438.826 148.979 438.674C148.292 438.521 147.693 438.103 147.313 437.511C146.182 435.951 145.694 434.16 147.399 432.892C148.573 432.035 148.41 431.452 147.819 430.536L147.776 430.561Z" fill="#FEFEFE"/>
<path d="M158.048 464.031C157.954 462.986 156.446 462.506 156.994 461.323C157.109 461.22 157.249 461.15 157.399 461.12C157.55 461.09 157.706 461.101 157.851 461.152C158.888 461.94 158.536 462.977 158.048 464.031Z" fill="#FEFEFE"/>
</g>
<defs>
<radialGradient id="paint0_radial" cx="0" cy="0" r="1" gradientUnits="userSpaceOnUse" gradientTransform="translate(304 83.1977) rotate(68.9167) scale(756.133 1176.2)">
<stop offset="0.248856" stop-color="#7571A5"/>
<stop offset="1" stop-color="#D2D2D4"/>
</radialGradient>
<clipPath id="clip0">
<rect width="809" height="519" fill="white" transform="translate(127 216)"/>
</clipPath>
</defs>
</svg>
