<svg width="619" height="404" viewBox="0 0 619 404" fill="none" xmlns="http://www.w3.org/2000/svg">
<circle cx="168" cy="376" r="10" fill="white"/>
<circle cx="222.5" cy="296.5" r="5.5" fill="white"/>
<circle cx="287.5" cy="317.5" r="5.5" fill="white"/>
<circle cx="398.5" cy="352.5" r="5.5" fill="white"/>
<circle cx="427.5" cy="398.5" r="5.5" fill="white"/>
<circle cx="228.5" cy="398.5" r="5.5" fill="white"/>
<circle cx="391.5" cy="240.5" r="5.5" fill="white"/>
<circle cx="492" cy="267" r="5" fill="white"/>
<circle cx="614" cy="50" r="5" fill="white"/>
<circle cx="482" cy="398" r="5" fill="#FFFD99"/>
<circle cx="282" cy="200" r="5" fill="white"/>
<circle cx="340" cy="5" r="5" fill="#FFF996"/>
<circle cx="400" cy="170" r="5" fill="#FFF996"/>
<circle cx="446" cy="96" r="8" fill="white"/>
<circle cx="589" cy="202" r="8" fill="#FFFD99"/>
<circle cx="267" cy="356" r="10" fill="#FFFD99"/>
<path d="M365.5 376L367.408 381.873L373.584 381.873L368.588 385.503L370.496 391.377L365.5 387.747L360.504 391.377L362.412 385.503L357.416 381.873L363.592 381.873L365.5 376Z" fill="#FFFD99"/>
<path d="M342.5 323L344.408 328.873L350.584 328.873L345.588 332.503L347.496 338.377L342.5 334.747L337.504 338.377L339.412 332.503L334.416 328.873L340.592 328.873L342.5 323Z" fill="#FFFD99"/>
<path d="M87 187L89.0206 193.219H95.5595L90.2694 197.062L92.2901 203.281L87 199.438L81.7099 203.281L83.7306 197.062L78.4405 193.219H84.9794L87 187Z" fill="white"/>
<path d="M19 285L21.0206 291.219H27.5595L22.2694 295.062L24.2901 301.281L19 297.438L13.7099 301.281L15.7306 295.062L10.4405 291.219H16.9794L19 285Z" fill="white"/>
<path d="M334 279L335.347 283.146H339.706L336.18 285.708L337.527 289.854L334 287.292L330.473 289.854L331.82 285.708L328.294 283.146H332.653L334 279Z" fill="white"/>
<path d="M299 387L300.347 391.146H304.706L301.18 393.708L302.527 397.854L299 395.292L295.473 397.854L296.82 393.708L293.294 391.146H297.653L299 387Z" fill="white"/>
<path d="M380 291L381.347 295.146H385.706L382.18 297.708L383.527 301.854L380 299.292L376.473 301.854L377.82 297.708L374.294 295.146H378.653L380 291Z" fill="white"/>
<path d="M136 323L137.347 327.146H141.706L138.18 329.708L139.527 333.854L136 331.292L132.473 333.854L133.82 329.708L130.294 327.146H134.653L136 323Z" fill="white"/>
<path d="M53.5 10L55.1839 15.1824H60.6329L56.2245 18.3853L57.9084 23.5676L53.5 20.3647L49.0916 23.5676L50.7755 18.3853L46.3671 15.1824H51.8161L53.5 10Z" fill="white"/>
<path d="M177.5 85L179.633 91.5643H186.535L180.951 95.6213L183.084 102.186L177.5 98.1287L171.916 102.186L174.049 95.6213L168.465 91.5643H175.367L177.5 85Z" fill="#FFF996"/>
<path d="M9.5 104L11.6329 110.564H18.535L12.9511 114.621L15.084 121.186L9.5 117.129L3.91604 121.186L6.04892 114.621L0.464963 110.564H7.36712L9.5 104Z" fill="#FFF996"/>
<path d="M420 323L421.796 328.528H427.608L422.906 331.944L424.702 337.472L420 334.056L415.298 337.472L417.094 331.944L412.392 328.528H418.204L420 323Z" fill="white"/>
<path d="M505 331L506.796 336.528H512.608L507.906 339.944L509.702 345.472L505 342.056L500.298 345.472L502.094 339.944L497.392 336.528H503.204L505 331Z" fill="white"/>
<path d="M150 246L151.796 251.528H157.608L152.906 254.944L154.702 260.472L150 257.056L145.298 260.472L147.094 254.944L142.392 251.528H148.204L150 246Z" fill="white"/>
</svg>
