<svg width="466" height="519" viewBox="0 0 466 519" fill="none" xmlns="http://www.w3.org/2000/svg">
<rect width="466" height="519" fill="url(#paint0_radial)"/>
<path d="M263.181 148.131C262.267 144.165 264.746 132.07 265.748 128.683C267.244 123.776 269.888 119.439 272.607 115.214C275.121 111.419 277.976 107.862 281.136 104.586C283.512 102.051 286.065 99.8052 288.652 97.532C289.8 96.527 291.29 96.4981 292.48 95.6648C296.351 92.9613 300.842 91.4809 305.194 89.9039C309.553 88.4037 314.096 87.5051 318.699 87.233C321.524 87.0267 324.324 86.9884 327.135 86.991C330.693 86.9981 334.106 88.0023 337.562 88.6353C341.431 89.4349 345.178 90.7407 348.707 92.5188C349.036 92.6772 349.434 93.0221 349.787 92.4776C350.696 91.072 351.98 89.9886 353.045 88.6859C354.229 87.234 354.854 84.8206 357.701 85.0886C358.438 85.1625 359.371 83.6426 360.149 82.7968C363.714 79.0463 367.723 75.7449 372.087 72.9657C377.439 69.4236 383.215 66.5688 389.279 64.4684C395.025 62.476 401.155 61.8445 407.186 62.6236C411.905 63.2472 416.528 64.1476 420.825 66.215C424.065 67.7712 427.123 69.5886 428.782 73.1146C429.748 75.1554 428.948 76.9058 428.378 78.6612C426.246 84.9691 422.821 90.763 418.324 95.673C416.046 98.2244 413.723 100.776 411.515 103.382C409.517 105.748 407.386 108.033 405.533 110.539C402.98 113.967 399.909 116.92 397.034 120.056C392.17 125.351 386.89 130.243 382.226 135.714C381.944 136.004 381.732 136.355 381.605 136.739C381.477 137.123 381.439 137.531 381.491 137.933C382.653 146.046 381.512 153.989 379.978 161.958C378.868 167.366 377.438 172.704 375.695 177.943C375.148 179.557 374.443 181.114 373.59 182.59C372.375 184.787 372.059 187.342 370.639 189.471C367.475 194.283 363.644 198.621 359.26 202.355C353.107 207.54 345.797 210.694 338.379 213.418C333.084 215.258 327.458 215.952 321.875 215.455C316.484 215.076 311.228 214.39 306.087 212.503C303.229 211.49 300.454 210.258 297.786 208.818C297.231 208.483 296.59 208.319 295.942 208.344C295.295 208.369 294.669 208.583 294.141 208.959C290.013 211.505 285.957 214.223 281.669 216.583C278.607 218.27 275.683 220.186 272.59 221.847C268.927 223.758 265.158 225.461 261.303 226.946C256.132 229.001 250.86 231.08 245.158 230.815C240.208 230.579 235.947 228.686 233.057 224.397C230.45 220.535 229.491 216.132 228.804 211.618C228.242 207.939 229.234 204.544 229.987 201.049C230.556 198.529 231.374 196.072 232.429 193.714C233.652 190.811 235.093 188.004 236.739 185.318C238.381 182.688 239.568 179.758 240.939 176.97C242.907 173.012 245.492 169.393 248.598 166.247C249.871 164.84 251.027 163.331 252.055 161.736C253.914 159.123 256.249 157.024 258.578 154.908C259.316 154.191 260.008 153.427 260.649 152.622C260.877 152.298 261.185 152.039 261.544 151.871C261.902 151.703 262.298 151.631 262.692 151.662C263.383 150.9 263.876 150.497 263.761 150.201L263.181 148.131Z" fill="#3A4453"/>
<path d="M263.758 153.601C263.34 153.723 262.689 154.154 262.347 154.027C261.835 153.81 261.929 154.24 261.822 154.417C260.919 155.852 259.598 156.834 258.305 157.895C256.332 159.576 254.627 161.549 253.248 163.744C251.504 166.425 249.198 168.622 247.185 171.06C245.099 173.587 243.72 176.509 242.156 179.334C240.29 182.689 238.823 186.256 236.745 189.512C235.377 191.796 234.261 194.221 233.417 196.746C231.932 200.739 230.777 204.878 230.66 209.151C230.657 212.031 231.097 214.894 231.964 217.64C232.521 219.843 233.492 221.919 234.827 223.758C237.967 227.84 242.154 229.289 247.142 228.901C250.774 228.641 254.159 227.533 257.598 226.402C261.177 225.198 264.677 223.77 268.078 222.128C271.488 220.485 274.782 218.612 277.937 216.52C280.357 214.934 282.921 213.533 285.389 211.998C288.12 210.329 290.912 208.758 293.937 207.002C291.334 205.511 288.928 204.131 286.892 202.199C286.506 201.836 286.001 201.649 285.247 202.203C281.554 204.882 277.817 207.52 273.924 209.886C269.155 212.863 263.793 214.764 258.214 215.457C255.165 215.812 252.234 216.076 249.221 215.363C245.949 214.612 243.773 212.551 242.189 209.744C240.977 207.735 240.291 205.452 240.193 203.107C240.094 200.763 240.588 198.431 241.627 196.327C242.488 194.446 242.99 192.399 243.731 190.452C245.241 186.663 247.157 183.049 249.444 179.673C251.147 177.197 252.643 174.584 253.915 171.861C255.822 167.542 258.603 163.734 263.044 161.504C264.278 160.88 264.541 157.021 264.124 155.116L263.758 153.601Z" fill="#D9A672"/>
<path d="M273.278 178.433C269.476 169.977 267.055 160.966 266.106 151.744C265.493 146.074 265.642 140.347 266.548 134.717C267.261 130.526 268.692 126.49 270.778 122.787C273.692 117.257 277.224 112.076 281.306 107.342C284.107 104.172 286.89 100.913 290.504 98.6736C293.662 96.7228 296.487 94.1701 300.18 93.1257C304.132 92.002 308.109 91.0113 312.138 90.1552C317.993 88.8831 324.014 88.553 329.974 89.1773C333.178 89.4525 336.33 90.1638 339.342 91.2915C341.814 92.2507 344.282 93.2446 346.751 94.2251C347.342 94.46 348.011 94.5112 347.34 95.5001C347.014 95.9871 347.429 96.9781 348.295 96.3496C350.214 94.966 351.577 96.3842 352.971 97.175C356.95 99.4449 360.416 102.42 363.977 105.281C367.538 108.143 369.745 112.243 372.605 115.735C372.934 116.135 372.688 116.352 372.332 116.708C370.629 118.424 368.93 120.137 367.171 121.798C364.088 124.71 361.277 127.917 358.113 130.733C353.987 134.396 349.824 138.014 345.623 141.587C340.289 146.124 335.014 150.74 329.449 155.017C325.633 157.971 322.204 161.412 318.373 164.332C313.851 167.8 309.013 170.868 304.466 174.308C300.867 177.024 297.167 179.595 293.418 182.023C290.322 184.018 287.347 186.195 284.507 188.541C283.453 189.414 282.011 189.736 281.075 190.885C280.646 191.403 280.015 191.153 279.651 190.493C277.322 186.321 274.536 182.38 273.278 178.433Z" fill="#FFDA74"/>
<path d="M379.418 138.474C380.599 146.677 379.311 154.141 377.925 161.621C376.862 167.038 375.432 172.376 373.645 177.599C373.234 178.841 372.466 180.016 371.965 181.278C370.426 185.282 368.881 189.38 365.997 192.585C362.322 196.668 358.679 200.795 353.933 203.85C349.423 206.714 344.635 209.115 339.643 211.016C337.084 212.009 334.314 212.433 331.579 212.94C327.948 213.612 324.326 213.397 320.74 213.264C318.035 213.157 315.346 212.785 312.713 212.153C307.679 210.996 302.835 209.124 298.33 206.595C301.858 204.171 305.346 201.803 308.849 199.442C312.352 197.081 315.58 194.25 318.838 191.517C323.289 187.793 327.668 183.994 332.273 180.445C334.307 178.875 336.086 176.97 338.013 175.243C342.109 171.573 346.059 167.719 350.365 164.311C355.636 160.141 360.557 155.567 365.924 151.513C369.835 148.47 373.496 145.118 376.87 141.489C377.67 140.633 378.916 140.174 379.418 138.474Z" fill="#FFDA74"/>
<path d="M356.075 96.1161C354.934 95.4763 353.754 94.9071 352.543 94.4117C351.191 93.943 351.435 93.2364 352.095 92.4807C353.003 91.4353 354.18 90.6334 354.616 89.2361C354.718 88.9112 355.014 88.842 355.336 88.9972C356.221 89.426 356.704 88.8646 357.288 88.3116C360.489 85.264 363.621 82.1345 366.993 79.2873C369.965 76.8181 373.122 74.5816 376.437 72.5975C378.645 71.2463 381.007 70.2399 383.262 68.9989C388.715 65.9922 394.72 64.8256 400.908 64.9138C407.095 65.002 413.107 65.5318 418.788 67.9299C421.325 68.9207 423.599 70.4818 425.436 72.4925C426.74 74.0014 426.695 75.5309 426.302 77.014C425.571 79.7806 424.491 82.4428 423.088 84.9367C421.042 88.5387 418.85 92.0599 416.027 94.9837C413.673 97.4179 411.5 100.016 409.317 102.559C406.778 105.517 404.364 108.618 401.871 111.654C397.643 116.653 393.131 121.405 388.356 125.885C385.859 128.23 383.689 130.925 381.277 133.56C380.837 132.221 380.827 131.003 380.345 129.884C379.17 127.163 381.226 125.582 382.901 124.285C386.185 121.809 388.74 118.674 391.174 115.486C394.884 110.65 398.564 105.807 402.451 101.11C405.177 97.8097 407.64 94.2957 409.238 90.2599C409.66 89.3728 410.154 88.5215 410.714 87.7144C412.372 84.9991 412.776 82.2103 411.589 79.141C411.163 77.9937 410.424 76.9886 409.457 76.2395C408.489 75.4904 407.331 75.0273 406.113 74.9026C404.191 74.6732 402.263 74.0673 400.258 74.266C396.88 74.5996 393.54 75.2042 390.181 75.5819C384.058 76.2634 378.542 78.6108 373.071 81.1353C369.751 82.6656 366.855 84.9026 363.827 86.9736C360.996 88.9078 359.244 91.9188 356.535 93.9568C355.747 94.552 355.414 95.2643 356.086 96.1704L356.075 96.1161Z" fill="#D9A672"/>
<path d="M375.549 121.589C376.393 122.727 376.395 124.459 377.025 125.978C377.548 127.19 376.367 127.83 375.695 128.362C371.91 131.374 368.73 135.028 365.042 138.142C361.936 140.789 358.831 143.436 355.742 146.076C353.296 148.145 350.537 149.793 348.233 152.101C346.022 154.323 343.174 155.885 340.741 157.909C336.983 161.028 332.848 163.636 329.139 166.837C326.578 169.065 323.877 171.128 321.054 173.013C318.295 174.857 315.818 177.128 313.218 179.204C308.997 182.568 304.957 186.2 300.494 189.198C296.511 191.871 292.7 194.777 288.684 197.386C288.636 197.42 288.581 197.443 288.524 197.455C287.647 197.65 287.484 199.211 286.277 198.699C285.318 198.309 284.994 197.24 284.24 196.598C283.988 196.379 283.901 195.979 283.668 195.727C281.19 193.104 281.089 192.552 284.174 190.934C286.482 189.709 288.176 187.821 290.286 186.427C294.382 183.712 298.437 180.949 302.55 178.259C304.877 176.745 306.904 174.857 309.242 173.338C313.155 170.807 316.974 168.087 320.619 165.161C325.489 161.302 330.133 157.193 334.891 153.212C339.031 149.752 343.338 146.468 347.317 142.83C351.091 139.371 354.999 136.071 358.844 132.699C363.429 128.681 367.62 124.265 371.933 119.992C374.002 117.943 373.925 117.825 375.081 120.503L375.549 121.589Z" fill="#967057"/>
<path d="M296.741 205.217C296.334 205.485 295.742 205.354 294.902 204.847C292.922 203.761 291.036 202.511 289.264 201.111C288.554 200.509 288.323 200.079 289.301 199.408C292.004 197.556 294.564 195.477 297.297 193.71C301.074 191.269 304.66 188.572 308.211 185.837C312.342 182.642 316.345 179.274 320.45 176.052C322.361 174.574 324.41 173.265 326.331 171.795C328.371 170.222 330.381 168.597 332.323 166.903C334.889 164.671 337.798 162.932 340.4 160.724C344.027 157.636 348.032 155.059 351.599 151.846C354.558 149.177 358.033 147.07 361.088 144.412C366.102 140.039 371.207 135.757 375.776 130.884C376.256 130.376 376.937 129.363 377.698 129.734C378.328 130.044 378.629 131.045 378.577 131.923C378.558 132.037 378.568 132.155 378.607 132.264C380.259 135.943 377.631 137.757 375.408 139.814C373.506 141.569 371.757 143.468 369.917 145.262C366.659 148.432 363.05 151.186 359.517 154.037C356.302 156.627 353.293 159.468 350.063 162.038C348.4 163.363 346.91 164.863 345.168 166.111C343.427 167.359 341.95 169.042 340.296 170.449C335.299 174.677 330.579 179.217 325.367 183.205C320.686 186.806 316.447 190.975 311.859 194.713C308.979 197.117 305.89 199.259 302.63 201.114C301.151 202.014 299.761 203.051 298.478 204.213C297.927 204.594 297.346 204.93 296.741 205.217Z" fill="#D9A672"/>
<path d="M356.056 96.164C356.893 96.3456 357.423 95.9535 358.012 95.3658C361.827 91.576 366.227 88.5529 370.666 85.559C373.768 83.5383 377.086 81.8718 380.559 80.5905C385.217 78.7701 390.141 78.0505 395.08 77.442C395.936 77.3344 396.78 77.1857 397.635 77.0781C401.222 76.6218 404.736 76.8764 407.919 78.7251C409.305 79.5128 410.517 83.2313 409.734 84.5822C407.49 88.4659 405.802 92.6714 403.226 96.3644C401.177 99.2943 398.853 102.01 396.526 104.72C392.894 108.947 389.961 113.736 386.291 117.921C384.04 120.437 381.597 122.775 378.982 124.911C378.654 122 377.439 119.381 376.11 116.83C375.744 116.119 376.238 115.932 376.438 115.774C379.983 112.844 383.235 109.576 386.146 106.016C389.564 102.036 392.719 97.8368 395.588 93.4448C396.506 92.1432 397.024 90.6022 397.079 89.0105C397.019 85.115 394.494 83.7927 390.756 84.3211C385.299 85.0939 380.333 87.4265 375.473 89.792C372.017 91.4412 368.772 93.4998 365.807 95.9236C364.403 97.0916 362.534 97.6824 361.496 99.3199C361.395 99.4809 361.323 99.7671 361.017 99.5267C359.46 98.2375 357.491 97.6104 356.091 96.123L356.056 96.164Z" fill="#967057"/>
<path d="M259.505 206.879C263.053 205.348 266.142 203.028 269.444 201.139C272.124 199.61 274.603 197.814 277.175 196.142C277.987 195.616 278.815 194.461 279.503 194.556C280.191 194.651 280.619 196.036 281.252 196.775C282.042 197.683 282.73 198.687 283.58 199.536C284.324 200.306 284.048 200.771 283.465 201.147C278.111 204.595 273.173 208.706 267.274 211.284C264.747 212.331 262.092 213.037 259.378 213.384C256.574 213.791 253.801 214.301 250.862 213.791C249.67 213.638 248.519 213.251 247.476 212.652C246.433 212.054 245.518 211.256 244.783 210.303C241.703 206.299 241.498 201.917 243.398 197.326C244.251 195.259 244.98 193.147 245.696 191.021C247.005 187.464 248.8 184.106 251.028 181.04C253.326 177.703 255.103 174.053 257.06 170.516C258.746 167.345 261.276 164.702 264.37 162.878C265.131 162.432 265.433 162.798 265.635 163.463C266.287 165.58 266.932 167.694 267.6 169.804C267.754 170.281 267.507 170.465 267.156 170.591C263.613 171.8 261.847 174.947 259.985 177.718C256.292 183.219 253.337 189.181 251.195 195.452C250.28 198.101 249.739 200.753 250.312 203.611C250.957 206.816 254.58 208.958 257.534 207.716L259.505 206.879Z" fill="#967057"/>
<path d="M271.486 179.703C273.047 183.729 275.082 187.555 277.548 191.1C278.167 191.99 278.261 192.753 277.188 193.628C274.416 195.797 271.497 197.771 268.451 199.535C265.96 201.016 263.506 202.552 261.056 204.099C259.62 205.032 258.045 205.732 256.39 206.172C254.249 206.71 252.596 204.952 252.471 202.438C252.315 199.819 252.972 197.405 253.826 194.977C255.5 190.165 257.727 185.563 260.462 181.264C262.351 178.312 264.172 175.232 266.912 172.873C267.926 171.998 268.292 172.18 268.742 173.299C269.503 175.213 270.364 177.103 271.486 179.703ZM362.629 101.007C365.613 97.7594 369.537 96.4056 372.951 94.2462C377.326 91.4825 382.093 89.687 386.77 87.5773C388.156 86.9766 389.631 86.605 391.137 86.4769C394.4 86.1475 395.717 87.8667 394.563 90.9331C393.749 92.863 392.65 94.6594 391.302 96.262C386.793 102.077 382.374 107.997 376.781 112.874C374.788 114.616 374.611 114.752 373.322 112.55C370.636 107.973 366.988 104.035 362.629 101.007Z" fill="#B7B7B7"/>
<path d="M298.556 158.629C298.182 158.731 297.89 158.949 297.688 158.572C297.605 158.457 297.562 158.317 297.567 158.175C297.573 158.033 297.625 157.897 297.716 157.789C298.085 157.264 298.717 157.154 299.115 156.773C301.831 154.322 304.423 151.736 306.88 149.024C311.058 144.169 315.218 139.302 319.468 134.507C322.014 131.624 324.336 128.551 326.414 125.314C329.45 120.612 332.965 116.265 335.772 111.38C335.971 111.04 336.271 110.766 336.605 110.903C337.166 111.145 337.025 111.65 336.838 112.11C336.118 113.91 334.848 115.374 333.763 116.933C331.057 120.807 328.518 124.798 325.817 128.669C323.385 132.01 320.764 135.21 317.967 138.253C314.756 141.88 311.51 145.49 308.407 149.201C305.633 152.565 302.483 155.602 299.021 158.252C298.827 158.394 298.657 158.546 298.556 158.629Z" fill="#3A4453"/>
<path d="M292.216 145.497C291.712 145.512 291.304 146.185 290.921 145.526C290.539 144.868 291.234 144.842 291.527 144.552C292.76 143.367 293.944 142.111 295.124 140.863C298.144 137.772 300.984 134.51 303.631 131.094C305.298 128.898 307.476 127.161 309.037 124.873C311.608 121.109 314.311 117.407 316.754 113.589C319.499 109.351 322.283 105.202 324.606 100.71C324.823 100.29 325.187 99.9822 325.586 100.287C325.986 100.592 325.876 101.155 325.632 101.574C324.331 103.829 323.052 106.106 321.678 108.313C320.039 110.981 318.337 113.578 316.566 116.153C313.965 119.968 311.586 123.981 308.578 127.443C305.333 131.176 302.338 135.123 298.953 138.727C296.989 140.81 294.972 142.844 292.973 144.889C292.733 145.107 292.48 145.31 292.216 145.497Z" fill="#3A4453"/>
<path d="M311.161 98.1461C311.234 98.4808 311.308 98.6516 311.111 98.8932C308.367 102.332 306.588 106.401 303.908 109.884C301.322 113.116 298.466 116.122 295.37 118.869C292.214 121.779 289.009 124.633 286.126 127.825C284.874 129.33 283.414 130.648 281.79 131.742C281.387 131.988 281.12 132.868 280.574 132.299C280.028 131.731 280.514 131.221 281.129 130.785C282.671 129.581 284.087 128.224 285.354 126.733C289.161 122.685 293.485 119.166 297.38 115.23C300.021 112.667 302.389 109.838 304.448 106.788C306.105 104.223 307.334 101.36 309.311 99.0229C309.769 98.4923 310.196 97.5299 311.161 98.1461Z" fill="#3A4453"/>
<path d="M349.55 112.449C349.38 113.435 349.146 114.41 348.848 115.366C346.943 120.234 345.655 125.456 342.115 129.474C339.999 131.87 338.419 134.69 336.022 136.842C335.71 137.12 335.416 137.528 335.022 137.116C334.629 136.704 334.799 136.265 335.166 135.858C338.623 131.968 342.171 128.044 344.437 123.361C345.828 120.515 346.921 117.533 347.701 114.463C347.864 113.776 348.1 113.11 348.404 112.473C348.593 112.078 349.006 111.749 349.55 112.449Z" fill="#3A4453"/>
<path d="M355.32 172.644C355.408 172.964 355.411 173.301 355.328 173.622C355.246 173.943 355.08 174.237 354.849 174.475C353.182 176.501 352.525 179.053 351.43 181.362C349.797 184.785 347.594 187.782 345.363 190.79C344.915 191.388 344.613 192.081 344.14 192.664C343.828 193.047 343.358 193.518 342.823 193.036C342.289 192.555 342.908 192.202 343.139 191.861C345.016 189.123 347.041 186.471 348.745 183.651C350 181.509 351.073 179.266 351.955 176.945C352.555 175.458 353.627 174.263 354.22 172.805C354.414 172.375 354.873 172.046 355.32 172.644Z" fill="#3A4453"/>
<path d="M261.868 344.037C262.255 347.423 261.677 350.953 260.805 354.388C260.293 356.398 260.093 358.621 258.612 360.319C258.493 360.435 258.416 360.588 258.395 360.753C258.482 363.397 256.186 364.696 255.131 366.68C254.076 368.664 252.526 370.127 251.141 371.751C249.467 373.654 247.464 375.241 245.229 376.436C242.436 378.054 239.535 379.478 236.546 380.696C233.021 382.046 229.444 383.244 225.862 384.443C222.663 385.512 219.386 386.331 216.06 386.891C212.912 387.35 209.711 387.313 206.574 386.783C203.73 386.399 200.926 385.759 198.196 384.872C196.333 384.243 194.445 383.735 192.656 382.701C190.868 381.668 189.036 380.669 187.173 379.749C185.462 378.823 183.876 377.682 182.454 376.354C179.248 373.62 176.255 370.644 173.503 367.453C170.751 364.196 168.814 360.445 167.186 356.572C166.383 354.653 165.337 352.842 164.751 350.81C163.883 347.81 162.941 344.853 162.45 341.749C161.821 337.758 161.881 333.751 162.016 329.752C162.094 327.303 162.663 324.876 163.219 322.462C164.056 318.849 164.825 315.215 166.388 311.841C167.256 309.966 168.055 308.055 169.114 306.249C170.23 304.347 171.193 302.341 172.513 300.579C173.779 298.846 175.364 297.372 177.184 296.237C179.281 294.956 181.352 293.631 183.431 292.329C185.094 291.291 187.13 290.866 188.966 290.097C190.586 289.415 192.361 289.663 193.998 289.103C194.386 288.975 194.808 288.989 195.187 289.141C195.567 289.294 195.881 289.575 196.073 289.937C196.438 290.761 196.859 290.449 197.215 290.245C198.613 289.515 200.115 289.004 201.669 288.729C203.097 288.417 204.534 288.478 205.945 288.356C208.441 288.139 210.959 287.809 213.481 288.03C217.141 288.352 220.861 288.465 224.434 289.146C226.979 289.592 229.44 290.427 231.732 291.621C233.959 292.82 236.455 293.406 238.578 294.882C240.128 295.959 241.647 297.053 243.123 298.238C245.728 300.305 247.434 303.158 249.5 305.693C251.2 307.84 252.611 310.201 253.698 312.714C254.788 315.124 255.986 317.49 256.572 320.143C256.932 321.423 257.401 322.669 257.974 323.869C258.978 326.507 259.797 329.211 260.427 331.962C261.031 334.261 261.499 336.594 261.829 338.948C262.042 340.55 261.868 342.2 261.868 344.037Z" fill="#3A4453"/>
<path d="M151.015 372.801C154.193 372.484 156.724 374.368 159.194 376.361C160.062 377.047 160.848 377.816 161.664 378.558C164.582 381.211 164.89 384.559 164.195 388.167C163.761 390.316 163.062 392.43 161.66 394.072C160.197 395.808 158.552 397.311 156.233 398.144C153.531 399.138 150.555 399.09 147.885 398.01C145.58 397.141 143.11 396.395 141.23 394.684C139.251 392.895 138.79 390.398 138.243 387.937C137.323 383.812 139.112 380.733 141.925 378.007C142.046 377.889 142.255 377.737 142.242 377.629C141.968 375.458 143.648 375.076 145.059 374.203C146.865 373.092 148.728 372.766 151.015 372.801Z" fill="#3A4453"/>
<path d="M281.165 377.964C278.942 378.056 277.171 376.909 275.179 377.157C275.092 377.168 275.005 377.159 274.922 377.13C274.84 377.102 274.766 377.054 274.705 376.992C274.645 376.93 274.599 376.854 274.573 376.771C274.547 376.688 274.54 376.6 274.553 376.514C274.548 376.428 274.561 376.341 274.593 376.26C274.624 376.18 274.673 376.107 274.737 376.048C274.8 375.988 274.875 375.944 274.958 375.917C275.04 375.89 275.127 375.882 275.213 375.893C276.516 375.941 277.866 375.724 279.168 376.024C279.511 376.102 279.841 376.236 280.136 376.024C280.748 375.624 281.734 376.271 282.042 375.624C282.453 374.66 282.694 373.631 282.754 372.585C282.836 371.66 283.188 370.77 283.058 369.815C283.043 369.729 283.049 369.641 283.074 369.558C283.099 369.475 283.143 369.399 283.202 369.335C283.261 369.272 283.334 369.223 283.415 369.193C283.496 369.162 283.584 369.15 283.67 369.159C284.074 369.159 284.252 369.393 284.334 369.789C284.644 370.956 284.884 372.14 285.055 373.336C285.103 373.965 285.806 374.178 285.689 374.877C285.632 375.199 286.049 374.955 286.262 374.877C287.317 374.408 288.376 373.952 289.426 373.479C289.978 373.227 290.659 373.015 290.968 373.592C291.276 374.17 291.072 374.721 290.334 375.107C289.301 375.641 288.406 376.432 287.399 377.022C286.665 377.456 286.635 377.956 286.965 378.603C287.4 379.551 287.908 380.464 288.484 381.334C288.671 381.585 288.805 381.872 288.88 382.176C288.954 382.48 288.967 382.796 288.918 383.105C288.884 383.435 289.196 383.939 288.645 384.082C288.094 384.225 287.49 384.169 287.317 383.613C286.939 382.406 285.81 381.82 285.194 380.804C284.464 379.61 283.692 379.614 282.915 380.748C282.246 381.729 281.473 382.61 280.722 383.522C280.375 383.956 280.171 384.608 279.498 384.278C278.825 383.948 279.09 383.266 279.181 382.762C279.527 381.05 280.201 379.421 281.165 377.964Z" fill="#3A4453"/>
<path d="M315.808 342.894C315.048 342.998 314.801 342.686 314.697 341.904C314.514 340.545 314.471 339.164 313.972 337.844C313.169 335.712 311.879 334.983 309.631 335.513C308.771 335.704 307.901 335.849 307.026 335.947C306.557 336.008 306.04 336.008 305.962 335.343C305.897 334.796 306.153 334.601 306.692 334.366C308.083 333.709 309.394 332.893 310.599 331.935C312.196 330.745 312.422 328.896 312.895 327.159C313.16 326.199 313.03 325.209 313.225 324.271C313.316 323.837 313.225 323.017 314.093 323.069C314.736 323.108 314.862 323.711 314.962 324.176C315.326 326.065 316.49 327.732 316.581 329.668C316.655 331.314 317.822 331.653 318.986 331.757C319.984 331.844 321.1 332.191 322.064 331.388C322.272 331.214 322.728 331.275 323.062 331.31C323.397 331.344 323.996 331.023 324 331.783C324 332.265 324 332.651 323.384 332.864C321.491 333.546 319.802 334.649 318.079 335.669C317.792 335.841 317.548 336.077 317.367 336.359C317.187 336.641 317.073 336.96 317.037 337.293C316.746 338.912 316.394 340.528 316.533 342.191C316.585 342.772 316.364 342.998 315.808 342.894Z" fill="#3A4453"/>
<path d="M294.193 277.466C292.826 277.032 291.054 276.467 289.687 275.347C288.871 274.678 288.745 273.28 289.057 272.143C289.324 271.394 289.683 270.68 290.125 270.019C290.269 269.768 290.52 269.429 290.755 269.403C292.405 269.225 294.115 268.721 295.708 269.203C297.301 269.685 298.118 271.031 298.435 272.677C298.825 274.661 296.602 277.431 294.193 277.466Z" fill="#3A4453"/>
<path d="M301.573 285.816C301.339 284.513 303.796 282.142 305.168 282.099C305.602 282.099 306.088 282.047 306.201 282.598C306.314 283.15 305.975 283.315 305.467 283.406C304.339 283.619 303.77 284.431 303.249 285.408C302.728 286.384 303.114 286.962 303.852 287.496C304.027 287.608 304.215 287.697 304.412 287.761C305.207 288.052 305.945 288.985 306.852 288.03C307.568 287.279 307.755 285.481 307.217 284.578C306.943 284.144 306.349 283.623 306.961 283.189C307.495 282.815 307.937 283.436 308.341 283.814C309.574 284.969 309.01 287.379 307.99 288.903C307.265 289.98 305.862 290.045 304.33 289.389C302.797 288.733 301.578 287.791 301.573 285.816Z" fill="#3A4453"/>
<path d="M292.834 282.611C295.569 282.611 296.563 283.588 296.741 285.924C296.893 288.056 295.265 288.794 293.242 288.507C292.6 288.445 291.979 288.243 291.422 287.917C290.865 287.591 290.386 287.148 290.017 286.619C289.758 286.153 289.625 285.628 289.629 285.095C289.634 284.563 289.776 284.04 290.043 283.579C290.477 282.711 291.298 282.52 292.214 282.598C292.4 282.628 292.622 282.611 292.834 282.611Z" fill="#3A4453"/>
<path d="M249.461 310.109C251.603 313.459 253.214 317.121 254.237 320.964C254.58 321.987 254.992 322.987 255.469 323.955C256.668 326.965 257.655 330.055 258.421 333.203C259.172 336.021 259.815 338.948 259.607 341.944C259.621 342.114 259.607 342.286 259.563 342.452C259.103 343.35 255.686 344.683 254.632 344.544C252.971 344.392 251.301 344.38 249.639 344.51C247.79 344.588 246.309 345.439 244.825 346.416C243.891 347.028 243.353 347.718 243.357 348.86C243.357 350.315 243.357 351.691 242.715 353.163C241.465 356.016 242.936 358.434 244.742 360.618C245.111 361.052 245.68 361.139 246.192 361.304C247.495 361.717 248.042 361.243 247.716 359.945C247.629 359.598 247.681 359.077 247.217 358.895C246.631 358.682 246.783 359.537 246.253 359.563C245.632 358.63 244.859 357.77 244.421 356.654C244.234 356.145 244.165 355.6 244.218 355.061C244.27 354.521 244.444 354 244.725 353.537C245.341 352.416 245.159 351.314 245.159 350.198C245.202 348.231 246.852 346.655 248.866 346.477C251.012 346.212 253.181 346.212 255.326 346.477C255.977 346.577 256.642 346.5 257.253 346.255C257.864 346.01 258.398 345.605 258.799 345.083C258.947 344.909 259.09 344.649 259.576 344.796C259.68 349.924 258.582 354.83 256.537 359.811C254.484 357.206 251.597 357.64 249.04 357.071C248.484 356.954 247.803 357.032 247.738 357.87C247.673 358.708 248.128 359.198 248.966 359.099C250.399 358.925 251.719 359.476 253.09 359.659C254.128 359.793 254.775 360.709 255.604 361.265C255.956 361.5 255.526 361.825 255.422 362.038C254.197 364.496 252.444 366.588 250.646 368.642C249.739 369.689 248.91 370.813 247.733 371.625C247.57 371.772 247.365 371.864 247.147 371.888C246.929 371.913 246.709 371.868 246.518 371.76C244.291 370.848 242.094 369.771 239.572 369.919C238.397 369.953 237.257 370.327 236.29 370.995C235.091 371.879 233.715 372.493 232.257 372.797C231.772 372.917 231.324 373.156 230.955 373.492C230.778 373.644 230.567 373.749 230.34 373.8C230.113 373.851 229.877 373.845 229.652 373.783C226.709 373.223 223.718 373.11 220.748 372.784C219.633 372.663 218.734 373.479 217.649 373.7C214.875 374.265 212.639 375.91 210.612 377.838C210.421 378.055 210.173 378.211 209.895 378.289C209.618 378.367 209.324 378.363 209.049 378.277C208.64 378.149 208.209 378.109 207.783 378.158C207.358 378.207 206.947 378.345 206.579 378.563C206.071 378.902 205.493 378.724 204.951 378.724C201.912 378.724 199.39 379.97 197.284 382.067C196.932 382.419 196.85 382.211 196.594 382.128C194.792 381.529 193.286 380.357 191.567 379.597C190.881 379.297 190.264 378.789 189.596 378.498C186.587 377.243 184.187 375.181 181.821 373.01C179.19 370.596 177.158 367.656 174.662 365.173C172.917 363.427 171.48 361.398 170.412 359.172C169.544 357.397 169.005 355.443 168.302 353.584C167.72 352.047 167.169 350.489 166.566 348.943C165.754 346.624 165.163 344.234 164.799 341.805C164.243 338.653 164.239 335.457 164.269 332.253C164.349 329.142 164.764 326.048 165.506 323.026C166.231 319.813 166.948 316.617 168.111 313.53C169.179 310.708 170.716 308.142 172.17 305.524C172.946 303.995 173.886 302.555 174.975 301.23C176.482 299.548 178.273 298.144 180.266 297.083C182.437 295.911 184.33 294.287 186.635 293.336C188.963 292.45 191.342 291.705 193.759 291.104C194.128 291 194.436 290.913 194.593 291.417C194.749 291.921 194.419 291.964 194.132 292.155C193.585 292.511 192.504 292.654 193.012 293.627C193.585 294.734 194.475 294.1 195.183 293.675C198.209 291.877 201.649 290.893 205.168 290.818C207.534 290.726 209.9 290.21 212.27 290.362C216.064 290.605 219.845 291.017 223.631 291.378C224.252 291.434 224.747 291.907 225.415 291.947C225.849 291.973 225.94 292.511 225.819 292.889C225.58 293.627 225.237 294.439 224.486 294.695C222.563 295.346 221.356 296.866 219.958 298.169C217.354 300.574 214.384 301.959 210.746 301.694C208.185 301.507 205.628 301.777 203.075 301.968C201.573 302.081 200.345 302.979 199.255 303.956C198.179 304.844 197.257 305.905 196.529 307.096C195.135 309.549 192.187 310.447 189.149 309.622C187.026 309.045 184.925 308.654 182.685 309.067C181.981 309.193 181.182 308.815 180.384 309.184C179.007 309.832 177.941 310.998 177.419 312.427C176.637 314.42 175.357 316.035 174.137 317.716C173.36 318.78 173.494 319.739 173.998 320.981C174.836 323.048 176.407 324.502 177.714 326.17C177.995 326.565 178.368 326.886 178.8 327.105C179.233 327.324 179.712 327.436 180.197 327.429C183.67 327.164 186.349 328.762 188.879 330.807C189.913 331.64 190.898 332.543 191.949 333.338C193.365 334.467 195.109 335.109 196.919 335.166C199.581 335.227 202.246 335.214 204.912 335.166C206.961 335.131 208.654 334.206 210.121 332.852C210.716 332.305 211.241 331.888 212.196 332.3C213.841 333.008 215.548 333.525 216.993 334.667C218.274 335.678 221.013 335.101 222.094 333.929C224.243 331.619 225.372 328.779 226.553 325.978C226.711 325.529 226.999 325.137 227.38 324.85C227.76 324.564 228.217 324.396 228.693 324.368C232.075 323.907 235.057 322.657 237.414 320.117C237.691 319.86 237.912 319.55 238.065 319.205C238.977 316.57 241.178 315.436 243.527 314.511C245.875 313.587 247.738 312.063 249.461 310.109Z" fill="#B0D9E8"/>
<path d="M184.547 309.63C186.718 309.791 188.589 310.459 190.52 310.776C192.743 311.145 195.053 311.141 196.85 309.587C198.078 308.519 198.929 307.021 200.002 305.757C200.514 305.161 201.141 304.674 201.844 304.324C202.548 303.974 203.315 303.769 204.1 303.721C207.169 303.43 210.269 303.721 213.312 303.426C217.044 303.028 220.473 301.184 222.863 298.289C223.674 297.411 224.677 296.732 225.793 296.305C227 295.771 227.79 295.041 227.963 293.674C228.024 293.196 228.241 292.862 228.988 293.114C229.735 293.365 230.29 293.652 230.942 293.93C233.325 294.968 235.843 295.81 237.94 297.338C240.562 299.275 243.344 301.133 245.176 303.973C245.886 305.109 246.68 306.19 247.551 307.207C248.176 307.902 247.911 308.362 247.551 308.979C246.379 310.924 244.512 311.931 242.502 312.739C239.897 313.798 237.67 315.179 236.398 317.862C235.126 320.546 232.708 321.688 229.973 322.265C229.274 322.417 228.545 322.408 227.851 322.569C226.144 322.973 225.116 324.163 224.577 325.747C223.823 327.881 222.82 329.918 221.591 331.817C220.466 333.602 218.695 333.697 216.442 332.373C215.163 331.678 213.798 331.156 212.383 330.819C210.147 330.215 208.71 331.752 207.23 332.907C206.545 333.478 205.697 333.817 204.807 333.875C202.138 333.975 199.476 334.023 196.806 334.31C195.478 334.444 194.015 333.615 192.899 332.655C190.803 330.884 188.697 329.13 186.301 327.766C184.911 326.952 183.304 326.586 181.699 326.72C181.022 326.801 180.336 326.703 179.708 326.437C179.081 326.17 178.534 325.744 178.122 325.2C176.915 323.711 175.452 322.413 174.823 320.494C174.698 320.237 174.65 319.951 174.685 319.668C174.719 319.385 174.835 319.119 175.018 318.9C176.381 317.029 178.092 315.388 178.565 312.926C178.812 311.623 179.967 310.985 181.261 310.59C182.334 310.198 183.431 309.877 184.547 309.63Z" fill="#9CE084"/>
<path d="M199.19 382.891C201.207 381.628 203.543 380.965 205.923 380.981C207.26 380.981 208.55 380.547 209.982 380.694C211.745 380.864 212.813 379.157 214.106 378.185C217.627 375.536 221.521 374.894 225.758 375.701C227.113 375.962 228.506 375.97 229.843 376.383C230.625 376.626 231.324 376.161 231.975 375.779C232.937 375.202 233.996 374.805 235.1 374.607C235.629 374.481 236.117 374.224 236.52 373.86C238.395 372.458 240.366 371.689 242.672 372.944C243.383 373.237 244.122 373.458 244.877 373.604C244.143 374.811 242.858 375.176 241.79 375.714C240.601 376.309 239.359 376.83 238.183 377.451C235.109 379.079 231.81 380.056 228.519 381.107C226.114 381.884 223.744 382.796 221.282 383.408C217.816 384.282 214.27 384.804 210.698 384.967C208.822 385.05 206.942 384.922 205.094 384.585C203.061 384.278 201.076 383.709 199.19 382.891Z" fill="#FEFEFE"/>
<path d="M150.62 375.115C153.468 374.833 155.747 376.626 157.905 378.485C158.866 379.232 159.759 380.065 160.57 380.973C162.35 383.144 162.242 385.506 161.842 387.976C161.148 392.244 158.3 394.819 154.688 396.612C152.986 397.481 151.028 397.155 149.266 396.538C147.356 395.852 145.486 395.057 143.666 394.159C141.543 393.13 140.931 391.05 140.314 388.983C138.934 384.359 141 381.346 144.078 378.941C144.586 378.541 145.576 378.207 144.512 377.291C144.23 377.052 144.729 376.952 144.903 376.822C146.505 375.602 148.328 375.085 150.62 375.115Z" fill="#FFDA74"/>
<path d="M315.43 336.507C314.419 334.857 313.494 333.32 310.89 334.071C312.01 332.908 312.969 332.157 313.29 330.889C313.59 329.69 314.237 328.583 314.254 327.229C314.877 327.998 315.219 328.957 315.222 329.947C315.305 331.709 316.09 332.747 317.866 333.016C318.157 333.064 318.448 333.12 318.756 333.177C317.623 334.202 315.717 334.423 315.43 336.507Z" fill="#B0D9E8"/>
<path d="M294.015 270.072C295.226 270.103 296.863 271.67 296.954 272.886C297.045 274.102 295.608 276.09 294.375 275.96C293.143 275.83 291.606 275.491 290.733 274.388C290.008 273.468 290.403 272.395 290.976 271.401C291.684 270.163 292.986 270.467 294.015 270.072Z" fill="#B0D9E8"/>
<path d="M293.781 287.76C292.843 287.482 291.727 287.222 290.981 286.28C290.743 286.041 290.591 285.731 290.548 285.397C290.505 285.064 290.573 284.725 290.742 284.434C291.124 283.722 291.554 283.809 292.244 283.852C293.546 283.935 294.788 283.822 295.283 285.429C295.604 286.458 294.888 287.786 293.781 287.76Z" fill="#B0D9E8"/>
<path d="M188.997 336.673C191.167 336.516 192.999 337.658 194.988 338.457C197.775 339.573 200.527 339.907 203.414 338.826C204.4 338.462 205.445 338.284 206.496 338.301C208.517 338.418 210.53 337.978 212.318 337.029C212.689 336.828 213.101 336.715 213.522 336.698C213.944 336.682 214.363 336.762 214.749 336.933C216.194 337.467 217.788 337.367 219.259 337.928C221.478 338.77 222.398 340.693 221.777 343.034C221.248 345.027 219.889 346.603 219.32 348.604C218.83 350.341 218.452 351.687 219.572 353.437C221.083 355.799 220.779 358.504 220.093 361.209C219.876 362.229 219.447 363.193 218.834 364.037C218.221 364.88 217.437 365.586 216.533 366.107C216.061 366.471 215.616 366.869 215.2 367.296C212.357 369.589 208.042 368.277 206.518 364.613C205.629 362.396 205.186 360.024 205.215 357.635C205.215 355.065 204.959 354.878 202.498 353.862C201.063 353.312 199.587 352.876 198.083 352.56C196.685 352.234 195.092 352.06 193.659 352.994C192.715 353.604 191.693 354.084 190.62 354.422C187.386 355.491 183.418 353.684 182.784 349.768C182.615 348.713 182.242 347.679 181.977 346.633C181.543 344.957 182.099 343.624 182.81 342.243C182.867 342.135 182.997 341.992 182.962 341.913C182.285 340.203 183.232 339.139 184.378 338.075C185.663 336.916 187.152 336.807 188.997 336.673Z" fill="#3A4453"/>
<path d="M148.528 377.72C148.754 376.717 149.613 376.287 150.759 376.726C152.27 377.303 153.099 378.662 153.881 379.93C154.415 380.799 153.616 381.793 152.578 381.81C151.237 381.836 150.16 382.957 148.671 382.618C147.616 382.375 147.03 381.749 146.969 380.26C146.909 378.771 147.403 377.876 148.506 377.694C149.201 378.128 148.992 378.597 148.584 379.071C148.332 379.31 148.181 379.637 148.163 379.985C148.145 380.333 148.262 380.674 148.489 380.938C149.005 381.628 149.67 381.48 150.338 381.185C150.724 380.998 151.129 380.853 151.545 380.751C152.665 380.516 152.556 380.551 151.979 379.631C151.215 378.276 149.939 377.911 148.528 377.72Z" fill="#3A4453"/>
<path d="M149.057 390.398C149.405 390.341 149.743 390.137 149.83 390.606C149.853 390.69 149.857 390.778 149.841 390.863C149.825 390.948 149.79 391.029 149.738 391.099C149.686 391.168 149.619 391.225 149.541 391.264C149.464 391.304 149.379 391.325 149.292 391.327C148.606 391.401 147.912 391.312 147.266 391.07C146.62 390.827 146.039 390.436 145.571 389.929C144.803 389.06 144.773 387.793 145.246 386.642C145.362 386.416 145.528 386.22 145.732 386.069C145.776 386.022 145.828 385.984 145.887 385.959C145.946 385.933 146.009 385.92 146.073 385.92C146.137 385.92 146.2 385.933 146.259 385.959C146.317 385.984 146.37 386.022 146.414 386.069C146.557 386.234 146.5 386.447 146.414 386.659C145.498 388.826 146.722 390.506 149.057 390.398Z" fill="#3A4453"/>
<path d="M154.74 394.098C154.675 394.532 154.975 395.166 154.332 395.401C153.69 395.635 153.16 395.579 153.03 394.732C153.03 394.702 152.774 394.732 152.669 394.68C152.374 394.555 152.135 394.324 151.999 394.033C151.862 393.742 151.838 393.411 151.931 393.104C152.201 392.214 153.051 392.405 153.768 392.366C154.553 392.322 154.636 392.856 154.714 393.408C154.738 393.637 154.747 393.868 154.74 394.098Z" fill="#3A4453"/>
<path d="M148.819 388.762C147.851 388.831 147.23 388.558 147.273 387.511C147.299 386.877 147.221 386.17 148.194 386.209C148.971 386.209 149.787 387.164 149.865 387.945C149.969 388.914 149.357 388.796 148.819 388.762Z" fill="#3A4453"/>
<path d="M156.281 389.801C155.691 389.853 155.265 389.723 155.239 388.933C155.239 388.221 155.786 387.904 156.147 388.064C156.62 388.268 157.597 387.826 157.558 388.842C157.531 389.567 157.019 389.836 156.281 389.801Z" fill="#3A4453"/>
<path d="M151.884 390.068C151.606 389.985 151.219 390.229 151.15 389.751C151.102 389.438 151.228 389.291 151.562 389.273C152.17 389.239 152.192 388.648 152.405 388.275C152.442 388.178 152.512 388.098 152.602 388.049C152.693 388 152.798 387.984 152.899 388.005C153.203 388.005 153.186 388.253 153.195 388.461C153.247 389.412 152.826 389.959 151.884 390.068Z" fill="#3A4453"/>
<path d="M155.07 384.143C155.391 384.247 155.986 384.143 156.029 384.881C156.051 385.224 155.721 385.61 155.595 385.384C155.161 384.633 154.046 386.227 153.98 384.837C153.95 384.19 154.423 384.104 155.07 384.143Z" fill="#3A4453"/>
<path d="M188.914 338.526C190.62 338.14 192.096 339.338 193.69 340.007C197.202 341.474 200.718 341.791 204.352 340.55C205.467 340.164 206.647 340.004 207.825 340.076C209.735 340.202 211.463 339.616 213.108 338.739C213.347 338.609 213.594 338.435 213.807 338.557C215.305 339.425 217.093 339.043 218.639 339.777C219.832 340.341 220.375 341.214 219.941 342.503C219.112 344.939 217.657 347.102 216.902 349.585C216.529 350.823 216.368 351.899 217.206 353.011C217.842 353.933 218.307 354.963 218.578 356.05C219.051 357.626 218.578 359.189 218.309 360.739C217.979 362.724 216.919 364.144 214.953 364.812C214.467 364.977 214.219 365.481 213.724 365.746C211.988 366.675 209.626 365.576 208.806 363.618C207.904 361.44 207.469 359.097 207.529 356.741C207.581 354.218 206.731 352.494 204.113 351.765C203.082 351.499 202.067 351.173 201.074 350.788C198.747 349.815 196.381 350.232 194.033 350.097C193.865 350.094 193.698 350.124 193.542 350.186C193.387 350.248 193.245 350.34 193.125 350.458C191.925 351.447 190.473 352.08 188.932 352.286C187.716 352.425 186.718 351.569 186.171 350.514C185.176 348.586 184.491 346.607 184.807 344.31C184.964 343.198 184.933 342.139 185.307 340.988C185.967 339.03 186.349 338.526 188.914 338.526Z" fill="#9CE084"/>
<path d="M148.528 377.72C150.885 376.912 151.719 378.914 152.917 380.169C153.234 380.498 153.077 381.089 152.418 381.037C151.549 380.946 150.872 381.31 150.151 381.653C149.85 381.844 149.485 381.908 149.137 381.83C148.789 381.753 148.486 381.541 148.293 381.241C147.72 380.451 147.473 379.543 148.337 378.901C148.932 378.466 148.849 378.171 148.55 377.707L148.528 377.72Z" fill="#FEFEFE"/>
<path d="M153.733 394.681C153.685 394.151 152.921 393.908 153.199 393.309C153.257 393.257 153.328 393.221 153.404 393.206C153.48 393.19 153.56 393.196 153.633 393.222C154.158 393.621 153.98 394.147 153.733 394.681Z" fill="#FEFEFE"/>
<path d="M137.113 46.778C137.113 50.6246 137.113 53.9192 135.796 57.056C134.444 60.2836 131.958 62.9054 128.808 64.4277C127.795 64.9374 127.218 65.7929 126.321 66.345C121.383 69.3786 116.141 69.9854 110.366 69.7366C104.348 69.4818 99.7622 66.4178 95.2003 63.548C89.5559 60.0924 85.4357 54.6203 83.6743 48.2402C82.2435 43.6694 81.7221 38.8626 82.1395 34.0913C82.7462 28.4123 85.3729 23.5706 90.2563 20.2457C93.1924 18.2435 96.4743 16.933 99.7198 15.5375C105.179 13.1955 110.639 13.9843 116.208 14.9307C120.582 15.671 123.621 18.4376 126.873 20.998C127.752 21.6897 128.577 22.4481 129.427 23.1823C133.024 26.2887 134.553 30.5419 135.59 34.9285C136.548 38.9633 137.458 43.0769 137.113 46.778Z" fill="#3A4453"/>
<path d="M134.989 47.3548C134.735 50.2671 135.044 53.2461 133.934 56.0795C132.971 58.304 131.398 60.21 129.396 61.5765C127.576 62.9356 125.841 64.5434 123.718 65.4959C119.739 67.2797 115.741 68.8269 111.209 67.8137C109.79 67.4921 108.279 67.8137 106.811 67.4011C103.93 66.5395 101.479 64.8407 98.8402 63.5119C94.9899 61.5689 91.6615 58.731 89.1341 55.2362C86.3011 51.3652 85.1606 46.8754 84.2082 42.2886C83.2306 37.5237 83.8069 32.5709 85.8522 28.1578C87.6721 24.1716 90.8872 21.5324 94.9517 19.8821C96.7291 19.16 98.822 18.9962 100.375 18.2318C103.408 16.7392 106.441 16.4844 109.608 16.6664C114.691 16.9698 119.532 18.0983 123.403 21.7993C125.744 24.0382 128.68 25.6824 130.421 28.5097C132.539 31.956 133.455 35.8512 134.225 39.7767C134.771 42.2648 135.027 44.8077 134.989 47.3548Z" fill="#967057"/>
<path d="M118.762 47.736C118.877 51.0002 117.021 53.2937 115.419 55.6235C114.649 56.7338 111.355 56.3455 109.529 55.0775C108.168 54.2131 106.919 53.184 105.81 52.0135C104.734 50.722 103.271 49.8115 101.637 49.4167C97.2143 48.3003 95.5703 44.757 94.3571 40.9892C94.1101 40.2129 94.1334 39.3758 94.4231 38.6144C94.7129 37.8531 95.252 37.2123 95.9525 36.7967C97.5116 35.8684 99.2405 35.0797 101.085 36.0747C104.118 37.6947 106.872 39.7697 110.324 40.4856C111.288 40.6858 112.198 41.0924 113.217 41.0924C116.123 41.1288 117.524 42.1177 118.301 44.9329C118.556 45.8916 119.029 46.8866 118.762 47.736Z" fill="#3A4453"/>
<path d="M107.691 30.6697C106.095 31.1126 104.658 30.0266 103.269 29.3167C101.218 28.2731 100.842 25.4215 102.195 23.0734C103.317 21.0955 105.689 20.5009 107.849 21.3746C109.863 22.1937 111.064 23.844 112.441 25.3123C112.824 25.7768 113.066 26.3415 113.138 26.9394C113.21 27.5374 113.109 28.1434 112.847 28.6857C112.241 30.0266 110.754 30.4634 109.323 30.6576C108.78 30.696 108.235 30.7001 107.691 30.6697Z" fill="#3A4453"/>
<path d="M127.394 37.1806C127.771 38.6307 127.006 40.0079 125.969 41.2699C125.625 41.6917 125.194 42.0332 124.704 42.2706C124.215 42.508 123.68 42.6355 123.136 42.6441C122.592 42.6528 122.053 42.5425 121.556 42.3208C121.059 42.0991 120.617 41.7715 120.26 41.361C119.467 40.3862 118.975 39.2018 118.844 37.952C118.712 36.7023 118.947 35.4413 119.52 34.3229C120.412 32.442 121.419 30.9798 123.639 31.5259C126.436 32.2115 127.394 33.7708 127.394 37.1806Z" fill="#3A4453"/>
<path d="M124.816 55.139C122.19 55.4788 121.607 53.513 122.111 51.3348C122.384 50.1214 122.984 49.0717 123.112 47.8158C123.215 46.839 125.775 46.0745 126.679 46.7419C127.431 47.3001 128.244 47.9553 128.401 48.9382C128.592 50.6924 128.193 52.4599 127.267 53.962C127.077 54.4271 126.721 54.8051 126.268 55.0226C125.815 55.2401 125.298 55.2816 124.816 55.139Z" fill="#3A4453"/>
<path d="M96.3954 40.4871C96.1467 39.2737 96.7352 38.6669 97.7422 38.2544C98.1735 38.0277 98.6586 37.9231 99.145 37.952C99.6315 37.9808 100.101 38.142 100.502 38.4182C103.528 40.246 106.795 41.6389 110.208 42.5561C110.995 42.7947 111.813 42.9194 112.635 42.9262C115.231 42.9262 117.446 45.6504 116.954 48.2775C116.572 50.3343 115.419 52.0453 114.236 53.6774C113.157 55.1578 111.81 53.8109 110.597 53.5682C110.037 53.3842 109.547 53.0352 109.189 52.5671C106.874 49.8999 103.903 47.8837 100.569 46.7182C97.8453 45.7353 97.0931 43.0051 96.3954 40.4871Z" fill="#FFDA74"/>
<path d="M108.297 28.9279C107.242 29.0614 106.368 28.6185 105.458 28.1756C102.692 26.8226 102.735 25.9549 104.761 23.3885C104.934 23.2155 105.146 23.0867 105.379 23.0128C105.613 22.9389 105.86 22.9221 106.101 22.9638C108.136 23.665 109.875 25.0307 111.039 26.8408C111.585 27.6356 110.827 28.394 110.045 28.7095C109.475 28.8638 108.887 28.9373 108.297 28.9279Z" fill="#FFDA74"/>
<path d="M125.58 36.7787C125.75 37.4643 125.332 37.9922 125.065 38.5989C124.58 39.6607 123.73 40.7953 122.681 40.6436C121.419 40.4555 120.982 38.9751 120.697 37.7859C120.412 36.5967 121.019 35.5653 121.656 34.5884C123.02 35.7534 122.96 33.9028 123.597 33.7269C123.923 33.7203 124.243 33.8163 124.512 34.0014C124.781 34.1864 124.985 34.4512 125.095 34.7583C125.283 35.3893 125.756 36.0142 125.58 36.7787Z" fill="#FFDA74"/>
<path d="M126.315 49.9218C126.289 50.8839 126.084 51.8327 125.708 52.7188C125.514 53.3256 125.15 53.6471 124.464 53.4469C123.603 53.1981 123.779 52.737 124.076 52.106C124.389 51.3578 124.659 50.5921 124.883 49.8126C125.029 49.3879 124.586 48.5991 125.544 48.6841C126.302 48.7812 126.357 49.4061 126.315 49.9218Z" fill="#FFDA74"/>
<defs>
<radialGradient id="paint0_radial" cx="0" cy="0" r="1" gradientUnits="userSpaceOnUse" gradientTransform="translate(379 131) rotate(161.975) scale(530.011 463.876)">
<stop stop-color="#807CAA"/>
<stop offset="0.736803" stop-color="#D2D2D4"/>
</radialGradient>
</defs>
</svg>
