<svg width="612" height="879" viewBox="0 0 612 879" fill="none" xmlns="http://www.w3.org/2000/svg">
<g clip-path="url(#clip0)">
<rect width="612" height="879" fill="white"/>
<rect width="612" height="879" fill="url(#paint0_radial)"/>
<path d="M446.168 246.388C444.619 239.792 448.821 219.674 450.52 214.041C453.057 205.879 457.539 198.665 462.148 191.637C466.41 185.325 471.249 179.408 476.607 173.959C480.635 169.742 484.963 166.007 489.349 162.226C491.295 160.554 493.822 160.506 495.838 159.12C502.402 154.624 510.015 152.161 517.392 149.538C524.782 147.043 532.485 145.548 540.287 145.095C545.077 144.752 549.823 144.689 554.589 144.693C560.621 144.705 566.407 146.375 572.266 147.428C578.825 148.758 585.177 150.93 591.159 153.887C591.718 154.151 592.391 154.725 592.99 153.819C594.532 151.481 596.708 149.679 598.514 147.512C600.521 145.097 601.58 141.083 606.407 141.529C607.657 141.652 609.238 139.124 610.558 137.717C616.6 131.478 623.397 125.987 630.796 121.364C639.869 115.473 649.661 110.724 659.942 107.231C669.682 103.917 680.074 102.866 690.298 104.162C698.299 105.199 706.136 106.697 713.421 110.136C718.913 112.724 724.098 115.747 726.91 121.612C728.547 125.007 727.191 127.918 726.226 130.838C722.61 141.33 716.805 150.967 709.18 159.134C705.319 163.378 701.381 167.622 697.638 171.957C694.25 175.892 690.637 179.693 687.496 183.861C683.169 189.563 677.962 194.474 673.088 199.69C664.842 208.498 655.892 216.636 647.984 225.734C647.507 226.218 647.147 226.801 646.931 227.44C646.715 228.079 646.649 228.758 646.738 229.425C648.707 242.92 646.774 256.132 644.173 269.387C642.292 278.383 639.867 287.262 636.912 295.975C635.984 298.661 634.789 301.25 633.344 303.705C631.284 307.36 630.749 311.609 628.341 315.15C622.977 323.154 616.482 330.369 609.051 336.58C598.619 345.204 586.225 350.451 573.65 354.982C564.674 358.042 555.137 359.196 545.672 358.37C536.531 357.739 527.621 356.598 518.907 353.46C514.062 351.775 509.357 349.726 504.833 347.33C503.892 346.774 502.806 346.5 501.708 346.542C500.611 346.583 499.55 346.939 498.655 347.565C491.655 351.8 484.78 356.32 477.511 360.245C472.32 363.052 467.363 366.238 462.119 369.002C455.909 372.181 449.521 375.013 442.984 377.484C434.218 380.902 425.28 384.36 415.615 383.919C407.222 383.526 399.998 380.377 395.099 373.243C390.679 366.82 389.053 359.496 387.889 351.988C386.937 345.868 388.618 340.221 389.895 334.408C390.859 330.216 392.246 326.129 394.034 322.208C396.108 317.379 398.551 312.71 401.342 308.243C404.126 303.868 406.137 298.994 408.462 294.357C411.798 287.774 416.181 281.753 421.445 276.521C423.603 274.18 425.564 271.671 427.306 269.017C430.458 264.672 434.417 261.18 438.364 257.661C439.616 256.468 440.789 255.197 441.876 253.858C442.263 253.32 442.785 252.889 443.392 252.61C444 252.33 444.671 252.21 445.34 252.261C446.51 250.994 447.346 250.325 447.151 249.831L446.168 246.388Z" fill="#3A4453"/>
<path d="M447.146 255.486C446.437 255.688 445.334 256.405 444.754 256.194C443.886 255.833 444.046 256.548 443.865 256.842C442.334 259.23 440.094 260.863 437.902 262.628C434.557 265.424 431.666 268.705 429.329 272.356C426.372 276.816 422.462 280.471 419.05 284.525C415.514 288.729 413.176 293.589 410.524 298.288C407.361 303.867 404.875 309.801 401.352 315.217C399.032 319.015 397.14 323.049 395.709 327.249C393.191 333.892 391.234 340.776 391.036 347.882C391.03 352.673 391.776 357.435 393.247 362.003C394.19 365.667 395.837 369.12 398.099 372.179C403.423 378.969 410.521 381.378 418.978 380.733C425.135 380.3 430.872 378.458 436.703 376.577C442.771 374.574 448.705 372.2 454.47 369.467C460.251 366.735 465.836 363.619 471.184 360.141C475.286 357.502 479.634 355.172 483.817 352.618C488.446 349.843 493.18 347.23 498.309 344.308C493.895 341.828 489.817 339.533 486.365 336.319C485.711 335.716 484.855 335.404 483.576 336.326C477.315 340.781 470.981 345.17 464.381 349.106C456.296 354.058 447.206 357.22 437.747 358.371C432.578 358.961 427.609 359.402 422.501 358.216C416.955 356.966 413.265 353.538 410.58 348.87C408.526 345.527 407.363 341.73 407.196 337.83C407.03 333.93 407.866 330.052 409.628 326.552C411.087 323.423 411.939 320.019 413.195 316.78C415.755 310.478 419.002 304.467 422.88 298.851C425.768 294.733 428.303 290.387 430.46 285.858C433.692 278.674 438.406 272.34 445.936 268.63C448.028 267.592 448.474 261.174 447.767 258.006L447.146 255.486Z" fill="#D9A672"/>
<path d="M463.285 296.789C456.84 282.724 452.735 267.737 451.127 252.397C450.088 242.966 450.34 233.44 451.876 224.075C453.085 217.105 455.511 210.392 459.047 204.233C463.987 195.034 469.975 186.416 476.895 178.543C481.644 173.271 486.361 167.849 492.489 164.124C497.842 160.879 502.632 156.633 508.892 154.896C515.592 153.027 522.334 151.379 529.164 149.955C539.091 147.839 549.298 147.29 559.401 148.329C564.834 148.786 570.177 149.97 575.283 151.845C579.475 153.441 583.658 155.094 587.843 156.725C588.846 157.116 589.98 157.201 588.843 158.846C588.29 159.656 588.993 161.304 590.461 160.259C593.714 157.957 596.025 160.316 598.388 161.632C605.133 165.407 611.01 170.355 617.047 175.115C623.085 179.875 626.826 186.695 631.673 192.502C632.232 193.168 631.815 193.529 631.212 194.122C628.323 196.975 625.444 199.825 622.461 202.588C617.235 207.432 612.469 212.765 607.106 217.449C600.111 223.542 593.053 229.56 585.932 235.502C576.888 243.049 567.946 250.727 558.512 257.841C552.043 262.755 546.229 268.478 539.735 273.336C532.069 279.104 523.867 284.207 516.157 289.928C510.057 294.446 503.784 298.722 497.429 302.76C492.18 306.079 487.136 309.7 482.323 313.602C480.535 315.055 478.09 315.59 476.504 317.501C475.776 318.364 474.706 317.947 474.09 316.849C470.141 309.911 465.419 303.354 463.285 296.789Z" fill="#FFDA74"/>
<path d="M643.224 230.325C645.225 243.969 643.042 256.385 640.693 268.827C638.89 277.836 636.466 286.715 633.437 295.402C632.74 297.469 631.438 299.423 630.589 301.522C627.979 308.182 625.36 314.998 620.471 320.329C614.24 327.12 608.065 333.985 600.019 339.066C592.374 343.831 584.257 347.825 575.793 350.986C571.456 352.638 566.759 353.343 562.123 354.187C555.967 355.304 549.827 354.946 543.748 354.726C539.162 354.547 534.604 353.928 530.14 352.878C521.605 350.952 513.394 347.839 505.756 343.633C511.737 339.601 517.649 335.663 523.588 331.735C529.527 327.807 535 323.098 540.523 318.553C548.069 312.358 555.493 306.04 563.299 300.137C566.748 297.525 569.764 294.356 573.031 291.483C579.974 285.38 586.67 278.969 593.971 273.301C602.907 266.365 611.249 258.757 620.347 252.013C626.978 246.952 633.184 241.376 638.904 235.34C640.261 233.917 642.374 233.153 643.224 230.325Z" fill="#FFDA74"/>
<path d="M603.651 159.873C601.716 158.809 599.716 157.862 597.662 157.038C595.37 156.259 595.783 155.083 596.904 153.826C598.443 152.088 600.438 150.754 601.177 148.43C601.349 147.889 601.852 147.774 602.398 148.032C603.897 148.746 604.716 147.812 605.707 146.892C611.133 141.823 616.443 136.617 622.16 131.882C627.198 127.775 632.55 124.054 638.171 120.754C641.913 118.507 645.918 116.833 649.741 114.769C658.985 109.768 669.166 107.827 679.655 107.974C690.144 108.12 700.336 109.002 709.967 112.991C714.267 114.639 718.123 117.235 721.237 120.58C723.449 123.089 723.371 125.633 722.706 128.1C721.466 132.702 719.636 137.13 717.257 141.278C713.788 147.27 710.071 153.126 705.286 157.99C701.295 162.039 697.612 166.359 693.911 170.59C689.606 175.511 685.515 180.667 681.289 185.718C674.121 194.033 666.47 201.937 658.376 209.388C654.142 213.29 650.464 217.772 646.376 222.155C645.629 219.927 645.613 217.901 644.795 216.041C642.803 211.513 646.289 208.885 649.129 206.726C654.696 202.608 659.027 197.394 663.154 192.091C669.442 184.048 675.682 175.992 682.272 168.18C686.892 162.69 691.068 156.845 693.777 150.133C694.493 148.657 695.33 147.241 696.279 145.899C699.09 141.382 699.775 136.743 697.762 131.638C697.04 129.73 695.788 128.058 694.148 126.812C692.507 125.566 690.544 124.796 688.48 124.588C685.221 124.207 681.953 123.199 678.553 123.529C672.826 124.084 667.164 125.09 661.469 125.718C651.089 126.852 641.739 130.756 632.463 134.955C626.836 137.501 621.925 141.222 616.793 144.666C611.993 147.884 609.022 152.892 604.431 156.282C603.094 157.272 602.529 158.456 603.668 159.964L603.651 159.873Z" fill="#D9A672"/>
<path d="M636.665 202.241C638.096 204.136 638.1 207.015 639.167 209.542C640.053 211.558 638.051 212.623 636.912 213.508C630.496 218.518 625.104 224.595 618.852 229.775C613.587 234.178 608.323 238.581 603.087 242.973C598.939 246.414 594.262 249.155 590.356 252.994C586.608 256.69 581.78 259.288 577.655 262.655C571.284 267.841 564.274 272.179 557.986 277.505C553.644 281.211 549.066 284.641 544.279 287.776C539.602 290.843 535.403 294.622 530.995 298.075C523.84 303.67 516.991 309.711 509.425 314.698C502.672 319.144 496.212 323.977 489.402 328.317C489.321 328.373 489.229 328.412 489.132 328.432C487.646 328.756 487.369 331.352 485.322 330.501C483.697 329.852 483.147 328.074 481.869 327.006C481.443 326.643 481.294 325.977 480.899 325.557C476.698 321.194 476.527 320.277 481.757 317.584C485.669 315.547 488.542 312.407 492.12 310.088C499.063 305.572 505.938 300.976 512.91 296.502C516.854 293.984 520.292 290.844 524.255 288.318C530.889 284.107 537.363 279.583 543.543 274.716C551.798 268.297 559.671 261.463 567.737 254.841C574.756 249.086 582.058 243.624 588.802 237.573C595.201 231.82 601.827 226.33 608.345 220.722C616.118 214.039 623.224 206.693 630.534 199.586C634.042 196.177 633.912 195.982 635.871 200.436L636.665 202.241Z" fill="#967057"/>
<path d="M503.063 341.339C502.372 341.784 501.369 341.568 499.945 340.724C496.588 338.918 493.391 336.839 490.387 334.509C489.182 333.508 488.791 332.793 490.449 331.678C495.032 328.596 499.372 325.139 504.006 322.198C510.407 318.14 516.488 313.652 522.508 309.103C529.51 303.79 536.297 298.188 543.256 292.828C546.496 290.37 549.969 288.192 553.226 285.748C556.684 283.132 560.092 280.428 563.384 277.61C567.734 273.898 572.665 271.006 577.077 267.334C583.226 262.197 590.015 257.91 596.062 252.566C601.078 248.127 606.97 244.621 612.149 240.2C620.649 232.927 629.304 225.805 637.05 217.699C637.864 216.855 639.017 215.17 640.308 215.787C641.376 216.302 641.887 217.967 641.798 219.428C641.765 219.618 641.782 219.813 641.848 219.994C644.65 226.114 640.194 229.131 636.426 232.553C633.201 235.472 630.236 238.63 627.117 241.614C621.593 246.888 615.476 251.467 609.486 256.21C604.035 260.518 598.935 265.243 593.459 269.519C590.64 271.723 588.114 274.217 585.161 276.293C582.208 278.37 579.705 281.169 576.901 283.508C568.429 290.542 560.428 298.093 551.591 304.726C543.657 310.716 536.47 317.65 528.691 323.868C523.809 327.866 518.573 331.429 513.045 334.515C510.538 336.011 508.182 337.737 506.006 339.669C505.073 340.303 504.088 340.862 503.063 341.339V341.339Z" fill="#D9A672"/>
<path d="M603.619 159.949C605.037 160.251 605.935 159.599 606.934 158.621C613.401 152.318 620.861 147.289 628.387 142.31C633.645 138.949 639.271 136.177 645.158 134.045C653.055 131.017 661.402 129.821 669.776 128.808C671.226 128.629 672.657 128.382 674.107 128.203C680.187 127.444 686.146 127.868 691.542 130.943C693.89 132.253 695.946 138.438 694.619 140.685C690.813 147.145 687.952 154.14 683.585 160.283C680.112 165.156 676.171 169.672 672.227 174.18C666.069 181.212 661.097 189.176 654.875 196.137C651.06 200.323 646.917 204.211 642.485 207.764C641.929 202.923 639.868 198.566 637.615 194.324C636.995 193.141 637.833 192.829 638.171 192.566C644.182 187.694 649.694 182.258 654.63 176.336C660.425 169.716 665.772 162.731 670.637 155.426C672.192 153.261 673.071 150.698 673.165 148.051C673.062 141.571 668.783 139.372 662.445 140.251C653.194 141.536 644.775 145.416 636.535 149.35C630.676 152.094 625.175 155.518 620.149 159.549C617.769 161.492 614.6 162.475 612.84 165.198C612.67 165.466 612.547 165.942 612.028 165.542C609.39 163.398 606.051 162.355 603.677 159.881L603.619 159.949Z" fill="#967057"/>
<path d="M439.936 344.105C445.951 341.559 451.188 337.7 456.786 334.558C461.329 332.015 465.532 329.029 469.893 326.248C471.269 325.371 472.673 323.451 473.839 323.609C475.006 323.768 475.73 326.07 476.803 327.301C478.143 328.81 479.309 330.479 480.75 331.891C482.012 333.173 481.543 333.947 480.555 334.572C471.478 340.307 463.108 347.144 453.107 351.433C448.823 353.175 444.321 354.35 439.721 354.926C434.967 355.602 430.266 356.451 425.285 355.603C423.263 355.348 421.312 354.704 419.543 353.709C417.775 352.714 416.224 351.386 414.978 349.802C409.756 343.142 409.409 335.853 412.63 328.217C414.076 324.778 415.312 321.265 416.526 317.729C418.746 311.813 421.788 306.227 425.565 301.128C429.46 295.576 432.474 289.506 435.791 283.623C438.65 278.349 442.939 273.952 448.183 270.918C449.474 270.176 449.986 270.786 450.328 271.891C451.434 275.413 452.526 278.929 453.66 282.439C453.92 283.231 453.501 283.539 452.906 283.747C446.9 285.758 443.907 290.993 440.749 295.602C434.489 304.752 429.48 314.669 425.849 325.099C424.298 329.506 423.38 333.917 424.351 338.669C425.444 344.001 431.587 347.564 436.594 345.499L439.936 344.105Z" fill="#967057"/>
<path d="M460.248 298.903C462.895 305.599 466.345 311.963 470.524 317.86C471.574 319.339 471.733 320.609 469.914 322.064C465.215 325.672 460.266 328.955 455.103 331.89C450.879 334.352 446.719 336.907 442.566 339.481C440.131 341.033 437.461 342.197 434.655 342.928C431.027 343.823 428.224 340.9 428.012 336.717C427.747 332.361 428.861 328.346 430.31 324.308C433.147 316.303 436.922 308.649 441.559 301.499C444.761 296.588 447.848 291.466 452.493 287.542C454.212 286.086 454.832 286.389 455.596 288.251C456.885 291.434 458.345 294.577 460.248 298.903ZM614.762 168.006C619.819 162.604 626.473 160.352 632.261 156.76C639.678 152.163 647.758 149.177 655.687 145.667C658.038 144.668 660.539 144.05 663.091 143.837C668.622 143.289 670.855 146.149 668.899 151.249C667.52 154.459 665.656 157.447 663.37 160.113C655.726 169.785 648.236 179.631 638.754 187.744C635.375 190.642 635.075 190.867 632.889 187.205C628.336 179.592 622.151 173.041 614.762 168.006Z" fill="#B7B7B7"/>
<path d="M506.139 263.852C505.505 264.022 505.011 264.384 504.668 263.757C504.527 263.566 504.455 263.333 504.463 263.097C504.472 262.861 504.561 262.635 504.716 262.454C505.34 261.581 506.412 261.399 507.086 260.765C511.691 256.688 516.085 252.386 520.25 247.876C527.334 239.8 534.386 231.704 541.591 223.729C545.908 218.934 549.845 213.822 553.367 208.438C558.513 200.617 564.472 193.386 569.23 185.262C569.568 184.695 570.077 184.241 570.643 184.469C571.595 184.87 571.355 185.711 571.038 186.476C569.818 189.471 567.665 191.904 565.826 194.498C561.237 200.942 556.934 207.58 552.354 214.019C548.231 219.577 543.788 224.899 539.047 229.959C533.603 235.993 528.101 241.997 522.84 248.171C518.136 253.766 512.797 258.817 506.927 263.225C506.599 263.461 506.311 263.714 506.139 263.852Z" fill="#3A4453"/>
<path d="M495.391 242.008C494.537 242.032 493.844 243.152 493.196 242.056C492.548 240.961 493.726 240.919 494.223 240.437C496.314 238.464 498.32 236.376 500.321 234.3C505.44 229.158 510.256 223.733 514.743 218.051C517.568 214.398 521.26 211.509 523.907 207.703C528.267 201.443 532.848 195.286 536.989 188.934C541.644 181.886 546.364 174.985 550.301 167.513C550.669 166.813 551.286 166.302 551.963 166.809C552.64 167.316 552.455 168.253 552.041 168.95C549.835 172.7 547.668 176.488 545.338 180.159C542.56 184.597 539.674 188.917 536.672 193.199C532.262 199.545 528.23 206.221 523.129 211.978C517.629 218.188 512.55 224.752 506.812 230.747C503.483 234.211 500.063 237.594 496.674 240.997C496.267 241.359 495.839 241.696 495.391 242.008V242.008Z" fill="#3A4453"/>
<path d="M527.509 163.246C527.632 163.803 527.757 164.087 527.424 164.489C522.772 170.209 519.755 176.977 515.213 182.77C510.828 188.146 505.986 193.145 500.737 197.715C495.388 202.556 489.954 207.303 485.066 212.612C482.943 215.115 480.469 217.308 477.717 219.127C477.032 219.536 476.579 220.999 475.654 220.054C474.729 219.109 475.552 218.26 476.596 217.536C479.21 215.534 481.61 213.276 483.757 210.796C490.213 204.063 497.542 198.209 504.146 191.663C508.623 187.4 512.638 182.694 516.128 177.621C518.938 173.355 521.019 168.592 524.372 164.705C525.148 163.822 525.873 162.222 527.509 163.246Z" fill="#3A4453"/>
<path d="M592.589 187.036C592.3 188.677 591.903 190.298 591.399 191.888C588.169 199.985 585.985 208.672 579.984 215.355C576.397 219.341 573.718 224.03 569.654 227.61C569.126 228.073 568.627 228.751 567.96 228.066C567.293 227.381 567.581 226.65 568.203 225.974C574.065 219.502 580.079 212.977 583.921 205.187C586.278 200.453 588.132 195.493 589.453 190.386C589.731 189.245 590.131 188.135 590.645 187.076C590.965 186.419 591.667 185.872 592.589 187.036Z" fill="#3A4453"/>
<path d="M602.371 287.163C602.52 287.695 602.524 288.256 602.384 288.79C602.244 289.324 601.964 289.813 601.572 290.208C598.745 293.579 597.632 297.823 595.776 301.664C593.007 307.358 589.272 312.342 585.49 317.346C584.732 318.341 584.219 319.493 583.416 320.464C582.888 321.101 582.091 321.884 581.185 321.082C580.278 320.281 581.328 319.695 581.72 319.127C584.902 314.573 588.335 310.162 591.224 305.471C593.351 301.909 595.171 298.178 596.666 294.318C597.683 291.844 599.501 289.857 600.506 287.431C600.834 286.716 601.612 286.169 602.371 287.163Z" fill="#3A4453"/>
<path d="M443.943 572.243C444.598 577.877 443.619 583.748 442.14 589.461C441.272 592.804 440.933 596.502 438.423 599.326C438.22 599.518 438.091 599.773 438.055 600.048C438.203 604.446 434.309 606.606 432.521 609.906C430.733 613.207 428.105 615.64 425.758 618.341C422.918 621.507 419.523 624.146 415.734 626.134C411 628.826 406.082 631.193 401.015 633.219C395.038 635.465 388.974 637.458 382.902 639.451C377.479 641.23 371.923 642.592 366.284 643.524C360.947 644.287 355.521 644.226 350.204 643.344C345.381 642.705 340.627 641.642 336 640.166C332.842 639.119 329.641 638.274 326.609 636.555C323.576 634.836 320.471 633.175 317.313 631.644C314.413 630.104 311.724 628.206 309.313 625.997C303.877 621.449 298.804 616.5 294.138 611.192C289.472 605.775 286.19 599.535 283.43 593.093C282.068 589.901 280.294 586.89 279.301 583.51C277.829 578.519 276.232 573.601 275.4 568.437C274.333 561.8 274.436 555.134 274.664 548.483C274.797 544.41 275.761 540.373 276.703 536.357C278.123 530.349 279.426 524.304 282.075 518.692C283.547 515.572 284.902 512.395 286.697 509.39C288.589 506.227 290.223 502.891 292.46 499.958C294.606 497.077 297.294 494.626 300.379 492.736C303.934 490.606 307.444 488.403 310.969 486.237C313.788 484.511 317.24 483.803 320.353 482.525C323.098 481.391 326.108 481.802 328.883 480.871C329.542 480.658 330.256 480.681 330.899 480.934C331.543 481.188 332.075 481.657 332.401 482.257C333.019 483.63 333.733 483.11 334.336 482.77C336.707 481.557 339.254 480.707 341.887 480.25C344.309 479.73 346.745 479.831 349.136 479.629C353.368 479.267 357.637 478.719 361.913 479.087C368.117 479.621 374.424 479.809 380.481 480.943C384.796 481.684 388.968 483.073 392.853 485.059C396.628 487.053 400.86 488.028 404.459 490.483C407.086 492.274 409.662 494.094 412.164 496.066C416.58 499.503 419.472 504.248 422.976 508.466C425.857 512.037 428.25 515.963 430.092 520.144C431.94 524.152 433.971 528.088 434.964 532.501C435.575 534.629 436.37 536.702 437.342 538.697C439.042 543.085 440.432 547.583 441.5 552.159C442.524 555.983 443.317 559.863 443.877 563.779C444.238 566.444 443.943 569.188 443.943 572.243Z" fill="#3A4453"/>
<path d="M256.015 620.088C261.402 619.56 265.693 622.695 269.881 626.01C271.352 627.151 272.685 628.429 274.068 629.664C279.014 634.077 279.536 639.645 278.359 645.646C277.623 649.221 276.438 652.738 274.061 655.468C271.581 658.357 268.791 660.856 264.861 662.242C260.279 663.896 255.234 663.816 250.709 662.019C246.801 660.574 242.613 659.332 239.426 656.486C236.07 653.511 235.29 649.358 234.363 645.264C232.803 638.403 235.835 633.282 240.604 628.747C240.81 628.552 241.163 628.299 241.141 628.118C240.678 624.507 243.526 623.872 245.918 622.42C248.979 620.571 252.136 620.03 256.015 620.088Z" fill="#3A4453"/>
<path d="M476.657 628.674C472.888 628.826 469.886 626.919 466.508 627.331C466.361 627.35 466.213 627.335 466.073 627.287C465.934 627.239 465.808 627.161 465.705 627.057C465.602 626.953 465.526 626.827 465.481 626.689C465.436 626.551 465.425 626.405 465.448 626.262C465.438 626.118 465.461 625.974 465.514 625.84C465.568 625.706 465.651 625.585 465.758 625.486C465.865 625.387 465.993 625.313 466.133 625.269C466.273 625.224 466.421 625.211 466.566 625.229C468.774 625.309 471.063 624.948 473.271 625.446C473.853 625.576 474.412 625.8 474.912 625.446C475.95 624.782 477.621 625.858 478.143 624.782C478.84 623.178 479.248 621.467 479.35 619.726C479.49 618.188 480.086 616.707 479.865 615.119C479.841 614.976 479.85 614.83 479.892 614.692C479.935 614.554 480.009 614.427 480.109 614.322C480.21 614.216 480.334 614.135 480.471 614.084C480.609 614.033 480.757 614.014 480.903 614.028C481.587 614.028 481.889 614.418 482.029 615.075C482.554 617.017 482.962 618.987 483.251 620.976C483.332 622.023 484.524 622.377 484.325 623.539C484.23 624.074 484.936 623.669 485.297 623.539C487.085 622.759 488.881 622.001 490.662 621.214C491.597 620.795 492.752 620.441 493.275 621.402C493.797 622.362 493.451 623.279 492.2 623.922C490.448 624.811 488.932 626.125 487.225 627.107C485.981 627.829 485.93 628.66 486.489 629.736C487.226 631.314 488.087 632.832 489.065 634.279C489.381 634.697 489.609 635.173 489.735 635.679C489.861 636.185 489.884 636.711 489.801 637.225C489.742 637.774 490.272 638.612 489.337 638.85C488.402 639.089 487.379 638.995 487.085 638.07C486.445 636.062 484.531 635.088 483.486 633.398C482.25 631.411 480.94 631.419 479.622 633.304C478.489 634.936 477.179 636.402 475.906 637.919C475.317 638.641 474.971 639.724 473.83 639.175C472.69 638.626 473.139 637.492 473.293 636.655C473.88 633.807 475.022 631.097 476.657 628.674V628.674Z" fill="#3A4453"/>
<path d="M535.387 570.345C534.099 570.518 533.679 569.998 533.503 568.698C533.194 566.438 533.12 564.141 532.274 561.946C530.912 558.4 528.726 557.186 524.914 558.068C523.456 558.385 521.982 558.626 520.498 558.79C519.703 558.891 518.828 558.891 518.695 557.786C518.585 556.876 519.019 556.551 519.931 556.161C522.291 555.068 524.513 553.711 526.555 552.117C529.264 550.138 529.646 547.061 530.448 544.172C530.897 542.576 530.677 540.93 531.008 539.37C531.162 538.647 531.008 537.283 532.48 537.369C533.569 537.434 533.782 538.438 533.952 539.211C534.57 542.352 536.542 545.126 536.697 548.347C536.822 551.084 538.802 551.647 540.774 551.82C542.467 551.965 544.358 552.543 545.992 551.207C546.345 550.918 547.118 551.019 547.685 551.077C548.251 551.134 549.267 550.6 549.274 551.864C549.274 552.665 549.274 553.308 548.229 553.662C545.021 554.796 542.158 556.63 539.236 558.328C538.749 558.614 538.337 559.006 538.03 559.475C537.724 559.943 537.532 560.475 537.47 561.029C536.976 563.722 536.38 566.409 536.616 569.175C536.704 570.143 536.329 570.518 535.387 570.345Z" fill="#3A4453"/>
<path d="M498.743 461.515C496.425 460.793 493.422 459.854 491.104 457.991C489.72 456.878 489.507 454.553 490.036 452.661C490.489 451.415 491.097 450.229 491.847 449.129C492.09 448.71 492.517 448.147 492.914 448.104C495.711 447.808 498.61 446.97 501.311 447.771C504.012 448.573 505.396 450.812 505.933 453.549C506.596 456.85 502.828 461.457 498.743 461.515Z" fill="#3A4453"/>
<path d="M511.255 475.403C510.857 473.236 515.023 469.293 517.348 469.221C518.084 469.221 518.909 469.134 519.1 470.051C519.291 470.969 518.717 471.243 517.856 471.395C515.943 471.749 514.979 473.099 514.095 474.724C513.212 476.349 513.867 477.31 515.118 478.198C515.414 478.385 515.733 478.533 516.068 478.638C517.415 479.122 518.666 480.675 520.204 479.086C521.418 477.837 521.735 474.847 520.822 473.345C520.358 472.623 519.35 471.756 520.388 471.034C521.293 470.413 522.044 471.445 522.728 472.074C524.818 473.995 523.862 478.003 522.132 480.538C520.903 482.329 518.526 482.437 515.928 481.347C513.33 480.256 511.262 478.689 511.255 475.403Z" fill="#3A4453"/>
<path d="M496.439 470.072C501.076 470.072 502.761 471.697 503.063 475.582C503.321 479.128 500.561 480.356 497.131 479.879C496.042 479.775 494.99 479.44 494.045 478.898C493.101 478.355 492.289 477.618 491.663 476.738C491.225 475.963 490.998 475.09 491.006 474.204C491.014 473.318 491.255 472.449 491.707 471.682C492.443 470.238 493.834 469.92 495.387 470.05C495.703 470.101 496.079 470.072 496.439 470.072Z" fill="#3A4453"/>
<path d="M422.909 515.81C426.54 521.383 429.271 527.473 431.005 533.865C431.588 535.567 432.286 537.23 433.095 538.841C435.127 543.847 436.799 548.988 438.1 554.224C439.373 558.911 440.462 563.778 440.109 568.761C440.134 569.045 440.109 569.331 440.035 569.606C439.255 571.101 433.463 573.319 431.675 573.087C428.86 572.833 426.029 572.814 423.211 573.03C420.076 573.16 417.566 574.575 415.049 576.2C413.467 577.218 412.554 578.367 412.562 580.266C412.562 582.685 412.562 584.975 411.472 587.423C409.353 592.168 411.848 596.191 414.909 599.823C415.535 600.545 416.499 600.69 417.367 600.964C419.575 601.65 420.503 600.863 419.951 598.704C419.803 598.126 419.892 597.259 419.104 596.956C418.111 596.602 418.368 598.025 417.47 598.068C416.418 596.516 415.108 595.086 414.365 593.23C414.048 592.383 413.931 591.477 414.02 590.579C414.109 589.682 414.403 588.815 414.88 588.044C415.925 586.181 415.616 584.347 415.616 582.49C415.689 579.219 418.486 576.597 421.901 576.301C425.538 575.861 429.216 575.861 432.852 576.301C433.955 576.467 435.083 576.34 436.119 575.932C437.155 575.524 438.06 574.851 438.74 573.983C438.99 573.694 439.233 573.261 440.057 573.506C440.234 582.035 438.372 590.196 434.905 598.48C431.424 594.147 426.53 594.869 422.195 593.923C421.253 593.728 420.098 593.858 419.987 595.252C419.877 596.646 420.65 597.462 422.07 597.296C424.499 597.007 426.736 597.924 429.062 598.227C430.821 598.451 431.917 599.975 433.323 600.899C433.919 601.289 433.191 601.831 433.014 602.185C430.939 606.272 427.965 609.753 424.918 613.169C423.38 614.91 421.975 616.78 419.98 618.131C419.704 618.376 419.356 618.529 418.987 618.569C418.617 618.609 418.243 618.534 417.919 618.355C414.144 616.838 410.42 615.047 406.144 615.293C404.152 615.349 402.219 615.971 400.58 617.084C398.547 618.553 396.215 619.575 393.743 620.081C392.921 620.28 392.162 620.677 391.535 621.236C391.236 621.489 390.878 621.664 390.493 621.749C390.108 621.833 389.707 621.823 389.327 621.72C384.337 620.789 379.267 620.601 374.233 620.059C372.341 619.857 370.818 621.215 368.978 621.583C364.275 622.522 360.485 625.259 357.048 628.466C356.726 628.826 356.304 629.086 355.833 629.216C355.363 629.345 354.865 629.338 354.398 629.195C353.705 628.983 352.974 628.915 352.253 628.997C351.532 629.079 350.836 629.309 350.211 629.672C349.35 630.235 348.371 629.939 347.451 629.939C342.299 629.939 338.023 632.012 334.454 635.5C333.858 636.085 333.718 635.738 333.284 635.601C330.229 634.604 327.676 632.654 324.761 631.391C323.598 630.892 322.553 630.047 321.42 629.563C316.32 627.476 312.25 624.046 308.239 620.435C303.779 616.419 300.335 611.53 296.103 607.399C293.144 604.495 290.708 601.121 288.898 597.418C287.426 594.465 286.513 591.215 285.321 588.124C284.335 585.567 283.4 582.974 282.377 580.403C281.002 576.547 279.999 572.571 279.382 568.53C278.44 563.287 278.432 557.972 278.484 552.642C278.62 547.467 279.323 542.322 280.581 537.295C281.81 531.951 283.025 526.636 284.997 521.501C286.808 516.806 289.413 512.538 291.878 508.183C293.194 505.64 294.788 503.245 296.633 501.041C299.188 498.244 302.225 495.909 305.604 494.144C309.284 492.194 312.493 489.493 316.401 487.911C320.347 486.437 324.38 485.198 328.478 484.199C329.103 484.026 329.626 483.881 329.891 484.719C330.156 485.557 329.596 485.629 329.111 485.947C328.183 486.539 326.351 486.777 327.212 488.395C328.183 490.237 329.692 489.182 330.892 488.475C336.022 485.484 341.853 483.847 347.819 483.722C351.83 483.571 355.841 482.711 359.859 482.964C366.292 483.369 372.702 484.055 379.119 484.654C380.172 484.748 381.011 485.535 382.144 485.6C382.88 485.644 383.035 486.539 382.829 487.167C382.424 488.395 381.842 489.746 380.569 490.172C377.309 491.255 375.263 493.783 372.893 495.949C368.477 499.95 363.443 502.254 357.276 501.814C352.934 501.503 348.599 501.951 344.272 502.269C341.725 502.456 339.642 503.951 337.795 505.576C335.97 507.053 334.408 508.818 333.173 510.798C330.811 514.878 325.814 516.373 320.662 515.001C317.063 514.04 313.501 513.39 309.703 514.077C308.511 514.286 307.157 513.658 305.803 514.272C303.469 515.35 301.662 517.289 300.776 519.666C299.451 522.981 297.28 525.668 295.212 528.463C293.895 530.232 294.123 531.828 294.977 533.894C296.397 537.331 299.061 539.751 301.277 542.524C301.753 543.181 302.385 543.715 303.118 544.08C303.852 544.445 304.664 544.63 305.486 544.618C311.374 544.178 315.915 546.835 320.206 550.237C321.957 551.624 323.628 553.126 325.409 554.447C327.81 556.326 330.766 557.393 333.836 557.488C338.347 557.589 342.866 557.567 347.385 557.488C350.858 557.43 353.729 555.892 356.216 553.639C357.225 552.729 358.115 552.035 359.734 552.721C362.523 553.899 365.416 554.758 367.867 556.657C370.038 558.34 374.682 557.38 376.514 555.43C380.157 551.588 382.071 546.864 384.072 542.206C384.342 541.459 384.83 540.806 385.475 540.33C386.12 539.853 386.894 539.574 387.701 539.527C393.434 538.761 398.49 536.681 402.486 532.457C402.955 532.029 403.33 531.513 403.59 530.94C405.136 526.556 408.867 524.671 412.849 523.133C416.83 521.595 419.987 519.06 422.909 515.81Z" fill="#B0D9E8"/>
<path d="M312.861 515.016C316.541 515.283 319.713 516.396 322.988 516.923C326.756 517.537 330.671 517.529 333.718 514.944C335.801 513.167 337.243 510.676 339.061 508.574C339.93 507.582 340.992 506.772 342.185 506.19C343.379 505.608 344.679 505.267 346.009 505.187C351.212 504.703 356.467 505.187 361.626 504.696C367.954 504.035 373.766 500.968 377.817 496.152C379.193 494.692 380.892 493.563 382.785 492.852C384.831 491.964 386.17 490.75 386.465 488.475C386.568 487.681 386.936 487.125 388.201 487.544C389.467 487.963 390.409 488.439 391.513 488.901C395.554 490.628 399.822 492.029 403.377 494.571C407.822 497.792 412.54 500.883 415.645 505.606C416.849 507.496 418.194 509.294 419.671 510.986C420.731 512.142 420.282 512.907 419.671 513.933C417.684 517.168 414.519 518.844 411.112 520.187C406.696 521.949 402.921 524.246 400.764 528.709C398.608 533.172 394.509 535.072 389.872 536.032C388.687 536.285 387.451 536.27 386.273 536.538C383.381 537.209 381.637 539.188 380.724 541.824C379.445 545.372 377.745 548.761 375.661 551.92C373.754 554.889 370.752 555.047 366.932 552.845C364.765 551.689 362.451 550.82 360.051 550.259C356.261 549.255 353.825 551.812 351.315 553.733C350.154 554.683 348.716 555.247 347.208 555.344C342.682 555.51 338.171 555.589 333.644 556.066C331.392 556.29 328.912 554.91 327.021 553.314C323.466 550.368 319.897 547.45 315.834 545.182C313.479 543.827 310.754 543.219 308.033 543.442C306.885 543.576 305.722 543.414 304.658 542.97C303.594 542.527 302.667 541.818 301.969 540.914C299.923 538.437 297.442 536.278 296.375 533.085C296.164 532.659 296.083 532.182 296.142 531.712C296.2 531.242 296.397 530.798 296.706 530.435C299.017 527.322 301.917 524.592 302.719 520.498C303.139 518.331 305.096 517.269 307.29 516.612C309.109 515.96 310.97 515.427 312.861 515.016V515.016Z" fill="#9CE084"/>
<path d="M337.685 636.871C341.105 634.77 345.064 633.667 349.1 633.693C351.366 633.693 353.552 632.971 355.981 633.217C358.969 633.498 360.779 630.66 362.973 629.042C368.941 624.637 375.543 623.568 382.726 624.911C385.022 625.345 387.384 625.359 389.651 626.045C390.976 626.45 392.161 625.677 393.265 625.041C394.896 624.081 396.691 623.421 398.564 623.091C399.459 622.881 400.287 622.454 400.97 621.849C404.15 619.516 407.491 618.238 411.399 620.325C412.605 620.812 413.857 621.179 415.138 621.423C413.894 623.431 411.715 624.037 409.905 624.933C407.888 625.922 405.783 626.789 403.789 627.822C398.578 630.53 392.985 632.155 387.406 633.903C383.329 635.195 379.311 636.712 375.138 637.73C369.261 639.184 363.25 640.053 357.195 640.323C354.014 640.462 350.827 640.249 347.694 639.688C344.248 639.177 340.883 638.23 337.685 636.871V636.871Z" fill="#FEFEFE"/>
<path d="M255.345 623.936C260.173 623.466 264.037 626.449 267.695 629.54C269.325 630.783 270.838 632.168 272.214 633.678C275.231 637.289 275.047 641.218 274.37 645.327C273.192 652.427 268.365 656.709 262.241 659.692C259.356 661.136 256.037 660.595 253.049 659.569C249.811 658.427 246.641 657.105 243.555 655.611C239.956 653.9 238.919 650.44 237.874 647.003C235.533 639.311 239.036 634.299 244.254 630.298C245.115 629.634 246.793 629.078 244.99 627.554C244.512 627.157 245.358 626.991 245.653 626.774C248.368 624.745 251.459 623.885 255.345 623.936Z" fill="#FFDA74"/>
<path d="M534.747 559.719C533.032 556.974 531.464 554.418 527.048 555.667C528.947 553.732 530.574 552.482 531.118 550.373C531.626 548.38 532.723 546.538 532.752 544.285C533.808 545.565 534.387 547.16 534.393 548.806C534.533 551.738 535.865 553.464 538.875 553.912C539.368 553.992 539.861 554.085 540.384 554.179C538.463 555.884 535.232 556.252 534.747 559.719Z" fill="#B0D9E8"/>
<path d="M498.441 449.217C500.495 449.267 503.269 451.874 503.424 453.897C503.578 455.919 501.142 459.226 499.052 459.01C496.962 458.793 494.357 458.23 492.877 456.395C491.648 454.864 492.318 453.081 493.289 451.427C494.489 449.368 496.697 449.874 498.441 449.217Z" fill="#B0D9E8"/>
<path d="M498.044 478.636C496.454 478.174 494.562 477.741 493.297 476.174C492.894 475.777 492.637 475.262 492.563 474.707C492.49 474.152 492.606 473.588 492.892 473.104C493.54 471.92 494.268 472.065 495.438 472.137C497.646 472.274 499.751 472.086 500.59 474.758C501.135 476.47 499.92 478.68 498.044 478.636Z" fill="#B0D9E8"/>
<path d="M320.404 559.993C324.084 559.733 327.19 561.632 330.561 562.961C335.286 564.817 339.952 565.373 344.846 563.575C346.517 562.968 348.289 562.672 350.071 562.701C353.496 562.896 356.91 562.164 359.94 560.585C360.569 560.251 361.268 560.063 361.982 560.035C362.697 560.008 363.408 560.141 364.062 560.426C366.513 561.314 369.214 561.148 371.708 562.08C375.469 563.481 377.029 566.68 375.977 570.573C375.079 573.888 372.776 576.51 371.811 579.839C370.98 582.728 370.34 584.967 372.238 587.877C374.799 591.806 374.284 596.305 373.121 600.804C372.754 602.502 372.027 604.104 370.988 605.508C369.948 606.911 368.619 608.085 367.087 608.951C366.287 609.557 365.532 610.218 364.827 610.93C360.007 614.743 352.691 612.562 350.108 606.466C348.6 602.778 347.85 598.834 347.9 594.861C347.9 590.585 347.466 590.275 343.293 588.585C340.861 587.669 338.358 586.944 335.808 586.418C333.438 585.877 330.737 585.588 328.309 587.14C326.708 588.155 324.975 588.954 323.157 589.516C317.674 591.293 310.947 588.289 309.873 581.774C309.586 580.019 308.953 578.301 308.504 576.56C307.768 573.772 308.71 571.555 309.917 569.259C310.013 569.078 310.233 568.84 310.175 568.71C309.026 565.864 310.631 564.095 312.574 562.326C314.752 560.397 317.277 560.217 320.404 559.993Z" fill="#3A4453"/>
<path d="M251.798 628.271C252.181 626.602 253.638 625.887 255.581 626.617C258.142 627.577 259.548 629.838 260.872 631.947C261.778 633.391 260.423 635.045 258.665 635.074C256.39 635.117 254.565 636.98 252.041 636.417C250.253 636.013 249.259 634.973 249.156 632.495C249.053 630.018 249.892 628.531 251.761 628.227C252.939 628.949 252.585 629.729 251.894 630.517C251.465 630.915 251.209 631.459 251.179 632.038C251.149 632.616 251.347 633.183 251.732 633.622C252.608 634.77 253.734 634.525 254.867 634.034C255.521 633.723 256.207 633.481 256.913 633.312C258.812 632.922 258.628 632.979 257.649 631.448C256.354 629.195 254.19 628.588 251.798 628.271Z" fill="#3A4453"/>
<path d="M252.696 649.358C253.285 649.264 253.859 648.925 254.006 649.705C254.045 649.844 254.052 649.99 254.024 650.132C253.997 650.274 253.937 650.408 253.849 650.524C253.761 650.64 253.647 650.734 253.516 650.8C253.385 650.866 253.24 650.901 253.093 650.904C251.93 651.026 250.753 650.88 249.658 650.476C248.563 650.072 247.579 649.422 246.786 648.578C245.483 647.134 245.432 645.025 246.234 643.111C246.43 642.735 246.712 642.409 247.058 642.158C247.132 642.08 247.221 642.017 247.321 641.975C247.42 641.932 247.528 641.91 247.636 641.91C247.745 641.91 247.852 641.932 247.951 641.975C248.051 642.017 248.14 642.08 248.214 642.158C248.457 642.432 248.361 642.786 248.214 643.14C246.661 646.744 248.736 649.539 252.696 649.358Z" fill="#3A4453"/>
<path d="M262.33 655.511C262.219 656.233 262.727 657.287 261.638 657.677C260.549 658.067 259.651 657.974 259.43 656.565C259.43 656.515 258.996 656.565 258.819 656.479C258.318 656.27 257.913 655.887 257.682 655.403C257.451 654.919 257.411 654.368 257.568 653.857C258.024 652.376 259.467 652.694 260.681 652.629C262.013 652.557 262.153 653.445 262.286 654.362C262.326 654.744 262.341 655.127 262.33 655.511V655.511Z" fill="#3A4453"/>
<path d="M252.291 646.636C250.65 646.751 249.597 646.296 249.671 644.556C249.715 643.501 249.583 642.324 251.231 642.389C252.548 642.389 253.932 643.978 254.065 645.278C254.241 646.889 253.204 646.694 252.291 646.636Z" fill="#3A4453"/>
<path d="M264.942 648.363C263.941 648.45 263.22 648.233 263.176 646.919C263.176 645.734 264.103 645.207 264.714 645.474C265.516 645.814 267.172 645.077 267.106 646.767C267.062 647.973 266.193 648.421 264.942 648.363Z" fill="#3A4453"/>
<path d="M257.487 648.809C257.016 648.672 256.361 649.076 256.243 648.282C256.162 647.762 256.376 647.516 256.942 647.488C257.973 647.43 258.009 646.448 258.37 645.827C258.433 645.666 258.552 645.533 258.705 645.451C258.859 645.369 259.038 645.343 259.209 645.379C259.724 645.379 259.695 645.79 259.709 646.137C259.798 647.719 259.084 648.629 257.487 648.809Z" fill="#3A4453"/>
<path d="M262.889 638.951C263.434 639.124 264.442 638.951 264.515 640.178C264.552 640.749 263.993 641.392 263.779 641.016C263.043 639.767 261.152 642.417 261.042 640.106C260.99 639.03 261.792 638.886 262.889 638.951Z" fill="#3A4453"/>
<path d="M320.265 563.078C323.157 562.435 325.659 564.428 328.36 565.541C334.314 567.982 340.275 568.509 346.435 566.443C348.326 565.803 350.327 565.535 352.323 565.656C355.561 565.866 358.49 564.891 361.28 563.432C361.684 563.215 362.104 562.926 362.465 563.129C365.004 564.573 368.036 563.937 370.656 565.158C372.68 566.097 373.6 567.548 372.864 569.693C371.458 573.745 368.993 577.341 367.712 581.472C367.079 583.531 366.807 585.322 368.227 587.17C369.305 588.705 370.093 590.417 370.553 592.226C371.355 594.847 370.553 597.447 370.097 600.026C369.537 603.326 367.741 605.688 364.408 606.8C363.583 607.074 363.164 607.912 362.325 608.352C359.381 609.898 355.377 608.071 353.986 604.814C352.458 601.191 351.721 597.294 351.823 593.374C351.911 589.178 350.468 586.311 346.031 585.098C344.282 584.656 342.562 584.114 340.879 583.473C336.934 581.855 332.923 582.548 328.942 582.325C328.657 582.318 328.375 582.368 328.111 582.471C327.846 582.574 327.606 582.728 327.403 582.924C325.369 584.569 322.907 585.622 320.294 585.964C318.233 586.195 316.541 584.773 315.613 583.018C313.928 579.811 312.765 576.518 313.302 572.698C313.567 570.849 313.516 569.087 314.149 567.173C315.267 563.916 315.915 563.078 320.265 563.078Z" fill="#9CE084"/>
<path d="M251.798 628.271C255.794 626.928 257.207 630.257 259.238 632.344C259.776 632.893 259.511 633.875 258.392 633.789C256.92 633.637 255.772 634.244 254.55 634.814C254.039 635.131 253.421 635.237 252.831 635.108C252.241 634.98 251.727 634.627 251.401 634.128C250.429 632.814 250.01 631.304 251.474 630.235C252.482 629.513 252.343 629.022 251.835 628.249L251.798 628.271Z" fill="#FEFEFE"/>
<path d="M260.622 656.479C260.541 655.598 259.246 655.194 259.717 654.197C259.815 654.11 259.935 654.051 260.065 654.026C260.194 654 260.328 654.01 260.453 654.053C261.343 654.717 261.042 655.591 260.622 656.479Z" fill="#FEFEFE"/>
<path d="M232.446 77.8074C232.446 84.2056 232.446 89.6855 230.214 94.903C227.922 100.272 223.708 104.633 218.367 107.165C216.649 108.012 215.672 109.435 214.15 110.354C205.779 115.4 196.893 116.409 187.103 115.995C176.901 115.571 169.126 110.475 161.392 105.701C151.823 99.9536 144.838 90.8518 141.852 80.2395C139.427 72.6369 138.543 64.6415 139.25 56.7053C140.279 47.2593 144.732 39.206 153.011 33.6757C157.988 30.3454 163.552 28.1656 169.054 25.8444C178.31 21.949 187.566 23.2609 197.006 24.8352C204.421 26.0664 209.574 30.6683 215.086 34.9271C216.577 36.0776 217.976 37.339 219.416 38.5602C225.514 43.7272 228.106 50.8016 229.864 58.098C231.489 64.8091 233.032 71.6513 232.446 77.8074Z" fill="#3A4453"/>
<path d="M228.846 78.7664C228.414 83.6105 228.939 88.5656 227.057 93.2785C225.425 96.9785 222.758 100.149 219.364 102.422C216.279 104.682 213.338 107.357 209.738 108.941C202.992 111.908 196.215 114.481 188.532 112.796C186.126 112.261 183.565 112.796 181.076 112.11C176.191 110.677 172.037 107.851 167.563 105.641C161.036 102.409 155.393 97.6888 151.108 91.8757C146.306 85.4371 144.372 77.9691 142.757 70.3397C141.1 62.4142 142.077 54.1761 145.544 46.8358C148.63 40.2054 154.08 35.8155 160.971 33.0705C163.984 31.8696 167.532 31.5971 170.165 30.3255C175.307 27.8429 180.449 27.4191 185.817 27.7218C194.435 28.2264 202.642 30.1035 209.204 36.2595C213.173 39.9834 218.151 42.7183 221.102 47.4211C224.692 53.1533 226.244 59.6322 227.551 66.1617C228.476 70.3002 228.911 74.5299 228.846 78.7664V78.7664Z" fill="#967057"/>
<path d="M201.336 79.4004C201.532 84.8298 198.385 88.6445 195.67 92.5198C194.363 94.3666 188.779 93.7207 185.684 91.6115C183.376 90.1738 181.259 88.4621 179.379 86.5151C177.555 84.367 175.074 82.8525 172.304 82.1958C164.807 80.3389 162.02 74.4453 159.963 68.1782C159.544 66.887 159.584 65.4946 160.075 64.2282C160.566 62.9618 161.48 61.896 162.668 61.2047C165.311 59.6607 168.242 58.3488 171.368 60.0038C176.51 62.6983 181.179 66.1498 187.031 67.3406C188.666 67.6736 190.209 68.3498 191.936 68.3498C196.863 68.4103 199.238 70.0553 200.555 74.7379C200.987 76.3324 201.789 77.9875 201.336 79.4004Z" fill="#3A4453"/>
<path d="M182.568 51.0154C179.863 51.7521 177.426 49.9456 175.07 48.7649C171.594 47.0291 170.957 42.2859 173.25 38.3804C175.153 35.0904 179.174 34.1014 182.835 35.5547C186.249 36.9171 188.286 39.662 190.62 42.1043C191.27 42.877 191.68 43.8163 191.802 44.8108C191.924 45.8053 191.753 46.8133 191.309 47.7153C190.281 49.9456 187.761 50.6723 185.334 50.9952C184.413 51.0591 183.489 51.0659 182.568 51.0154V51.0154Z" fill="#3A4453"/>
<path d="M215.971 61.8422C216.608 64.2542 215.313 66.545 213.554 68.6441C212.972 69.3456 212.24 69.9137 211.41 70.3086C210.581 70.7034 209.673 70.9155 208.751 70.9299C207.829 70.9443 206.915 70.7607 206.073 70.392C205.231 70.0233 204.481 69.4784 203.876 68.7955C202.532 67.1743 201.698 65.2041 201.475 63.1254C201.252 61.0466 201.651 58.9492 202.622 57.0889C204.134 53.9605 205.841 51.5283 209.605 52.4366C214.346 53.577 215.971 56.1706 215.971 61.8422Z" fill="#3A4453"/>
<path d="M211.6 91.7138C207.147 92.279 206.159 89.0092 207.013 85.3862C207.476 83.3679 208.494 81.622 208.71 79.5329C208.885 77.9082 213.225 76.6366 214.757 77.7467C216.032 78.6751 217.41 79.7651 217.678 81.3999C218 84.3176 217.324 87.2576 215.755 89.756C215.433 90.5297 214.829 91.1585 214.062 91.5202C213.294 91.882 212.416 91.951 211.6 91.7138Z" fill="#3A4453"/>
<path d="M163.418 67.3418C162.997 65.3234 163.994 64.3142 165.702 63.628C166.433 63.2509 167.255 63.077 168.08 63.125C168.904 63.173 169.7 63.4412 170.381 63.9005C175.51 66.9407 181.049 69.2576 186.836 70.7831C188.17 71.1801 189.555 71.3874 190.949 71.3987C195.351 71.3987 199.105 75.93 198.272 80.2997C197.624 83.7209 195.67 86.5668 193.664 89.2815C191.834 91.7439 189.551 89.5035 187.494 89.0998C186.545 88.7937 185.714 88.2133 185.108 87.4347C181.183 82.9982 176.146 79.6446 170.494 77.7061C165.876 76.0712 164.601 71.5299 163.418 67.3418Z" fill="#FFDA74"/>
<path d="M183.596 48.1177C181.806 48.3397 180.326 47.603 178.783 46.8663C174.093 44.6158 174.165 43.1726 177.6 38.9038C177.894 38.6161 178.253 38.4018 178.649 38.2789C179.044 38.1559 179.464 38.128 179.873 38.1973C183.322 39.3638 186.271 41.6353 188.244 44.6461C189.17 45.9681 187.884 47.2296 186.558 47.7544C185.593 48.011 184.596 48.1333 183.596 48.1177V48.1177Z" fill="#FFDA74"/>
<path d="M212.896 61.1763C213.184 62.3167 212.474 63.1947 212.021 64.2039C211.199 65.97 209.759 67.8572 207.98 67.6049C205.841 67.292 205.1 64.8296 204.617 62.8516C204.133 60.8736 205.162 59.158 206.242 57.5332C208.556 59.4708 208.453 56.3928 209.533 56.1001C210.086 56.0892 210.628 56.249 211.084 56.5567C211.54 56.8645 211.886 57.3049 212.073 57.8157C212.392 58.8653 213.194 59.9048 212.896 61.1763Z" fill="#FFDA74"/>
<path d="M214.14 83.0361C214.097 84.6364 213.748 86.2146 213.111 87.6884C212.782 88.6976 212.165 89.2325 211.003 88.8995C209.543 88.4857 209.841 87.7187 210.345 86.6692C210.876 85.4247 211.333 84.151 211.713 82.8544C211.96 82.148 211.209 80.8361 212.834 80.9773C214.119 81.1388 214.212 82.1783 214.14 83.0361Z" fill="#FFDA74"/>
</g>
<defs>
<radialGradient id="paint0_radial" cx="0" cy="0" r="1" gradientUnits="userSpaceOnUse" gradientTransform="translate(497.742 221.867) rotate(66.9941) scale(804.086 853.381)">
<stop stop-color="#807CAA"/>
<stop offset="0.570232" stop-color="#D2D2D4"/>
</radialGradient>
<clipPath id="clip0">
<rect width="612" height="879" fill="white"/>
</clipPath>
</defs>
</svg>
