<svg id="Capa_1" data-name="Capa 1" xmlns="http://www.w3.org/2000/svg" viewBox="0 0 37 36.23"><defs><style>.cls-1{fill:#299404;}</style></defs><path class="cls-1" d="M104.56,386.17a18.58,18.58,0,0,0-5.84,36.19c.93.17,1.26-.4,1.26-.89s0-1.61,0-3.16c-5.15,1.12-6.23-2.49-6.23-2.49a4.89,4.89,0,0,0-2.06-2.72C90,412,91.8,412,91.8,412a3.89,3.89,0,0,1,2.83,1.92,3.93,3.93,0,0,0,5.39,1.54,3.91,3.91,0,0,1,1.17-2.48c-4.11-.47-8.43-2.07-8.43-9.18a7.23,7.23,0,0,1,1.91-5,6.67,6.67,0,0,1,.18-4.91s1.55-.5,5.09,1.9a17.36,17.36,0,0,1,4.63-.62,17.89,17.89,0,0,1,4.63.62c3.53-2.4,5.08-1.9,5.08-1.9a6.69,6.69,0,0,1,.19,4.91,7.18,7.18,0,0,1,1.9,5c0,7.13-4.32,8.7-8.45,9.16a4.44,4.44,0,0,1,1.26,3.44c0,2.49,0,4.49,0,5.1s.33,1.07,1.27.89a18.58,18.58,0,0,0-5.87-36.19Z" transform="translate(-86.07 -386.17)"/></svg>