<svg width="36" height="36" viewBox="0 0 36 36" fill="none" xmlns="http://www.w3.org/2000/svg">
<path d="M26.5787 18C26.5787 22.7489 22.7489 26.5787 18 26.5787C13.2511 26.5787 9.42128 22.7489 9.42128 18C9.42128 13.2511 13.2511 9.42128 18 9.42128C22.7489 9.42128 26.5787 13.2511 26.5787 18ZM36 10.3404V25.6596C36 31.4043 31.4043 36 25.6596 36H10.3404C4.59575 36 0 31.4043 0 25.6596V10.3404C0 4.59575 4.59575 0 10.3404 0H25.6596C31.3277 0 36 4.59575 36 10.3404ZM33.7021 10.3404C33.7021 5.89787 30.1021 2.29787 25.6596 2.29787H10.3404C5.89787 2.29787 2.29787 5.89787 2.29787 10.3404V25.6596C2.29787 30.1021 5.89787 33.7021 10.3404 33.7021H25.6596C30.1021 33.7021 33.7021 30.1021 33.7021 25.6596V10.3404ZM30.0255 6.97021C29.9489 6.81702 29.9489 6.74043 29.8723 6.66383C29.7957 6.58723 29.7192 6.43404 29.6426 6.35745C29.566 6.28085 29.4894 6.20426 29.3362 6.12766C29.2596 6.05106 29.1064 5.97447 29.0298 5.97447C28.8766 5.89787 28.8 5.89787 28.6468 5.89787C28.417 5.82128 28.1106 5.82128 27.8808 5.89787C27.7277 5.89787 27.6511 5.97447 27.4979 5.97447C27.3447 6.05106 27.2681 6.05106 27.1915 6.12766C27.1149 6.20426 26.9617 6.28085 26.8851 6.35745C26.8085 6.43404 26.7319 6.51064 26.6553 6.66383C26.5787 6.74043 26.5021 6.89362 26.5021 6.97021C26.4255 7.1234 26.4255 7.2 26.4255 7.35319C26.3489 7.58298 26.3489 7.88936 26.4255 8.11915C26.4255 8.27234 26.5021 8.34894 26.5021 8.50213C26.5787 8.65532 26.5787 8.73192 26.6553 8.80851C26.7319 8.88511 26.8085 9.0383 26.8851 9.11489C26.9617 9.19149 27.0383 9.26809 27.1915 9.34468C27.2681 9.42128 27.4213 9.49787 27.4979 9.49787C27.6511 9.57447 27.7277 9.57447 27.8808 9.57447C28.1106 9.65106 28.417 9.65106 28.6468 9.57447C28.8 9.57447 28.8766 9.49787 29.0298 9.49787C29.183 9.42128 29.2596 9.42128 29.3362 9.34468C29.4128 9.26809 29.566 9.19149 29.6426 9.11489C29.7192 9.0383 29.7957 8.9617 29.8723 8.80851C30.0255 8.57872 30.1021 8.34894 30.1787 8.11915C30.2553 7.88936 30.2553 7.58298 30.1787 7.35319C30.1021 7.2 30.1021 7.04681 30.0255 6.97021Z" fill="#299404"/>
</svg>
