<svg width="300" height="209" fill="none" xmlns="http://www.w3.org/2000/svg"><g clip-path="url(#clip0)" filter="url(#filter0_i)"><path d="M245.156 164.622c-.54.156-1.1.232-1.662.226a7.5 7.5 0 01-1.121-.057h1.121a8.067 8.067 0 001.662-.169z" fill="#BBBDBF"/><path d="M36.607 70.122c.033.056 6.045-3.556 6.079-3.5.066.116-5.514 6.854-5.447 6.967.116.2 12.46-7.441 12.573-7.242.08.139-7.193 7.79-7.113 7.929.17.292 12.091-7.352 12.26-7.06.17.292-17.518 13.536-17.351 13.825.21.365 29.982-17.76 30.195-17.395.213.365-24.914 17.653-24.685 18.048.23.395 27.468-16.38 27.711-15.958.183.332-19.68 14.74-19.494 15.059.25.431 25.919-15.507 26.172-15.075.18.315-19.405 14.597-19.222 14.903.227.391 26.152-15.594 26.381-15.195.23.398-23.896 17.086-23.677 17.467.19.332 24.043-14.282 24.23-13.957.186.325-20.236 15.052-20.047 15.377.147.252 20.006-11.857 20.153-11.612.146.246-13.355 11.22-13.226 11.446.13.226 17.153-10.168 17.293-9.953.14.216-16.348 12.886-16.192 13.158.126.216 19.694-11.635 19.82-11.416.126.219-14.616 11.924-14.473 12.17.143.245 13.04-7.804 13.16-7.585.119.219-11.4 10.132-11.284 10.328.116.196 7.702-4.725 7.828-4.509.08.143-7.316 7.866-7.246 8.006.123.219 15.919-9.459 16.045-9.243.187.331-19.806 14.81-19.62 15.131.126.219 16.065-9.541 16.192-9.325.093.162-8.876 8.728-8.783 8.89.127.217 13.877-8.293 14.004-8.064.18.312-19.248 14.498-19.069 14.813.127.216 18.906-11.18 19.032-10.948.127.232-10.758 9.767-10.655 9.956.103.189 11.36-6.834 11.487-6.615.126.219-15.397 12.348-15.248 12.613.15.266 19.288-11.409 19.428-11.19.173.292-17.941 13.771-17.772 14.067.127.219 18.623-11.012 18.743-10.796.156.269-16.258 12.836-16.102 13.105.126.219 11.243-6.765 11.366-6.546.123.219-10.309 9.522-10.196 9.704.113.183 18.091-10.709 18.217-10.494.127.216-10.797 9.798-10.688 9.987.11.189 7.981-4.894 8.118-4.675.136.219-9.535 9.094-9.435 9.266.1.173 15.786-9.375 15.923-9.166.136.209-11.021 9.919-10.908 10.115.113.196 5.88-3.676 6.006-3.46.126.215-9.597 9.127-9.498 9.289.1.163 10.994-6.635 11.121-6.403.126.232-13.236 11.154-13.106 11.38.13.225 19.92-11.761 20.043-11.542.123.219-10.173 9.448-10.067 9.621.107.172 7.749-4.758 7.875-4.539.127.219-13.874 11.509-13.737 11.745.136.235 20.8-12.276 20.927-12.053.176.305-18.736 14.213-18.56 14.521.127.216 14.576-8.689 14.702-8.47.127.219-11.26 10.056-11.147 10.252.113.195 18.643-11.028 18.769-10.813" stroke="#9BBB97" stroke-width="3.37" stroke-linecap="round" stroke-linejoin="round"/><path d="M41.611 124.505c.253.431 31.44-18.689 31.689-18.247.18.308-18.875 14.292-18.696 14.597.18.305 18.64-11.177 18.832-10.845.143.245-14.655 11.943-14.512 12.189.143.245 22.497-13.347 22.663-13.055.166.292-20.518 15.205-20.325 15.536.153.269 21.688-12.845 21.841-12.58.153.265-15.054 12.169-14.908 12.421.147.252 11.19-6.781 11.333-6.529.077.133-6.797 7.568-6.72 7.7.14.239 12.071-7.272 12.21-7.033.094.159-8.705 8.626-8.615 8.795.132.229 8.62-5.272 8.752-5.043.133.229-10.538 9.655-10.428 9.84.11.186 18.336-10.862 18.466-10.639.166.288-17.466 13.509-17.293 13.798.127.219 21.174-12.491 21.283-12.276.11.216-16.118 12.77-15.969 13.039.15.269 13.252-7.923 13.379-7.704.09.159-8.676 8.626-8.583 8.775.123.219 15.939-9.471 16.065-9.253.203.332-21.732 15.882-21.529 16.23.126.219 20.95-12.355 21.073-12.139.124.216-14.216 11.702-14.076 11.944.14.242 14.851-8.848 14.964-8.626" stroke="#9BBB97" stroke-width="3.37" stroke-linecap="round" stroke-linejoin="round"/><path d="M19.81 117.744c.08.136 12.158-7.19 12.238-7.05.199.348-21.57 15.792-21.37 16.137.283.487 36.38-21.602 36.663-21.114.363.627-40.497 26.319-40.135 26.946.363.627 48.14-28.611 48.522-27.948.446.767-49.972 31.591-49.526 32.357.446.767 54.957-32.712 55.419-31.919.462.793-54.524 34.122-54.049 34.958.519.896 58.701-35.008 59.22-34.112.519.896-61.411 37.954-60.856 38.893.263.448 25.077-15.042 25.337-14.598.259.445-25.626 18.048-25.39 18.456.193.332 18.243-10.948 18.433-10.616.223.381-23.904 17.089-23.68 17.471.169.288 23.813-14.104 23.98-13.815.225.388-24.277 17.298-24.047 17.683.153.269 17.711-10.557 17.864-10.285.153.272-14.44 11.828-14.3 12.07.14.242 11.43-6.917 11.573-6.668.143.248-14.499 11.85-14.36 12.106.14.255 13.635-8.165 13.758-7.926.123.239-11.522 10.198-11.42 10.401.104.202 19.953-11.805 20.093-11.576.17.296-17.851 13.725-17.685 14.017.133.226 12.45-7.468 12.58-7.245.13.222-11.42 10.145-11.306 10.344.113.199 15.227-9.067 15.357-8.845.13.223-14.589 11.904-14.446 12.15.143.245 18.476-10.949 18.603-10.717.16.276-16.584 13.019-16.425 13.294.123.216 13.838-8.261 13.967-8.045.163.285-17.315 13.427-17.153 13.712.127.216 15.121-9.001 15.248-8.782.076.129-6.688 7.508-6.611 7.631.126.219 10.588-6.39 10.714-6.171.127.219-10.402 9.578-10.309 9.76.093.183 9.574-5.812 9.704-5.587.13.226-12.93 10.985-12.803 11.204.126.219 23.278-13.705 23.398-13.476.12.229-14.632 11.943-14.499 12.182.133.239 16.953-10.069 17.09-9.83.136.239-13.256 11.164-13.126 11.39.13.225 11.57-6.991 11.709-6.742.093.159-8.75 8.656-8.646 8.815.153.259 9.74-5.955 9.89-5.696.11.185-10.569 9.671-10.462 9.856.163.282 17.01-10.171 17.172-9.889.163.282-18.313 13.98-18.14 14.265.173.286 23.039-13.682 23.205-13.366.166.315-18.775 14.236-18.596 14.544.22.378 32.36-19.149 32.59-18.768.262.455-28.932 19.906-28.682 20.351.538.929 66.133-39.331 66.668-38.402.496.856-56.014 34.951-55.535 35.811.479.859 56.317-33.535 56.799-32.693.482.843-54.341 34.023-53.872 34.836.412.716 49.782-29.627 50.194-28.914.412.714-44.578 28.605-44.172 29.292.332.557 37.578-22.387 37.91-21.83.203.355-21.994 16.027-21.788 16.382.206.355 15.56-9.382 15.743-9.067" stroke="#9BBB97" stroke-width="3.37" stroke-linecap="round" stroke-linejoin="round"/><path d="M48.419 150.061c.033.057 7.056-4.137 7.086-4.081.103.176-9.783 9.233-9.683 9.409.1.176 14.878-8.835 14.994-8.626.116.209-11.077 9.953-10.974 10.146.17.292 14.632-8.809 14.785-8.517.153.292-16.99 13.244-16.827 13.523.21.368 24.881-14.82 25.094-14.455.176.309-18.732 14.216-18.556 14.521.243.418 22.058-13.27 22.3-12.845.18.308-18.871 14.289-18.692 14.597.253.435 23.152-13.917 23.405-13.479.156.265-16.092 12.743-15.94 13.011.333.591 38.314-22.855 38.656-22.264.343.59-37.744 24.783-37.405 25.363.293.504 39.021-23.147 39.311-22.643.289.504-31.802 21.492-31.513 21.98.25.434 32.038-19.034 32.291-18.599.206.358-22.427 16.256-22.218 16.628.353.607 40.953-24.401 41.306-23.794.352.607-38.273 25.101-37.93 25.688.342.587 32.829-19.687 33.168-19.103.339.584-35.024 23.277-34.711 23.824.372.641 35.582-21.345 35.948-20.705.366.64-43.171 27.808-42.785 28.475.448.777 56.014-33.299 56.462-32.513m96.382-19.312c.227.392 29.733-17.65 29.959-17.252.127.216-12.656 10.836-12.533 11.052.186.331 20.285-12.107 20.468-11.788.183.318-18.15 13.888-17.977 14.183.173.295 14.851-8.931 15.017-8.649.104.179-9.943 9.322-9.84 9.498.15.262 16.255-9.711 16.408-9.448.153.262-18.476 14.07-18.29 14.372.14.245 24.941-14.698 25.081-14.449.139.249-15.63 12.488-15.484 12.75.147.262 18.69-11.081 18.826-10.845.136.235-14.965 12.109-14.802 12.358.163.249 17.219-10.225 17.352-9.996.193.331-20.764 15.344-20.571 15.679.13.226 21.473-12.664 21.616-12.441.163.282-17.053 13.27-16.89 13.559.126.219 11.306-6.798 11.419-6.579.07.12-5.882 7.063-5.816 7.183.126.215 11.071-6.669 11.197-6.45.126.219-15.63 12.481-15.467 12.74.163.259 14.393-8.579 14.516-8.36.123.219-13.701 11.412-13.568 11.645.133.232 15.437-9.21 15.58-8.995.143.216-11.879 10.398-11.759 10.617.12.219 16.448-9.767 16.574-9.545.126.222-14.546 11.884-14.403 12.126.143.242 14.589-8.702 14.719-8.477.103.176-9.947 9.323-9.843 9.499.133.232 11.948-7.189 12.081-6.967.133.222-16.561 13.005-16.405 13.27.157.266 15.238-9.093 15.374-8.858.18.309-18.955 14.333-18.766 14.641.147.249 23.162-13.672 23.305-13.423.143.249-17.578 13.572-17.412 13.861.166.289 12.74-7.694 12.896-7.428.207.358-22.377 16.256-22.167 16.588.166.289 23.278-13.788 23.441-13.499.163.288-17.958 13.781-17.788 14.073.17.292 14.409-8.735 14.599-8.407.273.465-29.68 20.304-29.411 20.772.27.468 33.977-20.135 34.219-19.71" stroke="#9BBB97" stroke-width="3.37" stroke-linecap="round" stroke-linejoin="round"/><path d="M213.987 164.535c.293.501 37.205-22.095 37.494-21.594.29.501-33.41 22.377-33.108 22.892.246.424 34.645-20.523 34.891-20.099.246.425-29.134 19.999-28.868 20.46.202.349 29.779-17.62 29.982-17.252.203.369-18.782 14.24-18.603 14.545.18.305 15.125-9.074 15.297-8.802.173.272-14.299 11.741-14.153 11.984.1.172 14.942-8.835 15.041-8.666m-35.25-21.773c.127.215 18.793-11.114 18.919-10.899.126.216-11.064 9.953-10.951 10.139.113.186 8.766-5.338 8.893-5.123.063.113-5.231 6.699-5.168 6.808.126.219 12.181-7.299 12.304-7.09.123.209-11.553 10.219-11.436 10.421.116.203 9.936-6.015 10.063-5.796.126.219-13.784 11.459-13.635 11.692.15.232 12.923-7.734 13.049-7.515" stroke="#9BBB97" stroke-width="3.37" stroke-linecap="round" stroke-linejoin="round"/><path d="M104.406 164.682c.253.438 23.814-14.296 24.067-13.861.206.355-22.032 16.05-21.825 16.402.252.438 30.428-18.104 30.68-17.67.18.315-19.334 14.548-19.151 14.86.249.438 27.408-16.366 27.661-15.925.166.289-17.661 13.603-17.495 13.908.253.434 22.613-13.603 22.876-13.178.199.332-21.283 15.63-21.074 15.971.253.435 31.978-19 32.231-18.579.252.422-24.276 17.299-24.053 17.687.222.388 28.948-17.252 29.201-16.821.196.332-21.24 15.593-21.044 15.952.253.434 29.929-17.816 30.179-17.382.199.332-21.386 15.69-21.187 16.035.253.434 19.334-11.718 19.587-11.28.16.278-16.83 13.154-16.67 13.433.252.434 25.459-15.261 25.712-14.81.15.255-15.32 12.315-15.174 12.57.253.435 23.341-14.023 23.611-13.602.209.362-22.504 16.313-22.281 16.671.402.7 44.804-26.74 45.226-26.04.423.7-42.722 27.56-42.339 28.22.332.554 42.053-24.965 42.373-24.408.319.557-36.501 24.099-36.171 24.667.249.434 32.223-19.143 32.476-18.709.213.372-23.059 16.622-22.846 16.99.253.435 27.202-16.256 27.455-15.812.193.332-20.708 15.311-20.515 15.646.266.455 30.475-18.161 30.738-17.706.299.514-32.859 22.076-32.563 22.59.415.716 47.022-28.044 47.437-27.324.416.72-47.434 30.19-47.012 30.91.423.72 54.026-32.091 54.448-31.362.422.73-47.112 29.999-46.693 30.725.13.219 8.47-5.172 8.597-4.953.126.219-14.43 11.821-14.3 12.063.13.242 22.946-13.496 23.056-13.271.199.332-21.36 15.676-21.16 16.021.126.216 13.095-7.833 13.222-7.63.126.202-11.244 10.046-11.131 10.241.113.196 17.403-10.314 17.529-10.095.126.219-10.349 9.548-10.243 9.73.107.183 13.189-7.889 13.302-7.67.157.269-16.178 12.793-16.025 13.062.153.268 14.386-8.583 14.516-8.361.089.159-8.587 8.566-8.494 8.722.133.229 10.974-6.635 11.104-6.393.13.242-13.558 11.33-13.425 11.562.133.232 15.723-9.369 15.859-9.133.137.235-12.43 10.702-12.304 10.918.126.216 15.859-9.465 16.002-9.216.107.182-10.415 9.581-10.309 9.767.15.262 19.777-11.741 19.926-11.479.15.262-15.746 12.55-15.596 12.812.15.263 19.953-11.877 20.132-11.595.18.282-17.272 13.4-17.106 13.686.166.285 18.596-11.134 18.779-10.816.146.249-15.028 12.149-14.881 12.401.226.389 27.401-16.299 27.628-15.924.192.331-20.771 15.344-20.575 15.679.532.926 61.355-36.571 61.89-35.648.536.922-58.169 36.162-57.657 37.041.479.826 55.911-33.309 56.39-32.48.442.76-49.519 31.339-49.077 32.099.406.706 42.283-25.297 42.692-24.591.333.601-38.778 25.367-38.429 25.968.333.547 34.798-20.776 35.117-20.238.279.481-30.701 20.871-30.421 21.352.169.296 25.805-15.261 25.975-14.962M173.483 22.709c.256.441 34.252-20.324 34.518-19.883.22.378-23.777 17.02-23.558 17.398.257.445 28.423-16.96 28.679-16.519.223.389-24.236 17.276-24.013 17.664.256.44 28.696-17.116 28.932-16.675.226.388-24.376 17.355-24.15 17.743.226.388 27.119-16.13 27.342-15.749.15.259-15.563 12.448-15.413 12.707.149.258 16.906-10.116 17.069-9.83.163.285-14.519 11.867-14.379 12.112.14.246 15.423-9.213 15.566-8.957.143.255-13.86 11.498-13.724 11.734.137.236 10.568-6.416 10.708-6.168.093.156-8.646 8.597-8.553 8.756.143.242 7.702-4.761 7.842-4.516.096.163-9.049 8.822-8.953 8.988.13.226 14.696-8.762 14.825-8.54.17.296-18.077 13.848-17.907 14.147.109.186 12.68-7.554 12.789-7.365.03.05-.289 3.925-.259 3.98.03.057 1.051-.732 1.104-.636" stroke="#9BBB97" stroke-width="3.37" stroke-linecap="round" stroke-linejoin="round"/><path d="M149.629 3.739s.429-.256.436-.253c.033.06 4.2 1.327 4.233 1.394.033.066 2.271-1.42 2.328-1.327.057.093-.06 3.798-.03 3.848.093.163 10.898-6.492 10.991-6.33.163.279-16.96 13.218-16.784 13.496.176.279 15.843-9.442 15.982-9.203.093.163-8.939 8.759-8.842 8.925.183.315 23.627-14.03 23.81-13.716.223.382-23.98 17.133-23.76 17.514.219.382 24.156-14.435 24.382-14.043.2.332-21.127 15.546-20.927 15.888.269.468 28.303-16.92 28.576-16.462.236.411-25.849 18.17-25.606 18.579.332.547 28.865-17.355 29.18-16.808.267.458-29.17 20.02-28.904 20.48.359.624 34.644-20.785 35.003-20.161.36.624-39.34 25.675-38.987 26.286.126.219 20.435-12.06 20.561-11.841.166.285-17.542 13.55-17.376 13.838.127.216 15.111-8.994 15.238-8.779.126.216-9.977 9.336-9.864 9.515.113.18 16.039-9.528 16.165-9.312.127.215-13.966 11.565-13.837 11.8.13.236 12.414-7.44 12.541-7.222.159.276-16.678 13.068-16.518 13.344.126.219 21.615-12.75 21.758-12.531.143.219-13.85 11.496-13.714 11.728.137.232 7.363-4.529 7.489-4.313.127.216-13.771 11.453-13.634 11.685.136.232 13.85-8.268 13.967-8.049.116.22-11.274 10.063-11.157 10.258.116.196 16.441-9.76 16.567-9.545.09.16-8.516 8.527-8.423 8.686.126.216 7.352-4.529 7.479-4.313.126.216-9.351 8.99-9.252 9.16.127.22 12.787-7.654 12.913-7.438.077.133-6.804 7.57-6.727 7.707.126.216 7.356-4.529 7.482-4.313.126.215-9.976 9.342-9.88 9.521.097.18 12.188-7.298 12.304-7.093.117.206-13.534 11.324-13.401 11.552.133.23 14.356-8.56 14.482-8.34.126.219-13.987 11.569-13.85 11.807.136.24 12.936-7.743 13.062-7.524.093.16-8.729 8.646-8.646 8.805.126.219 16.96-10.062 17.093-9.843.176.305-18.709 14.2-18.533 14.504.123.216 15.563-9.256 15.689-9.037.084.143-7.519 7.962-7.435 8.115.126.216 14.785-8.808 14.911-8.59.163.283-17.292 13.404-17.116 13.69.126.215 16.019-9.52 16.145-9.29.126.229-15.693 12.52-15.543 12.783.149.262 13.764-8.218 13.89-8 .087.15-8.141 8.318-8.051 8.468.123.219 8.134-4.977 8.261-4.758.089.153-8.357 8.437-8.267 8.593.126.215 16.584-9.844 16.71-9.621.17.291-17.884 13.738-17.715 14.033.127.216 14.822-8.828 14.965-8.61.143.22-11.619 10.256-11.503 10.458.117.203 16.518-9.807 16.627-9.588.183.315-19.48 14.631-19.287 14.93.123.219 18.932-11.194 19.058-10.979.163.282-17.096 13.304-16.933 13.586.126.216 18.406-10.892 18.533-10.676.126.216-10.788 9.794-10.679 9.983.11.189 13.113-7.843 13.236-7.63.123.212-12.577 10.785-12.454 11.001.123.215 16.91-10.026 17.036-9.81.167.285-17.452 13.499-17.292 13.788.123.215 16.737-9.93 16.86-9.715.123.216-12.554 10.776-12.431 10.992.123.215 6.552-4.061 6.675-3.845.083.142-7.473 7.962-7.39 8.088.123.219 9.545-5.786 9.671-5.57.126.215-11.483 10.178-11.367 10.377.117.199 12.481-7.478 12.607-7.259.127.219-15.127 12.206-14.964 12.461.259.452 26.78-16.03 27.039-15.576.259.455-30.787 20.918-30.508 21.402.373.641 44.282-26.359 44.651-25.718.449.773-50.407 31.849-49.958 32.606.449.756 49.469-29.527 49.918-28.751.483.833-54.537 34.122-54.038 34.955.498.832 63.469-37.732 63.981-36.853.539.936-61.334 37.914-60.792 38.85.542.936 64.254-38.302 64.813-37.334" stroke="#9BBB97" stroke-width="3.37" stroke-linecap="round" stroke-linejoin="round"/></g><defs><clipPath id="clip0"><path fill="#fff" d="M0 0h300v208.525H0z"/></clipPath><filter id="filter0_i" x="0" y="0" width="300" height="212.525" filterUnits="userSpaceOnUse" color-interpolation-filters="sRGB"><feFlood flood-opacity="0" result="BackgroundImageFix"/><feBlend in="SourceGraphic" in2="BackgroundImageFix" result="shape"/><feColorMatrix in="SourceAlpha" values="0 0 0 0 0 0 0 0 0 0 0 0 0 0 0 0 0 0 127 0" result="hardAlpha"/><feOffset dy="4"/><feGaussianBlur stdDeviation="2"/><feComposite in2="hardAlpha" operator="arithmetic" k2="-1" k3="1"/><feColorMatrix values="0 0 0 0 0 0 0 0 0 0 0 0 0 0 0 0 0 0 0.25 0"/><feBlend in2="shape" result="effect1_innerShadow"/></filter></defs></svg>