<svg width="296" height="132" fill="none" xmlns="http://www.w3.org/2000/svg"><circle r="2" transform="matrix(-1 0 0 1 4 2)" fill="#299404"/><circle r="2" transform="matrix(-1 0 0 1 4 69)" fill="#299404"/><circle r="2" transform="matrix(-1 0 0 1 4 10)" fill="#299404"/><circle r="2" transform="matrix(-1 0 0 1 4 18)" fill="#299404"/><circle r="2" transform="matrix(-1 0 0 1 4 26)" fill="#299404"/><circle r="2" transform="matrix(-1 0 0 1 4 34)" fill="#299404"/><circle r="2" transform="matrix(-1 0 0 1 4 53)" fill="#299404"/><circle r="2" transform="matrix(-1 0 0 1 4 77)" fill="#299404"/><circle r="2" transform="matrix(-1 0 0 1 4 61)" fill="#299404"/><circle r="2" transform="matrix(-1 0 0 1 4 85)" fill="#299404"/><circle r="3.5" transform="matrix(-1 0 0 1 3.5 43.5)" fill="#299404"/><circle r="3.5" transform="matrix(-1 0 0 1 3.5 94.5)" fill="#299404"/><circle cx="106" cy="2" r="2" fill="#299404"/><circle cx="106" cy="9" r="2" fill="#299404"/><circle cx="106" cy="17" r="3" fill="#299404"/><circle cx="233.5" cy="128.5" r="3.5" fill="#299404"/><circle cx="233" cy="2" r="2" fill="#299404"/><circle cx="233" cy="11" r="2" fill="#299404"/><circle cx="233" cy="19" r="2" fill="#299404"/><circle cx="233" cy="93" r="2" fill="#299404"/><circle cx="233" cy="27" r="2" fill="#299404"/><circle cx="233" cy="102" r="2" fill="#299404"/><circle cx="233" cy="36" r="2" fill="#299404"/><circle cx="233" cy="110" r="2" fill="#299404"/><circle cx="233" cy="44" r="2" fill="#299404"/><circle cx="233" cy="119" r="2" fill="#299404"/><circle cx="233" cy="65" r="2" fill="#299404"/><circle cx="233" cy="73" r="2" fill="#299404"/><circle cx="233.5" cy="54.5" r="3.5" fill="#299404"/><circle cx="233.5" cy="82.5" r="3.5" fill="#299404"/><circle cx="193" cy="2" r="2" fill="#299404"/><circle cx="193" cy="10" r="2" fill="#299404"/><circle cx="193" cy="19" r="2" fill="#299404"/><circle cx="193" cy="27" r="2" fill="#299404"/><circle cx="193" cy="35" r="2" fill="#299404"/><circle cx="193" cy="44" r="2" fill="#299404"/><circle cx="192.5" cy="53.5" r="3.5" fill="#299404"/><circle cx="293" cy="2" r="2" fill="#299404"/><circle cx="293" cy="10" r="2" fill="#299404"/><circle cx="293" cy="19" r="2" fill="#299404"/><circle cx="293" cy="27" r="2" fill="#299404"/><circle cx="293" cy="35" r="2" fill="#299404"/><circle cx="293" cy="44" r="2" fill="#299404"/><circle cx="292.5" cy="53.5" r="3.5" fill="#299404"/></svg>