<svg id="Layer_1" data-name="Layer 1" xmlns="http://www.w3.org/2000/svg" viewBox="0 0 902.13 628.53"><defs><style>.cls-3{fill:none;stroke:gray;stroke-linecap:round;stroke-linejoin:round;stroke-width:3.37px}</style></defs><path d="M670.13 599a25.24 25.24 0 0025.27 25.27h98.9A102.16 102.16 0 01593.13 599c0-56.27 45.83-102.1 102.27-102.1a102.28 102.28 0 0198.9 76.83h-98.9A25.34 25.34 0 00670.13 599zm553.29-25.28h-48.69a97.71 97.71 0 0124.43-44.15zm50.38-76.83a99.59 99.59 0 00-32 5.22l46.67 84.75a7.74 7.74 0 01.5 1.18 5.91 5.91 0 01.84 1.85 10.3 10.3 0 011 3c.17.68.34 1.18.51 1.86a32.22 32.22 0 01.34 4v.34a22.61 22.61 0 01-.51 4.88c-.34 1.18-.67 2.53-1 3.71-.5 1.18-1 2.19-1.51 3.37a1.26 1.26 0 00-.34.67 29.39 29.39 0 01-4 5.06l-.33.33a8.31 8.31 0 01-1.35 1.18 18.8 18.8 0 01-1.85 1.52h-.17a22.59 22.59 0 01-4.38 2.36 22 22 0 01-4.72 1.51 24.29 24.29 0 01-5 .51h-91.66a102.3 102.3 0 0099.07 77c56.27 0 102.1-45.83 102.1-102.27a102.25 102.25 0 00-102.21-102.03z" transform="translate(-534.23 -127.55)" fill="none"/><path d="M1271.44 623.75a17.26 17.26 0 01-5 .68 22.32 22.32 0 01-3.37-.17h3.37a24.29 24.29 0 005-.51z" transform="translate(-534.23 -127.55)" fill="#bbbdbf"/><path class="cls-3" d="M644.31 338.91c.1.17 18.18-10.72 18.28-10.55.2.35-16.58 20.66-16.38 21 .35.6 37.47-22.43 37.81-21.83.24.42-21.63 23.48-21.39 23.9.51.88 36.36-22.16 36.87-21.28s-52.68 40.8-52.18 41.67c.63 1.1 90.16-53.53 90.8-52.43s-74.92 53.21-74.23 54.4 82.6-49.37 83.33-48.1c.55 1-59.18 44.43-58.62 45.39.75 1.3 77.94-46.74 78.7-45.44.54.95-58.35 44-57.8 44.92.68 1.18 78.64-47 79.33-45.8s-71.86 51.5-71.2 52.65c.57 1 72.3-43.05 72.86-42.07s-60.85 45.37-60.28 46.35c.44.76 60.16-35.74 60.6-35s-40.16 33.82-39.77 34.5 51.58-30.65 52-30-49.16 38.84-48.69 39.66c.38.65 59.22-35.07 59.6-34.41s-43.95 35.94-43.52 36.68 39.21-23.52 39.57-22.86-34.28 30.54-33.93 31.13 23.16-14.24 23.54-13.59c.24.43-22 23.71-21.79 24.13.37.66 47.87-28.51 48.25-27.86.56 1-59.56 44.64-59 45.61.38.66 48.31-28.76 48.69-28.11.28.49-26.69 26.31-26.41 26.8.38.65 41.73-25 42.11-24.31.54.94-57.88 43.7-57.34 44.65.38.65 56.85-33.7 57.23-33s-32.35 29.44-32.04 30.01 34.16-20.6 34.54-19.94S787.55 463 788 463.8s58-34.39 58.42-33.73c.52.88-53.95 41.51-53.44 42.4.38.66 56-33.19 56.36-32.54.47.81-48.89 38.69-48.42 39.5.38.66 33.81-20.39 34.18-19.73s-31 28.7-30.66 29.25 54.4-32.28 54.78-31.63-32.47 29.53-32.14 30.1 24-14.75 24.41-14.09-28.67 27.41-28.37 27.93S870.59 473 871 473.63s-33.14 29.9-32.8 30.49 17.68-11.08 18.06-10.43-28.86 27.51-28.56 28 33.06-20 33.44-19.3-39.8 33.62-39.41 34.3 59.9-35.45 60.27-34.79-30.59 28.48-30.27 29 23.3-14.34 23.68-13.68-41.72 34.69-41.31 35.4 62.55-37 62.93-36.33c.53.92-56.34 42.84-55.81 43.77.38.65 43.83-26.19 44.21-25.53s-33.86 30.31-33.52 30.9 56.06-33.24 56.44-32.59" transform="translate(-534.23 -127.55)"/><path class="cls-3" d="M659.36 502.83c.76 1.3 94.54-56.33 95.29-55 .54.93-56.76 43.08-56.22 44s56.05-33.69 56.63-32.69c.43.74-44.07 36-43.64 36.74s67.65-40.23 68.15-39.35-61.7 45.83-61.12 46.83c.46.81 65.22-38.72 65.68-37.92s-45.27 36.68-44.83 37.44 33.65-20.44 34.08-19.68c.23.4-20.44 22.81-20.21 23.21.42.72 36.3-21.92 36.72-21.2.28.48-26.18 26-25.91 26.51.4.69 25.92-15.89 26.32-15.2s-31.69 29.1-31.36 29.66 55.14-32.74 55.53-32.07c.5.87-52.52 40.72-52 41.59.38.66 63.67-37.65 64-37S778 537.19 778.45 538s39.85-23.88 40.23-23.22c.27.48-26.09 26-25.81 26.45.37.66 47.93-28.55 48.31-27.89.61 1-65.35 47.87-64.74 48.92.38.66 63-37.24 63.37-36.59s-42.75 35.27-42.33 36 44.66-26.67 45-26" transform="translate(-534.23 -127.55)"/><path class="cls-3" d="M593.8 482.45c.24.41 36.56-21.67 36.8-21.25.6 1.05-64.86 47.6-64.26 48.64.85 1.47 109.4-65.11 110.25-63.64 1.09 1.89-121.78 79.33-120.69 81.22s144.76-86.24 145.91-84.24c1.34 2.31-150.27 95.22-148.93 97.53s165.26-98.6 166.65-96.21S555.57 547.35 557 549.87c1.56 2.7 176.52-105.52 178.08-102.82s-184.67 114.4-183 117.23c.79 1.35 75.41-45.34 76.19-44s-77.06 54.4-76.35 55.63c.58 1 54.86-33 55.43-32 .67 1.15-71.88 51.51-71.21 52.66.51.87 71.61-42.51 72.11-41.64.68 1.17-73 52.14-72.31 53.3.46.81 53.26-31.82 53.72-31s-43.42 35.65-43 36.38 34.37-20.85 34.8-20.1-43.6 35.72-43.18 36.49 41-24.61 41.37-23.89-34.65 30.74-34.34 31.35 60-35.58 60.42-34.89c.51.89-53.68 41.37-53.18 42.25.4.68 37.44-22.51 37.83-21.84s-34.34 30.58-34 31.18 45.79-27.33 46.18-26.66-43.87 35.88-43.44 36.62 55.56-33 55.94-32.3c.48.83-49.87 39.24-49.39 40.07.37.65 41.61-24.9 42-24.25.49.86-52.07 40.47-51.58 41.33.38.65 45.47-27.13 45.85-26.47.23.39-20.11 22.63-19.88 23 .38.66 31.84-19.26 32.22-18.6s-31.28 28.87-31 29.42 28.79-17.52 29.18-16.84-38.88 33.11-38.5 33.77 70-41.31 70.36-40.62-44 36-43.6 36.72 50.98-30.35 51.39-29.63-39.86 33.65-39.47 34.33 34.79-21.07 35.21-20.32c.28.48-26.31 26.09-26 26.57.46.78 29.29-17.95 29.74-17.17.33.56-31.78 29.15-31.46 29.71.49.85 51.15-30.66 51.64-29.81s-55.07 42.14-54.55 43 69.28-41.24 69.78-40.29-56.46 42.91-55.92 43.84c.66 1.14 97.31-57.72 98-56.57.79 1.37-87 60-86.25 61.34 1.62 2.8 198.87-118.55 200.48-115.75 1.49 2.58-168.44 105.35-167 107.94S845.66 645.46 847.11 648s-163.41 102.55-162 105c1.24 2.16 149.7-89.3 150.94-87.15S702 752.07 703.22 754.14c1 1.68 113-67.48 114-65.8.61 1.07-66.14 48.31-65.52 49.38s46.79-28.28 47.34-27.33" transform="translate(-534.23 -127.55)"/><path class="cls-3" d="M679.83 579.86c.1.17 21.22-12.47 21.31-12.3.31.53-29.42 27.83-29.12 28.36s44.74-26.63 45.09-26-33.31 30-33 30.58c.51.88 44-26.55 44.46-25.67s-51.09 39.92-50.6 40.76c.63 1.11 74.82-44.67 75.46-43.57.53.93-56.33 42.85-55.8 43.77.73 1.26 66.33-40 67.06-38.72.54.93-56.75 43.07-56.21 44 .76 1.31 69.62-41.95 70.38-40.63.47.8-48.39 38.41-47.93 39.22 1 1.78 115.21-68.89 116.24-67.11s-113.5 74.7-112.48 76.45c.88 1.52 117.34-69.77 118.21-68.25s-95.63 64.78-94.76 66.25c.75 1.31 96.34-57.37 97.1-56.06.62 1.08-67.44 49-66.81 50.12 1.06 1.83 123.15-73.55 124.21-71.72S797.55 625 798.58 626.77s98.72-59.34 99.74-57.58S793 639.35 793.94 641c1.12 1.93 107-64.34 108.1-62.41s-129.82 83.82-128.66 85.83c1.35 2.34 168.44-100.37 169.79-98M1233 508.21c.68 1.18 89.41-53.2 90.09-52 .38.65-38.06 32.66-37.69 33.31.56 1 61-36.49 61.55-35.53s-54.58 41.86-54.06 42.75 44.66-26.92 45.16-26.07c.31.54-29.9 28.1-29.59 28.63.45.79 48.88-29.27 49.34-28.48s-55.56 42.41-55 43.32c.42.74 75-44.3 75.42-43.55s-47 37.64-46.56 38.43 56.2-33.4 56.61-32.69-45 36.5-44.51 37.25 51.78-30.82 52.18-30.13c.58 1-62.44 46.25-61.86 47.26.39.68 64.57-38.17 65-37.5.49.85-51.28 40-50.79 40.87.38.66 34-20.49 34.34-19.83.21.36-17.69 21.29-17.49 21.65.38.65 33.29-20.1 33.67-19.44s-47 37.62-46.51 38.4 43.28-25.86 43.65-25.2-41.2 34.4-40.8 35.1 46.42-27.76 46.85-27.11-35.72 31.34-35.36 32 49.46-29.44 49.84-28.77-43.74 35.82-43.31 36.55 43.87-26.23 44.26-25.55c.31.53-29.91 28.1-29.6 28.63.4.7 35.93-21.67 36.33-21s-49.8 39.2-49.33 40 45.82-27.41 46.23-26.7c.54.93-57 43.2-56.43 44.13.44.75 69.65-41.21 70.08-40.46s-52.86 40.91-52.36 41.78 38.31-23.19 38.78-22.39c.62 1.08-67.29 49-66.66 50 .5.87 70-41.56 70.49-40.69s-54 41.54-53.49 42.42 43.33-26.33 43.9-25.34c.82 1.4-89.25 61.2-88.44 62.61s102.17-60.69 102.9-59.41" transform="translate(-534.23 -127.55)"/><path class="cls-3" d="M1177.71 623.49c.88 1.51 111.88-66.6 112.75-65.09s-100.47 67.45-99.56 69c.74 1.28 104.18-61.86 104.92-60.58s-87.61 60.28-86.81 61.67c.61 1.05 89.55-53.11 90.16-52s-56.48 42.92-55.94 43.84 45.48-27.35 46-26.53-43 35.39-42.56 36.12c.3.52 44.93-26.63 45.23-26.12m-106-65.63c.38.65 56.51-33.5 56.89-32.85s-33.27 30-32.93 30.56 26.36-16.09 26.74-15.44c.19.34-15.73 20.19-15.54 20.52.38.66 36.63-22 37-21.37s-34.74 30.8-34.39 31.41 29.88-18.13 30.26-17.47-41.45 34.54-41 35.24 38.86-23.31 39.24-22.65" transform="translate(-534.23 -127.55)"/><path class="cls-3" d="M848.19 623.93c.76 1.32 71.61-43.09 72.37-41.78.62 1.07-66.25 48.38-65.63 49.44.76 1.32 91.5-54.57 92.26-53.26.54.95-58.14 43.85-57.59 44.79.75 1.32 82.42-49.33 83.18-48 .5.87-53.11 41-52.61 41.92.76 1.31 68-41 68.79-39.72.6 1-64 47.11-63.37 48.14.76 1.31 96.16-57.27 96.92-56s-73 52.14-72.33 53.31 87.05-52 87.81-50.7c.59 1-63.87 47-63.28 48.08.76 1.31 90-53.7 90.75-52.39.6 1-64.31 47.29-63.71 48.33.76 1.31 58.14-35.32 58.9-34 .48.84-50.61 39.65-50.13 40.49.76 1.31 76.56-46 77.32-44.64.45.77-46.07 37.12-45.63 37.89.76 1.31 70.19-42.27 71-41 .63 1.09-67.67 49.17-67 50.25 1.21 2.11 134.73-80.6 136-78.49s-128.47 83.07-127.32 85.06c1 1.67 126.46-75.25 127.42-73.57s-109.76 72.64-108.77 74.35c.75 1.31 96.9-57.7 97.66-56.39.64 1.12-69.34 50.1-68.7 51.21.76 1.31 81.8-49 82.56-47.66.58 1-62.27 46.15-61.69 47.16.8 1.37 91.64-54.74 92.43-53.37.9 1.55-98.81 66.54-97.92 68.09 1.25 2.16 141.4-84.53 142.65-82.36s-142.64 91-141.37 93.17 162.46-96.73 163.73-94.53-141.67 90.42-140.41 92.61c.39.66 25.47-15.59 25.85-14.93s-43.39 35.63-43 36.36 69-40.68 69.33-40c.6 1-64.23 47.25-63.63 48.29.38.65 39.38-23.61 39.76-23s-33.81 30.28-33.47 30.87 52.33-31.09 52.71-30.43-31.12 28.78-30.8 29.33 39.66-23.78 40-23.12c.47.81-48.65 38.56-48.19 39.37s43.26-25.87 43.65-25.2c.27.48-25.82 25.82-25.54 26.29.4.69 33-20 33.39-19.27s-40.77 34.15-40.37 34.85 47.28-28.24 47.69-27.53-37.38 32.26-37 32.91 47.69-28.53 48.12-27.78c.32.55-31.32 28.88-31 29.44.45.79 59.47-35.39 59.92-34.6s-47.35 37.83-46.9 38.62 60-35.8 60.54-34.95-51.94 40.39-51.44 41.25 55.92-33.56 56.47-32.6c.44.75-45.19 36.62-44.75 37.38.68 1.17 82.4-49.13 83.08-48 .58 1-62.46 46.25-61.87 47.26 1.6 2.79 184.5-110.23 186.11-107.45s-174.92 109-173.38 111.65c1.44 2.49 168.13-100.4 169.57-97.9 1.33 2.29-148.91 94.46-147.58 96.75 1.22 2.13 127.15-76.25 128.38-74.12 1 1.81-116.61 76.46-115.56 78.27 1 1.65 104.64-62.62 105.6-61 .84 1.45-92.32 62.91-91.48 64.36.51.89 77.6-46 78.11-45.1M1055.91 196c.77 1.33 103-61.26 103.8-59.93.66 1.14-71.5 51.3-70.84 52.44.77 1.34 85.47-51.12 86.24-49.79.67 1.17-72.88 52.07-72.21 53.24.77 1.33 86.29-51.59 87-50.26.68 1.17-73.3 52.31-72.62 53.48s81.55-48.62 82.22-47.47c.45.78-46.8 37.52-46.35 38.3s50.84-30.49 51.33-29.63-43.66 35.77-43.24 36.51 46.38-27.77 46.81-27-41.68 34.66-41.27 35.37 31.78-19.34 32.2-18.59c.28.47-26 25.91-25.72 26.39.43.73 23.16-14.35 23.58-13.61.29.49-27.21 26.59-26.92 27.09.39.68 44.19-26.41 44.58-25.74.51.89-54.36 41.74-53.85 42.64.33.56 38.13-22.77 38.46-22.2.09.15-.87 11.83-.78 12s3.16-2.21 3.32-1.92" transform="translate(-534.23 -127.55)"/><path class="cls-3" d="M984.18 138.82s1.29-.77 1.31-.76c.1.18 12.63 4 12.73 4.2s6.83-4.28 7-4-.18 11.45-.09 11.6c.28.49 32.77-19.57 33.05-19.08.49.84-51 39.84-50.47 40.68s47.64-28.46 48.06-27.74c.28.49-26.88 26.4-26.59 26.9.55.95 71.05-42.29 71.6-41.34.67 1.15-72.11 51.64-71.45 52.79s72.64-43.51 73.32-42.33c.6 1-63.53 46.86-62.93 47.89.81 1.41 85.11-51 85.93-49.62.71 1.24-77.73 54.77-77 56 1 1.65 86.8-52.31 87.75-50.66.8 1.38-87.72 60.34-86.92 61.73 1.08 1.88 104.18-62.65 105.26-60.77s-118.3 77.39-117.24 79.23c.38.66 61.45-36.35 61.83-35.69.5.86-52.75 40.84-52.25 41.71.38.65 45.44-27.11 45.82-26.46s-30 28.14-29.66 28.68 48.23-28.72 48.61-28.07-42 34.86-41.61 35.57 37.33-22.43 37.71-21.77c.48.83-50.15 39.39-49.67 40.22.38.66 65-38.43 65.43-37.77s-41.65 34.65-41.24 35.35 22.14-13.65 22.52-13-41.41 34.52-41 35.22 41.65-24.92 42-24.26-33.9 30.33-33.55 30.92 49.44-29.42 49.82-28.77c.27.48-25.61 25.7-25.33 26.18.38.65 22.11-13.65 22.49-13s-28.12 27.1-27.82 27.61c.38.66 38.45-23.07 38.83-22.42.23.4-20.46 22.82-20.23 23.23.38.65 22.12-13.65 22.5-13s-30 28.16-29.71 28.7 36.65-22 37-21.38-40.7 34.13-40.3 34.82 43.17-25.8 43.55-25.14-42.06 34.87-41.65 35.59 38.9-23.34 39.28-22.68c.28.48-26.25 26.06-26 26.54.38.66 51-30.33 51.4-29.67.53.92-56.26 42.8-55.73 43.72.37.65 46.8-27.9 47.18-27.24.25.43-22.61 24-22.36 24.46.38.65 44.46-26.55 44.84-25.89.49.85-52 40.4-51.47 41.26.38.65 48.17-28.69 48.55-28s-47.19 37.74-46.74 38.53 41.39-24.77 41.77-24.11c.26.45-24.48 25.07-24.21 25.52.37.66 24.46-15 24.84-14.34.27.46-25.13 25.43-24.86 25.9.38.65 49.87-29.67 50.25-29 .51.88-53.78 41.41-53.27 42.3.38.65 44.57-26.61 45-25.95s-34.94 30.91-34.59 31.52 49.67-29.56 50-28.9c.55.95-58.58 44.1-58 45 .37.66 56.93-33.74 57.31-33.09.49.85-51.41 40.1-50.92 40.95.38.65 55.35-32.83 55.73-32.18s-32.44 29.52-32.11 30.09 39.43-23.64 39.8-23-37.82 32.51-37.45 33.16 50.85-30.22 51.23-29.57c.5.86-52.48 40.69-52 41.56.37.65 50.33-29.93 50.7-29.28s-37.75 32.48-37.38 33.13 19.7-12.24 20.07-11.59c.25.43-22.47 24-22.22 24.38.37.66 28.7-17.44 29.08-16.79s-34.53 30.68-34.18 31.28 37.53-22.54 37.91-21.88-45.49 36.79-45 37.56c.78 1.36 80.53-48.32 81.31-46.95s-92.58 63.05-91.74 64.51c1.12 1.93 133.16-79.45 134.27-77.52 1.35 2.33-151.58 96-150.23 98.28s148.76-89 150.11-86.66c1.45 2.51-164 102.85-162.5 105.36s190.86-113.73 192.4-111.08c1.62 2.82-184.44 114.28-182.81 117.1s193.22-115.45 194.9-112.53" transform="translate(-534.23 -127.55)"/></svg>