<svg width="781" height="385" fill="none" xmlns="http://www.w3.org/2000/svg"><g filter="url(#filter0_d)"><path fill="#fff" d="M769 6v367H6V6z"/></g><g clip-path="url(#clip0)" filter="url(#filter1_i)"><path d="M661.272 281.838a8.753 8.753 0 01-2.538.345 11.373 11.373 0 01-1.711-.086h1.711c.853.001 1.703-.085 2.538-.259z" fill="#BBBDBF"/><path d="M342.886 137.273c.051.086 9.23-5.441 9.281-5.355.101.178-8.418 10.486-8.316 10.659.178.304 19.023-11.384 19.196-11.08.121.213-10.982 11.917-10.86 12.13.259.447 18.46-11.247 18.718-10.8.259.446-26.744 20.707-26.491 21.149.32.558 45.773-27.169 46.098-26.61.325.558-38.036 27.006-37.685 27.61.35.604 41.935-25.057 42.305-24.413.28.508-30.045 22.55-29.76 23.037.38.66 39.569-23.722 39.955-23.062.274.482-29.624 22.331-29.345 22.798.346.599 39.925-23.854 40.275-23.245.351.609-36.482 26.138-36.147 26.722.289.507 36.706-21.849 36.99-21.352.284.497-30.893 23.027-30.603 23.524.223.386 30.542-18.139 30.765-17.764.224.376-20.388 17.165-20.19 17.51.198.345 26.186-15.556 26.399-15.226.214.33-24.957 19.713-24.719 20.129.193.33 30.065-17.799 30.258-17.464.193.335-22.313 18.241-22.094 18.616.218.376 19.906-11.937 20.089-11.602.183.335-17.404 15.5-17.226 15.799.178.3 11.758-7.227 11.951-6.897.122.218-11.169 12.034-11.062 12.247.187.335 24.303-14.47 24.495-14.14.285.508-30.237 22.656-29.953 23.149.193.335 24.526-14.597 24.719-14.267.142.249-13.55 13.353-13.408 13.602.193.33 21.186-12.689 21.379-12.338.274.477-29.385 22.179-29.111 22.661.193.33 28.862-17.104 29.055-16.749.193.356-16.424 14.942-16.266 15.231.157.29 17.342-10.455 17.535-10.12.193.335-23.506 18.891-23.277 19.297.228.406 29.446-17.454 29.659-17.119.264.446-27.39 21.067-27.131 21.519.193.335 28.431-16.845 28.613-16.515.239.411-24.82 19.636-24.582 20.047.193.335 17.165-10.348 17.353-10.013.188.335-15.738 14.566-15.566 14.845.173.279 27.618-16.383 27.811-16.053.193.33-16.484 14.987-16.317 15.277.168.289 12.185-7.487 12.393-7.152.208.335-14.556 13.912-14.403 14.176.152.264 24.1-14.343 24.308-14.023.208.319-16.825 15.175-16.652 15.474.172.3 8.976-5.623 9.169-5.293.192.33-14.652 13.962-14.5 14.211.152.248 16.784-10.151 16.977-9.796.193.356-20.206 17.064-20.008 17.409.198.345 30.411-17.992 30.598-17.657.188.335-15.53 14.454-15.367 14.718.162.264 11.829-7.278 12.022-6.943.193.335-21.181 17.606-20.973 17.967.208.36 31.756-18.779 31.949-18.439.269.467-28.603 21.743-28.334 22.215.193.33 22.252-13.292 22.445-12.958.193.335-17.191 15.384-17.018 15.683.173.3 28.461-16.87 28.654-16.54" stroke="#9BBB97" stroke-width="3.37" stroke-linecap="round" stroke-linejoin="round"/><path d="M350.527 220.467c.386.66 47.997-28.589 48.377-27.914.275.472-28.816 21.864-28.542 22.331.274.467 28.456-17.099 28.751-16.591.218.375-22.374 18.271-22.156 18.647.218.375 34.345-20.419 34.599-19.972.254.447-31.324 23.26-31.03 23.768.234.411 33.111-19.652 33.345-19.246.234.406-22.983 18.617-22.76 19.002.224.386 17.084-10.374 17.302-9.988.117.203-10.377 11.577-10.26 11.78.213.365 18.429-11.125 18.642-10.76.142.244-13.291 13.196-13.154 13.455.203.35 13.159-8.065 13.362-7.715.204.351-16.088 14.77-15.921 15.054.168.284 27.994-16.617 28.192-16.277.254.442-26.664 20.667-26.4 21.108.193.335 32.325-19.108 32.492-18.778.168.33-24.607 19.535-24.379 19.946.229.411 20.232-12.12 20.425-11.785.137.244-13.246 13.196-13.104 13.424.188.335 24.334-14.49 24.527-14.155.309.508-33.178 24.296-32.868 24.829.193.335 31.984-18.901 32.172-18.571.188.33-21.704 17.901-21.49 18.271.213.371 22.673-13.536 22.846-13.196" stroke="#9BBB97" stroke-width="3.37" stroke-linecap="round" stroke-linejoin="round"/><path d="M317.243 210.124c.122.208 18.561-10.999 18.683-10.785.304.532-32.929 24.158-32.624 24.686.431.746 55.541-33.046 55.972-32.299.554.959-61.826 40.262-61.272 41.221.553.96 73.492-43.769 74.076-42.754.681 1.172-76.29 48.327-75.61 49.5.681 1.172 83.901-50.043 84.607-48.83.705 1.213-83.241 52.2-82.515 53.479.792 1.37 89.617-53.555 90.409-52.185.792 1.37-93.755 58.062-92.907 59.498.401.685 38.285-23.011 38.681-22.331.396.68-39.122 27.609-38.762 28.234.294.507 27.852-16.749 28.141-16.241.34.583-36.492 26.143-36.152 26.726.259.442 36.355-21.575 36.609-21.133.345.593-37.061 26.462-36.711 27.051.234.411 27.04-16.15 27.273-15.733.234.416-22.044 18.093-21.83 18.464.213.37 17.449-10.582 17.667-10.202.218.381-22.135 18.129-21.922 18.52.213.391 20.815-12.49 21.003-12.125.188.366-17.591 15.602-17.434 15.911.158.31 30.461-18.058 30.675-17.707.259.451-27.253 20.996-26.999 21.443.203.345 19.008-11.425 19.206-11.085.198.34-17.434 15.521-17.262 15.825.173.305 23.247-13.871 23.445-13.531.198.34-22.272 18.211-22.054 18.586.219.376 28.207-16.748 28.4-16.393.244.421-25.318 19.916-25.074 20.337.188.33 21.125-12.638 21.323-12.308.248.437-26.436 20.54-26.187 20.976.193.33 23.085-13.769 23.278-13.434.116.198-10.21 11.486-10.093 11.673.193.335 16.164-9.775 16.357-9.44.193.335-15.88 14.653-15.738 14.932.142.279 14.616-8.892 14.814-8.547.198.345-19.738 16.804-19.546 17.139.193.335 35.539-20.966 35.721-20.616.183.351-22.338 18.272-22.135 18.637.203.365 25.882-15.404 26.09-15.038.208.365-20.236 17.078-20.038 17.423.198.346 17.662-10.693 17.875-10.313.143.244-13.357 13.242-13.199 13.485.233.396 14.87-9.11 15.098-8.714.168.284-16.134 14.795-15.972 15.079.249.431 25.969-15.561 26.217-15.13.249.432-27.958 21.388-27.694 21.824.264.437 35.173-20.93 35.426-20.448.254.482-28.664 21.778-28.389 22.25.335.579 49.403-29.295 49.753-28.711.401.695-44.169 30.452-43.788 31.132.822 1.421 100.964-60.168 101.781-58.747.756 1.309-85.515 53.469-84.784 54.783.731 1.315 85.977-51.301 86.713-50.012.736 1.289-82.961 52.047-82.245 53.291.629 1.096 76.001-45.323 76.63-44.232.63 1.091-68.055 43.76-67.436 44.81.508.853 57.369-34.248 57.876-33.395.31.543-33.578 24.519-33.263 25.062.315.543 23.754-14.353 24.034-13.871" stroke="#9BBB97" stroke-width="3.37" stroke-linecap="round" stroke-linejoin="round"/><path d="M360.919 259.562c.051.086 10.773-6.329 10.819-6.242.158.269-14.936 14.124-14.784 14.393.153.269 22.714-13.515 22.892-13.196.178.32-16.911 15.226-16.754 15.521.259.446 22.338-13.475 22.572-13.029.234.447-25.938 20.261-25.689 20.687.32.564 37.985-22.671 38.31-22.113.269.472-28.598 21.748-28.329 22.215.371.639 33.675-20.301 34.046-19.652.274.472-28.812 21.86-28.537 22.332.385.665 35.345-21.291 35.731-20.621.238.406-24.567 19.494-24.334 19.905.508.903 58.491-34.964 59.014-34.061.523.904-57.623 37.913-57.105 38.801.447.772 59.572-35.41 60.014-34.639.441.772-48.55 32.878-48.109 33.624.381.665 48.911-29.117 49.297-28.452.314.548-34.239 24.869-33.919 25.438.538.928 62.522-37.329 63.06-36.401.538.929-58.43 38.4-57.907 39.299.523.898 50.119-30.117 50.637-29.224.518.893-53.47 35.608-52.992 36.446.568.979 54.322-32.655 54.88-31.675.559.979-65.907 42.541-65.319 43.561.686 1.188 85.515-50.941 86.201-49.738m147.143-29.543c.345.598 45.392-27.001 45.737-26.392.193.33-19.322 16.576-19.134 16.906.284.507 30.968-18.52 31.248-18.033.279.487-27.71 21.245-27.446 21.697.264.452 22.673-13.663 22.927-13.231.158.274-15.18 14.261-15.022 14.53.228.401 24.816-14.855 25.049-14.454.234.401-28.207 21.524-27.923 21.986.214.376 38.077-22.483 38.29-22.103.213.381-23.861 19.104-23.638 19.505.224.401 28.532-16.952 28.74-16.592.208.361-22.846 18.525-22.597 18.906.249.381 26.288-15.642 26.491-15.292.295.508-31.7 23.473-31.405 23.986.198.345 32.781-19.372 32.999-19.032.249.431-26.034 20.301-25.785 20.742.193.335 17.261-10.399 17.434-10.064.107.183-8.981 10.805-8.879 10.988.192.33 16.9-10.201 17.093-9.866.193.335-23.861 19.093-23.612 19.489.249.396 21.973-13.125 22.16-12.79.188.335-20.916 17.459-20.713 17.815.203.355 23.567-14.09 23.785-13.76.218.33-18.135 15.906-17.952 16.241.183.335 25.11-14.941 25.303-14.601.193.34-22.206 18.18-21.988 18.55.219.371 22.273-13.313 22.471-12.967.157.269-15.185 14.261-15.028 14.53.203.356 18.241-10.998 18.444-10.658.203.34-25.283 19.895-25.044 20.301.239.406 23.262-13.911 23.47-13.551.275.472-28.938 21.926-28.648 22.398.223.38 35.36-20.916 35.578-20.535.219.381-26.836 20.763-26.582 21.205.254.441 19.449-11.77 19.688-11.364.315.548-34.162 24.869-33.843 25.377.254.441 35.539-21.093 35.787-20.652.249.442-27.415 21.083-27.156 21.53.259.446 21.998-13.364 22.288-12.861.416.71-45.311 31.061-44.9 31.776.411.716 51.87-30.802 52.241-30.152" stroke="#9BBB97" stroke-width="3.37" stroke-linecap="round" stroke-linejoin="round"/><path d="M613.687 281.706c.446.766 56.8-33.802 57.241-33.035.442.766-51.007 34.233-50.545 35.02.376.649 52.891-31.396 53.267-30.747.375.65-44.479 30.594-44.073 31.3.31.533 45.464-26.955 45.773-26.392.31.563-28.674 21.783-28.4 22.25.274.467 23.09-13.881 23.354-13.465.264.417-21.831 17.962-21.607 18.333.152.263 22.81-13.516 22.962-13.257m-53.814-33.309c.193.33 28.689-17.003 28.882-16.673.193.33-16.891 15.226-16.718 15.51.173.285 13.383-8.166 13.575-7.836.097.173-7.985 10.247-7.889 10.415.193.335 18.597-11.166 18.784-10.846.188.319-17.637 15.632-17.459 15.941.178.31 15.17-9.201 15.363-8.866.193.335-21.044 17.53-20.815 17.885.228.355 19.728-11.83 19.921-11.495" stroke="#9BBB97" stroke-width="3.37" stroke-linecap="round" stroke-linejoin="round"/><path d="M446.394 281.93c.385.67 36.355-21.87 36.741-21.205.315.543-33.634 24.555-33.32 25.093.386.67 46.454-27.696 46.84-27.032.274.483-29.517 22.256-29.238 22.733.381.67 41.843-25.037 42.229-24.362.254.442-26.963 20.809-26.709 21.276.386.665 34.523-20.809 34.924-20.159.304.507-32.492 23.91-32.172 24.433.385.664 48.819-29.067 49.205-28.422.385.644-37.062 26.462-36.721 27.056.34.594 44.194-26.391 44.58-25.732.299.508-32.426 23.854-32.127 24.403.386.664 45.692-27.255 46.073-26.59.304.507-32.65 24.001-32.345 24.529.386.665 29.517-17.926 29.903-17.256.243.426-25.694 20.124-25.451 20.55.386.665 38.869-23.347 39.255-22.656.228.39-23.389 18.839-23.166 19.23.386.665 35.635-21.453 36.046-20.809.32.553-34.355 24.956-34.015 25.504.614 1.071 68.4-40.908 69.045-39.837.645 1.071-65.222 42.161-64.638 43.171.507.848 64.202-38.192 64.689-37.339.487.853-55.724 36.867-55.221 37.735.381.665 49.195-29.285 49.581-28.62.325.569-35.203 25.428-34.878 25.991.385.665 41.528-24.869 41.914-24.189.295.508-31.614 23.423-31.319 23.935.406.696 46.524-27.782 46.925-27.087.457.787-50.164 33.771-49.712 34.558.634 1.096 71.787-42.902 72.421-41.8.635 1.101-72.416 46.185-71.771 47.287.644 1.101 82.478-49.094 83.123-47.978.645 1.117-71.924 45.892-71.284 47.003.198.335 12.931-7.912 13.124-7.577.192.335-22.029 18.083-21.831 18.454.198.37 35.03-20.647 35.198-20.302.305.508-32.609 23.981-32.304 24.509.193.33 19.993-11.983 20.185-11.673.193.309-17.164 15.368-16.992 15.667.173.3 26.567-15.779 26.76-15.444.193.335-15.799 14.607-15.636 14.886.162.279 20.134-12.069 20.307-11.734.239.411-24.699 19.57-24.465 19.981.233.412 21.962-13.129 22.16-12.789.137.243-13.108 13.104-12.966 13.343.203.35 16.754-10.151 16.952-9.781.198.371-20.699 17.333-20.496 17.688.203.355 24.004-14.333 24.212-13.972.208.36-18.978 16.373-18.785 16.703.193.329 24.212-14.48 24.43-14.1.163.279-15.9 14.658-15.738 14.942.228.401 30.192-17.962 30.421-17.561.228.401-24.039 19.2-23.811 19.601.229.401 30.461-18.169 30.735-17.738.275.431-26.369 20.499-26.115 20.936.254.436 28.39-17.033 28.669-16.546.223.381-22.942 18.586-22.719 18.972.345.594 41.834-24.935 42.179-24.362.294.508-31.71 23.474-31.411 23.986.812 1.416 93.668-55.945 94.486-54.534.817 1.411-88.805 55.321-88.023 56.666.731 1.264 85.357-50.957 86.089-49.688.675 1.163-75.6 47.942-74.925 49.104.619 1.081 64.553-38.699 65.177-37.618.508.918-59.201 38.806-58.668 39.724.507.838 53.124-31.781 53.611-30.959.427.736-46.869 31.929-46.443 32.665.259.451 39.397-23.347 39.656-22.89M551.85 64.74c.391.676 52.292-31.09 52.698-30.416.335.579-36.299 26.037-35.964 26.615.391.68 43.392-25.945 43.783-25.27.34.594-37.001 26.427-36.66 27.021.39.675 43.808-26.183 44.168-25.508.346.593-37.213 26.549-36.868 27.142.345.594 41.402-24.676 41.742-24.092.229.396-23.76 19.042-23.531 19.438.228.396 25.811-15.474 26.059-15.038.249.437-22.165 18.155-21.952 18.53.213.376 23.547-14.094 23.765-13.703.218.39-21.161 17.59-20.952 17.951.208.36 16.134-9.816 16.347-9.435.142.239-13.2 13.15-13.058 13.394.219.37 11.758-7.283 11.972-6.908.147.25-13.814 13.496-13.667 13.75.198.345 22.434-13.404 22.632-13.064.259.451-27.597 21.184-27.338 21.64.167.285 19.358-11.556 19.525-11.266.046.076-.442 6.004-.396 6.09.046.086 1.604-1.122 1.686-.975" stroke="#9BBB97" stroke-width="3.37" stroke-linecap="round" stroke-linejoin="round"/><path d="M515.434 35.72s.655-.391.665-.386c.051.091 6.412 2.03 6.463 2.132.051.101 3.467-2.172 3.554-2.03.086.142-.092 5.81-.046 5.887.142.249 16.637-9.932 16.779-9.684.249.427-25.892 20.22-25.623 20.647.269.426 24.186-14.445 24.4-14.08.142.25-13.647 13.4-13.5 13.653.279.483 36.071-21.463 36.351-20.981.34.584-36.61 26.209-36.275 26.793.335.583 36.879-22.083 37.224-21.484.305.507-32.253 23.783-31.949 24.306.411.715 43.209-25.885 43.626-25.184.36.63-39.463 27.797-39.092 28.422.508.837 44.067-26.55 44.549-25.712.407.7-44.534 30.625-44.128 31.33.548.954 52.891-31.797 53.439-30.843.549.954-60.059 39.278-59.521 40.212.193.335 31.197-18.449 31.39-18.114.254.437-26.78 20.728-26.526 21.17.193.33 23.069-13.76 23.262-13.43.193.33-15.231 14.282-15.058 14.556.173.274 24.486-14.576 24.679-14.246.193.33-21.323 17.692-21.125 18.053.198.36 18.952-11.384 19.145-11.05.243.422-25.461 19.992-25.217 20.414.193.335 33-19.505 33.218-19.17.218.335-21.145 17.586-20.937 17.941.208.356 11.24-6.927 11.433-6.598.193.33-21.023 17.521-20.815 17.876.208.355 21.145-12.648 21.323-12.313.177.335-17.211 15.394-17.033 15.693.177.299 25.1-14.932 25.293-14.602.137.244-13.002 13.044-12.86 13.287.193.33 11.225-6.927 11.418-6.597.193.329-14.276 13.754-14.124 14.012.193.335 19.521-11.708 19.714-11.378.116.203-10.388 11.582-10.271 11.79.193.329 11.23-6.928 11.423-6.598.193.33-15.231 14.292-15.083 14.566.147.274 18.606-11.166 18.784-10.851.178.314-20.663 17.322-20.46 17.672.203.35 21.917-13.094 22.11-12.759.193.335-21.353 17.697-21.145 18.063.208.365 19.749-11.846 19.942-11.511.142.244-13.327 13.226-13.2 13.47.193.335 25.892-15.394 26.095-15.059.269.467-28.562 21.723-28.293 22.19.187.33 23.759-14.16 23.952-13.825.127.218-11.479 12.18-11.352 12.414.193.33 22.572-13.475 22.765-13.14.249.431-26.4 20.504-26.131 20.941.193.33 24.456-14.562 24.649-14.211.193.35-23.958 19.154-23.73 19.555.229.401 21.014-12.572 21.206-12.237.132.229-12.428 12.724-12.291 12.953.188.335 12.418-7.613 12.611-7.278.137.233-12.758 12.906-12.621 13.145.193.33 25.319-15.059 25.511-14.719.259.447-27.303 21.017-27.044 21.469.193.33 22.628-13.506 22.846-13.171.218.335-17.739 15.688-17.561 15.998.178.309 25.217-15.003 25.384-14.668.28.482-29.74 22.382-29.446 22.839.188.335 28.903-17.124 29.096-16.794.249.431-26.1 20.352-25.851 20.783.193.33 28.1-16.662 28.293-16.332.193.33-16.469 14.982-16.302 15.272.168.289 20.018-11.999 20.206-11.674.188.325-19.201 16.5-19.013 16.83.188.33 25.816-15.338 26.009-15.008.254.437-26.643 20.652-26.4 21.093.188.33 25.552-15.19 25.74-14.86.188.33-19.165 16.485-18.977 16.814.188.33 10.001-6.212 10.189-5.882.127.218-11.408 12.181-11.281 12.374.188.335 14.571-8.852 14.764-8.522.193.33-17.531 15.571-17.353 15.876.178.304 19.054-11.44 19.246-11.105.193.335-23.094 18.672-22.845 19.063.396.69 40.884-24.524 41.28-23.829.396.696-47.002 32-46.576 32.741.569.98 67.604-40.323 68.168-39.344.685 1.183-76.956 48.724-76.27 49.881.685 1.157 75.523-45.171 76.209-43.983.736 1.274-83.261 52.2-82.5 53.474.762 1.274 96.898-57.722 97.679-56.377.823 1.431-93.637 58.001-92.81 59.432.828 1.431 98.095-58.595 98.948-57.113" stroke="#9BBB97" stroke-width="3.37" stroke-linecap="round" stroke-linejoin="round"/></g><defs><filter id="filter0_d" x="0" y="0" width="781" height="385" filterUnits="userSpaceOnUse" color-interpolation-filters="sRGB"><feFlood flood-opacity="0" result="BackgroundImageFix"/><feColorMatrix in="SourceAlpha" values="0 0 0 0 0 0 0 0 0 0 0 0 0 0 0 0 0 0 127 0"/><feOffset dx="3" dy="3"/><feGaussianBlur stdDeviation="4.5"/><feColorMatrix values="0 0 0 0 0 0 0 0 0 0 0 0 0 0 0 0 0 0 0.25 0"/><feBlend in2="BackgroundImageFix" result="effect1_dropShadow"/><feBlend in="SourceGraphic" in2="effect1_dropShadow" result="shape"/></filter><filter id="filter1_i" x="287" y="30" width="458" height="323" filterUnits="userSpaceOnUse" color-interpolation-filters="sRGB"><feFlood flood-opacity="0" result="BackgroundImageFix"/><feBlend in="SourceGraphic" in2="BackgroundImageFix" result="shape"/><feColorMatrix in="SourceAlpha" values="0 0 0 0 0 0 0 0 0 0 0 0 0 0 0 0 0 0 127 0" result="hardAlpha"/><feOffset dy="4"/><feGaussianBlur stdDeviation="2"/><feComposite in2="hardAlpha" operator="arithmetic" k2="-1" k3="1"/><feColorMatrix values="0 0 0 0 0 0 0 0 0 0 0 0 0 0 0 0 0 0 0.25 0"/><feBlend in2="shape" result="effect1_innerShadow"/></filter><clipPath id="clip0"><path fill="#fff" transform="translate(287 30)" d="M0 0h458v319H0z"/></clipPath></defs></svg>