<svg width="458" height="319" viewBox="0 0 458 319" fill="none" xmlns="http://www.w3.org/2000/svg">
<g clip-path="url(#clip0)" filter="url(#filter0_i)">
<path d="M374.272 251.838C373.447 252.077 372.592 252.193 371.734 252.183C371.162 252.197 370.59 252.169 370.023 252.097H371.734C372.587 252.098 373.437 252.012 374.272 251.838V251.838Z" fill="#BBBDBF"/>
<path d="M55.8862 107.273C55.937 107.359 65.116 101.832 65.1668 101.918C65.2683 102.096 56.7493 112.404 56.8508 112.577C57.0285 112.881 75.8739 101.193 76.0465 101.497C76.1684 101.71 65.0652 113.414 65.1871 113.627C65.446 114.074 83.6466 102.38 83.9055 102.827C84.1644 103.273 57.1605 123.534 57.4144 123.976C57.7342 124.534 103.187 96.8075 103.512 97.3657C103.837 97.924 65.4765 124.372 65.8268 124.976C66.1771 125.58 107.762 99.9186 108.132 100.563C108.412 101.071 78.0874 123.113 78.3717 123.6C78.7525 124.26 117.941 99.878 118.327 100.538C118.601 101.02 88.7031 122.869 88.9824 123.336C89.3276 123.935 128.907 99.4822 129.257 100.091C129.608 100.7 92.7748 126.229 93.1099 126.813C93.3993 127.32 129.816 104.964 130.1 105.461C130.384 105.958 99.2072 128.488 99.4966 128.985C99.72 129.371 130.039 110.846 130.262 111.221C130.486 111.597 109.874 128.386 110.072 128.731C110.27 129.076 136.258 113.175 136.471 113.505C136.685 113.835 111.514 133.218 111.752 133.634C111.945 133.964 141.817 115.835 142.01 116.17C142.203 116.505 119.697 134.411 119.916 134.786C120.134 135.162 139.822 122.849 140.005 123.184C140.188 123.519 122.601 138.684 122.779 138.983C122.957 139.283 134.537 131.756 134.73 132.086C134.852 132.304 123.561 144.12 123.668 144.333C123.855 144.668 147.971 129.863 148.163 130.193C148.448 130.701 117.926 152.849 118.21 153.342C118.403 153.677 142.736 138.745 142.929 139.075C143.071 139.324 129.379 152.428 129.521 152.677C129.714 153.007 150.707 139.988 150.9 140.339C151.174 140.816 121.515 162.518 121.789 163C121.982 163.33 150.651 145.896 150.844 146.251C151.037 146.607 134.42 161.193 134.578 161.482C134.735 161.772 151.92 151.027 152.113 151.362C152.306 151.697 128.607 170.253 128.836 170.659C129.064 171.065 158.282 153.205 158.495 153.54C158.759 153.986 131.105 174.607 131.364 175.059C131.557 175.394 159.795 158.214 159.977 158.544C160.216 158.955 135.157 178.18 135.395 178.591C135.588 178.926 152.56 168.243 152.748 168.578C152.936 168.913 137.01 183.144 137.182 183.423C137.355 183.702 164.8 167.04 164.993 167.37C165.186 167.7 148.509 182.357 148.676 182.647C148.844 182.936 160.861 175.16 161.069 175.495C161.277 175.83 146.513 189.407 146.666 189.671C146.818 189.935 170.766 175.328 170.974 175.648C171.182 175.967 154.149 190.823 154.322 191.122C154.494 191.422 163.298 185.499 163.491 185.829C163.683 186.159 148.839 199.791 148.991 200.04C149.143 200.288 165.775 189.889 165.968 190.244C166.161 190.6 145.762 207.308 145.96 207.653C146.158 207.998 176.371 189.661 176.558 189.996C176.746 190.331 161.028 204.45 161.191 204.714C161.353 204.978 173.02 197.436 173.213 197.771C173.406 198.106 152.032 215.377 152.24 215.738C152.448 216.098 183.996 196.959 184.189 197.299C184.458 197.766 155.586 219.042 155.855 219.514C156.048 219.844 178.107 206.222 178.3 206.556C178.493 206.891 161.109 221.94 161.282 222.239C161.455 222.539 189.743 205.369 189.936 205.699" stroke="#9BBB97" stroke-width="3.37" stroke-linecap="round" stroke-linejoin="round"/>
<path d="M63.5269 190.467C63.9127 191.127 111.524 161.878 111.904 162.553C112.179 163.025 83.0881 184.417 83.3622 184.884C83.6364 185.351 111.818 167.785 112.113 168.293C112.331 168.668 89.7388 186.564 89.9571 186.94C90.1754 187.315 124.302 166.521 124.556 166.968C124.81 167.415 93.2317 190.228 93.5261 190.736C93.7596 191.147 126.637 171.084 126.871 171.49C127.105 171.896 103.888 190.107 104.111 190.492C104.335 190.878 121.195 180.118 121.413 180.504C121.53 180.707 111.036 192.081 111.153 192.284C111.366 192.649 129.582 181.159 129.795 181.524C129.937 181.768 116.504 194.72 116.641 194.979C116.844 195.329 129.8 186.914 130.003 187.264C130.207 187.615 113.915 202.034 114.082 202.318C114.25 202.602 142.076 185.701 142.274 186.041C142.528 186.483 115.61 206.708 115.874 207.149C116.067 207.484 148.199 188.041 148.366 188.371C148.534 188.701 123.759 207.906 123.987 208.317C124.216 208.728 144.219 196.197 144.412 196.532C144.549 196.776 131.166 209.728 131.308 209.956C131.496 210.291 155.642 195.466 155.835 195.801C156.144 196.309 122.657 220.097 122.967 220.63C123.16 220.965 154.951 201.729 155.139 202.059C155.327 202.389 133.435 219.96 133.649 220.33C133.862 220.701 156.322 206.794 156.495 207.134" stroke="#9BBB97" stroke-width="3.37" stroke-linecap="round" stroke-linejoin="round"/>
<path d="M30.243 180.124C30.3648 180.332 48.804 169.125 48.9258 169.339C49.2304 169.871 15.9973 193.497 16.3019 194.025C16.7334 194.771 71.8429 160.979 72.2744 161.726C72.8278 162.685 10.4482 201.988 11.0016 202.947C11.555 203.907 84.4944 159.178 85.0783 160.193C85.7586 161.365 8.78809 208.52 9.46839 209.693C10.1487 210.865 93.3688 159.65 94.0745 160.863C94.7802 162.076 10.8341 213.063 11.5601 214.342C12.3521 215.712 101.177 160.787 101.969 162.157C102.761 163.527 8.21441 220.219 9.06225 221.655C9.46332 222.34 47.347 198.644 47.7429 199.324C48.1389 200.004 8.62054 226.933 8.981 227.558C9.27546 228.065 36.8327 210.809 37.1221 211.317C37.4623 211.9 0.629561 237.46 0.969711 238.043C1.22863 238.485 37.3252 216.468 37.579 216.91C37.9243 217.503 0.517864 243.372 0.868168 243.961C1.1017 244.372 27.9076 227.811 28.1411 228.228C28.3747 228.644 6.09733 246.321 6.31056 246.692C6.52379 247.062 23.7598 236.11 23.9781 236.49C24.1964 236.871 1.84294 254.619 2.05617 255.01C2.2694 255.401 22.8713 242.52 23.0592 242.885C23.247 243.251 5.46781 258.487 5.6252 258.796C5.78258 259.106 36.0864 240.738 36.2997 241.089C36.5586 241.54 9.047 262.085 9.30085 262.532C9.50392 262.877 28.3087 251.107 28.5067 251.447C28.7047 251.787 11.0727 266.968 11.2453 267.272C11.4179 267.577 34.4923 253.401 34.6903 253.741C34.8883 254.081 12.4181 271.952 12.6364 272.327C12.8547 272.703 40.8435 255.579 41.0364 255.934C41.2801 256.355 15.718 275.85 15.9617 276.271C16.1495 276.601 37.0866 263.633 37.2846 263.963C37.5333 264.4 10.8493 284.503 11.0981 284.939C11.291 285.269 34.1826 271.17 34.3755 271.505C34.4923 271.703 24.1659 282.991 24.2827 283.178C24.4756 283.513 40.4475 273.403 40.6404 273.738C40.8333 274.073 24.7599 288.391 24.9021 288.67C25.0443 288.949 39.5184 279.778 39.7164 280.123C39.9144 280.468 19.9775 296.927 20.1705 297.262C20.3634 297.597 55.7086 276.296 55.8913 276.646C56.0741 276.997 33.5531 294.918 33.7561 295.283C33.9592 295.648 59.638 279.879 59.8462 280.245C60.0543 280.61 39.6098 297.323 39.8078 297.668C40.0058 298.014 57.4702 286.975 57.6834 287.355C57.8256 287.599 44.3262 300.597 44.4836 300.84C44.7171 301.236 59.3538 291.73 59.5822 292.126C59.7498 292.41 43.4479 306.921 43.6104 307.205C43.8591 307.636 69.5786 291.644 69.8273 292.075C70.0761 292.507 41.869 313.463 42.133 313.899C42.397 314.336 77.3056 292.969 77.5594 293.451C77.8133 293.933 48.8954 315.229 49.1695 315.701C49.5046 316.28 98.5726 286.406 98.9229 286.99C99.324 287.685 54.7541 317.442 55.1349 318.122C55.9573 319.543 156.099 257.954 156.916 259.375C157.672 260.684 71.4012 312.844 72.1322 314.158C72.8633 315.473 158.109 262.857 158.845 264.146C159.581 265.435 75.884 316.193 76.5999 317.437C77.2294 318.533 152.601 272.114 153.23 273.205C153.86 274.296 85.1747 316.965 85.7941 318.015C86.3018 318.868 143.163 283.767 143.67 284.62C143.98 285.163 110.092 309.139 110.407 309.682C110.722 310.225 134.161 295.329 134.441 295.811" stroke="#9BBB97" stroke-width="3.37" stroke-linecap="round" stroke-linejoin="round"/>
<path d="M73.9193 229.562C73.9701 229.648 84.6924 223.233 84.7381 223.32C84.8955 223.589 69.802 237.444 69.9543 237.713C70.1066 237.982 92.6682 224.198 92.8459 224.517C93.0236 224.837 75.9348 239.743 76.0922 240.038C76.3511 240.484 98.4304 226.563 98.664 227.009C98.8975 227.456 72.7262 247.27 72.975 247.696C73.2948 248.26 110.96 225.025 111.285 225.583C111.554 226.055 82.6871 247.331 82.9561 247.798C83.3267 248.437 116.631 227.497 117.002 228.146C117.276 228.618 88.1904 250.006 88.4645 250.478C88.8504 251.143 123.81 229.187 124.196 229.857C124.434 230.263 99.6286 249.351 99.8621 249.762C100.37 250.665 158.353 214.798 158.876 215.701C159.399 216.605 101.253 253.614 101.771 254.502C102.218 255.274 161.343 219.092 161.785 219.863C162.226 220.635 113.235 252.741 113.676 253.487C114.057 254.152 162.587 224.37 162.973 225.035C163.287 225.583 128.734 249.904 129.054 250.473C129.592 251.401 191.576 213.144 192.114 214.072C192.652 215.001 133.684 252.472 134.207 253.371C134.73 254.269 184.326 223.254 184.844 224.147C185.362 225.04 131.374 259.755 131.852 260.593C132.42 261.572 186.174 227.938 186.732 228.918C187.291 229.897 120.825 271.459 121.413 272.479C122.099 273.667 206.928 221.538 207.614 222.741" stroke="#9BBB97" stroke-width="3.37" stroke-linecap="round" stroke-linejoin="round"/>
<path d="M354.757 193.198C355.102 193.796 400.149 166.197 400.494 166.806C400.687 167.136 381.172 183.382 381.36 183.712C381.644 184.219 412.328 165.192 412.608 165.679C412.887 166.166 384.898 186.924 385.162 187.376C385.426 187.828 407.835 173.713 408.089 174.145C408.247 174.419 392.909 188.406 393.067 188.675C393.295 189.076 417.883 173.82 418.116 174.221C418.35 174.622 389.909 195.745 390.193 196.207C390.407 196.583 428.27 173.724 428.483 174.104C428.696 174.485 404.622 193.208 404.845 193.609C405.069 194.01 433.377 176.657 433.585 177.017C433.793 177.378 410.739 195.542 410.988 195.923C411.237 196.304 437.276 180.281 437.479 180.631C437.774 181.139 405.779 204.104 406.074 204.617C406.272 204.962 438.855 185.245 439.073 185.585C439.322 186.016 413.039 205.886 413.288 206.327C413.481 206.662 430.549 195.928 430.722 196.263C430.829 196.446 421.741 207.068 421.843 207.251C422.035 207.581 438.743 197.05 438.936 197.385C439.129 197.72 415.075 216.478 415.324 216.874C415.573 217.27 437.297 203.749 437.484 204.084C437.672 204.419 416.568 221.543 416.771 221.899C416.974 222.254 440.338 207.809 440.556 208.139C440.774 208.469 422.421 224.045 422.604 224.38C422.787 224.715 447.714 209.439 447.907 209.779C448.1 210.119 425.701 227.959 425.919 228.329C426.138 228.7 448.192 215.016 448.39 215.362C448.547 215.631 433.205 229.623 433.362 229.892C433.565 230.248 451.603 218.894 451.806 219.234C452.009 219.574 426.523 239.129 426.762 239.535C427.001 239.941 450.024 225.624 450.232 225.984C450.507 226.456 421.294 247.91 421.584 248.382C421.807 248.762 456.944 227.466 457.162 227.847C457.381 228.228 430.326 248.61 430.58 249.052C430.834 249.493 450.029 237.282 450.268 237.688C450.583 238.236 416.106 262.557 416.425 263.065C416.679 263.506 451.964 241.972 452.212 242.413C452.461 242.855 424.797 263.496 425.056 263.943C425.315 264.389 447.054 250.579 447.344 251.082C447.76 251.792 402.033 282.143 402.444 282.858C402.855 283.574 454.314 252.056 454.685 252.706" stroke="#9BBB97" stroke-width="3.37" stroke-linecap="round" stroke-linejoin="round"/>
<path d="M326.687 251.706C327.133 252.472 383.487 217.904 383.928 218.671C384.37 219.437 332.921 252.904 333.383 253.691C333.759 254.34 386.274 222.295 386.65 222.944C387.025 223.594 342.171 253.538 342.577 254.244C342.887 254.777 388.041 227.289 388.35 227.852C388.66 228.415 359.676 249.635 359.95 250.102C360.224 250.569 383.04 236.221 383.304 236.637C383.568 237.054 361.473 254.599 361.697 254.97C361.849 255.233 384.507 241.454 384.659 241.713" stroke="#9BBB97" stroke-width="3.37" stroke-linecap="round" stroke-linejoin="round"/>
<path d="M330.845 208.404C331.038 208.734 359.534 191.401 359.727 191.731C359.92 192.061 342.836 206.957 343.009 207.241C343.182 207.526 356.392 199.075 356.584 199.405C356.681 199.578 348.599 209.652 348.695 209.82C348.888 210.155 367.292 198.654 367.479 198.974C367.667 199.293 349.842 214.606 350.02 214.915C350.198 215.225 365.19 205.714 365.383 206.049C365.576 206.384 344.339 223.579 344.568 223.934C344.796 224.289 364.296 212.104 364.489 212.439" stroke="#9BBB97" stroke-width="3.37" stroke-linecap="round" stroke-linejoin="round"/>
<path d="M159.394 251.93C159.779 252.6 195.749 230.06 196.135 230.725C196.45 231.268 162.501 255.28 162.815 255.818C163.201 256.488 209.269 228.122 209.655 228.786C209.929 229.269 180.138 251.042 180.417 251.519C180.798 252.189 222.26 226.482 222.646 227.157C222.9 227.599 195.683 247.966 195.937 248.433C196.323 249.098 230.46 227.624 230.861 228.274C231.165 228.781 198.369 252.184 198.689 252.707C199.074 253.371 247.508 223.64 247.894 224.285C248.279 224.929 210.832 250.747 211.173 251.341C211.513 251.935 255.367 224.95 255.753 225.609C256.052 226.117 223.327 249.463 223.626 250.012C224.012 250.676 269.318 222.757 269.699 223.422C270.003 223.929 237.049 247.423 237.354 247.951C237.74 248.616 266.871 230.025 267.257 230.695C267.5 231.121 241.563 250.819 241.806 251.245C242.192 251.91 280.675 227.898 281.061 228.589C281.289 228.979 257.672 247.428 257.895 247.819C258.281 248.484 293.53 226.366 293.941 227.01C294.261 227.563 259.586 251.966 259.926 252.514C260.54 253.585 328.326 211.606 328.971 212.677C329.616 213.748 263.749 254.838 264.333 255.848C264.84 256.696 328.535 217.656 329.022 218.509C329.509 219.362 273.298 255.376 273.801 256.244C274.182 256.909 322.996 226.959 323.382 227.624C323.707 228.193 288.179 253.052 288.504 253.615C288.889 254.28 330.032 228.746 330.418 229.426C330.713 229.934 298.804 252.849 299.099 253.361C299.505 254.057 345.623 225.579 346.024 226.274C346.481 227.061 295.86 260.045 296.312 260.832C296.946 261.928 368.099 217.93 368.733 219.032C369.368 220.133 296.317 265.217 296.962 266.319C297.606 267.42 379.44 217.225 380.085 218.341C380.73 219.458 308.161 264.233 308.801 265.344C308.999 265.679 321.732 257.432 321.925 257.767C322.117 258.102 299.896 275.85 300.094 276.221C300.292 276.591 335.124 255.574 335.292 255.919C335.597 256.427 302.683 279.9 302.988 280.428C303.181 280.758 322.981 268.445 323.173 268.755C323.366 269.064 306.009 284.123 306.181 284.422C306.354 284.722 332.748 268.643 332.941 268.978C333.134 269.313 317.142 283.585 317.305 283.864C317.467 284.143 337.439 271.795 337.612 272.13C337.851 272.541 312.913 291.7 313.147 292.111C313.38 292.523 335.109 278.982 335.307 279.322C335.444 279.565 322.199 292.426 322.341 292.665C322.544 293.015 339.095 282.514 339.293 282.884C339.491 283.255 318.594 300.217 318.797 300.572C319 300.927 342.801 286.239 343.009 286.6C343.217 286.96 324.031 302.973 324.224 303.303C324.417 303.632 348.436 288.823 348.654 289.203C348.817 289.482 332.754 303.861 332.916 304.145C333.144 304.546 363.108 286.183 363.337 286.584C363.565 286.985 339.298 305.784 339.526 306.185C339.755 306.586 369.987 288.016 370.261 288.447C370.536 288.878 343.892 308.946 344.146 309.383C344.4 309.819 372.536 292.35 372.815 292.837C373.038 293.218 349.873 311.423 350.096 311.809C350.441 312.403 391.93 286.874 392.275 287.447C392.569 287.955 360.565 310.921 360.864 311.433C361.676 312.849 454.532 255.488 455.35 256.899C456.167 258.31 366.545 312.22 367.327 313.565C368.058 314.829 452.684 262.608 453.416 263.877C454.091 265.04 377.816 311.819 378.491 312.981C379.11 314.062 443.044 274.282 443.668 275.363C444.176 276.281 384.467 314.169 385 315.087C385.507 315.925 438.124 283.306 438.611 284.128C439.038 284.864 391.742 316.057 392.168 316.793C392.427 317.244 431.565 293.446 431.824 293.903" stroke="#9BBB97" stroke-width="3.37" stroke-linecap="round" stroke-linejoin="round"/>
<path d="M264.85 34.7406C265.241 35.4156 317.142 3.64907 317.548 4.32408C317.883 4.90267 281.249 30.3605 281.584 30.9391C281.975 31.6192 324.976 4.99403 325.367 5.66905C325.707 6.26286 288.366 32.0963 288.707 32.6901C289.097 33.3651 332.515 6.50647 332.875 7.18149C333.221 7.77531 295.662 33.7306 296.007 34.3244C296.352 34.9182 337.409 9.64811 337.749 10.2318C337.978 10.6276 313.989 29.2744 314.218 29.6703C314.446 30.0662 340.029 14.1956 340.277 14.6321C340.526 15.0686 318.112 32.7866 318.325 33.1621C318.538 33.5377 341.872 19.0679 342.09 19.4587C342.308 19.8495 320.929 37.0498 321.138 37.4102C321.346 37.7705 337.272 27.5945 337.485 27.9751C337.627 28.2137 324.285 41.1253 324.427 41.3689C324.646 41.7394 336.185 34.0858 336.399 34.4614C336.546 34.7101 322.585 47.9567 322.732 48.2105C322.93 48.5556 345.166 34.8065 345.364 35.1466C345.623 35.5983 317.767 56.331 318.026 56.7878C318.193 57.072 337.384 45.2313 337.551 45.5206C337.597 45.5967 337.109 51.5247 337.155 51.611C337.201 51.6973 338.759 50.4893 338.841 50.6365" stroke="#9BBB97" stroke-width="3.37" stroke-linecap="round" stroke-linejoin="round"/>
<path d="M228.434 5.71982C228.434 5.71982 229.089 5.32902 229.099 5.33409C229.15 5.42545 235.511 7.36422 235.562 7.46573C235.613 7.56724 239.029 5.29349 239.116 5.4356C239.202 5.57771 239.024 11.2469 239.07 11.323C239.212 11.5717 255.707 1.39056 255.849 1.63925C256.098 2.06558 229.957 21.8594 230.226 22.2857C230.495 22.712 254.412 7.84131 254.626 8.20673C254.768 8.45542 240.979 21.6056 241.126 21.8594C241.405 22.3415 277.197 0.395791 277.477 0.877948C277.817 1.46161 240.867 27.087 241.202 27.6706C241.537 28.2543 278.081 5.58786 278.426 6.18675C278.731 6.69428 246.173 29.9698 246.477 30.4925C246.888 31.2081 289.686 4.60832 290.103 5.30871C290.463 5.93805 250.64 33.1063 251.011 33.7306C251.519 34.568 295.078 7.18152 295.56 8.01895C295.967 8.71934 251.026 38.6435 251.432 39.349C251.98 40.3031 304.323 7.55201 304.871 8.50617C305.42 9.46034 244.812 47.7842 245.35 48.718C245.543 49.053 276.547 30.2692 276.74 30.6042C276.994 31.0407 249.96 51.3318 250.214 51.7734C250.407 52.1033 273.283 38.0142 273.476 38.3441C273.669 38.674 258.245 52.6261 258.418 52.9001C258.591 53.1742 282.904 38.3238 283.097 38.6537C283.29 38.9836 261.774 56.3463 261.972 56.7066C262.17 57.067 280.924 45.3226 281.117 45.6576C281.36 46.0789 255.656 65.6494 255.9 66.0706C256.093 66.4056 288.9 46.5661 289.118 46.9011C289.336 47.2361 267.973 64.4871 268.181 64.8424C268.389 65.1977 279.421 57.9146 279.614 58.2444C279.807 58.5743 258.591 75.7645 258.799 76.1198C259.007 76.4751 279.944 63.472 280.122 63.807C280.299 64.142 262.911 79.2005 263.089 79.5C263.266 79.7994 288.189 64.5683 288.382 64.8982C288.519 65.1418 275.38 77.9418 275.522 78.1854C275.715 78.5153 286.747 71.2576 286.94 71.5875C287.133 71.9174 272.664 85.3417 272.816 85.6005C273.009 85.9355 292.337 73.8917 292.53 74.2216C292.646 74.4246 282.142 85.8035 282.259 86.0116C282.452 86.3415 293.489 79.0838 293.682 79.4137C293.875 79.7436 278.451 93.7058 278.599 93.9799C278.746 94.2539 297.205 82.8141 297.383 83.1288C297.561 83.4435 276.72 100.451 276.923 100.801C277.126 101.151 298.84 87.7068 299.033 88.0417C299.226 88.3767 277.68 105.739 277.888 106.105C278.096 106.47 297.637 94.259 297.83 94.594C297.972 94.8376 284.503 107.82 284.63 108.064C284.823 108.399 310.522 92.6704 310.725 93.0054C310.994 93.4723 282.163 114.728 282.432 115.195C282.619 115.525 306.191 101.035 306.384 101.37C306.511 101.588 294.905 113.55 295.032 113.784C295.225 114.114 317.604 100.309 317.797 100.644C318.046 101.075 291.397 121.148 291.666 121.585C291.859 121.915 316.122 107.023 316.315 107.374C316.508 107.724 292.357 126.528 292.585 126.929C292.814 127.33 313.599 114.357 313.791 114.692C313.923 114.921 301.363 127.416 301.5 127.645C301.688 127.98 313.918 120.032 314.111 120.367C314.248 120.6 301.353 133.273 301.49 133.512C301.683 133.842 326.809 118.453 327.001 118.793C327.26 119.24 299.698 139.81 299.957 140.262C300.15 140.592 322.585 126.756 322.803 127.091C323.021 127.426 305.064 142.779 305.242 143.089C305.42 143.398 330.459 128.086 330.626 128.421C330.906 128.903 300.886 150.803 301.18 151.26C301.368 151.595 330.083 134.136 330.276 134.466C330.525 134.897 304.176 154.818 304.425 155.249C304.618 155.579 332.525 138.587 332.718 138.917C332.911 139.247 316.249 153.899 316.416 154.189C316.584 154.478 336.434 142.19 336.622 142.515C336.81 142.84 317.421 159.015 317.609 159.345C317.797 159.675 343.425 144.007 343.618 144.337C343.872 144.774 316.975 164.989 317.218 165.43C317.406 165.76 342.77 150.24 342.958 150.57C343.146 150.9 323.793 167.055 323.981 167.384C324.169 167.714 333.982 161.172 334.17 161.502C334.297 161.72 322.762 173.683 322.889 173.876C323.077 174.211 337.46 165.024 337.653 165.354C337.846 165.684 320.122 180.925 320.3 181.23C320.478 181.534 339.354 169.79 339.546 170.125C339.739 170.46 316.452 188.797 316.701 189.188C317.097 189.878 357.585 164.664 357.981 165.359C358.377 166.055 310.979 197.359 311.405 198.1C311.974 199.08 379.009 157.777 379.573 158.756C380.258 159.939 302.617 207.48 303.303 208.637C303.988 209.794 378.826 163.466 379.512 164.654C380.248 165.928 296.251 216.854 297.012 218.128C297.774 219.402 393.91 160.406 394.691 161.751C395.514 163.182 301.054 219.752 301.881 221.183C302.709 222.614 399.976 162.588 400.829 164.07" stroke="#9BBB97" stroke-width="3.37" stroke-linecap="round" stroke-linejoin="round"/>
</g>
<defs>
<filter id="filter0_i" x="0" y="0" width="458" height="323" filterUnits="userSpaceOnUse" color-interpolation-filters="sRGB">
<feFlood flood-opacity="0" result="BackgroundImageFix"/>
<feBlend mode="normal" in="SourceGraphic" in2="BackgroundImageFix" result="shape"/>
<feColorMatrix in="SourceAlpha" type="matrix" values="0 0 0 0 0 0 0 0 0 0 0 0 0 0 0 0 0 0 127 0" result="hardAlpha"/>
<feOffset dy="4"/>
<feGaussianBlur stdDeviation="2"/>
<feComposite in2="hardAlpha" operator="arithmetic" k2="-1" k3="1"/>
<feColorMatrix type="matrix" values="0 0 0 0 0 0 0 0 0 0 0 0 0 0 0 0 0 0 0.25 0"/>
<feBlend mode="normal" in2="shape" result="effect1_innerShadow"/>
</filter>
<clipPath id="clip0">
<rect width="458" height="319" fill="white"/>
</clipPath>
</defs>
</svg>
