<svg width="300" height="209" viewBox="0 0 300 209" fill="none" xmlns="http://www.w3.org/2000/svg">
<g clip-path="url(#clip0)" filter="url(#filter0_i)">
<path d="M245.156 164.622C244.616 164.778 244.056 164.854 243.494 164.848C243.119 164.857 242.745 164.838 242.373 164.791H243.494C244.052 164.792 244.61 164.736 245.156 164.622V164.622Z" fill="#BBBDBF"/>
<path d="M36.6067 70.1221C36.64 70.1785 42.6524 66.5656 42.6857 66.622C42.7522 66.7381 37.172 73.4763 37.2386 73.5891C37.3549 73.7881 49.6991 66.1476 49.8121 66.3466C49.8919 66.486 42.6191 74.1365 42.699 74.2758C42.8686 74.5678 54.7903 66.9239 54.9599 67.2159C55.1295 67.5078 37.4414 80.7519 37.6077 81.0405C37.8172 81.4055 67.59 63.2811 67.8029 63.6461C68.0157 64.011 42.8885 81.2993 43.118 81.6941C43.3474 82.0889 70.5863 65.3148 70.829 65.7362C71.0119 66.0679 51.1489 80.4765 51.3352 80.795C51.5846 81.2263 77.2538 65.2883 77.5066 65.7196C77.6861 66.0348 58.1025 80.3173 58.2854 80.6225C58.5115 81.014 84.4368 65.0295 84.6663 65.4276C84.8958 65.8258 60.7695 82.5136 60.989 82.8951C61.1786 83.2269 85.0321 68.6126 85.2183 68.9377C85.4045 69.2628 64.9829 83.9899 65.1724 84.315C65.3188 84.5672 85.1784 72.4578 85.3247 72.7033C85.4711 72.9488 71.9697 83.9236 72.0994 84.1492C72.2291 84.3748 89.2521 73.9806 89.3918 74.1962C89.5314 74.4118 73.0438 87.082 73.2001 87.354C73.3265 87.5697 92.8935 75.719 93.0199 75.938C93.1462 76.1569 78.4044 87.8616 78.5474 88.1071C78.6904 88.3526 91.5866 80.304 91.7063 80.523C91.826 80.7419 80.3066 90.6551 80.423 90.8508C80.5394 91.0466 88.1248 86.1265 88.2511 86.3421C88.3309 86.4848 80.9351 94.2083 81.005 94.3476C81.128 94.5666 96.9239 84.889 97.0503 85.1047C97.2365 85.4364 77.2439 99.9147 77.4301 100.236C77.5565 100.455 93.4954 90.6949 93.6218 90.9106C93.7149 91.0731 84.7461 99.6393 84.8392 99.8019C84.9656 100.018 98.7164 91.5077 98.8427 91.7366C99.0223 92.0485 79.595 106.235 79.7745 106.55C79.9009 106.766 98.6798 95.3695 98.8062 95.6017C98.9325 95.8339 88.0483 105.369 88.1514 105.558C88.2545 105.747 99.5111 98.7236 99.6375 98.9426C99.7639 99.1616 84.2406 111.291 84.3903 111.556C84.5399 111.822 103.678 100.147 103.818 100.366C103.991 100.658 85.8768 114.137 86.0464 114.433C86.1727 114.652 104.669 103.421 104.789 103.637C104.945 103.906 88.5305 116.473 88.6868 116.742C88.8131 116.961 99.9302 109.977 100.053 110.196C100.176 110.415 89.7443 119.718 89.8573 119.9C89.9704 120.083 107.948 109.191 108.074 109.406C108.201 109.622 97.2765 119.204 97.3862 119.393C97.4959 119.582 105.367 114.499 105.504 114.718C105.64 114.937 95.9695 123.812 96.0693 123.984C96.1691 124.157 111.855 114.609 111.992 114.818C112.128 115.027 100.971 124.737 101.084 124.933C101.197 125.129 106.964 121.257 107.09 121.473C107.216 121.688 97.4926 130.6 97.5924 130.762C97.6921 130.925 108.586 124.127 108.713 124.359C108.839 124.591 95.4774 135.513 95.6071 135.739C95.7368 135.964 115.527 123.978 115.65 124.197C115.773 124.416 105.477 133.645 105.583 133.818C105.69 133.99 113.332 129.06 113.458 129.279C113.585 129.498 99.5843 140.788 99.7207 141.024C99.857 141.259 120.521 128.748 120.648 128.971C120.824 129.276 101.912 143.184 102.088 143.492C102.215 143.708 116.664 134.803 116.79 135.022C116.917 135.241 105.53 145.078 105.643 145.274C105.756 145.469 124.286 134.246 124.412 134.461" stroke="#9BBB97" stroke-width="3.37" stroke-linecap="round" stroke-linejoin="round"/>
<path d="M41.6115 124.505C41.8642 124.936 73.0504 105.816 73.2999 106.258C73.4794 106.566 54.4245 120.55 54.6041 120.855C54.7837 121.16 73.2433 109.678 73.4362 110.01C73.5792 110.255 58.7809 121.953 58.9239 122.199C59.0669 122.444 81.4206 108.852 81.5869 109.144C81.7532 109.436 61.0688 124.349 61.2617 124.68C61.4146 124.949 82.9503 111.835 83.1033 112.1C83.2563 112.365 68.0489 124.269 68.1953 124.521C68.3416 124.773 79.3854 117.74 79.5284 117.992C79.6049 118.125 72.7312 125.56 72.8077 125.692C72.9473 125.931 84.8791 118.42 85.0188 118.659C85.1119 118.818 76.3127 127.285 76.4025 127.454C76.5355 127.683 85.0221 122.182 85.1551 122.411C85.2881 122.64 74.6167 132.066 74.7265 132.251C74.8362 132.437 93.0631 121.389 93.1928 121.612C93.359 121.9 75.7274 135.121 75.9003 135.41C76.0267 135.629 97.0736 122.919 97.1833 123.134C97.2931 123.35 81.0648 135.904 81.2145 136.173C81.3641 136.442 94.4664 128.25 94.5928 128.469C94.6826 128.628 85.9166 137.095 86.0098 137.244C86.1328 137.463 101.949 127.773 102.075 127.991C102.278 128.323 80.3432 143.873 80.546 144.221C80.6724 144.44 101.496 131.866 101.619 132.082C101.743 132.298 87.4031 143.784 87.5428 144.026C87.6825 144.268 102.394 135.178 102.507 135.4" stroke="#9BBB97" stroke-width="3.37" stroke-linecap="round" stroke-linejoin="round"/>
<path d="M19.8098 117.744C19.8896 117.88 31.9677 110.554 32.0475 110.694C32.247 111.042 10.4785 126.486 10.6781 126.831C10.9607 127.318 47.0586 105.229 47.3413 105.717C47.7038 106.344 6.8438 132.036 7.20628 132.663C7.56875 133.29 55.3457 104.052 55.7281 104.715C56.1737 105.482 5.75637 136.306 6.20198 137.072C6.6476 137.839 61.1586 104.36 61.6208 105.153C62.0831 105.946 7.09653 139.275 7.57207 140.111C8.09084 141.007 66.2731 105.103 66.7919 105.999C67.3107 106.895 5.3806 143.953 5.93595 144.892C6.19866 145.34 31.0133 129.85 31.2727 130.294C31.532 130.739 5.64662 148.342 5.88273 148.75C6.07561 149.082 24.1262 137.802 24.3158 138.134C24.5386 138.515 0.412356 155.223 0.635162 155.605C0.804761 155.893 24.4488 141.501 24.6151 141.79C24.8412 142.178 0.339192 159.088 0.568649 159.473C0.72162 159.742 18.2801 148.916 18.433 149.188C18.586 149.46 3.99387 161.016 4.13353 161.258C4.2732 161.5 15.5632 154.341 15.7062 154.59C15.8492 154.838 1.20715 166.44 1.34682 166.696C1.48649 166.951 14.9812 158.531 15.1043 158.77C15.2273 159.009 3.58152 168.968 3.68461 169.171C3.78769 169.373 23.6374 157.366 23.777 157.595C23.9466 157.891 5.92596 171.32 6.09224 171.612C6.22526 171.838 18.5428 164.144 18.6725 164.367C18.8022 164.589 7.25283 174.512 7.3659 174.711C7.47896 174.91 22.5932 165.644 22.7229 165.866C22.8526 166.089 8.13407 177.77 8.27707 178.016C8.42006 178.261 26.7533 167.067 26.8797 167.299C27.0393 167.575 10.2956 180.318 10.4552 180.593C10.5783 180.809 24.2925 172.332 24.4222 172.548C24.5851 172.833 7.10652 185.975 7.26946 186.26C7.39583 186.476 22.3903 177.259 22.5167 177.478C22.5932 177.607 15.8292 184.986 15.9057 185.109C16.032 185.328 26.494 178.719 26.6203 178.938C26.7467 179.157 16.2183 188.516 16.3114 188.698C16.4045 188.881 25.8854 182.886 26.0151 183.111C26.1448 183.337 13.0857 194.096 13.2121 194.315C13.3384 194.534 36.4903 180.61 36.61 180.839C36.7297 181.068 21.978 192.782 22.111 193.021C22.244 193.26 39.0642 182.952 39.2005 183.191C39.3369 183.43 25.9453 194.355 26.075 194.581C26.2046 194.806 37.6442 187.59 37.7839 187.839C37.877 187.998 29.0346 196.495 29.1377 196.654C29.2907 196.913 38.878 190.699 39.0276 190.958C39.1374 191.143 28.4593 200.629 28.5657 200.814C28.7287 201.096 45.5755 190.643 45.7384 190.925C45.9014 191.207 27.4251 204.905 27.598 205.19C27.7709 205.476 50.6368 191.508 50.8031 191.824C50.9694 192.139 32.0275 206.06 32.2071 206.368C32.4266 206.746 64.5672 187.219 64.7966 187.6C65.0594 188.055 35.8651 207.506 36.1145 207.951C36.6532 208.88 102.248 168.62 102.783 169.549C103.279 170.405 46.7693 204.5 47.2482 205.36C47.727 206.219 103.565 171.825 104.047 172.667C104.529 173.51 49.7057 206.69 50.1746 207.503C50.5869 208.219 99.9567 177.876 100.369 178.589C100.781 179.303 55.7913 207.194 56.197 207.881C56.5295 208.438 93.7747 185.494 94.1073 186.051C94.3101 186.406 72.1127 202.078 72.3188 202.433C72.525 202.788 87.8787 193.051 88.0616 193.366" stroke="#9BBB97" stroke-width="3.37" stroke-linecap="round" stroke-linejoin="round"/>
<path d="M48.4188 150.061C48.452 150.118 55.4754 145.924 55.5053 145.98C55.6084 146.156 45.7218 155.213 45.8216 155.389C45.9213 155.565 60.6997 146.554 60.8161 146.763C60.9325 146.972 49.739 156.716 49.8421 156.909C50.0117 157.201 64.4741 148.1 64.6271 148.392C64.78 148.684 47.6373 161.636 47.8002 161.915C48.0097 162.283 72.6813 147.095 72.8942 147.46C73.0704 147.769 54.1618 161.676 54.3381 161.981C54.5808 162.399 76.3959 148.711 76.6386 149.136C76.8182 149.444 57.7666 163.425 57.9462 163.733C58.1989 164.168 81.0981 149.816 81.3508 150.254C81.5071 150.519 65.2589 162.997 65.4119 163.265C65.7444 163.856 103.725 140.41 104.067 141.001C104.41 141.591 66.3231 165.784 66.6623 166.364C66.9549 166.868 105.683 143.217 105.973 143.721C106.262 144.225 74.1712 165.213 74.4605 165.701C74.7099 166.135 106.498 146.667 106.751 147.102C106.957 147.46 84.3238 163.358 84.5333 163.73C84.8858 164.337 125.486 139.329 125.839 139.936C126.191 140.543 87.5661 165.037 87.9086 165.624C88.2512 166.211 120.738 145.937 121.077 146.521C121.416 147.105 86.053 169.798 86.3656 170.345C86.7381 170.986 121.948 149 122.314 149.64C122.68 150.28 79.1427 177.448 79.5285 178.115C79.9774 178.892 135.543 144.816 135.991 145.602" stroke="#9BBB97" stroke-width="3.37" stroke-linecap="round" stroke-linejoin="round"/>
<path d="M232.373 126.29C232.6 126.682 262.106 108.64 262.332 109.038C262.459 109.254 249.676 119.874 249.799 120.09C249.985 120.421 270.084 107.983 270.267 108.302C270.45 108.62 252.117 122.19 252.29 122.485C252.463 122.78 267.141 113.554 267.307 113.836C267.411 114.015 257.364 123.158 257.467 123.334C257.617 123.596 273.722 113.623 273.875 113.886C274.028 114.148 255.399 127.956 255.585 128.258C255.725 128.503 280.526 113.56 280.666 113.809C280.805 114.058 265.036 126.297 265.182 126.559C265.329 126.821 283.872 115.478 284.008 115.714C284.144 115.949 269.043 127.823 269.206 128.072C269.369 128.321 286.425 117.847 286.558 118.076C286.751 118.407 265.794 133.42 265.987 133.755C266.117 133.981 287.46 121.091 287.603 121.314C287.766 121.596 270.55 134.584 270.713 134.873C270.839 135.092 282.019 128.075 282.132 128.294C282.202 128.414 276.25 135.357 276.316 135.477C276.442 135.692 287.387 128.808 287.513 129.027C287.639 129.246 271.883 141.508 272.046 141.767C272.209 142.026 286.439 133.188 286.562 133.407C286.685 133.626 272.861 144.819 272.994 145.052C273.127 145.284 288.431 135.842 288.574 136.057C288.717 136.273 276.695 146.455 276.815 146.674C276.935 146.893 293.263 136.907 293.389 137.129C293.515 137.351 278.843 149.013 278.986 149.255C279.129 149.497 293.575 140.553 293.705 140.778C293.808 140.954 283.758 150.101 283.862 150.277C283.995 150.509 295.81 143.088 295.943 143.31C296.076 143.532 279.382 156.315 279.538 156.58C279.695 156.846 294.776 147.487 294.912 147.722C295.092 148.031 275.957 162.055 276.146 162.363C276.293 162.612 299.308 148.691 299.451 148.94C299.594 149.189 281.873 162.512 282.039 162.801C282.205 163.09 294.779 155.107 294.935 155.373C295.142 155.731 272.558 171.629 272.768 171.961C272.934 172.25 296.046 158.173 296.209 158.462C296.372 158.75 278.251 172.243 278.421 172.535C278.591 172.827 292.83 163.8 293.02 164.128C293.293 164.593 263.34 184.432 263.609 184.9C263.879 185.368 297.586 164.765 297.828 165.19" stroke="#9BBB97" stroke-width="3.37" stroke-linecap="round" stroke-linejoin="round"/>
<path d="M213.987 164.535C214.28 165.036 251.192 142.44 251.481 142.941C251.771 143.442 218.071 165.318 218.373 165.833C218.619 166.257 253.018 145.31 253.264 145.734C253.51 146.159 224.13 165.733 224.396 166.194C224.598 166.543 254.175 148.574 254.378 148.942C254.581 149.311 235.596 163.182 235.775 163.487C235.955 163.792 250.9 154.413 251.072 154.685C251.245 154.957 236.773 166.426 236.919 166.669C237.019 166.841 251.861 157.834 251.96 158.003" stroke="#9BBB97" stroke-width="3.37" stroke-linecap="round" stroke-linejoin="round"/>
<path d="M216.71 136.23C216.837 136.445 235.503 125.116 235.629 125.331C235.755 125.547 224.565 135.284 224.678 135.47C224.791 135.656 233.444 130.132 233.571 130.347C233.634 130.46 228.34 137.046 228.403 137.155C228.529 137.374 240.584 129.856 240.707 130.065C240.83 130.274 229.154 140.284 229.271 140.486C229.387 140.689 239.207 134.471 239.334 134.69C239.46 134.909 225.55 146.149 225.699 146.382C225.849 146.614 238.622 138.648 238.748 138.867" stroke="#9BBB97" stroke-width="3.37" stroke-linecap="round" stroke-linejoin="round"/>
<path d="M104.406 164.682C104.659 165.12 128.22 150.386 128.473 150.821C128.679 151.176 106.441 166.871 106.648 167.223C106.9 167.661 137.076 149.119 137.328 149.553C137.508 149.868 117.994 164.101 118.177 164.413C118.426 164.851 145.585 148.047 145.838 148.488C146.004 148.777 128.177 162.091 128.343 162.396C128.596 162.83 150.956 148.793 151.219 149.218C151.418 149.55 129.936 164.848 130.145 165.189C130.398 165.624 162.123 146.189 162.376 146.61C162.628 147.032 138.1 163.909 138.323 164.297C138.545 164.685 167.271 147.045 167.524 147.476C167.72 147.808 146.284 163.069 146.48 163.428C146.733 163.862 176.409 145.612 176.659 146.046C176.858 146.378 155.273 161.736 155.472 162.081C155.725 162.515 174.806 150.363 175.059 150.801C175.219 151.079 158.229 163.955 158.389 164.234C158.641 164.668 183.848 148.973 184.101 149.424C184.251 149.679 168.781 161.739 168.927 161.994C169.18 162.429 192.268 147.971 192.538 148.392C192.747 148.754 170.034 164.705 170.257 165.063C170.659 165.763 215.061 138.323 215.483 139.023C215.906 139.723 172.761 166.583 173.144 167.243C173.476 167.797 215.197 142.278 215.517 142.835C215.836 143.392 179.016 166.934 179.346 167.502C179.595 167.936 211.569 148.359 211.822 148.793C212.035 149.165 188.763 165.415 188.976 165.783C189.229 166.218 216.178 149.527 216.431 149.971C216.624 150.303 195.723 165.282 195.916 165.617C196.182 166.072 226.391 147.456 226.654 147.911C226.953 148.425 193.795 169.987 194.091 170.501C194.506 171.217 241.113 142.457 241.528 143.177C241.944 143.897 194.094 173.367 194.516 174.087C194.939 174.807 248.542 141.996 248.964 142.725C249.386 143.455 201.852 172.724 202.271 173.45C202.401 173.669 210.741 168.278 210.868 168.497C210.994 168.716 196.438 180.318 196.568 180.56C196.698 180.802 219.514 167.064 219.624 167.289C219.823 167.621 198.264 182.965 198.464 183.31C198.59 183.526 211.559 175.477 211.686 175.68C211.812 175.882 200.442 185.726 200.555 185.921C200.668 186.117 217.958 175.607 218.084 175.826C218.21 176.045 207.735 185.374 207.841 185.556C207.948 185.739 221.03 177.667 221.143 177.886C221.3 178.155 204.965 190.679 205.118 190.948C205.271 191.216 219.504 182.365 219.634 182.587C219.723 182.746 211.047 191.153 211.14 191.309C211.273 191.538 222.114 184.674 222.244 184.916C222.374 185.158 208.686 196.246 208.819 196.478C208.952 196.71 224.542 187.109 224.678 187.345C224.815 187.58 212.248 198.047 212.374 198.263C212.5 198.479 228.233 188.798 228.376 189.047C228.483 189.229 217.961 198.628 218.067 198.814C218.217 199.076 237.844 187.073 237.993 187.335C238.143 187.597 222.247 199.885 222.397 200.147C222.547 200.41 242.35 188.27 242.529 188.552C242.709 188.834 225.257 201.952 225.423 202.238C225.589 202.523 244.019 191.104 244.202 191.422C244.348 191.671 229.174 203.571 229.321 203.823C229.547 204.212 256.722 187.524 256.949 187.899C257.141 188.23 236.178 203.243 236.374 203.578C236.906 204.504 297.729 167.007 298.264 167.93C298.8 168.852 240.095 204.092 240.607 204.971C241.086 205.797 296.518 171.662 296.997 172.491C297.439 173.251 247.478 203.83 247.92 204.59C248.326 205.296 290.203 179.293 290.612 179.999C290.945 180.6 251.834 205.366 252.183 205.967C252.516 206.514 286.981 185.191 287.3 185.729C287.579 186.21 256.599 206.6 256.879 207.081C257.048 207.377 282.684 191.82 282.854 192.119" stroke="#9BBB97" stroke-width="3.37" stroke-linecap="round" stroke-linejoin="round"/>
<path d="M173.483 22.709C173.739 23.1502 207.735 2.38502 208.001 2.82627C208.221 3.20448 184.224 19.8458 184.443 20.2241C184.7 20.6686 212.866 3.2642 213.122 3.70545C213.345 4.09361 188.886 20.9805 189.109 21.3686C189.365 21.8099 217.805 4.25286 218.041 4.69411C218.267 5.08227 193.665 22.0488 193.891 22.4369C194.117 22.8251 221.01 6.30649 221.233 6.68802C221.383 6.9468 205.67 19.1359 205.82 19.3946C205.969 19.6534 222.726 9.27911 222.889 9.56443C223.052 9.84975 208.37 21.4317 208.51 21.6772C208.65 21.9227 223.933 12.4641 224.076 12.7195C224.219 12.975 210.216 24.2185 210.352 24.4541C210.489 24.6896 220.92 18.0377 221.06 18.2865C221.153 18.4425 212.414 26.8826 212.507 27.0418C212.65 27.284 220.209 22.281 220.349 22.5265C220.445 22.6891 211.3 31.3481 211.396 31.514C211.526 31.7396 226.092 22.7521 226.221 22.9744C226.391 23.2697 208.144 36.8223 208.314 37.1209C208.423 37.3067 220.994 29.5666 221.103 29.7557C221.133 29.8054 220.814 33.6805 220.844 33.7369C220.874 33.7933 221.895 33.0037 221.948 33.0999" stroke="#9BBB97" stroke-width="3.37" stroke-linecap="round" stroke-linejoin="round"/>
<path d="M149.629 3.73852C149.629 3.73852 150.058 3.48306 150.065 3.48638C150.098 3.5461 154.265 4.81344 154.298 4.87979C154.331 4.94615 156.569 3.45984 156.626 3.55273C156.683 3.64563 156.566 7.35145 156.596 7.40121C156.689 7.56378 167.494 0.908561 167.587 1.07113C167.75 1.34981 150.627 14.2887 150.803 14.5674C150.979 14.846 166.646 5.1253 166.785 5.36417C166.878 5.52674 157.846 14.1228 157.943 14.2887C158.126 14.6038 181.57 0.258301 181.753 0.573478C181.976 0.955009 157.773 17.7059 157.993 18.0874C158.212 18.4689 182.149 3.65226 182.375 4.04375C182.575 4.37551 161.248 19.5903 161.448 19.932C161.717 20.3998 189.751 3.01195 190.024 3.46979C190.26 3.88118 164.175 21.6406 164.418 22.0487C164.75 22.5961 193.283 4.69401 193.598 5.24142C193.865 5.69926 164.428 25.2602 164.694 25.7213C165.053 26.345 199.338 4.93619 199.697 5.55991C200.057 6.18363 160.357 31.2352 160.71 31.8457C160.836 32.0647 181.145 19.786 181.271 20.005C181.437 20.2903 163.729 33.5543 163.895 33.8429C164.022 34.0586 179.006 24.8488 179.133 25.0644C179.259 25.2801 169.156 34.4003 169.269 34.5794C169.382 34.7586 185.308 25.0511 185.434 25.2668C185.561 25.4824 171.468 36.8321 171.597 37.0677C171.727 37.3032 184.011 29.6262 184.138 29.8451C184.297 30.1205 167.46 42.9134 167.62 43.1888C167.746 43.4077 189.235 30.439 189.378 30.658C189.521 30.8769 175.528 42.1537 175.664 42.3859C175.801 42.6181 183.027 37.8573 183.153 38.0729C183.28 38.2886 169.382 49.5255 169.519 49.7577C169.655 49.99 183.369 41.4901 183.486 41.7091C183.602 41.9281 172.212 51.7715 172.329 51.9673C172.445 52.163 188.77 42.2067 188.896 42.4224C188.986 42.5816 180.38 50.9488 180.473 51.108C180.599 51.3237 187.825 46.5794 187.952 46.7951C188.078 47.0107 178.601 55.7859 178.7 55.9551C178.827 56.1741 191.487 48.3013 191.613 48.5169C191.69 48.6496 184.809 56.0878 184.886 56.2238C185.012 56.4395 192.242 51.6952 192.368 51.9109C192.494 52.1265 182.392 61.2534 182.488 61.4325C182.585 61.6117 194.676 54.1337 194.792 54.3394C194.909 54.5451 181.258 65.6626 181.391 65.8915C181.524 66.1204 195.747 57.3319 195.873 57.5509C195.999 57.7699 181.886 69.1195 182.023 69.3584C182.159 69.5973 194.959 61.615 195.085 61.834C195.178 61.9932 186.356 70.4798 186.439 70.639C186.565 70.858 203.399 60.5766 203.532 60.7956C203.708 61.1008 184.823 74.9951 184.999 75.3003C185.122 75.516 200.562 66.0441 200.688 66.2631C200.772 66.4057 193.169 74.2254 193.253 74.378C193.379 74.5937 208.038 65.5697 208.164 65.7886C208.327 66.0706 190.872 79.192 191.048 79.4773C191.174 79.6929 207.067 69.9589 207.193 70.1878C207.319 70.4168 191.5 82.7087 191.65 82.9708C191.799 83.2329 205.414 74.7529 205.54 74.9719C205.627 75.1212 197.399 83.2893 197.489 83.4386C197.612 83.6575 205.623 78.4621 205.75 78.681C205.839 78.8336 197.393 87.1178 197.483 87.2738C197.609 87.4894 214.067 77.4303 214.193 77.6526C214.363 77.9445 196.309 91.391 196.478 91.6863C196.605 91.9019 211.3 82.858 211.443 83.0769C211.586 83.2959 199.824 93.3318 199.94 93.5342C200.057 93.7366 216.458 83.7272 216.567 83.9462C216.75 84.2613 197.087 98.577 197.28 98.8756C197.403 99.0946 216.212 87.6818 216.338 87.8975C216.501 88.1795 199.242 101.201 199.405 101.483C199.531 101.699 217.811 90.5914 217.938 90.8071C218.064 91.0227 207.15 100.601 207.259 100.79C207.369 100.979 220.372 92.947 220.495 93.1593C220.618 93.3716 207.918 103.945 208.041 104.161C208.164 104.376 224.951 94.1347 225.077 94.3503C225.244 94.6356 207.625 107.85 207.785 108.139C207.908 108.354 224.522 98.2088 224.645 98.4244C224.768 98.6401 212.091 109.2 212.214 109.416C212.337 109.631 218.766 105.355 218.889 105.571C218.972 105.713 211.416 113.533 211.499 113.659C211.622 113.878 221.044 107.873 221.17 108.089C221.296 108.304 209.687 118.267 209.803 118.466C209.92 118.665 222.284 110.988 222.41 111.207C222.537 111.426 207.283 123.413 207.446 123.668C207.705 124.12 234.226 107.638 234.485 108.092C234.744 108.547 203.698 129.01 203.977 129.494C204.35 130.135 248.259 103.135 248.628 103.776C249.077 104.549 198.221 135.625 198.67 136.382C199.119 137.138 248.139 106.855 248.588 107.631C249.071 108.464 194.051 141.753 194.55 142.586C195.048 143.418 258.019 104.854 258.531 105.733C259.07 106.669 197.197 143.647 197.739 144.583C198.281 145.519 261.993 106.281 262.552 107.249" stroke="#9BBB97" stroke-width="3.37" stroke-linecap="round" stroke-linejoin="round"/>
</g>
<defs>
<filter id="filter0_i" x="0" y="0" width="300" height="212.525" filterUnits="userSpaceOnUse" color-interpolation-filters="sRGB">
<feFlood flood-opacity="0" result="BackgroundImageFix"/>
<feBlend mode="normal" in="SourceGraphic" in2="BackgroundImageFix" result="shape"/>
<feColorMatrix in="SourceAlpha" type="matrix" values="0 0 0 0 0 0 0 0 0 0 0 0 0 0 0 0 0 0 127 0" result="hardAlpha"/>
<feOffset dy="4"/>
<feGaussianBlur stdDeviation="2"/>
<feComposite in2="hardAlpha" operator="arithmetic" k2="-1" k3="1"/>
<feColorMatrix type="matrix" values="0 0 0 0 0 0 0 0 0 0 0 0 0 0 0 0 0 0 0.25 0"/>
<feBlend mode="normal" in2="shape" result="effect1_innerShadow"/>
</filter>
<clipPath id="clip0">
<rect width="300" height="208.525" fill="white"/>
</clipPath>
</defs>
</svg>
