<svg width="950" height="264" viewBox="0 0 950 264" fill="none" xmlns="http://www.w3.org/2000/svg">
<circle cx="319" cy="4" r="4" fill="#299404"/>
<circle cx="319" cy="146" r="4" fill="#299404"/>
<circle cx="319" cy="21" r="4" fill="#299404"/>
<circle cx="319" cy="163" r="4" fill="#299404"/>
<circle cx="319" cy="38" r="4" fill="#299404"/>
<circle cx="319" cy="180" r="4" fill="#299404"/>
<circle cx="319" cy="55" r="4" fill="#299404"/>
<circle cx="319" cy="197" r="4" fill="#299404"/>
<circle cx="319" cy="72" r="4" fill="#299404"/>
<circle cx="319" cy="214" r="4" fill="#299404"/>
<circle cx="319" cy="112" r="4" fill="#299404"/>
<circle cx="319" cy="129" r="4" fill="#299404"/>
<circle cx="319" cy="92" r="7" fill="#299404"/>
<circle cx="319" cy="234" r="7" fill="#299404"/>
<circle cx="839" cy="75" r="7" fill="#299404"/>
<circle cx="839" cy="4" r="4" fill="#299404"/>
<circle cx="839" cy="21" r="4" fill="#299404"/>
<circle cx="839" cy="38" r="4" fill="#299404"/>
<circle cx="839" cy="55" r="4" fill="#299404"/>
<circle cx="7" cy="75" r="7" fill="#299404"/>
<circle cx="7" cy="4" r="4" fill="#299404"/>
<circle cx="7" cy="21" r="4" fill="#299404"/>
<circle cx="7" cy="38" r="4" fill="#299404"/>
<circle cx="7" cy="55" r="4" fill="#299404"/>
<circle cx="215" cy="4" r="4" fill="#0D1909"/>
<circle cx="215" cy="21" r="4" fill="#0D1909"/>
<circle cx="215" cy="38" r="4" fill="#0D1909"/>
<circle cx="215" cy="55" r="4" fill="#0D1909"/>
<circle cx="215" cy="72" r="4" fill="#0D1909"/>
<circle cx="215" cy="89" r="4" fill="#0D1909"/>
<circle cx="215" cy="129" r="4" fill="#0D1909"/>
<circle cx="215" cy="146" r="4" fill="#0D1909"/>
<circle cx="215" cy="109" r="7" fill="#0D1909"/>
<circle cx="215" cy="166" r="7" fill="#0D1909"/>
<circle cx="943" cy="4" r="4" fill="#0D1909"/>
<circle cx="943" cy="21" r="4" fill="#0D1909"/>
<circle cx="943" cy="38" r="4" fill="#0D1909"/>
<circle cx="943" cy="55" r="4" fill="#0D1909"/>
<circle cx="943" cy="72" r="4" fill="#0D1909"/>
<circle cx="943" cy="89" r="4" fill="#0D1909"/>
<circle cx="943" cy="129" r="4" fill="#0D1909"/>
<circle cx="943" cy="146" r="4" fill="#0D1909"/>
<circle cx="943" cy="109" r="7" fill="#0D1909"/>
<circle cx="943" cy="166" r="7" fill="#0D1909"/>
<circle cx="423" cy="4" r="4" fill="#299404"/>
<circle cx="423" cy="21" r="4" fill="#299404"/>
<circle cx="423" cy="38" r="4" fill="#299404"/>
<circle cx="423" cy="186" r="4" fill="#299404"/>
<circle cx="423" cy="55" r="4" fill="#299404"/>
<circle cx="423" cy="203" r="4" fill="#299404"/>
<circle cx="423" cy="72" r="4" fill="#299404"/>
<circle cx="423" cy="220" r="4" fill="#299404"/>
<circle cx="423" cy="89" r="4" fill="#299404"/>
<circle cx="423" cy="237" r="4" fill="#299404"/>
<circle cx="423" cy="129" r="4" fill="#299404"/>
<circle cx="423" cy="146" r="4" fill="#299404"/>
<circle cx="423" cy="109" r="7" fill="#299404"/>
<circle cx="423" cy="166" r="7" fill="#299404"/>
<circle cx="423" cy="257" r="7" fill="#299404"/>
<circle cx="735" cy="4" r="4" fill="#0D1909"/>
<circle cx="735" cy="21" r="4" fill="#0D1909"/>
<circle cx="735" cy="38" r="4" fill="#0D1909"/>
<circle cx="735" cy="186" r="4" fill="#0D1909"/>
<circle cx="735" cy="55" r="4" fill="#0D1909"/>
<circle cx="735" cy="203" r="4" fill="#0D1909"/>
<circle cx="735" cy="72" r="4" fill="#0D1909"/>
<circle cx="735" cy="220" r="4" fill="#0D1909"/>
<circle cx="735" cy="89" r="4" fill="#0D1909"/>
<circle cx="735" cy="237" r="4" fill="#0D1909"/>
<circle cx="735" cy="129" r="4" fill="#0D1909"/>
<circle cx="735" cy="146" r="4" fill="#0D1909"/>
<circle cx="735" cy="109" r="7" fill="#0D1909"/>
<circle cx="735" cy="166" r="7" fill="#0D1909"/>
<circle cx="735" cy="257" r="7" fill="#0D1909"/>
</svg>
