<svg width="20" height="489" viewBox="0 0 20 489" fill="none" xmlns="http://www.w3.org/2000/svg">
<circle cx="10" cy="479" r="10" fill="#299404"/>
<circle cx="10" cy="389" r="10" fill="#299404"/>
<circle cx="10" cy="215" r="10" fill="#299404"/>
<circle cx="10" cy="128" r="10" fill="#299404"/>
<circle cx="10" cy="10" r="10" fill="#299404"/>
<circle cx="10" cy="302" r="10" fill="#299404"/>
<circle cx="10" cy="410" r="2" fill="#299404"/>
<circle cx="10" cy="234" r="2" fill="#299404"/>
<circle cx="10" cy="147" r="2" fill="#299404"/>
<circle cx="10" cy="80" r="2" fill="#299404"/>
<circle cx="10" cy="102" r="2" fill="#299404"/>
<circle cx="10" cy="36" r="2" fill="#299404"/>
<circle cx="10" cy="25" r="2" fill="#299404"/>
<circle cx="10" cy="321" r="2" fill="#299404"/>
<circle cx="10" cy="460" r="2" fill="#299404"/>
<circle cx="10" cy="284" r="2" fill="#299404"/>
<circle cx="10" cy="197" r="2" fill="#299404"/>
<circle cx="10" cy="371" r="2" fill="#299404"/>
<circle cx="10" cy="450" r="2" fill="#299404"/>
<circle cx="10" cy="274" r="2" fill="#299404"/>
<circle cx="10" cy="187" r="2" fill="#299404"/>
<circle cx="10" cy="69" r="2" fill="#299404"/>
<circle cx="10" cy="361" r="2" fill="#299404"/>
<circle cx="10" cy="440" r="2" fill="#299404"/>
<circle cx="10" cy="264" r="2" fill="#299404"/>
<circle cx="10" cy="177" r="2" fill="#299404"/>
<circle cx="10" cy="58" r="2" fill="#299404"/>
<circle cx="10" cy="351" r="2" fill="#299404"/>
<circle cx="10" cy="430" r="2" fill="#299404"/>
<circle cx="10" cy="254" r="2" fill="#299404"/>
<circle cx="10" cy="167" r="2" fill="#299404"/>
<circle cx="10" cy="341" r="2" fill="#299404"/>
<circle cx="10" cy="420" r="2" fill="#299404"/>
<circle cx="10" cy="244" r="2" fill="#299404"/>
<circle cx="10" cy="157" r="2" fill="#299404"/>
<circle cx="10" cy="91" r="2" fill="#299404"/>
<circle cx="10" cy="113" r="2" fill="#299404"/>
<circle cx="10" cy="47" r="2" fill="#299404"/>
<circle cx="10" cy="331" r="2" fill="#299404"/>
</svg>
