<svg width="24" height="484" viewBox="0 0 24 484" fill="none" xmlns="http://www.w3.org/2000/svg">
<circle cx="12" cy="12" r="12" fill="#299404"/>
<circle cx="12" cy="106" r="12" fill="#299404"/>
<circle cx="12" cy="290" r="12" fill="#299404"/>
<circle cx="12" cy="380" r="12" fill="#299404"/>
<circle cx="12" cy="472" r="12" fill="#299404"/>
<circle cx="12" cy="200" r="12" fill="#299404"/>
<circle cx="12" cy="86" r="2" fill="#299404"/>
<circle cx="12" cy="273" r="2" fill="#299404"/>
<circle cx="12" cy="363" r="2" fill="#299404"/>
<circle cx="12" cy="453" r="2" fill="#299404"/>
<circle cx="12" cy="182" r="2" fill="#299404"/>
<circle cx="12" cy="31" r="2" fill="#299404"/>
<circle cx="12" cy="218" r="2" fill="#299404"/>
<circle cx="12" cy="307" r="2" fill="#299404"/>
<circle cx="12" cy="397" r="2" fill="#299404"/>
<circle cx="12" cy="127" r="2" fill="#299404"/>
<circle cx="12" cy="42" r="2" fill="#299404"/>
<circle cx="12" cy="229" r="2" fill="#299404"/>
<circle cx="12" cy="318" r="2" fill="#299404"/>
<circle cx="12" cy="409" r="2" fill="#299404"/>
<circle cx="12" cy="138" r="2" fill="#299404"/>
<circle cx="12" cy="53" r="2" fill="#299404"/>
<circle cx="12" cy="240" r="2" fill="#299404"/>
<circle cx="12" cy="329" r="2" fill="#299404"/>
<circle cx="12" cy="420" r="2" fill="#299404"/>
<circle cx="12" cy="149" r="2" fill="#299404"/>
<circle cx="12" cy="64" r="2" fill="#299404"/>
<circle cx="12" cy="251" r="2" fill="#299404"/>
<circle cx="12" cy="340" r="2" fill="#299404"/>
<circle cx="12" cy="431" r="2" fill="#299404"/>
<circle cx="12" cy="160" r="2" fill="#299404"/>
<circle cx="12" cy="75" r="2" fill="#299404"/>
<circle cx="12" cy="262" r="2" fill="#299404"/>
<circle cx="12" cy="351" r="2" fill="#299404"/>
<circle cx="12" cy="442" r="2" fill="#299404"/>
<circle cx="12" cy="171" r="2" fill="#299404"/>
</svg>
