<svg width="781" height="385" viewBox="0 0 781 385" fill="none" xmlns="http://www.w3.org/2000/svg">
<g filter="url(#filter0_d)">
<rect x="769" y="6" width="367" height="763" transform="rotate(90 769 6)" fill="white"/>
</g>
<g clip-path="url(#clip0)" filter="url(#filter1_i)">
<path d="M661.272 281.838C660.447 282.077 659.592 282.193 658.734 282.183C658.162 282.197 657.59 282.169 657.023 282.097H658.734C659.587 282.098 660.437 282.012 661.272 281.838V281.838Z" fill="#BBBDBF"/>
<path d="M342.886 137.273C342.937 137.359 352.116 131.832 352.167 131.918C352.268 132.096 343.749 142.404 343.851 142.577C344.029 142.881 362.874 131.193 363.047 131.497C363.168 131.71 352.065 143.414 352.187 143.627C352.446 144.074 370.647 132.38 370.905 132.827C371.164 133.273 344.161 153.534 344.414 153.976C344.734 154.534 390.187 126.807 390.512 127.366C390.837 127.924 352.476 154.372 352.827 154.976C353.177 155.58 394.762 129.919 395.132 130.563C395.412 131.071 365.087 153.113 365.372 153.6C365.752 154.26 404.941 129.878 405.327 130.538C405.601 131.02 375.703 152.869 375.982 153.336C376.328 153.935 415.907 129.482 416.257 130.091C416.608 130.7 379.775 156.229 380.11 156.813C380.399 157.32 416.816 134.964 417.1 135.461C417.384 135.958 386.207 158.488 386.497 158.985C386.72 159.371 417.039 140.846 417.262 141.221C417.486 141.597 396.874 158.386 397.072 158.731C397.27 159.076 423.258 143.175 423.471 143.505C423.685 143.835 398.514 163.218 398.752 163.634C398.945 163.964 428.817 145.835 429.01 146.17C429.203 146.505 406.697 164.411 406.916 164.786C407.134 165.162 426.822 152.849 427.005 153.184C427.188 153.519 409.601 168.684 409.779 168.983C409.957 169.283 421.537 161.756 421.73 162.086C421.852 162.304 410.561 174.12 410.668 174.333C410.855 174.668 434.971 159.863 435.163 160.193C435.448 160.701 404.926 182.849 405.21 183.342C405.403 183.677 429.736 168.745 429.929 169.075C430.071 169.324 416.379 182.428 416.521 182.677C416.714 183.007 437.707 169.988 437.9 170.339C438.174 170.816 408.515 192.518 408.789 193C408.982 193.33 437.651 175.896 437.844 176.251C438.037 176.607 421.42 191.193 421.578 191.482C421.735 191.772 438.92 181.027 439.113 181.362C439.306 181.697 415.607 200.253 415.836 200.659C416.064 201.065 445.282 183.205 445.495 183.54C445.759 183.986 418.105 204.607 418.364 205.059C418.557 205.394 446.795 188.214 446.977 188.544C447.216 188.955 422.157 208.18 422.395 208.591C422.588 208.926 439.56 198.243 439.748 198.578C439.936 198.913 424.01 213.144 424.182 213.423C424.355 213.702 451.8 197.04 451.993 197.37C452.186 197.7 435.509 212.357 435.676 212.647C435.844 212.936 447.861 205.16 448.069 205.495C448.277 205.83 433.513 219.407 433.666 219.671C433.818 219.935 457.766 205.328 457.974 205.648C458.182 205.967 441.149 220.823 441.322 221.122C441.494 221.422 450.298 215.499 450.491 215.829C450.683 216.159 435.839 229.791 435.991 230.04C436.143 230.288 452.775 219.889 452.968 220.244C453.161 220.6 432.762 237.308 432.96 237.653C433.158 237.998 463.371 219.661 463.558 219.996C463.746 220.331 448.028 234.45 448.191 234.714C448.353 234.978 460.02 227.436 460.213 227.771C460.406 228.106 439.032 245.377 439.24 245.738C439.448 246.098 470.996 226.959 471.189 227.299C471.458 227.766 442.586 249.042 442.855 249.514C443.048 249.844 465.107 236.222 465.3 236.556C465.493 236.891 448.109 251.94 448.282 252.239C448.455 252.539 476.743 235.369 476.936 235.699" stroke="#9BBB97" stroke-width="3.37" stroke-linecap="round" stroke-linejoin="round"/>
<path d="M350.527 220.467C350.913 221.127 398.524 191.878 398.904 192.553C399.179 193.025 370.088 214.417 370.362 214.884C370.636 215.351 398.818 197.785 399.113 198.293C399.331 198.668 376.739 216.564 376.957 216.94C377.175 217.315 411.302 196.521 411.556 196.968C411.81 197.415 380.232 220.228 380.526 220.736C380.76 221.147 413.637 201.084 413.871 201.49C414.105 201.896 390.888 220.107 391.111 220.492C391.335 220.878 408.195 210.118 408.413 210.504C408.53 210.707 398.036 222.081 398.153 222.284C398.366 222.649 416.582 211.159 416.795 211.524C416.937 211.768 403.504 224.72 403.641 224.979C403.844 225.329 416.8 216.914 417.003 217.264C417.207 217.615 400.915 232.034 401.082 232.318C401.25 232.602 429.076 215.701 429.274 216.041C429.528 216.483 402.61 236.708 402.874 237.149C403.067 237.484 435.199 218.041 435.366 218.371C435.534 218.701 410.759 237.906 410.987 238.317C411.216 238.728 431.219 226.197 431.412 226.532C431.549 226.776 418.166 239.728 418.308 239.956C418.496 240.291 442.642 225.466 442.835 225.801C443.144 226.309 409.657 250.097 409.967 250.63C410.16 250.965 441.951 231.729 442.139 232.059C442.327 232.389 420.435 249.96 420.649 250.33C420.862 250.701 443.322 236.794 443.495 237.134" stroke="#9BBB97" stroke-width="3.37" stroke-linecap="round" stroke-linejoin="round"/>
<path d="M317.243 210.124C317.365 210.332 335.804 199.125 335.926 199.339C336.23 199.871 302.997 223.497 303.302 224.025C303.733 224.771 358.843 190.979 359.274 191.726C359.828 192.685 297.448 231.988 298.002 232.947C298.555 233.907 371.494 189.178 372.078 190.193C372.759 191.365 295.788 238.52 296.468 239.693C297.149 240.865 380.369 189.65 381.075 190.863C381.78 192.076 297.834 243.063 298.56 244.342C299.352 245.712 388.177 190.787 388.969 192.157C389.761 193.527 295.214 250.219 296.062 251.655C296.463 252.34 334.347 228.644 334.743 229.324C335.139 230.004 295.621 256.933 295.981 257.558C296.275 258.065 323.833 240.809 324.122 241.317C324.462 241.9 287.63 267.46 287.97 268.043C288.229 268.485 324.325 246.468 324.579 246.91C324.924 247.503 287.518 273.372 287.868 273.961C288.102 274.372 314.908 257.811 315.141 258.228C315.375 258.644 293.097 276.321 293.311 276.692C293.524 277.062 310.76 266.11 310.978 266.49C311.196 266.871 288.843 284.619 289.056 285.01C289.269 285.401 309.871 272.52 310.059 272.885C310.247 273.251 292.468 288.487 292.625 288.796C292.783 289.106 323.086 270.738 323.3 271.089C323.559 271.54 296.047 292.085 296.301 292.532C296.504 292.877 315.309 281.107 315.507 281.447C315.705 281.787 298.073 296.968 298.245 297.272C298.418 297.577 321.492 283.401 321.69 283.741C321.888 284.081 299.418 301.952 299.636 302.327C299.855 302.703 327.843 285.579 328.036 285.934C328.28 286.355 302.718 305.85 302.962 306.271C303.15 306.601 324.087 293.633 324.285 293.963C324.533 294.4 297.849 314.503 298.098 314.939C298.291 315.269 321.183 301.17 321.376 301.505C321.492 301.703 311.166 312.991 311.283 313.178C311.476 313.513 327.447 303.403 327.64 303.738C327.833 304.073 311.76 318.391 311.902 318.67C312.044 318.949 326.518 309.778 326.716 310.123C326.914 310.468 306.978 326.927 307.17 327.262C307.363 327.597 342.709 306.296 342.891 306.646C343.074 306.997 320.553 324.918 320.756 325.283C320.959 325.648 346.638 309.879 346.846 310.245C347.054 310.61 326.61 327.323 326.808 327.668C327.006 328.014 344.47 316.975 344.683 317.355C344.826 317.599 331.326 330.597 331.484 330.84C331.717 331.236 346.354 321.73 346.582 322.126C346.75 322.41 330.448 336.921 330.61 337.205C330.859 337.636 356.579 321.644 356.827 322.075C357.076 322.507 328.869 343.463 329.133 343.899C329.397 344.336 364.306 322.969 364.559 323.451C364.813 323.933 335.895 345.229 336.17 345.701C336.505 346.28 385.573 316.406 385.923 316.99C386.324 317.685 341.754 347.442 342.135 348.122C342.957 349.543 443.099 287.954 443.916 289.375C444.672 290.684 358.401 342.844 359.132 344.158C359.863 345.473 445.109 292.857 445.845 294.146C446.581 295.435 362.884 346.193 363.6 347.437C364.229 348.533 439.601 302.114 440.23 303.205C440.86 304.296 372.175 346.965 372.794 348.015C373.302 348.868 430.163 313.767 430.67 314.62C430.98 315.163 397.092 339.139 397.407 339.682C397.722 340.225 421.161 325.329 421.441 325.811" stroke="#9BBB97" stroke-width="3.37" stroke-linecap="round" stroke-linejoin="round"/>
<path d="M360.919 259.562C360.97 259.648 371.692 253.233 371.738 253.32C371.896 253.589 356.802 267.444 356.954 267.713C357.107 267.982 379.668 254.198 379.846 254.517C380.024 254.837 362.935 269.743 363.092 270.038C363.351 270.484 385.43 256.563 385.664 257.009C385.898 257.456 359.726 277.27 359.975 277.696C360.295 278.26 397.96 255.025 398.285 255.583C398.554 256.055 369.687 277.331 369.956 277.798C370.327 278.437 403.631 257.497 404.002 258.146C404.276 258.618 375.19 280.006 375.465 280.478C375.85 281.143 410.81 259.187 411.196 259.857C411.434 260.263 386.629 279.351 386.862 279.762C387.37 280.665 445.353 244.798 445.876 245.701C446.399 246.605 388.253 283.614 388.771 284.502C389.218 285.274 448.343 249.092 448.785 249.863C449.226 250.635 400.235 282.741 400.676 283.487C401.057 284.152 449.587 254.37 449.973 255.035C450.287 255.583 415.734 279.904 416.054 280.473C416.592 281.401 478.576 243.144 479.114 244.072C479.652 245.001 420.684 282.472 421.207 283.371C421.73 284.269 471.326 253.254 471.844 254.147C472.362 255.04 418.374 289.755 418.852 290.593C419.42 291.572 473.174 257.938 473.732 258.918C474.291 259.897 407.825 301.459 408.413 302.479C409.099 303.667 493.928 251.538 494.614 252.741" stroke="#9BBB97" stroke-width="3.37" stroke-linecap="round" stroke-linejoin="round"/>
<path d="M641.757 223.198C642.102 223.796 687.149 196.197 687.494 196.806C687.687 197.136 668.172 213.382 668.36 213.712C668.644 214.219 699.328 195.192 699.608 195.679C699.887 196.166 671.898 216.924 672.162 217.376C672.426 217.828 694.835 203.713 695.089 204.145C695.247 204.419 679.909 218.406 680.067 218.675C680.295 219.076 704.883 203.82 705.116 204.221C705.35 204.622 676.909 225.745 677.193 226.207C677.407 226.583 715.27 203.724 715.483 204.104C715.696 204.485 691.622 223.208 691.845 223.609C692.069 224.01 720.377 206.657 720.585 207.017C720.793 207.378 697.739 225.542 697.988 225.923C698.237 226.304 724.276 210.281 724.479 210.631C724.774 211.139 692.779 234.104 693.074 234.617C693.272 234.962 725.855 215.245 726.073 215.585C726.322 216.016 700.039 235.886 700.288 236.327C700.481 236.662 717.549 225.928 717.722 226.263C717.829 226.446 708.741 237.068 708.843 237.251C709.035 237.581 725.743 227.05 725.936 227.385C726.129 227.72 702.075 246.478 702.324 246.874C702.573 247.27 724.297 233.749 724.484 234.084C724.672 234.419 703.568 251.543 703.771 251.899C703.974 252.254 727.338 237.809 727.556 238.139C727.774 238.469 709.421 254.045 709.604 254.38C709.787 254.715 734.714 239.439 734.907 239.779C735.1 240.119 712.701 257.959 712.919 258.329C713.138 258.7 735.192 245.016 735.39 245.362C735.547 245.631 720.205 259.623 720.362 259.892C720.565 260.248 738.603 248.894 738.806 249.234C739.009 249.574 713.523 269.129 713.762 269.535C714.001 269.941 737.024 255.624 737.232 255.984C737.507 256.456 708.294 277.91 708.584 278.382C708.807 278.762 743.944 257.466 744.162 257.847C744.381 258.228 717.326 278.61 717.58 279.052C717.834 279.493 737.029 267.282 737.268 267.688C737.583 268.236 703.106 292.557 703.425 293.065C703.679 293.506 738.964 271.972 739.212 272.413C739.461 272.855 711.797 293.496 712.056 293.943C712.315 294.389 734.054 280.579 734.344 281.082C734.76 281.792 689.033 312.143 689.444 312.858C689.855 313.574 741.314 282.056 741.685 282.706" stroke="#9BBB97" stroke-width="3.37" stroke-linecap="round" stroke-linejoin="round"/>
<path d="M613.687 281.706C614.133 282.472 670.487 247.904 670.928 248.671C671.37 249.437 619.921 282.904 620.383 283.691C620.759 284.34 673.274 252.295 673.65 252.944C674.025 253.594 629.171 283.538 629.577 284.244C629.887 284.777 675.041 257.289 675.35 257.852C675.66 258.415 646.676 279.635 646.95 280.102C647.224 280.569 670.04 266.221 670.304 266.637C670.568 267.054 648.473 284.599 648.697 284.97C648.849 285.233 671.507 271.454 671.659 271.713" stroke="#9BBB97" stroke-width="3.37" stroke-linecap="round" stroke-linejoin="round"/>
<path d="M617.845 238.404C618.038 238.734 646.534 221.401 646.727 221.731C646.92 222.061 629.836 236.957 630.009 237.241C630.182 237.526 643.392 229.075 643.584 229.405C643.681 229.578 635.599 239.652 635.695 239.82C635.888 240.155 654.292 228.654 654.479 228.974C654.667 229.293 636.842 244.606 637.02 244.915C637.198 245.225 652.19 235.714 652.383 236.049C652.576 236.384 631.339 253.579 631.568 253.934C631.796 254.289 651.296 242.104 651.489 242.439" stroke="#9BBB97" stroke-width="3.37" stroke-linecap="round" stroke-linejoin="round"/>
<path d="M446.394 281.93C446.779 282.6 482.749 260.06 483.135 260.725C483.45 261.268 449.501 285.28 449.815 285.818C450.201 286.488 496.269 258.122 496.655 258.786C496.929 259.269 467.138 281.042 467.417 281.519C467.798 282.189 509.26 256.482 509.646 257.157C509.9 257.599 482.683 277.966 482.937 278.433C483.323 279.098 517.46 257.624 517.861 258.274C518.165 258.781 485.369 282.184 485.689 282.707C486.074 283.371 534.508 253.64 534.894 254.285C535.279 254.929 497.832 280.747 498.173 281.341C498.513 281.935 542.367 254.95 542.753 255.609C543.052 256.117 510.327 279.463 510.626 280.012C511.012 280.676 556.318 252.757 556.699 253.422C557.003 253.929 524.049 277.423 524.354 277.951C524.74 278.616 553.871 260.025 554.257 260.695C554.5 261.121 528.563 280.819 528.806 281.245C529.192 281.91 567.675 257.898 568.061 258.589C568.289 258.979 544.672 277.428 544.895 277.819C545.281 278.484 580.53 256.366 580.941 257.01C581.261 257.563 546.586 281.966 546.926 282.514C547.54 283.585 615.326 241.606 615.971 242.677C616.616 243.748 550.749 284.838 551.333 285.848C551.84 286.696 615.535 247.656 616.022 248.509C616.509 249.362 560.298 285.376 560.801 286.244C561.182 286.909 609.996 256.959 610.382 257.624C610.707 258.193 575.179 283.052 575.504 283.615C575.889 284.28 617.032 258.746 617.418 259.426C617.713 259.934 585.804 282.849 586.099 283.361C586.505 284.057 632.623 255.579 633.024 256.274C633.481 257.061 582.86 290.045 583.312 290.832C583.946 291.928 655.099 247.93 655.733 249.032C656.368 250.133 583.317 295.217 583.962 296.319C584.606 297.42 666.44 247.225 667.085 248.341C667.73 249.458 595.161 294.233 595.801 295.344C595.999 295.679 608.732 287.432 608.925 287.767C609.117 288.102 586.896 305.85 587.094 306.221C587.292 306.591 622.124 285.574 622.292 285.919C622.597 286.427 589.683 309.9 589.988 310.428C590.181 310.758 609.981 298.445 610.173 298.755C610.366 299.064 593.009 314.123 593.181 314.422C593.354 314.722 619.748 298.643 619.941 298.978C620.134 299.313 604.142 313.585 604.305 313.864C604.467 314.143 624.439 301.795 624.612 302.13C624.851 302.541 599.913 321.7 600.147 322.111C600.38 322.523 622.109 308.982 622.307 309.322C622.444 309.565 609.199 322.426 609.341 322.665C609.544 323.015 626.095 312.514 626.293 312.884C626.491 313.255 605.594 330.217 605.797 330.572C606 330.927 629.801 316.239 630.009 316.6C630.217 316.96 611.031 332.973 611.224 333.303C611.417 333.632 635.436 318.823 635.654 319.203C635.817 319.482 619.754 333.861 619.916 334.145C620.144 334.546 650.108 316.183 650.337 316.584C650.565 316.985 626.298 335.784 626.526 336.185C626.755 336.586 656.987 318.016 657.261 318.447C657.536 318.878 630.892 338.946 631.146 339.383C631.4 339.819 659.536 322.35 659.815 322.837C660.038 323.218 636.873 341.423 637.096 341.809C637.441 342.403 678.93 316.874 679.275 317.447C679.569 317.955 647.565 340.921 647.864 341.433C648.676 342.849 741.532 285.488 742.35 286.899C743.167 288.31 653.545 342.22 654.327 343.565C655.058 344.829 739.684 292.608 740.416 293.877C741.091 295.04 664.816 341.819 665.491 342.981C666.11 344.062 730.044 304.282 730.668 305.363C731.176 306.281 671.467 344.169 672 345.087C672.507 345.925 725.124 313.306 725.611 314.128C726.038 314.864 678.742 346.057 679.168 346.793C679.427 347.244 718.565 323.446 718.824 323.903" stroke="#9BBB97" stroke-width="3.37" stroke-linecap="round" stroke-linejoin="round"/>
<path d="M551.85 64.7406C552.241 65.4156 604.142 33.6491 604.548 34.3241C604.883 34.9027 568.249 60.3605 568.584 60.9391C568.975 61.6192 611.976 34.994 612.367 35.669C612.707 36.2629 575.366 62.0963 575.707 62.6901C576.097 63.3651 619.515 36.5065 619.875 37.1815C620.221 37.7753 582.662 63.7306 583.007 64.3244C583.352 64.9182 624.409 39.6481 624.749 40.2318C624.978 40.6276 600.989 59.2744 601.218 59.6703C601.446 60.0662 627.029 44.1956 627.277 44.6321C627.526 45.0686 605.112 62.7866 605.325 63.1621C605.538 63.5377 628.872 49.0679 629.09 49.4587C629.308 49.8495 607.929 67.0498 608.138 67.4102C608.346 67.7705 624.272 57.5945 624.485 57.9751C624.627 58.2137 611.285 71.1253 611.427 71.3689C611.646 71.7394 623.185 64.0858 623.399 64.4614C623.546 64.7101 609.585 77.9567 609.732 78.2105C609.93 78.5556 632.166 64.8065 632.364 65.1466C632.623 65.5983 604.767 86.331 605.026 86.7878C605.193 87.072 624.384 75.2313 624.551 75.5206C624.597 75.5967 624.109 81.5247 624.155 81.611C624.201 81.6973 625.759 80.4893 625.841 80.6365" stroke="#9BBB97" stroke-width="3.37" stroke-linecap="round" stroke-linejoin="round"/>
<path d="M515.434 35.7198C515.434 35.7198 516.089 35.329 516.099 35.3341C516.15 35.4254 522.511 37.3642 522.562 37.4657C522.613 37.5672 526.029 35.2935 526.116 35.4356C526.202 35.5777 526.024 41.2469 526.07 41.323C526.212 41.5717 542.707 31.3906 542.849 31.6392C543.098 32.0656 516.957 51.8594 517.226 52.2857C517.495 52.712 541.412 37.8413 541.626 38.2067C541.768 38.4554 527.979 51.6056 528.126 51.8594C528.405 52.3415 564.197 30.3958 564.477 30.8779C564.817 31.4616 527.867 57.087 528.202 57.6706C528.537 58.2543 565.081 35.5879 565.426 36.1868C565.731 36.6943 533.173 59.9698 533.477 60.4925C533.888 61.2081 576.686 34.6083 577.103 35.3087C577.463 35.9381 537.64 63.1063 538.011 63.7306C538.519 64.568 582.078 37.1815 582.56 38.0189C582.967 38.7193 538.026 68.6435 538.432 69.349C538.98 70.3031 591.323 37.552 591.871 38.5062C592.42 39.4603 531.812 77.7842 532.35 78.718C532.543 79.053 563.547 60.2692 563.74 60.6042C563.994 61.0407 536.96 81.3318 537.214 81.7734C537.407 82.1033 560.283 68.0142 560.476 68.3441C560.669 68.674 545.245 82.6261 545.418 82.9001C545.591 83.1742 569.904 68.3238 570.097 68.6537C570.29 68.9836 548.774 86.3463 548.972 86.7066C549.17 87.067 567.924 75.3226 568.117 75.6576C568.36 76.0789 542.656 95.6494 542.9 96.0706C543.093 96.4056 575.9 76.5661 576.118 76.9011C576.336 77.2361 554.973 94.4871 555.181 94.8424C555.389 95.1977 566.421 87.9146 566.614 88.2444C566.807 88.5743 545.591 105.765 545.799 106.12C546.007 106.475 566.944 93.472 567.122 93.807C567.299 94.142 549.911 109.201 550.089 109.5C550.266 109.799 575.189 94.5683 575.382 94.8982C575.519 95.1418 562.38 107.942 562.522 108.185C562.715 108.515 573.747 101.258 573.94 101.588C574.133 101.917 559.664 115.342 559.816 115.6C560.009 115.935 579.337 103.892 579.53 104.222C579.646 104.425 569.142 115.804 569.259 116.012C569.452 116.341 580.489 109.084 580.682 109.414C580.875 109.744 565.451 123.706 565.599 123.98C565.746 124.254 584.205 112.814 584.383 113.129C584.561 113.443 563.72 130.451 563.923 130.801C564.126 131.151 585.84 117.707 586.033 118.042C586.226 118.377 564.68 135.739 564.888 136.105C565.096 136.47 584.637 124.259 584.83 124.594C584.972 124.838 571.503 137.82 571.63 138.064C571.823 138.399 597.522 122.67 597.725 123.005C597.994 123.472 569.163 144.728 569.432 145.195C569.619 145.525 593.191 131.035 593.384 131.37C593.511 131.588 581.905 143.55 582.032 143.784C582.225 144.114 604.604 130.309 604.797 130.644C605.046 131.075 578.397 151.148 578.666 151.585C578.859 151.915 603.122 137.023 603.315 137.374C603.508 137.724 579.357 156.528 579.585 156.929C579.814 157.33 600.599 144.357 600.791 144.692C600.923 144.921 588.363 157.416 588.5 157.645C588.688 157.98 600.918 150.032 601.111 150.367C601.248 150.6 588.353 163.273 588.49 163.512C588.683 163.842 613.809 148.453 614.001 148.793C614.26 149.24 586.698 169.81 586.957 170.262C587.15 170.592 609.585 156.756 609.803 157.091C610.021 157.426 592.064 172.779 592.242 173.089C592.42 173.398 617.459 158.086 617.626 158.421C617.906 158.903 587.886 180.803 588.18 181.26C588.368 181.595 617.083 164.136 617.276 164.466C617.525 164.897 591.176 184.818 591.425 185.249C591.618 185.579 619.525 168.587 619.718 168.917C619.911 169.247 603.249 183.899 603.416 184.189C603.584 184.478 623.434 172.19 623.622 172.515C623.81 172.84 604.421 189.015 604.609 189.345C604.797 189.675 630.425 174.007 630.618 174.337C630.872 174.774 603.975 194.989 604.218 195.43C604.406 195.76 629.77 180.24 629.958 180.57C630.146 180.9 610.793 197.055 610.981 197.384C611.169 197.714 620.982 191.172 621.17 191.502C621.297 191.72 609.762 203.683 609.889 203.876C610.077 204.211 624.46 195.024 624.653 195.354C624.846 195.684 607.122 210.925 607.3 211.23C607.478 211.534 626.354 199.79 626.546 200.125C626.739 200.46 603.452 218.797 603.701 219.188C604.097 219.878 644.585 194.664 644.981 195.359C645.377 196.055 597.979 227.359 598.405 228.1C598.974 229.08 666.009 187.777 666.573 188.756C667.258 189.939 589.617 237.48 590.303 238.637C590.988 239.794 665.826 193.466 666.512 194.654C667.248 195.928 583.251 246.854 584.012 248.128C584.774 249.402 680.91 190.406 681.691 191.751C682.514 193.182 588.054 249.752 588.881 251.183C589.709 252.614 686.976 192.588 687.829 194.07" stroke="#9BBB97" stroke-width="3.37" stroke-linecap="round" stroke-linejoin="round"/>
</g>
<defs>
<filter id="filter0_d" x="0" y="0" width="781" height="385" filterUnits="userSpaceOnUse" color-interpolation-filters="sRGB">
<feFlood flood-opacity="0" result="BackgroundImageFix"/>
<feColorMatrix in="SourceAlpha" type="matrix" values="0 0 0 0 0 0 0 0 0 0 0 0 0 0 0 0 0 0 127 0"/>
<feOffset dx="3" dy="3"/>
<feGaussianBlur stdDeviation="4.5"/>
<feColorMatrix type="matrix" values="0 0 0 0 0 0 0 0 0 0 0 0 0 0 0 0 0 0 0.25 0"/>
<feBlend mode="normal" in2="BackgroundImageFix" result="effect1_dropShadow"/>
<feBlend mode="normal" in="SourceGraphic" in2="effect1_dropShadow" result="shape"/>
</filter>
<filter id="filter1_i" x="287" y="30" width="458" height="323" filterUnits="userSpaceOnUse" color-interpolation-filters="sRGB">
<feFlood flood-opacity="0" result="BackgroundImageFix"/>
<feBlend mode="normal" in="SourceGraphic" in2="BackgroundImageFix" result="shape"/>
<feColorMatrix in="SourceAlpha" type="matrix" values="0 0 0 0 0 0 0 0 0 0 0 0 0 0 0 0 0 0 127 0" result="hardAlpha"/>
<feOffset dy="4"/>
<feGaussianBlur stdDeviation="2"/>
<feComposite in2="hardAlpha" operator="arithmetic" k2="-1" k3="1"/>
<feColorMatrix type="matrix" values="0 0 0 0 0 0 0 0 0 0 0 0 0 0 0 0 0 0 0.25 0"/>
<feBlend mode="normal" in2="shape" result="effect1_innerShadow"/>
</filter>
<clipPath id="clip0">
<rect width="458" height="319" fill="white" transform="translate(287 30)"/>
</clipPath>
</defs>
</svg>
