<svg width="20" height="447" viewBox="0 0 20 447" fill="none" xmlns="http://www.w3.org/2000/svg">
<circle cx="10" cy="10" r="10" fill="#299404"/>
<circle cx="10" cy="100" r="10" fill="#299404"/>
<circle cx="10" cy="274" r="10" fill="#299404"/>
<circle cx="10" cy="355" r="10" fill="#299404"/>
<circle cx="10" cy="437" r="10" fill="#299404"/>
<circle cx="10" cy="187" r="10" fill="#299404"/>
<circle cx="10" cy="79" r="2" fill="#299404"/>
<circle cx="10" cy="255" r="2" fill="#299404"/>
<circle cx="10" cy="340" r="2" fill="#299404"/>
<circle cx="10" cy="421" r="2" fill="#299404"/>
<circle cx="10" cy="168" r="2" fill="#299404"/>
<circle cx="10" cy="29" r="2" fill="#299404"/>
<circle cx="10" cy="205" r="2" fill="#299404"/>
<circle cx="10" cy="290" r="2" fill="#299404"/>
<circle cx="10" cy="371" r="2" fill="#299404"/>
<circle cx="10" cy="118" r="2" fill="#299404"/>
<circle cx="10" cy="39" r="2" fill="#299404"/>
<circle cx="10" cy="215" r="2" fill="#299404"/>
<circle cx="10" cy="300" r="2" fill="#299404"/>
<circle cx="10" cy="381" r="2" fill="#299404"/>
<circle cx="10" cy="128" r="2" fill="#299404"/>
<circle cx="10" cy="49" r="2" fill="#299404"/>
<circle cx="10" cy="225" r="2" fill="#299404"/>
<circle cx="10" cy="310" r="2" fill="#299404"/>
<circle cx="10" cy="391" r="2" fill="#299404"/>
<circle cx="10" cy="138" r="2" fill="#299404"/>
<circle cx="10" cy="59" r="2" fill="#299404"/>
<circle cx="10" cy="235" r="2" fill="#299404"/>
<circle cx="10" cy="320" r="2" fill="#299404"/>
<circle cx="10" cy="401" r="2" fill="#299404"/>
<circle cx="10" cy="148" r="2" fill="#299404"/>
<circle cx="10" cy="69" r="2" fill="#299404"/>
<circle cx="10" cy="245" r="2" fill="#299404"/>
<circle cx="10" cy="330" r="2" fill="#299404"/>
<circle cx="10" cy="411" r="2" fill="#299404"/>
<circle cx="10" cy="158" r="2" fill="#299404"/>
</svg>
