<svg width="36" height="26" viewBox="0 0 36 26" fill="none" xmlns="http://www.w3.org/2000/svg">
<path d="M3.85714 0C1.75714 0 0 1.77667 0 3.9V22.1C0 24.2233 1.75714 26 3.85714 26H32.1429C34.2429 26 36 24.2233 36 22.1V3.9C36 1.77667 34.2429 0 32.1429 0C32.1429 0 3.85714 0 3.85714 0ZM4.07143 2.6H31.9286L18.8571 14.7767C18.2571 15.34 17.7 15.34 17.1 14.7767L4.07143 2.6ZM2.57143 4.72332L15.3429 16.6833C16.8 18.07 19.1571 18.07 20.6143 16.6833L33.4286 4.72332V22.1C33.4286 22.8367 32.8714 23.4 32.1429 23.4H3.85714C3.12857 23.4 2.57143 22.8367 2.57143 22.1V4.72332Z" fill="#299404"/>
</svg>
