<svg width="36" height="37" viewBox="0 0 36 37" fill="none" xmlns="http://www.w3.org/2000/svg">
<path fill-rule="evenodd" clip-rule="evenodd" d="M10.522 2.56126C10.1633 1.4241 9.80455 0.514369 8.60888 0.400653L6.33709 0.286936C3.94574 0.17322 0 3.58471 0 9.27053C0.119568 19.1639 15.6634 35.3116 25.9462 36.2213C32.0442 36.7899 35.8703 33.3784 35.9899 30.9903V28.9435C36.1095 27.8063 35.1529 27.3514 33.9572 26.8966C31.6854 26.1005 29.4137 25.0771 27.1419 24.2811C26.1853 23.9399 25.3484 24.5085 24.7505 24.8497C23.9135 25.532 23.3157 25.9868 22.5983 26.7828C22.0005 27.2377 21.4026 27.4651 20.8048 26.8966C15.6634 24.3948 11.4785 20.0736 9.32628 15.0701C8.84801 14.3878 9.08715 13.8192 9.68499 13.3643C10.522 12.682 11.1198 12.1134 11.8372 11.4311C12.3155 10.9763 12.9133 10.1803 12.6742 9.27053C11.9568 7.10992 11.2394 4.72187 10.522 2.56126Z" fill="#299404"/>
</svg>
