<svg width="1439" height="954" fill="none" xmlns="http://www.w3.org/2000/svg"><path fill="url(#paint0_radial)" d="M0 0h1441v954H0z"/><g clip-path="url(#clip0)"><path d="M757.387 517.723a72.747 72.747 0 01-1.61 19.948c-1.243 5.655-2.442 11.465-5.141 16.683-2.973 5.793-5.14 11.996-8.961 17.352-5.543 7.712-11.249 15.252-18.274 21.653a128.48 128.48 0 01-22.353 15.938c-6.22 3.599-12.902 5.998-19.448 8.817a1089.28 1089.28 0 01-14.564 6.084c-1.594.643-3.324.968-4.909 1.628-1.037.437-2.699.257-2.57 2.296.051.686-1.191.994-1.663.634-2.895-2.245-5.585-.051-8.267.386-6.7 1.105-13.434 2.168-20.193 1.628-9.424-.762-18.849-1.448-28.076-3.804a155.037 155.037 0 01-16.783-5.613 138.25 138.25 0 01-16.647-7.875 71.693 71.693 0 01-17.503-13.53c-2.767-2.887-5.868-5.407-8.567-8.397-3.041-3.427-5.003-7.403-7.505-11.088a99.911 99.911 0 01-5.74-10.085 76.087 76.087 0 01-6.083-16.281c-1.294-5.081-3.196-10.017-4.549-15.09-1.08-4.035-2.348-8.02-3.067-12.159-.54-3.076-1.714-5.998-2.091-9.142-.694-5.836-2.167-11.542-2.57-17.463-.3-4.722-.231-9.426-.411-14.13-.257-6.427 1.713-12.468 3.427-18.492a77.761 77.761 0 016.854-17.326 107.917 107.917 0 019.612-14.138c3.427-4.199 7.334-7.952 10.435-12.331 2.193-3.101 5.252-5.141 7.814-7.711 2.844-2.879 5.791-5.647 8.918-8.252 2.802-2.331 5.389-4.893 8.568-6.709 4.052-2.314 8.404-3.951 12.679-5.759a79.001 79.001 0 0115.267-4.55c5.818-1.173 11.566-2.656 17.538-3.127 4.926-.394 9.904-1.08 14.77-.788 7.111.437 14.256.342 21.316 2.227 9.115 2.451 18.257 4.67 26.944 8.458 6.074 2.639 12.474 4.635 18.24 7.814 4.806 2.64 9.741 5.065 14.564 7.712 5.998 3.291 10.753 8.012 15.782 12.391 3.975 3.427 7.128 7.84 10.049 12.296 4.567 6.983 9.287 13.89 12.586 21.584 2.159 5.03 3.889 10.283 5.611 15.424 1.242 3.736 2.288 7.541 3.196 11.371a110.35 110.35 0 012.527 15.938c.403 5.201 1.131 10.351.848 15.578zM213.788 594.55c1.045-5.716 11.137-20.171 14.367-24.044 4.738-5.587 10.658-9.777 16.612-13.779a106.927 106.927 0 0117.195-9.108c4.549-1.98 9.167-3.479 13.845-4.996 2.073-.668 4.044.137 6.074-.283 6.606-1.353 13.331-.754 19.928-.359a72.36 72.36 0 0119.216 4.138c3.821 1.328 7.514 2.862 11.198 4.456 4.661 2.022 8.567 5.27 12.74 8.055a64.27 64.27 0 0112.414 11.396c.342.394.668 1.071 1.439.557 1.988-1.328 4.284-2.022 6.417-3.128 2.373-1.234 4.558-4.044 8.139-2.082.925.514 3.007-.951 4.506-1.619a90.821 90.821 0 0121.213-6.136 109.246 109.246 0 0127.347-1.413 56.102 56.102 0 0124.52 7.711c5.835 3.488 11.386 7.284 15.85 12.425 3.367 3.873 6.348 7.986 6.528 13.547.112 3.222-1.927 5.064-3.667 7.044a68.406 68.406 0 01-22.806 16.615c-4.429 2.056-8.919 4.087-13.288 6.255-3.958 1.971-8.045 3.761-11.892 5.998-5.286 3.05-10.983 5.184-16.526 7.669-9.373 4.19-19.062 7.618-28.272 12.15a3.847 3.847 0 00-2.219 2.494c-3.067 11.294-9.056 21.062-15.576 30.642a198.677 198.677 0 01-14.659 18.534 37.095 37.095 0 01-5.388 4.901c-2.836 2.194-4.695 5.364-7.762 7.352a86.88 86.88 0 01-22.207 10.454c-11.001 3.316-22.37 3.316-33.636 2.691a56.545 56.545 0 01-22.789-6.667c-6.854-3.547-13.356-7.42-19.028-12.801a84.063 84.063 0 01-8.799-9.529 4.74 4.74 0 00-4.857-1.877c-6.854 1.003-13.708 2.271-20.665 2.94-4.969.479-9.887 1.336-14.881 1.765-5.884.433-11.788.534-17.683.3-7.942-.232-16.03-.489-23.355-4.062-6.357-3.11-10.872-8.003-12.234-15.261-1.234-6.538 0-12.853 1.653-19.16 1.345-5.141 4.567-9.031 7.531-13.187a55.54 55.54 0 017.351-8.234 89.166 89.166 0 0110.401-8.569c3.641-2.519 6.853-5.69 10.229-8.569a59.507 59.507 0 0116.107-9.725 49.876 49.876 0 007.085-3.959c3.915-2.374 8.165-3.805 12.414-5.261a34.711 34.711 0 004.01-1.826 3.254 3.254 0 013.221-.102c1.336-.609 2.21-.857 2.227-1.311l.412-3.042z" fill="#3A4453"/><path d="M211.449 602.048c-.617-.077-1.714.12-2.091-.24-.548-.574-.668.043-.908.214-1.996 1.371-4.284 1.911-6.58 2.571a36.368 36.368 0 00-9.938 4.807c-3.804 2.527-8.07 4.104-12.088 6.161-4.164 2.133-7.625 5.184-11.275 8.003-4.344 3.342-8.285 7.189-12.851 10.282a52.437 52.437 0 00-8.456 7.601c-4.207 4.395-8.062 9.168-10.632 14.704a40.06 40.06 0 00-3.093 11.867 25.507 25.507 0 00.291 9.64c1.808 7.129 6.477 11.397 13.237 13.71 4.909 1.714 9.972 2.177 15.121 2.639 5.374.447 10.771.556 16.158.326 5.4-.224 10.779-.817 16.098-1.774 4.07-.711 8.225-1.097 12.329-1.714 4.523-.642 9.073-1.122 14.033-1.713-2.57-3.428-4.943-6.598-6.52-10.283-.299-.694-.856-1.225-2.159-.925-6.357 1.422-12.748 2.767-19.19 3.667a55.2 55.2 0 01-23.749-1.585c-4.198-1.26-8.191-2.571-11.738-5.21-3.863-2.836-5.551-6.769-6.04-11.345a19.98 19.98 0 016.854-17.908c2.194-1.98 4.01-4.379 6.083-6.513a80.745 80.745 0 0113.588-10.899 77.767 77.767 0 0010.281-7.712c4.943-4.584 10.743-8.003 17.829-8.414 1.97-.12 4.497-5.03 5.029-7.764l.377-2.193z" fill="#D9A672"/><path d="M371.453 364.085c.762 6.684-.377 13.65-2.099 20.428-1.011 3.967-1.405 8.354-4.327 11.705a1.442 1.442 0 00-.428.857c.171 5.218-4.361 7.78-6.443 11.696-2.082 3.916-5.14 6.804-7.873 10.008a41.786 41.786 0 01-11.669 9.246 137.984 137.984 0 01-17.135 8.406c-6.956 2.665-14.016 5.03-21.084 7.395a128.374 128.374 0 01-19.345 4.833 60.213 60.213 0 01-18.72-.215 94.222 94.222 0 01-16.535-3.77c-3.675-1.242-7.402-2.245-10.932-4.284-3.53-2.04-7.145-4.01-10.82-5.827a45.086 45.086 0 01-9.313-6.701 162.691 162.691 0 01-17.666-17.566c-5.432-6.426-9.253-13.83-12.466-21.473-1.585-3.787-3.649-7.36-4.806-11.371-1.713-5.921-3.572-11.756-4.541-17.883-1.242-7.874-1.122-15.783-.856-23.675.154-4.833 1.276-9.623 2.373-14.387 1.653-7.129 3.17-14.301 6.254-20.959 1.713-3.702 3.29-7.472 5.38-11.037 2.202-3.753 4.104-7.712 6.709-11.19a33.13 33.13 0 019.218-8.569c4.138-2.528 8.225-5.141 12.328-7.712 3.282-2.048 7.3-2.888 10.924-4.404 3.196-1.346 6.7-.857 9.929-1.963a3.429 3.429 0 014.096 1.646c.719 1.628 1.55 1.011 2.253.608a30.509 30.509 0 018.79-2.991c2.819-.616 5.654-.496 8.439-.736 4.926-.429 9.895-1.08 14.873-.643 7.222.634 14.564.857 21.615 2.202a49.69 49.69 0 0114.402 4.884c4.395 2.365 9.321 3.522 13.511 6.435 3.058 2.125 6.057 4.285 8.97 6.624 5.14 4.079 8.507 9.708 12.585 14.713a61.892 61.892 0 018.285 13.855c2.15 4.756 4.515 9.426 5.672 14.661a45.792 45.792 0 002.767 7.352 120.72 120.72 0 014.84 15.972 119.813 119.813 0 012.768 13.788c.42 3.161.077 6.418.077 10.042zm157.468 367.942c-5.14.248-9.827-1.448-14.564-3.248a22.2 22.2 0 00-17.898.677c-6.117 2.931-12.362 5.767-19.225 5.535-11.034-.368-19.311-7.386-20.733-18.705-1.328-10.48 5.021-19.391 15.422-22.519 7.376-2.202 12.242-7.557 16.226-13.898 1.499-2.382 2.528-5.142 5.141-6.795a5.813 5.813 0 012.484-.969c7.317-.582 14.685-1.131 21.975-.437a28.37 28.37 0 0115.293 6.341c3.427 2.777 7.505 4.765 11.206 7.232a22.353 22.353 0 016.536 6.427 22.36 22.36 0 013.411 8.509c.609 3.106.939 6.26.985 9.425a9.527 9.527 0 01-2.107 6.701 71.232 71.232 0 01-17.726 14.91c-2.031 1.208-4.258.788-6.426.814zM935.897 404.94c0 5.433 0 10.086-1.859 14.516a20.257 20.257 0 01-9.87 10.411c-1.43.719-2.244 1.928-3.512 2.707-6.974 4.285-14.376 5.142-22.532 4.79-8.499-.36-14.976-4.687-21.419-8.74a36.847 36.847 0 01-16.278-21.619 51.766 51.766 0 01-2.167-19.982c.856-8.02 4.566-14.858 11.463-19.554 4.146-2.828 8.781-4.678 13.365-6.649 7.71-3.308 15.421-2.194 23.286-.857 6.177 1.045 10.469 4.953 15.061 8.569 1.243.976 2.408 2.048 3.607 3.084 5.081 4.388 7.24 10.394 8.705 16.589 1.353 5.699 2.638 11.508 2.15 16.735zm-783.212 15.912c6.271-.625 11.266 3.094 16.141 7.027 1.713 1.354 3.264 2.87 4.875 4.336 5.757 5.235 6.365 11.842 4.995 18.962-.857 4.242-2.237 8.415-5.004 11.654-2.887 3.427-6.134 6.392-10.709 8.037a22.865 22.865 0 01-16.475-.266c-4.549-1.713-9.424-3.187-13.134-6.563-3.907-3.531-4.815-8.458-5.894-13.316-1.816-8.14 1.713-14.216 7.265-19.597.24-.231.651-.531.625-.745-.539-4.285 2.776-5.039 5.561-6.761 3.564-2.194 7.239-2.836 11.754-2.768zm256.85 10.189c-4.387.18-7.882-2.082-11.815-1.594a1.11 1.11 0 01-.934-.325 1.11 1.11 0 01-.299-.943 1.157 1.157 0 011.302-1.225c2.57.094 5.235-.334 7.805.257.677.154 1.328.42 1.91 0 1.208-.789 3.153.488 3.761-.789a17.904 17.904 0 001.406-5.998c.162-1.825.856-3.581.599-5.466a1.116 1.116 0 011.208-1.294c.797 0 1.148.462 1.311 1.242a60.67 60.67 0 011.422 7.001c.094 1.242 1.482 1.662 1.251 3.042-.111.634.711.154 1.131 0 2.082-.926 4.172-1.825 6.246-2.759 1.088-.497 2.433-.917 3.041.222.608 1.14.206 2.228-1.251 2.991-2.039 1.054-3.804 2.613-5.791 3.779-1.448.856-1.508 1.842-.857 3.119a39.67 39.67 0 002.998 5.389 4.654 4.654 0 01.857 3.496c-.068.652.548 1.646-.54 1.928-1.088.283-2.279.172-2.621-.925-.746-2.382-2.973-3.539-4.19-5.544-1.439-2.356-2.964-2.348-4.497-.111-1.32 1.936-2.845 3.676-4.327 5.475-.685.857-1.088 2.142-2.416 1.491-1.328-.651-.805-1.997-.625-2.99a26.734 26.734 0 013.915-9.469zm68.367-69.21c-1.499.205-1.987-.412-2.193-1.954-.36-2.682-.445-5.407-1.431-8.012-1.584-4.207-4.129-5.647-8.567-4.601a48.844 48.844 0 01-5.14.857c-.926.12-1.945.12-2.099-1.191-.129-1.08.377-1.466 1.439-1.928a39.405 39.405 0 007.711-4.799c3.152-2.348 3.598-5.998 4.532-9.425.522-1.894.265-3.848.651-5.699.18-.856 0-2.476 1.713-2.373 1.268.077 1.517 1.268 1.714 2.185.719 3.727 3.016 7.018 3.195 10.839.146 3.248 2.451 3.916 4.747 4.122 1.97.171 4.172.857 6.074-.728.411-.343 1.311-.223 1.971-.155.659.069 1.842-.565 1.85.934 0 .951 0 1.714-1.216 2.134-3.736 1.345-7.069 3.522-10.47 5.535a4.287 4.287 0 00-2.056 3.205c-.574 3.196-1.268 6.384-.994 9.666.103 1.148-.334 1.593-1.431 1.388zm347.202-59.92c-.934.154-1.2-1.123-1.491-1.945a50.155 50.155 0 00-4.284-8.295c-.968-1.637-2.219-1.936-3.889-2.056-3.05-.232-5.997.737-9.039.557-1.045-.06-2.005 0-2.176-1.449-.163-1.328.583-1.713 1.559-2.116 4.018-1.714 8.105-3.299 12.423-3.882 2.33-.317 2.921-1.833 3.256-3.427.711-3.428 1.49-6.855 1.105-10.394-.094-.857-.146-1.782.917-2.082 1.062-.3 1.619.514 2.013 1.208 1.996 3.505 4.284 6.855 5.689 10.668.959 2.519 2.844 3.162 5.14 3.316.857.052 1.713-.077 2.57 0 .977.129 2.279.377 2.331 1.423a2.298 2.298 0 01-1.714 2.202c-3.949.951-6.434 4.49-10.229 5.741a1.904 1.904 0 00-1.191 2.039c.145 2.014-.66 3.933-.557 5.998.051 1.054-.377 2.34-2.433 2.494zm61.111 257.592c-2.108-.317-3.95-.626-5.8-.857-1.174-.146-2.348-.754-2.21-1.799a2.336 2.336 0 012.433-1.8c1.85.06 3.718-.06 5.577 0 1.714.094 2.879-.377 3.29-2.176.141-.473.355-.921.634-1.328 1.225-2.151 3.273-2.348 4.506-.275 1.234 2.074 2.314 3.505 5.004 2.305.771-.351 2.21-.471 2.613.789.48 1.508-1.003 1.953-1.911 2.099-2.073.334-1.987 1.26-1.242 2.768a12.076 12.076 0 011.139 3.23c.146.857.532 2.082-.282 2.614-.814.531-2.014-.069-2.733-.729-1.44-1.302-3.213-1.962-4.884-2.802-2.381-1.182-3.718-.497-4.215 2.16-.334 1.791-1.713 1.122-2.279.788-2.244-1.268-2.159-2.965.36-4.987zm-115.548-204.8c.223 4.473-2.493 9.494-6.263 10.377-3.076.728-4.883-.257-6.794-2.262-4.284-4.499-4.969-10.626-1.585-15.424 2.005-2.862 4.181-3.291 7.402-1.645a33.41 33.41 0 015.998 4.044c1.636 1.32 1.19 3.179 1.242 4.91zM435.246 232.709c-2.699-.857-6.195-1.971-8.893-4.181-1.611-1.32-1.86-4.079-1.243-6.324a19.008 19.008 0 012.108-4.19c.283-.497.78-1.166 1.242-1.217 3.256-.351 6.631-1.345 9.776-.394 3.144.951 4.755 3.607 5.38 6.855.771 3.916-3.616 9.383-8.37 9.451zm369.528 311.723c1.293-.095 2.381-.112 3.298.968.917 1.08 1.397-.788 2.57-.506 3.307.857 5.338 3.891 4.789 7.824a9.86 9.86 0 01-7.77 8.5 7.796 7.796 0 01-9.424-9.297 24.936 24.936 0 011.79-4.559c.934-2.005 2.305-3.453 4.747-2.93zM669.024 688.72a7.917 7.917 0 016.699-8.046c.412-.077.771 0 .926-.591.754-2.794 2.416-1.268 3.255-.36 3.778 4.079 3.761 10.702.249 15.029a4.901 4.901 0 01-5.038 1.611c-3.864-.737-6.143-3.753-6.091-7.643zM449.81 249.187c-.462-2.571 4.387-7.249 7.094-7.335.857 0 1.816-.103 2.039.986.223 1.088-.446 1.413-1.448 1.593-2.227.42-3.35 2.023-4.378 3.951s-.265 3.067 1.191 4.121a4.66 4.66 0 001.105.523c1.568.574 3.024 2.416 4.815.531 1.414-1.482 1.782-5.03.72-6.812-.54-.857-1.714-1.885-.506-2.742 1.054-.737 1.928.488 2.725 1.234 2.433 2.279 1.319 7.035-.694 10.042-1.431 2.125-4.198 2.254-7.223.96-3.024-1.294-5.431-3.153-5.44-7.052zm251.675 1.011c-.917.154-1.713 1.611-2.656.351-.788-1.079.249-1.79.857-2.519 3.924-4.824 9.587-4.644 13.973-1.388.318.27.531.643.6 1.054.857 2.973.24 5.93-.557 8.715-.797 2.784-3.769 2.364-5.937 2.647-2.168.283-4.866-1.833-5.689-3.881-.651-1.594-.557-3.265-.591-4.979zm-268.921-7.334c5.397 0 7.359 1.928 7.711 6.538.3 4.207-2.913 5.664-6.906 5.098a8.8 8.8 0 01-6.365-3.727 6.09 6.09 0 01.051-5.998c.857-1.714 2.476-2.091 4.284-1.937.368.06.805.026 1.225.026zM200.131 496.507c.428 2.21-.351 3.976-2.039 4.884-1.919 1.037-3.847.043-5.569-1.045-.471-.3-.857-.857-1.362-.994-1.542-.317-1.713-.352-1.011-1.509.454-.754-.171-1.028-.231-1.525-.163-1.499.342-2.622 1.91-2.073 1.234.445 1.148 0 1.32-.857.411-2.125 1.936-2.519 3.864-2.408 1.927.111 2.741 1.294 3.084 2.913.105.868.117 1.744.034 2.614zm611.205 199.445c.36 1.859-.411 2.699-2.622 2.57-2.904-.18-4.497-1.491-4.497-4.13s.342-3.033 3.649-3.025c2.75-.008 3.479.909 3.47 4.585zm-17.04-87.983a4.082 4.082 0 013.803 3.702c0 .343 0 .754-.368.806a1.577 1.577 0 01-1.139-.249 2.11 2.11 0 00-2.279-.771c-1.363.334-2.202-.591-2.279-1.971-.086-1.654 1.148-1.534 2.262-1.517zM594.77 300.557c-.189 1.842-2.665 1.174-3.119 2.802a2.29 2.29 0 01-2.081-.3c-.857-.797-.257-1.568.128-2.237.728-1.285 1.714-2.33 3.427-1.962a2.22 2.22 0 011.645 1.697z" fill="#3A4453"/><path d="M660.054 588.466c2.039.763 4.035 1.388 5.928 2.245 6.503 2.939 12.517 6.35 16.278 12.93 1.799 3.137 4.344 6.05 7.814 7.567-4.061 1.765-8.131 3.47-12.157 5.287a197.394 197.394 0 01-18.849 7.317c-2.27.763-3.367-.394-4.086-1.713-2.571-4.679-6.649-7.815-10.581-11.234a136.643 136.643 0 01-14.111-13.71c-4.497-5.227-7.582-11.097-10.28-17.343-2.759-6.435-4.687-13.179-6.623-19.828-1.988-6.855-6.246-12.254-9.107-18.483a44.112 44.112 0 00-9.424-13.59c-2.151-2.065-4.721-3.573-6.854-5.655-3.47-3.428-6.443-7.412-9.938-10.806a97.73 97.73 0 01-13.888-17.24c-3.607-5.561-7.942-10.625-12.166-15.758-2.253-2.742-4.069-5.827-6.434-8.526-1.568-1.799-3.178-3.556-4.866-5.227-4.352-4.284-9.27-7.934-14.102-11.67-1.131-.857-3.333-.857-3.324-2.399 0-1.174 1.534-2.271 2.202-3.505a69.74 69.74 0 018.567-11.816c3.024-3.574 5.997-7.232 9.424-10.531.634-.626 1.311-.369 2.039-.095 5.715 2.125 11.284 4.628 15.764 8.809 3.23 3.016 6.272 6.272 9.33 9.494 2.922 3.068 5.5 6.401 8.233 9.597 3.162 3.685 5.698 7.892 8.748 11.671a58.658 58.658 0 0013.185 12.305c2.176 1.448 4.035 3.427 6.16 5.072a110.553 110.553 0 0011.54 7.584c4.618 2.682 8.285 6.64 11.806 10.668 4.763 5.432 9.424 10.882 15.67 14.875 3.932 2.493 7.753 5.287 11.737 7.712 2.904 1.791 6.365 2.63 9.424 4.139 3.795 1.85 8.002 1.816 11.994 2.87a18.214 18.214 0 016.443 3.505c3.281 2.519 7.008 4.155 10.487 6.255 5.997 3.599 11.891 6.975 16.535 12.57 4.283 5.141 7.316 10.96 11.274 16.221 1.637 2.176 3.136 4.456 4.764 6.632.574.754 1.242 1.859 2.45.925 1.208-.934.223-1.953-.257-2.647-2.039-2.905-4.215-5.707-6.194-8.672-2.382-3.547-4.507-7.249-7.18-10.651-4.618-5.861-9.647-11.071-16.278-14.567-3.847-2.005-7.599-4.19-11.429-6.229a3.672 3.672 0 01-1.713-1.517c1.482-.565 2.57.626 3.632 1.011a26.698 26.698 0 009.947 1.843c.904.103 1.793.313 2.647.625.857.171 1.911 1.071 2.348-.077.437-1.148-.942-1.32-1.756-1.517a83.485 83.485 0 01-11.489-3.607 40.775 40.775 0 00-11.052-2.502c-1.345-.137-2.013-1.08-2.57-2.142a1.614 1.614 0 00-1.885-.857c-.943.128-.548.771-.54 1.336 0 1.286-.942.66-1.422.557a61.888 61.888 0 01-18.651-7.549c-4.421-2.673-8.73-5.535-13.074-8.328-4.344-2.794-7.788-6.855-11.061-10.831a56.536 56.536 0 00-15.207-13.368c-5.08-2.947-9.629-6.692-14.333-10.205a109.793 109.793 0 01-8.567-7.292 34.437 34.437 0 01-6.666-7.592c-1.765-2.965-4.283-5.347-6.451-8.029a252.507 252.507 0 00-17.357-18.697c-5.501-5.578-12.252-8.757-19.465-11.525a8370.69 8370.69 0 0110.435-9.957c.171-.162.428-.394.616-.368 2.982.523 3.984-2.194 5.783-3.565 3.145-2.407 6.263-4.815 10.058-6.203.857-.317 1.011-.086 1.714.377 4.369 2.896 8.842 5.621 13.185 8.568 4.952 3.368 8.456 7.867 11.943 12.468 5.449 7.198 9.244 15.321 13.117 23.427 3.307 6.932 5.68 14.353 9.912 20.788a26.892 26.892 0 007 6.949c6.528 4.618 13.074 9.203 20.159 12.913a61.48 61.48 0 009.381 4.173 27.14 27.14 0 0111.934 7.943c5.141 5.724 11.052 10.608 16.912 15.544 2.117 1.782 3.205 4.447 5.278 6.341a26.759 26.759 0 007.394 4.91c4.489 1.996 8.738 4.532 13.082 6.855 2.819 1.508 5.732 2.767 8.19 4.952 1.945 1.714 3.324 3.882 4.995 5.793 3.033 3.487 6.357 6.709 9.167 10.419 2.014 2.657 2.57 5.639 3.333 8.655.291 1.148.214 2.45 1.439 3.239.857.557.06 1.122-.214 1.525-2.142 3.042-4.172 6.178-6.545 9.031-3.744 4.499-7.223 9.229-11.558 13.231-1.508 1.396-2.039 1.713-3.367-.429-4.977-7.917-10.992-14.927-18.779-20.351-4.695-3.256-8.988-7.077-13.545-10.539a40.632 40.632 0 00-9.981-5.219c-5.492-2.142-11.052-4.104-16.501-6.409a19.92 19.92 0 01-10.144-9.554c-1.713-3.428-4.138-6.161-6.391-9.074-4.284-5.519-9.424-10.231-14.471-14.987-4.506-4.284-9.929-7.438-14.059-12.125-4.557-5.141-8.421-10.694-8.079-18.071.052-1.174-.24-2.023-1.653-1.945-1.414.077-.857 1.225-.857 1.91-.531 7.498 2.904 13.359 7.642 18.757a50.29 50.29 0 007.385 7.224 82.7 82.7 0 017.711 6.169c3.924 3.762 7.848 7.515 11.634 11.414 1.902 1.954 3.427 4.284 5.244 6.332 2.004 2.245 3.118 5.03 4.583 7.566 3.084 5.33 7.994 8.081 13.348 10.283 6.16 2.502 12.491 4.601 18.591 7.249a30.936 30.936 0 019.142 6.238c4.138 4.019 8.987 7.138 13.476 10.702a47.56 47.56 0 018.876 9.315c1.876 2.57 3.975 5.021 5.415 7.969.565 1.173.419 1.568-.352 2.116-4.052 2.905-8.13 5.767-12.2 8.654-1.053.755-1.962.463-2.313-.634-2.099-6.658-6.734-11.182-12.2-15.175-4.935-3.607-9.552-7.712-15.147-10.282a89.518 89.518 0 00-15.353-5.279c-7.033-1.773-10.914-6.855-13.887-13.041-2.048-4.285-4.284-8.398-9.424-9.957-2.399-.737-4.593-.172-6.854.18a1.138 1.138 0 00-.994 1.277c.12 2.056-.18 4.044.857 6.1a62.266 62.266 0 015.997 19.494c1.345 8.706 5.055 16.067 10.152 22.982 2.433 3.316 4.404 7.017 7.154 10.034 3.264 3.573 7.119 6.606 10.743 9.837.814.728 1.971.711 2.382-.232a4.669 4.669 0 00-.086-3.856.76.76 0 00-.711-.043c-1.936 1.963-2.064.155-2.57-1.156-.505-1.311-2.013-1.671-2.964-2.571a82.864 82.864 0 01-11.6-14.653c-3.085-4.807-6.075-9.742-7.403-15.235-1.508-6.229-2.947-12.502-4.523-18.714-.754-2.982-2.305-5.767-3.427-8.646-.291-.728-.994-1.508-.06-2.253a2.508 2.508 0 012.407-.206 10.495 10.495 0 016.254 4.876c1.911 3.153 3.487 6.52 5.381 9.682a18.685 18.685 0 0010.803 8.055c5.543 1.774 11.138 3.427 16.45 5.732 5.731 2.451 10.452 6.59 15.361 10.377 2.69 2.082 5.689 3.856 7.419 6.941 1.44 2.571 2.768 5.141 4.113 7.763a.96.96 0 01-.129 1.166c-3.427 3.556-7.753 3.513-11.386-.069-2.759-2.733-4.772-6.041-7.154-9.066-3.47-4.421-8.567-6.709-13.553-8.954-2.887-1.294-5.878-2.365-8.868-3.428-1.242-.428-2.93-.899-3.718.36a3.674 3.674 0 00.351 3.993 25.584 25.584 0 012.571 5.836c1.499 4.49 4.429 8.217 7.171 12.047 1.987 2.768 4.96 4.285 7.248 6.564a1.935 1.935 0 001.37.572 1.932 1.932 0 001.371-.572c1.311-1.26-.308-1.56-.857-2.177-6.262-6.683-11.763-13.795-14.735-22.964z" fill="#F0C390"/><path d="M742.472 563.754c-1.243-1.26-.96-2.657-1.191-3.796a17.857 17.857 0 00-4.849-9.297 130.248 130.248 0 01-10.427-11.842c-3.17-4.019-7.591-6.204-12.106-8.098-5.243-2.193-10.143-5.038-15.284-7.42a14.95 14.95 0 01-6.468-5.836c-2.793-4.635-7.265-7.446-11.361-10.659a45.756 45.756 0 01-5.08-5.141c-5.02-5.399-10.341-10.394-17.709-12.699-6.28-1.963-11.823-5.501-17.306-9.135a128.299 128.299 0 01-12.328-8.757 29.128 29.128 0 01-7.128-9.605c-1.345-2.674-2.408-5.493-3.616-8.278 3.53.292 6.46 1.954 9.519 3.239 3.752 1.568 7.71 2.391 11.471 4.225 5.021 2.467 9.741 5.381 14.565 8.148 4.455 2.571 8.816 5.227 12.38 8.938a64.201 64.201 0 016.751 8.32c2.339 3.427 5.997 5.21 8.901 7.952 1.294 1.234 3.042 1.979 4.464 3.093 3.632 2.862 7.805 4.807 11.883 6.855 3.487 1.714 6.408 4.284 9.707 6.238 5.08 3.059 10.281 5.998 14.376 10.394 2.296 2.459 4.095 5.355 6.203 7.986 3.067 3.822 7.282 5.33 11.488 7.061a1.11 1.11 0 00.86.127 1.092 1.092 0 00.682-.539c.36-.745-.436-1.071-.856-1.294a36.445 36.445 0 01-9.15-6.957c-2.262-2.494-4.661-4.876-6.854-7.472-4.644-5.536-11.052-8.843-16.981-12.742a119.953 119.953 0 00-13.022-7.712c-6.571-3.213-12.234-7.815-17.837-12.39-2.648-2.168-4.507-5.304-6.64-8.072-3.247-4.207-7.377-7.232-11.857-10.068-4.001-2.571-8.019-5.082-12.14-7.395a69.719 69.719 0 00-20.562-7.892 29.438 29.438 0 01-5.14-1.611c-1.191-.463-3.136 1.311-3.693-1.319-.343-1.637-1.491-3.085-2.133-4.67a79.598 79.598 0 00-9.57-16.889c-3.11-4.285-6.417-8.441-9.604-12.674-2.322-3.084-5.517-5.029-8.516-7.172-2.998-2.142-5.8-4.909-9.595-5.895-.275-.077-.463-.454-.694-.685 1.439-.377.334-2.28 1.859-2.828a163.086 163.086 0 0121.967-6.212c4.703-.96 9.484-1.303 14.153-2.357 1.079-.248 2.005-.274 2.082 1.508.12 2.931 3.135 3.968 4.583 6.076 3.881 5.646 9.313 10.008 13.014 15.826 2.21 3.427 3.333 7.326 4.686 11.139 1.311 3.633 1.894 7.498 4.515 10.677 1.791 2.176 4.121 3.642 6.049 5.621 3.598 3.702 8.062 6.341 12.483 8.929a37.227 37.227 0 016.639 5.244c2.793 2.63 5.758 5.03 8.808 7.377a25.336 25.336 0 016.725 7.755c3.907 7.147 9.861 10.882 17.692 12.442 4.283.857 8.798 1.714 12.474 4.353a45.535 45.535 0 0111.651 12.27 26.454 26.454 0 0016.587 11.825c1.465.352 2.776 1.388 4.138 2.151a1.711 1.711 0 002.304-.12c.857-.857.086-1.465-.428-2.159-1.773-2.417-4.686-2.502-7.128-3.428a23.066 23.066 0 01-11.549-8.886 51.202 51.202 0 00-13.416-14.121c-3.907-2.665-8.568-3.222-12.92-4.55-3.213-.968-6.717-.994-9.664-2.81-3.127-1.937-5.14-4.902-7.111-7.901a41.857 41.857 0 00-10.88-11.259 43.844 43.844 0 01-6.769-6.152c-3.349-3.634-8.01-5.279-11.788-8.218-6.983-5.441-13.939-10.608-16.552-20.102a39.3 39.3 0 00-10.907-18.611c-3.846-3.574-6.597-8.201-10.392-11.885a2.323 2.323 0 01-.737-2.52c.446-1.045 1.482-.428 2.236-.479 2.631-.197 5.244-1.08 7.917-.06.899.342 2.638-.643 2.039 1.611-.103.368.437.539.736.428 4.344-1.654 5.252 2.228 6.709 4.524a69.665 69.665 0 014.712 9.392c2.57 5.929 6.622 10.788 12.388 13.761 4.095 2.125 7.274 5.51 11.395 7.523a36.088 36.088 0 019.295 6.136 23.483 23.483 0 014.078 5.141c2.211 3.77 5.141 7.043 7.445 10.754 2.108 3.341 6.109 5.047 10.127 5.706 7.394 1.226 14.042 4.525 20.947 7.121 2.776 1.045 4.344 3.093 5.68 5.578a48.21 48.21 0 0014.745 16.992c3.427 2.416 7.162 4.79 11.669 4.91 1.011 0 .856.634 1.079 1.285a37.614 37.614 0 011.362 8.826c.335 4.833 1.08 9.631 1.191 14.507.257 10.685-1.713 20.993-4.283 31.276-1.534 6.195-4.85 11.499-7.188 17.429zM512.48 484.879c3.085.694 4.798 3.017 6.854 4.662 5.141 4.087 10.581 7.866 15.045 12.681a93.858 93.858 0 0012.2 10.84c5.054 3.847 10.572 7.086 15.686 10.865 6.083 4.49 12.586 8.432 17.855 14.027 2.373 2.519 3.53 5.596 4.823 8.509 2.476 5.604 4.087 11.585 6.331 17.3a28.861 28.861 0 004.019 6.924c1.773 2.305 2.433 5.141 4.052 7.446 3.196 4.593 5.783 9.58 9.501 13.83 4.978 5.698 10.838 10.531 15.61 16.426a30.156 30.156 0 014.772 9.134c1.002 2.828 2.793 5.442 2.673 8.638a1.79 1.79 0 001.431 1.594c.856.248 1.319-.326 1.662-1.14.257-.583.968-.96 1.276-1.534.309-.574.317-1.594-.719-1.268-1.654.505-1.474-.66-1.645-1.508a43.242 43.242 0 00-10.881-21.525c-4.035-4.336-8.807-7.952-12.414-12.656a119.552 119.552 0 01-7.993-12.108c-2.134-3.624-3.864-7.463-6.46-10.856a18.315 18.315 0 01-3.179-7.146 45.66 45.66 0 00-2.853-8.903c-1.867-4.353-3.384-9.092-6.262-12.699a36.583 36.583 0 00-9.424-8.689 150.324 150.324 0 01-13.34-9.426 65.964 65.964 0 00-6.811-4.498 36.82 36.82 0 01-6.854-4.876c-3.495-3.359-7.582-5.998-10.692-9.88-2.793-3.47-6.691-5.929-10.281-8.568-3.127-2.305-5.997-4.91-9.047-7.387a6.974 6.974 0 00-.788-.625c-3.855-2.288-3.813-2.571-2.639-6.855a173.8 173.8 0 017.077-20.659c.668-1.62 1.499-2.117 3.058-1.251a34.963 34.963 0 013.65 2.759 92.296 92.296 0 0112.44 10.479 64.343 64.343 0 016.957 8.158c2.493 3.702 5.354 7.155 8.079 10.702 3.966 5.141 7.59 10.565 11.137 16.041 2.682 4.181 6.494 7.42 9.707 11.139 2.853 3.333 5.997 6.375 8.807 9.726 1.971 2.373 4.584 3.881 6.811 5.886a35.84 35.84 0 018.962 11.697c1.962 4.233 4.678 8.114 6.854 12.21 3.118 5.784 4.583 12.262 6.614 18.5a112.413 112.413 0 006.374 16.461c3.264 6.443 7.95 11.602 12.851 16.734 4.284 4.482 9.159 8.218 13.708 12.348 2.63 2.382 5.346 4.996 6.854 8.654-4.036 1.38-8.482 1.868-12.851 2.631-5.578.977-11.224.343-16.792-.06a121.291 121.291 0 01-20.108-3.068c-9.476-2.33-18.326-6.186-27.15-10.282a91.164 91.164 0 01-18.848-11.594c-1.714-1.388-3.23-3.144-4.892-4.687-3.059-2.819-5.903-5.869-8.876-8.791-3.298-3.248-5.269-7.412-7.616-11.268a108.69 108.69 0 01-9.133-18.32c-1.431-3.796-2.819-7.609-4.395-11.868 7.582 5.656 15.053 10.54 21.47 16.829 2.964 2.914 6.459 5.27 9.492 8.123 4.284 4.036 8.422 8.269 11.052 13.71 2.57 5.27 6.357 9.88 8.113 15.596a20.556 20.556 0 011.037 6.855c-.043 1.131-.317 2.69 1.551 2.476 1.662-.197 1.576-1.714 1.456-2.913a42.228 42.228 0 00-3.769-13.239c-2.802-6.281-6.623-11.919-10.684-17.48-4.284-5.81-9.912-9.974-15.053-14.781-2.956-2.768-6.057-5.364-9.073-8.055-2.81-2.494-6.202-4.336-9.347-6.461-2.313-1.559-4.129-3.864-6.931-4.678-.728-.215-.437-.789-.591-1.217-2.819-8.072-4.463-16.461-6.528-24.73-.317-1.276 1.165-2.476-.249-4.241 7.026 2.93 13.477 5.381 19.097 9.974 6.674 5.458 13.185 11.096 19.328 17.137 4.729 4.636 7.865 10.437 10.118 16.692a80.777 80.777 0 0011.223 21.491c3.907 5.141 8.619 9.691 12.226 15.098 4.626 6.923 9.004 13.958 10.067 22.458.102.857.274 1.551 1.233 1.577 1.14 0 1.363-.771 1.328-1.714-.197-4.198-1.593-8.097-3.272-11.85a74.236 74.236 0 00-12.852-19.271 110.575 110.575 0 01-12.131-16.512c-2.382-3.89-3.513-8.295-5.2-12.476a52.691 52.691 0 00-11.258-17.755 207.097 207.097 0 00-20.93-18.225c-4.284-3.308-9.595-5.227-14.744-6.761-4.284-1.268-5.698-3.651-6.066-7.592-.651-6.907-1.302-13.847-.9-21.071z" fill="#FFDA74"/><path d="M637.136 391.273c4.866.12 9.304 1.526 13.708 2.734a199.775 199.775 0 0121.684 7.138 269.041 269.041 0 0135.126 17.249c3.161 1.816 5.826 4.507 8.653 6.854a77.264 77.264 0 0112.731 13.985c3.495 4.79 6.34 10.068 9.321 15.218 4.927 8.526 7.942 17.788 10.453 27.257.462 1.714 1.19 3.427 1.55 5.193.189.968 0 1.371-.771.951-6.117-3.231-12.483-6.136-16.595-12.116-2.664-3.874-5.997-7.275-7.959-11.654-1.225-2.699-4.284-3.35-6.854-4.421-4.84-2.014-9.647-4.199-14.727-5.493-2.767-.703-5.68-.857-8.448-1.714-4.652-1.568-6.742-5.612-9.304-9.228-2.279-3.231-4.515-6.478-6.854-9.64a18.285 18.285 0 00-6.357-5.201c-5.731-2.871-10.529-7.138-16.106-10.137a25.871 25.871 0 01-11.489-12.656 103.388 103.388 0 00-4.704-9.769c-.865-1.542-2.476-2.484-3.058-4.55z" fill="#F0C390"/><path d="M209.881 639.991a123.812 123.812 0 015.697-39.048 91.27 91.27 0 0110.212-22.073 52.752 52.752 0 0112.295-13.248 118.022 118.022 0 0122.54-14.292c5.466-2.571 10.958-5.27 16.964-6.161 5.243-.771 10.392-2.519 15.824-1.8a259.92 259.92 0 0117.357 2.871 80.444 80.444 0 0123.937 8.809 50.452 50.452 0 0111.087 8.071c2.698 2.657 5.371 5.356 8.053 8.038.643.642 1.491 1.088.051 2.005-.702.454-.719 1.988.771 1.654 3.299-.729 4.284 1.902 5.663 3.727 3.933 5.227 6.794 11.088 9.844 16.855 3.05 5.767 3.624 12.39 5.398 18.585.205.712-.24.857-.908 1.123-3.205 1.285-6.4 2.571-9.647 3.753-5.689 2.074-11.189 4.687-16.929 6.589a1120.254 1120.254 0 01-22.515 7.164c-9.562 2.93-19.088 5.998-28.804 8.457-6.674 1.714-13.117 4.285-19.791 5.947-7.89 1.988-15.969 3.273-23.877 5.21a268.1 268.1 0 01-18.848 3.864 133.614 133.614 0 00-15.37 3.505c-1.876.548-3.949.154-5.826 1.131-.856.437-1.542-.249-1.645-1.32-.694-6.786-2.116-13.53-1.533-19.416zm161.76 7.659c-3.092 11.423-9.004 20.48-15.053 29.503a173.849 173.849 0 01-14.65 18.525c-1.242 1.397-2.913 2.502-4.283 3.873-4.284 4.379-8.628 8.877-14.222 11.448-7.128 3.273-14.239 6.624-22.19 7.943a113.034 113.034 0 01-22.789 1.311c-3.915-.145-7.788-1.156-11.66-2.039-5.141-1.174-9.767-3.505-14.393-5.707a59.146 59.146 0 01-9.896-5.998 77.41 77.41 0 01-15.712-15.424 2038.368 2038.368 0 0117.837-3.427c5.929-1.114 11.763-2.999 17.58-4.739 7.942-2.365 15.833-4.867 23.878-6.915 3.555-.908 6.965-2.399 10.469-3.573 7.445-2.493 14.804-5.312 22.378-7.343 9.27-2.485 18.308-5.698 27.638-7.978 6.85-1.776 13.545-4.1 20.022-6.949 1.534-.668 3.427-.566 5.046-2.511z" fill="#FFDA74"/><path d="M365.002 578.912a45.855 45.855 0 00-3.667-4.233c-1.508-1.379-.788-2.168.505-2.785 1.782-.857 3.779-1.242 5.141-2.827.317-.369.745-.292 1.079.094.917 1.062 1.868.6 2.947.205 5.921-2.185 11.798-4.515 17.829-6.34a107.461 107.461 0 0116.167-3.428c3.658-.523 7.325-.505 10.983-.857 8.85-.857 17.383 1.011 25.445 4.627 8.062 3.616 15.644 7.712 21.736 14.07a25.355 25.355 0 016.134 9.743c.857 2.716-.069 4.696-1.422 6.418a48.219 48.219 0 01-8.696 8.569c-4.721 3.564-9.587 6.94-14.942 9.177-4.463 1.859-8.781 4.036-13.082 6.135-5.003 2.442-9.921 5.141-14.907 7.712a243.582 243.582 0 01-25.771 11.011c-4.601 1.662-8.97 3.967-13.622 6.058.18-2.005.857-3.608.857-5.347 0-4.233 3.589-5.141 6.519-5.895 5.706-1.389 10.83-4.053 15.824-6.855 7.6-4.242 15.165-8.509 22.918-12.468 5.44-2.785 10.658-5.998 15.036-10.385a25.848 25.848 0 013.375-2.502c3.71-2.622 5.818-6.05 5.998-10.746a9.363 9.363 0 00-4.781-8.654c-2.39-1.388-4.575-3.273-7.317-4.147-4.617-1.474-9.338-2.571-13.956-3.976-8.413-2.571-16.972-2.614-25.573-2.399-5.218.128-10.281 1.422-15.422 2.425-4.806.934-8.807 3.89-13.51 5.029-1.371.335-2.211 1.08-1.842 2.648l.017-.077z" fill="#D9A672"/><path d="M376.122 623.324c.463 1.971-.514 4.242-.548 6.59 0 1.885-1.911 2.056-3.093 2.373-6.665 1.808-12.903 4.799-19.499 6.795-5.569 1.714-11.138 3.428-16.681 5.141-4.378 1.328-8.927 1.928-13.254 3.651-4.155 1.662-8.773 2.099-13.108 3.376-6.691 1.962-13.588 3.042-20.262 5.141a114.205 114.205 0 01-14.093 3.522c-4.661.857-9.193 2.433-13.776 3.684-7.437 2.022-14.788 4.499-22.336 5.904-6.734 1.251-13.373 2.905-20.116 4.053a.61.61 0 01-.248 0c-1.26-.24-2.356 1.714-3.65.36-1.037-1.054-.857-2.639-1.482-3.907-.206-.429-.094-1.003-.257-1.466-1.765-4.841-1.585-5.621 3.375-5.998 3.719-.3 7.009-1.816 10.564-2.45 6.905-1.243 13.785-2.571 20.699-3.771 3.907-.668 7.633-1.996 11.557-2.665 6.563-1.105 13.108-2.51 19.542-4.284 8.568-2.305 16.981-5.064 25.471-7.592 7.385-2.193 14.89-4.061 22.164-6.581 6.905-2.399 13.896-4.515 20.844-6.76 8.285-2.674 16.278-6.093 24.349-9.255 3.872-1.516 3.838-1.713 3.838 2.451v1.688z" fill="#967057"/><path d="M225.491 688.377c-.686.12-1.388-.386-2.202-1.525a57.714 57.714 0 01-5.278-8.089c-.591-1.191-.651-1.885 1.011-2.211 4.592-.9 9.124-2.176 13.708-2.948 6.331-1.062 12.56-2.57 18.763-4.147 7.222-1.851 14.376-4.001 21.581-5.904 3.341-.857 6.768-1.414 10.118-2.253a183.812 183.812 0 0010.623-3.025c4.627-1.474 9.424-2.108 14.085-3.53 6.503-1.997 13.211-3.111 19.705-5.304 5.389-1.826 11.138-2.622 16.646-4.379 9.048-2.896 18.163-5.621 26.911-9.426.916-.394 2.381-1.336 3.17-.42.651.763.479 2.245-.086 3.368a.946.946 0 00-.154.463c.085 5.758-4.387 6.649-8.465 8.089-3.487 1.225-6.854 2.724-10.281 4.035-6.065 2.314-12.354 3.882-18.6 5.622-5.68 1.576-11.231 3.598-16.92 5.141-2.93.797-5.732 1.919-8.722 2.57-2.99.652-5.877 2.023-8.841 2.931-8.945 2.716-17.7 5.998-26.79 8.277-8.174 2.074-16.09 5.142-24.22 7.447a90.257 90.257 0 01-15.721 3.17 39.164 39.164 0 00-7.197 1.714c-.938.188-1.889.3-2.844.334z" fill="#D9A672"/><path d="M364.95 578.963c.994.711 1.911.497 3.016.06 7.145-2.811 14.624-4.285 22.138-5.699a70.751 70.751 0 0115.781-.916c7.137.248 13.999 2.09 20.819 4.087 1.182.343 2.373.625 3.555.968 4.961 1.431 9.424 3.753 12.552 7.978 1.37 1.816.856 7.377-.934 8.706-5.141 3.821-9.733 8.38-15.199 11.764-4.344 2.682-8.927 4.927-13.511 7.164-7.153 3.487-13.707 8.106-20.887 11.516a92.558 92.558 0 01-13.536 5.03c1.216-4.002 1.105-8.123.805-12.219-.077-1.14.677-1.105 1.028-1.2a100.99 100.99 0 0018.249-7.3 171.743 171.743 0 0019.49-11.139 11.698 11.698 0 004.464-4.97c2.125-5.142-.437-8.303-5.637-9.726-7.591-2.073-15.422-1.825-23.132-1.474a68.205 68.205 0 00-16.141 2.571c-2.502.737-5.286.454-7.574 2.014-.223.154-.48.488-.745 0-1.311-2.571-3.538-4.508-4.532-7.25l-.069.035zm-189.219 90.529c5.518 0 10.881-1.294 16.278-1.902 4.378-.489 8.645-1.44 12.963-2.177 1.362-.231 3.101-1.277 3.949-.762.848.514.626 2.57 1.037 3.898.522 1.637.857 3.342 1.491 4.936.539 1.431-.086 1.885-1.063 2.048-8.97 1.491-17.769 4.087-26.961 4.13a44.028 44.028 0 01-11.541-1.714c-3.906-1.054-7.83-1.953-11.394-4.284a13.065 13.065 0 01-5.997-8.012c-1.774-6.992.437-12.853 5.526-17.797 2.287-2.228 4.438-4.584 6.579-6.967a58.783 58.783 0 0112.637-10.068c4.901-3.076 9.296-6.855 13.862-10.385a27.833 27.833 0 0113.905-5.878c1.251-.154 1.439.497 1.328 1.482-.343 3.145-.694 6.281-1.011 9.426-.068.711-.497.814-1.028.779-5.329-.419-9.424 2.708-13.434 5.287a108.226 108.226 0 00-21.555 18.277c-2.699 2.957-4.909 6.127-5.775 10.197-.968 4.567 2.571 9.426 7.146 9.469l3.058.017z" fill="#967057"/><path d="M206.814 640.642a77.694 77.694 0 001.499 18.371c.308 1.517 0 2.571-1.902 3.111a108.7 108.7 0 01-14.796 2.802c-4.104.531-8.19 1.156-12.277 1.799a23.128 23.128 0 01-7.291.077c-3.11-.505-4.284-3.744-3.024-7.112 1.276-3.522 3.504-6.315 5.997-9.014a93.947 93.947 0 0116.458-14.224c4.147-2.802 8.276-5.81 13.202-7.352 1.825-.574 2.202-.129 2.159 1.593-.085 2.94-.025 5.904-.025 9.949zm164.013-51.61c5.749-2.57 11.661-2.125 17.358-3.025 7.299-1.148 14.564-.805 21.89-.925a19.943 19.943 0 016.348 1.028c4.464 1.414 5.217 4.413 1.97 7.781a29.785 29.785 0 01-7.29 5.141c-9.202 5.073-18.343 10.334-28.436 13.564-3.598 1.157-3.906 1.234-4.352-2.382a52.268 52.268 0 00-7.488-21.182z" fill="#B7B7B7"/><path d="M346.967 297.129a76.133 76.133 0 019.425 21.422 47.706 47.706 0 002.433 5.904 136.961 136.961 0 015.825 18.251c1.483 5.561 2.751 11.337 2.339 17.249.029.337 0 .676-.085 1.003-.909 1.773-7.651 4.404-9.733 4.13a58.088 58.088 0 00-9.852-.069c-3.65.154-6.572 1.834-9.502 3.762-1.842 1.208-2.904 2.57-2.895 4.824 0 2.871 0 5.587-1.268 8.492-2.468 5.629.437 10.402 4.001 14.712.728.857 1.85 1.028 2.861 1.354 2.57.814 3.65-.12 3.007-2.682-.171-.686-.068-1.714-.985-2.074-1.157-.42-.857 1.268-1.902 1.32-1.225-1.842-2.75-3.539-3.615-5.741a7.132 7.132 0 01.599-6.152c1.217-2.211.857-4.388.857-6.59.086-3.881 3.341-6.992 7.317-7.343a51.984 51.984 0 0112.748 0 7.255 7.255 0 006.854-2.751c.291-.343.574-.857 1.533-.565.206 10.119-1.962 19.802-5.997 29.63-4.052-5.141-9.749-4.284-14.796-5.407-1.096-.231-2.441-.077-2.57 1.577-.128 1.654.771 2.622 2.425 2.425 2.827-.343 5.431.746 8.139 1.105 2.047.266 3.324 2.074 4.96 3.171.694.463-.154 1.105-.36 1.525-2.416 4.85-5.877 8.98-9.424 13.033-1.79 2.065-3.427 4.285-5.748 5.887-.322.29-.727.472-1.157.52a2.074 2.074 0 01-1.242-.254c-4.395-1.8-8.73-3.925-13.708-3.634a11.993 11.993 0 00-6.477 2.125 20.458 20.458 0 01-7.959 3.556 5.944 5.944 0 00-2.57 1.371 2.806 2.806 0 01-2.571.575c-5.808-1.106-11.711-1.329-17.571-1.971-2.202-.24-3.976 1.371-6.117 1.808-5.475 1.114-9.887 4.361-13.888 8.166a2.94 2.94 0 01-3.084.865 6.052 6.052 0 00-2.498-.235 6.057 6.057 0 00-2.377.801c-1.003.668-2.142.317-3.213.317-5.997 0-10.975 2.459-15.13 6.598-.694.694-.857.282-1.362.12-3.556-1.183-6.528-3.496-9.921-4.996-1.354-.591-2.57-1.594-3.89-2.168-5.937-2.476-10.675-6.546-15.344-10.831-5.192-4.764-9.201-10.565-14.127-15.466a43.116 43.116 0 01-8.388-11.842c-1.713-3.505-2.776-7.361-4.164-11.028-1.148-3.034-2.236-6.11-3.427-9.16a77.438 77.438 0 01-3.487-14.087c-1.096-6.221-1.105-12.528-1.045-18.851a85.56 85.56 0 012.442-18.209c1.431-6.341 2.844-12.647 5.14-18.74 2.108-5.57 5.141-10.634 8.011-15.801a46.557 46.557 0 015.534-8.474 38.01 38.01 0 0110.444-8.183c4.284-2.314 8.019-5.519 12.568-7.395a122.37 122.37 0 0114.059-4.404c.729-.206 1.337-.377 1.645.617.309.994-.342 1.079-.908 1.456-1.079.703-3.213.986-2.21 2.905 1.131 2.185 2.887.934 4.283.094a40.263 40.263 0 0119.705-5.638c4.67-.18 9.339-1.2 14.017-.9 7.488.48 14.95 1.294 22.421 2.005 1.225.112 2.201 1.046 3.521 1.123.856.051 1.036 1.114.796 1.859-.471 1.457-1.148 3.059-2.63 3.565-3.795 1.285-6.177 4.284-8.935 6.855-5.141 4.747-11.001 7.48-18.18 6.958-5.055-.369-10.101.163-15.139.54-2.964.222-5.389 1.996-7.539 3.924a24.848 24.848 0 00-5.381 6.195c-2.75 4.842-8.567 6.615-14.564 4.987-4.19-1.139-8.336-1.911-12.757-1.097-1.388.249-2.964-.497-4.541.232a11.4 11.4 0 00-5.851 6.401c-1.542 3.933-4.07 7.12-6.477 10.436-1.534 2.1-1.268 3.993-.274 6.444 1.653 4.079 4.755 6.949 7.333 10.24a5.92 5.92 0 004.901 2.485c6.854-.523 12.14 2.63 17.135 6.666 2.039 1.645 3.983 3.428 6.057 4.996a16.572 16.572 0 009.809 3.607c5.252.12 10.513.094 15.773 0 4.044-.068 7.385-1.894 10.281-4.567 1.174-1.08 2.21-1.902 4.095-1.088 3.247 1.397 6.614 2.416 9.467 4.67 2.527 1.996 7.933.857 10.067-1.457 4.24-4.558 6.468-10.162 8.798-15.689a4.775 4.775 0 014.224-3.179c6.674-.909 12.56-3.376 17.212-8.389a5.526 5.526 0 001.285-1.8c1.799-5.201 6.143-7.437 10.778-9.262 4.635-1.825 8.31-4.833 11.711-8.689z" fill="#B0D9E8"/><path d="M218.859 296.185c4.284.318 7.977 1.637 11.789 2.263 4.387.728 8.945.719 12.491-2.348 2.425-2.108 4.104-5.064 6.22-7.558a11.604 11.604 0 018.088-4.019c6.057-.574 12.174 0 18.18-.582a28.334 28.334 0 0018.848-10.137 15.357 15.357 0 015.783-3.916c2.382-1.054 3.941-2.493 4.284-5.193.12-.942.548-1.602 2.022-1.105 1.473.497 2.57 1.063 3.855 1.611 4.703 2.048 9.673 3.71 13.811 6.726 5.174 3.822 10.666 7.489 14.281 13.093a52.922 52.922 0 004.687 6.384c1.233 1.371.711 2.279 0 3.496-2.313 3.839-5.997 5.827-9.964 7.421-5.141 2.09-9.536 4.815-12.046 10.111-2.51 5.295-7.282 7.549-12.68 8.689-1.379.299-2.818.282-4.189.599-3.367.797-5.397 3.145-6.46 6.273a57.04 57.04 0 01-5.894 11.979c-2.219 3.521-5.715 3.71-10.161 1.097a32.539 32.539 0 00-8.011-3.068c-4.412-1.191-7.248 1.842-10.169 4.121a8.304 8.304 0 01-4.781 1.911c-5.269.197-10.52.292-15.789.857-2.622.266-5.509-1.371-7.711-3.264-4.138-3.497-8.293-6.958-13.022-9.649a15.421 15.421 0 00-9.082-2.065 7.707 7.707 0 01-7.059-2.999c-2.382-2.939-5.269-5.501-6.511-9.289a2.906 2.906 0 01.385-3.144c2.69-3.693 6.066-6.932 7-11.791.488-2.57 2.767-3.83 5.32-4.61a51.096 51.096 0 016.485-1.894z" fill="#9CE084"/><path d="M247.757 440.766a24.734 24.734 0 0113.288-3.77c2.639 0 5.183-.857 8.011-.566 3.478.335 5.586-3.033 8.139-4.952 6.948-5.227 14.633-6.495 22.994-4.902 2.673.514 5.424.532 8.062 1.346 1.542.479 2.922-.437 4.207-1.191a18.22 18.22 0 016.168-2.314 6.403 6.403 0 002.802-1.474c3.701-2.768 7.591-4.284 12.14-1.808a23.017 23.017 0 004.352 1.303c-1.448 2.382-3.984 3.101-6.091 4.164-2.348 1.174-4.798 2.202-7.12 3.428-6.065 3.213-12.577 5.141-19.071 7.214-4.746 1.534-9.424 3.334-14.282 4.542a104.958 104.958 0 01-20.887 3.076 49.34 49.34 0 01-11.06-.754 46.948 46.948 0 01-11.652-3.342z" fill="#FEFEFE"/><path d="M529.375 729.559a35.255 35.255 0 01-13.879-3.247 13.588 13.588 0 00-4.455-1.328c-5.08-.249-10.195-.677-15.113 1.414-2.758 1.182-5.406 2.57-8.25 3.616-5.2 1.876-10.392 3.161-15.867 1.482-2.21-.685-3.855-2.356-5.646-3.736a17.736 17.736 0 01-6.965-14.036c-.094-4.515 2.167-8.697 5.474-12.073a19.39 19.39 0 019.279-5.398c5.209-1.363 9.09-4.901 12.491-8.989a95.412 95.412 0 006.803-10.034 5.194 5.194 0 011.979-1.902c.445-.214 1.713-1.491 2.013.514.111.754.977.934 1.868.557 2.878-1.225 5.826-1.868 8.936-.857 1.113.377 2.073-.471 3.178-.522 5.766-.249 11.386.788 16.132 3.881 3.068 2.005 6.177 4.062 9.176 6.238 2.862 2.065 5.92 3.822 8.705 6.058a16.283 16.283 0 015.757 10.009c.36 1.773.754 3.556 1.011 5.346.659 4.628-1.362 8.381-4.541 11.32-3.615 3.35-7.214 6.769-11.403 9.425-2.279 1.543-4.644 2.597-6.683 2.262z" fill="#FFDA74"/><path d="M932.899 405.755c-.36 4.113.077 8.32-1.491 12.322a18.114 18.114 0 01-6.409 7.763c-2.57 1.919-5.02 4.19-8.019 5.535-5.62 2.519-11.266 4.704-17.666 3.274-2.004-.455-4.138 0-6.211-.583-4.069-1.217-7.531-3.616-11.257-5.493a38.099 38.099 0 01-13.708-11.687c-4.001-5.467-5.612-11.808-6.957-18.286a32.115 32.115 0 012.322-19.957c2.57-5.629 7.111-9.357 12.851-11.688 2.51-1.019 5.466-1.251 7.659-2.33 4.284-2.108 8.568-2.468 13.04-2.211 7.179.428 14.016 2.022 19.482 7.249 3.307 3.162 7.453 5.484 9.912 9.477 2.99 4.867 4.284 10.368 5.372 15.912a46.732 46.732 0 011.08 10.703z" fill="#967057"/><path d="M151.905 425.419c5.621-.557 10.118 2.982 14.376 6.65a39.815 39.815 0 015.261 4.91c3.512 4.284 3.298 8.945 2.51 13.821-1.371 8.423-6.991 13.504-14.119 17.043-3.358 1.714-7.222 1.071-10.701-.145a106.281 106.281 0 01-11.052-4.696c-4.189-2.031-5.397-6.135-6.614-10.214-2.724-9.126 1.354-15.072 7.428-19.819 1.003-.789 2.956-1.449.857-3.257-.557-.471.428-.668.771-.925 3.161-2.408 6.76-3.428 11.283-3.368z" fill="#FFDA74"/><path d="M477.157 349.227c-1.996-3.256-3.821-6.289-8.961-4.807 2.21-2.296 4.103-3.778 4.737-6.281.592-2.365 1.868-4.55 1.902-7.223a8.568 8.568 0 011.911 5.364c.163 3.479 1.713 5.527 5.217 6.058.574.094 1.148.206 1.757.317-2.236 2.022-5.997 2.459-6.563 6.572z" fill="#B0D9E8"/><path d="M813.744 287.103c2.416-.437 4.232-2.493 6.768-2.622a2.05 2.05 0 001.422-1.285c.857-3.573 3.932-6.461 3.367-10.608.977 1.714 2.262 3.359 2.862 5.21 1.422 4.43 4.506 5.998 9.355 5.732-2.664 1.08-4.378 2.751-6.425 3.865-3.307 1.799-6.854 3.29-6.246 8.174a39.27 39.27 0 01-2.467-4.353c-1.303-3.102-3.427-4.618-6.854-4.121-.593.046-1.189.049-1.782.008zm-45.63 68.294c-.857 1.765-.968 4.19-2.733 5.886-1.765 1.697-3.89 1.577-5.852-.154a8.21 8.21 0 01-.103-12.219 1.794 1.794 0 012.408-.36 17.463 17.463 0 015.14 3.822 3.842 3.842 0 011.14 3.025z" fill="#FFDA74"/><path d="M434.894 218.117c2.391.06 5.62 3.153 5.8 5.553.18 2.399-2.655 6.323-5.089 6.066-2.433-.257-5.466-.925-7.188-3.101-1.43-1.817-.651-3.934.48-5.896 1.397-2.442 3.967-1.842 5.997-2.622zm377.959 333.761c-.411 3.428-4.901 7.661-7.651 7.25-1.962-.292-4.721-3.993-4.524-6.067.309-3.196 2.931-6.392 5.004-6.101 4.935.685 7.471 2.425 7.171 4.918z" fill="#B0D9E8"/><path d="M679.656 688.789c0 1.653-2.262 5.029-3.359 4.995-2.056-.06-4.78-2.742-4.78-4.721 0-3.068 2.356-5.818 5.012-5.844 1.739-.017 3.11 2.425 3.127 5.57z" fill="#FFDA74"/><path d="M712.717 252.418c.6 3.119-1.662 4.867-4.729 4.978-2.022.077-5.338-2.819-4.969-6.975a4.035 4.035 0 014.438-3.993c2.87.06 5.26 2.768 5.26 5.99zm-278.285.607c-1.851-.548-4.053-1.062-5.526-2.922a3.01 3.01 0 01-.471-3.641c.753-1.406 1.602-1.234 2.964-1.149 2.57.163 5.02-.06 5.997 3.111.634 2.031-.78 4.653-2.964 4.601zm-238.053 240.86c.24 1.251 1.088 2.185.711 3.273-.206.591-.274 1.5-1.362 1.5a2.099 2.099 0 01-2.074-1.509c-.351-.968.454-1.002 1.14-1.131 1.028-.18.548-1.482 1.585-2.133z" fill="#B0D9E8"/><path d="M254.226 628.328c-.549-.077-1.054.043-1.106-.566a.91.91 0 01.48-1.011c.78-.48 1.671-.266 2.407-.54a155.863 155.863 0 0014.565-5.767c8.225-4.001 16.432-8.028 24.717-11.91a107.778 107.778 0 0014.307-8.123c6.64-4.447 13.708-8.158 20.151-12.973.454-.335 1.002-.523 1.362-.155.6.634.129 1.217-.377 1.714-1.962 1.954-4.455 3.153-6.759 4.584-5.741 3.548-11.327 7.344-17.058 10.891a154.864 154.864 0 01-15.713 8.123c-6.262 2.94-12.559 5.836-18.728 8.946a81.84 81.84 0 01-17.426 6.555c-.334.077-.643.18-.822.232zm-.883-20.806c-.668-.266-1.585.386-1.713-.694-.129-1.08.796-.72 1.345-.934 2.287-.857 4.549-1.834 6.802-2.802a161.837 161.837 0 0016.681-7.995c3.427-1.936 7.265-2.981 10.606-5.098 5.501-3.479 11.138-6.804 16.501-10.428 5.997-4.002 11.994-7.866 17.58-12.442.523-.428 1.174-.625 1.525 0 .352.626-.111 1.303-.668 1.714-2.981 2.219-5.946 4.481-8.996 6.598a259.239 259.239 0 01-11.137 7.386c-5.569 3.53-10.958 7.446-16.861 10.283-6.365 3.059-12.525 6.537-19.002 9.348-3.753 1.619-7.548 3.145-11.326 4.696-.438.149-.884.272-1.337.368zm51.627-51.36c-.094.48-.094.746-.488.951-5.543 2.956-10.178 7.284-15.661 10.334a104.182 104.182 0 01-16.278 6.949c-5.783 2.031-11.601 3.959-17.187 6.513a29.465 29.465 0 01-7.899 2.682c-.668.094-1.516 1.096-1.91.042-.394-1.054.531-1.448 1.585-1.67a41.19 41.19 0 007.83-2.922c7.283-3.154 14.942-5.322 22.276-8.278a76.221 76.221 0 0014.041-7.069c3.624-2.425 6.854-5.484 10.77-7.429.899-.437 2.004-1.457 2.921-.103zm42.237 40.47a32.848 32.848 0 01-2.57 3.427c-5.252 5.304-9.895 11.422-16.809 14.687-4.13 1.945-7.797 4.747-12.157 6.213-.566.188-1.183.556-1.465-.206-.283-.763.188-1.243.899-1.568 6.734-3.145 13.605-6.281 19.225-11.14a65.754 65.754 0 009.313-9.819 14.3 14.3 0 012.048-2.211c.471-.411 1.199-.608 1.516.617zm-26.49 82.183a2.719 2.719 0 01-1.654 2.134c-3.332 1.714-5.637 4.687-8.379 7.095-4.078 3.564-8.661 6.246-13.288 8.928-.925.532-1.713 1.269-2.664 1.766-.625.325-1.508.677-1.936-.257-.429-.934.582-1.046 1.079-1.363 4.01-2.528 8.165-4.858 11.995-7.592a63.72 63.72 0 008.002-6.975c1.627-1.611 3.709-2.57 5.311-4.147.497-.454 1.285-.625 1.534.411zm-93.076-329.263c4.284-.308 7.899 1.945 11.823 3.522 5.5 2.202 10.932 2.862 16.629.728a16.761 16.761 0 016.083-1.037 21.79 21.79 0 0011.489-2.51 5.437 5.437 0 014.798-.189c2.853 1.054 5.997.857 8.901 1.962 4.378 1.663 6.194 5.459 4.969 10.077-1.045 3.933-3.727 7.044-4.849 10.994-.968 3.427-1.713 6.084.497 9.537 2.981 4.661 2.382 10 1.028 15.338a14.678 14.678 0 01-7.025 9.666 24.807 24.807 0 00-2.63 2.347c-5.612 4.525-14.128 1.937-17.135-5.295a35.81 35.81 0 01-2.57-13.77c0-5.073-.506-5.441-5.364-7.446a57.063 57.063 0 00-8.713-2.571c-2.758-.643-5.902-.985-8.73.857a24.786 24.786 0 01-5.997 2.819c-6.383 2.108-14.213-1.457-15.464-9.186-.334-2.082-1.071-4.121-1.594-6.186-.856-3.308.24-5.938 1.645-8.663.112-.214.369-.497.3-.651-1.336-3.377.531-5.476 2.793-7.575 2.536-2.288 5.475-2.502 9.116-2.768zm279.776 348.903c-2.056-.257-4.104 0-6.22-.36-5.551-1.036-7.265-7.669-4.078-11.953 3.538-4.747 10.093-7.275 14.368-5.39 2.193.969 4.386 1.131 6.631 1.568a10.729 10.729 0 019.03 11.585 2.195 2.195 0 01-1.371 1.954c-1.405.651-2.93 1.551-4.369 1.499-4.73-.171-9.253 1.791-13.991 1.097zm-22.481 9.168c3.316 0 6.649 3.273 7.128 5.955.412 2.28-1.413 4.43-4.643 5.407-4.789 1.44-9.124 1.774-13.391-1.157-.325-.214-.677-.205-.805-.719-.523-2.048 2.219-5.801 4.369-5.93.677 0 1.302.189 1.894-.728 1.422-2.202 3.838-2.657 5.448-2.828zm33.61 2.373c-.505-2.048.514-3.71 1.465-5.364.951-1.653 6.854-2.21 8.079-.677.052.06.103.172.077.232-.916 2.442 1.619 3.299 2.296 5.004.729 1.877-.368 6.795-1.893 7.883-2.433 1.714-4.686.386-6.64-.9-2.099-1.379-4.035-3.144-3.384-6.178zm391.435-303.701c.163 4.61-2.459 7.849-4.721 11.139-1.088 1.568-5.74 1.02-8.319-.771a27.679 27.679 0 01-5.252-4.327 11.052 11.052 0 00-5.894-3.668c-6.246-1.577-8.567-6.581-10.281-11.902a5.09 5.09 0 012.253-5.921c2.202-1.311 4.644-2.425 7.248-1.02 4.284 2.288 8.174 5.219 13.049 6.23 1.362.283 2.647.857 4.086.857 4.104.051 6.083 1.448 7.18 5.424.359 1.354 1.028 2.759.651 3.959zm-15.636-24.104c-2.253.625-4.283-.908-6.245-1.911-2.896-1.474-3.427-5.501-1.517-8.817 1.585-2.794 4.935-3.633 7.985-2.399 2.844 1.156 4.541 3.487 6.486 5.561a4.453 4.453 0 01.574 4.764c-.857 1.894-2.956 2.511-4.978 2.785-.767.054-1.537.06-2.305.017zm27.827 9.195c.532 2.048-.548 3.993-2.013 5.775a5.262 5.262 0 01-4.001 1.941 5.272 5.272 0 01-4.061-1.812 9.15 9.15 0 01-1.045-9.94c1.259-2.656 2.681-4.721 5.817-3.95 3.95.968 5.303 3.17 5.303 7.986zm-3.641 25.362c-3.71.48-4.532-2.297-3.821-5.373.386-1.714 1.234-3.196 1.414-4.97.145-1.379 3.761-2.459 5.037-1.516 1.063.788 2.211 1.713 2.434 3.101a11.217 11.217 0 01-1.603 7.095 2.858 2.858 0 01-3.461 1.663zm-770.755 13.814c.445-1.98 2.142-2.828 4.403-1.962 2.982 1.139 4.618 3.821 6.16 6.323 1.054 1.714-.522 3.676-2.57 3.711-2.647.051-4.772 2.262-7.71 1.593-2.082-.48-3.239-1.713-3.359-4.652-.12-2.94.857-4.705 3.033-5.065 1.371.857.96 1.783.154 2.717a2.67 2.67 0 00-.188 3.684c1.019 1.363 2.33 1.071 3.649.489.762-.369 1.56-.656 2.382-.857 2.211-.463 1.996-.394.857-2.211-1.508-2.673-4.027-3.393-6.811-3.77zm1.045 25.021c.686-.111 1.354-.514 1.525.411a1.128 1.128 0 01-.182.972 1.124 1.124 0 01-.88.451 8.73 8.73 0 01-7.342-2.759c-1.517-1.714-1.577-4.216-.643-6.487.229-.446.557-.833.96-1.131a.912.912 0 011.345 0c.282.326.171.745 0 1.165-1.808 4.276.608 7.592 5.217 7.378zm11.215 7.3c-.129.857.462 2.108-.806 2.57-1.268.463-2.313.352-2.57-1.319 0-.06-.505 0-.711-.103a2.567 2.567 0 01-1.456-3.11c.531-1.757 2.21-1.38 3.624-1.457 1.55-.086 1.713.968 1.867 2.056.048.453.065.908.052 1.363z" fill="#3A4453"/><path d="M148.35 452.352c-1.911.137-3.136-.403-3.05-2.468.051-1.251-.103-2.648 1.816-2.57 1.534 0 3.144 1.885 3.299 3.427.205 1.911-1.003 1.68-2.065 1.611zm14.727 2.047c-1.165.103-2.004-.154-2.056-1.714 0-1.405 1.08-2.031 1.791-1.714.934.403 2.861-.471 2.784 1.534-.051 1.431-1.062 1.962-2.519 1.894zm-8.679.531c-.548-.162-1.31.317-1.447-.625-.095-.617.154-.908.813-.943 1.2-.068 1.243-1.234 1.663-1.97a.852.852 0 01.976-.532c.6 0 .566.489.583.9.103 1.877-.729 2.956-2.588 3.17zm6.289-11.696c.634.206 1.808 0 1.893 1.457.043.677-.608 1.44-.856.994-.857-1.482-3.059 1.662-3.187-1.08-.06-1.276.873-1.448 2.15-1.371z" fill="#3A4453"/><path d="M227.478 353.211c3.367-.763 6.28 1.602 9.424 2.922 6.931 2.896 13.871 3.521 21.042 1.071 2.2-.76 4.53-1.078 6.854-.934 3.769.248 7.179-.909 10.426-2.639.471-.258.96-.6 1.379-.36 2.956 1.713 6.486.959 9.536 2.407 2.356 1.114 3.427 2.837 2.57 5.382-1.636 4.807-4.506 9.074-5.997 13.975-.737 2.442-1.054 4.567.6 6.761a18.42 18.42 0 012.707 5.998c.934 3.111 0 6.195-.531 9.254-.651 3.916-2.742 6.718-6.623 8.038-.959.325-1.448 1.319-2.424 1.842-3.427 1.834-8.088-.334-9.707-4.199a33.25 33.25 0 01-2.519-13.573c.103-4.978-1.576-8.38-6.742-9.819a53.411 53.411 0 01-5.998-1.928c-4.592-1.92-9.261-1.097-13.896-1.363a2.46 2.46 0 00-.967.175 2.462 2.462 0 00-.824.537 16.43 16.43 0 01-8.276 3.607c-2.398.274-4.369-1.414-5.448-3.496-1.962-3.805-3.316-7.712-2.691-12.245.309-2.193.249-4.284.986-6.555 1.302-3.864 2.056-4.858 7.119-4.858z" fill="#9CE084"/><path d="M507.571 696.432c-1.765-.232-3.427.111-5.294-.857-4.601-2.451-5.346-4.43-2.211-8.389 2.185-2.751 5.312-3.822 8.628-4.456a1.212 1.212 0 011.353.48c1.277 2.168 3.23 2.005 5.286 1.585 3.856-.805 9.622 3.685 9.09 7.455-.308 2.117-2.81 3.076-4.626 3.051-4.129-.06-8.088 1.516-12.226 1.131zm-27.964 16.794a4.109 4.109 0 012.168.428c.574.283 1.302 0 1.088-.856-.617-2.391 1.371-2.108 2.493-2.245 2.108-.258 2.939 1.499 3.547 3.067.531 1.371-.18 2.228-1.654 2.699-2.998.96-5.885 2.382-9.132.951-.797-.359-2.331-.659-2.057-1.276.48-1.071.909-2.614 2.571-2.794.325-.011.652-.003.976.026zm46.453-7.446c-2.485.737-1.525 1.919-.343 2.656 2.467 1.534 2.75 3.025 1.148 5.587-.857 1.388-1.217 1.243-2.305.737-3.581-1.714-4.446-4.096-2.57-7.369.737-1.354 1.602-1.705 4.07-1.611z" fill="#967057"/><path d="M878.393 396.056c-.351-1.714.48-2.571 1.902-3.154a3.78 3.78 0 013.898.232 53.248 53.248 0 0013.708 5.844 12.13 12.13 0 003.427.522c3.667 0 6.794 3.848 6.1 7.558-.54 2.905-2.168 5.321-3.839 7.626-1.525 2.091-3.426.189-5.14-.154a4.125 4.125 0 01-1.988-1.414 28.628 28.628 0 00-12.174-8.26c-3.847-1.388-4.909-5.244-5.894-8.8zm16.809-16.324c-1.491.189-2.724-.437-4.009-1.063-3.907-1.91-3.847-3.136-.986-6.76a2.16 2.16 0 011.894-.6 13.534 13.534 0 016.973 5.475c.772 1.123-.299 2.194-1.405 2.64a8.931 8.931 0 01-2.467.308zm24.409 11.086c.239.969-.352 1.714-.729 2.571-.685 1.499-1.885 3.102-3.367 2.888-1.782-.266-2.399-2.357-2.801-4.036-.403-1.68.454-3.136 1.353-4.516 1.928 1.645 1.842-.968 2.742-1.217a2.203 2.203 0 012.116 1.457c.266.891.934 1.774.686 2.853zm1.036 18.562a10.842 10.842 0 01-.856 3.95c-.275.857-.789 1.311-1.757 1.028-1.216-.351-.968-1.002-.548-1.893a29.468 29.468 0 001.139-3.239c.206-.6-.419-1.714.934-1.594 1.071.137 1.148 1.02 1.088 1.748z" fill="#FFDA74"/><path d="M147.776 430.561c4.652-1.593 6.297 2.357 8.662 4.833.625.651.317 1.817-.986 1.714-1.713-.18-3.05.54-4.472 1.217a2.667 2.667 0 01-3.667-.814c-1.131-1.56-1.619-3.351.086-4.619 1.174-.857 1.011-1.44.42-2.356l-.043.025zm10.272 33.47c-.094-1.045-1.602-1.525-1.054-2.708a.86.86 0 01.857-.171c1.037.788.685 1.825.197 2.879z" fill="#FEFEFE"/></g><defs><radialGradient id="paint0_radial" cx="0" cy="0" r="1" gradientUnits="userSpaceOnUse" gradientTransform="rotate(68.917 91.379 263.105) scale(756.133 1176.2)"><stop offset=".249" stop-color="#7571A5"/><stop offset="1" stop-color="#D2D2D4"/></radialGradient><clipPath id="clip0"><path fill="#fff" transform="translate(127 216)" d="M0 0h809v519H0z"/></clipPath></defs></svg>