<svg width="4389" height="2906" fill="none" xmlns="http://www.w3.org/2000/svg"><path fill="url(#paint0_radial)" d="M0 0h4389v2906H0z"/><g clip-path="url(#clip0)"><path d="M2195.64 1247.92c1.1 19-.44 38.07-4.57 56.65-3.53 16.06-6.94 32.56-14.6 47.38-8.45 16.45-14.61 34.07-25.46 49.28-15.74 21.9-31.95 43.32-51.91 61.5a364.373 364.373 0 01-63.49 45.26c-17.67 10.22-36.65 17.04-55.24 25.05-13.75 5.85-27.54 11.61-41.37 17.27-4.53 1.83-9.45 2.75-13.95 4.63-2.94 1.24-7.66.73-7.3 6.52.15 1.95-3.38 2.82-4.72 1.8-8.23-6.38-15.87-.15-23.49 1.1-19.03 3.13-38.15 6.15-57.36 4.62-26.76-2.17-53.53-4.11-79.74-10.81a439.27 439.27 0 01-47.68-15.94 390.93 390.93 0 01-47.28-22.36 203.46 203.46 0 01-49.72-38.43c-7.86-8.2-16.67-15.35-24.34-23.85-8.64-9.73-14.21-21.02-21.32-31.49a282.757 282.757 0 01-16.3-28.64 215.697 215.697 0 01-17.28-46.24c-3.67-14.43-9.08-28.45-12.92-42.85-3.07-11.47-6.67-22.78-8.71-34.54-1.54-8.73-4.87-17.03-5.94-25.96-1.97-16.58-6.16-32.78-7.3-49.6-.86-13.41-.66-26.77-1.17-40.13-.73-18.25 4.87-35.41 9.73-52.52 4.5-17.12 11.03-33.64 19.47-49.2a306.59 306.59 0 0127.31-40.16c9.73-11.92 20.83-22.581 29.64-35.017 6.23-8.809 14.92-14.601 22.19-21.902 8.08-8.177 16.45-16.037 25.34-23.435 7.95-6.62 15.3-13.896 24.33-19.055 11.51-6.571 23.88-11.219 36.02-16.354a224.061 224.061 0 0143.37-12.922c16.52-3.334 32.85-7.545 49.81-8.883 14-1.119 28.13-3.066 41.96-2.239 20.2 1.241 40.49.974 60.55 6.327 25.89 6.96 51.86 13.263 76.53 24.02 17.26 7.495 35.44 13.166 51.81 22.194 13.66 7.496 27.67 14.383 41.37 21.903 17.04 9.345 30.55 22.754 44.83 35.189 11.29 9.735 20.25 22.264 28.55 34.924 12.97 19.83 26.38 39.45 35.75 61.3 6.13 14.29 11.05 29.2 15.94 43.8 3.53 10.62 6.49 21.42 9.07 32.3 3.5 14.89 5.9 30.02 7.18 45.26 1.15 14.78 3.22 29.4 2.41 44.25zM651.524 1466.11c2.969-16.23 31.636-57.29 40.811-68.29 13.458-15.86 30.274-27.76 47.188-39.13a303.61 303.61 0 0148.842-25.87c12.922-5.62 26.04-9.88 39.327-14.18 5.889-1.9 11.487.38 17.254-.81 18.763-3.84 37.867-2.14 56.606-1.02a205.764 205.764 0 0154.585 11.75c10.854 3.78 21.343 8.13 31.808 12.66 13.235 5.74 24.335 14.97 36.185 22.87a182.81 182.81 0 0135.27 32.37c.97 1.12 1.89 3.04 4.08 1.58 5.65-3.77 12.17-5.74 18.23-8.88 6.74-3.5 12.95-11.49 23.12-5.91 2.63 1.46 8.54-2.7 12.8-4.6a258.07 258.07 0 0160.26-17.43c25.62-4.59 51.72-5.94 77.68-4.01 24.6 1.81 48.44 9.31 69.65 21.9 16.57 9.9 32.34 20.69 45.02 35.29 9.56 11 18.03 22.68 18.54 38.47.32 9.15-5.47 14.38-10.41 20.01a194.213 194.213 0 01-64.79 47.18c-12.58 5.84-25.33 11.61-37.74 17.77-11.24 5.6-22.85 10.68-33.78 17.03-15.01 8.67-31.2 14.73-46.94 21.78-26.63 11.9-54.15 21.64-80.31 34.51-1.52.63-2.87 1.6-3.96 2.82-1.09 1.23-1.9 2.69-2.34 4.26-8.72 32.08-25.73 59.82-44.25 87.03a564.42 564.42 0 01-41.64 52.64c-4.63 5.13-9.76 9.79-15.3 13.92-8.059 6.23-13.34 15.23-22.052 20.88a246.78 246.78 0 01-63.079 29.69c-31.248 9.42-63.542 9.42-95.543 7.64a160.662 160.662 0 01-64.734-18.93c-19.469-10.08-37.94-21.08-54.05-36.36a238.404 238.404 0 01-24.993-27.06 13.492 13.492 0 00-6.104-4.73 13.395 13.395 0 00-7.695-.6c-19.469 2.84-38.938 6.45-58.698 8.34-14.115 1.37-28.084 3.8-42.272 5.02a445.4 445.4 0 01-50.23.85c-22.559-.66-45.532-1.39-66.34-11.54-18.057-8.83-30.882-22.73-34.751-43.34-3.505-18.57 0-36.5 4.697-54.41 3.82-14.6 12.971-25.65 21.391-37.46a158.1 158.1 0 0120.88-23.38 253.492 253.492 0 0129.544-24.34c10.343-7.15 19.469-16.16 29.057-24.33a169.126 169.126 0 0145.752-27.63 141.006 141.006 0 0020.126-11.24c11.121-6.74 23.192-10.8 35.263-14.94a98.923 98.923 0 0011.389-5.18 9.25 9.25 0 019.15-.3c3.797-1.72 6.279-2.43 6.328-3.72l1.168-8.64z" fill="#3A4453"/><path d="M644.88 1487.4c-1.752-.21-4.867.34-5.938-.68-1.558-1.63-1.898.12-2.58.61-5.67 3.89-12.168 5.43-18.69 7.3a103.4 103.4 0 00-28.229 13.65c-10.806 7.18-22.925 11.66-34.338 17.5-11.828 6.06-21.66 14.72-32.027 22.73-12.338 9.49-23.533 20.42-36.504 29.2a149.476 149.476 0 00-24.019 21.59c-11.949 12.48-22.901 26.04-30.201 41.76a113.849 113.849 0 00-8.786 33.71 72.423 72.423 0 00.828 27.37c5.135 20.25 18.398 32.37 37.599 38.94 13.944 4.87 28.327 6.18 42.953 7.5a368.078 368.078 0 0045.898.92 337.516 337.516 0 0045.727-5.04c11.56-2.02 23.362-3.11 35.019-4.86 12.85-1.83 25.772-3.19 39.863-4.87-7.301-9.73-14.042-18.74-18.52-29.2-.852-1.97-2.433-3.48-6.132-2.63-18.058 4.04-36.212 7.86-54.513 10.41a156.665 156.665 0 01-67.46-4.5c-11.924-3.58-23.265-7.3-33.34-14.79-10.975-8.06-15.77-19.23-17.157-32.22a56.746 56.746 0 013.232-27.93 56.816 56.816 0 0116.237-22.94c6.23-5.62 11.389-12.43 17.279-18.49a229.495 229.495 0 0138.597-30.96 221.036 221.036 0 0029.203-21.9c14.042-13.02 30.517-22.73 50.643-23.9 5.597-.34 12.776-14.28 14.285-22.05l1.071-6.23z" fill="#D9A672"/><path d="M1099.38 811.574c2.16 18.982-1.07 38.767-5.96 58.016-2.87 11.268-3.99 23.728-12.29 33.243a4.128 4.128 0 00-1.22 2.434c.49 14.82-12.39 22.097-18.3 33.218-5.91 11.122-14.6 19.323-22.37 28.425a118.59 118.59 0 01-33.14 26.258 391.344 391.344 0 01-48.673 23.872c-19.761 7.57-39.814 14.29-59.891 21a363.373 363.373 0 01-54.95 13.73 171.181 171.181 0 01-53.175-.61 268.013 268.013 0 01-46.968-10.71c-10.44-3.53-21.026-6.37-31.053-12.17-10.026-5.79-20.296-11.38-30.736-16.54a128.405 128.405 0 01-26.453-19.034 462.402 462.402 0 01-50.181-49.889c-15.429-18.252-26.283-39.278-35.409-60.986-4.502-10.756-10.367-20.904-13.653-32.293-4.867-16.816-10.148-33.389-12.898-50.789-3.528-22.365-3.188-44.827-2.433-67.24.438-13.726 3.626-27.33 6.741-40.86 4.697-20.248 9.004-40.617 17.765-59.526 4.867-10.513 9.345-21.221 15.283-31.344 6.254-10.66 11.657-21.903 19.055-31.783a94.18 94.18 0 0126.186-24.336c11.754-7.179 23.362-14.602 35.019-21.902 9.321-5.817 20.734-8.201 31.029-12.509 9.077-3.821 19.03-2.434 28.205-5.573a9.737 9.737 0 0111.633 4.673c2.044 4.623 4.404 2.871 6.4 1.727a86.681 86.681 0 0124.969-8.493c8.006-1.752 16.061-1.411 23.971-2.093 13.993-1.216 28.108-3.066 42.247-1.825 20.515 1.801 41.371 2.434 61.4 6.255a141.15 141.15 0 0140.909 13.871c12.484 6.717 26.477 10.002 38.377 18.276 8.688 6.036 17.206 12.168 25.48 18.812 14.604 11.584 24.164 27.572 35.754 41.785a175.996 175.996 0 0123.53 39.351c6.11 13.506 12.82 26.769 16.11 41.638a130.7 130.7 0 007.86 20.881 343.271 343.271 0 0113.75 45.362 340.904 340.904 0 017.86 39.156c1.19 8.98.22 18.228.22 28.522zm447.29 1044.986c-14.6.7-27.91-4.12-41.37-9.23a63.172 63.172 0 00-25.62-4.39c-8.75.33-17.34 2.48-25.21 6.31-17.38 8.33-35.12 16.38-54.61 15.73-31.35-1.05-54.86-20.98-58.9-53.13-3.77-29.76 14.26-55.07 43.81-63.95 20.95-6.26 34.77-21.47 46.09-39.48 4.26-6.76 7.18-14.6 14.6-19.3a16.6 16.6 0 017.06-2.75c20.78-1.65 41.71-3.21 62.42-1.24a80.572 80.572 0 0143.44 18.01c9.74 7.89 21.32 13.53 31.83 20.54a63.579 63.579 0 0118.57 18.25c4.86 7.3 8.16 15.53 9.69 24.17 1.73 8.82 2.66 17.78 2.79 26.77.51 6.87-1.64 13.68-5.98 19.03a202.184 202.184 0 01-50.35 42.34c-5.77 3.43-12.1 2.24-18.26 2.32zm1156.04-928.955c0 15.429 0 28.643-5.28 41.225a57.557 57.557 0 01-28.04 29.568c-4.06 2.042-6.37 5.472-9.98 7.692-19.81 12.17-40.83 14.6-64 13.6-24.14-1.02-42.54-13.31-60.84-24.821a104.674 104.674 0 01-46.24-61.399 147.129 147.129 0 01-6.16-56.751c2.44-22.779 12.98-42.199 32.57-55.535 11.77-8.031 24.94-13.287 37.96-18.884 21.9-9.394 43.81-6.23 66.15-2.434 17.54 2.969 29.73 14.066 42.78 24.336 3.53 2.774 6.84 5.816 10.24 8.761 14.44 12.46 20.57 29.519 24.73 47.114 3.84 16.183 7.49 32.683 6.11 47.528zM477.959 972.798c17.814-1.776 32.002 8.785 45.849 19.955 4.868 3.846 9.272 8.157 13.847 12.317 16.354 14.87 18.082 33.63 14.189 53.85-2.434 12.05-6.352 23.9-14.213 33.1-8.201 9.73-17.425 18.15-30.42 22.83a64.96 64.96 0 01-46.798-.76c-12.922-4.87-26.77-9.05-37.307-18.64-11.097-10.03-13.677-24.02-16.743-37.82-5.159-23.12 4.867-40.37 20.637-55.65.681-.66 1.849-1.51 1.776-2.12-1.533-12.168 7.885-14.31 15.794-19.201 10.124-6.23 20.564-8.056 33.389-7.861zm729.591 28.932c-12.46.51-22.39-5.91-33.56-4.523a3.12 3.12 0 01-1.43-.148 3.155 3.155 0 01-1.22-.776 3.157 3.157 0 01-.85-2.677c-.03-.485.04-.971.22-1.423.18-.452.45-.859.81-1.192a3.24 3.24 0 012.67-.865c7.3.267 14.87-.95 22.17.73 1.92.438 3.77 1.192 5.43 0 3.43-2.239 8.95 1.387 10.68-2.239a51.06 51.06 0 003.99-17.035c.46-5.184 2.43-10.173 1.7-15.527-.08-.479-.05-.971.09-1.437.14-.466.39-.893.72-1.248.33-.356.74-.63 1.2-.801.45-.172.94-.236 1.42-.188 2.27 0 3.27 1.314 3.73 3.528a174.716 174.716 0 014.04 19.883c.27 3.528 4.21 4.721 3.55 8.639-.32 1.801 2.02.438 3.21 0 5.92-2.628 11.85-5.184 17.74-7.836 3.09-1.412 6.92-2.604 8.64.633 1.73 3.236.59 6.327-3.55 8.493-5.79 2.993-10.8 7.422-16.45 10.732-4.11 2.433-4.28 5.237-2.43 8.857 2.43 5.32 5.28 10.43 8.51 15.31 1.05 1.41 1.8 3.01 2.22 4.72.42 1.7.49 3.47.22 5.21-.2 1.85 1.55 4.67-1.54 5.47-3.09.81-6.47.49-7.44-2.63-2.12-6.76-8.45-10.05-11.9-15.74-4.09-6.69-8.42-6.67-12.78-.32-3.75 5.5-8.08 10.44-12.29 15.55-1.95 2.44-3.09 6.09-6.86 4.24-3.77-1.85-2.29-5.67-1.78-8.5a76.166 76.166 0 0111.12-26.89zm194.2-196.558c-4.25.584-5.64-1.168-6.23-5.549-1.02-7.617-1.26-15.356-4.06-22.754-4.5-11.949-11.73-16.037-24.34-13.068-4.82 1.07-9.69 1.882-14.6 2.434-2.63.34-5.52.34-5.96-3.383-.37-3.066 1.07-4.162 4.09-5.476 7.8-3.683 15.15-8.256 21.9-13.628 8.96-6.668 10.22-17.035 12.87-26.769 1.49-5.379.76-10.927 1.85-16.184.51-2.433 0-7.033 4.87-6.741 3.6.219 4.31 3.602 4.87 6.206 2.04 10.586 8.56 19.931 9.08 30.785.41 9.223 6.96 11.121 13.48 11.705 5.6.487 11.85 2.434 17.25-2.068 1.17-.974 3.73-.633 5.6-.438 1.87.194 5.23-1.606 5.26 2.652 0 2.702 0 4.868-3.46 6.06-10.61 3.821-20.08 10.002-29.74 15.721a12.232 12.232 0 00-3.99 3.866 12.259 12.259 0 00-1.85 5.236c-1.63 9.077-3.6 18.13-2.82 27.451.29 3.261-.95 4.526-4.07 3.942zm986.24-170.179c-2.65.438-3.4-3.188-4.23-5.524-3.31-8.214-7.39-16.1-12.17-23.557-2.75-4.648-6.3-5.5-11.05-5.841-8.66-.657-17.03 2.093-25.67 1.582-2.97-.17-5.7 0-6.18-4.113-.46-3.772 1.65-4.867 4.43-6.011 11.41-4.867 23.02-9.369 35.28-11.024 6.62-.9 8.3-5.208 9.25-9.734 2.02-9.734 4.24-19.469 3.14-29.519-.27-2.434-.41-5.062 2.61-5.914 3.01-.852 4.59 1.46 5.71 3.431 5.67 9.954 12.17 19.469 16.16 30.298 2.73 7.155 8.08 8.98 14.6 9.418 2.44.146 4.87-.219 7.31 0 2.77.365 6.47 1.071 6.61 4.04a6.502 6.502 0 01-1.37 3.951 6.539 6.539 0 01-3.49 2.304c-11.22 2.701-18.28 12.752-29.06 16.305a5.447 5.447 0 00-2.7 2.307 5.434 5.434 0 00-.68 3.485c.41 5.718-1.88 11.17-1.58 17.035.14 2.993-1.07 6.643-6.92 7.081zm173.59 731.587c-5.98-.91-11.22-1.78-16.47-2.44-3.34-.41-6.67-2.14-6.28-5.11a6.609 6.609 0 012.52-3.82 6.634 6.634 0 014.39-1.29c5.26.17 10.56-.17 15.84 0 4.87.27 8.18-1.07 9.35-6.18.4-1.34 1.01-2.62 1.8-3.77 3.48-6.11 9.3-6.67 12.8-.78s6.57 9.95 14.21 6.54c2.19-.99 6.28-1.33 7.43 2.24 1.36 4.29-2.85 5.55-5.43 5.97-5.89.94-5.65 3.57-3.53 7.86a34.31 34.31 0 013.24 9.17c.41 2.43 1.51 5.91-.81 7.42-2.31 1.51-5.72-.19-7.76-2.07-4.09-3.69-9.13-5.57-13.87-7.95-6.77-3.36-10.56-1.41-11.98 6.13-.94 5.09-4.86 3.19-6.47 2.24-6.37-3.6-6.13-8.42 1.02-14.16zm-328.22-581.654c.64 12.703-7.08 26.964-17.79 29.471-8.73 2.068-13.87-.73-19.29-6.425-12.17-12.776-14.12-30.176-4.51-43.805 5.7-8.128 11.88-9.345 21.03-4.672a94.989 94.989 0 0117.04 11.487c4.64 3.747 3.38 9.028 3.52 13.944zm-952.77-346.47c-7.67-2.434-17.6-5.598-25.27-11.876-4.57-3.748-5.28-11.584-3.52-17.96a53.623 53.623 0 015.98-11.9c.81-1.412 2.22-3.31 3.53-3.456 9.25-.998 18.84-3.821 27.77-1.12 8.93 2.702 13.5 10.246 15.28 19.469 2.19 11.122-10.27 26.648-23.77 26.843zm1049.66 885.314c3.67-.27 6.76-.32 9.36 2.75 2.61 3.07 3.97-2.24 7.31-1.44 9.39 2.44 15.16 11.05 13.6 22.22-.69 5.83-3.19 11.3-7.15 15.63a27.987 27.987 0 01-14.92 8.51c-3.66.88-7.48.81-11.11-.2a22.19 22.19 0 01-9.61-5.56 22.215 22.215 0 01-5.7-9.54 22.095 22.095 0 01-.35-11.1c1.26-4.47 2.97-8.81 5.08-12.95 2.66-5.69 6.55-9.8 13.49-8.32zm-385.61 409.79c-.15-5.47 1.7-10.81 5.2-15.02 3.5-4.21 8.42-6.99 13.83-7.83 1.17-.22 2.19 0 2.63-1.68 2.14-7.93 6.86-3.6 9.25-1.02 10.73 11.58 10.68 30.39.7 42.68a13.793 13.793 0 01-6.48 4.39c-2.54.81-5.25.88-7.83.19-10.97-2.09-17.44-10.66-17.3-21.71zM1321.96 485.253c-1.32-7.301 12.46-20.588 20.15-20.832 2.43 0 5.16-.292 5.79 2.799.63 3.091-1.27 4.015-4.11 4.527-6.33 1.192-9.52 5.743-12.44 11.218-2.92 5.476-.75 8.713 3.38 11.706.98.63 2.04 1.129 3.14 1.484 4.46 1.631 8.59 6.863 13.68 1.509 4.01-4.21 5.06-14.285 2.04-19.347-1.53-2.433-4.86-5.354-1.43-7.787 2.99-2.093 5.47 1.387 7.74 3.504 6.91 6.473 3.74 19.98-1.98 28.522-4.06 6.035-11.92 6.4-20.51 2.725-8.59-3.674-15.43-8.955-15.45-20.028zm714.89 2.873c-2.6.438-4.87 4.575-7.54.998-2.24-3.066.7-5.086 2.43-7.155 11.15-13.701 27.23-13.19 39.69-3.942a5.005 5.005 0 011.71 2.993c2.43 8.445.68 16.84-1.59 24.75-2.26 7.909-10.7 6.716-16.86 7.519-6.16.803-13.82-5.207-16.16-11.024-1.85-4.526-1.58-9.272-1.68-14.139zm-763.88-20.831c15.33 0 20.9 5.476 21.9 18.568.85 11.949-8.27 16.086-19.61 14.48a25.013 25.013 0 01-18.09-10.586 17.33 17.33 0 01-2.17-8.537 17.37 17.37 0 012.32-8.498c2.43-4.867 7.03-5.938 12.17-5.5 1.04.17 2.29.073 3.48.073zM612.732 1187.66c1.217 6.28-.998 11.29-5.792 13.87-5.451 2.95-10.927.12-15.818-2.97-1.339-.85-2.434-2.43-3.87-2.82-4.38-.9-4.867-1-2.871-4.28 1.29-2.14-.487-2.92-.657-4.33-.463-4.26.973-7.45 5.427-5.89 3.504 1.26 3.261 0 3.747-2.44 1.169-6.03 5.5-7.15 10.976-6.84 5.476.32 7.787 3.68 8.761 8.28.3 2.46.332 4.95.097 7.42zM2348.89 1754.1c1.02 5.28-1.17 7.67-7.45 7.3-8.25-.51-12.78-4.23-12.78-11.73 0-7.49.98-8.61 10.37-8.59 7.81-.02 9.88 2.58 9.86 13.02zm-48.41-249.88c2.76.18 5.37 1.33 7.35 3.26 1.98 1.93 3.21 4.5 3.46 7.26 0 .97 0 2.14-1.05 2.28-1.13.19-2.29-.06-3.24-.7a5.937 5.937 0 00-2.89-2.11 5.992 5.992 0 00-3.58-.08c-3.87.95-6.25-1.68-6.47-5.6-.25-4.7 3.26-4.36 6.42-4.31zm-566.76-873.074c-.53 5.233-7.57 3.334-8.86 7.958a6.488 6.488 0 01-5.91-.852c-2.43-2.263-.73-4.453.36-6.351 2.07-3.651 4.87-6.62 9.74-5.573 1.15.281 2.2.883 3.03 1.735.83.853 1.4 1.922 1.64 3.083z" fill="#3A4453"/><path d="M1919.16 1448.83c5.79 2.17 11.46 3.94 16.84 6.38 18.47 8.35 35.56 18.03 46.24 36.72 5.11 8.91 12.34 17.18 22.2 21.49-11.54 5.01-23.1 9.86-34.54 15.02a563.15 563.15 0 01-53.54 20.78c-6.45 2.16-9.56-1.12-11.61-4.87-7.3-13.29-18.88-22.19-30.05-31.9-14.28-12-27.67-25.02-40.08-38.94-12.78-14.85-21.54-31.52-29.2-49.26-7.84-18.27-13.32-37.43-18.82-56.31-5.64-19.47-17.74-34.8-25.87-52.49a125.189 125.189 0 00-26.77-38.6c-6.1-5.86-13.4-10.15-19.46-16.06-9.86-9.74-18.3-21.05-28.23-30.69a277.007 277.007 0 01-39.45-48.96c-10.25-15.8-22.56-30.18-34.56-44.76-6.4-7.78-11.56-16.54-18.28-24.21-4.45-5.11-9.02-10.1-13.82-14.84-12.36-12.17-26.33-22.54-40.06-33.15-3.21-2.43-9.46-2.43-9.44-6.81 0-3.34 4.36-6.45 6.26-9.96 6.91-12 15.07-23.25 24.33-33.56 8.59-10.14 17.04-20.536 26.77-29.906 1.8-1.776 3.73-1.046 5.79-.267 16.24 6.035 32.05 13.141 44.78 25.013 9.18 8.57 17.82 17.82 26.5 26.97 8.3 8.71 15.63 18.18 23.39 27.25 8.98 10.47 16.18 22.42 24.85 33.15a166.702 166.702 0 0037.45 34.95c6.18 4.11 11.46 9.73 17.5 14.4a313.168 313.168 0 0032.78 21.54c13.12 7.62 23.53 18.86 33.53 30.3 13.54 15.43 26.77 30.9 44.51 42.25 11.17 7.08 22.03 15.01 33.35 21.9 8.24 5.08 18.08 7.47 26.76 11.75 10.79 5.26 22.73 5.16 34.08 8.15a51.86 51.86 0 0118.3 9.96c9.32 7.15 19.9 11.8 29.78 17.76 17.04 10.22 33.78 19.81 46.97 35.7 12.17 14.61 20.78 31.13 32.03 46.07 4.65 6.18 8.9 12.66 13.53 18.84 1.63 2.14 3.53 5.28 6.96 2.63 3.43-2.66.63-5.55-.73-7.52-5.79-8.25-11.97-16.21-17.6-24.63-6.76-10.08-12.8-20.59-20.39-30.25-13.12-16.65-27.4-31.44-46.24-41.37-10.93-5.7-21.58-11.9-32.46-17.69-2.04-.89-3.75-2.39-4.87-4.31 4.21-1.61 7.3 1.77 10.32 2.87 9 3.53 18.59 5.3 28.25 5.23 2.57.3 5.09.89 7.52 1.78 2.44.49 5.43 3.04 6.67-.22 1.24-3.26-2.68-3.75-4.99-4.31a236.92 236.92 0 01-32.63-10.24 115.973 115.973 0 00-31.4-7.11c-3.82-.39-5.72-3.07-7.3-6.08a4.525 4.525 0 00-2.23-2.19c-.98-.45-2.08-.54-3.12-.25-2.68.37-1.56 2.19-1.53 3.8 0 3.65-2.68 1.87-4.04 1.58a175.785 175.785 0 01-52.98-21.44c-12.56-7.59-24.8-15.72-37.14-23.65-12.34-7.94-22.12-19.47-31.42-30.76-12-15.15-26.63-28.01-43.19-37.97-14.44-8.37-27.36-19-40.72-28.98-8.46-6.48-16.58-13.4-24.33-20.71a98.093 98.093 0 01-18.94-21.56c-5.01-8.42-12.17-15.19-18.32-22.81a717.452 717.452 0 00-49.31-53.1c-15.62-15.84-34.8-24.868-55.29-32.729 9.87-9.426 19.75-18.852 29.64-28.278.49-.462 1.22-1.119 1.75-1.046 8.47 1.484 11.32-6.23 16.43-10.124 8.93-6.839 17.79-13.677 28.57-17.619 2.44-.901 2.87-.244 4.87 1.07 12.41 8.226 25.11 15.965 37.45 24.336 14.07 9.564 24.02 22.341 33.93 35.409 15.47 20.441 26.25 43.511 37.25 66.531 9.4 19.69 16.14 40.77 28.16 59.04a76.465 76.465 0 0019.88 19.74c18.55 13.12 37.14 26.14 57.27 36.67 8.53 4.69 17.45 8.65 26.64 11.85a77.114 77.114 0 0133.9 22.56c14.61 16.26 31.4 30.13 48.04 44.15 6.01 5.06 9.11 12.63 14.99 18.01a76.027 76.027 0 0021.01 13.94c12.75 5.67 24.82 12.88 37.16 19.47 8 4.28 16.28 7.86 23.26 14.07 5.53 4.86 9.45 11.02 14.19 16.45 8.62 9.9 18.06 19.05 26.04 29.59 5.72 7.54 7.3 16.01 9.47 24.58.82 3.26.61 6.96 4.09 9.2 2.43 1.58.17 3.19-.61 4.33-6.09 8.64-11.85 17.55-18.6 25.65-10.63 12.78-20.51 26.21-32.82 37.57-4.29 3.97-5.8 4.87-9.57-1.21-14.14-22.49-31.22-42.4-53.34-57.8-13.34-9.25-25.53-20.1-38.48-29.93a115.069 115.069 0 00-28.35-14.82c-15.6-6.09-31.39-11.66-46.87-18.21a56.53 56.53 0 01-28.81-27.13c-4.87-9.74-11.76-17.5-18.16-25.77-12.17-15.68-26.77-29.06-41.1-42.57-12.8-12.16-28.21-21.12-39.94-34.43-12.95-14.6-23.92-30.37-22.95-51.33.15-3.33-.68-5.74-4.69-5.52-4.02.22-2.44 3.48-2.44 5.43-1.51 21.29 8.25 37.94 21.71 53.27 6.27 7.54 13.3 14.41 20.98 20.51 7.64 5.4 14.95 11.25 21.9 17.53 11.15 10.68 22.29 21.34 33.05 32.41 5.4 5.55 9.73 12.17 14.89 17.98 5.7 6.38 8.86 14.29 13.02 21.49 8.76 15.14 22.71 22.95 37.92 29.21 17.49 7.1 35.48 13.06 52.81 20.58 9.65 4.3 18.44 10.3 25.96 17.72 11.76 11.41 25.53 20.27 38.28 30.4 9.57 7.63 18.05 16.53 25.22 26.45 5.33 7.3 11.29 14.26 15.38 22.63 1.6 3.34 1.19 4.46-1 6.01-11.51 8.25-23.1 16.38-34.66 24.58-2.99 2.14-5.57 1.32-6.57-1.8-5.96-18.91-19.13-31.76-34.65-43.1-14.02-10.24-27.14-21.9-43.03-29.2a253.513 253.513 0 00-43.61-14.99c-19.98-5.04-31-19.47-39.45-37.04-5.81-12.17-12.16-23.85-26.77-28.28-6.81-2.09-13.04-.49-19.46.51-.43.05-.84.19-1.21.4-.37.21-.7.49-.96.83-.26.33-.46.72-.57 1.13-.11.41-.14.84-.09 1.27.34 5.84-.51 11.48 2.44 17.33a176.646 176.646 0 0117.03 55.36c3.82 24.72 14.36 45.63 28.84 65.27 6.91 9.42 12.51 19.93 20.32 28.5 9.27 10.14 20.22 18.76 30.52 27.93 2.31 2.07 5.59 2.02 6.76-.65.74-1.74 1.11-3.62 1.06-5.51a13.26 13.26 0 00-1.3-5.45 2.174 2.174 0 00-2.02-.12c-5.5 5.58-5.87.44-7.3-3.28-1.44-3.73-5.72-4.75-8.42-7.3a235.504 235.504 0 01-32.95-41.62c-8.76-13.65-17.26-27.67-21.03-43.27-4.28-17.69-8.37-35.5-12.85-53.15-2.14-8.46-6.54-16.37-9.73-24.55-.83-2.07-2.83-4.28-.17-6.4 1-.67 2.15-1.07 3.34-1.17 1.2-.1 2.4.1 3.5.58 7.5 2.12 13.88 7.09 17.76 13.85 5.43 8.96 9.91 18.52 15.28 27.5a53.104 53.104 0 0030.69 22.88c15.75 5.03 31.64 9.73 46.73 16.28 16.28 6.96 29.69 18.71 43.63 29.47 7.64 5.91 16.16 10.95 21.08 19.71 4.08 7.3 7.86 14.6 11.68 22.05.31.51.45 1.12.39 1.72-.07.6-.34 1.16-.76 1.59-9.73 10.1-22.02 9.98-32.34-.2-7.84-7.76-13.56-17.15-20.32-25.74-9.86-12.56-24.34-19.06-38.5-25.43-8.2-3.68-16.7-6.72-25.19-9.74-3.53-1.22-8.32-2.55-10.56 1.02-.95 1.79-1.37 3.81-1.19 5.82.18 2.02.94 3.93 2.19 5.52 3.11 5.2 5.57 10.77 7.3 16.58 4.26 12.75 12.58 23.33 20.37 34.21 5.64 7.86 14.09 12.17 20.59 18.64a5.408 5.408 0 003.89 1.63 5.408 5.408 0 003.89-1.63c3.73-3.57-.87-4.43-2.43-6.18-17.79-18.98-33.41-39.18-41.86-65.22z" fill="#F0C390"/><path d="M2153.27 1378.65c-3.52-3.58-2.72-7.55-3.38-10.78a50.677 50.677 0 00-13.77-26.41 367.918 367.918 0 01-29.62-33.63c-9-11.41-21.56-17.62-34.39-23-14.89-6.23-28.81-14.31-43.41-21.07a42.485 42.485 0 01-18.38-16.58c-7.93-13.16-20.63-21.14-32.27-30.27a130.89 130.89 0 01-14.43-14.6c-14.26-15.33-29.37-29.52-50.3-36.07-17.84-5.57-33.58-15.62-49.16-25.94a364.9 364.9 0 01-35.02-24.87 82.645 82.645 0 01-20.24-27.28c-3.83-7.59-6.84-15.6-10.27-23.51 10.02.83 18.34 5.55 27.03 9.2 10.66 4.45 21.91 6.79 32.59 12 14.26 7.01 27.67 15.28 41.37 23.14 12.65 7.3 25.04 14.85 35.17 25.38a183.46 183.46 0 0119.17 23.63c6.65 9.74 17.04 14.8 25.29 22.59 3.67 3.5 8.64 5.62 12.68 8.78 10.31 8.13 22.17 13.65 33.75 19.47 9.91 4.87 18.2 12.17 27.57 17.72 14.43 8.69 29.21 17.03 40.84 29.52 6.52 6.98 11.63 15.21 17.62 22.68 8.71 10.85 20.68 15.13 32.63 20.05.36.22.77.37 1.19.43a3.107 3.107 0 002.38-.63c.34-.27.61-.59.81-.97 1.03-2.11-1.24-3.04-2.43-3.67a103.515 103.515 0 01-25.99-19.76c-6.43-7.08-13.24-13.85-19.47-21.22-13.19-15.73-31.39-25.12-48.23-36.19a341.404 341.404 0 00-36.99-21.9c-18.67-9.13-34.76-22.2-50.67-35.19-7.52-6.16-12.8-15.07-18.86-22.93-9.23-11.95-20.96-20.54-33.68-28.59-11.37-7.3-22.78-14.43-34.49-21a198.04 198.04 0 00-58.4-22.42c-5-1.07-9.89-2.61-14.61-4.57-3.38-1.32-8.9 3.72-10.48-3.75-.98-4.65-4.24-8.76-6.06-13.26a225.812 225.812 0 00-27.19-47.97c-8.83-12.168-18.23-23.971-27.28-35.992-6.59-8.761-15.67-14.286-24.19-20.37-8.52-6.084-16.47-13.944-27.25-16.743-.78-.219-1.32-1.289-1.98-1.947 4.09-1.07.95-6.473 5.28-8.03a464.462 464.462 0 0162.4-17.644c13.36-2.726 26.94-3.699 40.21-6.692 3.06-.706 5.69-.779 5.91 4.283.34 8.323 8.91 11.267 13.02 17.254 11.02 16.037 26.45 28.424 36.97 44.948 6.27 9.735 9.46 20.808 13.31 31.637 3.72 10.318 5.38 21.296 12.82 30.326 5.09 6.18 11.71 10.34 17.18 15.96 10.22 10.51 22.9 18.01 35.46 25.36 6.83 4.23 13.16 9.23 18.86 14.89 7.93 7.47 16.36 14.29 25.02 20.96a71.839 71.839 0 0119.1 22.02c11.1 20.3 28.01 30.91 50.26 35.34 12.16 2.43 24.99 4.86 35.43 12.36a129.502 129.502 0 0133.1 34.85 75.146 75.146 0 0020.19 21.51 75.315 75.315 0 0026.92 12.07c4.16 1 7.89 3.94 11.76 6.11.93.77 2.12 1.16 3.33 1.1 1.22-.07 2.36-.58 3.21-1.44 2.44-2.44.25-4.16-1.21-6.13-5.04-6.87-13.32-7.11-20.25-9.74a65.506 65.506 0 01-32.81-25.24 145.545 145.545 0 00-38.11-40.1c-11.09-7.57-24.33-9.15-36.7-12.92-9.12-2.75-19.08-2.83-27.45-7.99-8.88-5.5-14.6-13.92-20.2-22.43a118.736 118.736 0 00-30.9-31.98c-7-5.14-13.45-10.99-19.23-17.47-9.51-10.32-22.75-14.99-33.48-23.34-19.84-15.45-39.6-30.13-47.02-57.094a111.698 111.698 0 00-30.98-52.857c-10.93-10.148-18.74-23.29-29.52-33.754a6.645 6.645 0 01-2.16-3.253 6.574 6.574 0 01.07-3.902c1.26-2.969 4.21-1.217 6.35-1.363 7.47-.559 14.89-3.066 22.48-.17 2.56.973 7.5-1.825 5.8 4.575-.3 1.047 1.24 1.533 2.09 1.217 12.34-4.697 14.92 6.327 19.05 12.849a197.047 197.047 0 0113.39 26.672c7.3 16.841 18.81 30.639 35.19 39.084 11.63 6.035 20.66 15.648 32.37 21.367a102.547 102.547 0 0126.4 17.429c4.52 4.3 8.42 9.21 11.58 14.6 6.28 10.7 14.61 20 21.15 30.54 5.99 9.49 17.35 14.33 28.77 16.21 21 3.48 39.88 12.85 59.5 20.22 7.88 2.97 12.34 8.78 16.13 15.84 9.96 19.17 24.31 35.7 41.89 48.26 9.73 6.86 20.34 13.6 33.14 13.94 2.87 0 2.44 1.81 3.07 3.65a106.96 106.96 0 013.87 25.07c.95 13.73 3.06 27.35 3.38 41.2.73 30.35-4.87 59.62-12.17 88.83-4.35 17.59-13.77 32.66-20.42 49.5zm-653.3-224.01c8.76 1.97 13.63 8.56 19.47 13.24 14.6 11.6 30.06 22.34 42.74 36.01a266.607 266.607 0 0034.65 30.79c14.36 10.92 30.03 20.12 44.56 30.86 17.28 12.75 35.75 23.94 50.72 39.83 6.74 7.16 10.02 15.89 13.7 24.17 7.03 15.91 11.61 32.9 17.98 49.13a81.936 81.936 0 0011.42 19.67c5.03 6.54 6.91 14.6 11.51 21.14 9.07 13.05 16.42 27.21 26.99 39.28 14.13 16.19 30.78 29.91 44.34 46.65a85.899 85.899 0 0113.55 25.95c2.85 8.03 7.93 15.45 7.59 24.53.1 1.09.55 2.12 1.28 2.93.74.82 1.71 1.38 2.79 1.59 2.43.71 3.75-.92 4.72-3.23.73-1.66 2.75-2.73 3.62-4.36.88-1.63.91-4.53-2.04-3.6-4.7 1.43-4.19-1.88-4.67-4.28a122.9 122.9 0 00-30.91-61.14c-11.46-12.31-25.02-22.58-35.26-35.94a339.952 339.952 0 01-22.71-34.39c-6.06-10.29-10.97-21.19-18.35-30.83a52.224 52.224 0 01-9.03-20.3c-1.83-8.68-4.54-17.15-8.1-25.28-5.3-12.36-9.61-25.82-17.79-36.07-7.4-9.73-16.46-18.09-26.77-24.67a429.177 429.177 0 01-37.89-26.77 186.97 186.97 0 00-19.35-12.78c-6.99-3.86-13.53-8.5-19.47-13.85-9.92-9.54-21.53-17.03-30.37-28.06-7.93-9.85-19-16.84-29.2-24.33-8.88-6.55-17.03-13.95-25.7-20.98-.7-.64-1.45-1.24-2.24-1.78-10.95-6.49-10.83-7.3-7.49-19.46a492.053 492.053 0 0120.1-58.68c1.9-4.6 4.26-6.01 8.69-3.55 3.62 2.38 7.08 5 10.36 7.83a263.078 263.078 0 0135.34 29.77c7.22 7.16 13.83 14.91 19.76 23.17 7.08 10.51 15.21 20.32 22.95 30.39 11.27 14.6 21.56 30.01 31.64 45.56 7.61 11.87 18.44 21.07 27.57 31.63 8.1 9.47 17.03 18.11 25.02 27.63 5.59 6.74 13.02 11.02 19.34 16.71 10.7 9.19 19.37 20.51 25.46 33.22 5.57 12.02 13.29 23.05 19.47 34.68 8.86 16.43 13.02 34.83 18.78 52.54a320.033 320.033 0 0018.11 46.75c9.27 18.3 22.58 32.95 36.5 47.53 12.17 12.73 26.02 23.34 38.94 35.07 7.47 6.76 15.19 14.19 19.47 24.58-11.46 3.91-24.09 5.3-36.5 7.47-15.85 2.77-31.88.97-47.7-.17-19.25-1.3-38.36-4.22-57.12-8.71-26.91-6.62-52.05-17.58-77.12-29.21a259.368 259.368 0 01-53.54-32.92c-4.87-3.95-9.17-8.94-13.89-13.32-8.69-8-16.77-16.67-25.22-24.96-9.37-9.23-14.96-21.05-21.63-32.01a307.92 307.92 0 01-25.94-52.03c-4.07-10.78-8.01-21.61-12.49-33.7 21.54 16.06 42.76 29.93 60.99 47.79 8.42 8.28 18.35 14.97 26.96 23.07 12.17 11.47 23.93 23.49 31.4 38.94 7.3 14.97 18.05 28.06 23.04 44.29a58.522 58.522 0 012.95 19.47c-.12 3.21-.9 7.64 4.4 7.04 4.72-.56 4.48-4.87 4.14-8.28a120.027 120.027 0 00-10.71-37.6c-7.96-17.84-18.81-33.85-30.35-49.64-12.16-16.5-28.15-28.33-42.75-41.98-8.4-7.86-17.21-15.24-25.78-22.88-7.98-7.08-17.61-12.31-26.55-18.35-6.57-4.43-11.73-10.97-19.68-13.28-2.07-.61-1.25-2.24-1.68-3.46-8.01-22.93-12.68-46.75-18.55-70.23-.9-3.63 3.31-7.04-.7-12.05 19.95 8.32 38.28 15.28 54.24 28.33 18.96 15.5 37.46 31.51 54.9 48.67 13.44 13.16 22.34 29.64 28.74 47.4a229.74 229.74 0 0031.88 61.04c11.1 14.6 24.49 27.52 34.73 42.88 13.14 19.66 25.58 39.64 28.6 63.78.29 2.44.78 4.41 3.5 4.48 3.24 0 3.87-2.19 3.77-4.87-.56-11.92-4.52-22.99-9.29-33.65a210.797 210.797 0 00-36.51-54.73 313.94 313.94 0 01-34.46-46.9c-6.76-11.05-9.97-23.56-14.77-35.43a149.555 149.555 0 00-31.98-50.43 588.709 588.709 0 00-59.45-51.76c-12.17-9.39-27.26-14.84-41.88-19.2-12.17-3.6-16.18-10.37-17.23-21.56-1.85-19.62-3.7-39.33-2.56-59.84z" fill="#FFDA74"/><path d="M1854.06 888.791c13.83.341 26.43 4.332 38.94 7.763a567.107 567.107 0 0161.59 20.272 763.634 763.634 0 0199.78 48.988c8.98 5.159 16.55 12.801 24.58 19.469a219.575 219.575 0 0136.17 39.717c9.92 13.6 18 28.59 26.47 43.22 14 24.21 22.56 50.52 29.69 77.41 1.32 4.87 3.39 9.74 4.41 14.75.53 2.75 0 3.89-2.19 2.7-17.38-9.17-35.46-17.42-47.14-34.41-7.57-11-17.04-20.66-22.61-33.1-3.48-7.66-12.17-9.51-19.47-12.55-13.75-5.72-27.4-11.93-41.83-15.6-7.86-2-16.14-2.44-24-4.87-13.21-4.45-19.15-15.94-26.43-26.21-6.47-9.18-12.82-18.4-19.47-27.38a51.919 51.919 0 00-18.05-14.77c-16.28-8.153-29.91-20.272-45.75-28.79a73.47 73.47 0 01-32.64-35.944 291.344 291.344 0 00-13.36-27.743c-2.46-4.38-7.03-7.057-8.69-12.922z" fill="#F0C390"/><path d="M640.426 1595.16a351.574 351.574 0 0116.184-110.89 258.953 258.953 0 0129.008-62.69 149.802 149.802 0 0134.923-37.63 335.253 335.253 0 0164.028-40.59c15.526-7.3 31.125-14.97 48.185-17.5 14.893-2.19 29.519-7.15 44.948-5.11a737.629 737.629 0 0149.305 8.16 228.554 228.554 0 0167.995 25.01 143.49 143.49 0 0131.488 22.93c7.67 7.54 15.26 15.21 22.88 22.82 1.82 1.83 4.23 3.09.14 5.7-1.99 1.29-2.04 5.64 2.19 4.7 9.37-2.07 12.17 5.4 16.09 10.58 11.17 14.85 19.3 31.49 27.96 47.87 8.67 16.38 10.3 35.19 15.33 52.78.59 2.02-.68 2.44-2.58 3.19-9.1 3.65-18.17 7.3-27.4 10.66-16.16 5.89-31.78 13.31-48.09 18.72a3136.061 3136.061 0 01-63.95 20.34c-27.159 8.32-54.221 17.04-81.818 24.02-18.958 4.87-37.258 12.17-56.216 16.89-22.413 5.65-45.362 9.3-67.824 14.8-17.766 4.33-35.677 7.95-53.54 10.97a381.29 381.29 0 00-43.658 9.95c-5.33 1.56-11.219.44-16.549 3.22-2.434 1.24-4.38-.71-4.672-3.75-1.972-19.27-6.011-38.43-4.357-55.15zm459.484 21.76c-8.78 32.44-25.57 58.16-42.75 83.79a494.132 494.132 0 01-41.62 52.61c-3.53 3.97-8.27 7.11-12.17 11-12.164 12.44-24.503 25.21-40.394 32.52-20.248 9.29-40.447 18.81-63.03 22.55a321 321 0 01-64.734 3.73c-11.122-.42-22.122-3.29-33.121-5.79-14.602-3.34-27.743-9.96-40.885-16.21a167.917 167.917 0 01-28.108-17.04 219.91 219.91 0 01-44.632-43.8 5924.56 5924.56 0 0150.667-9.74c16.841-3.16 33.414-8.51 49.938-13.45 22.559-6.72 44.973-13.83 67.824-19.64 10.1-2.58 19.785-6.82 29.739-10.15 21.148-7.08 42.052-15.09 63.565-20.86 26.332-7.05 52.011-16.18 78.511-22.65a376.185 376.185 0 0056.87-19.74c4.36-1.9 9.74-1.61 14.33-7.13z" fill="#FFDA74"/><path d="M1081.05 1421.7c-3.22-4.22-6.7-8.23-10.41-12.02-4.28-3.92-2.24-6.16 1.43-7.91 5.07-2.44 10.74-3.53 14.61-8.03.9-1.05 2.11-.83 3.06.26 2.61 3.02 5.31 1.71 8.37.59 16.82-6.21 33.51-12.83 50.65-18.01a305.9 305.9 0 0145.92-9.74c10.39-1.48 20.81-1.43 31.2-2.43 25.14-2.43 49.38 2.87 72.28 13.14s44.43 21.91 61.74 39.96a72.06 72.06 0 0117.42 27.67c2.43 7.72-.19 13.34-4.04 18.23-7.17 9.13-15.47 17.3-24.7 24.34-13.41 10.12-27.23 19.71-42.44 26.06-12.68 5.28-24.95 11.46-37.16 17.42-14.22 6.94-28.18 14.61-42.35 21.91a691.79 691.79 0 01-73.2 31.27c-13.07 4.72-25.48 11.27-38.69 17.2.51-5.69 2.43-10.24 2.43-15.18 0-12.02 10.2-14.6 18.52-16.75 16.21-3.94 30.76-11.51 44.95-19.46 21.58-12.05 43.07-24.17 65.1-35.41 15.45-7.91 30.27-17.04 42.71-29.5 2.99-2.62 6.2-5 9.58-7.1 10.54-7.45 16.53-17.19 17.04-30.52.26-4.96-.88-9.89-3.28-14.23s-5.97-7.93-10.3-10.35c-6.79-3.94-13-9.3-20.78-11.78-13.12-4.18-26.53-7.3-39.65-11.29-23.89-7.3-48.21-7.42-72.64-6.81-14.82.36-29.2 4.03-43.8 6.88-13.66 2.65-25.02 11.05-38.38 14.29-3.9.95-6.28 3.06-5.23 7.52l.04-.22z" fill="#D9A672"/><path d="M1112.64 1547.83c1.32 5.6-1.46 12.05-1.56 18.72 0 5.35-5.42 5.84-8.78 6.74-18.93 5.13-36.65 13.63-55.39 19.3-15.82 4.86-31.64 9.73-47.382 14.6-12.435 3.77-25.358 5.47-37.647 10.36-11.803 4.73-24.92 5.97-37.234 9.59-19.007 5.58-38.597 8.64-57.555 14.6a324.25 324.25 0 01-40.033 10.01c-13.238 2.43-26.112 6.91-39.132 10.46-21.124 5.74-42.004 12.78-63.444 16.77-19.128 3.55-37.988 8.25-57.141 11.51a1.68 1.68 0 01-.706 0c-3.577-.68-6.692 4.87-10.367 1.02-2.944-2.99-2.433-7.49-4.21-11.1-.584-1.21-.268-2.84-.73-4.16-5.013-13.75-4.502-15.96 9.588-17.03 10.562-.85 19.907-5.16 30.007-6.96 19.615-3.53 39.156-7.3 58.795-10.71 11.098-1.9 21.684-5.67 32.83-7.57 18.641-3.14 37.234-7.13 55.51-12.17 24.336-6.54 48.234-14.38 72.351-21.56 20.978-6.23 42.296-11.53 62.957-18.69 19.615-6.81 39.473-12.82 59.213-19.2 23.53-7.59 46.24-17.3 69.16-26.28 11-4.31 10.9-4.87 10.9 6.96v4.79z" fill="#967057"/><path d="M684.767 1732.59c-1.947.34-3.943-1.1-6.255-4.34a163.822 163.822 0 01-14.991-22.97c-1.679-3.38-1.849-5.35 2.872-6.28 13.044-2.55 25.918-6.18 38.938-8.37 17.984-3.02 35.676-7.3 53.295-11.78 20.516-5.25 40.836-11.36 61.303-16.76 9.491-2.44 19.225-4.02 28.741-6.4 10.123-2.58 20.223-5.41 30.176-8.6 13.142-4.18 26.77-5.98 40.009-10.02 18.471-5.67 37.526-8.84 55.972-15.07 15.308-5.18 31.633-7.44 47.283-12.43 25.7-8.23 51.59-15.97 76.44-26.77 2.61-1.12 6.77-3.8 9.01-1.19 1.85 2.16 1.36 6.37-.25 9.56-.25.39-.4.85-.44 1.32.25 16.35-12.46 18.88-24.04 22.97-9.9 3.48-19.47 7.74-29.2 11.46-17.23 6.57-35.1 11.02-52.84 15.96-16.131 4.48-31.901 10.23-48.06 14.61-8.323 2.26-16.28 5.45-24.774 7.3-8.493 1.85-16.694 5.74-25.114 8.32-25.407 7.71-50.279 17.03-76.099 23.51-23.217 5.89-45.703 14.6-68.798 21.15a256.37 256.37 0 01-44.656 9 110.44 110.44 0 00-20.443 4.87 51.02 51.02 0 01-8.079.95z" fill="#D9A672"/><path d="M1080.91 1421.84c2.82 2.02 5.43 1.41 8.56.17 20.3-7.98 41.55-12.16 62.89-16.18 14.8-2.54 29.83-3.41 44.83-2.6 20.27.7 39.76 5.93 59.13 11.6 3.36.98 6.74 1.78 10.1 2.75 14.09 4.07 26.77 10.66 35.65 22.66 3.9 5.16 2.44 20.95-2.65 24.73-14.6 10.85-27.64 23.8-43.17 33.41-12.34 7.62-25.36 13.99-38.38 20.34-20.32 9.91-38.94 23.03-59.33 32.71a263.409 263.409 0 01-38.45 14.29c3.45-11.37 3.14-23.07 2.29-34.71-.22-3.23 1.92-3.14 2.92-3.4a286.833 286.833 0 0051.83-20.74 487.069 487.069 0 0055.37-31.63c5.51-3.38 9.91-8.28 12.68-14.12 6.03-14.6-1.24-23.58-16.02-27.62-21.56-5.89-43.8-5.18-65.7-4.19-15.52.59-30.92 3.04-45.85 7.3-7.11 2.1-15.02 1.29-21.52 5.72-.63.44-1.36 1.39-2.11 0-3.73-7.3-10.05-12.8-12.88-20.58l-.19.09zm-537.487 257.11c15.672 0 30.907-3.67 46.238-5.4 12.436-1.39 24.556-4.09 36.821-6.18 3.869-.66 8.81-3.63 11.219-2.17 2.409 1.46 1.776 7.3 2.944 11.08 1.485 4.64 2.434 9.49 4.235 14.01 1.533 4.07-.243 5.36-3.018 5.82-25.48 4.23-50.473 11.61-76.585 11.73a124.997 124.997 0 01-32.781-4.87c-11.097-2.99-22.243-5.55-32.366-12.17a36.917 36.917 0 01-10.783-9.68 37.033 37.033 0 01-6.253-13.07c-5.037-19.86 1.241-36.5 15.697-50.55 6.498-6.32 12.606-13.02 18.69-19.78a167.114 167.114 0 0135.896-28.6c13.92-8.73 26.404-19.46 39.375-29.49a79.031 79.031 0 0139.497-16.69c3.554-.44 4.089 1.41 3.773 4.21-.974 8.93-1.972 17.83-2.872 26.76-.195 2.02-1.411 2.32-2.92 2.22-15.137-1.19-26.77 7.69-38.159 15.01a307.757 307.757 0 00-61.229 51.91c-7.666 8.4-13.945 17.4-16.403 28.96-2.75 12.97 7.301 26.77 20.296 26.89l8.688.05z" fill="#967057"/><path d="M631.714 1597.01c-.655 17.5.775 35.02 4.259 52.18.876 4.31 0 7.3-5.403 8.83a306.178 306.178 0 01-42.028 7.96c-11.657 1.51-23.265 3.29-34.873 5.11a65.697 65.697 0 01-20.71.22c-8.834-1.43-12.168-10.63-8.591-20.2 3.626-10 9.954-17.93 17.035-25.6a267.347 267.347 0 0146.75-40.4c11.778-7.95 23.508-16.5 37.502-20.88 5.183-1.63 6.254-.36 6.132 4.53-.243 8.35-.073 16.77-.073 28.25zm465.886-146.57c16.33-7.3 33.12-6.04 49.31-8.59 20.73-3.26 41.37-2.29 62.18-2.63 6.13-.01 12.22.98 18.03 2.92 12.68 4.02 14.82 12.53 5.6 22.1a84.886 84.886 0 01-20.71 14.6c-26.14 14.41-52.11 29.35-80.77 38.52-10.23 3.29-11.1 3.51-12.37-6.76-2.64-21.36-9.9-41.89-21.27-60.16z" fill="#B7B7B7"/><path d="M1029.83 621.411a216.56 216.56 0 0126.77 60.84 133.855 133.855 0 006.91 16.768 388.912 388.912 0 0116.55 51.835c4.21 15.794 7.81 32.196 6.64 48.988.08.956 0 1.919-.24 2.847-2.58 5.038-21.74 12.509-27.65 11.73-9.31-.855-18.67-.921-27.99-.194-10.36.438-18.66 5.208-26.98 10.683-5.236 3.431-8.254 7.301-8.229 13.701 0 8.153-.001 15.867-3.602 24.117-7.009 15.989 1.241 29.544 11.361 41.785 2.07 2.433 5.26 2.92 8.13 3.845 7.3 2.312 10.37-.341 8.54-7.617-.48-1.947-.19-4.867-2.79-5.89-3.29-1.192-2.44 3.602-5.41 3.748-3.48-5.232-7.81-10.051-10.27-16.305a20.402 20.402 0 01-1.14-8.931c.3-3.025 1.27-5.944 2.85-8.542 3.45-6.279 2.43-12.46 2.43-18.714.24-11.024 9.49-19.858 20.78-20.856a147.713 147.713 0 0136.21 0c3.65.56 7.38.13 10.81-1.244a20.625 20.625 0 008.66-6.568c.83-.973 1.63-2.434 4.36-1.606.58 28.741-5.57 56.24-17.04 84.153-11.51-14.601-27.69-12.168-42.02-15.356-3.12-.657-6.94-.219-7.3 4.478-.37 4.697 2.19 7.447 6.88 6.887 8.03-.973 15.43 2.117 23.12 3.14 5.82.754 9.44 5.889 14.09 9.004 1.97 1.314-.44 3.139-1.02 4.332-6.86 13.774-16.69 25.504-26.77 37.014-5.09 5.865-9.73 12.168-16.33 16.719a5.85 5.85 0 01-6.81.755c-12.49-5.111-24.801-11.146-38.941-10.319a34.069 34.069 0 00-18.398 6.036 58.146 58.146 0 01-22.608 10.099 16.855 16.855 0 00-7.3 3.894 7.958 7.958 0 01-7.301 1.63c-16.5-3.139-33.268-3.772-49.913-5.597-6.255-.681-11.292 3.894-17.376 5.135-15.551 3.163-28.084 12.387-39.449 23.195a8.312 8.312 0 01-4.016 2.52 8.245 8.245 0 01-4.745-.07 17.203 17.203 0 00-7.094-.66 17.076 17.076 0 00-6.753 2.27c-2.847 1.9-6.084.9-9.126.9-17.035 0-31.174 6.99-42.977 18.74-1.972 1.97-2.434.8-3.87.34-10.099-3.36-18.544-9.93-28.181-14.19-3.845-1.68-7.301-4.52-11.049-6.15-16.864-7.037-30.322-18.597-43.585-30.765-14.748-13.53-26.137-30.006-40.13-43.926a122.466 122.466 0 01-23.825-33.632c-4.868-9.953-7.885-20.905-11.828-31.32-3.261-8.615-6.351-17.352-9.734-26.015a219.674 219.674 0 01-9.905-40.009c-3.115-17.667-3.139-35.579-2.969-53.539a243.003 243.003 0 016.936-51.713c4.064-18.009 8.079-35.92 14.601-53.223 5.987-15.818 14.602-30.201 22.755-44.875a132.097 132.097 0 0115.721-24.068 107.983 107.983 0 0129.665-23.241c12.168-6.571 22.779-15.672 35.701-21.002a348.053 348.053 0 0139.936-12.509c2.068-.584 3.796-1.07 4.672 1.753.876 2.822-.973 3.066-2.579 4.137-3.067 1.995-9.126 2.798-6.279 8.249 3.212 6.206 8.201 2.653 12.168.268a114.384 114.384 0 0155.973-16.013c13.263-.511 26.526-3.407 39.813-2.555 21.27 1.363 42.467 3.675 63.688 5.695 3.48.316 6.254 2.968 10.002 3.188 2.433.146 2.944 3.163 2.263 5.28-1.338 4.137-3.261 8.688-7.471 10.124-10.781 3.651-17.546 12.168-25.383 19.469-14.601 13.482-31.247 21.245-51.641 19.761-14.358-1.047-28.692.462-43.001 1.533-8.421.632-15.308 5.67-21.416 11.146a70.572 70.572 0 00-15.283 17.594c-7.812 13.75-24.336 18.788-41.371 14.164-11.901-3.237-23.679-5.427-36.236-3.115-3.943.706-8.421-1.412-12.899.657a32.39 32.39 0 00-16.621 18.179c-4.38 11.17-11.56 20.223-18.398 29.641-4.356 5.962-3.602 11.34-.779 18.301 4.697 11.583 13.507 19.736 20.832 29.081a16.79 16.79 0 0013.92 7.057c19.469-1.484 34.484 7.471 48.672 18.934 5.792 4.672 11.316 9.734 17.206 14.187a47.081 47.081 0 0027.864 10.246c14.918.341 29.86.268 44.803 0 11.486-.195 20.977-5.378 29.203-12.971 3.334-3.066 6.279-5.403 11.633-3.091 9.223 3.967 18.787 6.863 26.891 13.263 7.179 5.67 22.535 2.434 28.595-4.137 12.046-12.947 18.373-28.862 24.993-44.559a13.576 13.576 0 0111.997-9.028c18.958-2.58 35.677-9.589 48.892-23.825a15.714 15.714 0 003.65-5.111c5.111-14.772 17.449-21.123 30.615-26.307 13.17-5.183 23.61-13.725 33.27-24.677z" fill="#B0D9E8"/><path d="M665.931 618.734c12.168.901 22.656 4.649 33.486 6.425 12.46 2.069 25.407 2.044 35.482-6.668 6.887-5.987 11.657-14.382 17.668-21.464a32.944 32.944 0 0122.973-11.414c17.205-1.63 34.581 0 51.641-1.655a80.474 80.474 0 0053.539-28.789 43.613 43.613 0 0116.427-11.121c6.765-2.994 11.195-7.082 12.168-14.748.341-2.677 1.557-4.551 5.743-3.139 4.186 1.411 7.301 3.017 10.951 4.575 13.361 5.816 27.476 10.537 39.23 19.104 14.699 10.853 30.298 21.269 40.571 37.185a149.817 149.817 0 0013.31 18.13c3.5 3.894 2.02 6.473 0 9.929-6.57 10.903-17.04 16.548-28.304 21.075-14.601 5.938-27.086 13.677-34.216 28.716-7.131 15.04-20.686 21.44-36.017 24.677-3.919.852-8.007.803-11.901 1.703-9.564 2.264-15.331 8.932-18.349 17.814a161.977 161.977 0 01-16.743 34.022c-6.303 10.002-16.232 10.537-28.863 3.115a92.432 92.432 0 00-22.754-8.712c-12.533-3.383-20.588 5.232-28.887 11.705a23.603 23.603 0 01-13.579 5.427c-14.967.56-29.885.827-44.852 2.434-7.446.754-15.648-3.894-21.902-9.272-11.754-9.929-23.557-19.761-36.991-27.403a43.803 43.803 0 00-25.796-5.864 21.905 21.905 0 01-20.053-8.518c-6.765-8.347-14.966-15.624-18.495-26.38a8.276 8.276 0 011.095-8.931c7.642-10.489 17.23-19.688 19.883-33.487 1.387-7.3 7.86-10.878 15.112-13.092a144.77 144.77 0 0118.423-5.379z" fill="#9CE084"/><path d="M748.016 1029.35a70.237 70.237 0 0137.745-10.7c7.496 0 14.723-2.44 22.754-1.61 9.881.95 15.867-8.62 23.119-14.07 19.737-14.841 41.566-18.443 65.318-13.917 7.593 1.46 15.405 1.509 22.901 3.821 4.38 1.363 8.298-1.241 11.948-3.383a51.837 51.837 0 0117.522-6.57 18.203 18.203 0 007.958-4.186c10.513-7.861 21.562-12.168 34.484-5.135a65.164 65.164 0 0012.365 3.699c-4.11 6.765-11.318 8.81-17.305 11.827-6.668 3.334-13.628 6.255-20.223 9.735-17.23 9.129-35.725 14.599-54.172 20.489-13.482 4.36-26.77 9.47-40.568 12.9a298.02 298.02 0 01-59.331 8.74c-10.52.46-21.059-.25-31.418-2.15a133.373 133.373 0 01-33.097-9.49z" fill="#FEFEFE"/><path d="M1547.96 1849.55a100.13 100.13 0 01-39.42-9.23 38.685 38.685 0 00-12.65-3.77c-14.44-.7-28.96-1.92-42.93 4.02-7.84 3.36-15.36 7.3-23.44 10.27-14.77 5.33-29.52 8.98-45.07 4.21-6.28-1.95-10.95-6.7-16.04-10.61a50.428 50.428 0 01-14.53-17.63 50.456 50.456 0 01-5.25-22.24c-.27-12.82 6.16-24.7 15.55-34.29a55.15 55.15 0 0126.36-15.33c14.79-3.87 25.82-13.92 35.48-25.53 7.03-9.08 13.49-18.59 19.32-28.49 1.36-2.27 3.3-4.14 5.62-5.4 1.27-.61 4.87-4.24 5.72 1.46.32 2.14 2.77 2.65 5.31 1.58 8.17-3.48 16.54-5.31 25.38-2.44 3.16 1.07 5.89-1.33 9.03-1.48 16.37-.71 32.34 2.24 45.82 11.02 8.71 5.7 17.55 11.54 26.07 17.72 8.12 5.86 16.81 10.85 24.72 17.21a46.164 46.164 0 0116.35 28.42c1.03 5.04 2.15 10.1 2.88 15.18 1.87 13.15-3.87 23.81-12.9 32.15-10.27 9.52-20.49 19.23-32.39 26.77-6.48 4.38-13.19 7.38-18.99 6.43z" fill="#FFDA74"/><path d="M2694.19 929.917c-1.02 11.681.22 23.63-4.23 34.995a51.49 51.49 0 01-18.21 22.048c-7.3 5.452-14.26 11.901-22.78 15.72-15.96 7.16-32 13.36-50.18 9.3-5.69-1.29-11.75 0-17.64-1.66-11.56-3.45-21.39-10.27-31.98-15.596a108.292 108.292 0 01-38.94-33.195c-11.36-15.526-15.94-33.534-19.76-51.932a91.167 91.167 0 016.6-56.679c7.3-15.988 20.2-26.574 36.5-33.194 7.13-2.896 15.53-3.553 21.76-6.619 12.17-5.987 24.33-7.009 37.04-6.279 20.39 1.217 39.81 5.744 55.34 20.588 9.39 8.98 21.17 15.575 28.16 26.916 8.49 13.823 12.16 29.446 15.25 45.192a132.71 132.71 0 013.07 30.395z" fill="#967057"/><path d="M475.745 985.769c15.964-1.582 28.74 8.468 40.835 18.881a113.318 113.318 0 0114.943 13.95c9.977 12.17 9.369 25.4 7.13 39.25-3.893 23.92-19.858 38.35-40.105 48.41-9.54 4.86-20.516 3.04-30.396-.42a302.53 302.53 0 01-31.394-13.33c-11.9-5.77-15.331-17.43-18.787-29.01-7.739-25.92 3.845-42.81 21.099-56.29 2.848-2.24 8.396-4.11 2.434-9.249-1.582-1.339 1.217-1.898 2.19-2.628 8.98-6.839 19.201-9.735 32.051-9.564z" fill="#FFDA74"/><path d="M1399.64 769.375c-5.67-9.248-10.86-17.863-25.46-13.652 6.28-6.522 11.66-10.733 13.46-17.839 1.68-6.716 5.3-12.922 5.4-20.515a24.358 24.358 0 015.43 15.234c.46 9.881 4.87 15.697 14.82 17.206 1.63.268 3.26.584 4.99.9-6.35 5.744-17.04 6.985-18.64 18.666z" fill="#B0D9E8"/><path d="M2355.73 592.94c6.86-1.241 12.02-7.082 19.22-7.447a5.786 5.786 0 002.47-1.323 5.725 5.725 0 001.57-2.327c2.43-10.148 11.17-18.35 9.56-30.128 2.78 4.867 6.43 9.54 8.13 14.796 4.04 12.582 12.8 17.035 26.58 16.281-7.57 3.066-12.44 7.812-18.25 10.975-9.4 5.111-19.47 9.345-17.75 23.217a112.558 112.558 0 01-7-12.363c-3.7-8.81-9.74-13.117-19.47-11.705-1.69.13-3.38.139-5.06.024zm-129.62 193.956c-2.43 5.013-2.75 11.901-7.76 16.719-5.01 4.819-11.05 4.478-16.62-.438a23.274 23.274 0 01-7.89-17.286c-.03-3.274.63-6.517 1.94-9.518a23.429 23.429 0 015.65-7.899 5.133 5.133 0 013.22-1.852 5.088 5.088 0 013.62.83 49.455 49.455 0 0114.6 10.854 10.822 10.822 0 012.57 3.939c.56 1.483.79 3.07.67 4.651z" fill="#FFDA74"/><path d="M1279.59 397.012c6.79.17 15.96 8.955 16.47 15.769.51 6.814-7.54 17.96-14.45 17.23-6.91-.73-15.53-2.628-20.42-8.809-4.07-5.16-1.85-11.171 1.36-16.744 3.97-6.935 11.27-5.232 17.04-7.446zm1073.6 947.908c-1.16 9.73-13.92 21.76-21.73 20.59-5.57-.83-13.41-11.34-12.85-17.23.88-9.08 8.33-18.16 14.22-17.33 14.01 1.95 21.22 6.89 20.36 13.97z" fill="#B0D9E8"/><path d="M1974.84 1733.76c0 4.69-6.42 14.28-9.54 14.18-5.84-.17-13.58-7.78-13.58-13.41 0-8.71 6.7-16.52 14.24-16.59 4.94-.05 8.83 6.88 8.88 15.82z" fill="#FFDA74"/><path d="M2068.75 494.429c1.71 8.859-4.72 13.823-13.43 14.139-5.74.22-15.16-8.006-14.11-19.809.01-1.596.35-3.173 1-4.629a11.64 11.64 0 012.79-3.828 11.448 11.448 0 018.81-2.883c8.16.17 14.94 7.86 14.94 17.01zm-790.48 1.725c-5.25-1.557-11.51-3.018-15.69-8.298a8.568 8.568 0 01-2.43-4.945 8.556 8.556 0 011.09-5.398c2.14-3.991 4.55-3.505 8.42-3.261 7.3.462 14.26-.171 17.03 8.834 1.8 5.767-2.21 13.214-8.42 13.068zM602.073 1180.21c.681 3.56 3.091 6.21 2.02 9.3-.584 1.68-.779 4.26-3.869 4.26a5.977 5.977 0 01-3.675-1.14 5.934 5.934 0 01-2.215-3.15c-.998-2.75 1.29-2.84 3.237-3.21 2.92-.51 1.557-4.21 4.502-6.06z" fill="#B0D9E8"/><path d="M766.39 1562.04c-1.558-.22-2.994.12-3.14-1.6-.126-.57-.06-1.15.187-1.67s.661-.95 1.176-1.2c2.215-1.37 4.746-.76 6.839-1.54a441.98 441.98 0 0041.371-16.38c23.362-11.36 46.676-22.8 70.209-33.82a307.343 307.343 0 0040.641-23.07c18.861-12.63 38.938-23.17 57.239-36.85 1.289-.95 2.847-1.48 3.869-.44 1.704 1.81.365 3.46-1.071 4.87-5.573 5.55-12.655 8.96-19.201 13.02-16.305 10.08-32.172 20.86-48.453 30.93a440.225 440.225 0 01-44.632 23.07c-17.79 8.35-35.677 16.58-53.199 25.41a232.793 232.793 0 01-49.499 18.62c-.949.22-1.825.51-2.336.65zm-2.507-59.09c-1.898-.75-4.502 1.1-4.867-1.97-.365-3.06 2.263-2.04 3.821-2.65 6.497-2.43 12.922-5.21 19.322-7.96a461.011 461.011 0 0047.382-22.7c9.735-5.5 20.637-8.47 30.128-14.48 15.624-9.88 31.637-19.33 46.872-29.62 17.035-11.37 34.07-22.34 49.937-35.34 1.485-1.21 3.334-1.77 4.332 0 .998 1.78-.316 3.7-1.898 4.87-8.469 6.3-16.889 12.73-25.553 18.74-10.392 7.3-20.905 14.24-31.637 20.98-15.818 10.02-31.126 21.14-47.893 29.2-18.082 8.69-35.579 18.57-53.977 26.55-10.659 4.6-21.44 8.93-32.173 13.34a33.18 33.18 0 01-3.796 1.04zm146.649-145.86c-.268 1.36-.268 2.11-1.387 2.7-15.746 8.39-28.912 20.68-44.487 29.35a295.234 295.234 0 01-46.238 19.73c-16.427 5.77-32.951 11.25-48.818 18.5a83.985 83.985 0 01-22.438 7.62c-1.898.26-4.307 3.11-5.427.12-1.119-3 1.509-4.12 4.502-4.75 7.677-2 15.13-4.78 22.244-8.3 20.685-8.95 42.441-15.11 63.273-23.5a216.494 216.494 0 0039.887-20.08c10.294-6.89 19.469-15.58 30.59-21.1 2.555-1.24 5.695-4.14 8.299-.29zm119.978 114.93c-2.22 3.4-4.66 6.66-7.3 9.74-14.92 15.06-28.111 32.44-47.75 41.71-11.73 5.52-22.146 13.48-34.533 17.64-1.606.54-3.358 1.59-4.161-.58-.803-2.17.535-3.53 2.555-4.45 19.128-8.94 38.646-17.84 54.61-31.64a186.698 186.698 0 0026.449-27.89c1.72-2.29 3.67-4.4 5.82-6.28 1.34-1.17 3.41-1.73 4.31 1.75zm-75.249 233.41a7.761 7.761 0 01-1.542 3.66 7.702 7.702 0 01-3.154 2.4c-9.467 4.87-16.014 13.31-23.801 20.15-11.584 10.12-24.604 17.74-37.745 25.36-2.629 1.51-4.867 3.6-7.569 5.01-1.776.93-4.283 1.92-5.5-.73-1.217-2.65 1.655-2.97 3.067-3.87 11.389-7.18 23.192-13.8 34.07-21.56a181.415 181.415 0 0022.73-19.81c4.624-4.57 10.537-7.3 15.088-11.78 1.412-1.29 3.651-1.77 4.356 1.17zM690.875 770.298c12.168-.876 22.438 5.524 33.584 10.002 15.623 6.254 31.053 8.128 47.236 2.069a47.534 47.534 0 0117.278-2.945 61.914 61.914 0 0032.635-7.13 15.454 15.454 0 0113.628-.536c8.104 2.994 17.035 2.434 25.285 5.573 12.436 4.721 17.595 15.502 14.115 28.619-2.969 11.17-10.586 20.004-13.774 31.223-2.75 9.734-4.867 17.278 1.411 27.086 8.469 13.239 6.766 28.4 2.921 43.561a41.662 41.662 0 01-19.956 27.451 70.53 70.53 0 00-7.471 6.668c-15.94 12.849-40.13 5.5-48.672-15.04a101.72 101.72 0 01-7.301-39.107c0-14.407-1.436-15.454-15.234-21.148a162.145 162.145 0 00-24.75-7.301c-7.836-1.825-16.767-2.799-24.798 2.434a70.414 70.414 0 01-17.035 8.006c-18.131 5.987-40.374-4.137-43.927-26.088-.949-5.914-3.042-11.706-4.526-17.57-2.434-9.394.681-16.865 4.672-24.604.317-.608 1.047-1.412.852-1.85-3.796-9.588 1.509-15.55 7.934-21.512 7.203-6.498 15.55-7.107 25.893-7.861zm794.715 990.912c-5.84-.73-11.66 0-17.67-1.02-15.77-2.95-20.63-21.78-11.58-33.95 10.05-13.48 28.67-20.66 40.81-15.31 6.23 2.75 12.46 3.21 18.84 4.46a30.472 30.472 0 0119.34 11.37 30.495 30.495 0 016.31 21.53 6.24 6.24 0 01-3.9 5.55c-3.99 1.85-8.32 4.4-12.41 4.25-13.43-.48-26.28 5.09-39.74 3.12zm-63.86 26.04c9.42 0 18.89 9.29 20.25 16.91 1.17 6.47-4.01 12.58-13.19 15.36-13.6 4.08-25.92 5.03-38.04-3.29-.92-.61-1.92-.58-2.28-2.04-1.49-5.82 6.3-16.48 12.41-16.84 1.92 0 3.7.53 5.38-2.07 4.04-6.26 10.9-7.55 15.47-8.03zm95.47 6.74c-1.43-5.82 1.46-10.54 4.17-15.24 2.7-4.69 19.46-6.27 22.94-1.92.15.17.3.49.22.66-2.6 6.93 4.6 9.37 6.53 14.21 2.06 5.33-1.05 19.3-5.38 22.39-6.91 4.87-13.32 1.09-18.86-2.56-5.97-3.91-11.47-8.93-9.62-17.54zm1111.89-862.54c.46 13.093-6.98 22.292-13.41 31.637-3.09 4.454-16.3 2.896-23.63-2.19a78.632 78.632 0 01-14.92-12.29 31.334 31.334 0 00-16.74-10.415c-17.74-4.478-24.34-18.69-29.2-33.803-.99-3.114-.9-6.471.26-9.525a14.455 14.455 0 016.14-7.291c6.25-3.723 13.19-6.887 20.59-2.896 12.16 6.498 23.21 14.82 37.06 17.692 3.87.803 7.52 2.434 11.61 2.434 11.66.146 17.28 4.112 20.39 15.404 1.02 3.845 2.92 7.836 1.85 11.243zm-44.41-68.456c-6.4 1.777-12.17-2.579-17.74-5.427-8.23-4.185-9.74-15.623-4.31-25.041 4.5-7.934 14.02-10.319 22.68-6.814 8.08 3.285 12.9 9.904 18.42 15.794a12.618 12.618 0 012.8 6.526c.29 2.399-.12 4.829-1.17 7.004-2.43 5.379-8.39 7.131-14.14 7.91-2.17.154-4.36.17-6.54.048zm79.04 26.114c1.51 5.816-1.56 11.341-5.72 16.402a15.002 15.002 0 01-5.07 4.014 14.96 14.96 0 01-12.63.201 14.993 14.993 0 01-5.2-3.849 25.998 25.998 0 01-5.68-13.674c-.53-5.012.42-10.07 2.71-14.556 3.58-7.544 7.62-13.409 16.53-11.219 11.22 2.75 15.06 9.004 15.06 22.681zm-10.34 72.031c-10.54 1.363-12.87-6.522-10.85-15.258 1.09-4.867 3.5-9.077 4.01-14.115.41-3.918 10.68-6.984 14.31-4.307 3.02 2.238 6.28 4.867 6.91 8.809a31.831 31.831 0 01-4.55 20.15 8.118 8.118 0 01-4.01 4.255 8.114 8.114 0 01-5.82.466zM464.015 1000.37c1.265-5.619 6.084-8.029 12.508-5.571 8.469 3.237 13.118 10.851 17.498 17.961 2.993 4.87-1.484 10.44-7.301 10.54-7.519.14-13.555 6.42-21.902 4.52-5.914-1.36-9.199-4.86-9.54-13.21-.341-8.35 2.434-13.36 8.615-14.38 3.894 2.43 2.726 5.06.438 7.71a7.602 7.602 0 00-.535 10.47c2.896 3.86 6.619 3.04 10.367 1.38a34.554 34.554 0 016.765-2.43c6.279-1.32 5.671-1.12 2.434-6.28-4.283-7.59-11.438-9.64-19.347-10.71zm2.969 71.06c1.947-.31 3.845-1.46 4.332 1.17a3.186 3.186 0 01-1.62 3.69c-.433.22-.911.34-1.398.35-3.847.41-7.737-.08-11.359-1.44a24.802 24.802 0 01-9.497-6.39c-4.307-4.87-4.478-11.98-1.825-18.43a9.319 9.319 0 012.726-3.21c.243-.26.539-.47.868-.62.328-.14.683-.21 1.042-.21s.713.07 1.042.21c.329.15.624.36.868.62.803.93.487 2.12 0 3.31-5.135 12.14 1.728 21.56 14.821 20.95zm31.856 20.74c-.365 2.43 1.314 5.98-2.288 7.3-3.602 1.31-6.571.99-7.301-3.75 0-.17-1.436 0-2.02-.29a7.342 7.342 0 01-3.76-3.63 7.299 7.299 0 01-.377-5.21c1.509-4.99 6.279-3.92 10.294-4.13 4.405-.25 4.867 2.75 5.305 5.84.136 1.28.185 2.57.147 3.87z" fill="#3A4453"/><path d="M465.645 1062.26c-5.427.39-8.907-1.15-8.663-7.01.146-3.55-.292-7.52 5.159-7.3 4.356 0 8.931 5.35 9.369 9.73.584 5.43-2.847 4.77-5.865 4.58zm41.834 5.81c-3.31.29-5.695-.44-5.841-4.87 0-3.99 3.067-5.76 5.086-4.86 2.653 1.14 8.129-1.34 7.91 4.35-.146 4.07-3.018 5.58-7.155 5.38zm-24.653 1.51c-1.557-.46-3.723.9-4.112-1.78-.268-1.75.438-2.58 2.312-2.67 3.407-.2 3.528-3.51 4.721-5.6.207-.54.601-.99 1.109-1.27a2.467 2.467 0 011.665-.24c1.704 0 1.606 1.39 1.655 2.56.292 5.33-2.069 8.39-7.35 9zm17.863-33.22c1.801.59 5.135 0 5.378 4.14.122 1.92-1.727 4.09-2.433 2.82-2.434-4.21-8.688 4.72-9.053-3.06-.17-3.63 2.482-4.12 6.108-3.9z" fill="#3A4453"/><path d="M690.413 780.69c9.564-2.166 17.838 4.551 26.769 8.299 19.688 8.225 39.4 10.002 59.769 3.042a50.181 50.181 0 0119.469-2.653c10.708.706 20.394-2.579 29.617-7.495 1.339-.73 2.726-1.704 3.918-1.022 8.396 4.867 18.423 2.725 27.086 6.838 6.693 3.164 9.735 8.055 7.301 15.283-4.648 13.652-12.801 25.772-17.035 39.692-2.093 6.936-2.994 12.971 1.703 19.201a52.343 52.343 0 017.691 17.035c2.652 8.834 0 17.595-1.509 26.283-1.85 11.121-7.788 19.079-18.812 22.827-2.726.925-4.113 3.747-6.887 5.232-9.734 5.208-22.973-.949-27.573-11.925a94.455 94.455 0 01-7.155-38.548c.292-14.139-4.477-23.8-19.152-27.889a151.53 151.53 0 01-17.035-5.475c-13.044-5.451-26.307-3.115-39.473-3.87a7.04 7.04 0 00-5.086 2.02 46.685 46.685 0 01-23.509 10.246c-6.814.778-12.411-4.016-15.478-9.929-5.573-10.805-9.418-21.903-7.641-34.776.876-6.23.706-12.168 2.798-18.617 3.699-10.976 5.841-13.799 20.224-13.799z" fill="#9CE084"/><path d="M1486.03 1755.46c-5.01-.65-9.73.32-15.04-2.43-13.07-6.96-15.19-12.58-6.28-23.83 6.21-7.81 15.09-10.85 24.51-12.65.7-.21 1.45-.2 2.14.05.7.24 1.29.7 1.7 1.31 3.63 6.16 9.18 5.7 15.02 4.5 10.95-2.28 27.33 10.47 25.82 21.18-.88 6.01-7.98 8.73-13.14 8.66-11.73-.17-22.98 4.31-34.73 3.21zm-79.43 47.7c2.12-.17 4.25.26 6.15 1.22 1.63.8 3.7 0 3.09-2.44-1.75-6.79 3.9-5.98 7.09-6.37 5.98-.73 8.34 4.26 10.07 8.71 1.51 3.89-.51 6.33-4.7 7.67-8.51 2.72-16.71 6.76-25.94 2.7-2.26-1.03-6.62-1.88-5.84-3.63 1.36-3.04 2.58-7.42 7.3-7.93.93-.04 1.85-.01 2.78.07zm131.95-21.15c-7.06 2.1-4.34 5.45-.98 7.55 7.01 4.35 7.82 8.59 3.26 15.86-2.43 3.95-3.45 3.53-6.54 2.1-10.17-4.87-12.63-11.64-7.3-20.93 2.09-3.85 4.55-4.84 11.56-4.58z" fill="#967057"/><path d="M2539.36 902.371c-.99-4.867 1.37-7.301 5.41-8.956a10.732 10.732 0 0111.07.657 151.072 151.072 0 0038.94 16.597c3.15.958 6.43 1.458 9.73 1.485 10.42 0 19.3 10.927 17.33 21.464-1.53 8.25-6.16 15.113-10.9 21.659-4.34 5.938-9.74.535-14.6-.438a11.674 11.674 0 01-5.65-4.015 81.355 81.355 0 00-34.58-23.46c-10.93-3.943-13.95-14.894-16.75-24.993zm47.75-46.359c-4.23.535-7.74-1.241-11.39-3.018-11.09-5.427-10.92-8.907-2.8-19.201.7-.694 1.55-1.21 2.49-1.507a6.094 6.094 0 012.89-.196 38.459 38.459 0 0119.81 15.55c2.19 3.188-.85 6.23-3.99 7.496-2.28.619-4.64.914-7.01.876zm69.34 31.486c.68 2.75-1 4.867-2.07 7.301-1.95 4.259-5.36 8.809-9.57 8.201-5.06-.754-6.81-6.692-7.96-11.462-1.14-4.77 1.29-8.907 3.85-12.825 5.48 4.672 5.23-2.75 7.79-3.456a6.254 6.254 0 016.01 4.137c.75 2.531 2.65 5.038 1.95 8.104zm2.94 52.715c-.1 3.859-.93 7.664-2.43 11.219-.78 2.433-2.24 3.723-4.99 2.92-3.46-.998-2.75-2.847-1.56-5.378a83.273 83.273 0 003.24-9.199c.58-1.704-1.2-4.868 2.65-4.527 3.04.389 3.26 2.896 3.09 4.965z" fill="#FFDA74"/><path d="M464.015 1000.37c13.214-4.525 17.887 6.69 24.603 13.73 1.777 1.85.901 5.16-2.798 4.86-4.867-.51-8.664 1.54-12.704 3.46a7.573 7.573 0 01-10.415-2.31c-3.213-4.43-4.6-9.52.243-13.12 3.334-2.43 2.872-4.09 1.193-6.69l-.122.07zm29.179 95.06c-.268-2.97-4.551-4.33-2.994-7.69.325-.29.722-.49 1.151-.58.428-.09.871-.05 1.283.09 2.945 2.24 1.947 5.18.56 8.18z" fill="#FEFEFE"/></g><defs><radialGradient id="paint0_radial" cx="0" cy="0" r="1" gradientUnits="userSpaceOnUse" gradientTransform="matrix(-229.92352 1820.56867 -2831.7565 -357.6286 925.923 253.43)"><stop offset=".249" stop-color="#7571A5"/><stop offset="1" stop-color="#D2D2D4"/></radialGradient><clipPath id="clip0"><path fill="#fff" transform="translate(405 391)" d="M0 0h2298v1474H0z"/></clipPath></defs></svg>