<svg width="619" height="404" fill="none" xmlns="http://www.w3.org/2000/svg"><circle cx="168" cy="376" r="10" fill="#fff"/><circle cx="222.5" cy="296.5" r="5.5" fill="#fff"/><circle cx="287.5" cy="317.5" r="5.5" fill="#fff"/><circle cx="398.5" cy="352.5" r="5.5" fill="#fff"/><circle cx="427.5" cy="398.5" r="5.5" fill="#fff"/><circle cx="228.5" cy="398.5" r="5.5" fill="#fff"/><circle cx="391.5" cy="240.5" r="5.5" fill="#fff"/><circle cx="492" cy="267" r="5" fill="#fff"/><circle cx="614" cy="50" r="5" fill="#fff"/><circle cx="482" cy="398" r="5" fill="#FFFD99"/><circle cx="282" cy="200" r="5" fill="#fff"/><circle cx="340" cy="5" r="5" fill="#FFF996"/><circle cx="400" cy="170" r="5" fill="#FFF996"/><circle cx="446" cy="96" r="8" fill="#fff"/><circle cx="589" cy="202" r="8" fill="#FFFD99"/><circle cx="267" cy="356" r="10" fill="#FFFD99"/><path d="M365.5 376l1.908 5.873h6.176l-4.996 3.63 1.908 5.874-4.996-3.63-4.996 3.63 1.908-5.874-4.996-3.63h6.176L365.5 376zm-23-53l1.908 5.873h6.176l-4.996 3.63 1.908 5.874-4.996-3.63-4.996 3.63 1.908-5.874-4.996-3.63h6.176L342.5 323z" fill="#FFFD99"/><path d="M87 187l2.02 6.219h6.54l-5.29 3.843 2.02 6.219-5.29-3.843-5.29 3.843 2.02-6.219-5.29-3.843h6.54L87 187zm-68 98l2.02 6.219h6.54l-5.29 3.843 2.02 6.219-5.29-3.843-5.29 3.843 2.02-6.219-5.29-3.843h6.54L19 285zm315-6l1.347 4.146h4.359l-3.526 2.562 1.347 4.146-3.527-2.562-3.527 2.562 1.347-4.146-3.526-2.562h4.359L334 279zm-35 108l1.347 4.146h4.359l-3.526 2.562 1.347 4.146-3.527-2.562-3.527 2.562 1.347-4.146-3.526-2.562h4.359L299 387zm81-96l1.347 4.146h4.359l-3.526 2.562 1.347 4.146-3.527-2.562-3.527 2.562 1.347-4.146-3.526-2.562h4.359L380 291zm-244 32l1.347 4.146h4.359l-3.526 2.562 1.347 4.146-3.527-2.562-3.527 2.562 1.347-4.146-3.526-2.562h4.359L136 323zM53.5 10l1.684 5.182h5.449l-4.409 3.203 1.684 5.183-4.408-3.203-4.408 3.203 1.684-5.183-4.409-3.203h5.45L53.5 10z" fill="#fff"/><path d="M177.5 85l2.133 6.564h6.902l-5.584 4.057 2.133 6.565-5.584-4.057-5.584 4.057 2.133-6.565-5.584-4.057h6.902L177.5 85zm-168 19l2.133 6.564h6.902l-5.584 4.057 2.133 6.565-5.584-4.057-5.584 4.057 2.133-6.565-5.584-4.057h6.902L9.5 104z" fill="#FFF996"/><path d="M420 323l1.796 5.528h5.812l-4.702 3.416 1.796 5.528-4.702-3.416-4.702 3.416 1.796-5.528-4.702-3.416h5.812L420 323zm85 8l1.796 5.528h5.812l-4.702 3.416 1.796 5.528-4.702-3.416-4.702 3.416 1.796-5.528-4.702-3.416h5.812L505 331zm-355-85l1.796 5.528h5.812l-4.702 3.416 1.796 5.528-4.702-3.416-4.702 3.416 1.796-5.528-4.702-3.416h5.812L150 246z" fill="#fff"/></svg>