<svg width="612" height="879" fill="none" xmlns="http://www.w3.org/2000/svg"><g clip-path="url(#clip0)"><path fill="#fff" d="M0 0h612v879H0z"/><path fill="url(#paint0_radial)" d="M0 0h612v879H0z"/><path d="M446.168 246.388c-1.549-6.596 2.653-26.714 4.352-32.347 2.537-8.162 7.019-15.376 11.628-22.404a124.914 124.914 0 0114.459-17.678c4.028-4.217 8.356-7.952 12.742-11.733 1.946-1.672 4.473-1.72 6.489-3.106 6.564-4.496 14.177-6.959 21.554-9.582a87.428 87.428 0 0122.895-4.443c4.79-.343 9.536-.406 14.302-.402 6.032.012 11.818 1.682 17.677 2.735a77.308 77.308 0 0118.893 6.459c.559.264 1.232.838 1.831-.068 1.542-2.338 3.718-4.14 5.524-6.307 2.007-2.415 3.066-6.429 7.893-5.983 1.25.123 2.831-2.405 4.151-3.812a107.355 107.355 0 0120.238-16.353 130.773 130.773 0 0129.146-14.133 67.812 67.812 0 0130.356-3.069c8.001 1.037 15.838 2.535 23.123 5.974 5.492 2.588 10.677 5.611 13.489 11.476 1.637 3.395.281 6.306-.684 9.226a79.367 79.367 0 01-17.046 28.296c-3.861 4.244-7.799 8.488-11.542 12.823-3.388 3.935-7.001 7.736-10.142 11.904-4.327 5.702-9.534 10.613-14.408 15.829-8.246 8.808-17.196 16.946-25.104 26.044a4.471 4.471 0 00-1.053 1.706 4.386 4.386 0 00-.193 1.985c1.969 13.495.036 26.707-2.565 39.962a228.203 228.203 0 01-7.261 26.588 42.777 42.777 0 01-3.568 7.73c-2.06 3.655-2.595 7.904-5.003 11.445a101.804 101.804 0 01-19.29 21.43c-10.432 8.624-22.826 13.871-35.401 18.402a68.33 68.33 0 01-27.978 3.388c-9.141-.631-18.051-1.772-26.765-4.91a100.849 100.849 0 01-14.074-6.13 5.716 5.716 0 00-3.125-.788 5.7 5.7 0 00-3.053 1.023c-7 4.235-13.875 8.755-21.144 12.68-5.191 2.807-10.148 5.993-15.392 8.757a187.42 187.42 0 01-19.135 8.482c-8.766 3.418-17.704 6.876-27.369 6.435-8.393-.393-15.617-3.542-20.516-10.676-4.42-6.423-6.046-13.747-7.21-21.255-.952-6.12.729-11.767 2.006-17.58a63.945 63.945 0 014.139-12.2 103.26 103.26 0 017.308-13.965c2.784-4.375 4.795-9.249 7.12-13.886a69.361 69.361 0 0112.983-17.836 58.156 58.156 0 005.861-7.504c3.152-4.345 7.111-7.837 11.058-11.356a40.593 40.593 0 003.512-3.803 3.846 3.846 0 011.516-1.248c.608-.28 1.279-.4 1.948-.349 1.17-1.267 2.006-1.936 1.811-2.43l-.983-3.443z" fill="#3A4453"/><path d="M447.146 255.486c-.709.202-1.812.919-2.392.708-.868-.361-.708.354-.889.648-1.531 2.388-3.771 4.021-5.963 5.786a42.655 42.655 0 00-8.573 9.728c-2.957 4.46-6.867 8.115-10.279 12.169-3.536 4.204-5.874 9.064-8.526 13.763-3.163 5.579-5.649 11.513-9.172 16.929a60.528 60.528 0 00-5.643 12.032c-2.518 6.643-4.475 13.527-4.673 20.633a45.869 45.869 0 002.211 14.121 29.47 29.47 0 004.852 10.176c5.324 6.79 12.422 9.199 20.879 8.554 6.157-.433 11.894-2.275 17.725-4.156a154.608 154.608 0 0017.767-7.11 141.75 141.75 0 0016.714-9.326c4.102-2.639 8.45-4.969 12.633-7.523 4.629-2.775 9.363-5.388 14.492-8.31-4.414-2.48-8.492-4.775-11.944-7.989-.654-.603-1.51-.915-2.789.007-6.261 4.455-12.595 8.844-19.195 12.78a66.346 66.346 0 01-26.634 9.265c-5.169.59-10.138 1.031-15.246-.155-5.546-1.25-9.236-4.678-11.921-9.346a22.96 22.96 0 01-3.384-11.04c-.166-3.9.67-7.778 2.432-11.278 1.459-3.129 2.311-6.533 3.567-9.772a93.446 93.446 0 019.685-17.929 90.108 90.108 0 007.58-12.993c3.232-7.184 7.946-13.518 15.476-17.228 2.092-1.038 2.538-7.456 1.831-10.624l-.621-2.52z" fill="#D9A672"/><path d="M463.285 296.789a142.113 142.113 0 01-12.158-44.392 104.358 104.358 0 01.749-28.322 60.677 60.677 0 017.171-19.842 137.343 137.343 0 0117.848-25.69c4.749-5.272 9.466-10.694 15.594-14.419 5.353-3.245 10.143-7.491 16.403-9.228a313.44 313.44 0 0120.272-4.941 97.317 97.317 0 0130.237-1.626 60.885 60.885 0 0115.882 3.516c4.192 1.596 8.375 3.249 12.56 4.88 1.003.391 2.137.476 1 2.121-.553.81.15 2.458 1.618 1.413 3.253-2.302 5.564.057 7.927 1.373 6.745 3.775 12.622 8.723 18.659 13.483 6.038 4.76 9.779 11.58 14.626 17.387.559.666.142 1.027-.461 1.62-2.889 2.853-5.768 5.703-8.751 8.466-5.226 4.844-9.992 10.177-15.355 14.861a1312.41 1312.41 0 01-21.174 18.053c-9.044 7.547-17.986 15.225-27.42 22.339-6.469 4.914-12.283 10.637-18.777 15.495-7.666 5.768-15.868 10.871-23.578 16.592a318.187 318.187 0 01-18.728 12.832 158.473 158.473 0 00-15.106 10.842c-1.788 1.453-4.233 1.988-5.819 3.899-.728.863-1.798.446-2.414-.652-3.949-6.938-8.671-13.495-10.805-20.06zm179.939-66.464c2.001 13.644-.182 26.06-2.531 38.502a199.808 199.808 0 01-7.256 26.575c-.697 2.067-1.999 4.021-2.848 6.12-2.61 6.66-5.229 13.476-10.118 18.807-6.231 6.791-12.406 13.656-20.452 18.737a135.275 135.275 0 01-24.226 11.92c-4.337 1.652-9.034 2.357-13.67 3.201-6.156 1.117-12.296.759-18.375.539a71.643 71.643 0 01-13.608-1.848 92.986 92.986 0 01-24.384-9.245 2423.74 2423.74 0 0117.832-11.898c5.939-3.928 11.412-8.637 16.935-13.182 7.546-6.195 14.97-12.513 22.776-18.416 3.449-2.612 6.465-5.781 9.732-8.654 6.943-6.103 13.639-12.514 20.94-18.182 8.936-6.936 17.278-14.544 26.376-21.288a155.746 155.746 0 0018.557-16.673c1.357-1.423 3.47-2.187 4.32-5.015z" fill="#FFDA74"/><path d="M603.651 159.873a54.692 54.692 0 00-5.989-2.835c-2.292-.779-1.879-1.955-.758-3.212 1.539-1.738 3.534-3.072 4.273-5.396.172-.541.675-.656 1.221-.398 1.499.714 2.318-.22 3.309-1.14 5.426-5.069 10.736-10.275 16.453-15.01a127.501 127.501 0 0116.011-11.128c3.742-2.247 7.747-3.921 11.57-5.985 9.244-5.001 19.425-6.942 29.914-6.795 10.489.146 20.681 1.028 30.312 5.017a30.114 30.114 0 0111.27 7.589c2.212 2.509 2.134 5.053 1.469 7.52a55.516 55.516 0 01-5.449 13.178c-3.469 5.992-7.186 11.848-11.971 16.712-3.991 4.049-7.674 8.369-11.375 12.6-4.305 4.921-8.396 10.077-12.622 15.128a285.926 285.926 0 01-22.913 23.67c-4.234 3.902-7.912 8.384-12 12.767-.747-2.228-.763-4.254-1.581-6.114-1.992-4.528 1.494-7.156 4.334-9.315 5.567-4.118 9.898-9.332 14.025-14.635 6.288-8.043 12.528-16.099 19.118-23.911 4.62-5.49 8.796-11.335 11.505-18.047a30.048 30.048 0 012.502-4.234c2.811-4.517 3.496-9.156 1.483-14.261a10.92 10.92 0 00-3.614-4.826 11.236 11.236 0 00-5.668-2.224c-3.259-.381-6.527-1.389-9.927-1.059-5.727.555-11.389 1.561-17.084 2.189-10.38 1.134-19.73 5.038-29.006 9.237-5.627 2.546-10.538 6.267-15.67 9.711-4.8 3.218-7.771 8.226-12.362 11.616-1.337.99-1.902 2.174-.763 3.682l-.017-.091z" fill="#D9A672"/><path d="M636.665 202.241c1.431 1.895 1.435 4.774 2.502 7.301.886 2.016-1.116 3.081-2.255 3.966-6.416 5.01-11.808 11.087-18.06 16.267-5.265 4.403-10.529 8.806-15.765 13.198-4.148 3.441-8.825 6.182-12.731 10.021-3.748 3.696-8.576 6.294-12.701 9.661-6.371 5.186-13.381 9.524-19.669 14.85a135.246 135.246 0 01-13.707 10.271c-4.677 3.067-8.876 6.846-13.284 10.299-7.155 5.595-14.004 11.636-21.57 16.623-6.753 4.446-13.213 9.279-20.023 13.619a.736.736 0 01-.27.115c-1.486.324-1.763 2.92-3.81 2.069-1.625-.649-2.175-2.427-3.453-3.495-.426-.363-.575-1.029-.97-1.449-4.201-4.363-4.372-5.28.858-7.973 3.912-2.037 6.785-5.177 10.363-7.496 6.943-4.516 13.818-9.112 20.79-13.586 3.944-2.518 7.382-5.658 11.345-8.184 6.634-4.211 13.108-8.735 19.288-13.602 8.255-6.419 16.128-13.253 24.194-19.875 7.019-5.755 14.321-11.217 21.065-17.268 6.399-5.753 13.025-11.243 19.543-16.851 7.773-6.683 14.879-14.029 22.189-21.136 3.508-3.409 3.378-3.604 5.337.85l.794 1.805z" fill="#967057"/><path d="M503.063 341.339c-.691.445-1.694.229-3.118-.615a68.704 68.704 0 01-9.558-6.215c-1.205-1.001-1.596-1.716.062-2.831 4.583-3.082 8.923-6.539 13.557-9.48 6.401-4.058 12.482-8.546 18.502-13.095 7.002-5.313 13.789-10.915 20.748-16.275 3.24-2.458 6.713-4.636 9.97-7.08 3.458-2.616 6.866-5.32 10.158-8.138 4.35-3.712 9.281-6.604 13.693-10.276 6.149-5.137 12.938-9.424 18.985-14.768 5.016-4.439 10.908-7.945 16.087-12.366 8.5-7.273 17.155-14.395 24.901-22.501.814-.844 1.967-2.529 3.258-1.912 1.068.515 1.579 2.18 1.49 3.641-.033.19-.016.385.05.566 2.802 6.12-1.654 9.137-5.422 12.559-3.225 2.919-6.19 6.077-9.309 9.061-5.524 5.274-11.641 9.853-17.631 14.596-5.451 4.308-10.551 9.033-16.027 13.309-2.819 2.204-5.345 4.698-8.298 6.774-2.953 2.077-5.456 4.876-8.26 7.215-8.472 7.034-16.473 14.585-25.31 21.218-7.934 5.99-15.121 12.924-22.9 19.142a107.05 107.05 0 01-15.646 10.647 46.456 46.456 0 00-7.039 5.154 21.01 21.01 0 01-2.943 1.67z" fill="#D9A672"/><path d="M603.619 159.949c1.418.302 2.316-.35 3.315-1.328 6.467-6.303 13.927-11.332 21.453-16.311a84.67 84.67 0 0116.771-8.265c7.897-3.028 16.244-4.224 24.618-5.237 1.45-.179 2.881-.426 4.331-.605 6.08-.759 12.039-.335 17.435 2.74 2.348 1.31 4.404 7.495 3.077 9.742-3.806 6.46-6.667 13.455-11.034 19.598-3.473 4.873-7.414 9.389-11.358 13.897-6.158 7.032-11.13 14.996-17.352 21.957a109.052 109.052 0 01-12.39 11.627c-.556-4.841-2.617-9.198-4.87-13.44-.62-1.183.218-1.495.556-1.758a118.825 118.825 0 0016.459-16.23 200.374 200.374 0 0016.007-20.91 13.459 13.459 0 002.528-7.375c-.103-6.48-4.382-8.679-10.72-7.8-9.251 1.285-17.67 5.165-25.91 9.099a81.297 81.297 0 00-16.386 10.199c-2.38 1.943-5.549 2.926-7.309 5.649-.17.268-.293.744-.812.344-2.638-2.144-5.977-3.187-8.351-5.661l-.058.068zM439.936 344.105c6.015-2.546 11.252-6.405 16.85-9.547 4.543-2.543 8.746-5.529 13.107-8.31 1.376-.877 2.78-2.797 3.946-2.639 1.167.159 1.891 2.461 2.964 3.692 1.34 1.509 2.506 3.178 3.947 4.59 1.262 1.282.793 2.056-.195 2.681-9.077 5.735-17.447 12.572-27.448 16.861a53.037 53.037 0 01-13.386 3.493c-4.754.676-9.455 1.525-14.436.677a15.73 15.73 0 01-5.742-1.894 15.441 15.441 0 01-4.565-3.907c-5.222-6.66-5.569-13.949-2.348-21.585 1.446-3.439 2.682-6.952 3.896-10.488a68.072 68.072 0 019.039-16.601c3.895-5.552 6.909-11.622 10.226-17.505a32.707 32.707 0 0112.392-12.705c1.291-.742 1.803-.132 2.145.973 1.106 3.522 2.198 7.038 3.332 10.548.26.792-.159 1.1-.754 1.308-6.006 2.011-8.999 7.246-12.157 11.855a125.056 125.056 0 00-14.9 29.497c-1.551 4.407-2.469 8.818-1.498 13.57 1.093 5.332 7.236 8.895 12.243 6.83l3.342-1.394z" fill="#967057"/><path d="M460.248 298.903a90.036 90.036 0 0010.276 18.957c1.05 1.479 1.209 2.749-.61 4.204a128.995 128.995 0 01-14.811 9.826c-4.224 2.462-8.384 5.017-12.537 7.591a27.723 27.723 0 01-7.911 3.447c-3.628.895-6.431-2.028-6.643-6.211-.265-4.356.849-8.371 2.298-12.409a108.576 108.576 0 0111.249-22.809c3.202-4.911 6.289-10.033 10.934-13.957 1.719-1.456 2.339-1.153 3.103.709 1.289 3.183 2.749 6.326 4.652 10.652zm154.514-130.897c5.057-5.402 11.711-7.654 17.499-11.246 7.417-4.597 15.497-7.583 23.426-11.093a24.052 24.052 0 017.404-1.83c5.531-.548 7.764 2.312 5.808 7.412a34.601 34.601 0 01-5.529 8.864c-7.644 9.672-15.134 19.518-24.616 27.631-3.379 2.898-3.679 3.123-5.865-.539a61.366 61.366 0 00-18.127-19.199z" fill="#B7B7B7"/><path d="M506.139 263.852c-.634.17-1.128.532-1.471-.095a1.052 1.052 0 01-.205-.66 1.05 1.05 0 01.253-.643c.624-.873 1.696-1.055 2.37-1.689a183.42 183.42 0 0013.164-12.889c7.084-8.076 14.136-16.172 21.341-24.147a125.698 125.698 0 0011.776-15.291c5.146-7.821 11.105-15.052 15.863-23.176.338-.567.847-1.021 1.413-.793.952.401.712 1.242.395 2.007-1.22 2.995-3.373 5.428-5.212 8.022-4.589 6.444-8.892 13.082-13.472 19.521a181.256 181.256 0 01-13.307 15.94c-5.444 6.034-10.946 12.038-16.207 18.212a96.458 96.458 0 01-15.913 15.054c-.328.236-.616.489-.788.627zm-10.748-21.844c-.854.024-1.547 1.144-2.195.048-.648-1.095.53-1.137 1.027-1.619 2.091-1.973 4.097-4.061 6.098-6.137a189.466 189.466 0 0014.422-16.249c2.825-3.653 6.517-6.542 9.164-10.348 4.36-6.26 8.941-12.417 13.082-18.769 4.655-7.048 9.375-13.949 13.312-21.421.368-.7.985-1.211 1.662-.704.677.507.492 1.444.078 2.141-2.206 3.75-4.373 7.538-6.703 11.209a299.474 299.474 0 01-8.666 13.04c-4.41 6.346-8.442 13.022-13.543 18.779-5.5 6.21-10.579 12.774-16.317 18.769-3.329 3.464-6.749 6.847-10.138 10.25a13.77 13.77 0 01-1.283 1.011zm32.118-78.762c.123.557.248.841-.085 1.243-4.652 5.72-7.669 12.488-12.211 18.281a122.37 122.37 0 01-14.476 14.945c-5.349 4.841-10.783 9.588-15.671 14.897a34.779 34.779 0 01-7.349 6.515c-.685.409-1.138 1.872-2.063.927-.925-.945-.102-1.794.942-2.518a48.372 48.372 0 007.161-6.74c6.456-6.733 13.785-12.587 20.389-19.133a89.213 89.213 0 0011.982-14.042c2.81-4.266 4.891-9.029 8.244-12.916.776-.883 1.501-2.483 3.137-1.459zm65.08 23.79a37.692 37.692 0 01-1.19 4.852c-3.23 8.097-5.414 16.784-11.415 23.467-3.587 3.986-6.266 8.675-10.33 12.255-.528.463-1.027 1.141-1.694.456s-.379-1.416.243-2.092c5.862-6.472 11.876-12.997 15.718-20.787a75.795 75.795 0 005.532-14.801 16.561 16.561 0 011.192-3.31c.32-.657 1.022-1.204 1.944-.04zm9.782 100.127c.149.532.153 1.093.013 1.627a3.147 3.147 0 01-.812 1.418c-2.827 3.371-3.94 7.615-5.796 11.456-2.769 5.694-6.504 10.678-10.286 15.682-.758.995-1.271 2.147-2.074 3.118-.528.637-1.325 1.42-2.231.618-.907-.801.143-1.387.535-1.955 3.182-4.554 6.615-8.965 9.504-13.656a73.606 73.606 0 005.442-11.153c1.017-2.474 2.835-4.461 3.84-6.887.328-.715 1.106-1.262 1.865-.268zm-158.428 285.08c.655 5.634-.324 11.505-1.803 17.218-.868 3.343-1.207 7.041-3.717 9.865a1.209 1.209 0 00-.368.722c.148 4.398-3.746 6.558-5.534 9.858-1.788 3.301-4.416 5.734-6.763 8.435a35.813 35.813 0 01-10.024 7.793 119.61 119.61 0 01-14.719 7.085c-5.977 2.246-12.041 4.239-18.113 6.232a111.805 111.805 0 01-16.618 4.073 52.706 52.706 0 01-16.08-.18A82.313 82.313 0 01336 640.166c-3.158-1.047-6.359-1.892-9.391-3.611a164.073 164.073 0 00-9.296-4.911 38.732 38.732 0 01-8-5.647 138.71 138.71 0 01-15.175-14.805c-4.666-5.417-7.948-11.657-10.708-18.099-1.362-3.192-3.136-6.203-4.129-9.583-1.472-4.991-3.069-9.909-3.901-15.073-1.067-6.637-.964-13.303-.736-19.954.133-4.073 1.097-8.11 2.039-12.126 1.42-6.008 2.723-12.053 5.372-17.665 1.472-3.12 2.827-6.297 4.622-9.302 1.892-3.163 3.526-6.499 5.763-9.432a28.307 28.307 0 017.919-7.222c3.555-2.13 7.065-4.333 10.59-6.499 2.819-1.726 6.271-2.434 9.384-3.712 2.745-1.134 5.755-.723 8.53-1.654a2.996 2.996 0 012.016.063 2.93 2.93 0 011.502 1.323c.618 1.373 1.332.853 1.935.513a26.551 26.551 0 017.551-2.52c2.422-.52 4.858-.419 7.249-.621 4.232-.362 8.501-.91 12.777-.542 6.204.534 12.511.722 18.568 1.856a43.273 43.273 0 0112.372 4.116c3.775 1.994 8.007 2.969 11.606 5.424 2.627 1.791 5.203 3.611 7.705 5.583 4.416 3.437 7.308 8.182 10.812 12.4a51.973 51.973 0 017.116 11.678c1.848 4.008 3.879 7.944 4.872 12.357a38.238 38.238 0 002.378 6.196c1.7 4.388 3.09 8.886 4.158 13.462a99.22 99.22 0 012.377 11.62c.361 2.665.066 5.409.066 8.464zm-187.928 47.845c5.387-.528 9.678 2.607 13.866 5.922 1.471 1.141 2.804 2.419 4.187 3.654 4.946 4.413 5.468 9.981 4.291 15.982-.736 3.575-1.921 7.092-4.298 9.822-2.48 2.889-5.27 5.388-9.2 6.774a19.994 19.994 0 01-14.152-.223c-3.908-1.445-8.096-2.687-11.283-5.533-3.356-2.975-4.136-7.128-5.063-11.222-1.56-6.861 1.472-11.982 6.241-16.517.206-.195.559-.448.537-.629-.463-3.611 2.385-4.246 4.777-5.698 3.061-1.849 6.218-2.39 10.097-2.332zm220.642 8.586c-3.769.152-6.771-1.755-10.149-1.343a.959.959 0 01-.803-.274.933.933 0 01-.257-.795.965.965 0 01.31-.776 1.01 1.01 0 01.808-.257c2.208.08 4.497-.281 6.705.217.582.13 1.141.354 1.641 0 1.038-.664 2.709.412 3.231-.664a14.866 14.866 0 001.207-5.056c.14-1.538.736-3.019.515-4.607a.934.934 0 01.606-1.035.978.978 0 01.432-.056c.684 0 .986.39 1.126 1.047a50.351 50.351 0 011.222 5.901c.081 1.047 1.273 1.401 1.074 2.563-.095.535.611.13.972 0 1.788-.78 3.584-1.538 5.365-2.325.935-.419 2.09-.773 2.613.188.522.96.176 1.877-1.075 2.52-1.752.889-3.268 2.203-4.975 3.185-1.244.722-1.295 1.553-.736 2.629a33.2 33.2 0 002.576 4.543 3.874 3.874 0 01.736 2.946c-.059.549.471 1.387-.464 1.625-.935.239-1.958.145-2.252-.78-.64-2.008-2.554-2.982-3.599-4.672-1.236-1.987-2.546-1.979-3.864-.094-1.133 1.632-2.443 3.098-3.716 4.615-.589.722-.935 1.805-2.076 1.256-1.14-.549-.691-1.683-.537-2.52a22.324 22.324 0 013.364-7.981zm58.73-58.329c-1.288.173-1.708-.347-1.884-1.647-.309-2.26-.383-4.557-1.229-6.752-1.362-3.546-3.548-4.76-7.36-3.878a43.035 43.035 0 01-4.416.722c-.795.101-1.67.101-1.803-1.004-.11-.91.324-1.235 1.236-1.625a33.95 33.95 0 006.624-4.044c2.709-1.979 3.091-5.056 3.893-7.945.449-1.596.229-3.242.56-4.802.154-.723 0-2.087 1.472-2.001 1.089.065 1.302 1.069 1.472 1.842.618 3.141 2.59 5.915 2.745 9.136.125 2.737 2.105 3.3 4.077 3.473 1.693.145 3.584.723 5.218-.613.353-.289 1.126-.188 1.693-.13.566.057 1.582-.477 1.589.787 0 .801 0 1.444-1.045 1.798-3.208 1.134-6.071 2.968-8.993 4.666a3.646 3.646 0 00-1.206 1.147c-.306.468-.498 1-.56 1.554-.494 2.693-1.09 5.38-.854 8.146.088.968-.287 1.343-1.229 1.17zm-36.644-108.83c-2.318-.722-5.321-1.661-7.639-3.524-1.384-1.113-1.597-3.438-1.068-5.33a15.933 15.933 0 011.811-3.532c.243-.419.67-.982 1.067-1.025 2.797-.296 5.696-1.134 8.397-.333 2.701.802 4.085 3.041 4.622 5.778.663 3.301-3.105 7.908-7.19 7.966zm12.512 13.888c-.398-2.167 3.768-6.11 6.093-6.182.736 0 1.561-.087 1.752.83.191.918-.383 1.192-1.244 1.344-1.913.354-2.877 1.704-3.761 3.329-.883 1.625-.228 2.586 1.023 3.474.296.187.615.335.95.44 1.347.484 2.598 2.037 4.136.448 1.214-1.249 1.531-4.239.618-5.741-.464-.722-1.472-1.589-.434-2.311.905-.621 1.656.411 2.34 1.04 2.09 1.921 1.134 5.929-.596 8.464-1.229 1.791-3.606 1.899-6.204.809-2.598-1.091-4.666-2.658-4.673-5.944zm-14.816-5.331c4.637 0 6.322 1.625 6.624 5.51.258 3.546-2.502 4.774-5.932 4.297a7.668 7.668 0 01-3.086-.981 7.527 7.527 0 01-2.382-2.16 5.056 5.056 0 01-.657-2.534 5.055 5.055 0 01.701-2.522c.736-1.444 2.127-1.762 3.68-1.632.316.051.692.022 1.052.022z" fill="#3A4453"/><path d="M422.909 515.81a63.556 63.556 0 018.096 18.055 39.903 39.903 0 002.09 4.976 113.976 113.976 0 015.005 15.383c1.273 4.687 2.362 9.554 2.009 14.537.025.284 0 .57-.074.845-.78 1.495-6.572 3.713-8.36 3.481a50.897 50.897 0 00-8.464-.057c-3.135.13-5.645 1.545-8.162 3.17-1.582 1.018-2.495 2.167-2.487 4.066 0 2.419 0 4.709-1.09 7.157-2.119 4.745.376 8.768 3.437 12.4.626.722 1.59.867 2.458 1.141 2.208.686 3.136-.101 2.584-2.26-.148-.578-.059-1.445-.847-1.748-.993-.354-.736 1.069-1.634 1.112-1.052-1.552-2.362-2.982-3.105-4.838a5.899 5.899 0 01-.345-2.651 5.932 5.932 0 01.86-2.535c1.045-1.863.736-3.697.736-5.554.073-3.271 2.87-5.893 6.285-6.189a45.59 45.59 0 0110.951 0 6.343 6.343 0 003.267-.369 6.224 6.224 0 002.621-1.949c.25-.289.493-.722 1.317-.477.177 8.529-1.685 16.69-5.152 24.974-3.481-4.333-8.375-3.611-12.71-4.557-.942-.195-2.097-.065-2.208 1.329-.11 1.394.663 2.21 2.083 2.044 2.429-.289 4.666.628 6.992.931 1.759.224 2.855 1.748 4.261 2.672.596.39-.132.932-.309 1.286-2.075 4.087-5.049 7.568-8.096 10.984-1.538 1.741-2.943 3.611-4.938 4.962a1.786 1.786 0 01-.993.438 1.81 1.81 0 01-1.068-.214c-3.775-1.517-7.499-3.308-11.775-3.062a10.43 10.43 0 00-5.564 1.791 17.752 17.752 0 01-6.837 2.997 5.133 5.133 0 00-2.208 1.155 2.418 2.418 0 01-1.042.513 2.46 2.46 0 01-1.166-.029c-4.99-.931-10.06-1.119-15.094-1.661-1.892-.202-3.415 1.156-5.255 1.524-4.703.939-8.493 3.676-11.93 6.883-.322.36-.744.62-1.215.75-.47.129-.968.122-1.435-.021a5.293 5.293 0 00-2.145-.198 5.248 5.248 0 00-2.042.675c-.861.563-1.84.267-2.76.267-5.152 0-9.428 2.073-12.997 5.561-.596.585-.736.238-1.17.101-3.055-.997-5.608-2.947-8.523-4.21-1.163-.499-2.208-1.344-3.341-1.828-5.1-2.087-9.17-5.517-13.181-9.128-4.46-4.016-7.904-8.905-12.136-13.036a36.36 36.36 0 01-7.205-9.981c-1.472-2.953-2.385-6.203-3.577-9.294-.986-2.557-1.921-5.15-2.944-7.721a64.204 64.204 0 01-2.995-11.873c-.942-5.243-.95-10.558-.898-15.888a70.88 70.88 0 012.097-15.347c1.229-5.344 2.444-10.659 4.416-15.794 1.811-4.695 4.416-8.963 6.881-13.318a39.18 39.18 0 014.755-7.142 32.573 32.573 0 018.971-6.897c3.68-1.95 6.889-4.651 10.797-6.233a106.794 106.794 0 0112.077-3.712c.625-.173 1.148-.318 1.413.52.265.838-.295.91-.78 1.228-.928.592-2.76.83-1.899 2.448.971 1.842 2.48.787 3.68.08a35.075 35.075 0 0116.927-4.753c4.011-.151 8.022-1.011 12.04-.758 6.433.405 12.843 1.091 19.26 1.69 1.053.094 1.892.881 3.025.946.736.044.891.939.685 1.567-.405 1.228-.987 2.579-2.26 3.005-3.26 1.083-5.306 3.611-7.676 5.777-4.416 4.001-9.45 6.305-15.617 5.865-4.342-.311-8.677.137-13.004.455-2.547.187-4.63 1.682-6.477 3.307a21.058 21.058 0 00-4.622 5.222c-2.362 4.08-7.359 5.575-12.511 4.203-3.599-.961-7.161-1.611-10.959-.924-1.192.209-2.546-.419-3.9.195a9.682 9.682 0 00-5.027 5.394c-1.325 3.315-3.496 6.002-5.564 8.797-1.317 1.769-1.089 3.365-.235 5.431 1.42 3.437 4.084 5.857 6.3 8.63a5.053 5.053 0 001.841 1.556 5.15 5.15 0 002.368.538c5.888-.44 10.429 2.217 14.72 5.619 1.751 1.387 3.422 2.889 5.203 4.21a14.4 14.4 0 008.427 3.041c4.511.101 9.03.079 13.549 0 3.473-.058 6.344-1.596 8.831-3.849 1.009-.91 1.899-1.604 3.518-.918 2.789 1.178 5.682 2.037 8.133 3.936 2.171 1.683 6.815.723 8.647-1.227 3.643-3.842 5.557-8.566 7.558-13.224a4.04 4.04 0 011.403-1.876 4.149 4.149 0 012.226-.803c5.733-.766 10.789-2.846 14.785-7.07a4.662 4.662 0 001.104-1.517c1.546-4.384 5.277-6.269 9.259-7.807 3.981-1.538 7.138-4.073 10.06-7.323z" fill="#B0D9E8"/><path d="M312.861 515.016c3.68.267 6.852 1.38 10.127 1.907 3.768.614 7.683.606 10.73-1.979 2.083-1.777 3.525-4.268 5.343-6.37a9.95 9.95 0 013.124-2.384 10.115 10.115 0 013.824-1.003c5.203-.484 10.458 0 15.617-.491 6.328-.661 12.14-3.728 16.191-8.544a13.2 13.2 0 014.968-3.3c2.046-.888 3.385-2.102 3.68-4.377.103-.794.471-1.35 1.736-.931 1.266.419 2.208.895 3.312 1.357 4.041 1.727 8.309 3.128 11.864 5.67 4.445 3.221 9.163 6.312 12.268 11.035a44.698 44.698 0 004.026 5.38c1.06 1.156.611 1.921 0 2.947-1.987 3.235-5.152 4.911-8.559 6.254-4.416 1.762-8.191 4.059-10.348 8.522-2.156 4.463-6.255 6.363-10.892 7.323-1.185.253-2.421.238-3.599.506-2.892.671-4.636 2.65-5.549 5.286a47.732 47.732 0 01-5.063 10.096c-1.907 2.969-4.909 3.127-8.729.925a28.31 28.31 0 00-6.881-2.586c-3.79-1.004-6.226 1.553-8.736 3.474a7.218 7.218 0 01-4.107 1.611c-4.526.166-9.037.245-13.564.722-2.252.224-4.732-1.156-6.623-2.752-3.555-2.946-7.124-5.864-11.187-8.132a13.45 13.45 0 00-7.801-1.74 6.737 6.737 0 01-3.375-.472 6.6 6.6 0 01-2.689-2.056c-2.046-2.477-4.527-4.636-5.594-7.829a2.415 2.415 0 01.331-2.65c2.311-3.113 5.211-5.843 6.013-9.937.42-2.167 2.377-3.229 4.571-3.886a44.556 44.556 0 015.571-1.596z" fill="#9CE084"/><path d="M337.685 636.871a21.55 21.55 0 0111.415-3.178c2.266 0 4.452-.722 6.881-.476 2.988.281 4.798-2.557 6.992-4.175 5.968-4.405 12.57-5.474 19.753-4.131 2.296.434 4.658.448 6.925 1.134 1.325.405 2.51-.368 3.614-1.004a15.875 15.875 0 015.299-1.95 5.536 5.536 0 002.406-1.242c3.18-2.333 6.521-3.611 10.429-1.524 1.206.487 2.458.854 3.739 1.098-1.244 2.008-3.423 2.614-5.233 3.51-2.017.989-4.122 1.856-6.116 2.889-5.211 2.708-10.804 4.333-16.383 6.081-4.077 1.292-8.095 2.809-12.268 3.827a91.73 91.73 0 01-17.943 2.593 43.208 43.208 0 01-9.501-.635 40.957 40.957 0 01-10.009-2.817z" fill="#FEFEFE"/><path d="M255.345 623.936c4.828-.47 8.692 2.513 12.35 5.604a34.035 34.035 0 014.519 4.138c3.017 3.611 2.833 7.54 2.156 11.649-1.178 7.1-6.005 11.382-12.129 14.365-2.885 1.444-6.204.903-9.192-.123a92.06 92.06 0 01-9.494-3.958c-3.599-1.711-4.636-5.171-5.681-8.608-2.341-7.692 1.162-12.704 6.38-16.705.861-.664 2.539-1.22.736-2.744-.478-.397.368-.563.663-.78 2.715-2.029 5.806-2.889 9.692-2.838z" fill="#FFDA74"/><path d="M534.747 559.719c-1.715-2.745-3.283-5.301-7.699-4.052 1.899-1.935 3.526-3.185 4.07-5.294.508-1.993 1.605-3.835 1.634-6.088a7.143 7.143 0 011.641 4.521c.14 2.932 1.472 4.658 4.482 5.106.493.08.986.173 1.509.267-1.921 1.705-5.152 2.073-5.637 5.54zm-36.306-110.502c2.054.05 4.828 2.657 4.983 4.68.154 2.022-2.282 5.329-4.372 5.113-2.09-.217-4.695-.78-6.175-2.615-1.229-1.531-.559-3.314.412-4.968 1.2-2.059 3.408-1.553 5.152-2.21zm-.397 29.419c-1.59-.462-3.482-.895-4.747-2.462a2.508 2.508 0 01-.405-3.07c.648-1.184 1.376-1.039 2.546-.967 2.208.137 4.313-.051 5.152 2.621.545 1.712-.67 3.922-2.546 3.878z" fill="#B0D9E8"/><path d="M320.404 559.993c3.68-.26 6.786 1.639 10.157 2.968 4.725 1.856 9.391 2.412 14.285.614a14.611 14.611 0 015.225-.874 19.026 19.026 0 009.869-2.116 4.754 4.754 0 014.122-.159c2.451.888 5.152.722 7.646 1.654 3.761 1.401 5.321 4.6 4.269 8.493-.898 3.315-3.201 5.937-4.166 9.266-.831 2.889-1.471 5.128.427 8.038 2.561 3.929 2.046 8.428.883 12.927a12.262 12.262 0 01-2.133 4.704 12.529 12.529 0 01-3.901 3.443 21.16 21.16 0 00-2.26 1.979c-4.82 3.813-12.136 1.632-14.719-4.464a29.667 29.667 0 01-2.208-11.605c0-4.276-.434-4.586-4.607-6.276a49.754 49.754 0 00-7.485-2.167c-2.37-.541-5.071-.83-7.499.722a21.457 21.457 0 01-5.152 2.376c-5.483 1.777-12.21-1.227-13.284-7.742-.287-1.755-.92-3.473-1.369-5.214-.736-2.788.206-5.005 1.413-7.301.096-.181.316-.419.258-.549-1.149-2.846.456-4.615 2.399-6.384 2.178-1.929 4.703-2.109 7.83-2.333zm-68.606 68.278c.383-1.669 1.84-2.384 3.783-1.654 2.561.96 3.967 3.221 5.291 5.33.906 1.444-.449 3.098-2.207 3.127-2.275.043-4.1 1.906-6.624 1.343-1.788-.404-2.782-1.444-2.885-3.922-.103-2.477.736-3.964 2.605-4.268 1.178.722.824 1.502.133 2.29a2.231 2.231 0 00-.715 1.521c-.03.578.168 1.145.553 1.584.876 1.148 2.002.903 3.135.412.654-.311 1.34-.553 2.046-.722 1.899-.39 1.715-.333.736-1.864-1.295-2.253-3.459-2.86-5.851-3.177zm.898 21.087c.589-.094 1.163-.433 1.31.347a.939.939 0 01-.49 1.095.985.985 0 01-.423.104 7.63 7.63 0 01-3.435-.428 7.503 7.503 0 01-2.872-1.898c-1.303-1.444-1.354-3.553-.552-5.467.196-.376.478-.702.824-.953a.793.793 0 011.156 0c.243.274.147.628 0 .982-1.553 3.604.522 6.399 4.482 6.218zm9.634 6.153c-.111.722.397 1.776-.692 2.166-1.089.39-1.987.297-2.208-1.112 0-.05-.434 0-.611-.086a2.192 2.192 0 01-1.137-1.076 2.132 2.132 0 01-.114-1.546c.456-1.481 1.899-1.163 3.113-1.228 1.332-.072 1.472.816 1.605 1.733.04.382.055.765.044 1.149z" fill="#3A4453"/><path d="M252.291 646.636c-1.641.115-2.694-.34-2.62-2.08.044-1.055-.088-2.232 1.56-2.167 1.317 0 2.701 1.589 2.834 2.889.176 1.611-.861 1.416-1.774 1.358zm12.651 1.727c-1.001.087-1.722-.13-1.766-1.444 0-1.185.927-1.712 1.538-1.445.802.34 2.458-.397 2.392 1.293-.044 1.206-.913 1.654-2.164 1.596zm-7.455.446c-.471-.137-1.126.267-1.244-.527-.081-.52.133-.766.699-.794 1.031-.058 1.067-1.04 1.428-1.661a.728.728 0 01.335-.376.747.747 0 01.504-.072c.515 0 .486.411.5.758.089 1.582-.625 2.492-2.222 2.672zm5.402-9.858c.545.173 1.553 0 1.626 1.227.037.571-.522 1.214-.736.838-.736-1.249-2.627 1.401-2.737-.91-.052-1.076.75-1.22 1.847-1.155z" fill="#3A4453"/><path d="M320.265 563.078c2.892-.643 5.394 1.35 8.095 2.463 5.954 2.441 11.915 2.968 18.075.902a15.456 15.456 0 015.888-.787c3.238.21 6.167-.765 8.957-2.224.404-.217.824-.506 1.185-.303 2.539 1.444 5.571.808 8.191 2.029 2.024.939 2.944 2.39 2.208 4.535-1.406 4.052-3.871 7.648-5.152 11.779-.633 2.059-.905 3.85.515 5.698a15.4 15.4 0 012.326 5.056c.802 2.621 0 5.221-.456 7.8-.56 3.3-2.356 5.662-5.689 6.774-.825.274-1.244 1.112-2.083 1.552-2.944 1.546-6.948-.281-8.339-3.538a27.583 27.583 0 01-2.163-11.44c.088-4.196-1.355-7.063-5.792-8.276a46.443 46.443 0 01-5.152-1.625c-3.945-1.618-7.956-.925-11.937-1.148a2.14 2.14 0 00-1.539.599 14.244 14.244 0 01-7.109 3.04c-2.061.231-3.753-1.191-4.681-2.946-1.685-3.207-2.848-6.5-2.311-10.32.265-1.849.214-3.611.847-5.525 1.118-3.257 1.766-4.095 6.116-4.095z" fill="#9CE084"/><path d="M251.798 628.271c3.996-1.343 5.409 1.986 7.44 4.073.538.549.273 1.531-.846 1.445-1.472-.152-2.62.455-3.842 1.025a2.323 2.323 0 01-1.719.294 2.286 2.286 0 01-1.43-.98c-.972-1.314-1.391-2.824.073-3.893 1.008-.722.869-1.213.361-1.986l-.037.022zm8.824 28.208c-.081-.881-1.376-1.285-.905-2.282a.743.743 0 01.736-.144c.89.664.589 1.538.169 2.426z" fill="#FEFEFE"/><path d="M232.446 77.807c0 6.399 0 11.879-2.232 17.096-2.292 5.369-6.506 9.73-11.847 12.262-1.718.847-2.695 2.27-4.217 3.189-8.371 5.046-17.257 6.055-27.047 5.641-10.202-.424-17.977-5.52-25.711-10.294-9.569-5.747-16.554-14.85-19.54-25.461a59.922 59.922 0 01-2.602-23.535c1.029-9.446 5.482-17.499 13.761-23.03 4.977-3.33 10.541-5.51 16.043-7.83 9.256-3.896 18.512-2.584 27.952-1.01 7.415 1.231 12.568 5.833 18.08 10.092 1.491 1.15 2.89 2.412 4.33 3.633 6.098 5.167 8.69 12.242 10.448 19.538 1.625 6.711 3.168 13.553 2.582 19.71z" fill="#3A4453"/><path d="M228.846 78.766c-.432 4.844.093 9.8-1.789 14.512a21.42 21.42 0 01-7.693 9.144c-3.085 2.26-6.026 4.935-9.626 6.519-6.746 2.967-13.523 5.54-21.206 3.855-2.406-.535-4.967 0-7.456-.686-4.885-1.433-9.039-4.259-13.513-6.469a45.522 45.522 0 01-16.455-13.765c-4.802-6.439-6.736-13.907-8.351-21.536a37.175 37.175 0 012.787-23.504c3.086-6.63 8.536-11.02 15.427-13.765 3.013-1.201 6.561-1.474 9.194-2.745 5.142-2.483 10.284-2.907 15.652-2.604 8.618.504 16.825 2.381 23.387 8.538 3.969 3.723 8.947 6.458 11.898 11.161 3.59 5.732 5.142 12.211 6.449 18.74a53.983 53.983 0 011.295 12.605z" fill="#967057"/><path d="M201.336 79.4c.196 5.43-2.951 9.244-5.666 13.12-1.307 1.847-6.891 1.2-9.986-.908a33.063 33.063 0 01-6.305-5.097 13.301 13.301 0 00-7.075-4.32c-7.497-1.856-10.284-7.75-12.341-14.017a5.888 5.888 0 01.112-3.95 6.023 6.023 0 012.593-3.023c2.643-1.544 5.574-2.856 8.7-1.201 5.142 2.694 9.811 6.146 15.663 7.337 1.635.333 3.178 1.009 4.905 1.009 4.927.06 7.302 1.705 8.619 6.388.432 1.594 1.234 3.25.781 4.662zm-18.768-28.385c-2.705.737-5.142-1.07-7.498-2.25-3.476-1.736-4.113-6.48-1.82-10.385 1.903-3.29 5.924-4.279 9.585-2.825 3.414 1.362 5.451 4.107 7.785 6.55a5.152 5.152 0 01.689 5.611c-1.028 2.23-3.548 2.956-5.975 3.28-.921.063-1.845.07-2.766.02zm33.403 10.827c.637 2.412-.658 4.703-2.417 6.802a6.303 6.303 0 01-2.144 1.665 6.42 6.42 0 01-5.337.083 6.322 6.322 0 01-2.197-1.596 10.666 10.666 0 01-2.401-5.67 10.596 10.596 0 011.147-6.037c1.512-3.128 3.219-5.56 6.983-4.652 4.741 1.14 6.366 3.734 6.366 9.405zM211.6 91.714c-4.453.565-5.441-2.705-4.587-6.328.463-2.018 1.481-3.764 1.697-5.853.175-1.625 4.515-2.896 6.047-1.786 1.275.928 2.653 2.018 2.921 3.653a13.016 13.016 0 01-1.923 8.356 3.4 3.4 0 01-1.693 1.764 3.496 3.496 0 01-2.462.194z" fill="#3A4453"/><path d="M163.418 67.342c-.421-2.019.576-3.028 2.284-3.714a4.605 4.605 0 014.679.273 64.53 64.53 0 0016.455 6.882 14.87 14.87 0 004.113.616c4.402 0 8.156 4.531 7.323 8.9-.648 3.422-2.602 6.268-4.608 8.982-1.83 2.463-4.113.222-6.17-.181a4.943 4.943 0 01-2.386-1.665 34.405 34.405 0 00-14.614-9.729c-4.618-1.635-5.893-6.176-7.076-10.364zm20.178-19.224c-1.79.222-3.27-.515-4.813-1.252-4.69-2.25-4.618-3.693-1.183-7.962a2.6 2.6 0 011.049-.625 2.642 2.642 0 011.224-.082 16.202 16.202 0 018.371 6.45c.926 1.321-.36 2.583-1.686 3.107-.965.257-1.962.38-2.962.364zm29.3 13.058c.288 1.14-.422 2.019-.875 3.028-.822 1.766-2.262 3.653-4.041 3.4-2.139-.312-2.88-2.774-3.363-4.752-.484-1.978.545-3.694 1.625-5.319 2.314 1.938 2.211-1.14 3.291-1.433a2.679 2.679 0 011.551.457c.456.307.802.748.989 1.259.319 1.05 1.121 2.089.823 3.36zm1.244 21.86a12.575 12.575 0 01-1.029 4.652c-.329 1.01-.946 1.544-2.108 1.212-1.46-.414-1.162-1.181-.658-2.23a34.306 34.306 0 001.368-3.816c.247-.706-.504-2.018 1.121-1.877 1.285.162 1.378 1.201 1.306 2.06z" fill="#FFDA74"/></g><defs><radialGradient id="paint0_radial" cx="0" cy="0" r="1" gradientUnits="userSpaceOnUse" gradientTransform="matrix(314.25765 740.1327 -785.50701 333.52341 497.742 221.867)"><stop stop-color="#807CAA"/><stop offset=".57" stop-color="#D2D2D4"/></radialGradient><clipPath id="clip0"><path fill="#fff" d="M0 0h612v879H0z"/></clipPath></defs></svg>