<svg width="466" height="519" fill="none" xmlns="http://www.w3.org/2000/svg"><path fill="url(#paint0_radial)" d="M0 0h466v519H0z"/><path d="M263.181 148.131c-.914-3.966 1.565-16.061 2.567-19.448 1.496-4.907 4.14-9.244 6.859-13.469a74.854 74.854 0 018.529-10.628c2.376-2.535 4.929-4.78 7.516-7.054 1.148-1.005 2.638-1.034 3.828-1.867 3.871-2.704 8.362-4.184 12.714-5.761a50.688 50.688 0 0113.505-2.671c2.825-.206 5.625-.245 8.436-.242 3.558.007 6.971 1.011 10.427 1.644 3.869.8 7.616 2.106 11.145 3.884.329.158.727.503 1.08-.041.909-1.406 2.193-2.49 3.258-3.792 1.184-1.452 1.809-3.865 4.656-3.597.737.073 1.67-1.446 2.448-2.292a63.623 63.623 0 0111.938-9.831 76.542 76.542 0 0117.192-8.498 39.294 39.294 0 0117.907-1.844c4.719.623 9.342 1.524 13.639 3.591 3.24 1.556 6.298 3.374 7.957 6.9.966 2.04.166 3.79-.404 5.546a47.894 47.894 0 01-10.054 17.012c-2.278 2.551-4.601 5.103-6.809 7.709-1.998 2.366-4.129 4.651-5.982 7.157-2.553 3.428-5.624 6.381-8.499 9.517-4.864 5.295-10.144 10.187-14.808 15.658a2.685 2.685 0 00-.735 2.219c1.162 8.113.021 16.056-1.513 24.025a139.458 139.458 0 01-4.283 15.985 25.907 25.907 0 01-2.105 4.647c-1.215 2.197-1.531 4.752-2.951 6.881a60.804 60.804 0 01-11.379 12.884c-6.153 5.185-13.463 8.339-20.881 11.063a39.588 39.588 0 01-16.504 2.037c-5.391-.379-10.647-1.065-15.788-2.952a58.918 58.918 0 01-8.301-3.685 3.32 3.32 0 00-3.645.141c-4.128 2.546-8.184 5.264-12.472 7.624-3.062 1.687-5.986 3.603-9.079 5.264a109.515 109.515 0 01-11.287 5.099c-5.171 2.055-10.443 4.134-16.145 3.869-4.95-.236-9.211-2.129-12.101-6.418-2.607-3.862-3.566-8.265-4.253-12.779-.562-3.679.43-7.074 1.183-10.569a38.984 38.984 0 012.442-7.335 62.54 62.54 0 014.31-8.396c1.642-2.63 2.829-5.56 4.2-8.348a41.665 41.665 0 017.659-10.723 34.922 34.922 0 003.457-4.511c1.859-2.613 4.194-4.712 6.523-6.828a24.241 24.241 0 002.071-2.286 2.272 2.272 0 012.043-.96c.691-.762 1.184-1.165 1.069-1.461l-.58-2.07z" fill="#3A4453"/><path d="M263.758 153.601c-.418.122-1.069.553-1.411.426-.512-.217-.418.213-.525.39-.903 1.435-2.224 2.417-3.517 3.478a25.517 25.517 0 00-5.057 5.849c-1.744 2.681-4.05 4.878-6.063 7.316-2.086 2.527-3.465 5.449-5.029 8.274-1.866 3.355-3.333 6.922-5.411 10.178a36.753 36.753 0 00-3.328 7.234c-1.485 3.993-2.64 8.132-2.757 12.405a28.098 28.098 0 001.304 8.489 17.868 17.868 0 002.863 6.118c3.14 4.082 7.327 5.531 12.315 5.143 3.632-.26 7.017-1.368 10.456-2.499a90.402 90.402 0 0010.48-4.274 83.146 83.146 0 009.859-5.608c2.42-1.586 4.984-2.987 7.452-4.522 2.731-1.669 5.523-3.24 8.548-4.996-2.603-1.491-5.009-2.871-7.045-4.803-.386-.363-.891-.55-1.645.004-3.693 2.679-7.43 5.317-11.323 7.683a38.671 38.671 0 01-15.71 5.571c-3.049.355-5.98.619-8.993-.094-3.272-.751-5.448-2.812-7.032-5.619a13.982 13.982 0 01-.562-13.417c.861-1.881 1.363-3.928 2.104-5.875a56.542 56.542 0 015.713-10.779 54.457 54.457 0 004.471-7.812c1.907-4.319 4.688-8.127 9.129-10.357 1.234-.624 1.497-4.483 1.08-6.388l-.366-1.515z" fill="#D9A672"/><path d="M273.278 178.433a86.734 86.734 0 01-7.172-26.689 63.926 63.926 0 01.442-17.027 36.924 36.924 0 014.23-11.93 82.66 82.66 0 0110.528-15.445c2.801-3.17 5.584-6.429 9.198-8.668 3.158-1.951 5.983-4.504 9.676-5.548a181.91 181.91 0 0111.958-2.97 56.355 56.355 0 0117.836-.979c3.204.275 6.356.987 9.368 2.114 2.472.96 4.94 1.954 7.409 2.934.591.235 1.26.286.589 1.275-.326.487.089 1.478.955.85 1.919-1.384 3.282.034 4.676.825 3.979 2.27 7.445 5.245 11.006 8.106 3.561 2.862 5.768 6.962 8.628 10.454.329.4.083.617-.273.973-1.703 1.716-3.402 3.429-5.161 5.09-3.083 2.912-5.894 6.119-9.058 8.935a779.249 779.249 0 01-12.49 10.854c-5.334 4.537-10.609 9.153-16.174 13.43-3.816 2.954-7.245 6.395-11.076 9.315-4.522 3.468-9.36 6.536-13.907 9.976a188.027 188.027 0 01-11.048 7.715 93.605 93.605 0 00-8.911 6.518c-1.054.873-2.496 1.195-3.432 2.344-.429.518-1.06.268-1.424-.392-2.329-4.172-5.115-8.113-6.373-12.06zm106.14-39.959c1.181 8.203-.107 15.667-1.493 23.147a121.822 121.822 0 01-4.28 15.978c-.411 1.242-1.179 2.417-1.68 3.679-1.539 4.004-3.084 8.102-5.968 11.307-3.675 4.083-7.318 8.21-12.064 11.265a79.305 79.305 0 01-14.29 7.166c-2.559.993-5.329 1.417-8.064 1.924-3.631.672-7.253.457-10.839.324a41.406 41.406 0 01-8.027-1.111 54.174 54.174 0 01-14.383-5.558 1417.99 1417.99 0 0110.519-7.153c3.503-2.361 6.731-5.192 9.989-7.925 4.451-3.724 8.83-7.523 13.435-11.072 2.034-1.57 3.813-3.475 5.74-5.202 4.096-3.67 8.046-7.524 12.352-10.932 5.271-4.17 10.192-8.744 15.559-12.798a92.535 92.535 0 0010.946-10.024c.8-.856 2.046-1.315 2.548-3.015z" fill="#FFDA74"/><path d="M356.075 96.116a31.978 31.978 0 00-3.532-1.704c-1.352-.469-1.108-1.176-.448-1.931.908-1.046 2.085-1.848 2.521-3.245.102-.325.398-.394.72-.239.885.429 1.368-.132 1.952-.685 3.201-3.048 6.333-6.177 9.705-9.025a75.261 75.261 0 019.444-6.69c2.208-1.35 4.57-2.357 6.825-3.598 5.453-3.007 11.458-4.173 17.646-4.085 6.187.088 12.199.618 17.88 3.016a17.75 17.75 0 016.648 4.563c1.304 1.508 1.259 3.038.866 4.521a33.734 33.734 0 01-3.214 7.923c-2.046 3.602-4.238 7.123-7.061 10.047-2.354 2.434-4.527 5.032-6.71 7.575-2.539 2.958-4.953 6.059-7.446 9.095a170.415 170.415 0 01-13.515 14.231c-2.497 2.345-4.667 5.04-7.079 7.675-.44-1.339-.45-2.557-.932-3.676-1.175-2.721.881-4.302 2.556-5.599 3.284-2.476 5.839-5.611 8.273-8.799 3.71-4.836 7.39-9.679 11.277-14.376 2.726-3.3 5.189-6.814 6.787-10.85.422-.887.916-1.739 1.476-2.546 1.658-2.715 2.062-5.504.875-8.573a6.559 6.559 0 00-5.476-4.238c-1.922-.23-3.85-.836-5.855-.637-3.378.334-6.718.938-10.077 1.316-6.123.681-11.639 3.029-17.11 5.553-3.32 1.53-6.216 3.768-9.244 5.839-2.831 1.934-4.583 4.945-7.292 6.983-.788.595-1.121 1.307-.449 2.213l-.011-.054z" fill="#D9A672"/><path d="M375.549 121.589c.844 1.138.846 2.87 1.476 4.389.523 1.212-.658 1.852-1.33 2.384-3.785 3.012-6.965 6.666-10.653 9.78a8726.757 8726.757 0 00-9.3 7.934c-2.446 2.069-5.205 3.717-7.509 6.025-2.211 2.222-5.059 3.784-7.492 5.808-3.758 3.119-7.893 5.727-11.602 8.928a80.02 80.02 0 01-8.085 6.176c-2.759 1.844-5.236 4.115-7.836 6.191-4.221 3.364-8.261 6.996-12.724 9.994-3.983 2.673-7.794 5.579-11.81 8.188a.43.43 0 01-.16.069c-.877.195-1.04 1.756-2.247 1.244-.959-.39-1.283-1.459-2.037-2.101-.252-.219-.339-.619-.572-.871-2.478-2.623-2.579-3.175.506-4.793 2.308-1.225 4.002-3.113 6.112-4.507 4.096-2.715 8.151-5.478 12.264-8.168 2.327-1.514 4.354-3.402 6.692-4.921 3.913-2.531 7.732-5.251 11.377-8.177 4.87-3.859 9.514-7.968 14.272-11.949 4.14-3.46 8.447-6.744 12.426-10.382 3.774-3.459 7.682-6.759 11.527-10.131 4.585-4.018 8.776-8.434 13.089-12.707 2.069-2.049 1.992-2.167 3.148.511l.468 1.086z" fill="#967057"/><path d="M296.741 205.217c-.407.268-.999.137-1.839-.37a40.555 40.555 0 01-5.638-3.736c-.71-.602-.941-1.032.037-1.703 2.703-1.852 5.263-3.931 7.996-5.698 3.777-2.441 7.363-5.138 10.914-7.873 4.131-3.195 8.134-6.563 12.239-9.785 1.911-1.478 3.96-2.787 5.881-4.257 2.04-1.573 4.05-3.198 5.992-4.892 2.566-2.232 5.475-3.971 8.077-6.179 3.627-3.088 7.632-5.665 11.199-8.878 2.959-2.669 6.434-4.776 9.489-7.434 5.014-4.373 10.119-8.655 14.688-13.528.48-.508 1.161-1.521 1.922-1.15.63.31.931 1.311.879 2.189a.682.682 0 00.03.341c1.652 3.679-.976 5.493-3.199 7.55-1.902 1.755-3.651 3.654-5.491 5.448-3.258 3.17-6.867 5.924-10.4 8.775-3.215 2.59-6.224 5.431-9.454 8.001-1.663 1.325-3.153 2.825-4.895 4.073-1.741 1.248-3.218 2.931-4.872 4.338-4.997 4.228-9.717 8.768-14.929 12.756-4.681 3.601-8.92 7.77-13.508 11.508a63.103 63.103 0 01-9.229 6.401 27.407 27.407 0 00-4.152 3.099c-.551.381-1.132.717-1.737 1.004z" fill="#D9A672"/><path d="M356.056 96.164c.837.182 1.367-.21 1.956-.798 3.815-3.79 8.215-6.813 12.654-9.807a49.538 49.538 0 019.893-4.968c4.658-1.82 9.582-2.54 14.521-3.149.856-.108 1.7-.256 2.555-.364 3.587-.456 7.101-.202 10.284 1.647 1.386.788 2.598 4.506 1.815 5.857-2.244 3.884-3.932 8.09-6.508 11.782-2.049 2.93-4.373 5.646-6.7 8.356-3.632 4.227-6.565 9.016-10.235 13.201a64.89 64.89 0 01-7.309 6.99c-.328-2.911-1.543-5.53-2.872-8.081-.366-.711.128-.898.328-1.056a70.827 70.827 0 009.708-9.758c3.418-3.98 6.573-8.18 9.442-12.571a8.184 8.184 0 001.491-4.434c-.06-3.896-2.585-5.218-6.323-4.69-5.457.773-10.423 3.106-15.283 5.471a47.796 47.796 0 00-9.666 6.132c-1.404 1.168-3.273 1.758-4.311 3.396-.101.16-.173.447-.479.207-1.557-1.29-3.526-1.917-4.926-3.404l-.035.041zm-96.551 110.715c3.548-1.531 6.637-3.851 9.939-5.74 2.68-1.529 5.159-3.325 7.731-4.997.812-.526 1.64-1.681 2.328-1.586.688.095 1.116 1.48 1.749 2.219.79.908 1.478 1.912 2.328 2.761.744.77.468 1.235-.115 1.611-5.354 3.448-10.292 7.559-16.191 10.137a30.848 30.848 0 01-7.896 2.1c-2.804.407-5.577.917-8.516.407a9.145 9.145 0 01-6.079-3.488c-3.08-4.004-3.285-8.386-1.385-12.977.853-2.067 1.582-4.179 2.298-6.305a41.16 41.16 0 015.332-9.981c2.298-3.337 4.075-6.987 6.032-10.524a19.486 19.486 0 017.31-7.638c.761-.446 1.063-.08 1.265.585.652 2.117 1.297 4.231 1.965 6.341.154.477-.093.661-.444.787-3.543 1.209-5.309 4.356-7.171 7.127a75.738 75.738 0 00-8.79 17.734c-.915 2.649-1.456 5.301-.883 8.159.645 3.205 4.268 5.347 7.222 4.105l1.971-.837z" fill="#967057"/><path d="M271.486 179.703a54.39 54.39 0 006.062 11.397c.619.89.713 1.653-.36 2.528a75.915 75.915 0 01-8.737 5.907c-2.491 1.481-4.945 3.017-7.395 4.564a16.21 16.21 0 01-4.666 2.073c-2.141.538-3.794-1.22-3.919-3.734-.156-2.619.501-5.033 1.355-7.461a65.864 65.864 0 016.636-13.713c1.889-2.952 3.71-6.032 6.45-8.391 1.014-.875 1.38-.693 1.83.426.761 1.914 1.622 3.804 2.744 6.404zm91.143-78.696c2.984-3.248 6.908-4.601 10.322-6.76 4.375-2.764 9.142-4.56 13.819-6.67 1.386-.6 2.861-.972 4.367-1.1 3.263-.33 4.58 1.39 3.426 4.456a20.89 20.89 0 01-3.261 5.329c-4.509 5.815-8.928 11.735-14.521 16.612-1.993 1.742-2.17 1.878-3.459-.324a36.624 36.624 0 00-10.693-11.543z" fill="#B7B7B7"/><path d="M298.556 158.629c-.374.102-.666.32-.868-.057a.641.641 0 01.028-.783c.369-.525 1.001-.635 1.399-1.016a109.164 109.164 0 007.765-7.749c4.178-4.855 8.338-9.722 12.588-14.517a75.523 75.523 0 006.946-9.193c3.036-4.702 6.551-9.049 9.358-13.934.199-.34.499-.614.833-.477.561.242.42.747.233 1.207-.72 1.8-1.99 3.264-3.075 4.823-2.706 3.874-5.245 7.865-7.946 11.736a108.66 108.66 0 01-7.85 9.584c-3.211 3.627-6.457 7.237-9.56 10.948a57.342 57.342 0 01-9.386 9.051c-.194.142-.364.294-.465.377zm-6.34-13.132c-.504.015-.912.688-1.295.029-.382-.658.313-.684.606-.974 1.233-1.185 2.417-2.441 3.597-3.689 3.02-3.091 5.86-6.353 8.507-9.769 1.667-2.196 3.845-3.933 5.406-6.221 2.571-3.764 5.274-7.466 7.717-11.284 2.745-4.238 5.529-8.387 7.852-12.879.217-.42.581-.728.98-.423.4.305.29.868.046 1.287-1.301 2.255-2.58 4.532-3.954 6.739a180.98 180.98 0 01-5.112 7.84c-2.601 3.815-4.98 7.828-7.988 11.29-3.245 3.733-6.24 7.68-9.625 11.284-1.964 2.083-3.981 4.117-5.98 6.162-.24.218-.493.421-.757.608zm18.945-47.351c.073.335.147.506-.05.747-2.744 3.439-4.523 7.508-7.203 10.991a72.894 72.894 0 01-8.538 8.985c-3.156 2.91-6.361 5.764-9.244 8.956a20.635 20.635 0 01-4.336 3.917c-.403.246-.67 1.126-1.216.557-.546-.568-.06-1.078.555-1.514a28.813 28.813 0 004.225-4.052c3.807-4.048 8.131-7.567 12.026-11.503a53.39 53.39 0 007.068-8.442c1.657-2.565 2.886-5.428 4.863-7.765.458-.53.885-1.493 1.85-.877zm38.389 14.303c-.17.986-.404 1.961-.702 2.917-1.905 4.868-3.193 10.09-6.733 14.108-2.116 2.396-3.696 5.216-6.093 7.368-.312.278-.606.686-1 .274-.393-.412-.223-.851.144-1.258 3.457-3.89 7.005-7.814 9.271-12.497a46.133 46.133 0 003.264-8.898 9.953 9.953 0 01.703-1.99c.189-.395.602-.724 1.146-.024zm5.77 60.195a1.897 1.897 0 01-.471 1.831c-1.667 2.026-2.324 4.578-3.419 6.887-1.633 3.423-3.836 6.42-6.067 9.428-.448.598-.75 1.291-1.223 1.874-.312.383-.782.854-1.317.372-.534-.481.085-.834.316-1.175 1.877-2.738 3.902-5.39 5.606-8.21a44.611 44.611 0 003.21-6.706c.6-1.487 1.672-2.682 2.265-4.14.194-.43.653-.759 1.1-.161zm-93.452 171.393c.387 3.386-.191 6.916-1.063 10.351-.512 2.01-.712 4.233-2.193 5.931a.737.737 0 00-.217.434c.087 2.644-2.209 3.943-3.264 5.927-1.055 1.984-2.605 3.447-3.99 5.071a21.166 21.166 0 01-5.912 4.685 70.083 70.083 0 01-8.683 4.26c-3.525 1.35-7.102 2.548-10.684 3.747a64.955 64.955 0 01-9.802 2.448 30.516 30.516 0 01-9.486-.108 47.821 47.821 0 01-8.378-1.911c-1.863-.629-3.751-1.137-5.54-2.171a95.737 95.737 0 00-5.483-2.952 22.846 22.846 0 01-4.719-3.395 82.576 82.576 0 01-8.951-8.901c-2.752-3.257-4.689-7.008-6.317-10.881-.803-1.919-1.849-3.73-2.435-5.762-.868-3-1.81-5.957-2.301-9.061-.629-3.991-.569-7.998-.434-11.997.078-2.449.647-4.876 1.203-7.29.837-3.613 1.606-7.247 3.169-10.621.868-1.875 1.667-3.786 2.726-5.592 1.116-1.902 2.079-3.908 3.399-5.67a16.784 16.784 0 014.671-4.342c2.097-1.281 4.168-2.606 6.247-3.908 1.663-1.038 3.699-1.463 5.535-2.232 1.62-.682 3.395-.434 5.032-.994a1.736 1.736 0 012.075.834c.365.824.786.512 1.142.308a15.43 15.43 0 014.454-1.516c1.428-.312 2.865-.251 4.276-.373 2.496-.217 5.014-.547 7.536-.326 3.66.322 7.38.435 10.953 1.116a25.217 25.217 0 017.298 2.475c2.227 1.199 4.723 1.785 6.846 3.261 1.55 1.077 3.069 2.171 4.545 3.356 2.605 2.067 4.311 4.92 6.377 7.455a31.377 31.377 0 014.198 7.021c1.09 2.41 2.288 4.776 2.874 7.429.36 1.28.829 2.526 1.402 3.726a61.087 61.087 0 012.453 8.093 60.608 60.608 0 011.402 6.986c.213 1.602.039 3.252.039 5.089zm-110.853 28.764c3.178-.317 5.709 1.567 8.179 3.56.868.686 1.654 1.455 2.47 2.197 2.918 2.653 3.226 6.001 2.531 9.609-.434 2.149-1.133 4.263-2.535 5.905-1.463 1.736-3.108 3.239-5.427 4.072a11.59 11.59 0 01-8.348-.134c-2.305-.869-4.775-1.615-6.655-3.326-1.979-1.789-2.44-4.286-2.987-6.747-.92-4.125.869-7.204 3.682-9.93.121-.118.33-.27.317-.378-.274-2.171 1.406-2.553 2.817-3.426 1.806-1.111 3.669-1.437 5.956-1.402zm130.15 5.163c-2.223.092-3.994-1.055-5.986-.807a.561.561 0 01-.626-.643.597.597 0 01.184-.466.577.577 0 01.476-.155c1.303.048 2.653-.169 3.955.131.343.078.673.212.968 0 .612-.4 1.598.247 1.906-.4a9.077 9.077 0 00.712-3.039c.082-.925.434-1.815.304-2.77a.559.559 0 01.144-.48.558.558 0 01.468-.176c.404 0 .582.234.664.63.31 1.167.55 2.351.721 3.547.048.629.751.842.634 1.541-.057.322.36.078.573 0 1.055-.469 2.114-.925 3.164-1.398.552-.252 1.233-.464 1.542.113.308.578.104 1.129-.634 1.515-1.033.534-1.928 1.325-2.935 1.915-.734.434-.764.934-.434 1.581.435.948.943 1.861 1.519 2.731a2.352 2.352 0 01.434 1.771c-.034.33.278.834-.273.977-.551.143-1.155.087-1.328-.469-.378-1.207-1.507-1.793-2.123-2.809-.73-1.194-1.502-1.19-2.279-.056-.669.981-1.442 1.862-2.193 2.774-.347.434-.551 1.086-1.224.756-.673-.33-.408-1.012-.317-1.516a13.566 13.566 0 011.984-4.798zm34.643-35.07c-.76.104-1.007-.208-1.111-.99-.183-1.359-.226-2.74-.725-4.06-.803-2.132-2.093-2.861-4.341-2.331-.86.191-1.73.336-2.605.434-.469.061-.986.061-1.064-.604-.065-.547.191-.742.73-.977a20.014 20.014 0 003.907-2.431c1.597-1.19 1.823-3.039 2.296-4.776.265-.96.135-1.95.33-2.888.091-.434 0-1.254.868-1.202.643.039.769.642.869 1.107.364 1.889 1.528 3.556 1.619 5.492.074 1.646 1.241 1.985 2.405 2.089.998.087 2.114.434 3.078-.369.208-.174.664-.113.998-.078.335.034.934-.287.938.473 0 .482 0 .868-.616 1.081-1.893.682-3.582 1.785-5.305 2.805a2.174 2.174 0 00-1.042 1.624c-.291 1.619-.643 3.235-.504 4.898.052.581-.169.807-.725.703zm-21.615-65.428c-1.367-.434-3.139-.999-4.506-2.119-.816-.669-.942-2.067-.63-3.204a9.655 9.655 0 011.068-2.124c.144-.251.395-.59.63-.616 1.65-.178 3.36-.682 4.953-.2 1.593.482 2.41 1.828 2.727 3.474.39 1.984-1.833 4.754-4.242 4.789zm7.38 8.35c-.234-1.303 2.223-3.674 3.595-3.717.434 0 .92-.052 1.033.499.113.552-.226.717-.734.808-1.128.213-1.697 1.025-2.218 2.002-.521.976-.135 1.554.603 2.088.175.112.363.201.56.265.795.291 1.533 1.224 2.44.269.716-.751.903-2.549.365-3.452-.274-.434-.868-.955-.256-1.389.534-.374.976.247 1.38.625 1.233 1.155.669 3.565-.351 5.089-.725 1.077-2.128 1.142-3.66.486-1.533-.656-2.752-1.598-2.757-3.573zm-8.739-3.205c2.735 0 3.729.977 3.907 3.313.152 2.132-1.476 2.87-3.499 2.583a4.451 4.451 0 01-3.225-1.888 3.088 3.088 0 01.026-3.04c.434-.868 1.255-1.059 2.171-.981.186.03.408.013.62.013z" fill="#3A4453"/><path d="M249.461 310.109a38.568 38.568 0 014.776 10.855 24.107 24.107 0 001.232 2.991 69.208 69.208 0 012.952 9.248c.751 2.818 1.394 5.745 1.186 8.741.014.17 0 .342-.044.508-.46.898-3.877 2.231-4.931 2.092a29.522 29.522 0 00-4.993-.034c-1.849.078-3.33.929-4.814 1.906-.934.612-1.472 1.302-1.468 2.444 0 1.455 0 2.831-.642 4.303-1.25 2.853.221 5.271 2.027 7.455.369.434.938.521 1.45.686 1.303.413 1.85-.061 1.524-1.359-.087-.347-.035-.868-.499-1.05-.586-.213-.434.642-.964.668-.621-.933-1.394-1.793-1.832-2.909a3.604 3.604 0 01.304-3.117c.616-1.121.434-2.223.434-3.339.043-1.967 1.693-3.543 3.707-3.721a26.346 26.346 0 016.46 0 3.676 3.676 0 003.473-1.394c.148-.174.291-.434.777-.287.104 5.128-.994 10.034-3.039 15.015-2.053-2.605-4.94-2.171-7.497-2.74-.556-.117-1.237-.039-1.302.799-.065.838.39 1.328 1.228 1.229 1.433-.174 2.753.377 4.124.56 1.038.134 1.685 1.05 2.514 1.606.352.235-.078.56-.182.773-1.225 2.458-2.978 4.55-4.776 6.604-.907 1.047-1.736 2.171-2.913 2.983a1.046 1.046 0 01-1.215.135c-2.227-.912-4.424-1.989-6.946-1.841a6.085 6.085 0 00-3.282 1.076 10.359 10.359 0 01-4.033 1.802c-.485.12-.933.359-1.302.695a1.42 1.42 0 01-1.303.291c-2.943-.56-5.934-.673-8.904-.999-1.115-.121-2.014.695-3.099.916-2.774.565-5.01 2.21-7.037 4.138a1.49 1.49 0 01-1.563.439 3.064 3.064 0 00-2.47.286c-.508.339-1.086.161-1.628.161-3.039 0-5.561 1.246-7.667 3.343-.352.352-.434.144-.69.061-1.802-.599-3.308-1.771-5.027-2.531-.686-.3-1.303-.808-1.971-1.099-3.009-1.255-5.409-3.317-7.775-5.488-2.631-2.414-4.663-5.354-7.159-7.837a21.875 21.875 0 01-4.25-6.001c-.868-1.775-1.407-3.729-2.11-5.588-.582-1.537-1.133-3.095-1.736-4.641a39.16 39.16 0 01-1.767-7.138c-.556-3.152-.56-6.348-.53-9.552.08-3.111.495-6.205 1.237-9.227.725-3.213 1.442-6.409 2.605-9.496 1.068-2.822 2.605-5.388 4.059-8.006a23.54 23.54 0 012.805-4.294 19.251 19.251 0 015.291-4.147c2.171-1.172 4.064-2.796 6.369-3.747a62.278 62.278 0 017.124-2.232c.369-.104.677-.191.834.313.156.504-.174.547-.461.738-.547.356-1.628.499-1.12 1.472.573 1.107 1.463.473 2.171.048a20.398 20.398 0 019.985-2.857c2.366-.092 4.732-.608 7.102-.456 3.794.243 7.575.655 11.361 1.016.621.056 1.116.529 1.784.569.434.026.525.564.404.942-.239.738-.582 1.55-1.333 1.806-1.923.651-3.13 2.171-4.528 3.474-2.604 2.405-5.574 3.79-9.212 3.525-2.561-.187-5.118.083-7.671.274-1.502.113-2.73 1.011-3.82 1.988a12.577 12.577 0 00-2.726 3.14c-1.394 2.453-4.342 3.351-7.38 2.526-2.123-.577-4.224-.968-6.464-.555-.704.126-1.503-.252-2.301.117a5.775 5.775 0 00-2.965 3.243c-.782 1.993-2.062 3.608-3.282 5.289-.777 1.064-.643 2.023-.139 3.265.838 2.067 2.409 3.521 3.716 5.189a2.995 2.995 0 002.483 1.259c3.473-.265 6.152 1.333 8.682 3.378 1.034.833 2.019 1.736 3.07 2.531a8.399 8.399 0 004.97 1.828c2.662.061 5.327.048 7.993 0 2.049-.035 3.742-.96 5.209-2.314.595-.547 1.12-.964 2.075-.552 1.645.708 3.352 1.225 4.797 2.367 1.281 1.011 4.02.434 5.101-.738 2.149-2.31 3.278-5.15 4.459-7.951a2.418 2.418 0 012.14-1.61c3.382-.461 6.364-1.711 8.721-4.251.277-.257.498-.567.651-.912.912-2.635 3.113-3.769 5.462-4.694 2.348-.924 4.211-2.448 5.934-4.402z" fill="#B0D9E8"/><path d="M184.547 309.63c2.171.161 4.042.829 5.973 1.146 2.223.369 4.533.365 6.33-1.189 1.228-1.068 2.079-2.566 3.152-3.83a5.888 5.888 0 014.098-2.036c3.069-.291 6.169 0 9.212-.295a14.361 14.361 0 009.551-5.137 7.768 7.768 0 012.93-1.984c1.207-.534 1.997-1.264 2.17-2.631.061-.478.278-.812 1.025-.56.747.251 1.302.538 1.954.816 2.383 1.038 4.901 1.88 6.998 3.408 2.622 1.937 5.404 3.795 7.236 6.635a26.843 26.843 0 002.375 3.234c.625.695.36 1.155 0 1.772-1.172 1.945-3.039 2.952-5.049 3.76-2.605 1.059-4.832 2.44-6.104 5.123-1.272 2.684-3.69 3.826-6.425 4.403-.699.152-1.428.143-2.122.304-1.707.404-2.735 1.594-3.274 3.178a28.883 28.883 0 01-2.986 6.07c-1.125 1.785-2.896 1.88-5.149.556a16.514 16.514 0 00-4.059-1.554c-2.236-.604-3.673.933-5.153 2.088a4.211 4.211 0 01-2.423.968c-2.669.1-5.331.148-8.001.435-1.328.134-2.791-.695-3.907-1.655-2.096-1.771-4.202-3.525-6.598-4.889a7.82 7.82 0 00-4.602-1.046 3.912 3.912 0 01-3.577-1.52c-1.207-1.489-2.67-2.787-3.299-4.706a1.473 1.473 0 01.195-1.594c1.363-1.871 3.074-3.512 3.547-5.974.247-1.303 1.402-1.941 2.696-2.336a25.858 25.858 0 013.286-.96z" fill="#9CE084"/><path d="M199.19 382.891a12.53 12.53 0 016.733-1.91c1.337 0 2.627-.434 4.059-.287 1.763.17 2.831-1.537 4.124-2.509 3.521-2.649 7.415-3.291 11.652-2.484 1.355.261 2.748.269 4.085.682.782.243 1.481-.222 2.132-.604a9.25 9.25 0 013.125-1.172 3.237 3.237 0 001.42-.747c1.875-1.402 3.846-2.171 6.152-.916.711.293 1.45.514 2.205.66-.734 1.207-2.019 1.572-3.087 2.11-1.189.595-2.431 1.116-3.607 1.737-3.074 1.628-6.373 2.605-9.664 3.656-2.405.777-4.775 1.689-7.237 2.301a53.206 53.206 0 01-10.584 1.559 25.064 25.064 0 01-5.604-.382 23.75 23.75 0 01-5.904-1.694z" fill="#FEFEFE"/><path d="M150.62 375.115c2.848-.282 5.127 1.511 7.285 3.37.961.747 1.854 1.58 2.665 2.488 1.78 2.171 1.672 4.533 1.272 7.003-.694 4.268-3.542 6.843-7.154 8.636-1.702.869-3.66.543-5.422-.074a53.622 53.622 0 01-5.6-2.379c-2.123-1.029-2.735-3.109-3.352-5.176-1.38-4.624.686-7.637 3.764-10.042.508-.4 1.498-.734.434-1.65-.282-.239.217-.339.391-.469 1.602-1.22 3.425-1.737 5.717-1.707z" fill="#FFDA74"/><path d="M315.43 336.507c-1.011-1.65-1.936-3.187-4.54-2.436 1.12-1.163 2.079-1.914 2.4-3.182.3-1.199.947-2.306.964-3.66a4.34 4.34 0 01.968 2.718c.083 1.762.868 2.8 2.644 3.069.291.048.582.104.89.161-1.133 1.025-3.039 1.246-3.326 3.33zm-21.415-66.435c1.211.031 2.848 1.598 2.939 2.814.091 1.216-1.346 3.204-2.579 3.074-1.232-.13-2.769-.469-3.642-1.572-.725-.92-.33-1.993.243-2.987.708-1.238 2.01-.934 3.039-1.329zm-.234 17.688c-.938-.278-2.054-.538-2.8-1.48a1.527 1.527 0 01-.239-1.846c.382-.712.812-.625 1.502-.582 1.302.083 2.544-.03 3.039 1.577.321 1.029-.395 2.357-1.502 2.331z" fill="#B0D9E8"/><path d="M188.997 336.673c2.17-.157 4.002.985 5.991 1.784 2.787 1.116 5.539 1.45 8.426.369a8.502 8.502 0 013.082-.525 11.053 11.053 0 005.822-1.272 2.762 2.762 0 012.431-.096c1.445.534 3.039.434 4.51.995 2.219.842 3.139 2.765 2.518 5.106-.529 1.993-1.888 3.569-2.457 5.57-.49 1.737-.868 3.083.252 4.833 1.511 2.362 1.207 5.067.521 7.772a7.439 7.439 0 01-3.56 4.898c-.472.364-.917.762-1.333 1.189-2.843 2.293-7.158.981-8.682-2.683a18.16 18.16 0 01-1.303-6.978c0-2.57-.256-2.757-2.717-3.773a28.995 28.995 0 00-4.415-1.302c-1.398-.326-2.991-.5-4.424.434a12.54 12.54 0 01-3.039 1.428c-3.234 1.069-7.202-.738-7.836-4.654-.169-1.055-.542-2.089-.807-3.135-.434-1.676.122-3.009.833-4.39.057-.108.187-.251.152-.33-.677-1.71.27-2.774 1.416-3.838 1.285-1.159 2.774-1.268 4.619-1.402zm-40.469 41.047c.226-1.003 1.085-1.433 2.231-.994 1.511.577 2.34 1.936 3.122 3.204.534.869-.265 1.863-1.303 1.88-1.341.026-2.418 1.147-3.907.808-1.055-.243-1.641-.869-1.702-2.358-.06-1.489.434-2.384 1.537-2.566.695.434.486.903.078 1.377a1.356 1.356 0 00-.095 1.867c.516.69 1.181.542 1.849.247a6.101 6.101 0 011.207-.434c1.12-.235 1.011-.2.434-1.12-.764-1.355-2.04-1.72-3.451-1.911zm.529 12.678c.348-.057.686-.261.773.208a.573.573 0 01-.092.493.567.567 0 01-.446.228 4.424 4.424 0 01-3.721-1.398c-.768-.869-.798-2.136-.325-3.287a1.65 1.65 0 01.486-.573.457.457 0 01.341-.149.46.46 0 01.341.149c.143.165.086.378 0 .59-.916 2.167.308 3.847 2.643 3.739zm5.683 3.7c-.065.434.235 1.068-.408 1.303-.642.234-1.172.178-1.302-.669 0-.03-.256 0-.361-.052a1.301 1.301 0 01-.738-1.576c.27-.89 1.12-.699 1.837-.738.785-.044.868.49.946 1.042.024.229.033.46.026.69z" fill="#3A4453"/><path d="M148.819 388.762c-.968.069-1.589-.204-1.546-1.251.026-.634-.052-1.341.921-1.302.777 0 1.593.955 1.671 1.736.104.969-.508.851-1.046.817zm7.462 1.039c-.59.052-1.016-.078-1.042-.868 0-.712.547-1.029.908-.869.473.204 1.45-.238 1.411.778-.027.725-.539.994-1.277.959zm-4.397.267c-.278-.083-.665.161-.734-.317-.048-.313.078-.46.412-.478.608-.034.63-.625.843-.998a.432.432 0 01.494-.27c.304 0 .287.248.296.456.052.951-.369 1.498-1.311 1.607zm3.186-5.925c.321.104.916 0 .959.738.022.343-.308.729-.434.503-.434-.751-1.549.843-1.615-.547-.03-.647.443-.733 1.09-.694z" fill="#3A4453"/><path d="M188.914 338.526c1.706-.386 3.182.812 4.776 1.481 3.512 1.467 7.028 1.784 10.662.543a8.945 8.945 0 013.473-.474c1.91.126 3.638-.46 5.283-1.337.239-.13.486-.304.699-.182 1.498.868 3.286.486 4.832 1.22 1.193.564 1.736 1.437 1.302 2.726-.829 2.436-2.284 4.599-3.039 7.082-.373 1.238-.534 2.314.304 3.426a9.327 9.327 0 011.372 3.039c.473 1.576 0 3.139-.269 4.689-.33 1.985-1.39 3.405-3.356 4.073-.486.165-.734.669-1.229.934-1.736.929-4.098-.17-4.918-2.128a16.853 16.853 0 01-1.277-6.877c.052-2.523-.798-4.247-3.416-4.976a27.214 27.214 0 01-3.039-.977c-2.327-.973-4.693-.556-7.041-.691a1.268 1.268 0 00-.908.361 8.326 8.326 0 01-4.193 1.828c-1.216.139-2.214-.717-2.761-1.772-.995-1.928-1.68-3.907-1.364-6.204.157-1.112.126-2.171.5-3.322.66-1.958 1.042-2.462 3.607-2.462z" fill="#9CE084"/><path d="M148.528 377.72c2.357-.808 3.191 1.194 4.389 2.449.317.329.16.92-.499.868-.869-.091-1.546.273-2.267.616a1.351 1.351 0 01-1.858-.412c-.573-.79-.82-1.698.044-2.34.595-.435.512-.73.213-1.194l-.022.013zm5.205 16.961c-.048-.53-.812-.773-.534-1.372a.434.434 0 01.434-.087c.525.399.347.925.1 1.459z" fill="#FEFEFE"/><path d="M137.113 46.778c0 3.847 0 7.141-1.317 10.278a14.343 14.343 0 01-6.988 7.372c-1.013.51-1.59 1.365-2.487 1.917-4.938 3.034-10.18 3.64-15.955 3.392-6.018-.255-10.604-3.32-15.166-6.189A26.09 26.09 0 0183.674 48.24a36.666 36.666 0 01-1.535-14.149c.607-5.679 3.234-10.52 8.117-13.845 2.936-2.002 6.218-3.313 9.464-4.708 5.459-2.343 10.919-1.554 16.488-.607 4.374.74 7.413 3.507 10.665 6.067.879.692 1.704 1.45 2.554 2.184 3.597 3.107 5.126 7.36 6.163 11.747.958 4.034 1.868 8.148 1.523 11.849z" fill="#3A4453"/><path d="M134.989 47.355c-.254 2.912.055 5.891-1.055 8.725a12.822 12.822 0 01-4.538 5.497c-1.82 1.359-3.555 2.966-5.678 3.919-3.979 1.784-7.977 3.33-12.509 2.318-1.419-.322-2.93 0-4.398-.413-2.881-.861-5.332-2.56-7.97-3.89a26.978 26.978 0 01-9.707-8.275c-2.833-3.87-3.973-8.36-4.926-12.947a22.738 22.738 0 011.644-14.131c1.82-3.986 5.035-6.626 9.1-8.276 1.777-.722 3.87-.886 5.423-1.65 3.033-1.493 6.066-1.748 9.233-1.566 5.083.304 9.924 1.432 13.795 5.133 2.341 2.24 5.277 3.883 7.018 6.71 2.118 3.447 3.034 7.342 3.804 11.268.546 2.488.802 5.03.764 7.578z" fill="#967057"/><path d="M118.762 47.736c.115 3.264-1.741 5.558-3.343 7.888-.77 1.11-4.064.721-5.89-.547a19.595 19.595 0 01-3.719-3.063 7.822 7.822 0 00-4.173-2.597c-4.423-1.117-6.067-4.66-7.28-8.428a3.605 3.605 0 011.596-4.192c1.559-.929 3.287-1.717 5.132-.722 3.033 1.62 5.787 3.695 9.239 4.41.964.2 1.874.607 2.893.607 2.906.037 4.307 1.026 5.084 3.84.255.96.728 1.955.461 2.804zM107.691 30.67c-1.596.443-3.033-.643-4.422-1.353-2.051-1.044-2.427-3.895-1.074-6.244 1.122-1.977 3.494-2.572 5.654-1.698 2.014.819 3.215 2.469 4.592 3.937a3.15 3.15 0 01.406 3.374c-.606 1.34-2.093 1.777-3.524 1.972-.543.038-1.088.042-1.632.012zm19.703 6.51c.377 1.45-.388 2.828-1.425 4.09a3.731 3.731 0 01-5.709.091 6.47 6.47 0 01-.74-7.038c.892-1.881 1.899-3.343 4.119-2.797 2.797.686 3.755 2.245 3.755 5.655zm-2.578 17.959c-2.626.34-3.209-1.626-2.705-3.804.273-1.214.873-2.263 1.001-3.52.103-.976 2.663-1.74 3.567-1.073.752.558 1.565 1.213 1.722 2.196a7.936 7.936 0 01-1.134 5.024 2.027 2.027 0 01-2.451 1.177z" fill="#3A4453"/><path d="M96.395 40.487c-.248-1.213.34-1.82 1.347-2.233a2.674 2.674 0 012.76.164 37.692 37.692 0 009.706 4.138 8.614 8.614 0 002.427.37c2.596 0 4.811 2.724 4.319 5.352-.382 2.056-1.535 3.767-2.718 5.4-1.079 1.48-2.426.133-3.639-.11a2.92 2.92 0 01-1.408-1 20.272 20.272 0 00-8.62-5.85c-2.724-.983-3.476-3.713-4.174-6.23zm11.902-11.559c-1.055.133-1.929-.31-2.839-.752-2.766-1.353-2.723-2.221-.697-4.787a1.527 1.527 0 011.34-.425 9.582 9.582 0 014.938 3.877c.546.795-.212 1.553-.994 1.868a6.303 6.303 0 01-1.748.219zm17.283 7.851c.17.685-.248 1.213-.515 1.82-.485 1.062-1.335 2.196-2.384 2.045-1.262-.188-1.699-1.669-1.984-2.858-.285-1.19.322-2.22.959-3.198 1.364 1.165 1.304-.685 1.941-.861a1.559 1.559 0 011.498 1.031c.188.631.661 1.256.485 2.02zm.735 13.143a7.691 7.691 0 01-.607 2.797c-.194.607-.558.928-1.244.728-.861-.249-.685-.71-.388-1.341.313-.748.583-1.514.807-2.293.146-.425-.297-1.214.661-1.129.758.097.813.722.771 1.238z" fill="#FFDA74"/><defs><radialGradient id="paint0_radial" cx="0" cy="0" r="1" gradientUnits="userSpaceOnUse" gradientTransform="matrix(-503.9989 164.00233 -143.53805 -441.1097 379 131)"><stop stop-color="#807CAA"/><stop offset=".737" stop-color="#D2D2D4"/></radialGradient></defs></svg>